<svg width="1920" height="9320" viewBox="0 0 1920 9320" fill="none" xmlns="http://www.w3.org/2000/svg">
<g clip-path="url(#clip0_505_8626)">
<rect width="1920" height="9319.06" fill="white"/>
<mask id="path-1-outside-1_505_8626" maskUnits="userSpaceOnUse" x="-1012.52" y="-336.045" width="1618.89" height="2370.08" fill="black">
<rect fill="white" x="-1012.52" y="-336.045" width="1618.89" height="2370.08"/>
<path fill-rule="evenodd" clip-rule="evenodd" d="M-821.492 249.668C-849.267 299.046 -896.776 339.359 -968.366 358.246C-971.003 396.717 -959.383 535.149 -949.577 577.174C-931.501 581.363 -906.391 576.005 -888.969 577.823C-827.074 584.263 -772.042 616.973 -744.657 717.885C-706.607 857.999 -770.33 943.247 -826.819 1024.48C-807.482 1075.04 -763.225 1169 -735.9 1199.07C-688.51 1164.82 -660.588 1126.99 -604.144 1123.01C-527.973 1117.61 -456.14 1209.21 -457.023 1342.74C-457.554 1421.89 -472.916 1450.99 -477.533 1498.95C-444.836 1525.32 -377.299 1569.15 -342.552 1580.91C-326.475 1558.65 -323.733 1513.77 -278.711 1448.92C-246.765 1402.78 -206.757 1381.06 -164.797 1387.31C-70.2382 1401.36 -47.7744 1490.37 -16.7717 1645.92C10.0678 1652.19 104.548 1637.7 132.027 1617.2C125.418 1492.68 136.912 1369.35 225.96 1316.53C250.143 1302.16 271.257 1296.45 293.396 1300.95C313.711 1305.06 329.614 1311.83 345.257 1326.13C413.509 1388.08 401.318 1398.44 433.478 1436.42C466.766 1413.8 532.679 1341.29 551.591 1303.02C514.454 1197.85 478.892 1085.4 510.22 998.607C473.052 959.15 434.758 910.806 395.309 853.479C363.216 911.225 325.219 964.812 281.576 1009.25C11.9399 1283.53 -351.049 1190.51 -534.814 804.109C-564.511 736.631 -588.265 670.062 -606.343 604.563C-728.848 484.185 -800.47 365.946 -821.343 249.925"/>
</mask>
<path d="M-968.366 358.246L-968.415 356.111L-970.02 356.534L-970.153 358.481L-968.366 358.246ZM-949.577 577.174L-951.31 578.126L-951.076 579.13L-950.224 579.327L-949.577 577.174ZM-888.969 577.823L-889.453 580.002L-889.453 580.003L-888.969 577.823ZM-744.657 717.885L-746.371 718.91L-746.371 718.91L-744.657 717.885ZM-826.819 1024.48L-828.091 1023.26L-828.937 1024.47L-828.471 1025.69L-826.819 1024.48ZM-735.9 1199.07L-737.233 1200.81L-736.388 1201.74L-735.22 1200.9L-735.9 1199.07ZM-604.144 1123.01L-604.382 1125.19L-604.382 1125.19L-604.144 1123.01ZM-457.023 1342.74L-455.23 1342.34L-455.23 1342.34L-457.023 1342.74ZM-477.533 1498.95L-479.314 1499.11L-479.425 1500.27L-478.707 1500.85L-477.533 1498.95ZM-342.552 1580.91L-343.322 1583.03L-342.202 1583.41L-341.308 1582.17L-342.552 1580.91ZM-278.711 1448.92L-277.437 1450.13L-277.435 1450.13L-278.711 1448.92ZM-164.797 1387.31L-165.339 1389.49L-165.339 1389.49L-164.797 1387.31ZM-16.7717 1645.92L-18.5198 1646.8L-18.3081 1647.86L-17.4208 1648.07L-16.7717 1645.92ZM132.027 1617.2L132.736 1619.01L133.896 1618.14L133.817 1616.65L132.027 1617.2ZM225.96 1316.53L226.478 1318.46L226.479 1318.46L225.96 1316.53ZM293.396 1300.95L292.785 1303.11L292.786 1303.11L293.396 1300.95ZM345.257 1326.13L344.018 1327.97L344.021 1327.97L345.257 1326.13ZM433.478 1436.42L432.111 1438.13L432.926 1439.09L434.107 1438.29L433.478 1436.42ZM551.591 1303.02L553.081 1303.87L553.601 1302.82L553.261 1301.85L551.591 1303.02ZM510.22 998.607L511.842 999.149L512.358 997.717L511.535 996.844L510.22 998.607ZM395.309 853.479L396.77 851.896L395.36 849.847L393.884 852.504L395.309 853.479ZM281.576 1009.25L282.56 1010.81L282.561 1010.81L281.576 1009.25ZM-534.814 804.109L-536.432 805.41L-536.421 805.434L-536.409 805.458L-534.814 804.109ZM-606.343 604.563L-604.631 603.529L-604.761 603.06L-605.067 602.759L-606.343 604.563ZM-821.492 249.668L-822.91 248.681C-850.279 297.338 -897.224 337.328 -968.415 356.111L-968.366 358.246L-968.318 360.382C-896.328 341.389 -848.255 300.754 -820.074 250.656L-821.492 249.668ZM-968.366 358.246L-970.153 358.481C-971.488 377.95 -969.22 422.367 -965.422 467.004C-961.622 511.664 -956.255 556.936 -951.31 578.126L-949.577 577.174L-947.844 576.223C-952.706 555.388 -958.052 510.431 -961.854 465.751C-965.658 421.048 -967.882 377.014 -966.579 358.011L-968.366 358.246ZM-949.577 577.174L-950.224 579.327C-940.976 581.47 -929.994 581.161 -919.289 580.573C-908.494 579.98 -898.022 579.109 -889.453 580.002L-888.969 577.823L-888.485 575.643C-897.338 574.719 -908.132 575.618 -918.767 576.202C-929.491 576.792 -940.103 577.067 -948.931 575.022L-949.577 577.174ZM-888.969 577.823L-889.453 580.003C-858.7 583.203 -829.743 592.918 -805.083 614.291C-780.431 635.657 -759.983 668.753 -746.371 718.91L-744.657 717.885L-742.942 716.86C-756.715 666.106 -777.476 632.39 -802.66 610.564C-827.837 588.743 -857.343 578.883 -888.486 575.643L-888.969 577.823ZM-744.657 717.885L-746.371 718.91C-727.468 788.522 -733.878 844.295 -751.897 892.693C-769.976 941.251 -799.781 982.548 -828.091 1023.26L-826.819 1024.48L-825.546 1025.69C-797.367 985.175 -767.067 943.234 -748.674 893.832C-730.222 844.271 -723.796 787.363 -742.942 716.86L-744.657 717.885ZM-826.819 1024.48L-828.471 1025.69C-818.777 1051.04 -802.853 1087.23 -785.933 1120.84C-769.039 1154.4 -751.055 1185.6 -737.233 1200.81L-735.9 1199.07L-734.567 1197.32C-748.07 1182.46 -765.877 1151.65 -782.777 1118.07C-799.651 1084.55 -815.523 1048.48 -825.166 1023.26L-826.819 1024.48ZM-735.9 1199.07L-735.22 1200.9C-723.303 1192.28 -712.618 1183.45 -702.458 1175.03C-692.279 1166.59 -682.649 1158.59 -672.748 1151.53C-653.018 1137.45 -632.24 1127.16 -604.382 1125.19L-604.144 1123.01L-603.905 1120.82C-632.492 1122.84 -653.898 1133.45 -674.087 1147.85C-684.146 1155.03 -693.91 1163.15 -704.059 1171.56C-714.226 1179.99 -724.802 1188.73 -736.581 1197.24L-735.9 1199.07ZM-604.144 1123.01L-604.382 1125.19C-566.906 1122.53 -530.303 1143.75 -503.14 1182.37C-475.994 1220.97 -458.377 1276.84 -458.816 1343.14L-457.023 1342.74L-455.23 1342.34C-454.785 1275.12 -472.644 1218.41 -500.236 1179.18C-527.812 1139.97 -565.211 1118.08 -603.906 1120.82L-604.144 1123.01ZM-457.023 1342.74L-458.816 1343.14C-459.08 1382.52 -463.031 1409.41 -467.488 1432.44C-471.935 1455.41 -476.988 1474.95 -479.314 1499.11L-477.533 1498.95L-475.752 1498.79C-473.461 1474.98 -468.525 1456 -464.003 1432.65C-459.493 1409.34 -455.497 1382.11 -455.23 1342.34L-457.023 1342.74ZM-477.533 1498.95L-478.707 1500.85C-462.305 1514.07 -437.198 1531.65 -411.851 1547.4C-386.527 1563.13 -360.848 1577.1 -343.322 1583.03L-342.552 1580.91L-341.781 1578.79C-359.003 1572.97 -384.466 1559.14 -409.772 1543.42C-435.054 1527.71 -460.065 1510.2 -476.359 1497.06L-477.533 1498.95ZM-342.552 1580.91L-341.308 1582.17C-337.065 1576.3 -333.77 1569.03 -330.526 1560.62C-328.9 1556.4 -327.268 1551.85 -325.533 1547C-323.795 1542.14 -321.949 1536.97 -319.878 1531.47C-311.613 1509.51 -299.774 1482.31 -277.437 1450.13L-278.711 1448.92L-279.985 1447.7C-302.67 1480.38 -314.713 1508.05 -323.094 1530.31C-325.184 1535.86 -327.047 1541.08 -328.783 1545.93C-330.522 1550.79 -332.129 1555.28 -333.724 1559.41C-336.924 1567.71 -340 1574.4 -343.796 1579.65L-342.552 1580.91ZM-278.711 1448.92L-277.435 1450.13C-245.941 1404.65 -206.628 1383.33 -165.339 1389.49L-164.797 1387.31L-164.254 1385.14C-206.887 1378.79 -247.59 1400.92 -279.986 1447.7L-278.711 1448.92ZM-164.797 1387.31L-165.339 1389.49C-118.547 1396.44 -89.6475 1421.88 -68.5367 1464.92C-47.3553 1508.11 -34.0326 1568.97 -18.5198 1646.8L-16.7717 1645.92L-15.0235 1645.03C-30.5136 1567.32 -43.924 1505.9 -65.3649 1462.18C-86.8763 1418.32 -116.488 1392.23 -164.255 1385.14L-164.797 1387.31ZM-16.7717 1645.92L-17.4208 1648.07C-10.5093 1649.69 0.598597 1649.94 13.6844 1649.15C26.8096 1648.34 42.0525 1646.47 57.3076 1643.76C72.5604 1641.05 87.8568 1637.5 101.084 1633.33C114.252 1629.18 125.569 1624.35 132.736 1619.01L132.027 1617.2L131.319 1615.39C124.746 1620.29 113.948 1624.97 100.833 1629.1C87.7787 1633.22 72.6251 1636.74 57.4681 1639.44C42.3133 1642.13 27.1863 1643.98 14.1892 1644.78C1.1526 1645.57 -9.61437 1645.29 -16.1226 1643.76L-16.7717 1645.92ZM132.027 1617.2L133.817 1616.65C130.516 1554.46 131.757 1492.81 144.832 1440.23C157.879 1387.76 182.656 1344.46 226.478 1318.46L225.96 1316.53L225.441 1314.59C180.216 1341.42 154.722 1386.19 141.413 1439.72C128.131 1493.14 126.93 1555.43 130.238 1617.75L132.027 1617.2ZM225.96 1316.53L226.479 1318.46C250.38 1304.27 271.087 1298.7 292.785 1303.11L293.396 1300.95L294.008 1298.79C271.427 1294.2 249.906 1300.06 225.44 1314.59L225.96 1316.53ZM293.396 1300.95L292.786 1303.11C312.926 1307.18 328.596 1313.87 344.018 1327.97L345.257 1326.13L346.496 1324.29C330.632 1309.78 314.496 1302.93 294.006 1298.79L293.396 1300.95ZM345.257 1326.13L344.021 1327.97C378.084 1358.89 391.998 1376.87 401.404 1391.79C410.794 1406.69 415.939 1419.03 432.111 1438.13L433.478 1436.42L434.846 1434.72C418.857 1415.83 414.017 1404 404.399 1388.74C394.797 1373.5 380.682 1355.32 346.493 1324.28L345.257 1326.13ZM433.478 1436.42L434.107 1438.29C450.987 1426.82 475.947 1402.85 498.993 1377.07C522.016 1351.31 543.441 1323.38 553.081 1303.87L551.591 1303.02L550.1 1302.17C540.828 1320.93 519.841 1348.39 496.858 1374.11C473.897 1399.8 449.257 1423.4 432.85 1434.56L433.478 1436.42ZM551.591 1303.02L553.261 1301.85C534.69 1249.26 516.567 1194.99 506.985 1143.07C497.395 1091.11 496.43 1041.84 511.842 999.149L510.22 998.607L508.598 998.066C492.682 1042.16 493.833 1092.52 503.477 1144.77C513.128 1197.07 531.354 1251.61 549.921 1304.19L551.591 1303.02ZM510.22 998.607L511.535 996.844C474.431 957.453 436.184 909.173 396.77 851.896L395.309 853.479L393.847 855.061C433.331 912.439 471.674 960.846 508.905 1000.37L510.22 998.607ZM395.309 853.479L393.884 852.504C361.891 910.07 324.037 963.446 280.592 1007.68L281.576 1009.25L282.561 1010.81C326.4 966.179 364.54 912.379 396.734 854.453L395.309 853.479ZM281.576 1009.25L280.592 1007.68C12.202 1280.7 -349.723 1188.59 -533.219 802.759L-534.814 804.109L-536.409 805.458C-352.375 1192.42 11.6777 1286.37 282.56 1010.81L281.576 1009.25ZM-534.814 804.109L-533.197 802.808C-562.859 735.407 -586.581 668.927 -604.631 603.529L-606.343 604.563L-608.056 605.596C-589.949 671.197 -566.162 737.855 -536.432 805.41L-534.814 804.109ZM-606.343 604.563L-605.067 602.759C-727.478 482.473 -798.818 364.53 -819.587 249.083L-821.343 249.925L-823.099 250.766C-802.123 367.361 -730.218 485.897 -607.62 606.366L-606.343 604.563Z" fill="#E6F3ED" mask="url(#path-1-outside-1_505_8626)"/>
<mask id="path-3-outside-2_505_8626" maskUnits="userSpaceOnUse" x="936.989" y="1021.03" width="1995.48" height="2739.57" fill="black">
<rect fill="white" x="936.989" y="1021.03" width="1995.48" height="2739.57"/>
<path fill-rule="evenodd" clip-rule="evenodd" d="M2705.24 2725.4C2737.28 2662.31 2793.56 2599.61 2879.78 2547.98C2881.68 2507.4 2862.92 2370.92 2849.61 2332.31C2827.53 2336.18 2797.25 2352.99 2776.05 2358.99C2700.74 2380.31 2632.87 2371.65 2596.25 2280.69C2545.36 2154.4 2619.8 2038.38 2685.6 1929.73C2660.44 1886.68 2603.58 1810.45 2569.41 1791.99C2513.07 1848.43 2480.47 1899.75 2412.12 1929.29C2319.89 1969.18 2229.65 1907.8 2226.22 1770.69C2224.2 1689.41 2241.86 1652.7 2245.84 1601.51C2205.29 1589.26 2121.87 1574.85 2079.32 1578.48C2060.56 1608.53 2058.75 1655.71 2006.31 1742.42C1969.11 1804.06 1921.3 1844.35 1870.18 1856.87C1754.98 1885.15 1724.73 1804.15 1681.87 1658.88C1649.1 1664.56 1534.96 1722.02 1502.31 1755.4C1514.53 1879.9 1504.74 2011.36 1398.48 2105.61C1369.62 2131.22 1344.2 2146.6 1317.19 2151.97C1292.4 2156.93 1272.88 2157.18 1253.42 2149.59C1168.52 2116.95 1182.97 2100.85 1142.67 2076.46C1103.04 2114.64 1025.52 2218.61 1003.86 2266.32C1052.46 2357.24 1099.4 2456.34 1064.31 2559.32C1110.73 2582.96 1158.82 2615.18 1208.62 2656.08C1245.61 2582.48 1289.9 2510.47 1341.35 2445.3C1659.25 2042.85 2102.78 1974.36 2338.75 2287.06C2377.05 2342.75 2408.12 2400.19 2432.26 2459.1C2584.94 2527.08 2675.82 2615.83 2705.05 2725.2"/>
</mask>
<path d="M2879.78 2547.98L2880.24 2550.05L2881.37 2549.37L2881.45 2547.78L2879.78 2547.98ZM2849.61 2332.31L2851.14 2331.1L2850.72 2329.86L2849.65 2330.05L2849.61 2332.31ZM2776.05 2358.99L2775.96 2356.76L2775.96 2356.76L2776.05 2358.99ZM2596.25 2280.69L2597.74 2279.36L2597.74 2279.36L2596.25 2280.69ZM2685.6 1929.73L2686.82 1931.02L2687.75 1929.48L2686.97 1928.15L2685.6 1929.73ZM2569.41 1791.99L2570.22 1789.85L2569.39 1789.4L2568.56 1790.23L2569.41 1791.99ZM2412.12 1929.29L2411.85 1927.13L2411.85 1927.13L2412.12 1929.29ZM2226.22 1770.69L2224.55 1771.12L2224.55 1771.12L2226.22 1770.69ZM2245.84 1601.51L2247.51 1601.4L2247.64 1599.64L2246.44 1599.28L2245.84 1601.51ZM2079.32 1578.48L2079.47 1576.21L2078.67 1576.27L2078.12 1577.16L2079.32 1578.48ZM2006.31 1742.42L2005.09 1741.14L2005.09 1741.14L2006.31 1742.42ZM1870.18 1856.87L1870.13 1854.63L1870.13 1854.63L1870.18 1856.87ZM1681.87 1658.88L1683.44 1657.76L1683.04 1656.42L1681.92 1656.62L1681.87 1658.88ZM1502.31 1755.4L1501.45 1753.65L1500.51 1754.61L1500.65 1756.04L1502.31 1755.4ZM1398.48 2105.61L1397.73 2103.75L1397.73 2103.75L1398.48 2105.61ZM1317.19 2151.97L1317.2 2149.71L1317.2 2149.72L1317.19 2151.97ZM1253.42 2149.59L1254.1 2147.39L1254.09 2147.39L1253.42 2149.59ZM1142.67 2076.46L1143.53 2074.35L1142.7 2073.85L1141.85 2074.67L1142.67 2076.46ZM1003.86 2266.32L1002.48 2265.35L1001.86 2266.71L1002.46 2267.84L1003.86 2266.32ZM1064.31 2559.32L1062.81 2558.64L1062.09 2560.75L1063.53 2561.48L1064.31 2559.32ZM1208.62 2656.08L1207.6 2658.08L1208.94 2659.17L1209.95 2657.16L1208.62 2656.08ZM1341.35 2445.3L1340.32 2443.74L1340.32 2443.74L1341.35 2445.3ZM2338.75 2287.06L2340.05 2285.37L2340.03 2285.34L2340.01 2285.31L2338.75 2287.06ZM2432.26 2459.1L2430.77 2460.43L2431.02 2461.05L2431.53 2461.28L2432.26 2459.1ZM2705.24 2725.4L2706.57 2726.49C2738.32 2663.96 2794.25 2601.54 2880.24 2550.05L2879.78 2547.98L2879.31 2545.91C2792.86 2597.68 2736.23 2660.67 2703.91 2724.3L2705.24 2725.4ZM2879.78 2547.98L2881.45 2547.78C2882.41 2527.17 2878.15 2482.64 2872.04 2438.66C2865.93 2394.66 2857.88 2350.65 2851.14 2331.1L2849.61 2332.31L2848.07 2333.53C2854.64 2352.58 2862.63 2396.12 2868.75 2440.16C2874.88 2484.21 2879.05 2528.22 2878.11 2548.19L2879.78 2547.98ZM2849.61 2332.31L2849.65 2330.05C2838.44 2332.01 2825.21 2337.25 2812.24 2342.68C2799.2 2348.14 2786.45 2353.79 2775.96 2356.76L2776.05 2358.99L2776.14 2361.22C2786.85 2358.19 2799.84 2352.44 2812.76 2347.03C2825.75 2341.58 2838.7 2336.48 2849.56 2334.58L2849.61 2332.31ZM2776.05 2358.99L2775.96 2356.76C2738.44 2367.38 2702.92 2370.49 2672.28 2359.73C2641.69 2348.99 2615.87 2324.4 2597.74 2279.36L2596.25 2280.69L2594.75 2282.01C2613.24 2327.94 2639.67 2353.16 2671 2364.16C2702.28 2375.15 2738.36 2371.92 2776.14 2361.22L2776.05 2358.99ZM2596.25 2280.69L2597.74 2279.36C2572.57 2216.9 2578.38 2157.1 2598.66 2099.31C2619 2041.31 2653.86 1985.44 2686.82 1931.02L2685.6 1929.73L2684.38 1928.45C2651.54 1982.67 2616.28 2039.13 2595.68 2097.88C2575 2156.82 2569.03 2218.18 2594.75 2282.01L2596.25 2280.69ZM2685.6 1929.73L2686.97 1928.15C2674.33 1906.54 2653.78 1876.65 2632.1 1849.85C2610.47 1823.1 2587.56 1799.22 2570.22 1789.85L2569.41 1791.99L2568.6 1794.13C2585.43 1803.23 2608.03 1826.69 2629.66 1853.44C2651.25 1880.13 2671.7 1909.88 2684.23 1931.31L2685.6 1929.73ZM2569.41 1791.99L2568.56 1790.23C2511.88 1847 2479.79 1897.76 2411.85 1927.13L2412.12 1929.29L2412.39 1931.46C2481.15 1901.75 2514.26 1849.86 2570.26 1793.76L2569.41 1791.99ZM2412.12 1929.29L2411.85 1927.13C2320.46 1966.65 2231.28 1905.82 2227.89 1770.27L2226.22 1770.69L2224.55 1771.12C2228.02 1909.78 2319.32 1971.71 2412.39 1931.46L2412.12 1929.29ZM2226.22 1770.69L2227.89 1770.27C2226.89 1729.89 2230.77 1700.61 2235.4 1675.03C2240.02 1649.53 2245.5 1627.21 2247.51 1601.4L2245.84 1601.51L2244.18 1601.62C2242.21 1627 2236.86 1648.63 2232.16 1674.6C2227.47 1700.5 2223.53 1730.22 2224.55 1771.12L2226.22 1770.69ZM2245.84 1601.51L2246.44 1599.28C2205.82 1587.01 2122.24 1572.55 2079.47 1576.21L2079.32 1578.48L2079.16 1580.76C2121.5 1577.15 2204.76 1591.51 2245.25 1603.74L2245.84 1601.51ZM2079.32 1578.48L2078.12 1577.16C2073.27 1584.94 2069.55 1593.76 2065.89 1603.83C2064.07 1608.87 2062.24 1614.27 2060.3 1620.02C2058.36 1625.77 2056.29 1631.91 2053.96 1638.48C2044.66 1664.71 2031.18 1697.99 2005.09 1741.14L2006.31 1742.42L2007.53 1743.7C2033.87 1700.14 2047.52 1666.47 2056.93 1639.93C2059.28 1633.3 2061.36 1627.12 2063.3 1621.37C2065.25 1615.61 2067.05 1610.29 2068.85 1605.33C2072.45 1595.4 2075.99 1587.05 2080.52 1579.8L2079.32 1578.48ZM2006.31 1742.42L2005.09 1741.14C1968.16 1802.31 1920.77 1842.22 1870.13 1854.63L1870.18 1856.87L1870.22 1859.12C1921.82 1846.48 1970.05 1805.81 2007.53 1743.7L2006.31 1742.42ZM1870.18 1856.87L1870.13 1854.63C1812.91 1868.67 1777.06 1855.55 1750.14 1821.18C1723.07 1786.63 1704.89 1730.48 1683.44 1657.76L1681.87 1658.88L1680.31 1660C1701.71 1732.55 1720.09 1789.53 1747.66 1824.73C1775.38 1860.11 1812.25 1873.35 1870.22 1859.12L1870.18 1856.87ZM1681.87 1658.88L1681.92 1656.62C1665.29 1659.5 1628.37 1675.4 1591.67 1694.64C1573.28 1704.28 1554.88 1714.79 1539.02 1725C1523.2 1735.18 1509.79 1745.13 1501.45 1753.65L1502.31 1755.4L1503.18 1757.15C1511.16 1748.99 1524.26 1739.23 1540.05 1729.08C1555.8 1718.94 1574.1 1708.48 1592.43 1698.87C1629.15 1679.62 1665.68 1663.94 1681.83 1661.14L1681.87 1658.88ZM1502.31 1755.4L1500.65 1756.04C1506.75 1818.16 1507.32 1881.76 1493.24 1941.47C1479.18 2001.07 1450.47 2056.97 1397.73 2103.75L1398.48 2105.61L1399.23 2107.47C1452.75 2060 1482.06 2003.05 1496.41 1942.24C1510.73 1881.53 1510.09 1817.15 1503.97 1754.77L1502.31 1755.4ZM1398.48 2105.61L1397.73 2103.75C1369.02 2129.23 1343.87 2144.41 1317.2 2149.71L1317.19 2151.97L1317.17 2154.23C1344.53 2148.78 1370.22 2133.22 1399.23 2107.47L1398.48 2105.61ZM1317.19 2151.97L1317.2 2149.72C1292.54 2154.65 1273.27 2154.86 1254.1 2147.39L1253.42 2149.59L1252.74 2151.79C1272.49 2159.49 1292.26 2159.22 1317.17 2154.23L1317.19 2151.97ZM1253.42 2149.59L1254.09 2147.39C1211.72 2131.09 1194.27 2118.98 1182.4 2107.98C1170.55 2097.01 1163.83 2086.63 1143.53 2074.35L1142.67 2076.46L1141.8 2078.57C1161.81 2090.68 1168.01 2100.54 1180.24 2111.88C1192.45 2123.19 1210.22 2135.44 1252.74 2151.8L1253.42 2149.59ZM1142.67 2076.46L1141.85 2074.67C1121.9 2093.89 1092.51 2129.56 1065.44 2166.33C1038.4 2203.06 1013.45 2241.18 1002.48 2265.35L1003.86 2266.32L1005.25 2267.29C1015.94 2243.75 1040.57 2206.03 1067.61 2169.31C1094.62 2132.62 1123.81 2097.21 1143.48 2078.26L1142.67 2076.46ZM1003.86 2266.32L1002.46 2267.84C1026.76 2313.31 1050.54 2360.63 1063.89 2409.37C1077.23 2458.08 1080.08 2507.94 1062.81 2558.64L1064.31 2559.32L1065.81 2560.01C1083.62 2507.72 1080.55 2456.54 1067.05 2407.22C1053.55 2357.94 1029.56 2310.25 1005.26 2264.8L1003.86 2266.32ZM1064.31 2559.32L1063.53 2561.48C1109.86 2585.06 1157.87 2617.23 1207.6 2658.08L1208.62 2656.08L1209.63 2654.07C1159.78 2613.12 1111.61 2580.85 1065.1 2557.17L1064.31 2559.32ZM1208.62 2656.08L1209.95 2657.16C1246.86 2583.72 1291.06 2511.88 1342.39 2446.85L1341.35 2445.3L1340.32 2443.74C1288.75 2509.07 1244.35 2581.24 1207.28 2654.99L1208.62 2656.08ZM1341.35 2445.3L1342.39 2446.86C1659.72 2045.12 2102.22 1977.02 2337.49 2288.82L2338.75 2287.06L2340.01 2285.31C2103.34 1971.69 1658.78 2040.57 1340.32 2443.74L1341.35 2445.3ZM2338.75 2287.06L2337.45 2288.76C2375.69 2344.35 2406.68 2401.67 2430.77 2460.43L2432.26 2459.1L2433.75 2457.76C2409.55 2398.72 2378.42 2341.16 2340.05 2285.37L2338.75 2287.06ZM2432.26 2459.1L2431.53 2461.28C2584.12 2529.23 2674.46 2617.74 2703.47 2726.26L2705.05 2725.2L2706.63 2724.14C2677.17 2613.92 2585.76 2524.94 2432.99 2456.92L2432.26 2459.1Z" fill="#FEEFD5" mask="url(#path-3-outside-2_505_8626)"/>
<mask id="path-5-outside-3_505_8626" maskUnits="userSpaceOnUse" x="-655.834" y="3293.17" width="1496.8" height="1938.09" fill="black">
<rect fill="white" x="-655.834" y="3293.17" width="1496.8" height="1938.09"/>
<path fill-rule="evenodd" clip-rule="evenodd" d="M-465.453 3876.98C-495.106 3919.08 -543.167 3956.72 -613.067 3980.86C-617.918 4011.16 -615.1 4117.4 -608.214 4148.82C-591.104 4149.7 -566.664 4142.22 -550.04 4141.34C-490.979 4138.2 -440.093 4156.41 -419.871 4231.36C-391.769 4335.43 -458.111 4410.19 -517.263 4480.87C-501.737 4517.69 -464.892 4585.01 -440.459 4604.81C-392.878 4571.91 -363.78 4538.78 -309.326 4528.24C-235.84 4514 -172.365 4575.85 -181.261 4679.92C-186.541 4741.61 -203.049 4766.28 -210.375 4804.23C-180.559 4820.45 -118.332 4845.68 -85.6668 4850.25C-68.8833 4830.8 -63.546 4795.51 -16.3939 4739.08C17.0693 4698.96 56.8053 4676.77 96.7307 4676.11C186.706 4674.58 202.918 4740.92 223.321 4857.93C248.722 4859.28 340.342 4835.55 367.971 4815.97C369.127 4719.9 387.599 4622.37 476.311 4569.51C500.404 4555.14 521.028 4547.92 542.021 4548.5C561.285 4549.02 576.152 4552.2 590.315 4561.27C652.136 4600.51 639.803 4610.18 668.403 4635.51C701.739 4613.51 769.417 4548.38 789.887 4516.09C760.556 4439.11 733.176 4356.25 768.497 4284.55C735.176 4258.73 701.308 4226.14 666.873 4186.71C632.568 4235.9 592.843 4282.62 548.248 4322.96C272.737 4572.03 -70.3003 4547.44 -223.517 4270.84C-247.974 4222.22 -266.778 4173.53 -280.195 4124.92C-390.604 4047.34 -452.27 3964.73 -465.326 3877.16"/>
</mask>
<path d="M-613.067 3980.86L-613.237 3978.76L-614.565 3979.22L-614.825 3980.85L-613.067 3980.86ZM-608.214 4148.82L-609.953 4149.74L-609.689 4150.95L-608.625 4151.01L-608.214 4148.82ZM-550.04 4141.34L-550.304 4143.52L-550.303 4143.52L-550.04 4141.34ZM-419.871 4231.36L-421.587 4232.39L-421.587 4232.39L-419.871 4231.36ZM-517.263 4480.87L-518.387 4479.46L-519.476 4480.76L-518.892 4482.15L-517.263 4480.87ZM-440.459 4604.81L-441.636 4606.71L-440.822 4607.37L-439.816 4606.67L-440.459 4604.81ZM-309.326 4528.24L-309.382 4530.4L-309.382 4530.4L-309.326 4528.24ZM-181.261 4679.92L-179.477 4679.73L-179.477 4679.73L-181.261 4679.92ZM-210.375 4804.23L-212.117 4804.13L-212.417 4805.68L-211.349 4806.26L-210.375 4804.23ZM-85.6668 4850.25L-86.1978 4852.43L-85.3065 4852.55L-84.5688 4851.7L-85.6668 4850.25ZM-16.3939 4739.08L-15.2687 4740.49L-15.267 4740.49L-16.3939 4739.08ZM96.7307 4676.11L96.4142 4678.3L96.4149 4678.3L96.7307 4676.11ZM223.321 4857.93L221.563 4858.76L221.789 4860.06L222.907 4860.12L223.321 4857.93ZM367.971 4815.97L368.635 4817.81L369.747 4817.02L369.764 4815.58L367.971 4815.97ZM476.311 4569.51L476.833 4571.45L476.834 4571.45L476.311 4569.51ZM542.021 4548.5L541.642 4550.69L541.643 4550.69L542.021 4548.5ZM590.315 4561.27L589.26 4563.25L589.265 4563.25L590.315 4561.27ZM668.403 4635.51L667.18 4637.36L667.979 4638.07L669.007 4637.39L668.403 4635.51ZM789.887 4516.09L791.227 4517.21L791.978 4516.03L791.541 4514.88L789.887 4516.09ZM768.497 4284.55L769.989 4285.4L770.879 4283.59L769.65 4282.64L768.497 4284.55ZM666.873 4186.71L668.225 4184.99L666.961 4183.54L665.602 4185.49L666.873 4186.71ZM548.248 4322.96L549.126 4324.63L549.126 4324.63L548.248 4322.96ZM-223.517 4270.84L-225.095 4272.22L-225.08 4272.25L-225.063 4272.29L-223.517 4270.84ZM-280.195 4124.92L-278.482 4123.88L-278.649 4123.28L-279.092 4122.97L-280.195 4124.92ZM-465.453 3876.98L-466.716 3875.74C-495.994 3917.31 -543.619 3954.72 -613.237 3978.76L-613.067 3980.86L-612.897 3982.96C-542.715 3958.72 -494.219 3920.84 -464.19 3878.21L-465.453 3876.98ZM-613.067 3980.86L-614.825 3980.85C-617.298 3996.29 -617.791 4030.66 -616.834 4064.9C-615.875 4099.16 -613.448 4133.79 -609.953 4149.74L-608.214 4148.82L-606.474 4147.9C-609.865 4132.42 -612.29 4098.22 -613.249 4063.93C-614.209 4029.62 -613.687 3995.73 -611.308 3980.87L-613.067 3980.86ZM-608.214 4148.82L-608.625 4151.01C-599.882 4151.46 -589.331 4149.77 -579.02 4147.9C-568.624 4146.02 -558.494 4143.96 -550.304 4143.52L-550.04 4141.34L-549.776 4139.15C-558.209 4139.6 -568.612 4141.72 -578.869 4143.58C-589.211 4145.45 -599.436 4147.07 -607.802 4146.64L-608.214 4148.82ZM-550.04 4141.34L-550.303 4143.52C-520.927 4141.96 -493.736 4145.72 -471.411 4159.07C-449.123 4172.39 -431.584 4195.33 -421.587 4232.39L-419.871 4231.36L-418.156 4230.34C-428.38 4192.44 -446.395 4168.8 -469.37 4155.06C-492.309 4141.35 -520.092 4137.58 -549.776 4139.15L-550.04 4141.34ZM-419.871 4231.36L-421.587 4232.39C-407.709 4283.78 -417.138 4327.78 -437.326 4367.77C-457.61 4407.94 -488.735 4444.03 -518.387 4479.46L-517.263 4480.87L-516.139 4482.29C-486.639 4447.04 -455.017 4410.41 -434.367 4369.51C-413.623 4328.43 -403.931 4283.02 -418.156 4230.34L-419.871 4231.36ZM-517.263 4480.87L-518.892 4482.15C-511.092 4500.64 -497.961 4526.75 -483.721 4550.71C-469.514 4574.62 -454.074 4596.62 -441.636 4606.71L-440.459 4604.81L-439.282 4602.92C-451.277 4593.2 -466.476 4571.64 -480.681 4547.73C-494.853 4523.88 -507.908 4497.92 -515.634 4479.6L-517.263 4480.87ZM-440.459 4604.81L-439.816 4606.67C-391.807 4573.47 -363.354 4540.85 -309.382 4530.4L-309.326 4528.24L-309.269 4526.08C-364.205 4536.71 -393.949 4570.35 -441.102 4602.96L-440.459 4604.81ZM-309.326 4528.24L-309.382 4530.4C-236.904 4516.35 -174.26 4577.34 -183.044 4680.11L-181.261 4679.92L-179.477 4679.73C-170.47 4574.35 -234.776 4511.64 -309.27 4526.08L-309.326 4528.24ZM-181.261 4679.92L-183.044 4680.11C-185.664 4710.71 -191.061 4732.1 -196.719 4750.58C-202.355 4768.98 -208.416 4784.95 -212.117 4804.13L-210.375 4804.23L-208.632 4804.33C-205.008 4785.56 -199.152 4770.22 -193.383 4751.38C-187.635 4732.61 -182.138 4710.82 -179.477 4679.73L-181.261 4679.92ZM-210.375 4804.23L-211.349 4806.26C-181.476 4822.51 -119.09 4847.82 -86.1978 4852.43L-85.6668 4850.25L-85.1357 4848.08C-117.574 4843.53 -179.642 4818.39 -209.4 4802.2L-210.375 4804.23ZM-85.6668 4850.25L-84.5688 4851.7C-80.1637 4846.59 -76.562 4840.51 -72.929 4833.51C-71.1112 4830.01 -69.2677 4826.25 -67.3094 4822.25C-65.3466 4818.23 -63.2627 4813.97 -60.9438 4809.41C-51.6925 4791.25 -38.6826 4768.51 -15.2687 4740.49L-16.3939 4739.08L-17.5191 4737.67C-41.2573 4766.08 -54.4922 4789.2 -63.8934 4807.65C-66.2376 4812.25 -68.3424 4816.56 -70.3017 4820.57C-72.2656 4824.59 -74.0778 4828.28 -75.8572 4831.71C-79.4189 4838.57 -82.7781 4844.19 -86.7648 4848.81L-85.6668 4850.25ZM-16.3939 4739.08L-15.267 4740.49C17.8217 4700.82 57.0378 4678.95 96.4142 4678.3L96.7307 4676.11L97.0471 4673.93C56.5729 4674.59 16.317 4697.1 -17.5208 4737.67L-16.3939 4739.08ZM96.7307 4676.11L96.4149 4678.3C140.972 4677.54 167.038 4693.55 184.584 4724.04C202.241 4754.73 211.348 4800.18 221.563 4858.76L223.321 4857.93L225.079 4857.1C214.891 4798.68 205.691 4752.46 187.647 4721.1C169.493 4689.55 142.465 4673.15 97.0465 4673.93L96.7307 4676.11ZM223.321 4857.93L222.907 4860.12C235.875 4860.81 265.357 4855.14 294.88 4846.93C309.685 4842.81 324.576 4838.04 337.514 4833.05C350.408 4828.09 361.505 4822.86 368.635 4817.81L367.971 4815.97L367.307 4814.13C360.622 4818.86 349.906 4823.95 337.057 4828.9C324.251 4833.83 309.469 4838.57 294.74 4842.67C265.196 4850.88 236.169 4856.41 223.736 4855.75L223.321 4857.93ZM367.971 4815.97L369.764 4815.58C370.341 4767.66 375.24 4719.64 390.922 4677.1C406.564 4634.67 432.972 4597.58 476.833 4571.45L476.311 4569.51L475.789 4567.58C430.938 4594.3 403.754 4632.41 387.693 4675.98C371.672 4719.43 366.757 4768.21 366.178 4816.35L367.971 4815.97ZM476.311 4569.51L476.834 4571.45C500.732 4557.19 521.034 4550.11 541.642 4550.69L542.021 4548.5L542.401 4546.32C521.022 4545.72 500.077 4553.1 475.788 4567.58L476.311 4569.51ZM542.021 4548.5L541.643 4550.69C560.759 4551.21 575.366 4554.35 589.26 4563.25L590.315 4561.27L591.371 4559.29C576.939 4550.04 561.812 4546.84 542.399 4546.32L542.021 4548.5ZM590.315 4561.27L589.265 4563.25C620.099 4582.82 632.331 4594.95 640.413 4605.27C648.471 4615.55 652.753 4624.58 667.18 4637.36L668.403 4635.51L669.626 4633.66C655.453 4621.1 651.601 4612.64 643.221 4601.94C634.864 4591.28 622.352 4578.95 591.366 4559.28L590.315 4561.27ZM668.403 4635.51L669.007 4637.39C685.853 4626.27 711.233 4604.37 734.916 4581.26C758.567 4558.19 780.803 4533.65 791.227 4517.21L789.887 4516.09L788.548 4514.97C778.501 4530.82 756.663 4554.99 733.023 4578.05C709.416 4601.08 684.289 4622.75 667.799 4633.63L668.403 4635.51ZM789.887 4516.09L791.541 4514.88C776.872 4476.38 762.77 4436.6 756.713 4397.55C750.658 4358.52 752.689 4320.52 769.989 4285.4L768.497 4284.55L767.005 4283.71C748.984 4320.29 747.045 4359.56 753.183 4399.13C759.318 4438.68 773.571 4478.82 788.234 4517.31L789.887 4516.09ZM768.497 4284.55L769.65 4282.64C736.413 4256.89 702.611 4224.36 668.225 4184.99L666.873 4186.71L665.52 4188.43C700.005 4227.92 733.939 4260.58 767.344 4286.47L768.497 4284.55ZM666.873 4186.71L665.602 4185.49C631.401 4234.53 591.806 4281.1 547.369 4321.3L548.248 4322.96L549.126 4324.63C593.881 4284.15 633.735 4237.27 668.143 4187.93L666.873 4186.71ZM548.248 4322.96L547.369 4321.29C272.657 4569.64 -69.2803 4545.04 -221.972 4269.39L-223.517 4270.84L-225.063 4272.29C-71.3203 4549.83 272.818 4574.42 549.126 4324.63L548.248 4322.96ZM-223.517 4270.84L-221.94 4269.45C-246.347 4220.93 -265.103 4172.36 -278.482 4123.88L-280.195 4124.92L-281.907 4125.95C-268.452 4174.7 -249.601 4223.51 -225.095 4272.22L-223.517 4270.84ZM-280.195 4124.92L-279.092 4122.97C-389.408 4045.46 -450.62 3963.17 -463.559 3876.38L-465.326 3877.16L-467.093 3877.93C-453.919 3966.29 -391.799 4049.23 -281.297 4126.86L-280.195 4124.92Z" fill="#E6F3ED" mask="url(#path-5-outside-3_505_8626)"/>
<mask id="path-7-outside-4_505_8626" maskUnits="userSpaceOnUse" x="960.533" y="4716.17" width="1496.8" height="1938.09" fill="black">
<rect fill="white" x="960.533" y="4716.17" width="1496.8" height="1938.09"/>
<path fill-rule="evenodd" clip-rule="evenodd" d="M1150.91 5299.98C1121.26 5342.08 1073.2 5379.72 1003.3 5403.86C998.449 5434.16 1001.27 5540.4 1008.15 5571.82C1025.26 5572.7 1049.7 5565.22 1066.33 5564.34C1125.39 5561.2 1176.27 5579.41 1196.5 5654.36C1224.6 5758.43 1158.26 5833.19 1099.1 5903.87C1114.63 5940.69 1151.48 6008.01 1175.91 6027.81C1223.49 5994.91 1252.59 5961.78 1307.04 5951.24C1380.53 5937 1444 5998.85 1435.11 6102.92C1429.83 6164.61 1413.32 6189.28 1405.99 6227.23C1435.81 6243.45 1498.04 6268.68 1530.7 6273.25C1547.48 6253.8 1552.82 6218.51 1599.97 6162.08C1633.44 6121.96 1673.17 6099.77 1713.1 6099.11C1803.07 6097.58 1819.28 6163.92 1839.69 6280.93C1865.09 6282.28 1956.71 6258.55 1984.34 6238.97C1985.49 6142.9 2003.97 6045.37 2092.68 5992.51C2116.77 5978.14 2137.4 5970.92 2158.39 5971.5C2177.65 5972.02 2192.52 5975.2 2206.68 5984.27C2268.5 6023.51 2256.17 6033.18 2284.77 6058.51C2318.11 6036.51 2385.78 5971.38 2406.25 5939.09C2376.92 5862.11 2349.54 5779.25 2384.86 5707.55C2351.54 5681.73 2317.68 5649.14 2283.24 5609.71C2248.94 5658.9 2209.21 5705.62 2164.61 5745.96C1889.1 5995.03 1546.07 5970.44 1392.85 5693.84C1368.39 5645.22 1349.59 5596.53 1336.17 5547.92C1225.76 5470.34 1164.1 5387.73 1151.04 5300.16"/>
</mask>
<path d="M1003.3 5403.86L1003.13 5401.76L1001.8 5402.22L1001.54 5403.85L1003.3 5403.86ZM1008.15 5571.82L1006.41 5572.74L1006.68 5573.95L1007.74 5574.01L1008.15 5571.82ZM1066.33 5564.34L1066.06 5566.52L1066.06 5566.52L1066.33 5564.34ZM1196.5 5654.36L1194.78 5655.39L1194.78 5655.39L1196.5 5654.36ZM1099.1 5903.87L1097.98 5902.46L1096.89 5903.76L1097.48 5905.15L1099.1 5903.87ZM1175.91 6027.81L1174.73 6029.71L1175.54 6030.37L1176.55 6029.67L1175.91 6027.81ZM1307.04 5951.24L1306.99 5953.4L1306.99 5953.4L1307.04 5951.24ZM1435.11 6102.92L1436.89 6102.73L1436.89 6102.73L1435.11 6102.92ZM1405.99 6227.23L1404.25 6227.13L1403.95 6228.68L1405.02 6229.26L1405.99 6227.23ZM1530.7 6273.25L1530.17 6275.43L1531.06 6275.55L1531.8 6274.7L1530.7 6273.25ZM1599.97 6162.08L1601.1 6163.49L1601.1 6163.49L1599.97 6162.08ZM1713.1 6099.11L1712.78 6101.3L1712.78 6101.3L1713.1 6099.11ZM1839.69 6280.93L1837.93 6281.76L1838.16 6283.06L1839.27 6283.12L1839.69 6280.93ZM1984.34 6238.97L1985 6240.81L1986.11 6240.02L1986.13 6238.58L1984.34 6238.97ZM2092.68 5992.51L2093.2 5994.45L2093.2 5994.45L2092.68 5992.51ZM2158.39 5971.5L2158.01 5973.69L2158.01 5973.69L2158.39 5971.5ZM2206.68 5984.27L2205.63 5986.25L2205.63 5986.25L2206.68 5984.27ZM2284.77 6058.51L2283.55 6060.36L2284.35 6061.07L2285.37 6060.39L2284.77 6058.51ZM2406.25 5939.09L2407.59 5940.21L2408.34 5939.03L2407.91 5937.88L2406.25 5939.09ZM2384.86 5707.55L2386.36 5708.4L2387.25 5706.59L2386.02 5705.64L2384.86 5707.55ZM2283.24 5609.71L2284.59 5607.99L2283.33 5606.54L2281.97 5608.49L2283.24 5609.71ZM2164.61 5745.96L2165.49 5747.63L2165.49 5747.63L2164.61 5745.96ZM1392.85 5693.84L1391.27 5695.22L1391.29 5695.25L1391.3 5695.29L1392.85 5693.84ZM1336.17 5547.92L1337.88 5546.88L1337.72 5546.28L1337.28 5545.97L1336.17 5547.92ZM1150.91 5299.98L1149.65 5298.74C1120.37 5340.31 1072.75 5377.72 1003.13 5401.76L1003.3 5403.86L1003.47 5405.96C1073.65 5381.72 1122.15 5343.84 1152.18 5301.21L1150.91 5299.98ZM1003.3 5403.86L1001.54 5403.85C999.07 5419.29 998.576 5453.66 999.534 5487.9C1000.49 5522.16 1002.92 5556.79 1006.41 5572.74L1008.15 5571.82L1009.89 5570.9C1006.5 5555.42 1004.08 5521.22 1003.12 5486.93C1002.16 5452.62 1002.68 5418.73 1005.06 5403.87L1003.3 5403.86ZM1008.15 5571.82L1007.74 5574.01C1016.49 5574.46 1027.04 5572.77 1037.35 5570.9C1047.74 5569.02 1057.87 5566.96 1066.06 5566.52L1066.33 5564.34L1066.59 5562.15C1058.16 5562.6 1047.76 5564.72 1037.5 5566.58C1027.16 5568.45 1016.93 5570.07 1008.57 5569.64L1008.15 5571.82ZM1066.33 5564.34L1066.06 5566.52C1095.44 5564.96 1122.63 5568.72 1144.96 5582.07C1167.24 5595.39 1184.78 5618.33 1194.78 5655.39L1196.5 5654.36L1198.21 5653.34C1187.99 5615.44 1169.97 5591.8 1147 5578.06C1124.06 5564.35 1096.28 5560.58 1066.59 5562.15L1066.33 5564.34ZM1196.5 5654.36L1194.78 5655.39C1208.66 5706.78 1199.23 5750.78 1179.04 5790.77C1158.76 5830.94 1127.63 5867.03 1097.98 5902.46L1099.1 5903.87L1100.23 5905.29C1129.73 5870.04 1161.35 5833.41 1182 5792.51C1202.74 5751.43 1212.44 5706.02 1198.21 5653.34L1196.5 5654.36ZM1099.1 5903.87L1097.48 5905.15C1105.28 5923.64 1118.41 5949.75 1132.65 5973.71C1146.85 5997.62 1162.29 6019.62 1174.73 6029.71L1175.91 6027.81L1177.09 6025.92C1165.09 6016.2 1149.89 5994.64 1135.69 5970.73C1121.51 5946.88 1108.46 5920.92 1100.73 5902.6L1099.1 5903.87ZM1175.91 6027.81L1176.55 6029.67C1224.56 5996.47 1253.01 5963.85 1306.99 5953.4L1307.04 5951.24L1307.1 5949.08C1252.16 5959.71 1222.42 5993.35 1175.27 6025.96L1175.91 6027.81ZM1307.04 5951.24L1306.99 5953.4C1379.46 5939.35 1442.11 6000.34 1433.32 6103.11L1435.11 6102.92L1436.89 6102.73C1445.9 5997.35 1381.59 5934.64 1307.1 5949.08L1307.04 5951.24ZM1435.11 6102.92L1433.32 6103.11C1430.7 6133.71 1425.31 6155.1 1419.65 6173.58C1414.01 6191.98 1407.95 6207.95 1404.25 6227.13L1405.99 6227.23L1407.74 6227.33C1411.36 6208.56 1417.21 6193.22 1422.98 6174.38C1428.73 6155.61 1434.23 6133.82 1436.89 6102.73L1435.11 6102.92ZM1405.99 6227.23L1405.02 6229.26C1434.89 6245.51 1497.28 6270.82 1530.17 6275.43L1530.7 6273.25L1531.23 6271.08C1498.79 6266.53 1436.73 6241.39 1406.97 6225.2L1405.99 6227.23ZM1530.7 6273.25L1531.8 6274.7C1536.2 6269.59 1539.81 6263.51 1543.44 6256.51C1545.26 6253.01 1547.1 6249.25 1549.06 6245.25C1551.02 6241.23 1553.1 6236.97 1555.42 6232.41C1564.67 6214.25 1577.68 6191.51 1601.1 6163.49L1599.97 6162.08L1598.85 6160.67C1575.11 6189.08 1561.88 6212.2 1552.47 6230.65C1550.13 6235.25 1548.02 6239.56 1546.07 6243.57C1544.1 6247.59 1542.29 6251.28 1540.51 6254.71C1536.95 6261.57 1533.59 6267.19 1529.6 6271.81L1530.7 6273.25ZM1599.97 6162.08L1601.1 6163.49C1634.19 6123.82 1673.4 6101.95 1712.78 6101.3L1713.1 6099.11L1713.41 6096.93C1672.94 6097.59 1632.68 6120.1 1598.85 6160.67L1599.97 6162.08ZM1713.1 6099.11L1712.78 6101.3C1757.34 6100.54 1783.4 6116.55 1800.95 6147.04C1818.61 6177.73 1827.72 6223.18 1837.93 6281.76L1839.69 6280.93L1841.45 6280.1C1831.26 6221.68 1822.06 6175.46 1804.01 6144.1C1785.86 6112.55 1758.83 6096.15 1713.41 6096.93L1713.1 6099.11ZM1839.69 6280.93L1839.27 6283.12C1852.24 6283.81 1881.72 6278.14 1911.25 6269.93C1926.05 6265.81 1940.94 6261.04 1953.88 6256.05C1966.78 6251.09 1977.87 6245.86 1985 6240.81L1984.34 6238.97L1983.67 6237.13C1976.99 6241.86 1966.27 6246.95 1953.42 6251.9C1940.62 6256.83 1925.84 6261.57 1911.11 6265.67C1881.56 6273.88 1852.54 6279.41 1840.1 6278.75L1839.69 6280.93ZM1984.34 6238.97L1986.13 6238.58C1986.71 6190.66 1991.61 6142.64 2007.29 6100.1C2022.93 6057.67 2049.34 6020.58 2093.2 5994.45L2092.68 5992.51L2092.16 5990.58C2047.31 6017.3 2020.12 6055.41 2004.06 6098.98C1988.04 6142.43 1983.12 6191.21 1982.55 6239.35L1984.34 6238.97ZM2092.68 5992.51L2093.2 5994.45C2117.1 5980.19 2137.4 5973.11 2158.01 5973.69L2158.39 5971.5L2158.77 5969.32C2137.39 5968.72 2116.44 5976.1 2092.16 5990.58L2092.68 5992.51ZM2158.39 5971.5L2158.01 5973.69C2177.13 5974.21 2191.73 5977.35 2205.63 5986.25L2206.68 5984.27L2207.74 5982.29C2193.31 5973.04 2178.18 5969.84 2158.77 5969.32L2158.39 5971.5ZM2206.68 5984.27L2205.63 5986.25C2236.47 6005.82 2248.7 6017.95 2256.78 6028.27C2264.84 6038.55 2269.12 6047.58 2283.55 6060.36L2284.77 6058.51L2285.99 6056.66C2271.82 6044.1 2267.97 6035.64 2259.59 6024.94C2251.23 6014.28 2238.72 6001.95 2207.73 5982.28L2206.68 5984.27ZM2284.77 6058.51L2285.37 6060.39C2302.22 6049.27 2327.6 6027.37 2351.28 6004.26C2374.93 5981.19 2397.17 5956.65 2407.59 5940.21L2406.25 5939.09L2404.92 5937.97C2394.87 5953.82 2373.03 5977.99 2349.39 6001.05C2325.78 6024.08 2300.66 6045.75 2284.17 6056.63L2284.77 6058.51ZM2406.25 5939.09L2407.91 5937.88C2393.24 5899.38 2379.14 5859.6 2373.08 5820.55C2367.02 5781.52 2369.06 5743.52 2386.36 5708.4L2384.86 5707.55L2383.37 5706.71C2365.35 5743.29 2363.41 5782.56 2369.55 5822.13C2375.69 5861.68 2389.94 5901.82 2404.6 5940.31L2406.25 5939.09ZM2384.86 5707.55L2386.02 5705.64C2352.78 5679.89 2318.98 5647.36 2284.59 5607.99L2283.24 5609.71L2281.89 5611.43C2316.37 5650.92 2350.31 5683.58 2383.71 5709.47L2384.86 5707.55ZM2283.24 5609.71L2281.97 5608.49C2247.77 5657.53 2208.17 5704.1 2163.74 5744.3L2164.61 5745.96L2165.49 5747.63C2210.25 5707.15 2250.1 5660.27 2284.51 5610.93L2283.24 5609.71ZM2164.61 5745.96L2163.74 5744.29C1889.02 5992.64 1547.09 5968.04 1394.4 5692.39L1392.85 5693.84L1391.3 5695.29C1545.05 5972.83 1889.18 5997.42 2165.49 5747.63L2164.61 5745.96ZM1392.85 5693.84L1394.43 5692.45C1370.02 5643.93 1351.26 5595.36 1337.88 5546.88L1336.17 5547.92L1334.46 5548.95C1347.91 5597.7 1366.77 5646.51 1391.27 5695.22L1392.85 5693.84ZM1336.17 5547.92L1337.28 5545.97C1226.96 5468.46 1165.75 5386.17 1152.81 5299.38L1151.04 5300.16L1149.27 5300.93C1162.45 5389.29 1224.57 5472.23 1335.07 5549.86L1336.17 5547.92Z" fill="#E6F3ED" mask="url(#path-7-outside-4_505_8626)"/>
<mask id="path-9-outside-5_505_8626" maskUnits="userSpaceOnUse" x="698.356" y="8434.08" width="1404.87" height="1562.35" fill="black">
<rect fill="white" x="698.356" y="8434.08" width="1404.87" height="1562.35"/>
<path fill-rule="evenodd" clip-rule="evenodd" d="M813.912 9554.91C839.286 9599.72 852.759 9659.26 844.683 9732.77C869.995 9750.11 967.233 9793 998.584 9800.21C1006.7 9785.12 1010.39 9759.83 1016.7 9744.43C1039.12 9689.7 1077.35 9651.49 1153.75 9665.27C1259.83 9684.37 1299.04 9776.32 1337.63 9860.01C1377.55 9861.73 1454.16 9857.21 1482.52 9843.6C1473.12 9786.51 1455.62 9746.04 1469.38 9692.31C1487.94 9619.79 1570.99 9588.87 1661.26 9641.42C1714.76 9672.58 1730.01 9698.05 1761.18 9720.9C1788.59 9700.89 1838.01 9655.43 1856.11 9627.86C1845.71 9604.37 1816.09 9584.45 1785.25 9517.69C1763.29 9470.28 1760.23 9424.88 1776.71 9388.51C1813.81 9306.52 1880.71 9320.24 1995.2 9351.84C2007.29 9329.45 2025.02 9236.49 2019.13 9203.14C1932.79 9161.01 1852.53 9102.6 1842.69 8999.8C1840.01 8971.88 1842.29 8950.14 1851.8 8931.42C1860.51 8914.23 1869.74 8902.15 1883.99 8893.22C1945.91 8854.12 1949.37 8869.41 1984.5 8854.39C1978.87 8814.85 1948.94 8725.81 1928.51 8693.5C1846.38 8687.09 1759.77 8676.4 1710.07 8613.81C1672.48 8632.89 1628.53 8649.57 1578.16 8663.83C1607.95 8715.87 1633.2 8771.77 1650.59 8829.33C1757.9 9184.89 1588.96 9484.46 1273.41 9504.66C1219 9505.97 1166.94 9502.15 1117.26 9493.48C999.922 9560.11 898.872 9580.52 814.129 9554.87"/>
</mask>
<path d="M844.683 9732.77L842.713 9732.02L842.559 9733.42L843.919 9734.35L844.683 9732.77ZM998.584 9800.21L998.674 9802.18L999.88 9802.46L1000.38 9801.52L998.584 9800.21ZM1016.7 9744.43L1018.56 9745.6L1018.56 9745.6L1016.7 9744.43ZM1153.75 9665.27L1153.94 9667.26L1153.94 9667.26L1153.75 9665.27ZM1337.63 9860.01L1335.88 9860.42L1336.59 9861.97L1338.09 9862.03L1337.63 9860.01ZM1482.52 9843.6L1483.72 9845.47L1484.67 9845.02L1484.47 9843.81L1482.52 9843.6ZM1469.38 9692.31L1471.31 9693.29L1471.31 9693.29L1469.38 9692.31ZM1661.26 9641.42L1661.85 9639.73L1661.85 9639.73L1661.26 9641.42ZM1761.18 9720.9L1760.34 9722.43L1761.61 9723.37L1762.6 9722.65L1761.18 9720.9ZM1856.11 9627.86L1857.85 9629.27L1858.35 9628.52L1857.89 9627.48L1856.11 9627.86ZM1785.25 9517.69L1787.01 9517.28L1787 9517.28L1785.25 9517.69ZM1776.71 9388.51L1778.55 9389.73L1778.55 9389.73L1776.71 9388.51ZM1995.2 9351.84L1995.2 9353.78L1996.47 9354.13L1997 9353.15L1995.2 9351.84ZM2019.13 9203.14L2021.08 9203.32L2020.84 9201.98L2019.55 9201.35L2019.13 9203.14ZM1842.69 8999.8L1844.66 9000.16L1844.66 9000.16L1842.69 8999.8ZM1851.8 8931.42L1853.62 8932.7L1853.62 8932.7L1851.8 8931.42ZM1883.99 8893.22L1885.33 8895.02L1885.34 8895.02L1883.99 8893.22ZM1984.5 8854.39L1985.65 8856.29L1986.63 8855.87L1986.46 8854.65L1984.5 8854.39ZM1928.51 8693.5L1930.1 8692.77L1929.35 8691.59L1928.12 8691.49L1928.51 8693.5ZM1710.07 8613.81L1711.47 8612.83L1710.22 8611.25L1708.83 8611.95L1710.07 8613.81ZM1578.16 8663.83L1577.19 8661.87L1575.34 8662.39L1576.52 8664.46L1578.16 8663.83ZM1650.59 8829.33L1652.48 8829.25L1652.48 8829.25L1650.59 8829.33ZM1273.41 9504.66L1273.98 9506.68L1274.02 9506.68L1274.05 9506.68L1273.41 9504.66ZM1117.26 9493.48L1117.06 9491.49L1116.44 9491.39L1115.97 9491.65L1117.26 9493.48ZM813.911 9554.91L812.257 9555.52C837.31 9599.76 850.756 9658.81 842.713 9732.02L844.683 9732.77L846.653 9733.51C854.761 9659.71 841.261 9599.67 815.566 9554.29L813.911 9554.91ZM844.683 9732.77L843.919 9734.35C856.82 9743.19 887.683 9758.34 919.042 9772.12C950.419 9785.9 982.761 9798.52 998.674 9802.18L998.584 9800.21L998.494 9798.25C983.056 9794.69 951.104 9782.26 919.696 9768.46C888.27 9754.65 857.858 9739.69 845.446 9731.18L844.683 9732.77ZM998.584 9800.21L1000.38 9801.52C1004.53 9793.81 1007.52 9783.55 1010.24 9773.43C1012.98 9763.23 1015.45 9753.19 1018.56 9745.6L1016.7 9744.43L1014.84 9743.26C1011.64 9751.07 1009.1 9761.38 1006.39 9771.45C1003.66 9781.6 1000.75 9791.53 996.785 9798.91L998.584 9800.21ZM1016.7 9744.43L1018.56 9745.6C1029.71 9718.38 1044.74 9695.41 1066.35 9680.94C1087.93 9666.49 1116.17 9660.44 1153.94 9667.26L1153.75 9665.27L1153.56 9663.28C1114.93 9656.31 1085.85 9662.49 1063.61 9677.38C1041.4 9692.25 1026.11 9715.75 1014.84 9743.26L1016.7 9744.43ZM1153.75 9665.27L1153.94 9667.26C1206.33 9676.69 1242.07 9704.03 1269.58 9739.38C1297.22 9774.9 1316.53 9818.47 1335.88 9860.42L1337.63 9860.01L1339.39 9859.6C1320.15 9817.86 1300.56 9773.61 1272.42 9737.45C1244.16 9701.13 1207.26 9672.95 1153.56 9663.28L1153.75 9665.27ZM1337.63 9860.01L1338.09 9862.03C1358.14 9862.89 1387.36 9862.19 1415.11 9859.56C1442.8 9856.95 1469.29 9852.4 1483.72 9845.47L1482.52 9843.6L1481.31 9841.72C1467.39 9848.41 1441.4 9852.92 1413.71 9855.54C1386.09 9858.15 1357.04 9858.85 1337.18 9858L1337.63 9860.01ZM1482.52 9843.6L1484.47 9843.81C1474.99 9786.21 1457.67 9746.54 1471.31 9693.29L1469.38 9692.31L1467.45 9691.34C1453.57 9745.54 1471.25 9786.81 1480.56 9843.38L1482.52 9843.6ZM1469.38 9692.31L1471.31 9693.29C1489.61 9621.76 1571.53 9591.22 1660.67 9643.11L1661.26 9641.42L1661.85 9639.73C1570.45 9586.52 1486.26 9617.82 1467.45 9691.34L1469.38 9692.31ZM1661.26 9641.42L1660.67 9643.11C1687.21 9658.57 1704.24 9672.6 1718.52 9685.61C1732.74 9698.58 1744.59 9710.89 1760.34 9722.43L1761.18 9720.9L1762.02 9719.37C1746.6 9708.07 1735.23 9696.21 1720.67 9682.94C1706.16 9669.72 1688.81 9655.43 1661.85 9639.73L1661.26 9641.42ZM1761.18 9720.9L1762.6 9722.65C1790.06 9702.6 1839.62 9657.03 1857.85 9629.27L1856.11 9627.86L1854.38 9626.45C1836.39 9653.83 1787.12 9699.18 1759.76 9719.15L1761.18 9720.9ZM1856.11 9627.86L1857.89 9627.48C1855.16 9621.32 1851.2 9615.46 1846.43 9609.18C1844.04 9606.04 1841.43 9602.77 1838.65 9599.29C1835.86 9595.79 1832.89 9592.09 1829.77 9588.04C1817.31 9571.91 1802.32 9550.43 1787.01 9517.28L1785.25 9517.69L1783.49 9518.11C1799.02 9551.71 1814.25 9573.56 1826.92 9589.96C1830.07 9594.04 1833.07 9597.79 1835.85 9601.27C1838.64 9604.77 1841.21 9607.99 1843.55 9611.06C1848.22 9617.21 1851.87 9622.65 1854.34 9628.23L1856.11 9627.86ZM1785.25 9517.69L1787 9517.28C1765.29 9470.4 1762.3 9425.6 1778.55 9389.73L1776.71 9388.51L1774.87 9387.28C1758.16 9424.16 1761.29 9470.17 1783.49 9518.11L1785.25 9517.69ZM1776.71 9388.51L1778.55 9389.73C1796.92 9349.13 1822.54 9332.41 1857.61 9329.59C1892.9 9326.75 1937.88 9337.96 1995.2 9353.78L1995.2 9351.84L1995.21 9349.89C1938.03 9334.12 1892.32 9322.66 1856.26 9325.56C1819.98 9328.48 1793.6 9345.9 1774.87 9387.29L1776.71 9388.51ZM1995.2 9351.84L1997 9353.15C2003.17 9341.72 2010.66 9312.65 2015.86 9282.45C2018.47 9267.3 2020.52 9251.8 2021.55 9237.98C2022.58 9224.2 2022.6 9211.93 2021.08 9203.32L2019.13 9203.14L2017.18 9202.95C2018.61 9211.02 2018.62 9222.88 2017.6 9236.61C2016.58 9250.3 2014.55 9265.69 2011.95 9280.75C2006.74 9310.97 1999.32 9339.57 1993.4 9350.53L1995.2 9351.84ZM2019.13 9203.14L2019.55 9201.35C1976.48 9180.34 1935.16 9155.37 1903.42 9123C1871.76 9090.71 1849.53 9050.98 1844.66 9000.16L1842.69 8999.8L1840.72 8999.45C1845.69 9051.42 1868.51 9092.29 1901.03 9125.44C1933.46 9158.51 1975.44 9183.81 2018.71 9204.92L2019.13 9203.14ZM1842.69 8999.8L1844.66 9000.16C1842 8972.46 1844.28 8951.08 1853.62 8932.7L1851.8 8931.42L1849.99 8930.14C1840.3 8949.21 1838.01 8971.3 1840.72 8999.45L1842.69 8999.8ZM1851.8 8931.42L1853.62 8932.7C1862.26 8915.64 1871.35 8903.78 1885.33 8895.02L1883.99 8893.22L1882.66 8891.42C1868.13 8900.51 1858.76 8912.82 1849.99 8930.14L1851.8 8931.42ZM1883.99 8893.22L1885.34 8895.02C1916.22 8875.52 1932.41 8869.65 1945.19 8866.76C1957.93 8863.87 1967.93 8863.86 1985.65 8856.29L1984.5 8854.39L1983.35 8852.49C1965.94 8859.93 1956.64 8859.8 1943.39 8862.8C1930.18 8865.79 1913.68 8871.83 1882.65 8891.43L1883.99 8893.22ZM1984.5 8854.39L1986.46 8854.65C1983.62 8834.67 1974.67 8802.36 1963.91 8771.07C1953.17 8739.82 1940.5 8709.22 1930.1 8692.77L1928.51 8693.5L1926.93 8694.24C1936.95 8710.09 1949.46 8740.17 1960.2 8771.4C1970.92 8802.59 1979.76 8834.57 1982.54 8854.13L1984.5 8854.39ZM1928.51 8693.5L1928.12 8691.49C1887.05 8688.28 1845.06 8684.02 1807.17 8672.79C1769.3 8661.57 1735.82 8643.48 1711.47 8612.83L1710.07 8613.81L1708.67 8614.8C1734.02 8646.73 1768.7 8665.28 1807.09 8676.66C1845.46 8688.03 1887.84 8692.31 1928.9 8695.52L1928.51 8693.5ZM1710.07 8613.81L1708.83 8611.95C1671.34 8630.98 1627.48 8647.63 1577.19 8661.87L1578.16 8663.83L1579.14 8665.79C1629.59 8651.51 1673.62 8634.8 1711.3 8615.67L1710.07 8613.81ZM1578.16 8663.83L1576.52 8664.46C1606.21 8716.34 1631.38 8772.05 1648.71 8829.41L1650.59 8829.33L1652.48 8829.25C1635.02 8771.48 1609.69 8715.41 1579.81 8663.2L1578.16 8663.83ZM1650.59 8829.33L1648.71 8829.41C1755.71 9183.94 1587.23 9482.51 1272.76 9502.64L1273.41 9504.66L1274.05 9506.68C1590.69 9486.41 1760.1 9185.84 1652.48 8829.25L1650.59 8829.33ZM1273.41 9504.66L1272.83 9502.64C1218.53 9503.95 1166.6 9500.13 1117.06 9491.49L1117.26 9493.48L1117.46 9495.47C1167.28 9504.16 1219.47 9508 1273.98 9506.68L1273.41 9504.66ZM1117.26 9493.48L1115.97 9491.65C998.731 9558.22 898.166 9578.36 814.185 9552.94L814.129 9554.87L814.072 9556.8C899.579 9582.68 1001.11 9562 1118.55 9495.31L1117.26 9493.48Z" fill="#E6F3ED" mask="url(#path-9-outside-5_505_8626)"/>
<mask id="path-11-inside-6_505_8626" fill="white">
<path fill-rule="evenodd" clip-rule="evenodd" d="M2218.61 259.372C2230.58 220.104 2261.98 178.955 2319.68 141.617C2312.44 117.979 2268.01 40.6499 2249.05 19.4724C2232.27 23.621 2211.72 35.9706 2196.09 41.2771C2140.56 60.1391 2084.51 61.0074 2035.64 11.5609C1967.76 -57.0853 2002.16 -130.652 2031.25 -199.202C2001.87 -221.923 1940.02 -261.094 1908.77 -268.813C1875.96 -231.282 1861.01 -198.767 1812.81 -175.757C1747.79 -144.69 1662.5 -172.38 1630.18 -251.398C1611.03 -298.239 1617.2 -321.009 1609.34 -350.966C1574.31 -354.536 1504.61 -355.646 1471.42 -349.857C1462.93 -330.85 1471.66 -303.401 1448.5 -248.696C1432.1 -209.815 1402.63 -182.366 1364.52 -170.692C1278.65 -144.352 1237.02 -188.589 1171.46 -268.909C1146.52 -262.783 1067.79 -219.656 1048.93 -197.514C1085.54 -126.552 1106.09 -49.6565 1041.59 14.0691C1024.08 31.3874 1007.1 42.4827 986.697 47.9339C967.98 52.9509 952.447 54.784 935.273 52.0825C860.452 40.553 868.508 29.9884 831.074 19.3755C807.677 44.8947 768.216 111.756 761.222 141.231C819.641 189.616 878.494 242.873 872.705 305.49C914.867 315.138 960.213 329.61 1008.79 348.954C1022.44 303.174 1042.27 257.683 1069.29 215.521C1236.25 -44.8324 1575.57 -122.885 1831.44 37.5624C1874.03 66.4585 1911.23 96.9947 1943.21 128.978C2079.78 155.076 2171.48 198.541 2218.42 259.276"/>
</mask>
<path d="M2319.68 141.617L2320.76 143.296L2322.03 142.476L2321.59 141.032L2319.68 141.617ZM2249.05 19.4724L2250.54 18.1384L2249.74 17.2422L2248.57 17.5308L2249.05 19.4724ZM2196.09 41.2771L2195.44 39.3832L2195.44 39.3833L2196.09 41.2771ZM2035.64 11.5609L2037.06 10.155L2037.06 10.1547L2035.64 11.5609ZM2031.25 -199.202L2033.09 -198.42L2033.69 -199.84L2032.47 -200.784L2031.25 -199.202ZM1908.77 -268.813L1909.24 -270.754L1908.06 -271.046L1907.26 -270.129L1908.77 -268.813ZM1812.81 -175.757L1811.95 -177.562L1811.95 -177.561L1812.81 -175.757ZM1630.18 -251.398L1628.33 -250.641L1628.33 -250.641L1630.18 -251.398ZM1609.34 -350.966L1611.27 -351.474L1610.92 -352.815L1609.54 -352.956L1609.34 -350.966ZM1471.42 -349.857L1471.07 -351.827L1470.03 -351.644L1469.59 -350.672L1471.42 -349.857ZM1448.5 -248.696L1446.66 -249.476L1446.66 -249.474L1448.5 -248.696ZM1364.52 -170.692L1363.93 -172.604L1363.93 -172.604L1364.52 -170.692ZM1171.46 -268.909L1173.01 -270.174L1172.21 -271.153L1170.98 -270.852L1171.46 -268.909ZM1048.93 -197.513L1047.4 -198.81L1046.53 -197.789L1047.15 -196.596L1048.93 -197.513ZM1041.59 14.0691L1040.19 12.6464L1040.19 12.6471L1041.59 14.0691ZM986.697 47.9339L986.181 46.0016L986.18 46.0021L986.697 47.9339ZM935.273 52.0825L935.584 50.1068L935.578 50.1058L935.273 52.0825ZM831.074 19.3755L831.619 17.4513L830.433 17.115L829.6 18.0239L831.074 19.3755ZM761.222 141.231L759.276 140.769L758.989 141.978L759.946 142.771L761.222 141.231ZM872.705 305.49L870.714 305.305L870.553 307.049L872.259 307.439L872.705 305.49ZM1008.79 348.954L1008.05 350.812L1010.08 351.621L1010.71 349.526L1008.79 348.954ZM1069.29 215.521L1067.6 214.442L1067.6 214.442L1069.29 215.521ZM1831.44 37.5624L1832.56 35.9073L1832.53 35.8871L1832.5 35.868L1831.44 37.5624ZM1943.21 128.978L1941.79 130.392L1942.23 130.827L1942.83 130.943L1943.21 128.978ZM2218.61 259.372L2220.53 259.955C2232.32 221.262 2263.34 180.458 2320.76 143.296L2319.68 141.617L2318.59 139.938C2260.62 177.452 2228.84 218.946 2216.7 258.789L2218.61 259.372ZM2319.68 141.617L2321.59 141.032C2317.89 128.961 2304.86 103.527 2290.49 78.6229C2276.12 53.7013 2260.18 28.9022 2250.54 18.1384L2249.05 19.4724L2247.56 20.8064C2256.89 31.2201 2272.64 55.6744 2287.03 80.6214C2301.43 105.585 2314.22 130.636 2317.76 142.203L2319.68 141.617ZM2249.05 19.4724L2248.57 17.5308C2239.97 19.6578 2230.47 23.8644 2221.29 28.1267C2212.03 32.429 2203.13 36.7748 2195.44 39.3832L2196.09 41.2771L2196.73 43.1709C2204.68 40.4729 2213.86 35.9907 2222.98 31.7544C2232.18 27.4781 2241.35 23.4356 2249.53 21.414L2249.05 19.4724ZM2196.09 41.2771L2195.44 39.3833C2167.85 48.757 2140.28 53.6032 2113.63 50.0522C2087.02 46.5072 2061.2 34.5765 2037.06 10.155L2035.64 11.5609L2034.21 12.9667C2058.95 37.9917 2085.58 50.3501 2113.1 54.0171C2140.58 57.678 2168.8 52.6591 2196.73 43.1708L2196.09 41.2771ZM2035.64 11.5609L2037.06 10.1547C2003.58 -23.709 1995.38 -58.6543 1999.07 -93.6466C2002.78 -128.825 2018.5 -164.045 2033.09 -198.42L2031.25 -199.202L2029.41 -199.983C2014.9 -165.809 1998.88 -129.97 1995.09 -94.0664C1991.28 -57.9765 1999.82 -21.8154 2034.22 12.9671L2035.64 11.5609ZM2031.25 -199.202L2032.47 -200.784C2017.71 -212.203 1994.83 -227.722 1971.73 -241.356C1948.69 -254.953 1925.19 -266.818 1909.24 -270.754L1908.77 -268.813L1908.29 -266.871C1923.6 -263.089 1946.65 -251.508 1969.7 -237.911C1992.68 -224.348 2015.41 -208.921 2030.02 -197.62L2031.25 -199.202ZM1908.77 -268.813L1907.26 -270.129C1874.11 -232.204 1859.65 -200.335 1811.95 -177.562L1812.81 -175.757L1813.68 -173.952C1862.37 -197.2 1877.81 -230.359 1910.27 -267.496L1908.77 -268.813ZM1812.81 -175.757L1811.95 -177.561C1747.96 -146.99 1663.91 -174.202 1632.03 -252.155L1630.18 -251.398L1628.33 -250.641C1661.08 -170.558 1747.61 -142.39 1813.68 -173.952L1812.81 -175.757ZM1630.18 -251.398L1632.03 -252.155C1622.53 -275.374 1619.33 -292.596 1617.51 -307.752C1615.7 -322.845 1615.25 -336.318 1611.27 -351.474L1609.34 -350.966L1607.4 -350.458C1611.29 -335.657 1611.68 -322.767 1613.54 -307.276C1615.39 -291.847 1618.67 -274.263 1628.33 -250.641L1630.18 -251.398ZM1609.34 -350.966L1609.54 -352.956C1574.44 -356.533 1504.53 -357.662 1471.07 -351.827L1471.42 -349.857L1471.76 -347.886C1504.69 -353.629 1574.19 -352.539 1609.13 -348.976L1609.34 -350.966ZM1471.42 -349.857L1469.59 -350.672C1467.35 -345.647 1466.27 -340.133 1465.53 -333.965C1465.15 -330.877 1464.86 -327.589 1464.55 -324.097C1464.24 -320.596 1463.91 -316.877 1463.47 -312.883C1461.71 -296.953 1458.15 -276.611 1446.66 -249.476L1448.5 -248.696L1450.34 -247.917C1462.01 -275.486 1465.66 -296.222 1467.45 -312.444C1467.89 -316.488 1468.22 -320.249 1468.53 -323.744C1468.84 -327.248 1469.13 -330.471 1469.5 -333.485C1470.23 -339.518 1471.24 -344.563 1473.24 -349.041L1471.42 -349.857ZM1448.5 -248.696L1446.66 -249.474C1430.47 -211.098 1401.43 -184.092 1363.93 -172.604L1364.52 -170.692L1365.1 -168.779C1403.82 -180.639 1433.73 -208.531 1450.35 -247.919L1448.5 -248.696ZM1364.52 -170.692L1363.93 -172.604C1321.47 -159.58 1290.2 -164.038 1261.41 -181.513C1232.42 -199.109 1205.83 -229.956 1173.01 -270.174L1171.46 -268.909L1169.91 -267.645C1202.64 -227.542 1229.65 -196.111 1259.33 -178.093C1289.22 -159.955 1321.69 -155.464 1365.1 -168.78L1364.52 -170.692ZM1171.46 -268.909L1170.98 -270.852C1164.54 -269.269 1154.79 -265.351 1143.59 -260.093C1132.36 -254.817 1119.54 -248.135 1106.92 -240.956C1094.31 -233.777 1081.87 -226.086 1071.38 -218.791C1060.94 -211.523 1052.3 -204.554 1047.4 -198.81L1048.93 -197.513L1050.45 -196.217C1054.99 -201.544 1063.26 -208.269 1073.67 -215.507C1084.03 -222.717 1096.36 -230.343 1108.9 -237.479C1121.44 -244.615 1134.16 -251.247 1145.29 -256.472C1156.46 -261.716 1165.91 -265.486 1171.94 -266.967L1171.46 -268.909ZM1048.93 -197.513L1047.15 -196.596C1065.41 -161.203 1079.55 -124.546 1081.18 -88.9171C1082.81 -53.3955 1072.02 -18.7992 1040.19 12.6464L1041.59 14.0691L1043 15.4918C1075.67 -16.7882 1086.85 -52.5023 1085.18 -89.1002C1083.5 -125.591 1069.06 -162.862 1050.7 -198.431L1048.93 -197.513ZM1041.59 14.0691L1040.19 12.6471C1022.84 29.8009 1006.16 40.6657 986.181 46.0016L986.697 47.9339L987.214 49.8661C1008.05 44.2998 1025.32 32.9739 1043 15.4911L1041.59 14.0691ZM986.697 47.9339L986.18 46.0021C967.629 50.9744 952.392 52.7508 935.584 50.1068L935.273 52.0825L934.962 54.0582C952.501 56.8171 968.331 54.9274 987.215 49.8657L986.697 47.9339ZM935.273 52.0825L935.578 50.1058C898.27 44.357 881.771 38.8707 869.974 33.5615C858.215 28.2689 850.521 22.81 831.619 17.4513L831.074 19.3755L830.528 21.2997C849.061 26.5539 856.056 31.6837 868.333 37.2091C880.572 42.7177 897.455 48.2785 934.968 54.0592L935.273 52.0825ZM831.074 19.3755L829.6 18.0239C817.755 30.9426 801.956 54.1842 788.266 77.8173C774.598 101.414 762.847 125.72 759.276 140.769L761.222 141.231L763.168 141.693C766.591 127.267 778.068 103.404 791.728 79.8222C805.366 56.2762 820.995 33.3275 832.548 20.727L831.074 19.3755ZM761.222 141.231L759.946 142.771C789.162 166.969 818.323 192.257 839.467 219.257C860.605 246.249 873.542 274.716 870.714 305.305L872.705 305.49L874.697 305.674C877.658 273.647 864.063 244.177 842.616 216.791C821.175 189.411 791.701 163.878 762.497 139.69L761.222 141.231ZM872.705 305.49L872.259 307.439C914.303 317.06 959.55 331.498 1008.05 350.812L1008.79 348.954L1009.53 347.096C960.877 327.721 915.431 313.215 873.151 303.54L872.705 305.49ZM1008.79 348.954L1010.71 349.526C1024.31 303.904 1044.07 258.588 1070.97 216.6L1069.29 215.521L1067.6 214.442C1040.47 256.779 1020.57 302.444 1006.88 348.383L1008.79 348.954ZM1069.29 215.521L1070.97 216.601C1237.35 -42.8554 1575.46 -120.592 1830.37 39.2569L1831.44 37.5624L1832.5 35.868C1575.68 -125.179 1235.14 -46.8094 1067.6 214.442L1069.29 215.521ZM1831.44 37.5624L1830.31 39.2175C1872.82 68.0499 1909.91 98.5069 1941.79 130.392L1943.21 128.978L1944.62 127.564C1912.54 95.4824 1875.25 64.867 1832.56 35.9073L1831.44 37.5624ZM1943.21 128.978L1942.83 130.943C2079.27 157.015 2170.36 200.359 2216.84 260.499L2218.42 259.276L2220 258.053C2172.6 196.722 2080.29 153.137 1943.58 127.014L1943.21 128.978Z" fill="#FEEFD5" mask="url(#path-11-inside-6_505_8626)"/>
</g>
<defs>
<clipPath id="clip0_505_8626">
<rect width="1920" height="9319.06" fill="white"/>
</clipPath>
</defs>
</svg>
