<svg width="26" height="27" viewBox="0 0 26 27" fill="none" xmlns="http://www.w3.org/2000/svg">
<g clip-path="url(#clip0_1_215)">
<path d="M2.45225 7.31668C2.36761 4.53901 4.54058 2.34732 7.31418 2.47265C8.2558 2.51497 8.95733 2.22443 9.58562 1.51557C11.3761 -0.506843 14.6242 -0.503588 16.4171 1.51964C17.0356 2.21792 17.7274 2.5166 18.6592 2.47347C21.467 2.34325 23.6579 4.53576 23.5317 7.35411C23.4902 8.28841 23.7848 8.981 24.4831 9.60115C26.5031 11.3941 26.5071 14.6413 24.4888 16.4472C23.784 17.078 23.491 17.7779 23.5317 18.7228C23.6522 21.5232 21.4654 23.7059 18.6682 23.5814C17.7371 23.5399 17.0437 23.8305 16.4228 24.5287C14.6022 26.5756 11.3411 26.5585 9.54819 24.5019C8.95733 23.824 8.28021 23.5375 7.38417 23.5814C5.01994 23.6962 3.05449 22.1971 2.55805 19.9256C2.46608 19.5049 2.4376 19.0548 2.46852 18.6243C2.53119 17.7494 2.22681 17.0845 1.57085 16.5058C-0.497138 14.6844 -0.520739 11.482 1.49109 9.60847C2.3847 8.77591 2.4905 8.52524 2.45387 7.31749L2.45225 7.31668ZM5.07365 18.4778C5.0704 18.5282 5.06714 18.5795 5.06389 18.63C4.95727 20.0998 5.93796 21.0748 7.40126 20.9804C8.98256 20.8778 10.3002 21.4304 11.35 22.6252C12.3161 23.7247 13.6817 23.7263 14.6453 22.63C15.7196 21.4076 17.0665 20.864 18.6828 20.9853C20.0135 21.0854 21.043 20.0575 20.9429 18.7268C20.8208 17.1073 21.3612 15.7571 22.5803 14.6796C23.6774 13.7095 23.679 12.3463 22.5836 11.3778C21.3555 10.2921 20.8175 8.93217 20.9437 7.30121C21.0438 6.00964 20.0045 4.96547 18.7186 5.06639C17.0779 5.19498 15.7163 4.64644 14.6274 3.40532C13.6874 2.33511 12.3136 2.33267 11.3745 3.40207C10.2766 4.65295 8.90606 5.1966 7.25395 5.06557C6.00388 4.96628 4.95239 6.01533 5.05249 7.26459C5.18515 8.93217 4.63173 10.3092 3.37922 11.4217C3.12937 11.6439 2.90963 11.9377 2.77128 12.2421C2.38144 13.1048 2.64025 13.9927 3.437 14.6958C4.57558 15.7001 5.10214 16.9689 5.07365 18.4794V18.4778Z" fill="white"/>
<path d="M12.3281 14.8218C12.4225 14.6492 12.4999 14.5092 12.5764 14.3684C13.6205 12.4412 14.6639 10.5124 15.7105 8.58686C16.0515 7.95938 16.6456 7.69 17.2576 7.87149C18.0641 8.11076 18.4312 8.99216 18.0259 9.76124C17.5148 10.7314 16.985 11.6909 16.4625 12.6545C15.6071 14.2342 14.7518 15.8138 13.8948 17.3927C13.365 18.3685 12.4527 18.515 11.6421 17.7549C10.5084 16.692 9.37631 15.6275 8.24344 14.5646C7.86093 14.2057 7.72258 13.7637 7.84628 13.2624C7.96429 12.7839 8.28006 12.4632 8.76105 12.333C9.25342 12.2003 9.67907 12.3395 10.0461 12.6862C10.7476 13.3479 11.4524 14.0071 12.1564 14.6671C12.2004 14.7086 12.2468 14.7485 12.3281 14.8209V14.8218Z" fill="white"/>
</g>
<defs>
<clipPath id="clip0_1_215">
<rect width="26" height="26.0529" fill="white"/>
</clipPath>
</defs>
</svg>
