<svg width="82" height="81" viewBox="0 0 82 81" fill="none" xmlns="http://www.w3.org/2000/svg">
<g clip-path="url(#clip0_1_134)">
<path d="M69.8604 69.2881C69.3909 68.4458 69.1359 68.3155 68.2568 68.4228C69.1001 66.7094 69.1267 65.7506 68.3249 64.4052C67.8265 64.6522 67.3212 64.9014 66.7743 65.1714C66.8724 65.4217 66.9693 65.6433 67.0466 65.8717C67.3097 66.6505 67.1989 67.352 66.5725 67.922C65.9622 68.4793 65.24 68.6489 64.4912 68.3016C63.3572 67.7743 62.5 66.9147 61.9889 65.7748C61.6382 64.9925 61.7905 64.2229 62.3996 63.5918C63.0907 62.8765 63.8948 62.7968 64.8247 63.2803C65.1385 62.7899 65.4442 62.3123 65.7464 61.8392C64.8812 61.1008 63.6018 61.02 62.4862 61.6073C60.0819 62.873 59.4393 65.6063 61.0833 67.7628C61.5309 68.3501 62.072 68.9027 62.6696 69.3343C64.0379 70.3231 65.5088 70.3992 66.9555 69.5685C67.0489 69.7889 67.1378 70 67.2531 70.2711C67.4423 70.0485 67.5669 69.8823 67.7111 69.7369C67.9638 69.4808 68.2845 69.2223 68.6098 69.5085C68.9432 69.8015 68.7263 70.1569 68.4783 70.4154C68.0422 70.8711 67.6084 71.3361 67.1228 71.7353C61.2921 76.534 54.6586 79.5961 47.1655 80.5815C33.5557 82.3722 21.8264 78.3823 12.1748 68.6328C6.32573 62.7242 2.67783 55.5602 1.39957 47.3313C-0.764704 33.4039 3.15199 21.3478 13.1462 11.4079C19.1153 5.47391 26.3753 1.82445 34.7117 0.548353C47.7504 -1.44656 59.2421 1.99983 68.964 10.9175C75.5872 16.9934 79.6539 24.5727 81.1848 33.4419C81.5816 35.7403 81.8366 38.0987 81.8228 40.427C81.757 51.3212 77.9695 60.7581 70.4465 68.6685C70.2619 68.8624 70.0784 69.0574 69.8604 69.2881ZM13.4692 40.517C13.3942 55.4541 25.4593 68.1574 40.923 68.372C56.3937 68.5866 69.1555 56.2052 69.1763 40.5563C69.197 24.98 56.6786 12.7267 41.5391 12.6505C25.9427 12.5721 13.4692 25.0204 13.4692 40.517ZM39.2167 79.0642C39.2721 77.8539 39.3252 76.6736 39.3783 75.5105C40.4085 75.3744 41.0868 75.7632 41.5633 76.617C41.9936 77.3866 42.4908 78.1193 42.9661 78.8635C43.055 79.0031 43.1727 79.2131 43.2961 79.2269C43.9283 79.2973 44.5663 79.3134 45.3589 79.3584C44.4348 77.892 43.8949 76.3897 42.5324 75.364C42.7054 75.3317 42.7966 75.3202 42.8842 75.2982C44.1798 74.974 44.8893 74.0821 44.8524 72.828C44.8155 71.5553 44.0944 70.6911 42.725 70.5423C41.2599 70.3831 39.7763 70.3946 38.303 70.2954C37.8416 70.2642 37.7043 70.3992 37.6962 70.8573C37.6708 72.431 37.5924 74.0037 37.5601 75.5775C37.537 76.7209 37.5555 77.8666 37.5555 79.0654H39.2144L39.2167 79.0642ZM57.0743 66.0229C57.9673 67.712 58.8325 69.3504 59.6978 70.99C57.8519 70.0242 56.1029 68.9893 54.3436 67.9716C54.1636 67.8678 53.8902 67.7605 53.7275 67.8251C53.2718 68.0028 52.8496 68.2705 52.3778 68.522C53.7645 71.1296 55.1212 73.6806 56.5021 76.2767C57.0166 75.9986 57.477 75.7505 57.9603 75.4898C57.0847 73.8341 56.2437 72.2418 55.4027 70.6496C57.2208 71.5911 58.941 72.5984 60.6691 73.5929C60.8353 73.6887 61.0891 73.7983 61.2333 73.7383C61.7201 73.5352 62.1758 73.2572 62.6615 72.9987C61.2656 70.375 59.9089 67.8274 58.536 65.2475C58.0284 65.5163 57.5912 65.7494 57.0755 66.024L57.0743 66.0229ZM28.8372 70.5515C28.8591 69.97 28.9283 69.4993 28.8845 69.04C28.6872 66.9955 25.6519 65.4644 24.0853 65.7379C22.1656 66.0736 20.6462 67.5747 20.157 69.7035C19.8132 71.1965 20.1801 72.4933 21.2957 73.5375C22.5705 74.7306 24.1106 75.2186 25.8434 75.0859C26.0165 75.0732 26.2611 75.004 26.3384 74.8783C26.9175 73.9368 27.4632 72.9756 28.0377 71.988C26.899 71.3303 25.8261 70.7107 24.7198 70.0727C24.4602 70.5227 24.2318 70.9161 23.9791 71.3546C24.5744 71.7088 25.1397 72.0468 25.7004 72.3803C25.1651 73.4233 24.9586 73.5179 23.8707 73.2629C22.4897 72.9387 21.6926 71.9926 21.8229 70.6888C21.9441 69.4716 22.5255 68.4505 23.5211 67.7305C24.2779 67.1824 25.1097 67.2482 25.9196 67.6705C26.6775 68.0662 27.1286 68.6477 27.1067 69.55C27.1032 69.7092 27.2325 69.9562 27.3674 70.0196C27.7793 70.2134 28.2246 70.3369 28.8372 70.5515ZM55.683 13.9566C55.683 13.7201 55.6922 13.5516 55.6819 13.3843C55.5076 10.7791 55.3127 8.17495 55.1592 5.56852C55.0716 4.08128 55.0993 4.09051 53.6779 3.62899C53.318 3.51246 53.0976 3.55284 52.8484 3.86667C51.6994 5.30892 50.5192 6.72809 49.3528 8.15649C48.5649 9.12106 47.7792 10.0868 46.944 11.1102C47.4977 11.2948 47.9765 11.484 48.4726 11.6017C48.641 11.6421 48.9133 11.5556 49.0333 11.4275C49.3736 11.0641 49.6401 10.6337 49.9758 10.2656C50.0831 10.1479 50.3392 10.0603 50.4846 10.1029C51.441 10.3845 52.3893 10.6948 53.3295 11.026C53.4657 11.0733 53.6203 11.2706 53.6387 11.4148C53.7033 11.9283 53.6964 12.4498 53.7552 12.9644C53.7737 13.1213 53.8821 13.3474 54.0079 13.3982C54.5374 13.6082 55.0889 13.7651 55.683 13.9578V13.9566ZM20.2459 66.5686C19.2041 65.4713 18.2177 64.4341 17.1725 63.3334C17.6063 62.9538 18.0643 62.5534 18.55 62.1276C19.6136 63.1488 20.7292 64.2195 21.8794 65.3225C22.2405 64.936 22.5601 64.5933 22.8981 64.2322C21.3222 62.7103 19.7925 61.2358 18.2235 59.722C16.1676 61.8507 14.1614 63.9287 12.1229 66.0402C13.745 67.607 15.3151 69.1231 16.8241 70.5792C17.2279 70.2492 17.5901 69.9527 17.8532 69.7381C16.711 68.5012 15.6323 67.3336 14.481 66.0886C14.9967 65.6317 15.5689 65.1275 16.1746 64.591C17.1563 65.5313 18.1912 66.5225 19.2076 67.4951C19.5929 67.1513 19.9298 66.8501 20.2459 66.5686ZM9.19489 56.7129C8.10122 57.4698 7.5763 58.6386 7.85664 59.7912C8.15659 61.0223 8.80957 62.063 9.83864 62.8141C11.343 63.9126 13.5961 63.0518 13.8776 61.2104C13.9872 60.4916 13.7207 59.707 13.5765 58.9616C13.4646 58.3801 13.2293 57.8205 13.1439 57.2378C13.107 56.9852 13.2408 56.5548 13.4254 56.4613C13.6515 56.3483 14.0968 56.399 14.2999 56.5629C15.1328 57.2355 15.6739 58.1724 14.7325 59.3124C15.0463 59.7681 15.367 60.232 15.6946 60.7073C16.3592 60.2746 16.7687 59.7427 16.8552 59.0424C17.056 57.4063 16.2553 56.1717 15.0624 55.2106C13.6215 54.0499 11.6026 54.8518 11.3407 56.6817C11.2553 57.2805 11.4457 57.9313 11.5738 58.5439C11.7099 59.1982 11.9821 59.8281 12.086 60.4846C12.2083 61.2623 11.6095 61.7019 10.8516 61.4654C9.61483 61.08 9.09798 59.4116 9.90209 58.4032C9.99669 58.2855 10.0901 58.1667 10.202 58.0236C9.86748 57.5863 9.54215 57.1617 9.19489 56.7094V56.7129ZM42.1355 10.7548C42.1724 10.1999 42.2047 9.6495 42.2474 9.1003C42.2913 8.53032 42.3443 7.96265 42.387 7.46652C43.3699 7.46652 44.3079 7.49306 45.2435 7.46075C46.644 7.41229 47.6777 6.27234 47.7608 4.73548C47.8415 3.24593 46.9705 2.10252 45.5677 1.89368C44.9228 1.79676 44.2733 1.72984 43.6226 1.68023C42.732 1.61215 41.839 1.57292 40.9011 1.5187C40.6865 4.61664 40.4777 7.62805 40.2677 10.6614C40.8584 10.7133 41.3533 10.7583 41.8494 10.7975C41.9209 10.8033 41.9959 10.7768 42.1355 10.756V10.7548ZM46.2437 79.0135C46.5287 78.9581 46.7156 78.9235 46.9001 78.8842C48.1196 78.6212 48.1519 78.6223 48.2222 77.367C48.2592 76.7093 48.483 76.3482 49.1717 76.3101C49.4544 76.2951 49.7301 76.1797 50.0116 76.1197C50.5723 76.0009 51.2206 75.664 51.674 75.8359C52.1228 76.0055 52.3754 76.6909 52.7146 77.1512C52.7596 77.2135 52.7919 77.292 52.8508 77.3358C52.9211 77.3889 53.0227 77.4581 53.0953 77.442C53.6514 77.3243 54.2029 77.1882 54.8108 77.0451C54.6724 76.8305 54.5847 76.6851 54.4878 76.5455C53.0515 74.479 51.6163 72.4114 50.1777 70.3473C49.4163 69.2546 49.4174 69.2754 48.0873 69.5777C47.6985 69.6654 47.5554 69.8304 47.5047 70.2146C47.3062 71.7169 47.0732 73.2156 46.8563 74.7156C46.6544 76.1163 46.4583 77.517 46.246 79.0123L46.2437 79.0135ZM76.0625 57.8747C75.9183 57.8194 75.8364 57.7721 75.7487 57.7559C73.1841 57.2921 70.6195 56.8271 68.0526 56.3737C66.7836 56.1487 66.8032 56.1717 66.0902 57.2425C65.8295 57.6336 65.8699 57.8863 66.1433 58.2463C67.778 60.4027 69.3874 62.5788 71.006 64.7479C71.1283 64.9118 71.2587 65.0698 71.4305 65.2867C71.749 64.7871 72.0443 64.3672 72.2843 63.916C72.3477 63.7972 72.2842 63.5526 72.1954 63.4222C71.937 63.0415 71.6105 62.7068 71.3671 62.318C71.2725 62.168 71.2506 61.8738 71.3348 61.7261C71.7939 60.9288 72.2819 60.1454 72.7976 59.3839C72.8911 59.2455 73.168 59.1485 73.3479 59.1647C73.8232 59.2074 74.2893 59.3401 74.7635 59.4012C74.9019 59.4185 75.1188 59.3597 75.1903 59.2582C75.4961 58.8255 75.7602 58.3628 76.0637 57.8724L76.0625 57.8747ZM32.5485 8.73339C32.5347 8.89723 32.5209 9.02761 32.5116 9.15799C32.4378 10.2241 31.9336 10.9014 31.0465 11.1217C30.0751 11.364 29.1475 11.0606 28.7126 10.1168C28.295 9.21106 27.9881 8.21649 27.8497 7.22999C27.6939 6.11658 28.453 5.26738 29.5259 5.01932C30.4743 4.80125 31.1607 5.19354 31.7168 5.9712C32.2497 5.66775 32.7585 5.3793 33.3019 5.07124C32.8981 4.29242 32.327 3.79168 31.5622 3.50553C29.4867 2.73018 26.876 3.98205 26.1826 6.10389C25.7062 7.55998 26.0211 8.95376 26.6233 10.2956C27.8058 12.9309 30.6981 13.5828 33.0319 11.9306C34.1014 11.1725 34.4567 10.0522 34.3898 8.73223H32.5497L32.5485 8.73339ZM30.3866 68.5047C30.3243 68.6558 30.2793 68.7401 30.2539 68.83C29.7705 70.5457 29.2456 72.2499 28.8211 73.9806C28.2777 76.1924 28.9676 77.3324 31.1503 78.02C31.3695 78.0893 31.5922 78.1493 31.816 78.1954C33.6734 78.5785 34.7947 77.9923 35.3877 76.1959C35.9761 74.4133 36.4664 72.5984 36.9821 70.7938C37.0167 70.6715 36.9452 70.4096 36.8633 70.3808C36.3856 70.21 35.8907 70.09 35.3889 69.9492C35.3335 70.1119 35.2989 70.1996 35.2735 70.2908C34.7636 72.0376 34.2756 73.7925 33.7368 75.5301C33.3965 76.6251 32.7424 76.917 31.6429 76.5605C30.6496 76.2386 30.2758 75.5913 30.4973 74.569C30.5423 74.3637 30.6035 74.1606 30.6612 73.9587C31.1249 72.3203 31.5898 70.6819 32.0686 68.9916C31.4999 68.8277 30.9703 68.6754 30.3877 68.507L30.3866 68.5047ZM35.3623 2.15444C35.795 5.22469 36.2195 8.23033 36.6464 11.2625C37.312 11.1644 37.8727 11.0814 38.498 10.9902C38.07 7.94073 37.6501 4.94663 37.222 1.8983C36.5991 1.98368 36.0349 2.06098 35.3623 2.15444Z" fill="white"/>
<path d="M34.7079 18.4587C34.9848 18.4587 35.1901 18.4587 35.3955 18.4587C39.356 18.4587 43.3165 18.4691 47.2759 18.4472C47.8124 18.4437 47.9508 18.5983 47.9485 19.1256C47.9289 23.9127 47.937 28.701 47.937 33.4881V34.3084H63.7353V47.4686C63.4964 47.4802 63.2553 47.5009 63.0154 47.5009C58.2288 47.5033 53.4411 47.5136 48.6545 47.4883C48.0616 47.4848 47.9208 47.6521 47.9243 48.2301C47.9473 53.0369 47.9381 57.8436 47.9381 62.6503V63.3576H34.7275C34.7275 63.121 34.7275 62.8972 34.7275 62.6745C34.7275 57.8482 34.7183 53.023 34.739 48.1967C34.7413 47.6417 34.5856 47.4883 34.033 47.4906C29.2464 47.5113 24.4587 47.5021 19.6722 47.5021C19.4253 47.5021 19.1784 47.5021 18.8877 47.5021V34.3177H34.7079V18.4587Z" fill="white"/>
<path d="M39.4806 74.0718V71.8276C40.4232 71.8807 41.3196 71.9003 42.2079 71.9949C42.7213 72.0492 43.0178 72.5061 43.0016 73.038C42.9843 73.6079 42.6809 74.0245 42.1121 74.0591C41.255 74.1122 40.3932 74.0729 39.4806 74.0729V74.0718Z" fill="white"/>
<path d="M53.4331 9.39331C52.7075 9.15678 51.9887 8.92256 51.2135 8.66988C51.9276 7.75723 52.6059 6.89073 53.2843 6.02307C53.3339 6.03461 53.3824 6.04615 53.432 6.05769V9.39331H53.4331Z" fill="white"/>
<path d="M42.689 3.18365C43.4342 3.26211 44.0884 3.29557 44.7275 3.40864C45.5212 3.54825 45.8638 4.02823 45.7923 4.7805C45.7289 5.43701 45.2766 5.83161 44.5279 5.8443C43.9914 5.85353 43.4515 5.84777 42.9185 5.797C42.7709 5.78315 42.5194 5.58124 42.5228 5.47278C42.5459 4.73204 42.6244 3.99246 42.6901 3.1825L42.689 3.18365Z" fill="white"/>
<path d="M50.8476 74.3833C50.0551 74.5656 49.3525 74.7271 48.5565 74.9106C48.6914 73.8018 48.8195 72.7553 48.9672 71.5369C49.6397 72.5557 50.22 73.4349 50.8465 74.3844L50.8476 74.3833Z" fill="white"/>
<path d="M70.1508 60.7742C69.4402 59.8661 68.7872 59.0308 68.0419 58.0778C69.2348 58.3258 70.2731 58.5404 71.3968 58.7735C70.9711 59.4565 70.5904 60.0669 70.1508 60.7742Z" fill="white"/>
</g>
<defs>
<clipPath id="clip0_1_134">
<rect width="82" height="81.0002" fill="white"/>
</clipPath>
</defs>
</svg>
