<svg width="81" height="81" viewBox="0 0 81 81" fill="none" xmlns="http://www.w3.org/2000/svg">
<g clip-path="url(#clip0_1_150)">
<path d="M-0.00012207 64.8656C-0.00012207 59.2233 -0.00012207 53.5809 -0.00012207 47.9407C0.221767 47.2539 0.443656 46.5693 0.665545 45.8825C0.705696 45.8254 0.745847 45.7683 0.785998 45.7113C1.15793 45.0287 1.52774 44.3461 1.89967 43.6657C1.89967 43.6276 1.89967 43.5917 1.89967 43.5537C2.41741 43.1712 2.93515 42.7887 3.455 42.4062C3.51629 42.3661 3.57546 42.3259 3.63674 42.2857C3.80791 42.1146 3.97697 41.9434 4.14814 41.7722C4.18829 41.7321 4.22845 41.6919 4.2686 41.6518C4.56656 41.5926 4.88143 41.5715 5.16249 41.4637C5.99088 41.1446 6.80447 40.7917 7.61172 40.4557C7.61172 29.8114 7.60961 19.2431 7.61806 8.67276C7.61806 8.136 7.67089 7.5929 7.76599 7.06248C8.17173 4.80132 9.37415 3.03889 11.2042 1.68643C12.8568 0.462867 14.7777 0.035995 16.7683 0.0254289C23.8582 -0.0147225 30.9502 7.01243e-05 38.0401 0.0148627C39.7455 0.0190892 41.436 0.173355 43.0505 0.800983C45.7893 1.86816 48.1392 3.48901 49.5889 6.06926C50.6793 8.01131 51.4527 10.1288 52.3656 12.1701C53.473 14.6511 54.5782 17.132 55.6855 19.6129C55.7912 19.7207 55.8969 19.8306 56.0025 19.9384C56.2667 20.6738 56.5287 21.4092 56.7929 22.1446C56.8985 22.2524 57.0042 22.3601 57.1098 22.47C58.2806 25.3165 59.4513 28.163 60.622 31.0096L60.7298 31.185C60.8101 31.2737 60.8883 31.3646 60.9686 31.4533C60.9792 31.2949 60.9897 31.1364 61.0024 30.98C61.0045 21.6797 61.0087 12.3794 61.013 3.07904C61.013 2.71134 61.0214 2.34153 61.051 1.97382C61.125 1.03133 62.19 0.0233156 63.1072 0.0106363C64.3117 -0.00626956 65.5057 0.841135 65.6388 1.85126C65.717 2.44507 65.7508 3.05157 65.7508 3.65173C65.7572 24.9932 65.7551 46.3347 65.7551 67.6762C65.7551 67.9805 65.7551 68.2869 65.7551 68.6398H66.6257C70.2626 68.6398 73.8973 68.6208 77.5342 68.6546C78.3182 68.6631 79.1001 68.8701 79.882 68.9864C80.0384 69.0963 80.1947 69.2083 80.3511 69.3182C80.3976 69.4344 80.4314 69.5591 80.4906 69.6668C81.5451 71.6068 80.4716 73.3798 78.2358 73.3819C76.1838 73.384 74.1319 73.3819 72.0821 73.3819C69.8505 73.3819 67.6168 73.3819 65.4127 73.3819C65.2775 73.794 65.1612 74.1511 65.045 74.5082C64.9964 74.6667 64.9478 74.8252 64.8992 74.9837C64.7259 75.3451 64.5526 75.7085 64.3793 76.0699C64.2737 76.2347 64.1659 76.3975 64.0602 76.5623C63.0903 77.7225 62.0759 78.8361 60.7488 79.6075C60.4847 79.7596 60.2205 79.9139 59.9585 80.066C59.4809 80.2604 59.0033 80.457 58.5257 80.6514C58.0545 80.7655 57.5832 80.8796 57.112 80.9937H54.8973C54.631 80.9472 54.3648 80.8986 54.0964 80.8521C53.3821 80.6768 52.6192 80.6049 51.9578 80.3069C48.9232 78.9376 46.9008 76.6532 45.9774 73.422H29.7964C29.0504 76.332 27.3197 78.4367 24.7563 79.8209C23.7568 80.3598 22.6008 80.6134 21.5168 80.998H19.1436C18.2518 80.6704 17.4298 80.047 16.3858 80.3365C16.3372 80.3492 16.2633 80.2457 16.1957 80.214C13.4358 78.9249 11.5127 76.8898 10.6146 73.9461C10.4942 73.5531 10.304 73.3882 9.85597 73.3903C8.92404 73.3903 7.97731 73.3819 7.06017 73.2318C4.85396 72.8747 3.04081 71.7272 1.78767 69.931C0.995208 68.7983 0.583129 67.4057 -0.00012207 66.1293C-0.00012207 65.8123 -0.00012207 65.4974 -0.00012207 65.1805V64.8635V64.8656ZM17.8778 40.8065C17.8482 40.6395 17.8186 40.4747 17.789 40.3078C17.789 34.8239 17.7954 29.3422 17.77 23.8584C17.7679 23.3428 17.5481 22.8293 17.4298 22.3157C17.7045 22.1932 18.2497 22.2524 17.863 21.6797C18.0236 21.4958 18.1842 21.3099 18.3469 21.1281C19.4035 19.9553 21.4787 20.1708 22.1359 21.612C22.4424 22.284 22.51 23.1103 22.5142 23.8669C22.5438 29.3634 22.5269 34.8599 22.5269 40.3564C22.4276 40.4557 22.3282 40.5571 22.2289 40.6564L22.6177 40.6734H47.1565C44.3586 37.8184 41.5544 34.9571 38.7522 32.0979C38.6508 32.0281 38.4839 31.876 38.4543 31.8992C37.6534 32.5247 36.7024 33.034 36.5418 34.1963C35.4831 35.1029 34.0271 34.6655 33.2938 33.706C32.4865 32.6494 32.5858 31.5379 33.5727 30.5679C35.948 28.2286 38.2852 25.8491 40.6478 23.497C40.8232 23.3238 41.0683 23.2202 41.2818 23.085C41.3895 23.0469 41.4973 23.0089 41.6051 22.9708C42.4715 22.6306 43.2999 22.7342 43.9677 23.3639C45.0708 24.4036 45.0243 25.6187 44.0036 26.7789C43.4351 27.4234 42.7631 27.975 42.1757 28.5329C42.2496 28.7083 42.2581 28.7653 42.2898 28.7991C46.157 32.6684 50.0263 36.5378 53.9041 40.3965C54.0499 40.5423 54.2992 40.6628 54.5021 40.6649C56.0004 40.6776 57.4987 40.6586 58.9991 40.6501H59.7302C59.4978 40.257 59.3372 39.9866 59.1766 39.7161C58.3905 37.8987 57.6064 36.0834 56.8203 34.266C55.4996 31.2145 54.1809 28.1609 52.8601 25.1094C52.0043 23.1315 51.1484 21.1535 50.2926 19.1755C50.2524 19.1184 50.2123 19.0593 50.1721 19.0022C50.1531 18.9536 50.1404 18.9029 50.1383 18.8501C50.1003 18.7951 50.0622 18.7423 50.0242 18.6873C49.853 18.2647 49.6882 17.8378 49.5065 17.4194C48.6506 15.4351 47.8264 13.436 46.922 11.4749C46.3366 10.207 45.7787 8.88408 44.9546 7.77675C43.2069 5.43106 40.6161 4.78442 37.8457 4.77385C30.9439 4.74849 24.0442 4.75483 17.1424 4.78019C16.4387 4.7823 15.735 4.98729 15.0313 5.09717C14.9235 5.13521 14.8157 5.17325 14.7101 5.2134C13.1843 5.59167 12.3496 7.31184 12.3475 8.40438C12.339 19.0212 12.3517 29.6381 12.358 40.2528C12.358 40.3775 12.377 40.5022 12.394 40.7051H17.2375C17.4509 40.7431 17.6622 40.779 17.8757 40.8171L17.8778 40.8065ZM58.9843 66.9281C58.2468 66.6069 57.5346 66.1906 56.7675 65.9835C53.6568 65.1445 50.935 67.3296 50.4891 70.1677C49.872 74.0919 53.6547 77.2533 57.3402 75.9748C61.1038 74.6688 62.2133 69.8422 59.1576 67.0549C59.1005 67.0126 59.0413 66.9704 58.9843 66.9302V66.9281ZM6.29729 46.2016C5.48159 46.8715 4.77366 47.6555 4.76732 48.7565C4.73773 54.16 4.75464 59.5635 4.75464 64.967C4.75464 66.235 5.42453 67.1183 6.36492 67.8854C7.57791 68.8744 8.98743 68.6398 10.3547 68.6525C11.3627 65.47 13.1399 63.0081 16.371 61.8394C17.1297 61.5647 17.8989 61.3238 18.6639 61.0681C18.8245 61.0111 18.9851 60.9519 19.1457 60.8948C20.0882 60.9519 21.0286 61.0089 21.9711 61.0639C22.0725 61.066 22.174 61.0681 22.2754 61.0702C22.5839 61.2287 22.8819 61.4189 23.2052 61.5373C24.7098 62.0909 26.1025 62.8263 27.214 64.0055C28.427 65.2946 29.3019 66.7823 29.7774 68.4961C29.8196 68.5384 29.8619 68.5785 29.902 68.6208H45.9309C46.0725 68.232 46.2119 67.8579 46.3472 67.4818C47.4038 64.593 49.5212 62.7608 52.2748 61.5922C52.8982 61.328 53.5934 61.2351 54.2549 61.0639C54.4155 61.0068 54.5761 60.9477 54.7367 60.8906C55.1678 60.9498 55.6031 60.9815 56.0279 61.0723C57.2683 61.3365 58.5088 61.6049 59.7387 61.9113C60.1381 62.0106 60.5037 62.2388 60.9707 62.4459V45.4112H60.0092C43.0738 45.4112 26.1384 45.4006 9.20087 45.4387C8.29429 45.4387 7.38772 45.8508 6.48326 46.0727C6.42198 46.1149 6.35858 46.1572 6.29729 46.1994V46.2016ZM25.31 70.9644C25.5108 68.3947 23.1313 65.5947 19.6656 65.8039C17.1487 65.956 14.9319 68.12 14.8601 70.9411C14.7861 73.8193 17.3558 76.332 20.1537 76.2791C22.6537 76.2326 25.5509 73.9398 25.3079 70.9644H25.31Z" fill="white"/>
<path d="M54.099 81C54.1265 80.9514 54.1223 80.9028 54.0906 80.8584C54.3568 80.9049 54.6231 80.9535 54.8915 81H54.1011H54.099Z" fill="white"/>
<path d="M38.7545 32.0936C38.0191 32.7931 37.2815 33.4926 36.5461 34.192C36.7046 33.0319 37.6556 32.5226 38.4586 31.895C38.4882 31.8717 38.653 32.0239 38.7566 32.0936H38.7545Z" fill="white"/>
<path d="M17.4297 22.3136C17.5734 22.1022 17.7192 21.8888 17.8629 21.6775C18.2496 22.2523 17.7044 22.191 17.4297 22.3136Z" fill="white"/>
<path d="M17.2396 40.6923C17.3939 40.6754 17.546 40.6606 17.7003 40.6437C17.7595 40.6965 17.8186 40.7515 17.8778 40.8043C17.6644 40.7662 17.4531 40.7303 17.2396 40.6923Z" fill="white"/>
<path d="M22.5293 40.3521C22.5589 40.4577 22.5906 40.5634 22.6202 40.669L22.2313 40.6521C22.3306 40.5528 22.43 40.4514 22.5293 40.3521Z" fill="white"/>
<path d="M17.8782 40.8043C17.819 40.7514 17.7599 40.6965 17.7007 40.6437C17.7303 40.5317 17.7599 40.4175 17.7916 40.3055C17.8211 40.4725 17.8507 40.6373 17.8803 40.8043H17.8782Z" fill="white"/>
<path d="M60.8739 31.0053C60.9098 30.9673 60.95 30.9609 60.9965 30.9821C60.9859 31.1405 60.9754 31.299 60.9627 31.4554C60.8824 31.3667 60.8042 31.2758 60.7239 31.187C60.7725 31.1258 60.8232 31.0645 60.8718 31.0053H60.8739Z" fill="white"/>
<path d="M56.7906 22.1466C56.8963 22.2544 57.002 22.3622 57.1076 22.472C57.002 22.3643 56.8963 22.2565 56.7906 22.1466Z" fill="white"/>
<path d="M15.0335 5.08655C14.9257 5.12459 14.8179 5.16262 14.7123 5.20278C14.8201 5.16474 14.9278 5.1267 15.0335 5.08655Z" fill="white"/>
<path d="M1.89976 43.6635C1.86172 43.6297 1.82368 43.598 1.78564 43.5642C1.82368 43.56 1.86172 43.5557 1.89976 43.5515C1.89976 43.5896 1.89976 43.6255 1.89976 43.6635Z" fill="white"/>
<path d="M59.1599 67.0527C59.1028 67.0104 59.0436 66.9681 58.9866 66.928C59.0436 66.9702 59.1028 67.0125 59.1599 67.0527Z" fill="white"/>
<path d="M29.7776 68.4961C29.8199 68.5384 29.8621 68.5785 29.9023 68.6208C29.86 68.5785 29.8177 68.5384 29.7776 68.4961Z" fill="white"/>
</g>
<defs>
<clipPath id="clip0_1_150">
<rect width="80.8943" height="81" fill="white"/>
</clipPath>
</defs>
</svg>
