<svg width="78" height="82" viewBox="0 0 78 82" fill="none" xmlns="http://www.w3.org/2000/svg">
<g clip-path="url(#clip0_1_145)">
<path d="M19.0832 0.158569C20.1926 0.617564 21.418 0.79947 22.4069 1.56517C23.7239 2.5868 24.7619 3.75649 25.1883 5.38307C27.2999 5.38307 29.4138 5.40211 31.5278 5.37672C32.7711 5.36192 33.789 5.71727 34.6685 6.59295C36.2801 8.19838 37.9744 9.72977 39.6106 11.3119C40.0012 11.6905 40.249 11.8259 40.758 11.4029C41.7245 10.5991 43.1397 10.7747 44.2826 11.7751C46.1354 13.3975 47.9569 15.0537 49.8074 16.676C52.5597 19.0894 55.3276 21.4881 58.0911 23.8909C60.0242 25.5704 61.9618 27.2414 63.8927 28.9229C66.7611 31.4188 69.6161 33.9296 72.4889 36.4191C73.9287 37.6671 75.5337 38.7733 76.8194 40.1482C78.0896 41.5104 77.8976 42.7203 75.96 44.1628C73.6474 45.8825 71.3416 47.6127 69.029 49.3344C66.1807 51.456 63.3793 53.6367 60.4617 55.6694C59.0197 56.6741 57.5755 56.3378 56.7049 54.8593C53.1936 48.8839 49.6757 42.9127 46.1555 36.9416C45.0215 35.0189 43.8585 33.1131 42.7268 31.1904C40.278 27.032 37.8717 22.8502 35.3895 18.7108C34.2957 16.8875 34.7645 15.923 36.1462 14.7893C34.5747 13.3087 33.0033 11.8323 31.4407 10.3495C31.2733 10.1909 31.0969 10.1274 30.8581 10.1295C28.8536 10.138 26.8513 10.1338 24.8579 10.1338C23.9583 12.0184 22.4248 13.2177 20.4582 14.049C20.4604 14.0384 20.4336 14.0892 20.4336 14.1399C20.389 15.7178 20.4202 15.61 22.014 16.0203C24.0855 16.5533 26.0521 17.3254 27.8714 18.4909C30.4965 20.1724 32.3648 22.3955 33.7332 25.0458C34.4854 26.5053 34.9319 28.0451 35.1439 29.6675C35.5435 32.7281 35.423 35.7994 35.4274 38.8664C35.4408 50.1869 35.4475 61.5052 35.4163 72.8256C35.4118 74.7039 35.2846 76.5907 33.9765 78.1898C32.4564 80.0469 30.5277 81.2018 28.0142 81.2145C21.3042 81.2483 14.5919 81.2356 7.88189 81.2229C4.34606 81.2166 1.33926 78.5832 0.687456 75.3279C0.54013 74.5897 0.669599 73.898 0.669599 73.1852C0.68076 59.7559 0.707547 46.3245 0.645044 32.8952C0.636116 30.8964 0.725404 28.9377 1.39507 27.0595C2.72324 23.3283 5.04921 20.3289 8.61629 18.1672C10.4199 17.0737 12.3508 16.4137 14.362 15.8701C14.6656 15.7877 15.0138 15.8596 15.3241 15.8596C15.5607 14.7999 15.583 13.9496 14.3263 13.4546C12.891 12.8899 11.949 11.7625 11.2548 10.4764C11.0427 10.083 10.7503 10.1422 10.4355 10.1422C8.48682 10.138 6.53809 10.1422 4.58714 10.1359C3.42192 10.1338 2.29688 9.26654 2.06697 8.09685C1.90178 7.25501 2.35939 6.27568 3.39737 5.71515C3.90631 5.44018 4.52687 5.38941 5.12733 5.38941C6.77025 5.38941 8.41316 5.36826 10.0561 5.40211C10.5449 5.41268 10.8552 5.28789 10.9356 4.83947C11.065 4.12454 11.7347 3.62747 11.7816 2.87235C11.7994 2.59526 12.2146 2.70525 12.4111 2.49373C13.4602 1.36211 14.8285 0.712747 16.3442 0.327784C16.4558 0.300287 16.5585 0.293941 16.5831 0.16703H19.0898L19.0832 0.158569ZM30.3648 31.4738C30.2799 30.8795 30.2286 30.264 30.0991 29.6654C29.9764 29.0921 29.6973 28.5422 29.6326 27.9669C29.5589 27.3217 29.0545 26.9283 28.8045 26.3889C28.1125 24.8914 26.9182 23.7069 25.5878 22.7678C22.3935 20.5151 18.8153 19.815 14.871 20.716C11.2079 21.5536 8.66317 23.6582 6.92427 26.6956C5.85281 28.5676 5.64298 30.6278 5.65191 32.7704C5.71218 46.2759 5.68316 59.7813 5.68316 73.2889C5.68316 73.4475 5.71441 73.6083 5.69209 73.7627C5.47779 75.256 6.58497 76.4701 8.18101 76.4701C14.6946 76.4722 21.2082 76.4701 27.7241 76.4701C29.0701 76.4701 30.0322 75.8144 30.2666 74.5284C30.6349 72.4999 30.3268 70.4461 30.4206 68.3774C30.1438 68.3563 29.9563 68.3288 29.7665 68.3288C27.0098 68.3224 24.2552 68.3161 21.4984 68.3182C20.331 68.3182 19.3912 67.6096 19.072 66.552C18.9157 66.0359 19.0564 65.5494 19.0564 65.0502C19.0519 55.1047 19.0519 45.1612 19.0519 35.2156C19.0519 35.0041 19.0787 34.7904 19.0564 34.5832C18.8354 32.6097 19.7952 31.5986 21.9136 31.5944C24.4181 31.5902 26.9249 31.5944 29.4295 31.5881C29.7264 31.5881 30.0389 31.6684 30.367 31.4696L30.3648 31.4738ZM40.5727 17.7167C46.9702 28.5718 53.332 39.3656 59.734 50.227C63.5712 47.3546 67.3481 44.5266 71.1898 41.65C69.9754 40.6241 68.8549 39.6977 67.7589 38.7458C64.9686 36.3282 62.1917 33.8978 59.4059 31.4738C57.3947 29.7225 55.3745 27.9796 53.3678 26.224C50.9547 24.1109 48.5596 21.9788 46.1465 19.8678C44.834 18.7193 43.4991 17.5982 42.1754 16.4645C41.4901 16.6908 41.1218 17.2344 40.5772 17.7167H40.5727ZM30.3469 63.5802V36.3832H24.1034V63.5485C24.3601 63.559 24.5789 63.5781 24.7976 63.5781C26.6303 63.5802 28.4629 63.5781 30.3469 63.5781V63.5802ZM20.4202 7.30788C20.5698 5.92456 19.3979 4.96638 17.8487 4.93254C16.6255 4.90504 15.4893 5.94148 15.4156 7.25712C15.3576 8.28933 16.6813 9.75727 17.9782 9.67689C19.38 9.59017 20.418 8.66583 20.4202 7.30788Z" fill="white"/>
</g>
<defs>
<clipPath id="clip0_1_145">
<rect width="78" height="82" fill="white"/>
</clipPath>
</defs>
</svg>
