<svg width="179" height="180" viewBox="0 0 179 180" fill="none" xmlns="http://www.w3.org/2000/svg">
<g clip-path="url(#clip0_396_7363)">
<path d="M20.5048 132.349C25.6746 132.349 29.9238 133.921 33.2571 137.07C36.5904 140.219 38.257 144.161 38.257 148.892C38.257 153.623 36.6187 157.556 33.3373 161.007C30.056 164.463 26.1137 166.186 21.501 166.186H0V152.433L20.0043 152.598C20.9486 152.598 21.7276 152.244 22.3366 151.545C22.9457 150.842 23.2526 150.011 23.2526 149.057C23.2526 146.975 21.9448 145.932 19.3339 145.932C13.9421 145.932 9.49933 144.204 5.9961 140.752C2.49287 137.296 0.745971 132.981 0.745971 127.797C0.745971 123.175 2.48342 119.289 5.95833 116.14C9.42851 112.991 13.5313 111.419 18.2527 111.419H52.015L37.7612 125.588H17.7569C16.8693 125.588 16.1328 125.772 15.5474 126.135C14.9619 126.503 14.6173 127.136 14.5039 128.033C14.5039 129.667 15.0894 130.79 16.2556 131.409C17.4217 132.027 18.8381 132.339 20.5048 132.339V132.349Z" fill="#006A36"/>
<path d="M41.9297 126.461L56.9341 111.405V166.191H41.9297V126.461ZM51.9342 132.264H76.5229V145.686H56.9341L51.9342 132.264ZM52.7699 152.438H76.5276V166.191H56.9388L52.7699 152.438ZM53.1854 125.573L56.9341 111.405H90.5264L76.3577 125.573H53.1854Z" fill="#006A36"/>
<path d="M127.124 125.512H109.74C105.949 125.512 102.596 126.839 99.6692 129.497C96.742 132.155 95.2831 135.408 95.2831 139.27C95.2831 142.792 96.4634 145.87 98.8241 148.495C101.185 151.125 104.117 152.438 107.62 152.438H113.621V166.111L106.784 166.196C99.4473 166.196 93.2907 163.575 88.3191 158.335C83.3428 153.094 80.8594 146.767 80.8594 139.355C80.8594 131.942 83.7772 125.087 89.6127 119.624C95.4483 114.162 102.365 111.428 110.368 111.428H141.127L127.124 125.517V125.512ZM113.621 166.191V132.178H127.124V166.191H113.621Z" fill="#006A36"/>
<path d="M131.387 125.573L145.485 111.405H178.973L164.856 125.573H131.391H131.387ZM144.961 125.512L159.965 111.405V166.191H144.961V125.512Z" fill="#006A36"/>
<path fill-rule="evenodd" clip-rule="evenodd" d="M90.9176 13.2717C89.5815 10.7646 89.1047 7.2142 90.1009 2.56369C88.59 1.76106 82.6317 0.151083 80.6676 0.042492C80.0491 1.06702 79.6478 2.677 79.1426 3.70153C77.3485 7.34168 74.6479 10.1273 69.8369 10.0989C63.1562 10.0612 61.2393 4.77799 59.3083 0C56.7588 0.325772 51.8155 1.43529 49.9081 2.58729C50.1395 6.02915 50.9988 8.35204 49.7665 11.8364C48.1046 16.5388 42.5759 19.3575 37.1275 17.0723C33.8981 15.7173 33.086 14.3009 31.2352 13.2197C29.3467 14.7589 25.8812 18.1158 24.5404 20.0232C25.055 21.3688 26.8255 22.2847 28.3694 26.0948C29.4695 28.8001 29.3703 31.5857 28.0767 34.0219C25.1636 39.5129 20.9616 39.3854 13.823 38.663C12.9023 40.1833 11.1601 46.1463 11.3207 48.1529C16.5849 49.8337 21.3535 52.591 21.3157 58.8656C21.3063 60.57 21.0183 61.9439 20.2865 63.2092C19.616 64.3707 18.9456 65.2205 17.973 65.9287C13.7474 69.0259 13.6247 68.1147 11.2734 69.4272C11.3773 71.821 12.7182 77.0239 13.8182 78.8085C19.0448 78.3175 24.5309 78.0437 27.3118 81.3911C29.8472 79.8 32.7744 78.2892 36.0982 76.8586C34.526 73.9503 33.2701 70.7539 32.5289 67.3687C27.9586 46.4579 40.744 26.0334 61.1166 21.364C64.6151 20.6936 67.9295 20.3678 71.0597 20.3678C79.0199 14.9619 85.6345 12.6012 90.9035 13.2764" fill="#006A36"/>
<path fill-rule="evenodd" clip-rule="evenodd" d="M138.628 36.0615L136.197 33.1815C132.689 29.9521 128.076 28.5168 123.161 28.5546C126.622 27.2657 132.741 29.8813 135.64 32.0909C135.526 31.378 133.864 28.8709 133.421 28.2902C131.537 25.8304 129.644 23.9466 126.891 22.5207C119.412 18.6445 109.007 23.5405 103.978 27.3979C103.284 27.9314 102.911 28.328 102.316 28.8048L99.2523 31.8879C98.9879 32.2089 98.799 32.3411 98.5158 32.6858C97.5809 33.8236 95.9615 35.9482 95.3713 37.2135C95.0078 37.9973 94.6159 38.2947 94.2052 39.1257C92.4205 42.7375 90.9758 45.9622 89.7907 50.0697C88.9692 52.912 88.7615 54.8666 89.3092 58.0535C89.583 59.654 89.7671 59.3849 90.2156 60.1734C88.6954 60.2867 88.5207 59.215 88.1713 57.1895C87.3167 52.2557 87.9683 50.0131 89.701 45.2162C93.818 33.8331 101.382 24.1449 113.426 20.8494C118.388 19.4896 118.166 20.2167 121.759 19.9571C121.433 19.7163 121.169 19.3716 120.739 18.9656C120.385 18.6304 119.984 18.3612 119.563 18.0874C116.698 16.2225 112.694 15.2735 109.186 15.8873C102.6 17.0393 96.2967 19.6691 91.1457 23.4508L87.5528 26.345C84.0213 29.7444 81.6511 32.9218 79.2433 37.1522C77.8741 39.3854 77.0856 41.4014 76.198 43.7998C74.758 47.4683 73.0441 53.2189 74.4747 56.9676C73.8373 56.6702 73.6626 56.2311 73.3888 55.4001C72.8034 53.6202 72.3548 50.7071 72.827 48.9697C73.5635 46.2643 74.3944 43.9414 75.3057 41.4061C77.1517 36.2409 82.3971 29.022 86.906 25.3488C93.242 20.1931 100.607 16.1989 109.45 15.4765C108.124 13.9562 102.604 13.3613 100.201 13.2905C95.4185 13.1583 87.4678 16.4066 83.6388 19.0081C82.4396 19.8249 81.4198 20.5142 80.3433 21.3451C80.0884 21.5387 79.8193 21.7606 79.5832 21.9495C79.2433 22.228 79.1913 22.3319 78.875 22.6057L73.3463 28.3421C71.4672 30.75 69.4182 33.9605 68.0112 36.8217C66.1888 40.5185 62.3125 49.4843 63.5401 54.2245C61.949 53.3794 62.6808 48.3842 63.0491 47.0245C65.6647 37.341 71.3256 26.7794 79.3896 20.5614C82.1327 18.4462 84.1487 17.162 87.3167 15.7031C88.2374 15.2782 89.4319 14.976 90.3101 14.4614C83.0628 13.9185 74.6069 19.4613 69.4748 23.9513L66.1935 27.4876C61.8121 32.6811 58.5921 38.9415 56.3731 45.4759C55.4052 48.3323 55.1597 50.0084 54.9001 53.2094C54.4987 47.3361 57.0247 40.5751 59.5034 35.9671C61.0897 33.0163 64.0972 28.2383 66.4248 26.0004L69.2435 23.2384C67.1141 24.1118 64.7771 26.5244 62.983 28.0258C61.288 29.4422 59.3098 31.8312 57.799 33.7575C54.782 37.6054 52.275 42.3409 50.1126 47.7421C48.5026 51.7647 47.3365 56.2075 46.5197 60.518C46.3214 61.5615 46.4016 61.8495 45.8398 62.5671C45.4007 63.1242 45.1552 63.483 44.7633 64.0543C43.5264 65.8673 41.685 68.9787 41.2884 71.4715C41.1043 72.6377 40.9202 80.7679 40.5094 81.4572C39.7446 80.3477 40.2545 78.2561 40.3442 76.8303C37.2895 77.496 28.7108 81.9482 25.8638 83.6856C24.6788 84.408 23.8337 85.1681 23.3804 86.6884C23.1632 87.4155 23.083 88.2559 23.2341 88.9971C23.4182 89.9036 23.6873 90.0972 24.2066 90.593C25.1934 91.5325 25.8969 92.1321 27.1292 92.9584C37.3036 99.809 51.1796 102.141 64.3852 103.619C77.8693 105.13 89.3658 103.293 102.274 100.597C107.826 99.436 117.401 96.4946 122.59 94.1292C124.535 93.2416 128.728 89.8989 132.778 88.4542L132.835 81.8774C128.51 82.8452 124.436 83.5582 119.974 84.1578L109.729 85.1351C108.86 85.1115 109.262 84.9462 108.615 84.4694C108.261 84.205 107.803 84.0964 107.477 83.8934C114.139 83.6762 122.595 82.6139 129.204 81.2872C134.318 80.258 132.24 80.6404 133.553 79.5073C133.926 79.1862 134.289 79.0351 134.842 78.9218L135.578 72.0239L138.203 79.4081C135.767 80.7584 136.098 80.6309 136.225 87.0378C139.318 86.5798 146.206 83.3032 148.779 81.5988C152.193 79.3373 153.935 74.4035 152.405 72.5716C151.895 71.9626 150.342 71.2308 149.36 71.1835C149.738 74.0777 148.01 75.5744 145.772 77.0569C144.775 77.7179 144.502 77.6754 144.218 76.5092C145.427 75.5649 146.891 75.0409 148.099 73.412C149.35 71.7265 149.095 69.8899 149.086 67.4726C149.053 60.079 147.608 47.7988 142.981 42.0812L139.388 36.9822C139.105 36.595 138.907 36.4345 138.619 36.0757M66.9583 75.3147L66.1415 79.8C65.9574 80.3052 66.0802 80.0691 65.8158 80.3854L65.8016 57.6994C64.0736 57.0007 53.8519 55.7448 52.8982 55.131C54.1777 54.9705 56.189 54.4983 57.3882 54.4559C58.3089 54.4228 60.6129 54.9752 61.661 55.1782C64.4655 55.7212 67.3691 56.1791 70.1925 56.8024C69.1821 62.5718 67.6193 69.4603 66.9536 75.3147H66.9583ZM59.645 80.2391C66.7364 81.9907 73.3794 82.9822 80.7163 83.5676C81.8494 83.6573 88.5207 84.2853 89.328 83.8934C90.2204 83.459 89.2194 83.6715 91.4574 82.9302C91.6273 81.4808 91.7029 79.833 91.7926 78.3647C91.8917 76.7831 91.8162 75.225 92.8926 74.2571L92.8171 84.1672C89.4366 84.8188 89.7907 85.2956 89.7907 88.6242C89.7907 91.0084 89.9418 93.9404 89.753 96.2538C87.9825 95.6353 88.3838 93.6146 88.3932 91.5231C88.4026 89.4835 88.4215 87.4438 88.4357 85.4089C79.8193 85.2248 70.1028 84.0681 61.8876 82.2504C58.1247 81.4147 53.4506 80.121 50.6603 78.648C49.192 77.8737 46.8077 76.6084 46.09 75.716C45.1411 74.5263 43.7624 72.2789 45.2921 70.3951C45.1363 76.4762 55.0134 79.1012 59.645 80.2438V80.2391ZM153.5 73.0957C153.486 73.0249 153.434 73.0201 153.401 72.9871C153.647 75.2203 153.84 75.971 152.806 77.9634C150.856 81.7357 147.089 83.8084 143.062 85.4184C136.131 88.1898 134.233 88.0057 127.014 92.2313C122.245 95.0263 125.196 93.9168 119.351 96.1594C105.517 101.466 85.5793 105.484 70.8676 104.88C64.22 104.606 56.9633 103.69 50.5564 102.444C44.2393 101.216 38.5123 99.4974 33.0403 97.0942C30.4483 95.9564 24.2303 92.7223 22.9272 89.9886C21.9735 87.9773 22.6533 87.2503 23.1066 85.56C22.2851 86.5657 21.5627 88.3503 21.8177 90.0831C22.1009 92.0282 23.3474 92.6798 24.2916 93.5768C24.7118 93.9782 25.5097 94.507 26.0432 94.8941C32.4407 99.5824 41.3498 102.302 49.3005 104.039C72.5578 109.129 98.3411 106.376 120.366 97.3586C123.199 96.1972 126.457 95.5267 129.478 94.6816C136.258 92.7884 149.119 88.5628 152.452 82.1748C153.142 80.8528 153.77 79.3656 154.095 77.8454C154.289 76.9625 154.388 76.0654 154.275 75.1353C154.19 74.4224 154.01 73.7708 153.595 73.1901C153.576 73.1618 153.515 73.1476 153.5 73.0768V73.0957Z" fill="#008743"/>
<mask id="mask0_396_7363" style="mask-type:luminance" maskUnits="userSpaceOnUse" x="21" y="13" width="134" height="94">
<path d="M138.628 36.0615L136.197 33.1815C132.689 29.9521 128.076 28.5168 123.161 28.5546C126.622 27.2657 132.741 29.8813 135.64 32.0909C135.526 31.378 133.864 28.8709 133.421 28.2902C131.537 25.8304 129.644 23.9466 126.891 22.5207C119.412 18.6445 109.007 23.5405 103.978 27.3979C103.284 27.9314 102.911 28.328 102.316 28.8048L99.2523 31.8879C98.9879 32.2089 98.799 32.3411 98.5158 32.6858C97.5809 33.8236 95.9615 35.9482 95.3713 37.2135C95.0078 37.9973 94.6159 38.2947 94.2052 39.1257C92.4205 42.7375 90.9758 45.9622 89.7907 50.0697C88.9692 52.912 88.7615 54.8666 89.3092 58.0535C89.583 59.654 89.7671 59.3849 90.2156 60.1734C88.6954 60.2867 88.5207 59.215 88.1713 57.1895C87.3167 52.2557 87.9683 50.0131 89.701 45.2162C93.818 33.8331 101.382 24.1449 113.426 20.8494C118.388 19.4896 118.166 20.2167 121.759 19.9571C121.433 19.7163 121.169 19.3716 120.739 18.9656C120.385 18.6304 119.984 18.3612 119.563 18.0874C116.698 16.2225 112.694 15.2735 109.186 15.8873C102.6 17.0393 96.2967 19.6691 91.1457 23.4508L87.5528 26.345C84.0213 29.7444 81.6511 32.9218 79.2433 37.1522C77.8741 39.3854 77.0856 41.4014 76.198 43.7998C74.758 47.4683 73.0441 53.2189 74.4747 56.9676C73.8373 56.6702 73.6626 56.2311 73.3888 55.4001C72.8034 53.6202 72.3548 50.7071 72.827 48.9697C73.5635 46.2643 74.3944 43.9414 75.3057 41.4061C77.1517 36.2409 82.3971 29.022 86.906 25.3488C93.242 20.1931 100.607 16.1989 109.45 15.4765C108.124 13.9562 102.604 13.3613 100.201 13.2905C95.4185 13.1583 87.4678 16.4066 83.6388 19.0081C82.4396 19.8249 81.4198 20.5142 80.3433 21.3451C80.0884 21.5387 79.8193 21.7606 79.5832 21.9495C79.2433 22.228 79.1913 22.3319 78.875 22.6057L73.3463 28.3421C71.4672 30.75 69.4182 33.9605 68.0112 36.8217C66.1888 40.5185 62.3125 49.4843 63.5401 54.2245C61.949 53.3794 62.6808 48.3842 63.0491 47.0245C65.6647 37.341 71.3256 26.7794 79.3896 20.5614C82.1327 18.4462 84.1487 17.162 87.3167 15.7031C88.2374 15.2782 89.4319 14.976 90.3101 14.4614C83.0628 13.9185 74.6069 19.4613 69.4748 23.9513L66.1935 27.4876C61.8121 32.6811 58.5921 38.9415 56.3731 45.4759C55.4052 48.3323 55.1597 50.0084 54.9001 53.2094C54.4987 47.3361 57.0247 40.5751 59.5034 35.9671C61.0897 33.0163 64.0972 28.2383 66.4248 26.0004L69.2435 23.2384C67.1141 24.1118 64.7771 26.5244 62.983 28.0258C61.288 29.4422 59.3098 31.8312 57.799 33.7575C54.782 37.6054 52.275 42.3409 50.1126 47.7421C48.5026 51.7647 47.3365 56.2075 46.5197 60.518C46.3214 61.5615 46.4016 61.8495 45.8398 62.5671C45.4007 63.1242 45.1552 63.483 44.7633 64.0543C43.5264 65.8673 41.685 68.9787 41.2884 71.4715C41.1043 72.6377 40.9202 80.7679 40.5094 81.4572C39.7446 80.3477 40.2545 78.2561 40.3442 76.8303C37.2895 77.496 28.7108 81.9482 25.8638 83.6856C24.6788 84.408 23.8337 85.1681 23.3804 86.6884C23.1632 87.4155 23.083 88.2559 23.2341 88.9971C23.4182 89.9036 23.6873 90.0972 24.2066 90.593C25.1934 91.5325 25.8969 92.1321 27.1292 92.9584C37.3036 99.809 51.1796 102.141 64.3852 103.619C77.8693 105.13 89.3658 103.293 102.274 100.597C107.826 99.436 117.401 96.4946 122.59 94.1292C124.535 93.2416 128.728 89.8989 132.778 88.4542L132.835 81.8774C128.51 82.8452 124.436 83.5582 119.974 84.1578L109.729 85.1351C108.86 85.1115 109.262 84.9462 108.615 84.4694C108.261 84.205 107.803 84.0964 107.477 83.8934C114.139 83.6762 122.595 82.6139 129.204 81.2872C134.318 80.258 132.24 80.6404 133.553 79.5073C133.926 79.1862 134.289 79.0351 134.842 78.9218L135.578 72.0239L138.203 79.4081C135.767 80.7584 136.098 80.6309 136.225 87.0378C139.318 86.5798 146.206 83.3032 148.779 81.5988C152.193 79.3373 153.935 74.4035 152.405 72.5716C151.895 71.9626 150.342 71.2308 149.36 71.1835C149.738 74.0777 148.01 75.5744 145.772 77.0569C144.775 77.7179 144.502 77.6754 144.218 76.5092C145.427 75.5649 146.891 75.0409 148.099 73.412C149.35 71.7265 149.095 69.8899 149.086 67.4726C149.053 60.079 147.608 47.7988 142.981 42.0812L139.388 36.9822C139.105 36.595 138.907 36.4345 138.619 36.0757M66.9583 75.3147L66.1415 79.8C65.9574 80.3052 66.0802 80.0691 65.8158 80.3854L65.8016 57.6994C64.0736 57.0007 53.8519 55.7448 52.8982 55.131C54.1777 54.9705 56.189 54.4983 57.3882 54.4559C58.3089 54.4228 60.6129 54.9752 61.661 55.1782C64.4655 55.7212 67.3691 56.1791 70.1925 56.8024C69.1821 62.5718 67.6193 69.4603 66.9536 75.3147H66.9583ZM59.645 80.2391C66.7364 81.9907 73.3794 82.9822 80.7163 83.5676C81.8494 83.6573 88.5207 84.2853 89.328 83.8934C90.2204 83.459 89.2194 83.6715 91.4574 82.9302C91.6273 81.4808 91.7029 79.833 91.7926 78.3647C91.8917 76.7831 91.8162 75.225 92.8926 74.2571L92.8171 84.1672C89.4366 84.8188 89.7907 85.2956 89.7907 88.6242C89.7907 91.0084 89.9418 93.9404 89.753 96.2538C87.9825 95.6353 88.3838 93.6146 88.3932 91.5231C88.4026 89.4835 88.4215 87.4438 88.4357 85.4089C79.8193 85.2248 70.1028 84.0681 61.8876 82.2504C58.1247 81.4147 53.4506 80.121 50.6603 78.648C49.192 77.8737 46.8077 76.6084 46.09 75.716C45.1411 74.5263 43.7624 72.2789 45.2921 70.3951C45.1363 76.4762 55.0134 79.1012 59.645 80.2438V80.2391ZM153.5 73.0957C153.486 73.0249 153.434 73.0201 153.401 72.9871C153.647 75.2203 153.84 75.971 152.806 77.9634C150.856 81.7357 147.089 83.8084 143.062 85.4184C136.131 88.1898 134.233 88.0057 127.014 92.2313C122.245 95.0263 125.196 93.9168 119.351 96.1594C105.517 101.466 85.5793 105.484 70.8676 104.88C64.22 104.606 56.9633 103.69 50.5564 102.444C44.2393 101.216 38.5123 99.4974 33.0403 97.0942C30.4483 95.9564 24.2303 92.7223 22.9272 89.9886C21.9735 87.9773 22.6533 87.2503 23.1066 85.56C22.2851 86.5657 21.5627 88.3503 21.8177 90.0831C22.1009 92.0282 23.3474 92.6798 24.2916 93.5768C24.7118 93.9782 25.5097 94.507 26.0432 94.8941C32.4407 99.5824 41.3498 102.302 49.3005 104.039C72.5578 109.129 98.3411 106.376 120.366 97.3586C123.199 96.1972 126.457 95.5267 129.478 94.6816C136.258 92.7884 149.119 88.5628 152.452 82.1748C153.142 80.8528 153.77 79.3656 154.095 77.8454C154.289 76.9625 154.388 76.0654 154.275 75.1353C154.19 74.4224 154.01 73.7708 153.595 73.1901C153.576 73.1618 153.515 73.1476 153.5 73.0768V73.0957Z" fill="white"/>
</mask>
<g mask="url(#mask0_396_7363)">
<path fill-rule="evenodd" clip-rule="evenodd" d="M119.341 41C120.98 40.9528 122.576 40.9103 124.138 40.8631C125.654 40.8206 127.141 40.7781 128.591 40.7356C128.628 42.6336 128.666 44.5268 128.704 46.4248C128.742 48.3228 128.779 50.2302 128.822 52.1376C130.536 51.9299 132.207 51.7221 133.836 51.5238C135.413 51.3303 136.952 51.1414 138.458 50.9526C138.496 52.4067 138.529 53.8515 138.567 55.3056C138.605 56.7598 138.638 58.214 138.675 59.6776C137.169 59.9798 135.625 60.2914 134.039 60.6124C132.41 60.9429 130.734 61.2781 129.011 61.6275C129.049 63.5585 129.086 65.4943 129.124 67.4347C129.162 69.3752 129.2 71.3204 129.242 73.2656C127.774 73.7047 126.272 74.1532 124.738 74.6159C123.156 75.088 121.537 75.5743 119.88 76.0701C119.847 73.9691 119.814 71.8681 119.781 69.7765C119.748 67.685 119.719 65.5982 119.681 63.5113C117.613 63.9268 115.484 64.3564 113.284 64.805C111.008 65.2629 108.657 65.7398 106.235 66.2355C106.221 64.3423 106.202 62.449 106.188 60.5652C106.174 58.6814 106.155 56.807 106.141 54.9279C108.558 54.6305 110.895 54.3425 113.157 54.0639C115.347 53.7948 117.472 53.5351 119.53 53.2802C119.497 51.2264 119.469 49.1726 119.436 47.1236C119.403 45.0792 119.375 43.0396 119.341 40.9953" fill="white"/>
</g>
<path d="M13.1697 170.143L17.5889 179.623H16.5644L15.0724 176.502H10.9885L9.5107 179.623H8.45312L12.9337 170.143H13.165H13.1697ZM13.0517 172.159L11.4276 175.591H14.6664L13.0517 172.159Z" fill="#008745"/>
<path d="M22.437 173.377L21.8563 173.976C21.3747 173.509 20.9026 173.273 20.4399 173.273C20.1472 173.273 19.8969 173.372 19.6892 173.561C19.4815 173.75 19.3776 173.981 19.3776 174.236C19.3776 174.463 19.4626 174.68 19.6373 174.888C19.8072 175.1 20.1708 175.346 20.7232 175.629C21.3936 175.978 21.8516 176.313 22.0924 176.635C22.3284 176.96 22.4465 177.329 22.4465 177.735C22.4465 178.311 22.2434 178.797 21.8374 179.198C21.4314 179.6 20.9262 179.798 20.3219 179.798C19.9158 179.798 19.5334 179.708 19.1651 179.533C18.7969 179.359 18.4947 179.113 18.2539 178.806L18.8205 178.16C19.2832 178.679 19.7695 178.939 20.2888 178.939C20.6523 178.939 20.9592 178.821 21.2142 178.589C21.4691 178.358 21.5966 178.084 21.5966 177.772C21.5966 177.513 21.5116 177.286 21.3464 177.083C21.1764 176.885 20.7987 176.635 20.2085 176.337C19.5759 176.011 19.1462 175.69 18.9149 175.369C18.6883 175.053 18.5702 174.689 18.5702 174.279C18.5702 173.745 18.7544 173.301 19.1179 172.952C19.4815 172.603 19.9394 172.423 20.4965 172.423C21.1434 172.423 21.7902 172.739 22.4465 173.372L22.437 173.377Z" fill="#008745"/>
<path d="M27.562 173.377L26.9813 173.976C26.4997 173.509 26.0276 173.273 25.5649 173.273C25.2722 173.273 25.0219 173.372 24.8142 173.561C24.6065 173.75 24.5026 173.981 24.5026 174.236C24.5026 174.463 24.5876 174.68 24.7623 174.888C24.9322 175.1 25.2958 175.346 25.8482 175.629C26.5186 175.978 26.9766 176.313 27.2174 176.635C27.4534 176.96 27.5715 177.329 27.5715 177.735C27.5715 178.311 27.3684 178.797 26.9624 179.198C26.5564 179.6 26.0512 179.798 25.4469 179.798C25.0408 179.798 24.6584 179.708 24.2901 179.533C23.9219 179.359 23.6197 179.113 23.3789 178.806L23.9455 178.16C24.4082 178.679 24.8945 178.939 25.4138 178.939C25.7773 178.939 26.0842 178.821 26.3392 178.589C26.5941 178.358 26.7216 178.084 26.7216 177.772C26.7216 177.513 26.6366 177.286 26.4714 177.083C26.3014 176.885 25.9237 176.635 25.3335 176.337C24.7009 176.011 24.2712 175.69 24.0399 175.369C23.8133 175.053 23.6952 174.689 23.6952 174.279C23.6952 173.745 23.8794 173.301 24.2429 172.952C24.6065 172.603 25.0644 172.423 25.6215 172.423C26.2684 172.423 26.9152 172.739 27.5715 173.372L27.562 173.377Z" fill="#008745"/>
<path d="M35.0627 177.296L35.8229 177.697C35.5726 178.188 35.2846 178.585 34.9589 178.882C34.6331 179.179 34.2648 179.411 33.8541 179.567C33.4433 179.722 32.9853 179.803 32.466 179.803C31.3234 179.803 30.4264 179.43 29.7843 178.679C29.1375 177.928 28.8164 177.083 28.8164 176.139C28.8164 175.251 29.0902 174.458 29.6332 173.759C30.3272 172.876 31.2526 172.433 32.4141 172.433C33.5755 172.433 34.5623 172.886 35.2799 173.792C35.7851 174.434 36.0448 175.232 36.0542 176.191H29.7465C29.7654 177.003 30.0251 177.673 30.5255 178.193C31.0307 178.712 31.6492 178.972 32.3905 178.972C32.7493 178.972 33.0939 178.91 33.4339 178.788C33.7691 178.665 34.0571 178.5 34.2932 178.292C34.5292 178.084 34.7842 177.754 35.0627 177.296ZM35.0627 175.407C34.94 174.925 34.7653 174.543 34.5387 174.255C34.3073 173.967 34.0052 173.736 33.6274 173.561C33.2497 173.386 32.8531 173.297 32.433 173.297C31.7436 173.297 31.1535 173.519 30.6577 173.962C30.2942 174.283 30.0251 174.77 29.8362 175.412H35.0627V175.407Z" fill="#008745"/>
<path d="M41.2612 173.377L40.6805 173.976C40.1989 173.509 39.7268 173.273 39.2641 173.273C38.9714 173.273 38.7212 173.372 38.5134 173.561C38.3057 173.75 38.2018 173.981 38.2018 174.236C38.2018 174.463 38.2868 174.68 38.4615 174.888C38.6314 175.1 38.995 175.346 39.5474 175.629C40.2178 175.978 40.6758 176.313 40.9166 176.635C41.1526 176.96 41.2707 177.329 41.2707 177.735C41.2707 178.311 41.0677 178.797 40.6616 179.198C40.2556 179.6 39.7504 179.798 39.1461 179.798C38.74 179.798 38.3576 179.708 37.9893 179.533C37.6211 179.359 37.3189 179.113 37.0781 178.806L37.6447 178.16C38.1074 178.679 38.5937 178.939 39.113 178.939C39.4766 178.939 39.7835 178.821 40.0384 178.589C40.2934 178.358 40.4208 178.084 40.4208 177.772C40.4208 177.513 40.3358 177.286 40.1706 177.083C40.0006 176.885 39.6229 176.635 39.0328 176.337C38.4001 176.011 37.9705 175.69 37.7391 175.369C37.5125 175.053 37.3945 174.689 37.3945 174.279C37.3945 173.745 37.5786 173.301 37.9421 172.952C38.3057 172.603 38.7636 172.423 39.3208 172.423C39.9676 172.423 40.6144 172.739 41.2707 173.372L41.2612 173.377Z" fill="#008745"/>
<path d="M46.3862 173.377L45.8055 173.976C45.3239 173.509 44.8518 173.273 44.3891 173.273C44.0964 173.273 43.8462 173.372 43.6384 173.561C43.4307 173.75 43.3268 173.981 43.3268 174.236C43.3268 174.463 43.4118 174.68 43.5865 174.888C43.7564 175.1 44.12 175.346 44.6724 175.629C45.3428 175.978 45.8008 176.313 46.0416 176.635C46.2776 176.96 46.3957 177.329 46.3957 177.735C46.3957 178.311 46.1927 178.797 45.7866 179.198C45.3806 179.6 44.8754 179.798 44.2711 179.798C43.865 179.798 43.4826 179.708 43.1143 179.533C42.7461 179.359 42.4439 179.113 42.2031 178.806L42.7697 178.16C43.2324 178.679 43.7187 178.939 44.238 178.939C44.6016 178.939 44.9085 178.821 45.1634 178.589C45.4184 178.358 45.5458 178.084 45.5458 177.772C45.5458 177.513 45.4608 177.286 45.2956 177.083C45.1256 176.885 44.7479 176.635 44.1578 176.337C43.5251 176.011 43.0955 175.69 42.8641 175.369C42.6375 175.053 42.5195 174.689 42.5195 174.279C42.5195 173.745 42.7036 173.301 43.0671 172.952C43.4307 172.603 43.8886 172.423 44.4458 172.423C45.0926 172.423 45.7394 172.739 46.3957 173.372L46.3862 173.377Z" fill="#008745"/>
<path d="M51.2997 172.428C52.3808 172.428 53.2732 172.82 53.9861 173.599C54.6329 174.312 54.954 175.157 54.954 176.129C54.954 177.102 54.614 177.966 53.9294 178.698C53.2496 179.43 52.3714 179.798 51.2997 179.798C50.2279 179.798 49.345 179.43 48.6652 178.698C47.9806 177.966 47.6406 177.111 47.6406 176.129C47.6406 175.147 47.9617 174.316 48.6085 173.603C49.3167 172.815 50.2138 172.423 51.2997 172.423V172.428ZM51.2997 173.311C50.549 173.311 49.9069 173.589 49.3639 174.142C48.8257 174.694 48.5566 175.364 48.5566 176.153C48.5566 176.658 48.6793 177.13 48.9248 177.569C49.1703 178.008 49.5008 178.348 49.921 178.584C50.3412 178.82 50.7992 178.943 51.2997 178.943C51.8001 178.943 52.2581 178.825 52.6783 178.584C53.0985 178.344 53.429 178.008 53.6745 177.569C53.92 177.13 54.0428 176.658 54.0428 176.153C54.0428 175.364 53.7736 174.699 53.2307 174.142C52.6877 173.585 52.0456 173.311 51.2997 173.311Z" fill="#008745"/>
<path d="M56.2852 172.607H57.2058V173.632C57.4797 173.226 57.7724 172.924 58.0745 172.725C58.3767 172.527 58.6978 172.428 59.0283 172.428C59.2785 172.428 59.5429 172.508 59.8262 172.664L59.354 173.424C59.1652 173.344 59.0046 173.301 58.8772 173.301C58.575 173.301 58.287 173.424 58.0084 173.674C57.7299 173.92 57.5174 174.302 57.3711 174.826C57.2578 175.228 57.2058 176.035 57.2058 177.248V179.618H56.2852V172.607Z" fill="#008745"/>
<path d="M60.9084 169.723C61.1161 169.723 61.2908 169.798 61.4325 169.94C61.5788 170.086 61.6497 170.261 61.6497 170.468C61.6497 170.676 61.5788 170.846 61.4325 170.993C61.2861 171.139 61.1114 171.21 60.9084 171.21C60.7054 171.21 60.5354 171.134 60.3891 170.993C60.2427 170.846 60.1719 170.672 60.1719 170.468C60.1719 170.265 60.2427 170.086 60.3891 169.94C60.5354 169.793 60.7054 169.723 60.9084 169.723ZM60.4599 172.612H61.3617V179.623H60.4599V172.612Z" fill="#008745"/>
<path d="M70.2211 172.607V179.618H69.3334V178.415C68.9557 178.872 68.5308 179.222 68.0587 179.453C67.5865 179.685 67.0719 179.803 66.5148 179.803C65.5233 179.803 64.6735 179.444 63.9747 178.721C63.2713 178.004 62.9219 177.126 62.9219 176.096C62.9219 175.067 63.276 174.222 63.9842 173.504C64.6924 172.787 65.5469 172.428 66.5431 172.428C67.1191 172.428 67.6385 172.551 68.1059 172.796C68.5733 173.042 68.9793 173.41 69.3334 173.896V172.607H70.2211ZM66.614 173.297C66.1135 173.297 65.6508 173.419 65.2259 173.665C64.801 173.91 64.461 174.26 64.2108 174.704C63.9606 175.152 63.8331 175.619 63.8331 176.12C63.8331 176.62 63.9606 177.083 64.2108 177.536C64.461 177.99 64.8057 178.339 65.2306 178.589C65.6555 178.839 66.1135 178.967 66.6045 178.967C67.0955 178.967 67.5677 178.844 68.0067 178.594C68.4506 178.344 68.7905 178.008 69.0266 177.584C69.2626 177.159 69.3854 176.682 69.3854 176.148C69.3854 175.336 69.1163 174.661 68.5828 174.113C68.0492 173.57 67.393 173.297 66.6092 173.297H66.614Z" fill="#008745"/>
<path d="M81.8088 177.296L82.569 177.697C82.3187 178.188 82.0307 178.585 81.705 178.882C81.3792 179.179 81.0109 179.411 80.6002 179.567C80.1894 179.722 79.7314 179.803 79.2121 179.803C78.0695 179.803 77.1725 179.43 76.5304 178.679C75.8836 177.928 75.5625 177.083 75.5625 176.139C75.5625 175.251 75.8363 174.458 76.3793 173.759C77.0733 172.876 77.9987 172.433 79.1602 172.433C80.3216 172.433 81.3084 172.886 82.026 173.792C82.5312 174.434 82.7909 175.232 82.8003 176.191H76.4926C76.5115 177.003 76.7712 177.673 77.2716 178.193C77.7768 178.712 78.3953 178.972 79.1366 178.972C79.4954 178.972 79.84 178.91 80.18 178.788C80.5152 178.665 80.8032 178.5 81.0393 178.292C81.2753 178.084 81.5303 177.754 81.8088 177.296ZM81.8088 175.407C81.6861 174.925 81.5114 174.543 81.2848 174.255C81.0534 173.967 80.7512 173.736 80.3735 173.561C79.9958 173.386 79.5992 173.297 79.179 173.297C78.4897 173.297 77.8996 173.519 77.4038 173.962C77.0403 174.283 76.7712 174.77 76.5823 175.412H81.8088V175.407Z" fill="#008745"/>
<path d="M88.9237 170.006H89.8255V172.607H91.256V173.386H89.8255V179.619H88.9237V173.386H87.6914V172.607H88.9237V170.006Z" fill="#008745"/>
<path d="M92.2664 172.607H93.1871V173.632C93.4609 173.226 93.7537 172.924 94.0558 172.725C94.358 172.527 94.679 172.428 95.0095 172.428C95.2598 172.428 95.5242 172.508 95.8074 172.664L95.3353 173.424C95.1465 173.344 94.9859 173.301 94.8585 173.301C94.5563 173.301 94.2683 173.424 93.9897 173.674C93.7112 173.925 93.4987 174.302 93.3523 174.826C93.239 175.228 93.1824 176.035 93.1824 177.248V179.618H92.2617V172.607H92.2664Z" fill="#008745"/>
<path d="M102.485 177.296L103.245 177.697C102.995 178.188 102.707 178.585 102.381 178.882C102.055 179.184 101.687 179.411 101.276 179.567C100.865 179.722 100.407 179.803 99.8879 179.803C98.7453 179.803 97.8483 179.43 97.2062 178.679C96.5593 177.928 96.2383 177.083 96.2383 176.139C96.2383 175.251 96.5121 174.458 97.0551 173.759C97.7491 172.876 98.6745 172.433 99.8359 172.433C100.997 172.433 101.984 172.886 102.702 173.792C103.212 174.434 103.467 175.232 103.476 176.191H97.1684C97.1873 177.003 97.4469 177.673 97.9474 178.193C98.4526 178.712 99.0711 178.972 99.8123 178.972C100.171 178.972 100.516 178.91 100.856 178.788C101.196 178.665 101.479 178.5 101.715 178.292C101.951 178.084 102.206 177.754 102.485 177.296ZM102.485 175.407C102.367 174.925 102.187 174.543 101.961 174.255C101.729 173.967 101.427 173.736 101.049 173.561C100.672 173.386 100.275 173.297 99.8548 173.297C99.1655 173.297 98.5753 173.519 98.0796 173.962C97.7161 174.283 97.4469 174.77 97.2581 175.412H102.485V175.407Z" fill="#008745"/>
<path d="M105.467 169.723C105.67 169.723 105.849 169.798 105.991 169.94C106.137 170.086 106.208 170.261 106.208 170.468C106.208 170.676 106.137 170.846 105.991 170.993C105.845 171.139 105.67 171.21 105.467 171.21C105.264 171.21 105.094 171.134 104.948 170.993C104.801 170.846 104.73 170.672 104.73 170.468C104.73 170.265 104.801 170.086 104.948 169.94C105.094 169.793 105.264 169.723 105.467 169.723ZM105.018 172.612H105.92V179.623H105.018V172.612Z" fill="#008745"/>
<path d="M107.793 172.607H108.695V173.863C109.054 173.382 109.455 173.023 109.894 172.782C110.333 172.546 110.81 172.423 111.325 172.423C111.839 172.423 112.316 172.555 112.722 172.824C113.128 173.089 113.43 173.448 113.619 173.901C113.813 174.354 113.907 175.053 113.907 176.007V179.614H113.005V176.271C113.005 175.464 112.972 174.925 112.906 174.652C112.802 174.189 112.599 173.839 112.307 173.603C112.014 173.367 111.622 173.254 111.145 173.254C110.597 173.254 110.111 173.433 109.677 173.797C109.242 174.156 108.959 174.604 108.822 175.138C108.737 175.487 108.695 176.12 108.695 177.045V179.618H107.793V172.607Z" fill="#008745"/>
<path d="M122.83 172.607V179.618H121.943V178.415C121.565 178.872 121.14 179.222 120.668 179.453C120.196 179.685 119.681 179.803 119.124 179.803C118.133 179.803 117.283 179.444 116.584 178.721C115.881 178.004 115.531 177.126 115.531 176.096C115.531 175.067 115.885 174.222 116.594 173.504C117.302 172.787 118.156 172.428 119.153 172.428C119.729 172.428 120.248 172.551 120.715 172.796C121.183 173.042 121.589 173.41 121.943 173.896V172.607H122.83ZM119.223 173.297C118.723 173.297 118.26 173.419 117.835 173.665C117.41 173.91 117.07 174.26 116.82 174.704C116.57 175.152 116.442 175.619 116.442 176.12C116.442 176.62 116.57 177.083 116.82 177.536C117.07 177.99 117.415 178.339 117.84 178.589C118.265 178.839 118.728 178.967 119.214 178.967C119.7 178.967 120.177 178.844 120.616 178.594C121.06 178.344 121.4 178.008 121.636 177.584C121.872 177.159 121.995 176.682 121.995 176.148C121.995 175.336 121.726 174.661 121.192 174.113C120.659 173.566 120.002 173.297 119.219 173.297H119.223Z" fill="#008745"/>
<path d="M124.852 172.607H125.753V173.821C126.07 173.372 126.391 173.046 126.721 172.843C127.179 172.57 127.656 172.433 128.161 172.433C128.501 172.433 128.822 172.499 129.129 172.631C129.436 172.763 129.686 172.943 129.875 173.164C130.069 173.386 130.239 173.703 130.38 174.113C130.678 173.566 131.055 173.146 131.504 172.862C131.952 172.574 132.439 172.433 132.958 172.433C133.444 172.433 133.869 172.555 134.242 172.801C134.615 173.046 134.889 173.386 135.069 173.825C135.248 174.265 135.338 174.921 135.338 175.799V179.628H134.417V175.799C134.417 175.048 134.365 174.529 134.256 174.25C134.148 173.967 133.968 173.74 133.709 173.57C133.449 173.4 133.142 173.311 132.779 173.311C132.344 173.311 131.943 173.438 131.579 173.698C131.216 173.958 130.952 174.298 130.786 174.727C130.621 175.157 130.536 175.874 130.536 176.88V179.623H129.634V176.035C129.634 175.19 129.582 174.614 129.478 174.312C129.375 174.01 129.19 173.764 128.926 173.585C128.662 173.4 128.355 173.311 127.991 173.311C127.576 173.311 127.184 173.438 126.82 173.688C126.457 173.939 126.188 174.279 126.013 174.704C125.838 175.128 125.753 175.78 125.753 176.658V179.628H124.852V172.617V172.607Z" fill="#008745"/>
<path d="M143.145 177.296L143.905 177.697C143.655 178.188 143.367 178.585 143.041 178.882C142.715 179.184 142.347 179.411 141.936 179.567C141.525 179.722 141.067 179.803 140.548 179.803C139.405 179.803 138.508 179.43 137.866 178.679C137.219 177.928 136.898 177.083 136.898 176.139C136.898 175.251 137.172 174.458 137.715 173.759C138.409 172.876 139.335 172.433 140.496 172.433C141.658 172.433 142.644 172.886 143.362 173.792C143.872 174.434 144.127 175.232 144.136 176.191H137.829C137.847 177.003 138.107 177.673 138.608 178.193C139.113 178.712 139.731 178.972 140.472 178.972C140.831 178.972 141.176 178.91 141.516 178.788C141.856 178.665 142.139 178.5 142.375 178.292C142.611 178.084 142.866 177.754 143.145 177.296ZM143.145 175.407C143.027 174.925 142.847 174.543 142.621 174.255C142.389 173.967 142.087 173.736 141.709 173.561C141.332 173.386 140.935 173.297 140.515 173.297C139.826 173.297 139.235 173.519 138.74 173.962C138.376 174.283 138.107 174.77 137.918 175.412H143.145V175.407Z" fill="#008745"/>
<path d="M145.816 172.607H146.718V173.863C147.077 173.382 147.478 173.023 147.917 172.782C148.356 172.546 148.833 172.423 149.348 172.423C149.863 172.423 150.339 172.555 150.745 172.824C151.152 173.089 151.454 173.448 151.643 173.901C151.836 174.354 151.931 175.053 151.931 176.007V179.614H151.029V176.271C151.029 175.464 150.996 174.925 150.93 174.652C150.826 174.189 150.623 173.839 150.33 173.603C150.037 173.367 149.645 173.254 149.169 173.254C148.621 173.254 148.135 173.433 147.7 173.797C147.266 174.156 146.983 174.604 146.846 175.138C146.761 175.487 146.718 176.12 146.718 177.045V179.618H145.816V172.607Z" fill="#008745"/>
<path d="M154.654 170.006H155.556V172.607H156.986V173.386H155.556V179.619H154.654V173.386H153.422V172.607H154.654V170.006Z" fill="#008745"/>
<path d="M161.655 172.428C162.736 172.428 163.629 172.82 164.342 173.599C164.988 174.312 165.309 175.157 165.309 176.129C165.309 177.102 164.969 177.966 164.285 178.698C163.6 179.43 162.727 179.798 161.655 179.798C160.583 179.798 159.7 179.43 159.021 178.698C158.336 177.966 157.996 177.111 157.996 176.129C157.996 175.147 158.317 174.316 158.964 173.603C159.672 172.815 160.569 172.423 161.655 172.423V172.428ZM161.655 173.311C160.904 173.311 160.262 173.589 159.719 174.142C159.181 174.694 158.912 175.364 158.912 176.153C158.912 176.658 159.035 177.13 159.28 177.569C159.526 178.008 159.856 178.348 160.276 178.584C160.697 178.82 161.155 178.943 161.655 178.943C162.156 178.943 162.614 178.825 163.034 178.584C163.454 178.344 163.784 178.008 164.03 177.569C164.275 177.13 164.398 176.658 164.398 176.153C164.398 175.364 164.129 174.699 163.586 174.142C163.043 173.589 162.401 173.311 161.655 173.311Z" fill="#008745"/>
<path d="M170.503 173.377L169.923 173.976C169.441 173.509 168.969 173.273 168.506 173.273C168.214 173.273 167.963 173.372 167.756 173.561C167.548 173.75 167.444 173.981 167.444 174.236C167.444 174.463 167.529 174.68 167.704 174.888C167.874 175.1 168.237 175.346 168.79 175.629C169.46 175.978 169.918 176.313 170.159 176.635C170.395 176.96 170.513 177.329 170.513 177.735C170.513 178.311 170.31 178.797 169.904 179.198C169.498 179.6 168.993 179.798 168.388 179.798C167.982 179.798 167.6 179.708 167.232 179.533C166.863 179.359 166.561 179.113 166.32 178.806L166.887 178.16C167.35 178.679 167.836 178.939 168.355 178.939C168.719 178.939 169.026 178.821 169.281 178.589C169.536 178.358 169.663 178.084 169.663 177.772C169.663 177.513 169.578 177.286 169.413 177.083C169.243 176.885 168.865 176.635 168.275 176.337C167.642 176.011 167.213 175.69 166.981 175.369C166.755 175.053 166.641 174.689 166.641 174.279C166.641 173.745 166.821 173.301 167.189 172.952C167.553 172.598 168.011 172.423 168.568 172.423C169.214 172.423 169.861 172.739 170.518 173.372L170.503 173.377Z" fill="#008745"/>
</g>
<defs>
<clipPath id="clip0_396_7363">
<rect width="179" height="179.618" fill="white"/>
</clipPath>
</defs>
</svg>
