<svg width="74" height="83" viewBox="0 0 74 83" fill="none" xmlns="http://www.w3.org/2000/svg">
<g clip-path="url(#clip0_1_177)">
<path d="M36.7327 0C38.458 1.40196 40.3939 2.47839 42.3384 3.52226C46.9675 6.0115 51.8678 7.79325 57.0091 8.87619C60.8525 9.68568 64.7481 10.0438 68.6805 9.94828C69.9783 9.91573 71.2782 9.93743 72.5782 9.90922C73.0014 9.90054 73.1338 10.0373 73.1294 10.4626C73.0556 15.9815 73.3682 21.5112 72.9298 27.0214C71.8447 40.6243 67.2373 52.9251 59.0057 63.8348C53.107 71.6541 45.8476 77.926 37.336 82.7634C36.7891 83.0738 36.392 83.0846 35.8169 82.7569C26.0574 77.2359 18.0493 69.8224 11.8012 60.5252C6.90306 53.2333 3.52837 45.2773 1.64462 36.6919C0.485721 31.4226 -0.0264508 26.0947 0.0147833 20.7039C0.0408259 17.4008 0.0495068 14.0977 -0.000408231 10.7968C-0.0112593 10.0134 0.249167 9.87666 0.950147 9.89619C2.87079 9.94611 4.7936 9.95913 6.71425 9.92658C12.6433 9.82675 18.3618 8.62879 23.9154 6.58227C27.9629 5.09133 31.7846 3.1555 35.3872 0.785619C35.7453 0.551235 36.1446 0.364597 36.405 0H36.7305L36.7327 0ZM68.253 20.4174C68.253 18.4772 68.2052 17.1491 68.2703 15.8252C68.3094 15.044 68.0511 14.8009 67.2872 14.8052C64.2012 14.8269 61.1433 14.4971 58.1007 13.9805C50.6807 12.7175 43.736 10.187 37.3035 6.2741C36.7935 5.96376 36.4376 5.89648 35.8755 6.24372C30.578 9.52726 24.866 11.8407 18.8132 13.2861C14.5205 14.3104 10.154 14.8356 5.73331 14.8443C5.27539 14.8443 4.85654 14.7835 4.87173 15.5301C4.95203 19.558 4.7936 23.5881 5.17122 27.616C5.58573 32.0281 6.40174 36.3555 7.7017 40.5809C10.7292 50.4315 15.7901 59.1102 22.8911 66.5866C26.8257 70.7296 31.2551 74.2627 36.1142 77.2619C36.4093 77.4442 36.6416 77.5159 36.9888 77.2945C38.7488 76.179 40.4807 75.0244 42.1452 73.7701C49.1529 68.4964 54.8671 62.0726 59.3095 54.5094C63.4199 47.5104 66.1023 39.9949 67.4174 31.9955C68.0793 27.9633 68.3484 23.8919 68.2508 20.4152L68.253 20.4174Z" fill="white"/>
<path d="M63.3745 22.4791C63.0772 39.982 56.3191 54.5636 43.5149 66.413C41.5052 68.2729 39.3567 69.957 37.1735 71.6042C36.7308 71.9384 36.44 71.9514 35.982 71.6216C23.3861 62.5631 14.9439 50.6573 11.285 35.5048C10.0566 30.4178 9.65512 25.2266 9.75712 19.9942C9.77014 19.3692 10.1412 19.3822 10.5427 19.3453C14.7378 18.9656 18.8503 18.1539 22.8913 16.9733C27.3381 15.6755 31.6025 13.9328 35.6435 11.6628C36.2945 11.296 36.7915 11.2656 37.4773 11.6476C42.6641 14.5361 48.1743 16.6022 53.9558 17.9434C56.7923 18.601 59.6569 19.111 62.565 19.341C63.1401 19.3866 63.4461 19.5363 63.3875 20.2069C63.3203 20.96 63.3724 21.7217 63.3724 22.4791H63.3745ZM58.3483 25.3134C58.3635 25.0964 58.344 24.8729 58.4004 24.6667C58.5784 24.0005 58.3917 23.7531 57.656 23.6424C55.9307 23.382 54.2162 23.0217 52.5148 22.6289C47.137 21.3875 42.0022 19.4604 37.0758 16.982C36.6874 16.7867 36.4226 16.7801 36.045 16.982C35.2138 17.429 34.3522 17.8197 33.4928 18.2147C27.6527 20.8949 21.5457 22.7005 15.2022 23.6988C14.779 23.7661 14.651 23.9093 14.69 24.3195C14.8506 25.9862 14.9179 27.6638 15.1523 29.3175C15.8185 33.9943 17.0252 38.5322 18.8417 42.9009C22.5657 51.8487 28.2061 59.349 35.7954 65.393C36.4551 65.9182 36.8197 65.8119 37.397 65.3496C43.1958 60.7162 47.9161 55.1713 51.5143 48.678C55.5444 41.4034 57.7862 33.6037 58.3483 25.3156V25.3134Z" fill="white"/>
<path d="M34.0788 49.8304C33.979 49.7392 33.8597 49.6372 33.7468 49.5244C31.008 46.7877 28.2779 44.0446 25.526 41.3231C25.1614 40.9629 25.1766 40.7632 25.5347 40.4247C26.4201 39.5891 27.2861 38.7297 28.1194 37.8443C28.4775 37.4645 28.6772 37.5187 29.0179 37.8681C30.5132 39.3982 32.0605 40.8761 33.5385 42.4191C34.0181 42.9204 34.285 42.8727 34.7429 42.4126C38.6515 38.4758 42.5904 34.5672 46.4947 30.6261C46.9265 30.1899 47.1674 30.1769 47.5776 30.6261C48.3654 31.4812 49.1901 32.3059 50.043 33.098C50.4575 33.4821 50.3794 33.6905 50.0126 34.0551C44.8518 39.192 39.7062 44.3463 34.5563 49.4918C34.4283 49.6199 34.3328 49.8043 34.0767 49.8326L34.0788 49.8304Z" fill="white"/>
</g>
<defs>
<clipPath id="clip0_1_177">
<rect width="73.1667" height="83" fill="white"/>
</clipPath>
</defs>
</svg>
