<svg width="33" height="20" viewBox="0 0 33 20" fill="none" xmlns="http://www.w3.org/2000/svg">
<mask id="path-1-outside-1_1_221" maskUnits="userSpaceOnUse" x="-0.700012" y="-0.699951" width="34" height="20" fill="black">
<rect fill="white" x="-0.700012" y="-0.699951" width="34" height="20"/>
<path d="M32.3013 13.5431C32.0083 14.282 31.3487 14.7053 30.8243 15.2422C30.6298 15.4417 30.5505 15.6162 30.6131 15.8918C30.7108 16.3167 30.7676 16.7518 30.8444 17.1809C30.9512 17.7796 30.8402 18.3081 30.3242 18.6821C29.8132 19.052 29.278 19.0211 28.7386 18.7256C28.3279 18.501 27.9045 18.2997 27.5004 18.0651C27.3025 17.9507 27.1481 17.9649 26.956 18.0735C26.5311 18.3139 26.0927 18.531 25.6594 18.7581C25.1451 19.0278 24.6349 19.0295 24.1565 18.6888C23.6889 18.3548 23.5203 17.8814 23.6096 17.3187C23.6822 16.8561 23.7565 16.3944 23.8476 15.9352C23.8893 15.7239 23.8367 15.6179 23.6472 15.4885C23.1921 15.1787 22.7888 15.1578 22.3213 15.4751C21.9456 15.7306 21.5197 15.9151 21.1073 16.1139C20.0152 16.639 18.8872 15.8734 18.9473 14.6627C18.9515 14.5792 18.8763 14.4515 18.802 14.4114C18.0247 13.9906 17.2423 13.579 16.455 13.1774C16.3715 13.1348 16.2287 13.1356 16.1452 13.1774C15.3579 13.5798 14.5755 13.9914 13.7999 14.4147C13.7222 14.4573 13.6537 14.6034 13.6596 14.697C13.7272 15.8367 12.5884 16.629 11.5497 16.1406C10.9761 15.8709 10.4175 15.5678 9.8606 15.2647C9.69444 15.1737 9.56837 15.1787 9.40305 15.2672C8.70587 15.6396 8.70587 15.6338 8.84113 16.3961C8.90292 16.7442 8.96888 17.0932 9.00395 17.4439C9.10915 18.5043 8.05545 19.2666 7.08525 18.8232C6.58428 18.5945 6.10169 18.3256 5.61993 18.0584C5.44542 17.9616 5.30682 17.9524 5.13148 18.0509C4.70566 18.2897 4.26648 18.506 3.83649 18.7381C3.30463 19.0253 2.77778 19.042 2.27849 18.6821C1.77418 18.3181 1.65228 17.8004 1.75164 17.2118C1.83513 16.7192 1.92948 16.2291 1.99377 15.734C2.0088 15.6154 1.95954 15.4492 1.87771 15.3632C1.52704 14.9934 1.15382 14.6444 0.78895 14.2878C0.355615 13.8662 0.180277 13.3652 0.385673 12.7833C0.589399 12.2055 1.03192 11.9183 1.63391 11.849C2.09897 11.7947 2.5607 11.7137 3.02493 11.6536C3.22531 11.6277 3.36391 11.5576 3.4424 11.3497C3.53341 11.1075 3.6837 10.888 3.77888 10.6467C3.89076 10.3619 3.99596 10.0689 4.05775 9.7708C4.17882 9.18634 4.64722 8.70291 5.2584 8.60522C5.86456 8.50837 6.4724 8.42237 7.08108 8.34806C7.29983 8.32134 7.42925 8.23451 7.52359 8.02911C7.74485 7.54735 7.97613 7.06893 8.23747 6.60804C8.38275 6.35171 8.599 6.1363 8.77768 5.89834C8.83779 5.81818 8.89457 5.73135 8.92964 5.63867C9.19264 4.94567 9.68359 4.5282 10.4167 4.41548C11.2909 4.28105 12.1659 4.15581 13.0426 4.03976C13.2605 4.01053 13.3891 3.9262 13.4851 3.72164C13.8491 2.95099 14.2365 2.19119 14.6097 1.42388C14.9546 0.716685 15.504 0.300049 16.3013 0.300049C17.0987 0.300049 17.6489 0.71418 17.9929 1.42388C18.3653 2.19119 18.7527 2.95099 19.1176 3.72164C19.2136 3.92537 19.3405 4.0122 19.5601 4.04059C20.4368 4.15581 21.3118 4.28356 22.186 4.41631C22.9208 4.5282 23.4109 4.94734 23.6714 5.6395C23.6931 5.69795 23.6939 5.78061 23.7348 5.81234C24.4512 6.36507 24.6382 7.24009 25.0465 7.97734C25.1868 8.23033 25.3454 8.32885 25.6151 8.35975C26.1937 8.42571 26.7698 8.51171 27.3451 8.60606C28.0323 8.71877 28.4748 9.26065 28.5683 9.95783C28.6092 10.2634 28.7846 10.5565 28.9223 10.8429C29.3031 11.6352 29.3081 11.6302 30.1681 11.7312C30.4878 11.7688 30.8076 11.8139 31.1257 11.8682C31.762 11.9776 32.1152 12.3925 32.303 12.9803V13.5431H32.3013ZM19.7897 13.6516C20.2815 13.609 20.6122 13.1916 20.5278 12.6939C20.3583 11.6995 20.1922 10.7043 20.0093 9.71235C19.9484 9.38255 20.0243 9.13708 20.2715 8.90329C20.9971 8.21614 21.7034 7.50811 22.4215 6.81343C22.6611 6.58132 22.7563 6.30579 22.6594 5.99102C22.5617 5.6729 22.3221 5.51009 21.9906 5.46333C21.033 5.32807 20.0778 5.16776 19.1184 5.05087C18.7127 5.00161 18.4647 4.83629 18.291 4.4589C17.8969 3.59891 17.4594 2.75895 17.0469 1.90815C16.89 1.58419 16.6737 1.35291 16.2888 1.35792C15.9198 1.36293 15.7102 1.5892 15.5582 1.90147C15.1449 2.75227 14.7091 3.59306 14.3142 4.45222C14.1422 4.82794 13.8975 5.00077 13.4909 5.05004C12.5516 5.16359 11.6173 5.32056 10.6797 5.44914C10.3315 5.49673 10.0543 5.63533 9.94493 5.98434C9.83305 6.34253 9.97916 6.62307 10.2422 6.87522C10.9569 7.55904 11.6541 8.26122 12.3696 8.94337C12.5909 9.15461 12.6501 9.38589 12.5992 9.67478C12.4272 10.6475 12.2727 11.6235 12.0916 12.5946C12.0264 12.9453 12.0732 13.2417 12.3604 13.4621C12.6635 13.6942 12.9783 13.6366 13.2964 13.4671C14.1589 13.007 15.0289 12.562 15.888 12.0953C16.1736 11.94 16.4232 11.9375 16.7096 12.0928C17.5688 12.5595 18.4355 13.0104 19.303 13.4604C19.4566 13.5397 19.6261 13.5873 19.7881 13.6499L19.7897 13.6516ZM23.4585 7.16578C22.7129 7.93643 22.0257 8.66283 21.3168 9.36585C21.1281 9.55288 21.0897 9.72488 21.1357 9.97035C21.2834 10.7577 21.4212 11.5467 21.5464 12.3382C21.7402 13.5556 21.3335 14.2261 20.183 14.6527C20.1095 14.6803 20.026 14.8364 20.0394 14.9165C20.0861 15.1946 20.38 15.2906 20.6856 15.1345C21.316 14.8139 21.9464 14.4924 22.5676 14.1551C22.8423 14.0056 23.0861 14.0006 23.3616 14.1501C23.9745 14.4824 24.5982 14.7938 25.2144 15.1178C25.4005 15.2163 25.6126 15.2964 25.7562 15.1169C25.8556 14.9925 25.909 14.7779 25.8865 14.6176C25.7905 13.928 25.6686 13.2408 25.535 12.557C25.4774 12.2648 25.565 12.0552 25.7713 11.8615C26.2647 11.3981 26.749 10.9247 27.2391 10.458C27.3936 10.311 27.5539 10.1682 27.477 9.92443C27.4011 9.68229 27.1873 9.64806 26.9778 9.61884C26.329 9.527 25.6803 9.42764 25.029 9.35333C24.675 9.31242 24.4395 9.16797 24.2876 8.83065C24.0454 8.29212 23.7632 7.77195 23.4576 7.16494L23.4585 7.16578ZM9.14756 7.16077C8.8403 7.77278 8.5631 8.28377 8.32514 8.81229C8.17068 9.15712 7.93439 9.31576 7.56618 9.35667C6.91576 9.42847 6.26784 9.53034 5.61993 9.62218C5.41119 9.6514 5.19828 9.68731 5.12481 9.93111C5.05634 10.1599 5.19828 10.2993 5.34607 10.4404C5.84369 10.9138 6.33464 11.3939 6.83393 11.8648C7.04016 12.0594 7.12366 12.2715 7.06772 12.5612C6.93496 13.2442 6.81306 13.9305 6.71704 14.6201C6.6945 14.7813 6.74543 14.9959 6.84479 15.1194C6.9884 15.299 7.19964 15.218 7.38583 15.1194C7.98281 14.8047 8.58898 14.5058 9.18012 14.1793C9.49406 14.0056 9.77042 13.9973 10.0877 14.1768C10.6488 14.4932 11.2266 14.7788 11.7985 15.0752C11.8812 15.1186 11.9647 15.1637 12.0523 15.1929C12.2786 15.2672 12.5015 15.1462 12.5708 14.9274C12.6577 14.6535 12.4506 14.6519 12.2844 14.6018C11.3969 14.3338 10.8642 13.4579 11.0228 12.5361C11.1748 11.6553 11.3226 10.7736 11.4804 9.89437C11.5171 9.69148 11.467 9.55204 11.3184 9.40092C10.6012 8.67702 9.89901 7.93894 9.14672 7.1591L9.14756 7.16077ZM24.8695 16.2583C24.8127 16.5881 24.7284 16.9947 24.6817 17.4055C24.6666 17.5408 24.7067 17.7503 24.7985 17.8113C24.8937 17.8747 25.1 17.8388 25.2244 17.7779C25.7754 17.5082 26.319 17.2227 26.855 16.9246C27.1205 16.7768 27.3568 16.781 27.619 16.9246C28.1383 17.2101 28.6618 17.4907 29.1945 17.7495C29.3373 17.8188 29.5953 17.8789 29.6679 17.808C29.7715 17.7069 29.7982 17.474 29.7765 17.3087C29.6963 16.7108 29.5886 16.1172 29.4792 15.5236C29.4291 15.2497 29.5085 15.0418 29.708 14.8523C30.1681 14.4147 30.6239 13.9714 31.0656 13.5155C31.1525 13.4253 31.2309 13.245 31.1975 13.1431C31.1642 13.0413 30.9955 12.9402 30.8719 12.9185C30.2774 12.8158 29.6796 12.7298 29.081 12.6589C28.7395 12.618 28.5007 12.4802 28.3646 12.1504C28.2444 11.8582 28.0866 11.581 27.9321 11.2729C27.5013 11.6845 27.0988 12.061 26.7106 12.451C26.6538 12.5077 26.6388 12.638 26.653 12.7273C26.7506 13.3335 26.8634 13.9363 26.9661 14.5417C27.1055 15.3607 26.6087 16.1038 25.7905 16.2508C25.5041 16.3026 25.201 16.2591 24.8687 16.2591L24.8695 16.2583ZM7.72315 16.169C7.65301 16.1815 7.62212 16.1832 7.5929 16.1923C6.39893 16.538 5.44292 15.6847 5.6575 14.4665C5.75853 13.8929 5.85872 13.3193 5.94973 12.744C5.96392 12.6539 5.95808 12.5203 5.90297 12.4643C5.50971 12.0677 5.10226 11.6862 4.67143 11.2737C4.52114 11.5751 4.36918 11.8348 4.26064 12.112C4.12204 12.4643 3.88074 12.6255 3.50919 12.6664C2.93058 12.7307 2.35363 12.8167 1.78086 12.921C1.63892 12.9469 1.45273 13.0496 1.40514 13.1657C1.36673 13.2584 1.47861 13.4537 1.57547 13.5539C2.01047 14.0023 2.4605 14.4356 2.91137 14.8681C3.10091 15.0493 3.17605 15.2505 3.12846 15.5127C3.01741 16.1164 2.9097 16.7209 2.82621 17.3279C2.8045 17.4848 2.82621 17.7236 2.92473 17.7988C3.01908 17.8714 3.25871 17.8238 3.39981 17.7554C3.93334 17.4982 4.45852 17.2218 4.97535 16.9313C5.25088 16.7768 5.49385 16.781 5.76688 16.9313C6.31293 17.2327 6.86483 17.5241 7.42507 17.7988C7.53695 17.8539 7.72398 17.8614 7.8225 17.8021C7.90266 17.7537 7.94357 17.5667 7.92938 17.4506C7.87845 17.029 7.79662 16.6106 7.72315 16.169Z"/>
</mask>
<path d="M32.3013 13.5431C32.0083 14.282 31.3487 14.7053 30.8243 15.2422C30.6298 15.4417 30.5505 15.6162 30.6131 15.8918C30.7108 16.3167 30.7676 16.7518 30.8444 17.1809C30.9512 17.7796 30.8402 18.3081 30.3242 18.6821C29.8132 19.052 29.278 19.0211 28.7386 18.7256C28.3279 18.501 27.9045 18.2997 27.5004 18.0651C27.3025 17.9507 27.1481 17.9649 26.956 18.0735C26.5311 18.3139 26.0927 18.531 25.6594 18.7581C25.1451 19.0278 24.6349 19.0295 24.1565 18.6888C23.6889 18.3548 23.5203 17.8814 23.6096 17.3187C23.6822 16.8561 23.7565 16.3944 23.8476 15.9352C23.8893 15.7239 23.8367 15.6179 23.6472 15.4885C23.1921 15.1787 22.7888 15.1578 22.3213 15.4751C21.9456 15.7306 21.5197 15.9151 21.1073 16.1139C20.0152 16.639 18.8872 15.8734 18.9473 14.6627C18.9515 14.5792 18.8763 14.4515 18.802 14.4114C18.0247 13.9906 17.2423 13.579 16.455 13.1774C16.3715 13.1348 16.2287 13.1356 16.1452 13.1774C15.3579 13.5798 14.5755 13.9914 13.7999 14.4147C13.7222 14.4573 13.6537 14.6034 13.6596 14.697C13.7272 15.8367 12.5884 16.629 11.5497 16.1406C10.9761 15.8709 10.4175 15.5678 9.8606 15.2647C9.69444 15.1737 9.56837 15.1787 9.40305 15.2672C8.70587 15.6396 8.70587 15.6338 8.84113 16.3961C8.90292 16.7442 8.96888 17.0932 9.00395 17.4439C9.10915 18.5043 8.05545 19.2666 7.08525 18.8232C6.58428 18.5945 6.10169 18.3256 5.61993 18.0584C5.44542 17.9616 5.30682 17.9524 5.13148 18.0509C4.70566 18.2897 4.26648 18.506 3.83649 18.7381C3.30463 19.0253 2.77778 19.042 2.27849 18.6821C1.77418 18.3181 1.65228 17.8004 1.75164 17.2118C1.83513 16.7192 1.92948 16.2291 1.99377 15.734C2.0088 15.6154 1.95954 15.4492 1.87771 15.3632C1.52704 14.9934 1.15382 14.6444 0.78895 14.2878C0.355615 13.8662 0.180277 13.3652 0.385673 12.7833C0.589399 12.2055 1.03192 11.9183 1.63391 11.849C2.09897 11.7947 2.5607 11.7137 3.02493 11.6536C3.22531 11.6277 3.36391 11.5576 3.4424 11.3497C3.53341 11.1075 3.6837 10.888 3.77888 10.6467C3.89076 10.3619 3.99596 10.0689 4.05775 9.7708C4.17882 9.18634 4.64722 8.70291 5.2584 8.60522C5.86456 8.50837 6.4724 8.42237 7.08108 8.34806C7.29983 8.32134 7.42925 8.23451 7.52359 8.02911C7.74485 7.54735 7.97613 7.06893 8.23747 6.60804C8.38275 6.35171 8.599 6.1363 8.77768 5.89834C8.83779 5.81818 8.89457 5.73135 8.92964 5.63867C9.19264 4.94567 9.68359 4.5282 10.4167 4.41548C11.2909 4.28105 12.1659 4.15581 13.0426 4.03976C13.2605 4.01053 13.3891 3.9262 13.4851 3.72164C13.8491 2.95099 14.2365 2.19119 14.6097 1.42388C14.9546 0.716685 15.504 0.300049 16.3013 0.300049C17.0987 0.300049 17.6489 0.71418 17.9929 1.42388C18.3653 2.19119 18.7527 2.95099 19.1176 3.72164C19.2136 3.92537 19.3405 4.0122 19.5601 4.04059C20.4368 4.15581 21.3118 4.28356 22.186 4.41631C22.9208 4.5282 23.4109 4.94734 23.6714 5.6395C23.6931 5.69795 23.6939 5.78061 23.7348 5.81234C24.4512 6.36507 24.6382 7.24009 25.0465 7.97734C25.1868 8.23033 25.3454 8.32885 25.6151 8.35975C26.1937 8.42571 26.7698 8.51171 27.3451 8.60606C28.0323 8.71877 28.4748 9.26065 28.5683 9.95783C28.6092 10.2634 28.7846 10.5565 28.9223 10.8429C29.3031 11.6352 29.3081 11.6302 30.1681 11.7312C30.4878 11.7688 30.8076 11.8139 31.1257 11.8682C31.762 11.9776 32.1152 12.3925 32.303 12.9803V13.5431H32.3013ZM19.7897 13.6516C20.2815 13.609 20.6122 13.1916 20.5278 12.6939C20.3583 11.6995 20.1922 10.7043 20.0093 9.71235C19.9484 9.38255 20.0243 9.13708 20.2715 8.90329C20.9971 8.21614 21.7034 7.50811 22.4215 6.81343C22.6611 6.58132 22.7563 6.30579 22.6594 5.99102C22.5617 5.6729 22.3221 5.51009 21.9906 5.46333C21.033 5.32807 20.0778 5.16776 19.1184 5.05087C18.7127 5.00161 18.4647 4.83629 18.291 4.4589C17.8969 3.59891 17.4594 2.75895 17.0469 1.90815C16.89 1.58419 16.6737 1.35291 16.2888 1.35792C15.9198 1.36293 15.7102 1.5892 15.5582 1.90147C15.1449 2.75227 14.7091 3.59306 14.3142 4.45222C14.1422 4.82794 13.8975 5.00077 13.4909 5.05004C12.5516 5.16359 11.6173 5.32056 10.6797 5.44914C10.3315 5.49673 10.0543 5.63533 9.94493 5.98434C9.83305 6.34253 9.97916 6.62307 10.2422 6.87522C10.9569 7.55904 11.6541 8.26122 12.3696 8.94337C12.5909 9.15461 12.6501 9.38589 12.5992 9.67478C12.4272 10.6475 12.2727 11.6235 12.0916 12.5946C12.0264 12.9453 12.0732 13.2417 12.3604 13.4621C12.6635 13.6942 12.9783 13.6366 13.2964 13.4671C14.1589 13.007 15.0289 12.562 15.888 12.0953C16.1736 11.94 16.4232 11.9375 16.7096 12.0928C17.5688 12.5595 18.4355 13.0104 19.303 13.4604C19.4566 13.5397 19.6261 13.5873 19.7881 13.6499L19.7897 13.6516ZM23.4585 7.16578C22.7129 7.93643 22.0257 8.66283 21.3168 9.36585C21.1281 9.55288 21.0897 9.72488 21.1357 9.97035C21.2834 10.7577 21.4212 11.5467 21.5464 12.3382C21.7402 13.5556 21.3335 14.2261 20.183 14.6527C20.1095 14.6803 20.026 14.8364 20.0394 14.9165C20.0861 15.1946 20.38 15.2906 20.6856 15.1345C21.316 14.8139 21.9464 14.4924 22.5676 14.1551C22.8423 14.0056 23.0861 14.0006 23.3616 14.1501C23.9745 14.4824 24.5982 14.7938 25.2144 15.1178C25.4005 15.2163 25.6126 15.2964 25.7562 15.1169C25.8556 14.9925 25.909 14.7779 25.8865 14.6176C25.7905 13.928 25.6686 13.2408 25.535 12.557C25.4774 12.2648 25.565 12.0552 25.7713 11.8615C26.2647 11.3981 26.749 10.9247 27.2391 10.458C27.3936 10.311 27.5539 10.1682 27.477 9.92443C27.4011 9.68229 27.1873 9.64806 26.9778 9.61884C26.329 9.527 25.6803 9.42764 25.029 9.35333C24.675 9.31242 24.4395 9.16797 24.2876 8.83065C24.0454 8.29212 23.7632 7.77195 23.4576 7.16494L23.4585 7.16578ZM9.14756 7.16077C8.8403 7.77278 8.5631 8.28377 8.32514 8.81229C8.17068 9.15712 7.93439 9.31576 7.56618 9.35667C6.91576 9.42847 6.26784 9.53034 5.61993 9.62218C5.41119 9.6514 5.19828 9.68731 5.12481 9.93111C5.05634 10.1599 5.19828 10.2993 5.34607 10.4404C5.84369 10.9138 6.33464 11.3939 6.83393 11.8648C7.04016 12.0594 7.12366 12.2715 7.06772 12.5612C6.93496 13.2442 6.81306 13.9305 6.71704 14.6201C6.6945 14.7813 6.74543 14.9959 6.84479 15.1194C6.9884 15.299 7.19964 15.218 7.38583 15.1194C7.98281 14.8047 8.58898 14.5058 9.18012 14.1793C9.49406 14.0056 9.77042 13.9973 10.0877 14.1768C10.6488 14.4932 11.2266 14.7788 11.7985 15.0752C11.8812 15.1186 11.9647 15.1637 12.0523 15.1929C12.2786 15.2672 12.5015 15.1462 12.5708 14.9274C12.6577 14.6535 12.4506 14.6519 12.2844 14.6018C11.3969 14.3338 10.8642 13.4579 11.0228 12.5361C11.1748 11.6553 11.3226 10.7736 11.4804 9.89437C11.5171 9.69148 11.467 9.55204 11.3184 9.40092C10.6012 8.67702 9.89901 7.93894 9.14672 7.1591L9.14756 7.16077ZM24.8695 16.2583C24.8127 16.5881 24.7284 16.9947 24.6817 17.4055C24.6666 17.5408 24.7067 17.7503 24.7985 17.8113C24.8937 17.8747 25.1 17.8388 25.2244 17.7779C25.7754 17.5082 26.319 17.2227 26.855 16.9246C27.1205 16.7768 27.3568 16.781 27.619 16.9246C28.1383 17.2101 28.6618 17.4907 29.1945 17.7495C29.3373 17.8188 29.5953 17.8789 29.6679 17.808C29.7715 17.7069 29.7982 17.474 29.7765 17.3087C29.6963 16.7108 29.5886 16.1172 29.4792 15.5236C29.4291 15.2497 29.5085 15.0418 29.708 14.8523C30.1681 14.4147 30.6239 13.9714 31.0656 13.5155C31.1525 13.4253 31.2309 13.245 31.1975 13.1431C31.1642 13.0413 30.9955 12.9402 30.8719 12.9185C30.2774 12.8158 29.6796 12.7298 29.081 12.6589C28.7395 12.618 28.5007 12.4802 28.3646 12.1504C28.2444 11.8582 28.0866 11.581 27.9321 11.2729C27.5013 11.6845 27.0988 12.061 26.7106 12.451C26.6538 12.5077 26.6388 12.638 26.653 12.7273C26.7506 13.3335 26.8634 13.9363 26.9661 14.5417C27.1055 15.3607 26.6087 16.1038 25.7905 16.2508C25.5041 16.3026 25.201 16.2591 24.8687 16.2591L24.8695 16.2583ZM7.72315 16.169C7.65301 16.1815 7.62212 16.1832 7.5929 16.1923C6.39893 16.538 5.44292 15.6847 5.6575 14.4665C5.75853 13.8929 5.85872 13.3193 5.94973 12.744C5.96392 12.6539 5.95808 12.5203 5.90297 12.4643C5.50971 12.0677 5.10226 11.6862 4.67143 11.2737C4.52114 11.5751 4.36918 11.8348 4.26064 12.112C4.12204 12.4643 3.88074 12.6255 3.50919 12.6664C2.93058 12.7307 2.35363 12.8167 1.78086 12.921C1.63892 12.9469 1.45273 13.0496 1.40514 13.1657C1.36673 13.2584 1.47861 13.4537 1.57547 13.5539C2.01047 14.0023 2.4605 14.4356 2.91137 14.8681C3.10091 15.0493 3.17605 15.2505 3.12846 15.5127C3.01741 16.1164 2.9097 16.7209 2.82621 17.3279C2.8045 17.4848 2.82621 17.7236 2.92473 17.7988C3.01908 17.8714 3.25871 17.8238 3.39981 17.7554C3.93334 17.4982 4.45852 17.2218 4.97535 16.9313C5.25088 16.7768 5.49385 16.781 5.76688 16.9313C6.31293 17.2327 6.86483 17.5241 7.42507 17.7988C7.53695 17.8539 7.72398 17.8614 7.8225 17.8021C7.90266 17.7537 7.94357 17.5667 7.92938 17.4506C7.87845 17.029 7.79662 16.6106 7.72315 16.169Z" fill="white"/>
<path d="M32.3013 13.5431C32.0083 14.282 31.3487 14.7053 30.8243 15.2422C30.6298 15.4417 30.5505 15.6162 30.6131 15.8918C30.7108 16.3167 30.7676 16.7518 30.8444 17.1809C30.9512 17.7796 30.8402 18.3081 30.3242 18.6821C29.8132 19.052 29.278 19.0211 28.7386 18.7256C28.3279 18.501 27.9045 18.2997 27.5004 18.0651C27.3025 17.9507 27.1481 17.9649 26.956 18.0735C26.5311 18.3139 26.0927 18.531 25.6594 18.7581C25.1451 19.0278 24.6349 19.0295 24.1565 18.6888C23.6889 18.3548 23.5203 17.8814 23.6096 17.3187C23.6822 16.8561 23.7565 16.3944 23.8476 15.9352C23.8893 15.7239 23.8367 15.6179 23.6472 15.4885C23.1921 15.1787 22.7888 15.1578 22.3213 15.4751C21.9456 15.7306 21.5197 15.9151 21.1073 16.1139C20.0152 16.639 18.8872 15.8734 18.9473 14.6627C18.9515 14.5792 18.8763 14.4515 18.802 14.4114C18.0247 13.9906 17.2423 13.579 16.455 13.1774C16.3715 13.1348 16.2287 13.1356 16.1452 13.1774C15.3579 13.5798 14.5755 13.9914 13.7999 14.4147C13.7222 14.4573 13.6537 14.6034 13.6596 14.697C13.7272 15.8367 12.5884 16.629 11.5497 16.1406C10.9761 15.8709 10.4175 15.5678 9.8606 15.2647C9.69444 15.1737 9.56837 15.1787 9.40305 15.2672C8.70587 15.6396 8.70587 15.6338 8.84113 16.3961C8.90292 16.7442 8.96888 17.0932 9.00395 17.4439C9.10915 18.5043 8.05545 19.2666 7.08525 18.8232C6.58428 18.5945 6.10169 18.3256 5.61993 18.0584C5.44542 17.9616 5.30682 17.9524 5.13148 18.0509C4.70566 18.2897 4.26648 18.506 3.83649 18.7381C3.30463 19.0253 2.77778 19.042 2.27849 18.6821C1.77418 18.3181 1.65228 17.8004 1.75164 17.2118C1.83513 16.7192 1.92948 16.2291 1.99377 15.734C2.0088 15.6154 1.95954 15.4492 1.87771 15.3632C1.52704 14.9934 1.15382 14.6444 0.78895 14.2878C0.355615 13.8662 0.180277 13.3652 0.385673 12.7833C0.589399 12.2055 1.03192 11.9183 1.63391 11.849C2.09897 11.7947 2.5607 11.7137 3.02493 11.6536C3.22531 11.6277 3.36391 11.5576 3.4424 11.3497C3.53341 11.1075 3.6837 10.888 3.77888 10.6467C3.89076 10.3619 3.99596 10.0689 4.05775 9.7708C4.17882 9.18634 4.64722 8.70291 5.2584 8.60522C5.86456 8.50837 6.4724 8.42237 7.08108 8.34806C7.29983 8.32134 7.42925 8.23451 7.52359 8.02911C7.74485 7.54735 7.97613 7.06893 8.23747 6.60804C8.38275 6.35171 8.599 6.1363 8.77768 5.89834C8.83779 5.81818 8.89457 5.73135 8.92964 5.63867C9.19264 4.94567 9.68359 4.5282 10.4167 4.41548C11.2909 4.28105 12.1659 4.15581 13.0426 4.03976C13.2605 4.01053 13.3891 3.9262 13.4851 3.72164C13.8491 2.95099 14.2365 2.19119 14.6097 1.42388C14.9546 0.716685 15.504 0.300049 16.3013 0.300049C17.0987 0.300049 17.6489 0.71418 17.9929 1.42388C18.3653 2.19119 18.7527 2.95099 19.1176 3.72164C19.2136 3.92537 19.3405 4.0122 19.5601 4.04059C20.4368 4.15581 21.3118 4.28356 22.186 4.41631C22.9208 4.5282 23.4109 4.94734 23.6714 5.6395C23.6931 5.69795 23.6939 5.78061 23.7348 5.81234C24.4512 6.36507 24.6382 7.24009 25.0465 7.97734C25.1868 8.23033 25.3454 8.32885 25.6151 8.35975C26.1937 8.42571 26.7698 8.51171 27.3451 8.60606C28.0323 8.71877 28.4748 9.26065 28.5683 9.95783C28.6092 10.2634 28.7846 10.5565 28.9223 10.8429C29.3031 11.6352 29.3081 11.6302 30.1681 11.7312C30.4878 11.7688 30.8076 11.8139 31.1257 11.8682C31.762 11.9776 32.1152 12.3925 32.303 12.9803V13.5431H32.3013ZM19.7897 13.6516C20.2815 13.609 20.6122 13.1916 20.5278 12.6939C20.3583 11.6995 20.1922 10.7043 20.0093 9.71235C19.9484 9.38255 20.0243 9.13708 20.2715 8.90329C20.9971 8.21614 21.7034 7.50811 22.4215 6.81343C22.6611 6.58132 22.7563 6.30579 22.6594 5.99102C22.5617 5.6729 22.3221 5.51009 21.9906 5.46333C21.033 5.32807 20.0778 5.16776 19.1184 5.05087C18.7127 5.00161 18.4647 4.83629 18.291 4.4589C17.8969 3.59891 17.4594 2.75895 17.0469 1.90815C16.89 1.58419 16.6737 1.35291 16.2888 1.35792C15.9198 1.36293 15.7102 1.5892 15.5582 1.90147C15.1449 2.75227 14.7091 3.59306 14.3142 4.45222C14.1422 4.82794 13.8975 5.00077 13.4909 5.05004C12.5516 5.16359 11.6173 5.32056 10.6797 5.44914C10.3315 5.49673 10.0543 5.63533 9.94493 5.98434C9.83305 6.34253 9.97916 6.62307 10.2422 6.87522C10.9569 7.55904 11.6541 8.26122 12.3696 8.94337C12.5909 9.15461 12.6501 9.38589 12.5992 9.67478C12.4272 10.6475 12.2727 11.6235 12.0916 12.5946C12.0264 12.9453 12.0732 13.2417 12.3604 13.4621C12.6635 13.6942 12.9783 13.6366 13.2964 13.4671C14.1589 13.007 15.0289 12.562 15.888 12.0953C16.1736 11.94 16.4232 11.9375 16.7096 12.0928C17.5688 12.5595 18.4355 13.0104 19.303 13.4604C19.4566 13.5397 19.6261 13.5873 19.7881 13.6499L19.7897 13.6516ZM23.4585 7.16578C22.7129 7.93643 22.0257 8.66283 21.3168 9.36585C21.1281 9.55288 21.0897 9.72488 21.1357 9.97035C21.2834 10.7577 21.4212 11.5467 21.5464 12.3382C21.7402 13.5556 21.3335 14.2261 20.183 14.6527C20.1095 14.6803 20.026 14.8364 20.0394 14.9165C20.0861 15.1946 20.38 15.2906 20.6856 15.1345C21.316 14.8139 21.9464 14.4924 22.5676 14.1551C22.8423 14.0056 23.0861 14.0006 23.3616 14.1501C23.9745 14.4824 24.5982 14.7938 25.2144 15.1178C25.4005 15.2163 25.6126 15.2964 25.7562 15.1169C25.8556 14.9925 25.909 14.7779 25.8865 14.6176C25.7905 13.928 25.6686 13.2408 25.535 12.557C25.4774 12.2648 25.565 12.0552 25.7713 11.8615C26.2647 11.3981 26.749 10.9247 27.2391 10.458C27.3936 10.311 27.5539 10.1682 27.477 9.92443C27.4011 9.68229 27.1873 9.64806 26.9778 9.61884C26.329 9.527 25.6803 9.42764 25.029 9.35333C24.675 9.31242 24.4395 9.16797 24.2876 8.83065C24.0454 8.29212 23.7632 7.77195 23.4576 7.16494L23.4585 7.16578ZM9.14756 7.16077C8.8403 7.77278 8.5631 8.28377 8.32514 8.81229C8.17068 9.15712 7.93439 9.31576 7.56618 9.35667C6.91576 9.42847 6.26784 9.53034 5.61993 9.62218C5.41119 9.6514 5.19828 9.68731 5.12481 9.93111C5.05634 10.1599 5.19828 10.2993 5.34607 10.4404C5.84369 10.9138 6.33464 11.3939 6.83393 11.8648C7.04016 12.0594 7.12366 12.2715 7.06772 12.5612C6.93496 13.2442 6.81306 13.9305 6.71704 14.6201C6.6945 14.7813 6.74543 14.9959 6.84479 15.1194C6.9884 15.299 7.19964 15.218 7.38583 15.1194C7.98281 14.8047 8.58898 14.5058 9.18012 14.1793C9.49406 14.0056 9.77042 13.9973 10.0877 14.1768C10.6488 14.4932 11.2266 14.7788 11.7985 15.0752C11.8812 15.1186 11.9647 15.1637 12.0523 15.1929C12.2786 15.2672 12.5015 15.1462 12.5708 14.9274C12.6577 14.6535 12.4506 14.6519 12.2844 14.6018C11.3969 14.3338 10.8642 13.4579 11.0228 12.5361C11.1748 11.6553 11.3226 10.7736 11.4804 9.89437C11.5171 9.69148 11.467 9.55204 11.3184 9.40092C10.6012 8.67702 9.89901 7.93894 9.14672 7.1591L9.14756 7.16077ZM24.8695 16.2583C24.8127 16.5881 24.7284 16.9947 24.6817 17.4055C24.6666 17.5408 24.7067 17.7503 24.7985 17.8113C24.8937 17.8747 25.1 17.8388 25.2244 17.7779C25.7754 17.5082 26.319 17.2227 26.855 16.9246C27.1205 16.7768 27.3568 16.781 27.619 16.9246C28.1383 17.2101 28.6618 17.4907 29.1945 17.7495C29.3373 17.8188 29.5953 17.8789 29.6679 17.808C29.7715 17.7069 29.7982 17.474 29.7765 17.3087C29.6963 16.7108 29.5886 16.1172 29.4792 15.5236C29.4291 15.2497 29.5085 15.0418 29.708 14.8523C30.1681 14.4147 30.6239 13.9714 31.0656 13.5155C31.1525 13.4253 31.2309 13.245 31.1975 13.1431C31.1642 13.0413 30.9955 12.9402 30.8719 12.9185C30.2774 12.8158 29.6796 12.7298 29.081 12.6589C28.7395 12.618 28.5007 12.4802 28.3646 12.1504C28.2444 11.8582 28.0866 11.581 27.9321 11.2729C27.5013 11.6845 27.0988 12.061 26.7106 12.451C26.6538 12.5077 26.6388 12.638 26.653 12.7273C26.7506 13.3335 26.8634 13.9363 26.9661 14.5417C27.1055 15.3607 26.6087 16.1038 25.7905 16.2508C25.5041 16.3026 25.201 16.2591 24.8687 16.2591L24.8695 16.2583ZM7.72315 16.169C7.65301 16.1815 7.62212 16.1832 7.5929 16.1923C6.39893 16.538 5.44292 15.6847 5.6575 14.4665C5.75853 13.8929 5.85872 13.3193 5.94973 12.744C5.96392 12.6539 5.95808 12.5203 5.90297 12.4643C5.50971 12.0677 5.10226 11.6862 4.67143 11.2737C4.52114 11.5751 4.36918 11.8348 4.26064 12.112C4.12204 12.4643 3.88074 12.6255 3.50919 12.6664C2.93058 12.7307 2.35363 12.8167 1.78086 12.921C1.63892 12.9469 1.45273 13.0496 1.40514 13.1657C1.36673 13.2584 1.47861 13.4537 1.57547 13.5539C2.01047 14.0023 2.4605 14.4356 2.91137 14.8681C3.10091 15.0493 3.17605 15.2505 3.12846 15.5127C3.01741 16.1164 2.9097 16.7209 2.82621 17.3279C2.8045 17.4848 2.82621 17.7236 2.92473 17.7988C3.01908 17.8714 3.25871 17.8238 3.39981 17.7554C3.93334 17.4982 4.45852 17.2218 4.97535 16.9313C5.25088 16.7768 5.49385 16.781 5.76688 16.9313C6.31293 17.2327 6.86483 17.5241 7.42507 17.7988C7.53695 17.8539 7.72398 17.8614 7.8225 17.8021C7.90266 17.7537 7.94357 17.5667 7.92938 17.4506C7.87845 17.029 7.79662 16.6106 7.72315 16.169Z" stroke="white" stroke-width="0.6" mask="url(#path-1-outside-1_1_221)"/>
</svg>
