<svg width="1159" height="349" viewBox="0 0 1159 349" fill="none" xmlns="http://www.w3.org/2000/svg">
<mask id="path-1-inside-1_1_79" fill="white">
<path fill-rule="evenodd" clip-rule="evenodd" d="M1457.39 259.372C1469.36 220.104 1500.76 178.955 1558.46 141.617C1551.22 117.979 1506.79 40.6499 1487.83 19.4724C1471.04 23.621 1450.49 35.9706 1434.86 41.2771C1379.34 60.139 1323.28 61.0074 1274.42 11.5609C1206.54 -57.0853 1240.94 -130.652 1270.03 -199.202C1240.65 -221.923 1178.8 -261.094 1147.54 -268.813C1114.74 -231.282 1099.79 -198.767 1051.59 -175.757C986.565 -144.69 901.276 -172.38 868.955 -251.398C849.803 -298.239 855.978 -321.009 848.115 -350.966C813.093 -354.536 743.385 -355.646 710.196 -349.857C701.705 -330.85 710.437 -303.401 687.281 -248.696C670.88 -209.815 641.405 -182.366 603.295 -170.692C517.427 -144.352 475.795 -188.589 410.237 -268.909C385.296 -262.783 306.568 -219.656 287.706 -197.513C324.32 -126.552 344.871 -49.6565 280.373 14.0691C262.862 31.3874 245.881 42.4827 225.476 47.9339C206.758 52.9509 191.225 54.784 174.051 52.0825C99.2305 40.553 107.287 29.9884 69.8521 19.3755C46.4555 44.8947 6.99482 111.756 2.40705e-06 141.231C58.4192 189.616 117.273 242.873 111.484 305.49C153.646 315.138 198.992 329.61 247.57 348.954C261.222 303.174 281.049 257.683 308.063 215.521C475.024 -44.8324 814.347 -122.885 1070.21 37.5624C1112.81 66.4585 1150 96.9946 1181.99 128.978C1318.56 155.076 1410.26 198.541 1457.2 259.276"/>
</mask>
<path d="M1558.46 141.617L1559.54 143.296L1560.81 142.476L1560.37 141.032L1558.46 141.617ZM1487.83 19.4724L1489.32 18.1384L1488.52 17.2422L1487.35 17.5308L1487.83 19.4724ZM1434.86 41.2771L1434.22 39.3832L1434.22 39.3833L1434.86 41.2771ZM1274.42 11.5609L1275.84 10.155L1275.84 10.1547L1274.42 11.5609ZM1270.03 -199.202L1271.87 -198.42L1272.47 -199.84L1271.25 -200.784L1270.03 -199.202ZM1147.54 -268.813L1148.02 -270.754L1146.84 -271.046L1146.04 -270.129L1147.54 -268.813ZM1051.59 -175.757L1050.73 -177.562L1050.73 -177.561L1051.59 -175.757ZM868.955 -251.398L867.104 -250.641L867.104 -250.641L868.955 -251.398ZM848.115 -350.966L850.05 -351.474L849.697 -352.815L848.318 -352.956L848.115 -350.966ZM710.196 -349.857L709.852 -351.827L708.804 -351.644L708.37 -350.672L710.196 -349.857ZM687.281 -248.696L685.44 -249.476L685.439 -249.474L687.281 -248.696ZM603.295 -170.692L602.709 -172.604L602.708 -172.604L603.295 -170.692ZM410.237 -268.909L411.786 -270.174L410.987 -271.153L409.759 -270.852L410.237 -268.909ZM287.706 -197.513L286.183 -198.81L285.313 -197.789L285.929 -196.596L287.706 -197.513ZM280.373 14.0691L278.968 12.6464L278.967 12.6471L280.373 14.0691ZM225.476 47.9339L224.96 46.0016L224.958 46.0021L225.476 47.9339ZM174.051 52.0825L174.362 50.1068L174.356 50.1058L174.051 52.0825ZM69.8521 19.3755L70.3976 17.4513L69.2112 17.115L68.3779 18.0239L69.8521 19.3755ZM2.40705e-06 141.231L-1.94594 140.769L-2.23298 141.978L-1.27581 142.771L2.40705e-06 141.231ZM111.484 305.49L109.492 305.305L109.331 307.049L111.037 307.439L111.484 305.49ZM247.57 348.954L246.83 350.812L248.862 351.621L249.487 349.526L247.57 348.954ZM308.063 215.521L306.38 214.442L306.379 214.442L308.063 215.521ZM1070.21 37.5624L1071.34 35.9073L1071.31 35.8871L1071.28 35.868L1070.21 37.5624ZM1181.99 128.978L1180.57 130.392L1181.01 130.827L1181.61 130.943L1181.99 128.978ZM1457.39 259.372L1459.31 259.955C1471.09 221.262 1502.12 180.458 1559.54 143.296L1558.46 141.617L1557.37 139.938C1499.4 177.452 1467.62 218.946 1455.48 258.789L1457.39 259.372ZM1558.46 141.617L1560.37 141.032C1556.67 128.961 1543.64 103.527 1529.27 78.6229C1514.9 53.7013 1498.96 28.9022 1489.32 18.1384L1487.83 19.4724L1486.34 20.8064C1495.66 31.2201 1511.42 55.6744 1525.81 80.6214C1540.21 105.585 1553 130.636 1556.54 142.203L1558.46 141.617ZM1487.83 19.4724L1487.35 17.5308C1478.74 19.6578 1469.25 23.8644 1460.07 28.1267C1450.81 32.429 1441.9 36.7748 1434.22 39.3832L1434.86 41.2771L1435.51 43.1709C1443.45 40.4729 1452.64 35.9907 1461.76 31.7544C1470.96 27.4781 1480.13 23.4356 1488.31 21.414L1487.83 19.4724ZM1434.86 41.2771L1434.22 39.3833C1406.63 48.757 1379.06 53.6032 1352.41 50.0522C1325.8 46.5072 1299.97 34.5765 1275.84 10.155L1274.42 11.5609L1272.99 12.9667C1297.73 37.9917 1324.36 50.3501 1351.88 54.0171C1379.35 57.678 1407.58 52.6591 1435.51 43.1708L1434.86 41.2771ZM1274.42 11.5609L1275.84 10.1547C1242.36 -23.709 1234.16 -58.6543 1237.85 -93.6466C1241.56 -128.825 1257.28 -164.045 1271.87 -198.42L1270.03 -199.202L1268.18 -199.983C1253.68 -165.809 1237.66 -129.97 1233.87 -94.0664C1230.06 -57.9765 1238.6 -21.8154 1272.99 12.9671L1274.42 11.5609ZM1270.03 -199.202L1271.25 -200.784C1256.48 -212.203 1233.61 -227.722 1210.51 -241.356C1187.47 -254.953 1163.97 -266.818 1148.02 -270.754L1147.54 -268.813L1147.06 -266.871C1162.38 -263.089 1185.43 -251.508 1208.47 -237.911C1231.45 -224.348 1254.19 -208.921 1268.8 -197.62L1270.03 -199.202ZM1147.54 -268.813L1146.04 -270.129C1112.89 -232.204 1098.43 -200.335 1050.73 -177.562L1051.59 -175.757L1052.46 -173.952C1101.14 -197.2 1116.59 -230.359 1149.05 -267.496L1147.54 -268.813ZM1051.59 -175.757L1050.73 -177.561C986.739 -146.99 902.691 -174.202 870.806 -252.155L868.955 -251.398L867.104 -250.641C899.861 -170.558 986.391 -142.39 1052.46 -173.952L1051.59 -175.757ZM868.955 -251.398L870.806 -252.155C861.313 -275.374 858.104 -292.596 856.288 -307.752C854.478 -322.845 854.028 -336.318 850.05 -351.474L848.115 -350.966L846.181 -350.458C850.066 -335.657 850.459 -322.767 852.316 -307.276C854.166 -291.847 857.446 -274.263 867.104 -250.641L868.955 -251.398ZM848.115 -350.966L848.318 -352.956C813.221 -356.533 743.304 -357.662 709.852 -351.827L710.196 -349.857L710.539 -347.886C743.466 -353.629 812.964 -352.539 847.912 -348.976L848.115 -350.966ZM710.196 -349.857L708.37 -350.672C706.125 -345.647 705.049 -340.133 704.304 -333.965C703.931 -330.877 703.637 -327.589 703.328 -324.097C703.017 -320.596 702.69 -316.877 702.25 -312.883C700.493 -296.953 696.925 -276.611 685.44 -249.476L687.281 -248.696L689.123 -247.917C700.793 -275.486 704.437 -296.222 706.226 -312.444C706.672 -316.488 707.002 -320.249 707.312 -323.744C707.622 -327.248 707.911 -330.471 708.275 -333.485C709.004 -339.518 710.021 -344.563 712.022 -349.041L710.196 -349.857ZM687.281 -248.696L685.439 -249.474C669.25 -211.098 640.213 -184.092 602.709 -172.604L603.295 -170.692L603.881 -168.779C642.597 -180.639 672.509 -208.531 689.124 -247.919L687.281 -248.696ZM603.295 -170.692L602.708 -172.604C560.25 -159.58 528.977 -164.038 500.188 -181.513C471.198 -199.109 444.612 -229.956 411.786 -270.174L410.237 -268.909L408.687 -267.645C441.42 -227.542 468.429 -196.111 498.112 -178.093C527.995 -159.955 560.472 -155.464 603.881 -168.78L603.295 -170.692ZM410.237 -268.909L409.759 -270.852C403.319 -269.269 393.57 -265.351 382.372 -260.093C371.135 -254.817 358.32 -248.135 345.703 -240.956C333.087 -233.777 320.644 -226.086 310.159 -218.791C299.715 -211.523 291.076 -204.554 286.183 -198.81L287.706 -197.513L289.228 -196.217C293.767 -201.544 302.042 -208.269 312.444 -215.507C322.805 -222.717 335.14 -230.343 347.681 -237.479C360.221 -244.615 372.943 -251.247 384.072 -256.472C395.24 -261.716 404.684 -265.486 410.714 -266.967L410.237 -268.909ZM287.706 -197.513L285.929 -196.596C304.191 -161.203 318.326 -124.546 319.959 -88.9171C321.586 -53.3955 310.794 -18.7992 278.968 12.6464L280.373 14.0691L281.779 15.4918C314.45 -16.7882 325.631 -52.5023 323.955 -89.1002C322.283 -125.591 307.836 -162.862 289.483 -198.431L287.706 -197.513ZM280.373 14.0691L278.967 12.6471C261.622 29.8009 244.934 40.6657 224.96 46.0016L225.476 47.9339L225.992 49.8661C246.829 44.2998 264.102 32.9739 281.78 15.4911L280.373 14.0691ZM225.476 47.9339L224.958 46.0021C206.407 50.9744 191.171 52.7508 174.362 50.1068L174.051 52.0825L173.741 54.0582C191.28 56.8171 207.11 54.9274 225.994 49.8657L225.476 47.9339ZM174.051 52.0825L174.356 50.1058C137.049 44.357 120.549 38.8707 108.753 33.5615C96.9935 28.2689 89.299 22.81 70.3976 17.4513L69.8521 19.3755L69.3065 21.2997C87.8397 26.5539 94.8345 31.6837 107.111 37.2091C119.351 42.7177 136.233 48.2785 173.747 54.0592L174.051 52.0825ZM69.8521 19.3755L68.3779 18.0239C56.5337 30.9426 40.734 54.1842 27.0447 77.8173C13.3764 101.414 1.62536 125.72 -1.94594 140.769L2.40705e-06 141.231L1.94595 141.693C5.36937 127.267 16.8462 103.404 30.506 79.8222C44.1449 56.2762 59.7739 33.3275 71.3263 20.727L69.8521 19.3755ZM2.40705e-06 141.231L-1.27581 142.771C27.9401 166.969 57.1017 192.257 78.2452 219.257C99.3829 246.249 112.32 274.716 109.492 305.305L111.484 305.49L113.475 305.674C116.436 273.647 102.841 244.177 81.3944 216.791C59.9537 189.411 30.4789 163.878 1.27572 139.69L2.40705e-06 141.231ZM111.484 305.49L111.037 307.439C153.082 317.06 198.329 331.498 246.83 350.812L247.57 348.954L248.31 347.096C199.655 327.721 154.21 313.215 111.93 303.54L111.484 305.49ZM247.57 348.954L249.487 349.526C263.091 303.904 282.845 258.588 309.747 216.6L308.063 215.521L306.379 214.442C279.253 256.779 259.353 302.444 245.653 348.383L247.57 348.954ZM308.063 215.521L309.747 216.601C476.132 -42.8554 814.239 -120.592 1069.15 39.2569L1070.21 37.5624L1071.28 35.868C814.454 -125.179 473.915 -46.8094 306.38 214.442L308.063 215.521ZM1070.21 37.5624L1069.09 39.2175C1111.59 68.0499 1148.69 98.5069 1180.57 130.392L1181.99 128.978L1183.4 127.564C1151.32 95.4824 1114.03 64.867 1071.34 35.9073L1070.21 37.5624ZM1181.99 128.978L1181.61 130.943C1318.05 157.015 1409.14 200.359 1455.62 260.499L1457.2 259.276L1458.78 258.053C1411.38 196.722 1319.06 153.137 1182.36 127.014L1181.99 128.978Z" fill="#FEEFD5" mask="url(#path-1-inside-1_1_79)"/>
</svg>
