<svg width="125" height="109" viewBox="0 0 125 109" fill="none" xmlns="http://www.w3.org/2000/svg">
<g clip-path="url(#clip0_396_7705)">
<path fill-rule="evenodd" clip-rule="evenodd" d="M67.1517 9.4231C68.1293 9.22464 68.8643 8.48226 68.879 7.92363C68.9011 7.10774 67.8647 7.43116 67.3943 7.45321C61.22 7.75458 55.7807 1.67584 49.2904 0.565936C30.6131 -2.62411 29.2974 7.93098 40.9551 25.1234C44.0422 29.6733 44.4832 34.4731 45.1374 39.192C45.2844 40.2578 48.7685 40.346 47.8497 39.3096C44.814 35.8697 47.7321 29.7101 44.7993 24.2708C41.6534 18.4346 37.5445 15.6709 45.7034 17.6114C59.5955 20.8676 50.878 42.7643 86.6154 41.0002C88.1443 40.8238 89.6732 40.6474 91.202 40.471C92.0473 40.2872 91.18 38.1336 89.4968 38.1262C86.4905 39.5007 75.3179 40.4195 74.0831 36.3621C73.6568 34.9729 76.2808 32.3856 79.3753 29.8497C81.6172 29.8203 84.7705 30.2172 85.4688 27.3138C83.5283 25.9173 83.0432 21.1322 79.7134 21.3821C80.544 19.2579 79.684 18.4493 80.081 16.8176C78.4124 18.3685 70.1433 31.2904 67.8206 28.093C65.7257 24.6457 63.6309 21.1984 61.5287 17.751C56.6995 7.2621 49.3565 5.74058 44.3583 5.24811C40.1171 4.82914 40.4038 3.89564 42.1605 3.21206C44.3803 2.34472 46.6148 2.32267 48.8273 2.65343C55.3103 3.62368 60.779 10.6506 67.1517 9.4231Z" fill="white"/>
<path d="M47.2113 93.9594V93.5625C48.6519 93.5625 49.5854 93.3199 50.0118 92.8274C50.4381 92.335 50.6659 91.497 50.6659 90.3136V56.3183C50.6659 55.1128 50.4969 54.2528 50.1661 53.7089C49.828 53.1723 48.8284 52.8783 47.1525 52.8563V52.4299H59.5305V52.8563C58.3764 52.8563 57.5753 52.9812 57.1122 53.2532C56.6491 53.5104 56.3551 53.8191 56.2007 54.1793C56.0537 54.5321 55.9876 55.3407 55.9876 56.6049V85.7491C55.9876 88.2482 56.6491 90.0123 57.9869 91.0413C59.3246 92.063 61.6106 92.5702 64.8521 92.5702H70.4825C73.1947 92.5702 75.1867 91.9748 76.4436 90.7693C77.7079 89.5639 78.4135 87.3073 78.5605 83.9776H79.0015V93.952H47.2113V93.9594ZM6.04934 90.5415C5.57156 91.6734 5.32165 92.3717 5.32165 92.629C5.32165 93.2538 5.83617 93.5625 6.85787 93.5625V93.9594H0V93.5625C0.918793 93.5625 1.69793 93.364 2.32271 92.9524C2.95484 92.5481 3.63842 91.497 4.38816 89.8064L21.1175 51.8125H21.8967L38.3688 88.5201C38.3688 88.7039 38.7951 89.5859 39.6404 91.1736C40.4857 92.7613 41.7794 93.5625 43.5067 93.5625V93.9594H32.7311V93.5625C33.716 93.5625 34.2085 93.217 34.2085 92.5261C34.2085 92.0556 33.966 91.3059 33.4808 90.2622C33.4 90.1887 33.3191 90.0711 33.2677 89.8947C33.2236 89.7109 33.1942 89.6153 33.1721 89.6153L19.7063 59.5377L6.05669 90.5415H6.04934ZM87.55 90.5415C87.0649 91.6734 86.8223 92.3717 86.8223 92.629C86.8223 93.2538 87.3368 93.5625 88.3585 93.5625V93.9594H81.4933V93.5625C82.4121 93.5625 83.1912 93.364 83.816 92.9597C84.4481 92.5555 85.1317 91.5044 85.8741 89.8138L102.603 51.8199H103.383L119.855 88.5275C119.855 88.7112 120.281 89.5933 121.126 91.181C121.972 92.7686 123.265 93.5698 124.993 93.5698V93.9667H114.217V93.5698C115.202 93.5698 115.694 93.2244 115.694 92.5334C115.694 92.063 115.445 91.3133 114.967 90.2695C114.879 90.196 114.805 90.0784 114.754 89.902C114.71 89.7182 114.68 89.6227 114.658 89.6227L101.192 59.5451L87.5426 90.5488L87.55 90.5415Z" fill="white"/>
<path d="M92.3714 105.97H92.5846C92.6066 106.374 92.7463 106.698 92.9962 106.94C93.2461 107.175 93.5622 107.293 93.9664 107.293C94.3707 107.293 94.6721 107.19 94.922 106.992C95.1646 106.786 95.2895 106.528 95.2895 106.205C95.2895 105.918 95.2087 105.698 95.047 105.544C94.8852 105.389 94.5104 105.227 93.9223 105.066C93.9003 105.066 93.8709 105.051 93.8341 105.044C93.3049 104.897 92.9668 104.757 92.8198 104.617C92.7095 104.522 92.6287 104.404 92.5772 104.279C92.5184 104.147 92.4964 104.007 92.4964 103.853C92.4964 103.485 92.6213 103.191 92.8786 102.971C93.1285 102.75 93.4666 102.64 93.8929 102.64C94.3193 102.64 94.6868 102.765 94.9514 103.008C95.216 103.25 95.363 103.588 95.3777 104.007H95.1719C95.1719 103.647 95.047 103.36 94.8117 103.147C94.5765 102.934 94.2678 102.824 93.8783 102.824C93.5181 102.824 93.2314 102.919 93.0183 103.103C92.8051 103.287 92.7022 103.544 92.7022 103.86C92.7022 103.978 92.7242 104.096 92.7757 104.198C92.8198 104.301 92.8933 104.397 92.9889 104.485C93.1138 104.61 93.4225 104.735 93.9076 104.867C93.9518 104.875 93.9811 104.882 93.9958 104.889C94.6133 105.058 95.0175 105.227 95.216 105.411C95.4145 105.595 95.51 105.845 95.51 106.168C95.51 106.573 95.3704 106.896 95.091 107.139C94.8117 107.381 94.4369 107.506 93.9664 107.506C93.496 107.506 93.1432 107.374 92.8565 107.102C92.5772 106.83 92.4155 106.462 92.3788 105.985M82.7572 105.08C82.7572 104.323 82.9409 103.728 83.3084 103.302C83.676 102.868 84.1758 102.655 84.8153 102.655C85.4547 102.655 85.9546 102.868 86.3221 103.302C86.6896 103.735 86.8734 104.331 86.8734 105.08C86.8734 105.83 86.6896 106.426 86.3221 106.859C85.9546 107.293 85.4547 107.506 84.8079 107.506C84.1611 107.506 83.6686 107.293 83.3011 106.859C82.9336 106.426 82.7498 105.838 82.7498 105.08H82.7572ZM82.985 105.08C82.985 105.771 83.1467 106.315 83.4702 106.712C83.7936 107.109 84.2419 107.308 84.8153 107.308C85.3886 107.308 85.8296 107.109 86.1604 106.712C86.4838 106.315 86.6529 105.771 86.6529 105.08C86.6529 104.39 86.4911 103.838 86.1604 103.441C85.837 103.044 85.3886 102.846 84.8153 102.846C84.2419 102.846 83.8009 103.044 83.4702 103.441C83.1467 103.838 82.985 104.382 82.985 105.08ZM73.6207 107.396V102.75H74.6865C75.0761 102.75 75.3848 102.765 75.6053 102.802C75.8258 102.839 76.0169 102.897 76.1786 102.978C76.5167 103.147 76.774 103.405 76.943 103.765C77.1195 104.118 77.2077 104.559 77.2077 105.08C77.2077 105.602 77.1195 106.043 76.943 106.404C76.7666 106.764 76.5094 107.021 76.1786 107.175C76.0096 107.256 75.8111 107.315 75.5832 107.352C75.348 107.388 75.054 107.403 74.6865 107.403H73.6207V107.396ZM73.8412 107.197H74.7379C75.0834 107.197 75.3627 107.183 75.5759 107.146C75.7817 107.109 75.9655 107.05 76.1272 106.969C76.4065 106.822 76.6196 106.587 76.7666 106.264C76.9136 105.94 76.9871 105.544 76.9871 105.08C76.9871 104.691 76.9357 104.345 76.8328 104.059C76.7299 103.772 76.5755 103.537 76.3697 103.353C76.208 103.206 76.0095 103.103 75.7743 103.044C75.5391 102.986 75.1937 102.956 74.7453 102.956H73.8486V107.205L73.8412 107.197ZM65.3662 105.624H67.3729L66.3806 103.008L65.3662 105.624ZM64.4622 107.403L66.2556 102.758H66.4982L68.2623 107.403H68.0491L67.4464 105.823H65.278L64.668 107.403H64.4475H64.4622ZM56.906 108.712V108.535C57.031 108.572 57.1559 108.594 57.2735 108.609C57.3911 108.623 57.5087 108.631 57.619 108.631C57.7586 108.631 57.8689 108.601 57.9497 108.542C58.0306 108.484 58.0674 108.403 58.0674 108.3C58.0674 108.175 58.0233 108.087 57.9424 108.028C57.8615 107.969 57.7292 107.94 57.5602 107.94C57.5234 107.94 57.494 107.94 57.472 107.94C57.4499 107.94 57.4279 107.94 57.4132 107.94V107.396H57.5455V107.778H57.6263C57.8395 107.778 58.0012 107.815 58.1041 107.896C58.207 107.976 58.2585 108.094 58.2585 108.263C58.2585 108.432 58.1997 108.565 58.0894 108.66C57.9792 108.756 57.8174 108.8 57.619 108.8C57.5234 108.8 57.4279 108.8 57.325 108.778C57.2221 108.763 57.0898 108.741 56.9207 108.704L56.906 108.712ZM59.2728 105.867C59.2434 106.367 59.067 106.764 58.7436 107.058C58.4202 107.352 57.9938 107.499 57.4793 107.499C56.8692 107.499 56.3988 107.286 56.0534 106.867C55.7152 106.44 55.5388 105.852 55.5388 105.095C55.5388 104.338 55.7152 103.735 56.0607 103.302C56.4062 102.875 56.8913 102.655 57.5087 102.655C57.9791 102.655 58.3834 102.787 58.6995 103.059C59.0229 103.324 59.2067 103.677 59.2508 104.11H59.0302C58.9641 103.713 58.795 103.397 58.5231 103.177C58.2511 102.956 57.8983 102.846 57.4646 102.846C56.9428 102.846 56.5311 103.044 56.2224 103.449C55.9137 103.853 55.7593 104.397 55.7593 105.088C55.7593 105.779 55.9064 106.323 56.2077 106.72C56.5091 107.116 56.9134 107.308 57.4352 107.308C57.9056 107.308 58.2879 107.175 58.5819 106.918C58.8759 106.661 59.0302 106.308 59.0523 105.86H59.2655L59.2728 105.867ZM47.5858 107.403V102.758H47.8063V107.205H50.2686V107.403H47.5858ZM39.324 105.624H41.3306L40.3383 103.008L39.324 105.624ZM38.4199 107.403L40.2134 102.758H40.4559L42.22 107.403H42.0068L41.4041 105.823H39.2358L38.6257 107.403H38.4052H38.4199ZM33.2379 105.867C33.2085 106.367 33.0321 106.764 32.7087 107.058C32.3852 107.352 31.9589 107.499 31.4444 107.499C30.8343 107.499 30.3639 107.286 30.0184 106.867C29.6803 106.44 29.5039 105.852 29.5039 105.095C29.5039 104.338 29.6803 103.735 30.0258 103.302C30.3712 102.875 30.8564 102.655 31.4738 102.655C31.9442 102.655 32.3485 102.787 32.6719 103.059C32.9953 103.324 33.1791 103.677 33.2232 104.11H33.0027C32.9365 103.713 32.7748 103.397 32.4955 103.177C32.2235 102.956 31.8707 102.846 31.437 102.846C30.9152 102.846 30.5036 103.044 30.1948 103.449C29.8861 103.853 29.7318 104.397 29.7318 105.088C29.7318 105.779 29.8788 106.323 30.1801 106.72C30.4815 107.116 30.8858 107.308 31.4076 107.308C31.8781 107.308 32.2603 107.175 32.5543 106.918C32.8483 106.661 33.0027 106.308 33.0247 105.86H33.2379V105.867Z" fill="white"/>
</g>
<defs>
<clipPath id="clip0_396_7705">
<rect width="125" height="108.785" fill="white"/>
</clipPath>
</defs>
</svg>
