<svg width="90" height="100" viewBox="0 0 90 100" fill="none" xmlns="http://www.w3.org/2000/svg">
<g clip-path="url(#clip0_396_7929)">
<path d="M3.63959 46.9411C3.66068 47.4305 3.66912 47.92 3.7071 48.4094C3.83368 50.0845 3.9687 51.7638 4.10372 53.4389C4.17123 54.2491 4.22608 55.0634 4.32735 55.8735C4.41596 56.5866 4.5763 57.2955 4.67334 58.0086C4.82102 59.055 4.93916 60.1056 5.07419 61.152C5.10794 61.4052 5.14592 61.6626 5.18389 61.9157C5.23874 62.7259 5.29781 63.5402 5.35267 64.3503C5.50035 65.8946 5.58473 67.4516 5.82524 68.979C5.96448 69.8609 6.36532 70.7048 6.67334 71.6373C8.52144 69.8356 10.6269 68.9579 12.9687 68.574C12.9349 69.017 13.3189 69.1014 13.5594 69.0634C14.2852 68.9537 14.9771 68.709 15.5003 68.1436C15.5003 68.1141 15.5003 68.0887 15.5003 68.0592C15.6058 68.0592 15.7071 68.055 15.8126 68.0508C15.8463 68.1056 15.8759 68.1942 15.9181 68.2027C16.3231 68.2702 16.7409 68.2871 17.1333 68.3968C17.378 68.4685 17.5847 68.6837 17.8084 68.8356C17.6438 69.0086 17.4792 69.1773 17.3147 69.3503C17.302 69.363 17.2978 69.3799 17.2894 69.3968C15.5763 69.9284 13.859 70.4474 12.1459 70.9917C10.9392 71.3799 9.68178 71.6879 9.00667 72.9537C8.82946 73.2828 8.83368 73.4685 9.09528 73.7216C10.6987 75.2617 12.2936 76.8145 13.8928 78.363C14.2725 78.7301 14.6607 79.0845 15.0446 79.4474C14.9138 79.9917 14.9096 80.5065 15.3991 80.8989C15.8463 81.4052 16.4286 81.4938 17.0573 81.4094C17.8928 82.1562 18.6902 82.9495 19.5763 83.633C21.8548 85.3925 24.0953 87.2195 26.4961 88.7892C28.589 90.1562 30.8421 91.2955 33.0995 92.3841C34.956 93.2786 36.897 94.0254 38.8463 94.7048C40.5974 95.3166 42.3991 95.7976 44.205 96.2406C45.1375 96.4685 46.1248 96.5022 47.0868 96.5993C48.0025 96.6921 48.9223 96.7638 49.8421 96.8187C50.205 96.8398 50.5721 96.7554 50.9349 96.7554C52.4455 96.747 53.956 96.747 55.4666 96.747C55.5046 96.747 55.5468 96.747 55.5847 96.747C57.3063 96.6119 59.0278 96.4727 60.7451 96.3377C60.9518 97.0001 61.2219 97.6162 61.8506 97.8946C61.7155 98.1689 61.6016 98.4052 61.4877 98.6415C61.3358 98.7132 61.1881 98.8229 61.0278 98.8567C59.7409 99.1098 58.4497 99.3503 57.1628 99.5951C56.2092 99.6162 55.2514 99.6373 54.2978 99.6626C54.2008 99.6626 54.1037 99.6626 54.0067 99.6626C53.6185 99.6752 53.2345 99.6837 52.8463 99.6963C52.7366 99.6837 52.6227 99.671 52.513 99.6584C52.4455 99.6584 52.378 99.6584 52.3105 99.6626C52.0953 99.671 51.8759 99.6752 51.6607 99.6837C51.6016 99.7006 51.5425 99.7216 51.4792 99.7385C51.3991 99.7427 51.3147 99.7512 51.2345 99.7554C50.7577 99.7301 50.2641 99.7554 49.8041 99.6584C49.4286 99.5782 49.2514 99.6752 49.1417 100.004H47.6649C47.3864 99.9622 47.1122 99.92 46.8337 99.8778C46.724 99.8187 46.6143 99.7048 46.5046 99.7048C45.2345 99.6921 43.9687 99.7006 42.6987 99.7048C42.5257 99.7006 42.3484 99.6963 42.1754 99.6879C40.8041 99.6204 39.4371 99.5529 38.0657 99.4854C37.6101 99.4179 37.1544 99.3503 36.6944 99.2828C34.9603 98.9748 33.2092 98.747 31.5003 98.3419C29.783 97.9326 28.0657 97.4474 26.4244 96.806C25.0489 96.2702 23.6269 95.6541 22.4877 94.747C20.0362 92.7934 17.7324 90.6499 15.4117 88.5402C13.8548 87.1267 12.3695 85.6373 10.8506 84.1816C10.8337 84.152 10.821 84.1141 10.7957 84.093C8.28094 81.6162 6.36111 78.7216 4.99402 75.4854C4.23452 73.6837 3.686 71.7892 3.04043 69.9368C2.63959 68.2575 2.22187 66.5824 1.84212 64.8989C1.43705 63.1014 1.07419 61.2913 0.694439 59.4896C0.681781 59.4474 0.664903 59.4052 0.652245 59.363V59.3546C0.622709 59.1478 0.593173 58.9411 0.567857 58.7343C0.483468 57.9664 0.4033 57.1984 0.318912 56.4305C0.33157 56.4221 0.352667 56.4136 0.352667 56.4052C0.352667 56.3799 0.344228 56.3588 0.335789 56.3335C0.318912 56.19 0.302034 56.0508 0.285156 55.9073C0.293595 55.7301 0.306253 55.5529 0.314692 55.3757C0.420177 55.2702 0.593173 55.1773 0.61849 55.055C0.745072 54.4094 0.842118 53.7554 0.922287 53.1014C0.960262 52.7849 0.977139 52.5022 1.40752 52.5233C2.22187 52.5613 2.5341 52.2786 2.49613 51.46C2.47503 50.9706 2.61427 50.6584 3.08684 50.4896C3.39064 50.3841 3.46237 50.2449 3.33157 49.8609C3.16701 49.3757 3.22608 48.8103 3.20921 48.2786C3.20077 48.0128 3.26828 47.7427 3.25562 47.4769C3.24296 47.1942 3.21343 46.9326 3.61427 46.9326L3.63959 46.9411Z" fill="white"/>
<path d="M50.6323 0.000138037C51.8475 1.07609 52.029 2.64149 52.5142 4.05077C53.0079 5.48959 53.3412 6.98748 53.7378 8.45583C53.7631 8.55288 53.7716 8.65415 53.7885 8.75541C53.7209 8.93263 53.6534 9.10562 53.5817 9.28284C53.3328 8.96216 53.0965 8.62883 52.8349 8.32081C52.7336 8.19845 52.5733 8.13094 52.4382 8.03389C52.3623 8.17313 52.2568 8.30816 52.2231 8.45583C52.164 8.72588 52.1471 9.00436 52.1091 9.27862C52.0374 9.10984 51.9404 8.94107 51.9024 8.76385C51.7378 7.97904 51.6534 7.17313 51.4172 6.40942C51.0669 5.28706 50.6619 4.17735 50.1809 3.10562C49.9446 2.58242 49.4931 2.15626 49.1429 1.68368C48.7913 1.09015 48.8827 0.597888 49.4172 0.206889C49.51 0.139379 49.5944 0.0634292 49.683 -0.00830078C49.9994 -0.00830078 50.3159 -0.00830078 50.6323 -0.00830078V0.000138037Z" fill="white"/>
<path d="M81.0173 20.9238C80.7684 20.9112 80.5236 20.8985 80.2747 20.8858C80.2747 20.8605 80.2663 20.831 80.2578 20.8057C80.4224 20.62 80.5911 20.4428 80.7473 20.2487C80.8781 20.0884 80.9962 19.9154 81.1186 19.7508C81.2241 19.7297 81.3295 19.7086 81.4392 19.6917L81.4857 19.7044L81.5363 19.696L82.0679 19.5989L82.1186 19.6074L82.1692 19.5905C82.3464 19.5905 82.5236 19.5947 82.7008 19.5989C83.7177 19.4344 84.7388 19.2698 85.7557 19.101C86.1608 19.4808 87.1143 19.2656 87.3338 18.7508C87.8443 18.5905 88.3506 18.3964 88.8696 18.2782C89.1903 18.2065 89.5363 18.2529 89.8738 18.2487V19.3036C88.6207 20.101 87.2367 20.5398 85.7684 20.6706C84.4688 20.7846 83.1608 20.8352 81.8612 20.9154C81.8274 20.9154 81.7895 20.9154 81.7557 20.9154C81.6502 20.9154 81.5447 20.9154 81.4392 20.9196C81.3 20.9196 81.1608 20.9196 81.0257 20.9196L81.0173 20.9238Z" fill="white"/>
<path d="M0.00031316 54.5359C0.00031316 52.6709 0.00031316 50.8101 0.00031316 48.9452C0.0720431 48.8144 0.173309 48.6878 0.211284 48.5485C0.270355 48.3376 0.283014 48.1139 0.312549 47.8945C0.346305 48.2236 0.413815 48.5528 0.413815 48.8777C0.422254 50.6836 0.422254 52.4895 0.413815 54.2954C0.413815 54.481 0.354744 54.6625 0.325208 54.8439C0.215503 54.7384 0.105798 54.6371 -0.00390625 54.5317L0.00031316 54.5359Z" fill="white"/>
<path d="M51.2533 99.7553C50.9748 99.8355 50.7006 99.9199 50.4221 100H49.1562C49.2702 99.6752 49.4432 99.5739 49.8187 99.6541C50.2828 99.7553 50.7723 99.7258 51.2491 99.7511L51.2533 99.7553Z" fill="white"/>
<path d="M0 47.4683C0.105485 47.3966 0.206751 47.3291 0.312236 47.2573C0.312236 47.4683 0.312236 47.6835 0.316456 47.8945C0.2827 48.1139 0.270042 48.3375 0.21519 48.5485C0.177215 48.6919 0.0759494 48.8143 0.00421941 48.9451C0.00421941 48.4514 0.00421941 47.962 0.00421941 47.4683H0Z" fill="white"/>
<path d="M0.303797 55.9112C0.202532 55.8394 0.101266 55.7677 0 55.696C0 55.3078 0 54.9238 0 54.5356C0.109705 54.6411 0.219409 54.7424 0.329114 54.8479C0.329114 55.0251 0.333333 55.2023 0.337553 55.3795C0.329114 55.5567 0.316456 55.734 0.308017 55.9112H0.303797Z" fill="white"/>
<path d="M44.1992 100C44.6802 99.9664 45.1612 99.9199 45.6423 99.8946C46.0431 99.8735 46.4482 99.882 46.8532 99.8735C47.1317 99.9157 47.406 99.9579 47.6845 99.9959C46.5241 99.9959 45.3638 99.9959 44.2034 99.9959L44.1992 100Z" fill="white"/>
<path d="M48.5187 80.4939C47.4512 79.861 46.3499 79.2787 45.3288 78.5783C43.4765 77.304 42.2402 75.5066 41.2697 73.5108C40.8478 72.3884 40.4258 71.2661 40.0039 70.1437C40.2064 70.2323 40.4132 70.2998 40.6031 70.4095C40.7676 70.5023 40.9111 70.6374 41.0588 70.7513C41.1558 70.5572 41.2908 70.3715 41.3415 70.1648C41.4469 69.7217 41.5988 69.3378 42.0799 69.1943C42.3077 70.726 42.8436 72.1479 43.6579 73.4644C44.852 75.4011 46.2866 77.0931 48.4216 78.0509C48.5271 78.2112 48.6157 78.4855 48.7465 78.5066C49.6368 78.6669 50.5313 78.7977 51.4301 78.8694C51.5735 78.8821 51.7423 78.5572 51.8984 78.3842C52.6706 78.1479 53.2149 77.6247 53.679 76.9918C53.8478 76.9201 54.1052 76.8905 54.1642 76.7639C54.4258 76.2281 54.8056 75.6711 54.8183 75.1142C54.8562 73.5319 55.0208 71.9327 54.6326 70.3673C54.5609 70.0762 54.5778 69.688 54.1432 69.612C54.101 69.4475 54.0461 69.2872 54.0123 69.1226C53.8731 68.4433 53.7381 67.7597 53.6031 67.0804C54.0166 66.9116 54.1136 66.5445 53.9153 66.2407C53.5988 65.7597 53.6453 65.2534 53.5651 64.7386C53.4723 64.1226 53.2402 63.5277 53.0588 62.9285C52.9659 62.6289 52.8309 62.3378 52.7465 62.034C52.6326 61.6205 52.5187 61.2239 51.9955 61.1774C51.8562 60.8272 51.717 60.4812 51.5777 60.131C51.8056 59.7682 51.5693 59.4559 51.3035 59.4433C50.8604 59.4222 50.3246 59.4686 49.9828 59.7091C49.4132 60.1141 48.8562 60.0888 48.2993 59.8863C48.0841 59.8061 47.9153 59.4517 47.8436 59.1901C47.8056 59.0509 48.025 58.6838 48.1136 58.688C48.5904 58.7217 48.9153 58.418 49.3035 58.2576C49.8858 58.0171 50.4807 57.8104 51.0672 57.5783C51.5398 57.3926 52.0123 57.1901 52.4849 56.996C52.5271 56.9791 52.5862 57.0087 52.6368 56.996C52.9575 56.9454 53.2782 56.9032 53.5946 56.8357C54.0166 56.7428 54.4385 56.6289 54.8562 56.5234C54.8647 56.688 54.8773 56.8526 54.8942 57.0973C55.16 57.0045 55.3457 56.9201 55.5398 56.8821C55.8351 56.8272 56.1685 56.7302 56.0461 57.2745C56.0166 57.4137 56.1558 57.6163 56.2613 57.7597C56.4807 58.0635 56.7296 58.342 56.9659 58.6331C56.755 58.5614 56.544 58.4897 56.3372 58.4179L55.8056 58.5066C55.6706 58.4053 55.5524 58.2618 55.4005 58.2154C54.7507 58.0087 54.274 58.5277 53.7085 58.6796C53.4934 58.7386 53.5482 58.9876 53.814 59.0593C53.7803 59.1521 53.6959 59.2618 53.7212 59.3293C53.8731 59.7597 54.0841 60.1732 54.2107 60.612C54.7212 62.4137 55.2402 64.2112 55.6959 66.0255C56.0545 67.4559 56.3204 68.9074 56.6326 70.3504C56.7423 71.3251 56.8647 72.2998 56.9533 73.2787C56.9744 73.5277 56.8858 73.7808 56.8436 74.034C56.7423 74.1353 56.5777 74.2196 56.544 74.3378C56.3161 75.1437 56.1178 75.9538 55.9111 76.7639C55.7676 77.3251 55.6579 77.861 55.0841 78.2281C54.6579 78.5023 54.371 78.9834 54.0081 79.3589C53.8394 79.5319 53.6453 79.6838 53.4554 79.8357C53.2233 80.0171 52.9828 80.1859 52.7423 80.3631C52.2908 80.4348 52.3119 80.7724 52.3246 81.1015C52.3246 81.8188 52.3457 82.5361 52.3161 83.2492C52.2993 83.7133 52.4807 83.9369 52.9364 83.9454C52.9702 84.5445 53.0081 85.1437 53.0419 85.7428C52.9786 85.8652 52.8604 85.9834 52.8562 86.1099C52.8098 87.2829 52.7761 88.4601 52.7423 89.6331C52.7423 89.7049 52.7254 89.7766 52.7465 89.8399C52.8351 90.1099 52.9828 90.2618 53.2697 90.0551C53.3415 90.7471 53.4849 91.4433 53.4638 92.1353C53.4469 92.7091 52.9069 93.1774 52.4343 93.2281C51.9617 93.2829 51.5229 92.9665 51.2697 92.3715C51.1853 92.1732 51.1347 91.958 51.0714 91.7471C51.3668 91.7639 51.4849 91.6163 51.4765 91.3336C51.468 91.072 51.4596 90.8061 51.4765 90.5445C51.5524 89.5066 51.4132 88.5023 51.0419 87.5319C51.0039 87.439 50.852 87.3884 50.755 87.3209C50.7465 87.1099 50.7339 86.9032 50.7254 86.6922C51.0799 86.6585 51.0377 86.3969 51.0588 86.1479C51.1727 84.7091 50.5567 83.3758 50.4554 81.9707C50.3837 80.9665 49.6453 80.5867 48.9069 80.1985C48.6495 80.0635 48.5102 80.1901 48.5187 80.4728V80.4939Z" fill="white"/>
<path d="M71.4359 61.5106C68.3431 62.7933 65.3811 64.3376 62.5414 66.0591C62.8874 66.8355 63.2038 67.5401 63.5203 68.2406C63.1195 68.4009 63.3009 68.6794 63.3768 68.9368C63.4486 69.1857 63.5245 69.4346 63.6089 69.6794C63.7017 69.9536 63.7777 70.2321 63.9043 70.4895C64.1068 70.9072 64.3684 71.2954 64.5456 71.7258C64.6764 72.0422 64.6722 72.4136 64.7988 72.73C65.0477 73.3545 65.36 73.9536 65.6173 74.5697C66.014 75.519 66.3895 76.4726 66.7693 77.4262C66.8916 77.7342 66.9507 78.0633 67.0899 78.3587C67.3262 78.8566 68.5794 79.1182 69.1701 78.8524C69.8199 78.557 70.4823 78.2954 71.1406 78.0296C72.1195 77.6414 73.0857 77.2237 74.0815 76.8903C75.2123 76.5148 76.3684 76.2195 77.5161 75.8988C77.7313 75.8397 77.9971 75.865 78.1659 75.7469C78.8747 75.2448 79.6891 75.1815 80.5034 75.1055C80.9929 75.0591 81.3389 74.8735 81.4233 74.3503L83.111 73.9283C83.322 74.5444 83.8283 74.249 84.1827 74.2195C84.976 74.1477 85.7608 73.9536 86.5541 73.8439C86.9085 73.7975 86.9254 73.5908 86.9169 73.3249C87.1785 73.3207 87.4444 73.3081 87.706 73.3081C88.2967 73.3081 88.7228 73.6119 88.8114 74.1055C88.9422 74.8228 88.6891 75.2912 88.0519 75.519C87.9591 75.5528 87.8579 75.5781 87.765 75.6076C87.7566 75.211 87.4022 75.1688 87.2123 75.2532C86.3178 75.6456 85.2545 75.2532 84.419 75.8777C84.3684 75.9157 84.2798 75.9494 84.2207 75.9368C83.2967 75.7131 82.5119 76.2617 81.6511 76.4093C80.4908 76.6076 79.3557 76.9494 78.2165 77.2532C77.5161 77.4389 76.8199 77.5992 76.0941 77.692C75.5498 77.7595 74.8283 77.8482 74.4739 78.4811C74.246 78.4811 74.0055 78.4347 73.7946 78.4895C73.2038 78.6498 72.6089 78.8228 72.0393 79.0507C71.5709 79.2363 71.1574 79.5528 70.6891 79.73C70.0309 79.9832 69.3473 80.1646 68.6722 80.3798C68.4275 80.4515 68.1785 80.519 67.9338 80.5908C67.8663 80.5908 67.7946 80.5908 67.7271 80.5908C67.5498 80.6963 67.3726 80.8017 67.1996 80.903C67.0941 80.903 66.9887 80.903 66.8832 80.903C66.6089 81.0127 66.3726 81.0127 66.1996 80.7089C66.1617 80.6414 66.0266 80.6245 65.9338 80.5823C65.8958 80.4051 65.8621 80.2321 65.8241 80.0549C65.7524 79.8777 65.6849 79.7005 65.6131 79.5275C65.5794 79.2827 65.5414 79.038 65.5076 78.7891C65.5583 78.1604 65.3853 77.6414 65.014 77.0887C64.4148 76.1984 63.976 75.1941 63.5034 74.2237C63.3768 73.9663 63.3642 73.6583 63.2967 73.3756C63.1912 72.9452 63.0941 72.5148 62.976 72.0887C62.7608 71.3165 62.0393 70.8271 61.8536 70.0169C61.7313 69.4811 61.3895 68.9958 61.1954 68.4726C61.0055 67.9579 60.8705 67.4262 60.7313 66.8988C60.6131 66.4515 60.2882 66.5148 59.9844 66.6034C59.8114 66.6541 59.6469 66.7764 59.5119 66.9072C58.7481 67.6456 58.1152 67.7131 57.246 67.1266C57.0182 66.9747 56.7903 66.8186 56.5625 66.6667C56.6595 66.384 56.7566 66.1013 56.8536 65.8186C57.4655 65.7384 58.0899 65.7005 58.6891 65.5612C58.9211 65.5064 59.1701 65.2574 59.2925 65.0338C59.592 64.4811 59.5836 63.9114 59.2629 63.3376C59.0182 62.8903 58.8536 62.3967 58.6553 61.9241C59.36 62.114 59.495 62.0127 59.495 61.2828C59.495 61.1098 59.495 60.9368 59.495 60.7595C59.7439 60.8988 59.9971 61.038 60.246 61.1773C60.4865 61.7089 60.803 62.2195 60.9422 62.7764C61.0815 63.3376 61.3642 63.2363 61.6975 63.0844C62.6806 62.6287 63.6427 62.1309 64.6342 61.6878C66.0055 61.0718 67.3937 60.4937 68.7735 59.8988C68.8832 60.2785 69.1448 60.1266 69.3642 60.0549C70.4233 59.7047 71.4823 59.3418 72.5414 58.9916C72.7608 58.9199 73.0224 58.9325 73.2081 58.8144C73.9676 58.3334 74.7819 58.5064 75.5752 58.595C75.9971 58.6456 76.0984 59.0802 75.7903 59.384C75.6722 59.5022 75.5076 59.595 75.3473 59.6372C74.4655 59.8524 73.6131 60.1435 72.7777 60.4937C72.4781 60.6203 72.1152 60.6287 71.841 60.7933C71.6131 60.9283 71.1617 61.0507 71.4401 61.5106H71.4359Z" fill="white"/>
<path d="M17.0684 81.4177C16.4397 81.4979 15.8574 81.4093 15.4102 80.9072C15.6 80.9536 15.7182 80.962 15.7308 80.6835C15.7477 80.3629 15.8237 80.0338 15.9291 79.7257C16.0768 79.2869 16.3595 78.8776 16.4313 78.4346C16.503 78 16.6929 77.7342 16.9924 77.4346C17.3933 77.038 17.7561 76.5738 18.0262 76.0802C18.2372 75.692 18.2794 75.2278 18.7519 75.0042C18.8743 74.9451 18.9038 74.7089 18.9882 74.5612C19.2962 74.0295 19.5958 73.4937 19.9249 72.9747C20.1443 72.6245 20.4102 72.3038 20.6549 71.9705C21.1021 71.3629 21.1528 70.5359 21.7857 70.0211C22.0262 69.827 22.081 69.5485 21.6169 69.5148L22.0431 68.7932C22.3595 68.2363 22.676 67.6751 22.9924 67.1181C23.1654 66.8987 23.3426 66.6793 23.5156 66.4599C23.676 66.3376 23.8363 66.2152 23.9967 66.0928C23.9713 66.0295 23.946 65.9705 23.9207 65.9072C23.714 65.8776 23.5072 65.8439 23.3005 65.827C22.5241 65.7511 21.7393 65.7215 20.9713 65.5907C20.3637 65.4895 19.7815 65.2658 19.1865 65.1013L19.195 65.1097C19.1697 65.0675 19.1443 65.0295 19.119 64.9873C19.0431 63.7553 19.5452 63.3291 20.7393 63.5949C22.0726 63.8903 23.4102 64.1814 24.7519 64.4304C24.8912 64.4557 25.1275 64.2405 25.2414 64.0802C25.7351 63.4051 26.1992 62.7089 26.6718 62.0211C26.8743 62.0042 27.0979 61.9198 27.2751 61.9789C27.6971 62.1181 28.1021 62.3249 28.4228 62.4641C28.5452 62.9325 28.6718 63.4008 28.7983 63.8692C28.6211 64.2068 28.4397 64.5443 28.2625 64.8819C27.7477 65.0464 28.022 65.3502 28.2329 65.4557C28.6 65.6414 29.0178 65.7511 29.4228 65.8186C30.3975 65.9873 31.4439 65.9536 32.3384 66.3122C33.1064 66.6203 33.8616 66.6118 34.6253 66.7215C34.7435 66.7384 34.8912 66.5612 35.0262 66.4768C35.2709 66.3502 35.7393 66.7342 35.7857 66.1477C35.9502 66.0633 36.2414 65.9958 36.2625 65.8861C36.3131 65.5865 36.33 65.2321 36.2076 64.9662C35.9291 64.3587 35.8279 63.7426 35.8701 63.0886C35.8701 62.9831 35.8701 62.8776 35.8701 62.7764C35.8701 62.6709 35.8701 62.5654 35.8701 62.4599C35.9629 62 36.081 61.5443 36.1486 61.0844C36.2203 60.5992 36.2456 60.1013 36.292 59.6118C36.4313 59.6118 36.5747 59.6118 36.714 59.6118C37.1401 60.038 37.1865 60.5865 37.1654 61.1392C37.1275 62.211 36.9924 63.2911 37.5494 64.2911C37.6886 64.5401 37.7941 64.7004 38.0178 64.3798C38.1148 64.9325 38.2161 65.4852 38.3131 66.0338C38.4186 66.7384 38.5283 67.4473 38.6338 68.1519C38.6085 68.4304 38.5494 68.7131 38.5621 68.9916C38.5832 69.4852 38.6507 69.9789 38.6971 70.4726C38.5958 70.5781 38.4945 70.6835 38.3975 70.789C38.1697 70.8734 37.9376 70.9578 37.6675 71.0591C37.3806 70.8186 37.0473 70.5401 36.7097 70.2616C36.7182 69.6835 36.8026 69.076 36.119 68.7004C36.0726 68.789 36.022 68.8819 35.9713 68.9747C34.2878 68.7089 32.6507 68.1519 30.9165 68.2405C30.7519 68.1308 30.6 67.962 30.4228 67.9241C29.3342 67.6962 28.2287 67.5274 27.1443 67.27C26.6296 67.1477 26.3848 67.3587 26.1865 67.7511C26.0937 67.9367 26.0304 68.1392 25.9545 68.3333C25.5199 68.9114 25.0895 69.4895 24.6549 70.0633C24.4777 70.1055 24.2667 70.1055 24.1232 70.1983C23.3891 70.692 22.9967 71.4219 22.7815 72.2616C22.6464 72.4093 22.4988 72.5443 22.3722 72.7004C22.1907 72.9283 22.0304 73.173 21.8574 73.4093C21.6042 73.7553 21.3426 74.0928 21.0895 74.4388C20.811 74.8228 20.7772 75.3249 20.3089 75.6498C19.9334 75.9114 19.7182 76.4388 19.4945 76.8776C19.3722 77.1139 19.2498 77.4388 19.6085 77.6413C18.7604 78.903 17.9123 80.1646 17.0642 81.4219L17.0684 81.4177Z" fill="white"/>
<path d="M56.5273 33.439C56.5653 33.3631 56.6033 33.2872 56.6413 33.2154C57.1898 33.4728 57.2868 32.9496 57.3628 32.688C57.5695 31.9749 57.6666 31.2281 57.81 30.4939C57.8354 30.3631 57.8818 30.2323 57.9324 30.1057C58.1687 29.5066 58.4219 28.9116 58.6497 28.3082C58.8311 27.8315 58.8607 27.2787 59.3881 27.0002C60.097 26.9876 60.5442 26.65 60.8143 25.9749C60.8818 25.8019 61.059 25.6753 61.1856 25.5234C61.097 25.8779 61.0463 26.2534 60.9029 26.5867C60.6581 27.1521 60.6961 27.726 61.0632 27.9454C60.6708 29.2998 60.27 30.65 59.9029 32.0087C59.848 32.207 59.9873 32.4601 60.0337 32.688C59.7678 33.0509 60.1012 33.1732 60.3122 33.245C61.1603 33.5361 62.0168 33.7893 62.8776 34.0424C63.0927 34.1057 63.3122 34.0931 63.2953 33.7639C63.3248 33.7471 63.3586 33.7386 63.3923 33.7344C64.021 33.9285 64.6539 34.1268 65.2826 34.3209C66.0337 34.6416 66.7805 34.9749 67.5316 35.2871C68.3333 35.6205 69.1392 35.9369 69.9408 36.2618C70.1138 36.342 70.2911 36.4222 70.4641 36.5023C70.8522 36.6753 71.2404 36.8483 71.6286 37.0213C72.7889 37.6163 73.9535 38.1985 75.1012 38.8188C76.1265 39.3758 77.1771 39.9116 78.1307 40.5741C79.194 41.3125 79.1307 41.9876 78.3754 42.7682C78.1307 43.0255 77.8185 43.1184 77.4387 42.9201C75.4387 41.8821 73.4261 40.8694 71.4176 39.8483C71.3754 39.3336 70.9915 38.9665 70.4894 38.7977C69.8776 38.5952 69.2995 38.2998 68.7046 38.0551C68.4387 37.9454 68.1518 37.8146 67.9366 38.1521C67.8986 38.1521 67.8649 38.1521 67.8269 38.1479C67.7889 38.1226 67.751 38.0973 67.713 38.0677C67.2235 37.8568 66.7341 37.6458 66.2489 37.439C66.156 37.2661 66.1054 37.0171 65.9577 36.9327C65.5695 36.7133 65.1096 36.612 64.7383 36.3758C63.8691 35.823 62.8691 35.6669 61.9155 35.3715C61.5864 35.2703 61.3965 35.3589 61.405 35.7302C61.3333 35.7428 61.2615 35.7555 61.1898 35.7724C61.1223 35.7597 61.059 35.7513 60.9915 35.7386C60.4936 35.5361 59.9999 35.3336 59.502 35.131C58.5611 34.8694 57.6244 34.6078 56.6835 34.3462C56.6328 34.0382 56.5822 33.7344 56.5316 33.4264L56.5273 33.439Z" fill="white"/>
<path d="M59.4929 60.7596C59.4929 60.9326 59.4929 61.1056 59.4929 61.2828C59.4929 62.0085 59.3579 62.1098 58.6532 61.9241C58.6954 61.3208 58.3115 60.8988 57.9317 60.5486C57.3621 60.0212 57.2693 59.2912 56.9613 58.6541C56.725 58.3629 56.476 58.0803 56.2566 57.7807C56.1511 57.6372 56.0119 57.4347 56.0414 57.2954C56.1596 56.7511 55.8262 56.8482 55.5351 56.903C55.341 56.941 55.1554 57.0296 54.8895 57.1182C54.8727 56.8735 54.8642 56.7089 54.8516 56.5444C54.8853 56.4389 54.9233 56.3334 54.957 56.2279C55.3452 56.1942 55.7292 56.1562 56.1174 56.1224C56.4254 56.0929 56.7587 55.9705 57.0372 56.0507C57.7334 56.249 58.2862 55.8651 58.8811 55.6752C59.0077 55.633 59.0794 55.4178 59.1765 55.2828C59.379 55.249 59.5942 55.2448 59.7883 55.1773C60.4887 54.9452 61.1765 54.6752 61.8811 54.4473C62.7967 54.1478 63.7165 53.8608 64.6406 53.5908C65.6406 53.2997 66.649 53.0423 67.649 52.7554C68.1216 52.6203 68.5815 52.4431 69.0499 52.2912C70.5393 51.8102 72.033 51.3292 73.5224 50.8524C74.1554 50.6246 74.7841 50.3798 75.4212 50.1731C76.0794 49.9579 76.7461 49.7638 77.417 49.595C77.8516 49.4895 78.3073 49.3967 78.7503 49.4094C78.9444 49.4136 79.206 49.6667 79.303 49.8693C79.4338 50.1478 79.1976 50.2912 78.936 50.3798C78.7756 50.4347 78.6322 50.5528 78.4845 50.6414C77.995 50.7427 77.5014 50.8229 77.0246 50.9579C76.4634 51.114 75.9064 51.2912 75.3663 51.5022C75.0203 51.6414 74.6237 51.7933 74.6912 52.3039C73.8094 52.5866 72.9317 52.8693 72.0499 53.152C71.8727 52.7554 71.5731 52.8271 71.2566 52.9326C70.995 53.0212 70.725 53.0845 70.4634 53.1731C69.4296 53.5191 68.3959 53.8608 67.3663 54.2195C66.9064 54.3798 66.4676 54.6035 66.0035 54.7469C65.1005 55.0296 64.1849 55.2786 63.2735 55.5486C62.6406 55.7385 62.0119 55.9494 61.379 56.1309C61.2018 56.1815 60.9866 56.1056 60.8178 56.1689C60.1933 56.4136 59.5857 56.6963 58.9697 56.9621C58.3748 56.7511 58.071 57.287 57.5942 57.4094C57.8347 57.7385 58.0161 58.0043 58.2144 58.2575C58.4592 58.5697 58.7123 58.8693 58.9655 59.1731C59.1427 59.7005 59.3157 60.2279 59.4929 60.7554V60.7596Z" fill="white"/>
<path d="M75.5515 22.4516C75.7836 24.3462 74.7836 25.8018 73.8216 27.2702C72.9566 28.4179 72.0874 29.5571 71.2351 30.7132C70.2984 31.9875 69.4967 33.3799 67.7245 33.7217C66.9524 33.8694 66.2351 34.3082 65.3996 34.1647C65.0747 34.0381 64.7583 33.8567 64.4207 33.7976C64.1465 33.7512 63.8427 33.882 63.6992 33.5191C64.0579 33.304 64.4292 33.1099 64.7709 32.8736C65.9397 32.0635 67.1001 31.2364 68.2646 30.4137C68.733 29.9664 69.2477 29.5571 69.6528 29.0592C70.214 28.3757 70.6908 27.6204 71.2055 26.8989L72.3068 25.0128C72.5642 24.5149 72.8427 24.0297 73.0705 23.5234C73.3237 22.9537 73.5262 22.363 73.7498 21.7808L73.9482 21.7217C74.4756 21.9031 75.003 22.0845 75.5304 22.2702L75.5558 22.4559L75.5515 22.4516Z" fill="white"/>
<path d="M42.0547 59.5908C42.6074 57.7975 43.2361 56.0254 43.7003 54.211C44.2192 52.1604 44.5906 50.0718 45.0294 48.0001C45.0758 47.8608 45.1222 47.7174 45.1728 47.5781C45.3205 47.6119 45.4808 47.6203 45.6159 47.6836C46.0462 47.8819 46.4471 48.2701 46.9365 47.8018C46.9745 47.768 47.0716 47.7933 47.1391 47.7933C47.0673 48.1477 46.9956 48.498 46.9239 48.8524C46.8986 48.9326 46.8733 49.0169 46.8522 49.0971C46.5779 50.5697 46.3163 52.0423 46.0252 53.5106C45.8353 54.46 45.599 55.3967 45.388 56.3376C45.0378 57.7849 44.6918 59.2279 44.3416 60.6752C43.8479 60.4558 43.3543 60.2364 42.869 60.0127C42.5948 59.8861 42.329 59.7385 42.0589 59.5992L42.0547 59.5908Z" fill="white"/>
<path d="M56.676 34.3589C57.617 34.6205 58.5537 34.8821 59.4946 35.1437C59.7182 35.6205 59.3975 35.8483 59.0727 36.072C58.4819 36.1775 57.8912 36.2998 57.2963 36.3842C55.1655 36.6964 53.4566 37.823 51.9081 39.2154C51.2583 39.7977 50.5241 40.3209 50.1275 41.1437C49.7604 41.2872 49.4862 41.2492 49.3807 40.7977C49.2372 40.1775 49.1866 40.1521 48.5705 40.3336C48.3554 40.3969 48.1528 40.4855 48.0938 40.1521C48.1022 40.1015 48.1106 40.0467 48.1191 39.996C48.33 39.7007 48.5241 39.3926 48.7478 39.1099C50.3427 37.131 52.444 35.8694 54.7604 34.9412C55.3807 34.6922 56.0389 34.5488 56.6802 34.3589H56.676Z" fill="white"/>
<path d="M36.714 70.2529C37.0474 70.5314 37.3849 70.8141 37.6718 71.0504C37.9419 70.9491 38.1697 70.8647 38.4018 70.7804C38.4018 73.1728 38.4018 75.5609 38.4018 77.9534C38.309 78.0631 38.1317 78.1685 38.1275 78.2782C38.0938 79.1812 38.1275 80.0884 38.0727 80.9871C38.0178 81.8647 37.8786 82.7339 37.7731 83.6074C37.7393 83.9027 37.6887 84.1939 37.6634 84.485C37.6381 84.7593 37.7436 84.928 38.0474 84.9154C37.849 85.4344 37.6592 85.9533 37.4482 86.4681C37.2246 87.0166 36.7098 86.869 36.368 86.7761C36.0558 86.6875 35.6845 86.3669 35.5917 86.0673C35.4735 85.6875 35.6043 85.2276 35.6296 84.8015C35.6929 84.7804 35.7942 84.7761 35.8153 84.7339C36.2583 83.8268 36.6128 82.8943 36.7098 81.8774C36.7857 81.0799 36.8364 80.2825 36.925 79.4892C37.0094 78.7339 37.2119 77.9829 37.2203 77.2276C37.2414 75.7593 37.1739 74.2909 37.1275 72.8225C37.1191 72.5272 37.06 72.236 37.0263 71.9449C36.9925 71.8394 36.9545 71.7339 36.9208 71.6285C36.9208 71.523 36.9208 71.4175 36.9208 71.3162C36.8533 71.139 36.7857 70.9618 36.7182 70.7888C36.7182 70.6116 36.7182 70.4386 36.7182 70.2614L36.714 70.2529Z" fill="white"/>
<path d="M84.3592 89.9663C83.7896 90.7933 82.9457 91.1182 82.009 91.4009C80.3677 91.8945 78.7643 92.519 77.1398 93.0844C76.9415 93.1519 76.739 93.211 76.5406 93.2743C76.4689 93.1899 76.3423 93.1055 76.3381 93.0169C76.3255 92.5739 76.1651 92.2574 75.7305 92.0971C75.6124 92.0549 75.5195 91.941 75.4141 91.8608C76.3297 91.4051 77.2495 90.9536 78.1651 90.4979C78.9077 90.1519 79.6461 89.8017 80.3887 89.4557C80.4563 89.422 80.5238 89.3924 80.5913 89.3587C80.7812 89.2743 80.9752 89.1941 81.1609 89.0971C82.2326 88.5359 83.3001 87.9663 84.3676 87.4009C84.6925 87.7005 85.0174 88.0043 85.3423 88.3038C85.3423 88.3334 85.3423 88.3671 85.3466 88.3967C85.0174 88.9199 84.6883 89.4389 84.355 89.9621L84.3592 89.9663Z" fill="white"/>
<path d="M48.0875 40.1519C48.1466 40.481 48.3491 40.3924 48.5643 40.3333C49.1803 40.1561 49.2309 40.1814 49.3744 40.7974C49.4799 41.2489 49.7542 41.2869 50.1212 41.1434C49.9778 41.443 49.8639 41.7594 49.6866 42.0379C48.6318 43.713 47.8765 45.5147 47.3196 47.4092C47.2816 47.54 47.1972 47.6582 47.1381 47.7848C47.0706 47.7848 46.9693 47.7594 46.9356 47.7932C46.4461 48.2616 46.0453 47.8734 45.6149 47.6751C45.4799 47.6118 45.3196 47.6033 45.1719 47.5696C45.4757 46.5147 45.7753 45.4599 46.079 44.405C46.5643 43.2573 47.0326 42.1054 47.539 40.9704C47.6698 40.6751 47.9061 40.4219 48.0917 40.1519H48.0875Z" fill="white"/>
<path d="M62.0194 98.519C61.8464 98.5612 61.6734 98.5992 61.5004 98.6414C61.6144 98.4051 61.7283 98.173 61.8633 97.8946C61.2346 97.6161 60.9646 97 60.7578 96.3376C61.2515 96.249 61.7409 96.1604 62.2346 96.076C62.4329 96.0465 62.6354 96.0338 62.8338 95.9916C64.0068 95.7511 65.1798 95.5064 66.3527 95.2617C66.9139 95.1224 67.4751 94.9832 68.0363 94.8481C67.9224 95.3418 67.9224 95.8271 68.1418 96.2954C66.2473 96.9705 64.3527 97.6456 62.4582 98.3249C62.3781 98.3545 62.3063 98.4051 62.2304 98.4431C62.1587 98.4684 62.0869 98.4937 62.0152 98.5233L62.0194 98.519Z" fill="white"/>
<path d="M81.4311 74.3543C81.3467 74.8733 81.0007 75.0632 80.5113 75.1096C79.6969 75.1856 78.8826 75.2488 78.1737 75.751C78.0049 75.8691 77.7391 75.8438 77.5239 75.9029C76.3762 76.2277 75.2201 76.5189 74.0893 76.8944C73.0935 77.2235 72.1231 77.6413 71.1484 78.0337C70.486 78.2953 69.8235 78.5611 69.1779 78.8564C68.5872 79.1265 67.3341 78.8607 67.0978 78.3628C66.9585 78.0674 66.8952 77.7341 66.7771 77.4303C66.4016 76.4767 66.0218 75.5189 65.6252 74.5737C65.3678 73.9535 65.0556 73.3543 64.8066 72.7341C64.68 72.4176 64.6843 72.0463 64.5535 71.7299C64.3763 71.3037 64.1104 70.9155 63.9121 70.4936C63.7898 70.2362 63.7096 69.9577 63.6168 69.6834C63.5324 69.4387 63.4564 69.1898 63.3847 68.9408C63.3087 68.6834 63.1273 68.405 63.5281 68.2446C63.9248 69.1813 64.3214 70.1138 64.7096 71.0505C65.3467 72.5737 65.9838 74.0969 66.6041 75.6286C66.9374 76.4514 67.2328 77.2953 67.545 78.1265C67.6716 78.4683 67.8995 78.5526 68.237 78.4345C69.5872 77.9619 70.929 77.4725 72.2919 77.0337C74.5535 76.3037 76.8277 75.5948 79.102 74.9071C79.8657 74.675 80.6589 74.5358 81.4395 74.3543H81.4311Z" fill="white"/>
<path d="M68.1419 96.2909C67.9225 95.8226 67.9225 95.3373 68.0364 94.8436C68.952 94.4892 69.8676 94.1306 70.779 93.7761C71.6946 93.3964 72.606 93.0166 73.5216 92.6411C74.0575 92.9829 74.1419 93.5525 74.2642 94.1052C72.6946 94.6664 71.1208 95.2276 69.5511 95.7888C69.0828 95.9576 68.6102 96.1263 68.1419 96.2951V96.2909Z" fill="white"/>
<path d="M73.5222 50.8439C72.0328 51.3249 70.5391 51.8017 69.0497 52.2827C68.5813 52.4346 68.1214 52.6118 67.6488 52.7469C66.6488 53.0338 65.6404 53.2912 64.6404 53.5823C63.7163 53.8523 62.7965 54.1393 61.8809 54.4388C61.1805 54.6667 60.4885 54.9367 59.7881 55.1688C59.594 55.2321 59.3788 55.2405 59.1762 55.2743C59.0454 55.3122 58.9104 55.3376 58.7881 55.3966C57.7332 55.8903 57.4547 55.8312 56.8935 54.8312C56.6362 54.3755 56.5054 53.8523 56.3281 53.3544C56.2691 53.1941 56.2564 53.0169 56.2227 52.8439C56.5011 53.2701 56.7838 53.692 57.0581 54.1182C57.0919 54.173 57.0961 54.249 57.1172 54.3123C57.5054 55.3882 57.518 55.384 58.6235 55.0253C61.4758 54.0971 64.3324 53.173 67.1931 52.2532C69.2311 51.5992 71.2691 50.962 73.3113 50.3207C73.3408 50.3123 73.3788 50.3291 73.4125 50.3333C73.4463 50.5021 73.4843 50.6709 73.518 50.8397L73.5222 50.8439Z" fill="white"/>
<path d="M61.196 69.6159C60.9344 68.9282 60.6686 68.2404 60.407 67.5484C60.2593 67.156 59.9893 67.2742 59.7277 67.3923C59.3268 67.5738 58.9387 67.8058 58.5209 67.9282C58.1665 68.0337 57.7741 68.0379 57.3986 68.0252C57.2509 68.0252 57.0441 67.8902 56.9766 67.7594C56.8036 67.4092 56.6939 67.0295 56.5547 66.6624C56.7825 66.8143 57.0104 66.9704 57.2382 67.1223C58.1074 67.7046 58.7403 67.6413 59.5041 66.9029C59.6349 66.7763 59.8036 66.6497 59.9766 66.5991C60.2804 66.5105 60.6011 66.4472 60.7235 66.8944C60.8627 67.4219 60.9977 67.9577 61.1876 68.4683C61.3817 68.9957 61.7235 69.4767 61.8458 70.0126C62.0315 70.8227 62.753 71.3121 62.9682 72.0843C63.0863 72.5105 63.1834 72.9408 63.2889 73.3712C63.3564 73.6539 63.3733 73.9662 63.4956 74.2193C63.9724 75.1898 64.407 76.194 65.0062 77.0843C65.3817 77.637 65.5505 78.156 65.4998 78.7847C65.3901 78.6708 65.2889 78.5442 65.1665 78.4387C65.0146 78.3079 64.8458 78.1898 64.6813 78.0674C64.6433 78.021 64.6053 77.9746 64.5716 77.9324C64.3859 77.4767 64.196 77.0252 64.0104 76.5695C63.5252 75.3712 63.0399 74.1771 62.5547 72.9788L61.9302 71.4978C61.8922 71.3923 61.85 71.2911 61.8121 71.1856C61.6053 70.6581 61.3986 70.1265 61.1918 69.5991L61.196 69.6159Z" fill="white"/>
<path d="M56.2218 52.8437C56.2556 53.0125 56.2682 53.1897 56.3273 53.3543C56.5003 53.8522 56.6353 54.3754 56.8927 54.8311C57.4539 55.8311 57.7324 55.8902 58.7872 55.3965C58.9096 55.3374 59.0488 55.3163 59.1754 55.2741C59.0784 55.4091 59.0066 55.6243 58.8801 55.6665C58.2851 55.8606 57.7324 56.2404 57.0362 56.0421C56.7577 55.9619 56.4244 56.0843 56.1163 56.1138C55.7282 56.1518 55.3442 56.1855 54.956 56.2193C54.8801 56.1475 54.8083 56.0758 54.7324 56.0041C54.5931 55.6075 54.4244 55.2193 54.3273 54.8142C54.2387 54.4345 54.1079 53.9956 54.2176 53.6539C54.4412 52.9324 55.4708 52.5653 56.2218 52.8395V52.8437Z" fill="white"/>
<path d="M71.4362 61.5105C71.1577 61.0505 71.6092 60.9282 71.837 60.7932C72.1113 60.6286 72.47 60.6202 72.7738 60.4936C73.6092 60.1392 74.4615 59.8522 75.3434 59.637C75.5037 59.5991 75.6725 59.502 75.7864 59.3839C76.0944 59.0759 75.9932 58.6413 75.5712 58.5948C74.778 58.502 73.9636 58.329 73.2041 58.8143C73.0185 58.9324 72.7569 58.9197 72.5375 58.9915C71.4784 59.3417 70.4193 59.7046 69.3603 60.0548C69.1408 60.1265 68.8792 60.2826 68.7695 59.8986C69.7822 59.5147 70.7864 59.1054 71.8117 58.7552C72.9046 58.3839 74.0185 58.0759 75.124 57.7425C75.2083 57.7172 75.2927 57.7046 75.3813 57.6961C76.2126 57.6328 76.5543 57.8607 76.6894 58.5738C76.8286 59.2911 76.47 59.7805 75.7062 60.0337C74.2759 60.5062 72.8581 61.0168 71.4362 61.5105Z" fill="white"/>
<path d="M36.7136 70.2532C36.7136 70.4304 36.7136 70.6034 36.7136 70.7806C36.7811 70.9579 36.8486 71.1351 36.9161 71.3081C36.9161 71.4136 36.9161 71.519 36.9161 71.6203C36.9499 71.7258 36.9879 71.8313 37.0216 71.9368C37.0554 72.2279 37.1145 72.5233 37.1229 72.8144C37.1651 74.2828 37.2368 75.7511 37.2157 77.2195C37.2031 77.9747 37.0047 78.7258 36.9204 79.4811C36.8318 80.2743 36.7811 81.076 36.7052 81.8692C36.6081 82.8819 36.2537 83.8186 35.8107 84.7258C35.7896 84.768 35.6883 84.7722 35.625 84.7933C35.7896 83.9199 35.9794 83.0507 36.1144 82.1688C36.3001 80.9452 36.4858 79.7173 36.587 78.4853C36.6841 77.3376 36.7431 76.1815 36.6883 75.0338C36.6208 73.5697 36.4225 72.1098 36.2832 70.6498C36.241 70.2195 36.2242 69.7849 36.1693 69.3545C36.1524 69.2152 36.0385 69.0887 35.9668 68.9579C36.0174 68.865 36.068 68.768 36.1144 68.6836C36.798 69.0591 36.7136 69.6625 36.7052 70.2448L36.7136 70.2532Z" fill="white"/>
<path d="M54.7322 56.0083C54.8082 56.08 54.8799 56.1518 54.9559 56.2235C54.9221 56.329 54.8841 56.4345 54.8504 56.5399C54.4284 56.6454 54.0107 56.7594 53.5888 56.8522C53.2723 56.9197 52.9516 56.9619 52.631 57.0125C52.5803 57.021 52.5213 56.9914 52.4791 57.0125C52.0065 57.2024 51.5381 57.4049 51.0613 57.5948C50.4748 57.8269 49.8799 58.0378 49.2976 58.2741C48.9094 58.4345 48.5846 58.734 48.1078 58.7045C48.0234 58.7003 47.7997 59.0674 47.8377 59.2066C47.9094 59.4682 48.0782 59.8226 48.2934 59.9028C48.8504 60.1053 49.4073 60.1307 49.977 59.7256C50.3187 59.4851 50.8546 59.4387 51.2976 59.4598C51.5635 59.4724 51.7997 59.7847 51.5719 60.1475C51.0909 59.8353 50.6858 60.1982 50.2681 60.3205C49.3103 60.6032 48.3694 60.8184 47.4875 60.1264C46.8841 59.426 46.8799 59.2361 47.4706 58.5737C48.8166 57.6539 50.4073 57.3712 51.9137 56.8733C52.8462 56.5653 53.7913 56.3037 54.7322 56.0167V56.0083Z" fill="white"/>
<path d="M58.9682 56.9664C59.5842 56.7006 60.1918 56.4179 60.8163 56.1731C60.9808 56.1056 61.2002 56.1816 61.3775 56.1352C62.0146 55.9537 62.6391 55.7428 63.272 55.5529C64.1791 55.2828 65.0948 55.0339 66.0019 54.7512C66.4661 54.6035 66.9049 54.3841 67.3648 54.2238C68.3943 53.8651 69.4281 53.5234 70.4618 53.1774C70.7234 53.0888 70.9935 53.0255 71.2551 52.9369C71.5715 52.8314 71.8711 52.7596 72.0483 53.1563C70.6602 53.6246 69.2762 54.093 67.888 54.5529C65.3268 55.401 62.7656 56.2406 60.2045 57.0845C59.6855 57.2533 59.1749 57.4347 58.6602 57.612C58.7656 57.3968 58.8711 57.1858 58.9724 56.9706L58.9682 56.9664Z" fill="white"/>
<path d="M74.4727 78.4811C74.8271 77.8482 75.5528 77.7596 76.0929 77.6921C76.8229 77.5993 77.5148 77.439 78.2153 77.2533C79.3545 76.9495 80.4895 76.6077 81.6499 76.4094C82.5064 76.2617 83.2954 75.7132 84.2195 75.9368C84.2786 75.9495 84.363 75.92 84.4178 75.8778C85.2533 75.2575 86.3165 75.6457 87.2111 75.2533C87.4009 75.1689 87.7596 75.2153 87.7638 75.6077C86.1098 75.9664 84.4642 76.3672 82.8018 76.671C80.1942 77.1478 77.6457 77.8567 75.114 78.6288C74.9368 78.6837 74.7596 78.7259 74.5781 78.7723C74.5444 78.6752 74.5064 78.574 74.4727 78.4769V78.4811Z" fill="white"/>
<path d="M79.089 21.0086C79.0932 21.0424 79.089 21.0846 79.1059 21.1099C79.6628 21.8694 79.667 22.0888 79.1143 22.8863C79.0805 22.8525 79.0468 22.8145 79.0088 22.7808C78.667 22.2238 78.1903 22.4812 77.7388 22.574C77.6333 22.5403 77.5278 22.5065 77.4223 22.4685C77.6206 22.1985 77.8147 21.9327 78.0721 21.5825C77.9202 21.5571 77.6966 21.5318 77.4814 21.477C77.2873 21.4306 77.0848 21.3757 76.9118 21.2787C76.705 21.1689 76.5362 20.9411 76.3211 20.8862C75.6206 20.709 75.0215 20.401 74.5742 19.8272C74.6122 19.6837 74.6459 19.536 74.6839 19.3926C74.7978 19.4221 74.9118 19.439 75.0257 19.477C75.8232 19.7301 76.6164 19.9875 77.4139 20.2407C77.6966 20.3926 77.9793 20.5403 78.262 20.6922C78.5362 20.7976 78.8105 20.8989 79.0848 21.0044L79.089 21.0086Z" fill="white"/>
<path d="M74.4744 78.4808C74.5082 78.5779 74.5462 78.6791 74.5799 78.7762C73.5251 79.1475 72.466 79.5019 71.4196 79.8943C69.8373 80.485 68.2635 81.0926 66.6938 81.7002C66.4111 81.8099 66.2297 81.7298 66.082 81.4935C66.1031 81.4724 66.1242 81.4555 66.1453 81.4344C66.5377 81.4639 66.7909 81.2994 66.8837 80.907C66.9892 80.907 67.0947 80.907 67.2002 80.907C67.5166 81.0378 67.6601 80.8774 67.7276 80.5947C67.7951 80.5947 67.8668 80.5947 67.9344 80.5947C68.1031 80.658 68.2761 80.7846 68.4365 80.7677C68.5293 80.7593 68.5968 80.5188 68.6727 80.3838C69.3479 80.1728 70.0314 79.9872 70.6896 79.734C71.158 79.5526 71.5757 79.2403 72.0398 79.0547C72.6095 78.8268 73.2044 78.6538 73.7951 78.4935C74.0061 78.4344 74.2466 78.485 74.4744 78.485V78.4808Z" fill="white"/>
<path d="M74.2661 94.1012C74.1479 93.5484 74.0593 92.9788 73.5234 92.637C73.6627 92.5611 73.8061 92.4809 73.9454 92.405C74.4348 92.2235 74.9243 92.0421 75.4137 91.8564C75.5192 91.9366 75.612 92.0463 75.7302 92.0927C76.1648 92.2531 76.3293 92.5695 76.3378 93.0126C76.3378 93.1012 76.4686 93.1856 76.5403 93.27C75.7808 93.5484 75.0213 93.8227 74.2618 94.1012H74.2661Z" fill="white"/>
<path d="M25.9534 68.325C26.0294 68.1309 26.0927 67.9284 26.1855 67.7428C26.3838 67.3504 26.6285 67.1394 27.1433 67.2617C28.2277 67.5191 29.329 67.6837 30.4218 67.9158C30.599 67.9537 30.7509 68.1225 30.9155 68.2322C30.7129 68.2702 30.5146 68.3419 30.3121 68.3461C29.2108 68.3588 28.1053 68.3588 26.9999 68.3588C26.6496 68.3588 26.2994 68.3377 25.9492 68.325H25.9534Z" fill="white"/>
<path d="M73.5235 50.8441C73.4897 50.6753 73.4517 50.5065 73.418 50.3377C74.8568 49.8947 76.2829 49.4221 77.7344 49.0213C78.1901 48.8947 78.7049 48.9116 79.1817 48.9622C79.726 49.0171 79.9834 50.0044 79.5488 50.4432C79.3083 50.6879 78.9201 50.7934 78.5994 50.958C78.5614 50.8525 78.5235 50.7428 78.4813 50.6373C78.6332 50.5487 78.7724 50.4306 78.9327 50.3757C79.1943 50.2871 79.4348 50.1436 79.2998 49.8652C79.2028 49.6626 78.9412 49.4095 78.7471 49.4052C78.304 49.3926 77.8483 49.4812 77.4138 49.5909C76.7429 49.7555 76.0762 49.9538 75.418 50.169C74.7766 50.3757 74.1521 50.6204 73.5192 50.8483L73.5235 50.8441Z" fill="white"/>
<path d="M52.7422 80.3799C52.9785 80.2069 53.2232 80.0339 53.4553 79.8525C53.6451 79.7048 53.8392 79.5529 54.008 79.3757C54.3709 79.0001 54.6578 78.5191 55.084 78.2449C55.6578 77.8778 55.7675 77.3419 55.911 76.7807C56.1177 75.9706 56.316 75.1605 56.5439 74.3546C56.5776 74.2322 56.738 74.152 56.8435 74.0508C56.8435 75.4938 56.6662 76.9073 55.7928 78.1099C55.0924 79.0761 54.1768 79.8398 53.1683 80.4854C53.0291 80.4516 52.8856 80.4137 52.7464 80.3799H52.7422Z" fill="white"/>
<path d="M38.6977 70.4644C38.7483 70.8863 38.7947 71.3082 38.8454 71.7302C38.8707 72.4053 38.9255 73.0804 38.9213 73.7555C38.9045 75.1859 38.8623 76.6163 38.8201 78.0466C38.8201 78.1563 38.7441 78.266 38.7019 78.3757C38.6007 78.2365 38.4994 78.093 38.4023 77.9538C38.4023 75.5614 38.4023 73.1732 38.4023 70.7808C38.5036 70.6753 38.6049 70.5698 38.7019 70.4644H38.6977Z" fill="white"/>
<path d="M38.3979 77.9536C38.4992 78.0929 38.6005 78.2363 38.6975 78.3756C38.6005 79.5696 38.5161 80.7637 38.3979 81.9578C38.3009 82.9452 38.1659 83.9283 38.0477 84.9156C37.7439 84.9283 37.6385 84.7595 37.6638 84.4853C37.6933 84.1899 37.7397 83.8988 37.7735 83.6076C37.879 82.7342 38.0182 81.865 38.0731 80.9874C38.1279 80.0886 38.0942 79.1815 38.1279 78.2785C38.1279 78.1688 38.3051 78.0633 38.4022 77.9536H38.3979Z" fill="white"/>
<path d="M48.5199 80.4936C48.5115 80.2067 48.6507 80.0801 48.9081 80.2194C49.6465 80.6075 50.3849 80.9873 50.4566 81.9915C50.5579 83.3966 51.1697 84.7299 51.06 86.1687C51.0389 86.4177 51.0811 86.6793 50.7266 86.713C50.6591 86.1898 50.6127 85.6666 50.5241 85.1476C50.3131 83.9198 50.1191 82.6877 49.8406 81.4767C49.7815 81.2109 49.4102 80.9999 49.1528 80.8059C48.9714 80.6666 48.7351 80.5991 48.5241 80.4978L48.5199 80.4936Z" fill="white"/>
<path d="M19.6084 77.6371C19.2498 77.4303 19.3722 77.1096 19.4945 76.8734C19.7224 76.4345 19.9333 75.9071 20.3089 75.6455C20.7772 75.3206 20.811 74.8227 21.0895 74.4345C21.3426 74.0885 21.6 73.7468 21.8574 73.405C22.0304 73.1687 22.1907 72.924 22.3722 72.6961C22.4945 72.54 22.6422 72.4008 22.7814 72.2573C22.7814 72.405 22.7857 72.5485 22.7899 72.6961C22.1612 73.6919 21.5367 74.6877 20.8996 75.6793C20.4776 76.3375 20.0388 76.9873 19.6084 77.6413V77.6371Z" fill="white"/>
<path d="M61.3909 35.7428C61.3867 35.3715 61.5766 35.2828 61.9015 35.3841C62.8551 35.6795 63.8551 35.8356 64.7243 36.3883C65.0998 36.6246 65.5597 36.7259 65.9437 36.9453C66.0914 37.0297 66.142 37.2786 66.2348 37.4516C64.9859 36.9875 63.7411 36.5149 62.488 36.0592C62.239 35.9664 61.969 35.9242 61.7074 35.8567C61.6694 35.8314 61.6314 35.8061 61.5977 35.7807C61.526 35.7681 61.4584 35.7512 61.3867 35.7385L61.3909 35.7428Z" fill="white"/>
<path d="M78.4805 50.6328C78.5185 50.7383 78.5565 50.848 78.5987 50.9535C77.2949 51.4007 75.9911 51.8522 74.6873 52.2995C74.6198 51.7889 75.0164 51.6328 75.3624 51.4978C75.9025 51.2826 76.4594 51.1054 77.0206 50.9535C77.5016 50.8227 77.9953 50.7425 78.4805 50.637V50.6328Z" fill="white"/>
<path d="M50.7539 87.3416C50.851 87.4133 51.0071 87.4598 51.0408 87.5526C51.4164 88.5231 51.5514 89.5273 51.4754 90.5652C51.4585 90.8269 51.467 91.0927 51.4754 91.3543C51.4839 91.637 51.3657 91.7847 51.0704 91.7678C50.9944 90.4555 50.9227 89.1433 50.8467 87.8311C50.8383 87.6665 50.7877 87.502 50.7539 87.3374V87.3416Z" fill="white"/>
<path d="M86.9192 73.3291C86.9276 73.5907 86.9108 73.7975 86.5563 73.8481C85.7631 73.9578 84.9825 74.1519 84.185 74.2236C83.8306 74.2574 83.3243 74.5485 83.1133 73.9325C84.3791 73.7299 85.6492 73.5316 86.915 73.3291H86.9192Z" fill="white"/>
<path d="M79.0084 22.7846C79.0421 22.8184 79.0759 22.8563 79.1138 22.8901C78.7763 23.2741 78.3881 23.4133 77.8818 23.2108C77.2995 22.9745 76.7003 22.7762 76.1012 22.5736C75.924 22.5146 75.7341 22.4935 75.5527 22.4555C75.5442 22.3922 75.5358 22.3331 75.5273 22.2698C75.6581 21.7846 75.9873 21.9238 76.2953 22.0378C76.675 22.177 77.0506 22.3289 77.4261 22.4766C77.5316 22.5103 77.637 22.5441 77.7425 22.5821C78.1645 22.6496 78.5864 22.7213 79.0126 22.7888L79.0084 22.7846Z" fill="white"/>
<path d="M53.2733 90.0759C52.9822 90.2827 52.8387 90.1265 52.7501 89.8607C52.729 89.7974 52.7417 89.7215 52.7459 89.654C52.7797 88.481 52.8092 87.3038 52.8598 86.1308C52.8641 86.0084 52.9822 85.886 53.0455 85.7637C53.1214 87.2025 53.2016 88.6413 53.2776 90.0801L53.2733 90.0759Z" fill="white"/>
<path d="M67.9336 38.1688C68.1488 37.827 68.4315 37.9621 68.7015 38.0718C69.2965 38.3165 69.8787 38.6076 70.4863 38.8144C70.9842 38.9789 71.3724 39.3502 71.4146 39.865C70.2543 39.2996 69.0939 38.7384 67.9336 38.173V38.1688Z" fill="white"/>
<path d="M58.9651 56.9661C58.8596 57.1813 58.7541 57.3923 58.6528 57.6075C58.8216 57.9535 58.9904 58.3037 59.1634 58.6497C59.1001 58.8269 59.0326 58.9999 58.9651 59.1771C58.7161 58.8733 58.4587 58.5695 58.214 58.2615C58.0157 58.0083 57.83 57.7425 57.5938 57.4134C58.0663 57.291 58.3701 56.7509 58.9693 56.9661H58.9651Z" fill="white"/>
<path d="M52.9383 83.9664C52.4784 83.958 52.2969 83.7344 52.318 83.2702C52.3476 82.5572 52.3265 81.8399 52.3265 81.1226C52.4615 81.1226 52.5965 81.1226 52.7273 81.1226C52.7991 82.0719 52.8666 83.0213 52.9383 83.9707V83.9664Z" fill="white"/>
<path d="M22.7897 72.6962C22.7897 72.5485 22.7855 72.4051 22.7812 72.2574C22.9964 71.4177 23.3846 70.6878 24.123 70.1941C24.2665 70.0971 24.4775 70.1013 24.6547 70.0591C24.1357 70.827 23.6209 71.5992 23.0977 72.3629C23.0133 72.4852 22.8952 72.5823 22.7897 72.692V72.6962Z" fill="white"/>
<path d="M58.9648 59.1773C59.0281 59.0001 59.0956 58.8271 59.1632 58.6499C59.526 59.4938 59.8847 60.3334 60.2475 61.1773C59.9986 61.0381 59.7454 60.8988 59.4965 60.7596C59.3193 60.2322 59.1463 59.7048 58.9691 59.1773H58.9648Z" fill="white"/>
<path d="M79.0884 21.0082C78.8141 20.9027 78.5399 20.8015 78.2656 20.696C78.3922 20.6454 78.5272 20.5441 78.6454 20.5567C79.1855 20.62 79.7213 20.7213 80.2614 20.8057C80.2698 20.831 80.2741 20.8605 80.2783 20.8859C80.2065 20.8985 80.139 20.9112 80.0673 20.9196C80.0336 20.9196 79.9956 20.9196 79.9618 20.9154C79.6707 20.9449 79.3795 20.9787 79.0926 21.0082H79.0884Z" fill="white"/>
<path d="M65.8058 81.1183C65.713 80.7681 65.6202 80.4137 65.5273 80.0635C65.6244 80.0635 65.7214 80.0635 65.8185 80.0635C65.8565 80.2407 65.8902 80.4137 65.9282 80.5909C65.9999 80.8736 66.0674 81.1521 66.1392 81.4348C66.1181 81.4559 66.097 81.477 66.0759 81.4939C65.9873 81.3673 65.8944 81.2449 65.8058 81.1183Z" fill="white"/>
<path d="M52.7257 81.1183C52.5907 81.1183 52.4556 81.1183 52.3248 81.1183C52.3122 80.7849 52.2953 80.4474 52.7426 80.3799C52.7426 80.4896 52.7426 80.5993 52.7468 80.7132C52.7383 80.8482 52.7299 80.9833 52.7215 81.1183H52.7257Z" fill="white"/>
<path d="M52.7464 80.7132C52.7464 80.6035 52.7464 80.4938 52.7422 80.3799C52.8814 80.4136 53.0249 80.4516 53.1641 80.4854C53.0249 80.5613 52.8856 80.6373 52.7464 80.709V80.7132Z" fill="white"/>
<path d="M46.8477 49.0885C46.873 49.0083 46.8983 48.9239 46.9194 48.8438C46.8941 48.9239 46.8688 49.0083 46.8477 49.0885Z" fill="white"/>
<path d="M79.957 20.9155C79.9908 20.9155 80.0288 20.9155 80.0625 20.9197C80.0288 20.9197 79.9908 20.9197 79.957 20.9155Z" fill="#FCFAD1"/>
<path d="M61.6016 35.7847C61.6395 35.81 61.6775 35.8353 61.7113 35.8606C61.6733 35.8353 61.6353 35.81 61.6016 35.7847Z" fill="white"/>
<path d="M67.707 38.0845C67.745 38.1098 67.783 38.1351 67.821 38.1646C67.783 38.1393 67.745 38.114 67.707 38.0845Z" fill="#13100F"/>
<path d="M22.1638 19.5149C22.0963 18.882 22.0245 18.2491 21.957 17.612C22.0921 17.4727 22.2271 17.3335 22.3621 17.19C22.438 17.2871 22.5393 17.3757 22.5773 17.4854C22.6828 17.7765 22.7081 18.1056 22.86 18.3673C23.1216 18.8272 23.3537 19.2575 23.3283 19.8229C23.3115 20.2238 23.6153 20.3124 23.9655 20.0761C24.1216 19.9706 24.2988 19.9073 24.4718 19.8272C24.4465 20.4137 24.4296 21.0002 25.0878 21.304C25.168 22.2111 25.2482 23.1183 25.3368 24.1225C25.8094 23.9158 26.2229 23.747 26.6237 23.5571C27.5098 23.1352 28.3958 22.7048 29.2777 22.2702C30.1933 21.8145 31.1047 21.3504 32.0203 20.8905C32.2186 20.7892 32.4254 20.7175 32.1553 20.4643C31.2524 19.612 30.3579 18.7512 29.4549 17.9031C27.7967 16.3419 26.2482 14.6879 24.9106 12.8356C24.8178 12.709 24.6279 12.6542 24.4802 12.5656C24.3832 11.9073 24.6532 11.3546 24.9233 10.7808C25.0456 10.5149 25.0752 10.1858 25.071 9.89046C25.0667 9.574 24.9655 9.26177 24.9064 8.94531C25.4929 9.71324 26.0878 10.4685 26.6659 11.2449C28.0372 13.0972 29.6321 14.7301 31.3494 16.266C32.9781 17.7217 34.4802 19.3208 36.0119 20.882C36.8051 21.6921 37.5857 22.5192 38.3072 23.3926C39.4212 24.7386 40.5351 26.0888 41.5435 27.5107C42.6659 29.093 43.6701 30.7639 44.7292 32.3926L44.8431 32.6879C44.7039 33.1225 44.6026 33.5192 45.0161 33.92C45.2693 34.1647 45.3874 34.5529 45.5393 34.8905C45.5731 34.9622 45.5056 35.0803 45.476 35.1774C45.3368 35.5782 45.1933 35.9791 45.0499 36.3799C44.3916 36.4643 44.0499 36.0635 43.7756 35.5571C43.8051 35.3757 43.9106 35.1689 43.8558 35.0213C43.5942 34.3462 43.3241 33.6711 42.9823 33.0381C42.8051 32.7048 42.4676 32.4601 42.206 32.1732C42.1047 31.8483 42.0372 31.5065 41.898 31.2027C41.7334 30.8483 41.5478 30.4854 41.2904 30.1985C41.0161 29.8905 40.9148 29.3124 40.2988 29.4348C39.0499 27.92 37.8262 26.3841 36.5393 24.9031C35.8558 24.1141 35.0583 23.4305 34.3368 22.6711C34.1131 22.4348 33.9359 22.477 33.6996 22.5909C32.8473 23.0128 31.9866 23.4305 31.1342 23.8483C30.8811 23.8019 30.5604 23.6373 30.3832 23.7343C29.7883 24.055 29.2397 24.4559 28.687 24.8483C28.2102 25.1858 27.6954 25.3504 27.1132 25.3208C27.265 24.7175 27.168 24.6204 26.5773 24.7386C26.3748 24.7808 26.1596 24.7765 25.9528 24.7934H25.7418C25.5731 24.7597 25.4043 24.7132 25.2355 24.6879C24.8009 24.6204 24.244 24.1985 24.2777 23.8736C24.3283 23.3208 24.0456 22.7386 24.4296 22.2069C24.4929 22.1183 24.4507 21.882 24.3748 21.7681C24.1216 21.3968 23.8262 21.0508 23.5562 20.7048C23.2777 20.8483 23.033 20.9748 22.7883 21.1014C22.7165 20.8398 22.6701 20.5698 22.5688 20.3208C22.4591 20.0466 22.6279 19.6204 22.168 19.5234L22.1638 19.5149Z" fill="white"/>
<path d="M0.337816 55.3799C0.337816 55.2027 0.333597 55.0255 0.329378 54.8482C0.358913 54.6626 0.417985 54.4812 0.417985 54.2955C0.426424 52.4896 0.426424 50.6837 0.417985 48.8778C0.417985 48.5487 0.350475 48.2196 0.316719 47.8947C0.316719 47.6837 0.316719 47.4685 0.3125 47.2575C0.439082 46.1098 0.569884 44.9622 0.692247 43.8145C0.717563 43.5571 0.713344 43.2955 0.726002 43.0339C1.05934 41.5318 1.32516 40.0086 1.74288 38.5276C2.28718 36.5993 2.95385 34.709 3.56566 32.8018C4.10575 31.4685 4.64583 30.1352 5.1817 28.7976C5.42642 28.3757 5.67115 27.9495 5.9201 27.5276C6.2914 27.6541 6.63318 27.7639 7.00026 27.4432C7.17326 27.2913 7.47706 27.2871 7.72178 27.2153C7.40111 28.0423 7.0509 28.8567 6.75976 29.6921C6.14372 31.4474 5.48972 33.19 4.96651 34.9748C4.49815 36.5782 4.16904 38.2196 3.82305 39.8525C3.71334 40.3757 3.70913 40.9242 3.70069 41.4601C3.67115 43.2828 3.66271 45.1098 3.64583 46.9326C3.24499 46.9326 3.27453 47.1942 3.28718 47.4769C3.29984 47.7428 3.23233 48.0128 3.24077 48.2786C3.25765 48.8103 3.19858 49.3714 3.36313 49.8609C3.48972 50.2449 3.4222 50.3841 3.11841 50.4896C2.64583 50.6542 2.50237 50.9664 2.52769 51.4601C2.56566 52.2828 2.25343 52.5613 1.43908 52.5233C1.00448 52.5023 0.991825 52.785 0.95385 53.1014C0.873681 53.7554 0.772416 54.4052 0.650053 55.055C0.624736 55.1774 0.451741 55.2702 0.346255 55.3757L0.337816 55.3799Z" fill="white"/>
<path d="M40.6245 13.9199C41.2574 15.5064 42.038 17.0169 43.1435 18.3207C44.3249 19.7131 45.6793 20.9199 47.5907 21.173C48.3882 21.2785 49.2279 21.346 50.0127 21.2152C51.2574 21.0085 51.8566 20.0211 52.1857 18.9072C52.3882 18.2194 52.4346 17.4895 52.5528 16.7764C52.7595 16.7047 52.962 16.6372 53.1688 16.5654C53.135 16.8439 53.0928 17.1182 53.0633 17.3966C52.9578 18.3165 52.8734 19.2405 52.4135 20.0675C52.2658 20.3334 52.0507 20.5907 51.8059 20.768C51.3882 21.0718 50.8692 21.249 50.4895 21.5907C49.4726 22.5106 48.6582 22.595 47.6625 21.7891C47.2279 21.8861 47.2447 22.2152 47.2701 22.5401C47.2869 22.7637 47.3376 22.9874 47.3713 23.211C46.6836 22.8945 45.9958 22.5823 45.308 22.2574C45.1055 22.1604 44.9156 22.0464 44.8355 22.3798C44.8017 22.3671 44.7637 22.3587 44.73 22.346C44.6962 22.3165 44.6582 22.2912 44.6245 22.2616C43.2363 21.4557 42.1308 20.3376 41.135 19.1013C39.519 17.0886 38.6329 14.73 37.9916 12.2658C37.9283 12.0211 37.9241 11.7553 37.8945 11.5021C38.4093 11.4304 38.3418 10.9916 38.3966 10.6582C38.4937 10.0464 38.5485 9.42618 38.6034 8.80593C38.6329 8.4726 38.6751 8.11395 38.211 8.02534C38.5232 7.18146 38.8144 6.32492 39.1604 5.49369C39.2236 5.34179 39.4979 5.19833 39.6793 5.19411C40.0127 5.18146 40.3755 5.21099 40.6878 5.32914C41.1646 5.51057 41.3671 6.11395 41.1983 6.65403C40.8903 7.62871 40.5696 8.59918 40.2701 9.57808C40.2068 9.78905 40.2068 10.0211 40.1815 10.2405C39.789 10.1941 39.654 10.3798 39.6709 10.7595C39.692 11.2279 39.6625 11.7004 39.6836 12.173C39.692 12.3334 39.7722 12.4937 39.827 12.654C39.9156 12.9072 40.0549 13.1561 40.0886 13.4177C40.135 13.7722 40.2447 13.9831 40.6371 13.9283L40.6245 13.9199Z" fill="white"/>
<path d="M28.7906 63.8651C28.6641 63.3967 28.5417 62.9284 28.4151 62.46C28.0902 62.3208 27.6894 62.114 27.2674 61.9748C27.0902 61.9157 26.8666 62.0001 26.6641 62.017C26.9847 61.5571 27.3054 61.0929 27.6219 60.633C28.0776 60.8187 28.162 60.3672 28.3349 60.1604C28.7274 59.6963 29.0354 59.1604 29.4025 58.6752C29.8075 58.1436 30.2463 57.633 30.6641 57.1056C30.7274 57.0254 30.7358 56.9073 30.7906 56.8187C30.9383 56.574 31.0902 56.3292 31.2548 56.0972C31.8539 55.2617 32.778 54.5866 32.5881 53.3672C33.3814 52.1478 34.0818 50.8609 35.1873 49.8693C35.6641 49.4432 36.3771 49.3461 36.8413 49.6415C37.3729 49.9832 37.529 50.287 37.4404 51.055C37.356 51.7554 37.2885 52.46 37.2126 53.1647C36.7906 53.2786 36.7063 53.6035 36.702 53.9748C36.702 54.7934 36.702 55.6119 36.702 56.4305C36.0354 55.9832 35.9299 56.0423 35.7358 56.9031C35.7063 57.0423 35.5417 57.152 35.4362 57.2744C35.4278 56.46 35.3392 56.3672 34.7147 56.536C34.7485 56.1225 34.7864 55.709 34.8202 55.2955C34.7822 55.287 34.7442 55.2786 34.7063 55.2659C34.4278 55.5908 34.1493 55.9199 33.8708 56.2448C33.6472 56.055 33.4911 56.0296 33.297 56.3334C33.0396 56.7385 32.6852 57.0803 32.4025 57.4685C32.2463 57.6879 32.1451 57.9453 32.0227 58.19C31.9088 58.4178 31.7991 58.6499 31.6894 58.8777C31.4868 59.2997 31.0438 59.6457 31.2506 60.2026C30.951 60.6837 30.6725 61.1773 30.3518 61.6457C29.8413 62.3925 29.3096 63.1183 28.7864 63.8567L28.7906 63.8651Z" fill="white"/>
<path d="M25.7376 24.7891H25.9485C26.1047 24.8946 26.2523 25.0085 26.4169 25.1014C26.5688 25.1858 26.7376 25.2448 26.8979 25.3166C26.7249 25.422 26.5477 25.6204 26.3747 25.6119C25.881 25.5908 25.6363 25.9368 25.4338 26.249C25.3241 26.4136 25.4675 26.7469 25.4971 27.0001C25.535 27.46 25.5772 27.9157 25.6152 28.3756C25.5182 28.4811 25.3325 28.5866 25.3325 28.6963C25.3114 29.7638 25.2945 30.8355 25.3325 31.9031C25.3452 32.2828 25.4211 32.7216 25.9443 32.8018C26.0118 33.4685 26.0793 34.1393 26.1426 34.806C26.0076 34.9621 25.7671 35.1098 25.7587 35.2701C25.7165 35.979 25.7249 36.6963 25.7502 37.4052C25.7629 37.7596 25.9654 37.8566 26.2734 37.6414C26.3367 38.3123 26.4 38.9832 26.4633 39.6541C26.3663 39.7554 26.2481 39.8482 26.1764 39.9663C26.1384 40.0296 26.1679 40.1393 26.1637 40.2237C26.13 41.1478 26.0287 42.076 26.0836 42.9959C26.1173 43.5402 26.0203 43.9241 25.611 44.2533C25.5182 44.3292 25.4844 44.4769 25.4253 44.5908C25.2819 44.5908 25.1426 44.5908 24.9992 44.5908L24.8852 44.5106L24.8895 44.5149C24.881 44.4305 24.9063 44.3166 24.8641 44.2617C24.4464 43.768 24.4549 43.1815 24.4717 42.5866C24.4844 42.1689 24.4717 41.7554 24.4717 41.3377C24.4422 41.1689 24.4675 40.9621 24.3789 40.8355C23.9359 40.2068 24.1511 39.4811 24.0498 38.8018C24.0245 37.941 24.0287 37.076 23.957 36.2195C23.9021 35.595 23.6827 34.9832 23.6447 34.3545C23.5899 33.4642 23.6405 32.5697 23.6236 31.6794C23.6236 31.46 23.535 31.2406 23.4844 31.0254C23.3916 30.6288 23.2987 30.2322 23.2059 29.8355C23.2059 29.3967 23.1722 28.9579 23.2144 28.5233C23.2608 28.0465 23.092 27.8398 22.6194 27.7427C21.8177 27.5782 21.7587 27.3841 22.1806 26.6794C22.3283 26.4305 22.5308 26.1604 22.189 25.8988C22.2819 25.8398 22.3789 25.7807 22.4717 25.7216C22.6447 25.7216 22.8177 25.7216 22.995 25.7216C23.2903 25.7216 23.5857 25.7132 23.881 25.7216C24.265 25.7343 24.476 25.5782 24.4717 25.1731C24.4717 25.0549 24.4971 24.941 24.5182 24.7554C24.8135 24.8229 25.0751 24.9073 25.3409 24.9284C25.4675 24.9368 25.6025 24.8271 25.7376 24.7722V24.7891Z" fill="white"/>
<path d="M24.9039 8.94511C24.963 9.26156 25.06 9.5738 25.0685 9.89025C25.0727 10.1898 25.0474 10.5189 24.9208 10.7805C24.6507 11.3544 24.3849 11.9114 24.4777 12.5654C24.482 12.5991 24.4777 12.6286 24.4566 12.6582C24.3343 12.7805 24.1064 12.8987 24.1022 13.0211C24.06 14.0211 24.0305 15.0211 24.0642 16.0211C24.0769 16.405 24.3216 16.7763 24.3512 17.1645C24.4271 18.0506 24.4355 18.9409 24.4693 19.8312C24.3005 19.9114 24.1191 19.9746 23.963 20.0801C23.6128 20.3164 23.309 20.2236 23.3258 19.827C23.3512 19.2658 23.1191 18.8312 22.8575 18.3713C22.7056 18.1097 22.6803 17.7805 22.5748 17.4894C22.5368 17.3797 22.4313 17.2911 22.3596 17.1941C22.3596 16.0928 22.3596 14.9915 22.3596 13.8903C22.3596 13.7341 22.3385 13.578 22.309 13.4261C22.1908 12.8059 22.0052 12.1898 21.9545 11.5654C21.8912 10.7679 21.9714 9.95776 21.9208 9.15608C21.9039 8.91135 21.6718 8.67928 21.5368 8.443C21.5115 7.78477 21.7773 7.19827 22.3132 6.89869C22.6339 6.72148 23.3301 6.70882 23.5368 6.92401C24.0853 7.51051 24.4609 8.26156 24.9039 8.94511Z" fill="white"/>
<path d="M22.1912 25.9158C22.533 26.1774 22.3347 26.4475 22.1828 26.6964C21.7609 27.4011 21.8199 27.5952 22.6216 27.7597C23.0942 27.8568 23.263 28.0677 23.2165 28.5403C23.1744 28.9749 23.2081 29.4137 23.2081 29.8525C23.0731 29.8525 22.9381 29.8525 22.803 29.8525V28.034C22.6258 28.1015 22.4992 28.1268 22.4022 28.1859C21.5625 28.7091 20.7313 29.2365 19.8959 29.7597C18.8537 30.4095 18.2292 29.8272 17.7355 29.0255C17.5372 28.7007 17.5921 28.4179 17.8706 28.207C18.3347 27.8568 18.7988 27.4855 19.3136 27.2239C20.2545 26.7471 21.2292 26.3462 22.1912 25.9116V25.9158Z" fill="white"/>
<path d="M22.9891 67.1182C22.6726 67.6751 22.3562 68.2363 22.0397 68.7933C21.352 68.8734 20.6642 68.9452 19.9806 69.0338C19.0861 69.1519 18.1916 69.2785 17.2971 69.4051C17.3055 69.3882 17.3098 69.3713 17.3224 69.3587C17.487 69.1857 17.6515 69.0127 17.8161 68.8439C17.5925 68.692 17.3899 68.4768 17.141 68.4051C16.7528 68.2912 16.3309 68.2785 15.9258 68.211C15.8836 68.2026 15.8541 68.1097 15.8203 68.0591C16.3393 67.9494 16.8541 67.8059 17.3773 67.7342C18.5756 67.5654 19.7823 67.4304 20.9849 67.2827C21.6515 67.2321 22.3182 67.1772 22.9849 67.1266L22.9891 67.1182Z" fill="white"/>
<path d="M5.91797 27.5318C6.6859 26.1141 7.44118 24.6879 8.23021 23.2871C8.534 22.7428 8.92219 22.2491 9.2724 21.7301C9.31037 21.6879 9.34413 21.6457 9.3821 21.6036C9.40742 21.574 9.43274 21.5445 9.46227 21.5149C9.47915 21.5192 9.49603 21.5234 9.51712 21.5276C9.76607 21.5571 10.1374 21.3588 10.1374 21.8567C9.76607 22.7386 9.4032 23.6246 9.01923 24.5023C8.65637 25.3335 8.28084 26.1563 7.90531 26.9791C7.86312 27.0677 7.78295 27.1394 7.71966 27.2154C7.47493 27.2871 7.17113 27.2913 6.99814 27.4432C6.63527 27.7639 6.28928 27.6542 5.91797 27.5276V27.5318Z" fill="white"/>
<path d="M41.0547 62.2364C41.1222 61.9199 41.1855 61.6077 41.253 61.2912C41.5188 60.7258 41.7846 60.1562 42.0547 59.5908C42.3247 59.7301 42.5905 59.8735 42.8648 60.0043C43.3543 60.2322 43.8479 60.4474 44.3374 60.6668C44.1897 61.2955 44.0378 61.9242 43.8901 62.5528C43.6834 62.8735 43.4724 63.19 43.2657 63.5107C43.0336 62.8187 42.6412 62.3166 41.8437 62.2786C41.5821 62.2659 41.3205 62.249 41.0547 62.2364Z" fill="white"/>
<path d="M53.1659 16.5613C52.9592 16.633 52.7567 16.7005 52.5499 16.7722C52.4782 15.5275 52.4697 14.2743 52.3094 13.0381C52.1364 11.671 51.9128 10.2954 51.5541 8.97055C51.0098 6.96633 50.3305 5.00009 49.6891 3.02118C49.5415 2.56971 49.3263 2.13511 49.1406 1.69629C49.4951 2.16886 49.9465 2.59502 50.1786 3.11823C50.6596 4.18996 51.0647 5.29966 51.4149 6.42203C51.6512 7.18152 51.7356 7.99165 51.9001 8.77646C51.9381 8.95367 52.0351 9.11823 52.1069 9.29123C52.2545 10.0338 52.4191 10.7765 52.5415 11.5275C52.6259 12.0338 52.6385 12.5528 52.6976 13.0634C52.7524 13.5022 52.8157 13.941 52.9043 14.3714C52.9676 14.6878 53.1195 14.9874 53.1533 15.3039C53.1955 15.7216 53.1659 16.1478 53.1617 16.5697L53.1659 16.5613Z" fill="white"/>
<path d="M22.8008 29.8525C22.9358 29.8525 23.0708 29.8525 23.2058 29.8525C23.2987 30.2492 23.3915 30.6458 23.4843 31.0424C23.535 31.2618 23.6193 31.477 23.6236 31.6964C23.6404 32.5867 23.5898 33.4855 23.6447 34.3715C23.6826 34.996 23.9063 35.6078 23.9569 36.2365C24.0286 37.093 24.0244 37.958 24.0497 38.8188C23.9147 38.8188 23.7797 38.8188 23.6447 38.8188C23.6025 38.6205 23.5434 38.4222 23.5265 38.2196C23.4168 37.034 23.3029 35.8441 23.2143 34.6584C23.1594 33.9116 23.1637 33.1606 23.1004 32.4137C23.0286 31.5572 22.9063 30.7091 22.805 29.8568L22.8008 29.8525Z" fill="white"/>
<path d="M21.5355 8.43896C21.6705 8.67525 21.9068 8.90732 21.9194 9.15205C21.9701 9.95373 21.8899 10.7639 21.9532 11.5613C22.0038 12.1858 22.1895 12.8018 22.3076 13.4221C22.3372 13.574 22.3583 13.7301 22.3583 13.8862C22.3625 14.9875 22.3583 16.0888 22.3583 17.19C22.2232 17.3293 22.0882 17.4685 21.9532 17.612C21.8772 16.1731 21.7929 14.7301 21.7253 13.2913C21.6536 11.6753 21.5945 10.055 21.5312 8.43896H21.5355Z" fill="white"/>
<path d="M32.5951 53.3711C32.7808 54.5905 31.861 55.2656 31.2618 56.1011C31.093 56.3331 30.9454 56.5778 30.7977 56.8226C30.7428 56.9112 30.7344 57.0293 30.6711 57.1095C30.2534 57.6369 29.8146 58.1432 29.4095 58.6791C29.0424 59.1643 28.7302 59.696 28.342 60.1643C28.169 60.3711 28.0846 60.8226 27.6289 60.6369C28.3125 59.5989 28.9833 58.5483 29.6838 57.5188C30.5741 56.2023 31.4812 54.8985 32.3884 53.5947C32.4433 53.5146 32.5276 53.447 32.5994 53.3753L32.5951 53.3711Z" fill="white"/>
<path d="M44.8281 22.3754C44.9125 22.0421 45.0982 22.156 45.3007 22.2531C45.9842 22.578 46.6762 22.8902 47.364 23.2066C47.9674 23.6834 48.6889 24.0379 48.6973 25.0041C48.7015 25.7088 48.8577 26.4092 48.9463 27.1096C48.8492 27.2868 48.748 27.4598 48.6509 27.637C48.5075 26.8353 48.3767 26.0336 48.2121 25.2362C48.1277 24.8438 48.0222 24.4387 47.8408 24.0843C47.7395 23.8902 47.4779 23.7594 47.2627 23.6455C46.4568 23.2109 45.6383 22.7974 44.8281 22.3754Z" fill="white"/>
<path d="M25.4985 27.0043C25.469 26.7469 25.3255 26.4178 25.4353 26.2532C25.6378 25.941 25.8867 25.595 26.3762 25.6161C26.545 25.6245 26.7222 25.4262 26.8994 25.3207C26.9711 25.3207 27.0386 25.3207 27.1104 25.3207C27.6926 25.3502 28.2074 25.1899 28.6842 24.8481C29.2327 24.4557 29.7855 24.0549 30.3804 23.7342C30.5576 23.6372 30.8783 23.8017 31.1315 23.8481C29.4353 24.73 27.739 25.6034 26.0513 26.4979C25.8361 26.6118 25.6842 26.8313 25.4985 27.0043Z" fill="white"/>
<path d="M37.475 60.9707C37.6184 61.8526 37.7661 62.7344 37.9096 63.6163C37.9518 63.8694 37.9771 64.1226 38.0108 64.3715C37.7872 64.6922 37.6775 64.5319 37.5425 64.2829C36.9897 63.2787 37.1248 62.2028 37.1585 61.131C37.1796 60.5783 37.1332 60.0298 36.707 59.6036C36.707 59.3926 36.707 59.1817 36.707 58.9707C36.8505 58.9707 36.994 58.9707 37.1416 58.9707C37.2513 59.6416 37.3653 60.3083 37.475 60.9791V60.9707Z" fill="white"/>
<path d="M25.4219 44.6032C25.4809 44.4893 25.5147 44.3416 25.6075 44.2657C26.0168 43.9323 26.1139 43.5484 26.0801 43.0083C26.021 42.0884 26.1223 41.1602 26.1603 40.2361C26.1603 40.1475 26.1307 40.042 26.1729 39.9787C26.2489 39.8606 26.3628 39.772 26.4598 39.6665C26.5696 40.8142 26.6666 41.9619 26.7932 43.1095C26.8776 43.8522 26.5864 44.3247 25.8649 44.5104C25.7172 44.5484 25.5696 44.5737 25.4219 44.6032Z" fill="white"/>
<path d="M37.1419 58.962C36.9985 58.962 36.855 58.962 36.7073 58.962C36.7073 58.2954 36.7073 57.6287 36.7031 56.9578C36.7031 56.7806 36.7031 56.6076 36.7031 56.4304C36.7031 55.6118 36.7031 54.7932 36.7031 53.9747C36.7031 53.6034 36.7917 53.2743 37.2137 53.1646C37.1841 54.8523 37.1546 56.5401 37.1293 58.2278C37.1293 58.4726 37.1377 58.7173 37.1377 58.962H37.1419Z" fill="white"/>
<path d="M22.1641 19.515C22.624 19.6162 22.4552 20.0382 22.5649 20.3124C22.6662 20.5614 22.7126 20.8314 22.7843 21.093C22.7843 21.8314 22.7843 22.5698 22.7843 23.3082C22.7843 23.6753 22.8096 24.0466 22.7717 24.4095C22.759 24.5445 22.586 24.6584 22.4847 24.7808C22.4088 23.6626 22.3328 22.5445 22.2611 21.4264C22.2231 20.7892 22.1978 20.1479 22.1641 19.5107V19.515Z" fill="white"/>
<path d="M23.5088 66.46C23.1206 66.4052 22.7282 66.3461 22.34 66.2955C21.6776 66.2111 21.0151 66.1309 20.3569 66.0465C19.8759 65.8398 19.2936 65.7596 19.1797 65.0972C19.7746 65.2659 20.3611 65.4854 20.9645 65.5866C21.7324 65.7174 22.5172 65.747 23.2936 65.8229C23.5004 65.844 23.7071 65.8778 23.9139 65.9031C23.9392 65.9664 23.9645 66.0254 23.9898 66.0887C23.8295 66.2111 23.6691 66.3335 23.5088 66.4558V66.46Z" fill="white"/>
<path d="M48.6488 27.6373C48.7458 27.4601 48.8471 27.2871 48.9441 27.1099C49.0833 27.3841 49.3323 27.6542 49.345 27.9326C49.3956 28.9242 49.3618 29.92 49.366 30.9158C49.366 31.1985 49.2521 31.3419 48.961 31.3251C48.9146 30.9369 48.8682 30.5529 48.8175 30.1647C48.8175 29.9537 48.8175 29.7428 48.8175 29.5318C48.7838 29.1816 48.7458 28.8272 48.712 28.477C48.6909 28.1943 48.6698 27.9158 48.6445 27.6331L48.6488 27.6373Z" fill="white"/>
<path d="M25.9391 32.806C25.4159 32.7259 25.3442 32.2871 25.3273 31.9073C25.2893 30.8398 25.3062 29.7681 25.3273 28.7006C25.3273 28.5909 25.5129 28.4854 25.61 28.3799C25.6859 29.5318 25.7619 30.6837 25.842 31.8356C25.8631 32.1605 25.9053 32.4811 25.9349 32.806H25.9391Z" fill="white"/>
<path d="M24.4712 41.3502C24.4712 41.768 24.4839 42.1815 24.4712 42.5992C24.4543 43.1941 24.4417 43.7806 24.8636 44.2743C24.91 44.3291 24.8847 44.4431 24.8889 44.5274C24.2602 44.2954 23.986 43.8228 23.9438 43.173C23.8847 42.2827 23.8172 41.3966 23.7539 40.5063C23.8678 40.6076 24.0029 40.6962 24.0957 40.8101C24.2349 40.9789 24.3488 41.1688 24.4712 41.3502Z" fill="white"/>
<path d="M38.2026 8.01709C38.6667 8.10992 38.6288 8.46857 38.595 8.79768C38.5401 9.41793 38.4811 10.0382 38.3883 10.65C38.3376 10.9833 38.4051 11.4222 37.8861 11.4939C37.8482 10.3209 37.7891 9.14789 38.2026 8.01709Z" fill="white"/>
<path d="M44.8365 32.6878C45.212 33.5486 45.6002 34.4009 45.9504 35.2743C46.0137 35.4346 45.9082 35.6667 45.8787 35.865L45.0433 36.3756C45.1867 35.9747 45.3302 35.5739 45.4694 35.173C45.5032 35.0802 45.5665 34.9579 45.5327 34.8861C45.3766 34.5486 45.2627 34.1604 45.0095 33.9157C44.596 33.5148 44.6973 33.1224 44.8365 32.6836V32.6878Z" fill="white"/>
<path d="M40.6239 13.9199C40.2273 13.9747 40.1176 13.7637 40.0754 13.4093C40.0416 13.1477 39.9024 12.903 39.8138 12.6456C39.7589 12.4853 39.6787 12.3249 39.6703 12.1646C39.6492 11.692 39.6787 11.2194 39.6576 10.7511C39.6408 10.3713 39.7758 10.1857 40.1682 10.2321C39.9277 11.5106 40.2906 12.7131 40.6239 13.9199Z" fill="white"/>
<path d="M42.1972 32.1689C42.463 32.4559 42.7964 32.7006 42.9736 33.0339C43.3154 33.6668 43.5854 34.3419 43.847 35.017C43.9018 35.1647 43.7964 35.3715 43.7668 35.5529C43.7246 35.5234 43.6698 35.4981 43.6445 35.4559C43.117 34.4348 42.5938 33.4137 42.0664 32.3884C42.1086 32.3166 42.1508 32.2407 42.193 32.1689H42.1972Z" fill="white"/>
<path d="M22.4853 24.789C22.5866 24.6666 22.7554 24.5485 22.7722 24.4177C22.8102 24.0548 22.7849 23.6835 22.7849 23.3164C22.8862 23.3966 23.0381 23.4514 23.0887 23.5569C23.4389 24.2953 23.46 25.0337 22.9959 25.7426C22.8229 25.7426 22.6499 25.7426 22.4727 25.7426C22.4727 25.4261 22.4811 25.1097 22.4853 24.789Z" fill="white"/>
<path d="M26.2709 37.6499C25.9628 37.8651 25.7603 37.768 25.7477 37.4136C25.7223 36.7005 25.7139 35.9874 25.7561 35.2786C25.7645 35.1182 26.005 34.9664 26.1401 34.8145C26.1823 35.7596 26.2245 36.7047 26.2666 37.6541L26.2709 37.6499Z" fill="white"/>
<path d="M42.2001 32.1687C42.1579 32.2404 42.1158 32.3164 42.0736 32.3881C41.4786 31.4008 40.8879 30.4134 40.293 29.4303C40.909 29.308 41.006 29.886 41.2845 30.194C41.5419 30.481 41.7276 30.8438 41.8921 31.1983C42.0356 31.5063 42.1031 31.8438 42.2001 32.1687Z" fill="white"/>
<path d="M15.5064 68.1433C14.9832 68.7087 14.2912 68.9534 13.5655 69.0631C13.325 69.1011 12.941 69.0167 12.9747 68.5737C13.7596 68.4218 14.5444 68.2699 15.3334 68.1138C15.3925 68.1222 15.4515 68.1307 15.5064 68.1391V68.1433Z" fill="white"/>
<path d="M10.1359 21.8566C10.1359 21.3587 9.76457 21.557 9.51562 21.5275C9.89537 21.0085 10.2751 20.4853 10.6506 19.9663C10.6971 20.114 10.7435 20.2617 10.7941 20.4093L10.1359 21.8566Z" fill="white"/>
<path d="M24.4712 41.35C24.3489 41.1686 24.2349 40.9787 24.0957 40.8099C23.9986 40.6918 23.8678 40.6074 23.7539 40.5061C23.7202 39.9449 23.6822 39.3795 23.6484 38.8184C23.7835 38.8184 23.9185 38.8184 24.0535 38.8184C24.1548 39.4977 23.9354 40.2192 24.3826 40.8521C24.4712 40.9787 24.4459 41.1854 24.4754 41.3542L24.4712 41.35Z" fill="white"/>
<path d="M10.7919 20.4092C10.7455 20.2615 10.6991 20.1138 10.6484 19.9661C10.8594 19.6497 11.0704 19.3375 11.2813 19.021C11.332 19.0463 11.3868 19.0716 11.4375 19.0969L10.7919 20.4134V20.4092Z" fill="white"/>
<path d="M15.505 68.1436C15.446 68.1352 15.3911 68.1268 15.332 68.1183C15.3911 68.1015 15.4502 68.0804 15.5092 68.0635C15.5092 68.093 15.5092 68.1183 15.5092 68.1479L15.505 68.1436Z" fill="white"/>
<path d="M77.4268 22.4724C77.0513 22.3247 76.6758 22.1728 76.296 22.0336C75.988 21.9197 75.6589 21.7804 75.5281 22.2657C75.0006 22.0842 74.4732 21.9028 73.9458 21.7171C73.7011 21.1011 73.1441 20.9365 72.5829 20.7804C71.5998 20.5104 70.6167 20.2361 69.6251 19.9914C69.3551 19.9239 69.0471 19.8944 68.7855 19.9576C68.334 20.0673 67.95 20.0589 67.5407 19.7973C67.2454 19.6116 66.8909 19.4977 66.5492 19.4091C65.9331 19.253 65.3087 19.1095 64.68 19.0167C64.3044 18.9619 63.912 18.9745 63.5365 19.0378C63.3129 19.0758 63.0893 19.2614 63.5154 19.4091C63.2665 20.4724 63.0302 21.5357 62.7559 22.5948C62.5745 23.2994 62.3298 23.983 62.1103 24.6792C61.9458 24.7298 61.7306 24.734 61.6209 24.8437C61.4352 25.0336 61.3213 25.291 61.1779 25.5188C61.0513 25.6665 60.8783 25.7973 60.8066 25.9703C60.5365 26.6454 60.0935 26.983 59.3804 26.9956C59.4732 26.3711 59.3888 25.7045 59.815 25.1517C59.8909 25.0547 59.8783 24.8859 59.9078 24.7551C60.0133 24.3247 60.0893 23.8817 60.2327 23.464C60.3804 23.0294 60.4057 22.6538 60.0006 22.35C60.1188 21.9576 60.2369 21.5695 60.3551 21.177C60.5281 21.0167 60.7728 20.8944 60.8572 20.696C61.1357 20.0505 61.3719 19.3838 61.5745 18.7087C61.6082 18.5906 61.431 18.3289 61.2918 18.2614C61.0808 18.1602 60.8192 18.1602 60.5787 18.1391C59.777 18.0716 59.1314 17.7635 58.7686 17.0041C58.6631 16.7846 58.6082 16.5484 58.5281 16.3163C58.6715 16.1433 58.8108 15.9745 58.9542 15.8015C59.0639 15.8733 59.1736 16.0125 59.2791 16.0083C59.8952 15.9956 60.4563 16.0884 61.026 16.388C61.5871 16.6834 61.9795 16.426 62.0133 15.9028C62.4141 14.3922 62.8234 12.8775 63.2158 11.3627C63.3551 10.8184 63.4606 10.2699 63.5703 9.71714C63.5829 9.64963 63.5154 9.56946 63.4859 9.49351C63.4985 9.37958 63.5618 9.24456 63.5154 9.16017C63.3213 8.77199 61.8319 8.20659 61.4352 8.36692C61.3593 8.39646 61.3255 8.52726 61.2749 8.61165C60.7095 8.36692 60.1483 8.1222 59.5829 7.88169C59.6251 7.43022 59.2791 7.31207 58.9669 7.16017C58.1357 6.75933 57.3129 6.35005 56.4732 5.9703C56.3888 5.93233 56.2243 6.06313 56.0977 6.11376L55.8867 5.69182C56.2538 4.64541 57.4015 4.53992 58.1525 4.92389C58.5871 5.14752 59.0597 5.29098 59.5196 5.45553C60.1694 5.69182 60.8403 5.88591 61.4732 6.16439C61.8066 6.30785 62.0597 6.32895 62.3298 6.09688C62.8614 6.31207 63.3931 6.52726 63.8403 6.70448C64.1863 6.02937 64.5196 5.37536 64.853 4.72557C64.9669 5.21503 65.3171 5.04203 65.6082 4.98296C66.3804 4.82262 66.6757 5.02937 66.6378 5.79308C66.6209 6.10954 66.5281 6.44287 66.3888 6.73401C65.95 7.6665 66.4479 8.71292 67.4521 8.96608C67.9374 9.08844 68.4141 9.26566 68.8867 9.43865C69.4521 9.64541 69.9964 9.92389 70.5745 10.08C71.1568 10.2403 71.7179 10.4007 72.1779 10.8184C72.2707 10.9028 72.431 10.907 72.5576 10.9492C72.7137 11.1306 72.853 11.3374 73.0344 11.4935C73.4352 11.8437 73.853 12.1686 74.3551 12.5821C73.7348 12.8142 73.3087 12.6454 72.8614 12.4766C72.2074 12.2235 71.5323 12.0167 70.8656 11.7931C70.3762 11.6285 69.8783 11.4766 69.3931 11.2994C68.4563 10.9534 67.5281 10.5863 66.5914 10.2488C66.3762 10.1728 66.1188 10.1306 66.123 10.5062C66.0217 10.5906 65.8656 10.6538 65.8276 10.7635C65.7348 11.0336 65.7053 11.3289 65.6251 11.6074C65.2074 13.08 64.777 14.5484 64.3762 16.0294C64.334 16.1813 64.4774 16.3796 64.5365 16.5568C64.6209 16.7003 64.6758 16.9281 64.7981 16.9787C65.7095 17.35 66.6251 17.7171 67.6336 17.7045C67.7179 17.7045 67.8065 17.7256 67.8909 17.7509C68.8361 18.0167 69.7897 18.2572 70.7264 18.5526C71.604 18.8311 72.4563 19.1771 73.3255 19.4724C73.7264 19.6074 74.1483 19.7003 74.5576 19.81C75.0049 20.3838 75.604 20.696 76.3044 20.869C76.5196 20.9239 76.6842 21.1475 76.8952 21.2614C77.0724 21.3543 77.2707 21.4091 77.4648 21.4598C77.68 21.5146 77.9036 21.5399 78.0555 21.5652C77.7981 21.9154 77.5998 22.1855 77.4057 22.4513L77.4268 22.4724Z" fill="white"/>
<path d="M48.9612 31.3289C49.2523 31.3458 49.3663 31.2023 49.3663 30.9196C49.362 29.9238 49.3958 28.9281 49.3452 27.9365C49.3325 27.6538 49.0836 27.388 48.9443 27.1137C48.8557 26.4133 48.6996 25.7087 48.6954 25.0082C48.6869 24.0462 47.9654 23.6918 47.362 23.2108C47.3283 22.9871 47.2819 22.7635 47.2608 22.5399C47.2354 22.215 47.2186 21.8859 47.6532 21.7888C48.6532 22.5905 49.4633 22.5103 50.4802 21.5905C50.8557 21.2487 51.3789 21.0757 51.7966 20.7677C52.0414 20.5905 52.2565 20.3331 52.4042 20.0673C52.8641 19.2403 52.9485 18.312 53.054 17.3964C53.0878 17.1179 53.1257 16.8437 53.1595 16.5652C53.1595 16.1433 53.1933 15.7171 53.1511 15.2994C53.1173 14.9829 52.9654 14.6833 52.9021 14.3669C52.8135 13.9365 52.7502 13.4977 52.6954 13.0589C52.6321 12.5483 52.6194 12.0293 52.5392 11.523C52.4169 10.7762 52.2523 10.0336 52.1046 9.28672C52.1384 9.01246 52.1553 8.73398 52.2186 8.46393C52.2523 8.31625 52.3578 8.18123 52.4338 8.04199C52.5688 8.13482 52.7291 8.20655 52.8304 8.32891C53.092 8.63693 53.3325 8.96604 53.5772 9.29094C53.4295 10.1812 53.8008 10.9914 54.0076 11.8184C54.1004 12.1981 54.4127 12.5272 54.6236 12.8774C54.6236 12.9492 54.6236 13.0209 54.6236 13.0926C54.5603 13.2319 54.4422 13.3711 54.438 13.5146C54.4169 14.215 54.4295 14.9196 54.4295 15.6201C54.4295 16.5441 54.4549 17.4682 54.4169 18.388C54.4042 18.7129 54.2734 19.0547 54.1215 19.35C53.9274 19.7298 53.9696 20.1517 54.303 20.3711C53.8388 21.3669 52.9443 21.9871 52.1933 22.7255C51.8641 23.0504 51.4464 23.2783 51.0835 23.5652C50.6658 23.9028 50.9021 24.3795 50.8515 24.7973C50.7798 24.966 50.6447 25.1306 50.6405 25.2994C50.6236 26.3627 50.6321 27.426 50.6321 28.4892C50.6321 28.8901 50.6363 29.2909 50.6321 29.6918C50.6194 30.1897 50.8557 30.5399 51.2481 30.8099C51.2819 30.8817 51.3156 30.9534 51.3536 31.0209C51.2565 31.0926 51.0751 31.1644 51.0709 31.2361C51.0582 32.1475 51.0456 33.0631 51.0835 33.9745C51.1004 34.3289 51.3283 34.4977 51.5814 34.4935C51.6194 34.599 51.6616 34.7087 51.6996 34.8141C51.611 35.6791 51.4 35.9238 50.5435 36.1137C50.4127 36.1433 50.2355 36.1433 50.1257 36.08C49.535 35.7382 49.2017 35.2108 49.1553 34.5357C49.092 33.6369 49.0836 32.734 49.0414 31.831C49.0329 31.6622 48.9865 31.4977 48.957 31.3289H48.9612Z" fill="white"/>
<path d="M70.887 11.8146C71.5537 12.0382 72.2246 12.245 72.8828 12.4981C73.3301 12.6711 73.7562 12.8357 74.3765 12.6036C73.8744 12.1943 73.4524 11.8652 73.0558 11.515C72.8744 11.3589 72.7351 11.1521 72.579 10.9707C72.8533 11.0551 73.1402 11.1142 73.406 11.2239C73.887 11.4264 74.368 11.5488 74.8786 11.3462C76.2879 11.8863 77.7014 12.418 79.1064 12.9665C80.8955 13.6669 82.6803 14.3758 84.4651 15.0888C85.0727 15.3336 85.6718 15.5952 86.2626 15.8694C87.2161 16.3125 87.444 16.4475 87.3427 17.6036C87.2415 17.7175 87.1486 17.8399 87.0431 17.9496C86.7478 18.245 86.4271 18.3294 86.0094 18.1606C85.1655 17.8146 84.3005 17.5066 83.4482 17.1817L83.1318 17.0846C83.0263 17.0467 82.9208 17.0087 82.8153 16.9707C82.5664 16.861 82.3174 16.7471 82.0685 16.6374C82.0305 16.6121 81.9925 16.591 81.9545 16.5656L81.9588 16.5699C81.8237 16.3715 81.7351 16.0973 81.5453 15.9918C81.1655 15.7682 80.7394 15.6247 80.3216 15.4686C79.6001 15.2028 78.8786 14.9412 78.1444 14.7218C78.001 14.6796 77.8026 14.8315 77.6254 14.8948C77.3258 14.7808 77.0263 14.6669 76.7225 14.5572C75.7647 14.2028 74.8026 13.8483 73.8448 13.4981C72.9967 13.1521 72.1486 12.8061 71.3005 12.4602C71.1613 12.245 71.0221 12.0298 70.8828 11.8146H70.887Z" fill="white"/>
<path d="M74.8753 11.3461C74.3648 11.5486 73.8838 11.4262 73.4027 11.2237C73.1369 11.114 72.8542 11.0549 72.5757 10.9706C72.4492 10.9284 72.2888 10.9199 72.196 10.8397C71.7361 10.422 71.1749 10.2617 70.5926 10.1014C70.0146 9.94102 69.4702 9.66675 68.9048 9.46C68.4323 9.28701 67.9597 9.10979 67.4702 8.98743C66.466 8.73426 65.9681 7.68785 66.407 6.75536C66.542 6.46422 66.639 6.13511 66.6559 5.81443C66.6939 5.05494 66.3985 4.84819 65.6264 5.00431C65.3352 5.06338 64.985 5.23637 64.8711 4.74692C65.2762 4.33764 65.7614 4.32076 66.4576 4.69629C67.0821 5.03384 67.2551 5.38827 67.0778 6.12667C66.9597 6.62034 66.8036 7.10979 66.6137 7.57815C66.4829 7.90304 66.58 8.06338 66.8753 8.1773C68.8964 8.96211 70.9175 9.74692 72.9344 10.5444C73.5842 10.8018 74.2255 11.0803 74.8711 11.3461H74.8753Z" fill="white"/>
<path d="M60.0077 22.3589C60.4128 22.6627 60.3832 23.0382 60.2398 23.4728C60.1005 23.8905 60.0204 24.3336 59.9149 24.7639C59.8811 24.899 59.898 25.0635 59.8221 25.1606C59.3959 25.7133 59.4803 26.3758 59.3875 27.0045C58.86 27.2829 58.8263 27.8357 58.6491 28.3125C58.4212 28.9158 58.1681 29.5108 57.9318 30.1099C57.8811 30.2365 57.8347 30.3673 57.8094 30.4981C57.6659 31.2323 57.5689 31.9749 57.3621 32.6922C57.2862 32.9538 57.1849 33.4728 56.6406 33.2196C56.9064 32.342 57.1723 31.4686 57.4423 30.591C58.1596 28.245 58.8811 25.899 59.6026 23.553C59.725 23.1521 59.8727 22.7597 60.0119 22.3589H60.0077Z" fill="white"/>
<path d="M62.3507 6.11374C62.0807 6.35002 61.8275 6.32893 61.4942 6.18125C60.8613 5.90277 60.1904 5.70867 59.5406 5.47239C59.0807 5.30361 58.6039 5.16015 58.1735 4.94074C57.4225 4.55255 56.2706 4.66226 55.9077 5.70867C55.8444 5.3458 55.7009 4.9745 55.7474 4.6285C55.7685 4.46817 56.1398 4.26141 56.3718 4.23188C57.2073 4.11795 58.0047 4.32471 58.7811 4.63694C59.933 5.10108 61.0934 5.55255 62.2495 6.01247C62.2917 6.02935 62.3212 6.07998 62.3592 6.11374H62.3507Z" fill="white"/>
<path d="M58.5344 16.3247C58.6145 16.5526 58.6736 16.7931 58.7749 17.0125C59.1335 17.772 59.7833 18.08 60.585 18.1475C60.8255 18.1686 61.0913 18.1686 61.2981 18.2699C61.4373 18.3374 61.6188 18.599 61.5808 18.7171C61.3783 19.3922 61.1378 20.0589 60.8635 20.7045C60.7791 20.8985 60.5344 21.0251 60.3614 21.1855C60.6061 20.4049 60.8508 19.6285 61.0871 18.8817C60.3783 18.6623 59.6989 18.4977 59.0534 18.2361C58.1589 17.8732 57.9437 16.9914 58.5344 16.3247Z" fill="white"/>
<path d="M54.3053 20.3585C53.9719 20.1391 53.9297 19.7171 54.1238 19.3374C54.2757 19.042 54.4065 18.7045 54.4192 18.3754C54.4572 17.4555 54.4319 16.5315 54.4319 15.6074C54.6006 15.7129 54.7694 15.8184 54.9424 15.9239C54.9973 17.4386 54.9677 18.9408 54.3053 20.3543V20.3585Z" fill="white"/>
<path d="M54.6232 12.8693C54.4122 12.5191 54.1042 12.19 54.0072 11.8102C53.8004 10.9832 53.4291 10.1731 53.5768 9.2828C53.6443 9.10558 53.7118 8.93259 53.7835 8.75537C54.062 10.1267 54.3447 11.498 54.6232 12.8693Z" fill="white"/>
<path d="M56.1133 6.131C56.2399 6.08037 56.4044 5.94535 56.4888 5.98754C57.3285 6.36729 58.1555 6.77657 58.9825 7.17741C59.2947 7.32931 59.6365 7.44745 59.5985 7.89893C58.4129 7.35885 57.0247 7.21539 56.1133 6.13522V6.131Z" fill="white"/>
<path d="M50.6327 28.481C50.6327 27.4178 50.62 26.3545 50.6411 25.2912C50.6411 25.1224 50.7804 24.9536 50.8521 24.7891C50.9196 25.2068 51.0209 25.6203 51.0462 26.038C51.101 26.8861 51.1095 27.7384 51.139 28.5908C50.9702 28.557 50.8014 28.519 50.6327 28.4853V28.481Z" fill="white"/>
<path d="M51.5873 34.4897C51.3342 34.4897 51.1021 34.3251 51.0894 33.9707C51.0515 33.0593 51.0599 32.1437 51.0768 31.2323C51.0768 31.1605 51.2582 31.0888 51.3595 31.0171C51.4354 32.1732 51.5156 33.3335 51.5915 34.4897H51.5873Z" fill="white"/>
<path d="M62.02 15.9156C61.9863 16.4388 61.5938 16.6962 61.0327 16.4008C60.463 16.1012 59.9019 16.0126 59.2858 16.0211C59.1803 16.0211 59.0706 15.886 58.9609 15.8143C59.5474 15.3755 60.1508 15.7215 60.7457 15.7806C61.1719 15.8185 61.5938 15.8734 62.02 15.9198V15.9156Z" fill="white"/>
<path d="M50.6336 28.481C50.8024 28.5147 50.9712 28.5527 51.1399 28.5864C51.1737 29.3248 51.2117 30.0632 51.2454 30.8016C50.853 30.5358 50.6167 30.1814 50.6294 29.6835C50.6378 29.2826 50.6294 28.8818 50.6294 28.481H50.6336Z" fill="white"/>
<path d="M54.9401 15.9284C54.7713 15.8229 54.6025 15.7174 54.4295 15.6119C54.4295 14.9073 54.4169 14.2068 54.438 13.5064C54.438 13.363 54.5604 13.2237 54.6236 13.0845C54.6996 13.3419 54.8135 13.595 54.8388 13.8566C54.8937 14.5444 54.9106 15.2364 54.9401 15.9284Z" fill="white"/>
<path d="M61.2852 8.62471C61.3358 8.54032 61.3695 8.40952 61.4455 8.37998C61.8421 8.21964 63.3316 8.78504 63.5257 9.17323C63.5679 9.25762 63.5088 9.39264 63.4961 9.50656C62.762 9.21121 62.0236 8.92007 61.2894 8.62471H61.2852Z" fill="white"/>
<path d="M15.0563 79.4556C16.5415 77.2108 18.0226 74.9619 19.5078 72.7172C20.2124 71.6497 20.9171 70.5822 21.6217 69.5146C22.0859 69.5484 22.031 69.8269 21.7905 70.021C21.1576 70.5357 21.1069 71.3628 20.6597 71.9703C20.415 72.3037 20.1534 72.6244 19.9297 72.9746C19.6006 73.4936 19.301 74.0294 18.993 74.5611C18.9086 74.7087 18.8791 74.9492 18.7567 75.0041C18.2799 75.2277 18.242 75.6919 18.031 76.08C17.761 76.5737 17.3981 77.0379 16.9972 77.4345C16.6977 77.7298 16.5078 77.9999 16.4361 78.4345C16.3643 78.8817 16.0816 79.2868 15.934 79.7256C15.8285 80.0336 15.7525 80.3628 15.7356 80.6834C15.723 80.9619 15.6048 80.9535 15.415 80.9071C14.9297 80.5146 14.934 79.9999 15.0605 79.4556H15.0563Z" fill="white"/>
<path d="M51.6736 99.6836C51.6146 99.7005 51.5555 99.7216 51.4922 99.7384C51.5513 99.7216 51.6103 99.7005 51.6736 99.6836Z" fill="white"/>
<path d="M52.5267 99.6538C52.4592 99.6538 52.3917 99.6538 52.3242 99.658C52.3917 99.658 52.4592 99.658 52.5267 99.6538Z" fill="white"/>
<path d="M0.338943 56.4302C0.326285 56.3965 0.330504 56.3627 0.355821 56.3374C0.36004 56.3627 0.368479 56.3838 0.372699 56.4091C0.372699 56.4176 0.351602 56.426 0.338943 56.4344V56.4302Z" fill="white"/>
<path d="M62.0195 98.5191C62.0913 98.4938 62.163 98.4685 62.2347 98.439C62.163 98.4643 62.0913 98.4896 62.0195 98.5191Z" fill="white"/>
<path d="M77.418 20.2448C77.5614 20.1688 77.7049 20.0929 77.8484 20.0169C78.4855 19.9832 79.1268 19.9663 79.764 19.9157C80.1859 19.8819 80.5994 19.8017 81.0171 19.7427C81.0509 19.7427 81.0846 19.7511 81.1226 19.7511C81.0002 19.9157 80.8821 20.0887 80.7513 20.249C80.5952 20.4389 80.4264 20.6203 80.2619 20.806C79.7218 20.7216 79.1859 20.6203 78.6458 20.557C78.5277 20.5444 78.3927 20.6456 78.2661 20.6963C77.9834 20.5444 77.7007 20.3967 77.418 20.2448Z" fill="white"/>
<path d="M85.7539 19.1056C86.2813 18.9874 86.8045 18.8693 87.332 18.7554C87.1126 19.2744 86.159 19.4853 85.7539 19.1056Z" fill="white"/>
<path d="M82.0703 19.5989C82.1041 19.5989 82.1378 19.5989 82.1716 19.5947L82.1209 19.6116L82.0703 19.6032V19.5989Z" fill="white"/>
<path d="M81.4375 19.6919C81.4713 19.6919 81.5008 19.6961 81.5346 19.7003L81.4839 19.7088L81.4375 19.6961V19.6919Z" fill="white"/>
<path d="M43.2648 63.5106C43.0158 64.2616 42.8133 65.0338 42.5095 65.7638C42.0454 66.8777 41.8471 68.0085 42.0791 69.1984C41.5981 69.346 41.4462 69.73 41.3407 70.1688C41.2901 70.3756 41.1551 70.5612 41.058 70.7553C40.9061 70.6414 40.7669 70.5064 40.6023 70.4135C40.4125 70.3081 40.2015 70.2363 40.0032 70.1477C39.885 69.4811 39.7627 68.8144 39.6445 68.1477C39.7585 66.9241 39.8724 65.7005 39.9905 64.4768C40.345 63.73 40.7036 62.9832 41.058 62.2363C41.3196 62.2532 41.5812 62.2701 41.8471 62.2785C42.6445 62.3165 43.0369 62.8186 43.269 63.5106H43.2648Z" fill="white"/>
<path d="M56.8471 65.8187C57.4758 65.401 58.0792 64.9326 58.7416 64.5824C59.0581 64.4179 59.1383 64.2997 58.999 64.0086C58.2564 62.4179 57.5096 60.8314 56.7627 59.2449C56.6319 58.9706 56.4716 58.7048 56.3281 58.439C56.5391 58.5107 56.7501 58.5824 56.9568 58.6542C57.2648 59.2913 57.3577 60.017 57.9273 60.5487C58.3028 60.8989 58.691 61.3208 58.6488 61.9242C58.8471 62.3968 59.0117 62.8904 59.2564 63.3377C59.5729 63.9158 59.5813 64.4812 59.2859 65.0339C59.1636 65.2575 58.9146 65.5065 58.6826 65.5613C58.0834 65.7006 57.4631 65.7428 56.8471 65.8187Z" fill="white"/>
<path d="M53.6758 77C54.3931 75.5865 54.4775 74.0633 54.4184 72.5317C54.3804 71.5612 54.237 70.595 54.1441 69.6245C54.5745 69.7005 54.5576 70.0887 54.6336 70.3798C55.026 71.9452 54.8614 73.5443 54.8192 75.1266C54.8066 75.6836 54.4268 76.2406 54.1652 76.7764C54.1019 76.903 53.8446 76.9325 53.68 77.0043L53.6758 77Z" fill="white"/>
<path d="M53.6037 67.0888C53.2239 65.6416 52.8484 64.1943 52.4644 62.747C52.3252 62.2238 52.1522 61.7048 51.9961 61.1816C52.5193 61.2281 52.6332 61.6247 52.7471 62.0382C52.8315 62.342 52.9666 62.6289 53.0594 62.9327C53.2408 63.5318 53.4771 64.131 53.5657 64.7428C53.6417 65.2576 53.5952 65.7681 53.9159 66.2449C54.1142 66.5487 54.0172 66.9158 53.6037 67.0846V67.0888Z" fill="white"/>
<path d="M48.418 78.0591C49.553 78.4388 50.7049 78.616 51.899 78.3966C51.7429 78.5654 51.5741 78.8903 51.4306 78.8819C50.5319 78.8101 49.6332 78.6793 48.7471 78.519C48.6163 78.4937 48.5277 78.2194 48.4222 78.0633L48.418 78.0591Z" fill="white"/>
<path d="M55.8 58.5275C55.1375 58.7089 54.4709 58.8945 53.8084 59.076C53.5426 59.0043 53.4877 58.7553 53.7029 58.6962C54.2683 58.5443 54.7451 58.0296 55.3949 58.2321C55.5468 58.2785 55.665 58.4262 55.8 58.5232V58.5275Z" fill="white"/>
<path d="M65.3837 79.6457C65.1516 79.1267 64.9196 78.6035 64.6875 78.0845C64.8478 78.2068 65.0166 78.325 65.1727 78.4558C65.2951 78.5613 65.3964 78.6836 65.5061 78.8018C65.5398 79.0465 65.5778 79.2912 65.6116 79.5402C65.5356 79.5781 65.4597 79.6119 65.3837 79.6499V79.6457Z" fill="white"/>
<path d="M66.1407 81.4347C66.0689 81.152 66.0014 80.8735 65.9297 80.5908C66.0225 80.633 66.1575 80.6457 66.1955 80.7174C66.3685 81.0212 66.6048 81.017 66.8791 80.9115C66.7862 81.2997 66.5331 81.4685 66.1407 81.4389V81.4347Z" fill="white"/>
<path d="M68.672 80.3799C68.5918 80.5149 68.5243 80.7554 68.4357 80.7639C68.2754 80.7807 68.1024 80.6541 67.9336 80.5909C68.1783 80.5191 68.4273 80.4516 68.672 80.3799Z" fill="white"/>
<path d="M65.3828 79.6453C65.4588 79.6074 65.5347 79.5736 65.6107 79.5356C65.6824 79.7129 65.7499 79.8901 65.8216 80.0631C65.7246 80.0631 65.6275 80.0631 65.5305 80.0631C65.4799 79.9238 65.4334 79.7846 65.3828 79.6453Z" fill="white"/>
<path d="M67.7227 80.5947C67.6552 80.8816 67.5118 81.042 67.1953 80.907C67.3725 80.8015 67.5497 80.696 67.7227 80.5947Z" fill="white"/>
<path d="M35.4231 63.1943C35.2543 62.1352 35.0349 61.0845 34.9252 60.0213C34.807 58.8651 34.7859 57.7006 34.7227 56.5402C35.3471 56.3715 35.44 56.4643 35.4442 57.2786C35.4442 58.017 35.4442 58.7554 35.4442 59.4938C35.4357 60.4896 35.3724 61.4938 35.7564 62.4474C35.7902 62.5529 35.8281 62.6584 35.8619 62.7639C35.8619 62.8694 35.8619 62.9748 35.8619 63.0761C35.7142 63.1141 35.5665 63.1521 35.4231 63.19V63.1943Z" fill="white"/>
<path d="M39.9879 64.4727C39.874 65.6963 39.7601 66.9199 39.6419 68.1435C39.3044 68.1435 38.9668 68.1435 38.6293 68.1435C38.5238 67.4389 38.4183 66.73 38.3086 66.0254C38.9921 65.7849 39.3845 65.2321 39.7727 64.6752C39.8276 64.5992 39.912 64.5402 39.9837 64.4727H39.9879Z" fill="white"/>
<path d="M28.253 64.8735C28.81 65.0465 29.3627 65.2575 29.9281 65.3883C31.291 65.7005 32.6581 65.9748 34.0252 66.2617C34.3543 66.3334 34.6876 66.3967 35.0167 66.4685C34.8817 66.5571 34.734 66.7301 34.6159 66.7132C33.8522 66.6035 33.0969 66.6119 32.329 66.3039C31.4345 65.9495 30.388 65.9832 29.4134 65.8102C29.0041 65.7385 28.5864 65.6288 28.2235 65.4474C28.0125 65.3419 27.734 65.0381 28.253 64.8735Z" fill="white"/>
<path d="M35.7594 62.4472C35.3712 61.4937 35.4388 60.4894 35.4472 59.4937C35.7257 59.5274 36.0084 59.5654 36.2869 59.5991C36.2404 60.0886 36.2151 60.5865 36.1434 61.0717C36.0759 61.5358 35.9577 61.9915 35.8649 62.4472C35.8312 62.4472 35.7932 62.4472 35.7594 62.4472Z" fill="white"/>
<path d="M35.4219 63.194C35.5696 63.156 35.7172 63.1181 35.8607 63.0801C35.8143 63.7341 35.9198 64.3501 36.1982 64.9577C36.3206 65.2235 36.2995 65.578 36.2531 65.8775C36.2362 65.9873 35.9451 66.0505 35.7763 66.1391L35.4219 63.194Z" fill="white"/>
<path d="M36.7038 56.9619C36.7038 57.6286 36.7038 58.2952 36.708 58.9661C36.708 59.1771 36.708 59.3881 36.708 59.599C36.5687 59.599 36.4253 59.599 36.286 59.599C36.016 58.8311 35.8936 58.0674 36.3915 57.3374C36.4844 57.2024 36.5983 57.0885 36.7038 56.9661V56.9619Z" fill="white"/>
<path d="M35.7578 62.4473C35.7916 62.4473 35.8295 62.4473 35.8633 62.4473C35.8633 62.5528 35.8633 62.6582 35.8633 62.7637C35.8295 62.6582 35.7916 62.5528 35.7578 62.4473Z" fill="white"/>
<path d="M62.115 24.6836C61.7648 25.7722 61.4146 26.8608 61.0644 27.9536C60.7015 27.73 60.6593 27.1604 60.904 26.595C61.0475 26.2617 61.0939 25.8861 61.1867 25.5317C61.3302 25.3038 61.4483 25.0465 61.6298 24.8566C61.7353 24.7469 61.9504 24.7427 62.1192 24.692L62.115 24.6836Z" fill="white"/>
<path d="M60.0324 32.6963C60.8805 32.979 61.7244 33.2575 62.5725 33.5402C62.813 33.6203 63.0493 33.6963 63.2898 33.7722C63.3067 34.1014 63.0915 34.114 62.8721 34.0507C62.0156 33.7976 61.1548 33.5402 60.3067 33.2533C60.0957 33.1815 59.7624 33.0592 60.0282 32.6963H60.0324Z" fill="white"/>
<path d="M63.3828 33.7427C63.4883 33.6667 63.5896 33.5908 63.6951 33.519C63.8385 33.8819 64.1465 33.7511 64.4166 33.7975C64.7541 33.8566 65.0706 34.038 65.3955 34.1646C65.3533 34.2195 65.3153 34.2743 65.2731 34.3292C64.6402 34.1309 64.0115 33.9368 63.3828 33.7427Z" fill="white"/>
<path d="M73.7426 21.7764C72.8185 21.4768 71.9029 21.1519 70.9704 20.8903C70.2911 20.7005 69.5865 20.5992 68.8903 20.4557C67.9367 20.2448 66.9873 20.0169 66.0295 19.8313C65.1941 19.6667 64.3544 19.5486 63.5147 19.4135C63.0886 19.2659 63.3122 19.0802 63.5358 19.0422C63.9071 18.9832 64.3037 18.9663 64.6793 19.0211C65.308 19.114 65.9324 19.2574 66.5485 19.4135C66.8903 19.5021 67.2447 19.6119 67.54 19.8017C67.9493 20.0633 68.3333 20.0718 68.7848 19.9621C69.0464 19.8988 69.3544 19.9283 69.6244 19.9958C70.616 20.2405 71.5991 20.5148 72.5822 20.7848C73.1434 20.9367 73.7004 21.1055 73.9451 21.7216C73.8776 21.7427 73.8143 21.7595 73.7468 21.7806L73.7426 21.7764Z" fill="white"/>
<path d="M36.9213 71.3121C36.8538 71.1349 36.7863 70.9577 36.7188 70.7847C36.7863 70.9619 36.8538 71.1391 36.9213 71.3121Z" fill="#1E1816"/>
<path d="M86.5317 86.4977C86.5149 86.5525 86.498 86.6116 86.4811 86.6665C86.1014 87.2108 85.7216 87.7593 85.3419 88.3036C85.017 88.004 84.6921 87.7002 84.3672 87.4006C84.9495 87.0293 85.5233 86.6454 86.1182 86.2994C86.249 86.2234 86.4642 86.2994 86.6414 86.2994C86.6035 86.3627 86.5655 86.4302 86.5275 86.4935L86.5317 86.4977Z" fill="white"/>
<path d="M73.5248 18.9705C73.913 19.114 74.3012 19.2574 74.6894 19.3967C74.6514 19.5402 74.6177 19.6878 74.5797 19.8313C74.1662 19.7216 73.7485 19.633 73.3476 19.4937C72.4784 19.1984 71.6219 18.8524 70.7485 18.5739C69.8118 18.2785 68.8624 18.0338 67.913 17.7722C67.8286 17.7469 67.74 17.7258 67.6556 17.7258C66.6472 17.7385 65.7316 17.3714 64.8202 17.0001C64.6978 16.9494 64.643 16.7258 64.5586 16.5781C65.0185 16.6794 65.4869 16.7553 65.9383 16.8777C68.47 17.5697 70.9974 18.2701 73.5248 18.9663V18.9705Z" fill="white"/>
<path d="M79.0083 22.7847C78.5864 22.7172 78.1644 22.6454 77.7383 22.5779C78.1855 22.4893 78.6623 22.2319 79.0083 22.7847Z" fill="white"/>
<path d="M22.9961 25.7382C23.456 25.0293 23.4392 24.2909 23.089 23.5525C23.0383 23.447 22.8906 23.3922 22.7852 23.312C22.7852 22.5736 22.7852 21.8352 22.7852 21.0968C23.0299 20.9702 23.2704 20.8437 23.5531 20.7002C23.8231 21.0462 24.1143 21.3922 24.3717 21.7635C24.4476 21.8732 24.4898 22.1095 24.4265 22.2023C24.0425 22.7339 24.3252 23.3162 24.2746 23.869C24.2451 24.1939 24.7978 24.62 25.2324 24.6833C25.4012 24.7086 25.57 24.755 25.7387 24.7888C25.6079 24.8437 25.4687 24.9576 25.3421 24.9449C25.0763 24.9238 24.8147 24.8394 24.5193 24.7719C24.4982 24.9576 24.4687 25.0715 24.4729 25.1896C24.4729 25.5947 24.2619 25.7466 23.8822 25.7382C23.5868 25.7297 23.2915 25.7382 22.9961 25.7382Z" fill="white"/>
<path d="M24.4618 12.6582C24.6094 14.3122 24.7698 15.9662 24.8964 17.6244C24.9892 18.8523 25.0272 20.0801 25.0904 21.308C24.4322 21.0042 24.4491 20.4219 24.4744 19.8312C24.4407 18.9409 24.4322 18.0506 24.3563 17.1645C24.3225 16.7763 24.082 16.405 24.0693 16.0211C24.0356 15.0211 24.0651 14.0211 24.1073 13.0211C24.1115 12.8945 24.3394 12.7763 24.4618 12.6582Z" fill="white"/>
<path d="M27.1096 25.3166C27.0378 25.3166 26.9703 25.3166 26.8986 25.3166C26.7382 25.2448 26.5695 25.1858 26.4176 25.1014C26.253 25.0086 26.1053 24.8946 25.9492 24.7891C26.156 24.7723 26.3712 24.7765 26.5737 24.7343C27.1644 24.6161 27.2615 24.7132 27.1096 25.3166Z" fill="white"/>
<path d="M36.7027 56.9618C36.5972 57.0842 36.4833 57.2023 36.3905 57.3332C35.8883 58.0631 36.0149 58.8268 36.285 59.5948C36.0065 59.561 35.7238 59.523 35.4453 59.4893C35.4453 58.7509 35.4453 58.0125 35.4453 57.2741C35.5466 57.1517 35.7111 57.042 35.7449 56.9028C35.939 56.042 36.0402 55.9872 36.7111 56.4302C36.7111 56.6074 36.7111 56.7804 36.7111 56.9576L36.7027 56.9618Z" fill="white"/>
<path d="M33.8771 56.2492C33.0036 57.5699 32.1302 58.8905 31.2568 60.2112C31.0501 59.6542 31.4931 59.3083 31.6956 58.8863C31.8053 58.6585 31.915 58.4264 32.029 58.1985C32.1513 57.9538 32.2526 57.6964 32.4087 57.477C32.6914 57.0888 33.0458 56.7471 33.3032 56.342C33.4973 56.0382 33.6492 56.0635 33.8771 56.2534V56.2492Z" fill="white"/>
<path d="M71.3052 12.4601C69.5837 11.8145 67.8622 11.1732 66.1407 10.5276C66.1365 10.1521 66.3938 10.1943 66.609 10.2702C67.5457 10.612 68.474 10.9791 69.4107 11.3209C69.896 11.4981 70.3938 11.65 70.8833 11.8145C71.0225 12.0297 71.1618 12.2449 71.301 12.4601H71.3052Z" fill="white"/>
<path d="M81.958 16.5698C80.515 16.0128 79.0719 15.4558 77.6289 14.8946C77.8019 14.8314 78.0044 14.6795 78.1479 14.7216C78.8821 14.9411 79.6036 15.2027 80.3251 15.4685C80.7428 15.6204 81.169 15.7681 81.5487 15.9917C81.7344 16.1014 81.8272 16.3714 81.9622 16.5698H81.958Z" fill="white"/>
</g>
<defs>
<clipPath id="clip0_396_7929">
<rect width="89.8734" height="100" fill="white"/>
</clipPath>
</defs>
</svg>
