<svg width="196" height="49" viewBox="0 0 196 49" fill="none" xmlns="http://www.w3.org/2000/svg">
<g clip-path="url(#clip0_396_8122)">
<path d="M154.551 18.64C156.121 16.4 156.621 13.91 155.751 11.34C154.941 8.94 152.891 8.22 150.501 8.09C142.021 7.62 135.991 11.35 131.961 18.67C131.291 19.88 130.671 21.09 130.311 22.42C129.401 25.77 130.171 27.87 132.991 29.88C133.321 30.11 133.711 30.27 133.971 30.81H132.351C129.161 30.63 125.971 30.78 122.781 30.73C122.291 30.73 121.781 30.82 121.301 30.65C120.391 30.57 119.471 30.51 118.561 30.65C118.271 30.7 117.971 30.84 117.851 30.46C117.751 30.12 118.121 30.09 118.321 30C124.751 27.13 128.331 21.87 130.491 15.44C130.951 14.08 131.031 12.66 130.581 11.27C129.961 9.37 128.601 8.35 126.641 8.13C123.791 7.82 121.091 8.26 118.611 9.78C117.911 10.21 117.171 10.55 116.321 11C116.291 9.96 116.901 9.33 117.221 8.62C118.361 6.08 119.581 3.58 120.751 1.05C121.031 0.39 121.401 0 122.221 0C130.461 0.05 138.701 0.08 146.951 0.08C162.811 0.09 178.681 0.08 194.541 0.08C195.061 0.42 194.891 0.96 194.901 1.43C194.961 3.49 194.801 5.55 194.991 7.6C195.011 7.89 195.031 8.18 195.051 8.47C195.091 8.99 194.891 9.16 194.381 8.95C190.091 7.13 186.091 8.04 182.231 10.23C180.981 10.94 180.971 10.94 180.121 9.7C179.411 8.67 178.451 8.18 177.191 8.08C173.561 7.8 170.201 8.54 167.131 10.5C166.941 10.24 166.991 10.05 167.061 9.84C167.591 8.39 167.561 8.53 166.101 8.34C163.711 8.03 162.441 8.81 161.441 11.15C158.831 17.22 155.831 23.11 153.011 29.09C152.511 30.15 151.861 30.73 150.611 30.64C148.811 30.5 147.001 30.99 144.901 30.71C145.761 30.12 146.521 30.01 147.231 29.79C148.731 29.33 149.031 28.9 149.071 27.52C149.091 26.75 148.881 26.49 148.161 26.91C146.401 27.92 144.421 28.32 142.481 28.72C140.761 29.08 139.011 29.02 137.341 28.3C136.161 27.79 135.471 26.88 135.311 25.65C135.001 23.28 135.811 21.15 136.871 19.09C136.941 18.96 137.131 18.9 137.271 18.81C138.941 18.64 140.621 18.68 142.291 18.79C144.771 18.79 147.251 18.79 149.731 18.79C151.321 18.56 152.941 18.88 154.531 18.61L154.551 18.64Z" fill="white"/>
<path d="M91.0412 36.5601C90.5412 36.5601 90.0512 36.5601 89.5512 36.5601C89.0612 36.3901 88.5612 36.4701 88.0612 36.4701C61.0812 36.4701 34.1012 36.4701 7.12123 36.4701C5.17123 36.4201 3.22123 36.5701 1.28123 36.3901C0.931233 36.3701 0.571233 36.3101 0.511233 35.9001C0.451233 35.5101 0.771233 35.3001 1.05123 35.1301C1.61123 34.7801 2.26123 34.8701 2.88123 34.8701C23.5412 34.8601 44.1912 34.8501 64.8512 34.8501C107.831 34.8501 150.811 34.8501 193.791 34.8501C195.471 34.8501 195.511 34.9001 195.051 36.3701C194.571 36.5701 194.061 36.4701 193.571 36.4701C159.891 36.4701 126.211 36.4701 92.5412 36.4701C92.0512 36.4701 91.5412 36.3801 91.0512 36.5601H91.0412Z" fill="white"/>
<path d="M101.781 0.350136C102.051 -0.0398641 102.451 0.0901359 102.811 0.0901359C106.851 0.0901359 110.881 0.130136 114.921 0.0901359C116.051 0.0801359 116.171 0.350136 115.691 1.34014C111.241 10.5801 106.831 19.8401 102.401 29.1001C102.261 29.3901 102.221 29.8301 101.791 29.7601C101.461 29.7101 101.631 29.3601 101.591 29.1301C101.741 28.6801 101.671 28.2201 101.671 27.7701C101.671 19.0801 101.671 10.3901 101.671 1.70014C101.671 1.25014 101.571 0.780136 101.771 0.350136H101.781Z" fill="white"/>
<path d="M172.32 30.5499C172.36 30.1899 172.29 29.8599 172.48 29.4799C174.79 24.7399 177.11 19.9999 179.34 15.2099C180.85 11.9499 185.02 10.4399 188.05 11.0599C189.9 11.4399 190.42 12.2299 189.64 13.9699C188.21 17.1899 186.63 20.3499 185.13 23.5499C184.46 24.9799 183.79 26.4099 183.23 27.8799C182.48 29.8299 181.33 31.0599 179.05 30.6399C176.81 30.7299 174.56 30.8899 172.33 30.5499H172.32Z" fill="white"/>
<path d="M159.271 30.6501C157.281 30.6801 157.241 30.6601 158.131 28.7701C160.231 24.3001 162.441 19.8801 164.491 15.3801C166.111 11.8201 169.451 10.9301 172.721 10.8901C174.541 10.8601 175.481 12.2301 174.831 13.9201C173.941 16.2001 172.871 18.4001 171.831 20.6101C170.481 23.4601 169.081 26.2901 167.701 29.1301C166.801 30.9801 166.541 31.1101 164.551 30.6501C162.791 30.7701 161.041 30.7701 159.281 30.6501H159.271Z" fill="white"/>
<path d="M125.341 14.8898C124.041 20.0198 121.761 24.5498 117.251 27.5998C115.381 28.8598 113.281 29.2798 111.121 28.1198C109.871 27.4498 109.201 26.2698 109.661 25.0198C111.021 21.3198 112.351 17.5598 114.921 14.4898C116.941 12.0698 119.511 10.5298 122.791 10.5798C123.991 10.5998 124.991 10.9998 125.341 12.3198C125.471 13.1798 125.461 14.0298 125.341 14.8898Z" fill="white"/>
<path d="M48.3181 0.110104C49.7781 0.110104 51.2281 0.150104 52.6881 0.110104C53.5181 0.0801039 53.3881 0.610104 53.3781 1.1001C53.3581 5.1001 53.3181 9.1001 53.3081 13.0901C53.2881 19.0001 53.2981 24.9201 53.2881 30.8301C51.6281 31.0901 49.9681 31.0301 48.2981 30.8601C47.9281 30.6001 48.1081 30.2101 48.0681 29.8701C48.3681 28.2001 48.0181 26.5001 48.2481 24.8301C48.2481 19.6801 48.2481 14.5301 48.2481 9.3801C48.1581 6.2901 48.0481 3.2001 48.3081 0.120104L48.3181 0.110104Z" fill="white"/>
<path d="M64.0601 30.8102C60.9001 29.9502 58.5401 28.0402 57.4001 25.0002C55.7701 20.6402 56.0001 16.3502 58.8701 12.4802C61.0101 9.59018 64.0801 8.52018 67.5401 8.33018C67.8101 8.21018 68.0701 8.22018 68.3401 8.32018C68.7501 8.95018 68.7301 9.62018 68.5501 10.3102C65.4201 10.8802 63.3801 12.7502 62.5301 15.7402C61.6201 18.9302 61.6401 22.1402 63.1501 25.2002C63.8001 26.5302 64.8101 27.5602 66.0601 28.3502C66.1101 29.7502 64.8801 30.1202 64.0601 30.8202V30.8102Z" fill="white"/>
<path d="M8.81003 31.0399C4.99003 30.4399 2.43003 28.2899 0.980028 24.7199C-0.439972 21.2399 -0.279972 17.7599 1.26003 14.4399C3.06003 10.5499 6.34003 8.6799 10.58 8.3999C11.1 8.9599 11.89 9.3799 11.58 10.3599C6.95003 12.0999 4.64003 16.6199 5.68003 21.9399C6.23003 24.7799 7.39003 27.2099 10.15 28.5599C9.87003 29.4699 9.01003 30.0799 8.83003 31.0399H8.81003Z" fill="white"/>
<path d="M144.391 16.8599C142.691 16.8599 140.981 16.8299 139.281 16.8699C138.411 16.8899 138.191 16.6099 138.671 15.8799C140.791 12.6899 143.401 10.2199 147.481 9.87992C150.311 9.63992 151.831 11.4699 151.231 14.5199C150.811 16.6399 150.551 16.8599 148.381 16.8499C147.051 16.8499 145.721 16.8499 144.391 16.8499V16.8599Z" fill="white"/>
<path d="M187.738 30.8101C186.768 30.8901 186.938 30.3401 187.198 29.8001C188.018 28.0801 188.878 26.3801 189.698 24.6501C191.178 21.5001 192.648 18.3401 194.108 15.1901C194.248 14.8901 194.308 14.5101 194.658 14.4101C195.038 14.3001 195.038 14.5901 194.978 14.8601C194.848 19.5301 194.828 24.2001 194.988 28.8701C195.035 30.0235 194.502 30.6035 193.388 30.6101C193.108 30.6101 192.818 30.6301 192.538 30.6401C190.948 30.9001 189.328 30.5601 187.738 30.8201V30.8101Z" fill="white"/>
<path d="M84.8086 30.56C85.3386 29.72 85.8586 28.89 86.3886 28.05C89.9086 29.76 93.3386 29.44 96.7286 27.62C97.2086 27.36 97.6786 26.61 98.2186 27.03C98.9086 27.57 98.8586 28.52 98.7986 29.36C98.7386 30.18 97.9886 29.92 97.5486 30.06C96.0886 30.51 94.6686 31.16 93.0986 31.15C92.0886 31.37 91.0586 31.07 90.0486 31.32C88.2586 31.43 86.5286 31.1 84.8286 30.57L84.8086 30.56Z" fill="white"/>
<path d="M91.0391 36.5599C91.3991 36.2399 91.8291 36.3599 92.2391 36.3599C126.379 36.3599 160.529 36.3599 194.669 36.3499C194.789 36.3499 194.919 36.3599 195.039 36.3699C194.649 36.7299 194.169 36.5899 193.729 36.5899C159.709 36.5999 125.689 36.6099 91.6591 36.6099C91.4491 36.6099 91.2491 36.5799 91.0391 36.5599Z" fill="white"/>
<path d="M64.0586 30.81C64.0586 30.31 64.4886 30.19 64.7986 29.94C65.3386 29.51 65.8086 29.01 66.0586 28.34C68.6686 29.72 71.1086 28.98 73.5386 27.78C74.1386 27.48 74.6786 26.56 75.3186 26.99C75.8586 27.36 75.4686 28.3 75.5186 28.99C75.5486 29.35 75.5886 29.77 75.0986 29.9C73.5886 30.28 72.2086 31.18 70.5886 31.13C68.9886 31.27 67.3886 31.28 65.7886 31.13C65.1986 31.12 64.6086 31.11 64.0686 30.81H64.0586Z" fill="white"/>
<path d="M8.80979 31.0401C8.43979 29.7801 9.51978 29.3001 10.1298 28.5601C12.9598 29.2801 15.6498 29.0501 18.0798 27.2901C18.6798 26.8501 18.9798 26.9301 19.0198 27.6901C19.0198 27.8101 19.0198 27.9401 19.0198 28.0601C19.0331 29.1535 18.5131 29.8668 17.4598 30.2001C16.2798 30.5801 15.1298 31.1001 13.8598 31.1501C12.4098 31.2601 10.9698 31.2901 9.51979 31.1301L8.79978 31.0401H8.80979Z" fill="white"/>
<path d="M54.5901 39.8302C55.2001 39.8302 55.7201 39.9602 55.7401 40.8402C54.5101 40.3102 53.3101 40.1002 52.0801 40.4002C50.2501 40.8402 49.3201 42.0202 49.4501 43.6402C49.6001 45.4602 50.8201 46.6702 52.6501 46.8202C53.3601 46.8802 54.0701 46.8502 54.7301 46.5502C55.1601 46.3602 55.5601 46.2002 56.0001 46.5902C55.6701 47.0102 55.2301 47.0302 54.8101 47.1502C53.7701 47.4502 52.5301 47.4202 52.0001 48.6702C51.9501 48.7802 51.7301 48.9002 51.5901 48.8902C51.3201 48.8702 51.3101 48.6002 51.3401 48.4102C51.5201 47.4102 50.8901 47.1202 50.1001 46.9102C48.6001 46.5002 47.4901 45.2702 47.5201 43.9502C47.5701 41.6802 48.2301 40.7202 49.8401 40.3102C50.4801 40.1502 51.0701 39.8102 51.7601 39.8202C52.7001 39.7102 53.6401 39.6702 54.5801 39.8402L54.5901 39.8302Z" fill="white"/>
<path d="M7.06 36.3701C21.92 36.3701 36.78 36.3501 51.64 36.3501C63.79 36.3501 75.95 36.3501 88.1 36.3601C88.58 36.3601 89.1 36.2101 89.55 36.5601C85.72 36.5701 81.9 36.6001 78.07 36.6001C54.74 36.6001 31.4 36.6001 8.07 36.6001C7.74 36.6001 7.41 36.5801 7.07 36.5701C6.98 36.5301 6.95 36.4901 6.98 36.4501C7.01 36.4001 7.03 36.3801 7.06 36.3801V36.3701Z" fill="white"/>
<path d="M11.5703 10.3598C11.4903 9.57981 10.6903 9.15981 10.5703 8.39981C10.8103 8.37981 11.0503 8.34981 11.3003 8.32981C12.6503 8.16981 14.0003 8.20981 15.3503 8.30981C15.7203 8.35981 16.0903 8.38981 16.4603 8.46981C19.3603 9.02981 19.4503 9.16981 18.9003 12.4998C16.7503 10.5898 14.2703 10.0798 11.5703 10.3698V10.3598Z" fill="white"/>
<path d="M68.5484 10.3002C68.1484 9.71018 68.3484 9.04018 68.3084 8.40018C69.3084 8.10018 70.3184 8.23018 71.3184 8.33018C72.3384 8.47018 73.3684 8.58018 74.3884 8.75018C74.7984 8.82018 75.3584 8.72018 75.4284 9.38018C75.5184 10.2702 75.8584 11.1702 75.4284 12.0402C75.2084 12.4702 74.7884 12.2202 74.5784 12.0202C72.8584 10.3902 70.7284 10.3002 68.5484 10.3102V10.3002Z" fill="white"/>
<path d="M138.042 47.09C136.292 47.59 134.562 47.4 132.882 46.87C131.152 46.32 130.262 45.09 130.282 43.5C130.312 41.75 131.092 40.86 132.952 40.21C134.372 39.71 135.812 39.84 137.262 39.87C137.282 40.46 136.832 40.18 136.582 40.22C136.152 40.29 135.702 40.14 135.282 40.33C132.772 40.99 132.182 41.64 132.242 43.68C132.272 44.84 132.592 45.86 133.762 46.3C135.072 46.79 136.422 47.38 137.752 46.3C138.102 46.48 138.282 46.71 138.032 47.1L138.042 47.09Z" fill="white"/>
<path d="M27.0486 47.3302C25.8686 47.5102 24.7586 47.2302 23.6586 46.8602C22.2286 46.3702 21.3186 45.0002 21.3086 43.4102C21.3086 41.7602 21.9286 40.9202 23.6386 40.3302C24.3386 40.0902 25.0386 39.8102 25.7986 39.8202C26.6386 39.6702 27.4786 39.6802 28.3186 39.8202C28.5286 39.8402 28.7286 39.8602 28.9386 39.8702C29.2486 39.9002 29.5786 40.0002 29.5186 40.3602C29.4286 40.9002 29.0086 40.6202 28.7286 40.5502C27.2686 40.1502 25.8586 40.1202 24.5286 40.9602C22.5886 42.1802 22.5286 44.7002 24.4086 46.0402C25.1986 46.6002 26.0486 46.9702 27.0486 46.8702C27.1986 47.0202 27.1986 47.1702 27.0486 47.3202V47.3302Z" fill="white"/>
<path d="M94.0311 46.83C94.7511 46.45 95.9811 46.58 96.0211 45.5C96.0611 44.35 94.8111 44.32 94.0511 43.91C93.4411 43.58 92.7211 43.44 92.0711 43.15C90.8411 42.61 90.6711 41.27 91.7511 40.5C93.2411 39.44 94.9511 39.9 96.5811 39.92C96.7811 39.92 97.0911 40.16 96.8911 40.45C96.6911 40.75 96.3711 40.64 96.1011 40.51C94.9511 39.94 93.8711 40.01 92.8311 40.82C92.1011 41.39 92.1511 41.84 92.9611 42.18C93.8811 42.57 94.8311 42.86 95.7611 43.21C96.6811 43.56 97.7911 43.76 97.6211 45.14C97.4511 46.49 96.5411 47.02 95.2911 47.11C94.8311 47.16 94.3111 47.52 94.0211 46.83H94.0311Z" fill="white"/>
<path d="M152.271 39.9399V40.0399C151.751 41.1499 151.851 42.2999 152.011 43.4699C151.541 44.2099 151.731 45.0699 151.571 45.8699C151.531 46.2399 151.681 46.6599 151.411 46.9499C151.111 47.2799 150.681 47.2899 150.251 47.1999C149.771 47.0999 149.721 46.7499 149.741 46.3499C149.841 44.4799 149.891 42.6099 149.701 40.7499C149.641 40.1399 149.851 39.7899 150.531 39.8499C151.111 39.8999 151.691 39.9199 152.271 39.9499V39.9399Z" fill="white"/>
<path d="M106.099 44.1399C106.209 44.9699 105.869 45.8399 106.279 46.6499C106.489 47.0099 106.339 47.1899 105.969 47.2099C105.489 47.2299 104.999 47.2899 104.519 47.1599C103.589 46.7699 103.989 45.9199 104.089 45.3799C104.339 44.0699 104.209 42.7699 104.259 41.4599C104.329 39.7699 104.299 39.7699 106.019 39.8999C106.189 40.0499 106.179 40.2199 106.089 40.4099C106.089 41.2199 106.069 42.0199 106.059 42.8299C106.389 43.2599 106.159 43.6999 106.089 44.1399H106.099Z" fill="white"/>
<path d="M120.309 41.3501C120.439 40.6101 120.939 40.1801 121.579 39.9301C122.229 39.6701 122.659 39.8301 122.819 40.6401C123.159 42.3901 123.589 44.1201 123.969 45.8701C124.089 46.4201 124.389 47.0901 123.549 47.3101C122.719 47.5201 122.339 47.0301 122.209 46.2501C122.019 45.1001 121.769 43.9601 121.579 42.8201C121.509 42.3801 121.499 41.9401 121.049 41.6901C120.739 41.7201 120.549 41.4901 120.319 41.3701L120.309 41.3501Z" fill="white"/>
<path d="M112.999 41.3C113.049 40.7 112.859 40 113.739 39.81C114.619 39.63 114.899 40.29 115.199 40.87C115.879 42.2 116.539 43.54 117.199 44.88C117.399 45.29 117.539 45.75 118.099 45.81C118.309 45.83 118.439 45.92 118.379 46.16C118.299 46.75 118.029 47.23 117.409 47.28C116.829 47.33 116.559 46.83 116.329 46.39C115.659 45.1 114.969 43.83 114.379 42.51C114.149 41.99 113.869 41.8 113.349 41.88C112.869 41.9 112.909 41.62 113.009 41.3H112.999Z" fill="white"/>
<path d="M169.779 47.15C169.039 47.22 168.759 46.92 168.779 46.15C168.819 44.5 168.779 42.84 168.759 41.18C168.739 39.66 169.039 39.47 170.549 40.1C170.789 41.81 170.589 43.53 170.659 45.24C170.679 45.68 170.559 46.15 170.839 46.56C170.939 47.56 170.249 47.16 169.789 47.16L169.779 47.15Z" fill="white"/>
<path d="M42.7801 47.1499C41.8101 47.4599 41.4701 47.1499 41.5301 46.0999C41.6201 44.4899 41.5701 42.8799 41.5801 41.2599C41.5801 39.6499 41.7201 39.5599 43.3501 40.0499C43.5301 42.2199 43.3801 44.3999 43.4301 46.5699C43.4401 47.0199 43.3101 47.2999 42.7801 47.1399V47.1499Z" fill="white"/>
<path d="M143.829 40.3999C143.509 41.0199 143.509 41.6699 143.589 42.3399C143.679 42.5999 143.699 42.8699 143.779 43.1199C143.809 43.3999 143.659 43.6399 143.579 43.8999C143.579 44.7799 143.579 45.6699 143.579 46.5499C143.699 46.8499 143.549 47.0299 143.299 47.1599C142.889 47.1299 142.469 47.0999 142.059 47.0699C141.749 45.4499 141.999 43.8099 141.919 42.1899C141.899 41.7399 141.989 41.2899 141.839 40.8499C141.759 39.0799 143.109 40.1499 143.779 39.8799C143.939 40.0399 143.939 40.2199 143.839 40.4099L143.829 40.3999Z" fill="white"/>
<path d="M101.779 0.350098C101.779 9.5901 101.789 18.8301 101.799 28.0701C101.799 28.4401 101.869 28.8301 101.599 29.1401C101.579 19.7701 101.559 10.3901 101.539 1.0201C101.539 0.770098 101.559 0.520098 101.779 0.350098Z" fill="white"/>
<path d="M109.36 30.8798C107.77 30.7198 106.48 30.4698 105.17 30.7298C104.76 30.8098 104.78 30.3798 104.9 30.0998C105.22 29.3498 105.77 28.7898 106.45 28.3598C106.69 28.2098 107 28.1398 107.24 28.4198C107.88 29.1598 108.52 29.8998 109.36 30.8798Z" fill="white"/>
<path d="M138.042 47.0901C137.952 46.8201 137.852 46.5601 137.762 46.2901C137.762 45.5901 137.762 44.8901 137.772 44.1901C137.792 42.9801 138.022 42.8601 139.292 43.3601C139.502 44.3701 139.422 45.3801 139.332 46.4001C139.142 47.0901 138.612 47.1301 138.042 47.1001V47.0901Z" fill="white"/>
<path d="M34.3409 40.3701C34.7409 40.5201 34.7409 40.7801 34.5309 41.0901C34.4309 42.0501 33.8209 42.8001 33.5209 43.6801C33.3509 44.1201 33.2809 44.6101 32.8209 44.8701C32.0909 45.5001 31.9809 46.6301 30.9609 47.0701C31.9009 44.7301 33.0309 42.5101 34.3409 40.3801V40.3701Z" fill="white"/>
<path d="M113.002 41.2998C113.062 41.5298 113.112 41.7598 113.342 41.8798C113.162 43.4998 112.732 45.0598 112.312 46.6298C112.242 46.8898 112.312 47.2898 111.882 47.2298C111.512 47.1798 111.432 46.8498 111.552 46.5498C112.232 44.8498 112.182 42.9498 113.002 41.2998Z" fill="white"/>
<path d="M42.7812 47.1501C43.4212 47.0301 43.3013 46.5401 43.3013 46.0901C43.3013 44.0801 43.3312 42.0701 43.3512 40.0601C43.8112 41.2701 43.4613 42.5301 43.5413 43.7601C43.5813 44.3401 43.5513 44.9201 43.5513 45.5101C43.5513 46.8501 43.7513 47.0601 45.0713 46.7901C45.7913 46.6401 46.4512 46.5701 47.1012 47.1001C45.6712 47.4301 44.2413 47.5501 42.7812 47.1601V47.1501Z" fill="white"/>
<path d="M60.2816 41.0298L60.3716 41.6498C60.5716 42.6998 59.6916 43.3898 59.5116 44.3098C59.4216 44.5498 59.2416 44.6998 59.0416 44.8498C58.5016 45.1198 58.3816 45.6598 58.1816 46.1498C58.0016 46.5898 57.8116 47.0098 57.1016 46.7598C58.2116 44.8698 59.0016 42.8198 60.2816 41.0298Z" fill="white"/>
<path d="M83.0195 19.0402C83.3095 18.7002 83.7195 18.9102 84.0595 18.8002C84.4795 18.4602 84.9795 18.4602 85.4795 18.4502C88.4695 18.4402 91.4595 18.4502 94.4595 18.4502C95.0095 18.4502 95.5295 18.5402 96.0295 18.7902C96.6195 18.9202 97.2695 18.7002 97.8295 19.0602C92.8895 19.0602 87.9595 19.0602 83.0195 19.0502V19.0402Z" fill="white"/>
<path d="M41.5202 26.6098C41.2402 26.2898 41.3302 25.8998 41.3302 25.5298C41.3302 21.0398 41.3302 16.5498 41.3302 12.0698C41.4102 12.3398 41.5502 12.6198 41.5502 12.8898C41.5502 17.4598 41.5302 22.0298 41.5102 26.5998L41.5202 26.6098Z" fill="white"/>
<path d="M161.109 41.1099L161.319 41.6199C161.649 42.3799 160.949 42.8299 160.759 43.4299C160.589 44.0099 160.339 44.5399 159.849 44.9099C159.289 45.4399 159.259 46.2599 158.779 46.8299C158.439 47.0599 158.259 46.9599 158.219 46.5699C159.189 44.7499 160.149 42.9299 161.119 41.1099H161.109Z" fill="white"/>
<path d="M194.991 28.8601C194.741 28.5801 194.791 28.2401 194.791 27.9101C194.791 23.8301 194.781 19.7501 194.771 15.6701C194.771 15.3801 194.741 15.0801 194.981 14.8501C194.981 19.5201 194.981 24.1901 194.991 28.8601Z" fill="white"/>
<path d="M104.52 47.1499C105.06 46.8199 105.9 47.5299 106.27 46.6499C107.27 46.6199 108.27 46.5899 109.26 46.5799C109.52 46.5799 109.93 46.4699 109.95 46.8899C109.97 47.2399 109.64 47.3699 109.34 47.3699C107.73 47.3999 106.11 47.4499 104.52 47.1499Z" fill="white"/>
<path d="M118.37 46.1598C118.28 46.0398 118.19 45.9298 118.09 45.8098C118.83 44.3198 119.57 42.8298 120.31 41.3398C120.73 41.0398 120.81 41.5298 121.04 41.6598C120.38 42.0898 120.29 42.8698 119.93 43.4798C119.4 44.3598 119.04 45.3498 118.36 46.1498L118.37 46.1598Z" fill="white"/>
<path d="M143.299 47.1598C143.389 46.9598 143.489 46.7498 143.579 46.5498C144.549 46.9498 145.529 46.4998 146.509 46.5698C146.879 46.5998 147.379 46.5198 147.409 46.9798C147.459 47.5798 146.889 47.3498 146.589 47.3398C145.489 47.2998 144.369 47.5498 143.289 47.1498L143.299 47.1598Z" fill="white"/>
<path d="M169.78 47.1501C170.1 46.9601 170.68 47.2801 170.77 46.6401C170.84 46.4901 170.93 46.4701 171.05 46.5801C171.88 46.5801 172.71 46.5801 173.54 46.6201C173.82 46.6301 174.18 46.7201 174.15 47.1001C174.12 47.4601 173.76 47.5601 173.48 47.5001C172.26 47.2201 170.98 47.5201 169.77 47.1501H169.78Z" fill="white"/>
<path d="M159.84 44.9098C160.06 44.3698 160.27 43.8398 160.49 43.2998C161.42 44.2498 162.36 43.8698 163.31 43.3298C163.72 43.7598 163.41 44.4098 163.78 44.8398C162.47 44.8598 161.15 44.8898 159.84 44.9098Z" fill="white"/>
<path d="M121.291 30.6401C124.741 30.6301 128.201 30.6101 131.651 30.6001C131.901 30.6001 132.151 30.5801 132.341 30.8001C128.891 30.8101 125.441 30.8201 121.981 30.8301C121.731 30.8301 121.481 30.8301 121.281 30.6301L121.291 30.6401Z" fill="white"/>
<path d="M106.1 44.1401C106.1 43.7001 106.08 43.2701 106.07 42.8301C107.14 42.9101 108.21 42.9701 109.28 43.0701C109.58 43.1001 110.06 43.0501 109.97 43.5401C109.9 43.9301 109.51 43.7001 109.25 43.7101C108.19 43.7601 107.04 43.1801 106.1 44.1401Z" fill="white"/>
<path d="M32.8203 44.8601C32.9703 44.4301 33.1103 43.9901 33.2603 43.5601C34.1903 44.2901 35.3303 43.8301 36.3403 44.1001C36.5903 44.3801 36.7903 44.6901 36.8303 45.0701C35.5003 45.0001 34.1603 44.9301 32.8303 44.8501L32.8203 44.8601Z" fill="white"/>
<path d="M94.0283 46.83C94.3683 47.29 94.8883 46.98 95.2983 47.11C94.0383 47.68 92.8083 47.31 91.5783 46.99C91.2083 46.89 90.8183 46.57 90.9783 46.19C91.2083 45.68 91.6083 46.12 91.8983 46.24C92.5783 46.53 93.2683 46.79 94.0183 46.82L94.0283 46.83Z" fill="white"/>
<path d="M48.3202 0.110098C48.3002 3.2001 48.2802 6.2901 48.2602 9.3701C47.9602 8.9701 48.0702 8.4901 48.0602 8.0501C48.0402 5.7801 48.0302 3.5101 48.0302 1.2401C48.0302 0.850098 47.8902 0.400098 48.3102 0.100098L48.3202 0.110098Z" fill="white"/>
<path d="M106.101 40.4098C106.081 40.2398 106.051 40.0698 106.031 39.8998C107.061 39.8698 108.081 39.8298 109.111 39.8098C109.391 39.8098 109.781 39.7898 109.791 40.1598C109.791 40.6098 109.381 40.5898 109.051 40.5798C108.071 40.5398 107.101 40.2598 106.101 40.3998V40.4098Z" fill="white"/>
<path d="M143.58 43.8999C143.59 43.6299 143.61 43.3599 143.62 43.0899C144.91 42.9499 146.21 42.8599 147.5 43.1399C147.29 43.7999 146.93 43.9399 146.22 43.7299C145.36 43.4699 144.43 43.4599 143.57 43.9099L143.58 43.8999Z" fill="white"/>
<path d="M143.83 40.4001C143.81 40.2201 143.79 40.0501 143.77 39.8701C144.8 39.6701 145.83 39.8101 146.86 39.8501C147.09 39.8501 147.43 39.8301 147.43 40.1701C147.43 40.5401 147.08 40.6201 146.79 40.5801C145.81 40.4301 144.83 40.2901 143.83 40.4101V40.4001Z" fill="white"/>
<path d="M194.991 7.60984C194.531 6.18984 194.891 4.72984 194.781 3.28984C194.701 2.21984 195.021 1.11984 194.531 0.0898438C195.111 0.0898438 195.041 0.519844 195.041 0.889844C195.021 3.12984 195.001 5.37984 194.991 7.61984V7.60984Z" fill="white"/>
<path d="M135.289 40.32C135.859 39.78 136.709 40.44 137.269 39.86C137.599 39.86 137.929 39.82 138.249 39.85C138.579 39.87 139.149 39.66 139.159 40.17C139.169 40.75 138.589 40.7 138.219 40.58C137.259 40.26 136.269 40.42 135.289 40.33V40.32Z" fill="white"/>
<path d="M172.32 30.5498C174.56 30.5798 176.8 30.6098 179.04 30.6398C176.79 30.9298 174.55 31.1098 172.32 30.5498Z" fill="white"/>
<path d="M171.051 46.5801C170.961 46.6001 170.861 46.6201 170.771 46.6401C170.261 46.1101 170.561 45.4701 170.551 44.8801C170.511 43.2901 170.551 41.6901 170.551 40.1001C171.041 41.0801 170.681 42.1301 170.781 43.1501C170.901 44.2901 170.511 45.4801 171.051 46.5901V46.5801Z" fill="white"/>
<path d="M62.2912 44.8298C61.5912 45.3198 60.8112 45.0498 60.0512 45.0498C59.8812 44.9498 59.5512 44.9998 59.5712 44.7498C59.6012 44.2798 60.0712 44.2798 60.4012 44.1198C60.6712 44.0498 60.9412 44.0098 61.2112 44.0098C61.6812 44.1298 62.4712 43.8298 62.2912 44.8198V44.8298Z" fill="white"/>
<path d="M67.8387 40.8398C68.2887 42.1998 67.9687 43.5898 68.0487 44.9698C68.0887 45.6698 68.0687 46.3598 68.0787 47.0598C67.7287 46.9098 67.7987 46.5898 67.7987 46.3098C67.7987 44.4898 67.8287 42.6598 67.8387 40.8398Z" fill="white"/>
<path d="M141.831 40.8398C142.261 41.7798 141.981 42.7698 142.021 43.7398C142.081 44.8498 142.041 45.9598 142.051 47.0598C141.731 46.9598 141.771 46.6898 141.771 46.4498C141.791 44.5798 141.811 42.7098 141.831 40.8398Z" fill="white"/>
<path d="M27.0508 47.3298C27.0508 47.1798 27.0508 47.0298 27.0508 46.8798C27.6708 46.7998 28.2608 46.6598 28.8108 46.3398C29.0208 46.2198 29.3408 45.9098 29.5308 46.3398C29.6808 46.6898 29.3608 46.8598 29.0908 46.9698C28.4408 47.2298 27.7708 47.4798 27.0508 47.3298Z" fill="white"/>
<path d="M7.06125 36.3701C7.06125 36.4301 7.06125 36.5001 7.07125 36.5601C5.14125 36.5301 3.20125 36.7901 1.28125 36.3901C3.20125 36.3901 5.13125 36.3801 7.05125 36.3701H7.06125Z" fill="white"/>
<path d="M159.27 30.6499C161.03 30.6499 162.78 30.6499 164.54 30.6499C162.78 30.9899 161.03 31.0099 159.27 30.6499Z" fill="white"/>
<path d="M48.2609 24.8301C48.2709 26.5101 48.4909 28.2001 48.0809 29.8701C48.1109 28.1901 47.8909 26.5001 48.2609 24.8301Z" fill="white"/>
<path d="M142.301 18.8102C140.631 18.8102 138.951 18.8202 137.281 18.8302C138.951 18.4002 140.621 18.5102 142.301 18.8102Z" fill="white"/>
<path d="M48.3008 30.8601C49.9608 30.8601 51.6208 30.8401 53.2908 30.8301C51.6308 31.4001 49.9708 31.1401 48.3008 30.8601Z" fill="white"/>
<path d="M65.7812 31.1299C67.3813 31.1299 68.9813 31.1299 70.5813 31.1299C68.9813 31.4799 67.3813 31.4999 65.7812 31.1299Z" fill="white"/>
<path d="M154.55 18.6398C152.96 19.0598 151.35 18.7798 149.75 18.8198C151.34 18.4198 152.95 18.6598 154.55 18.6398Z" fill="white"/>
<path d="M187.738 30.8098C189.328 30.3898 190.938 30.6598 192.538 30.6298C190.948 31.0598 189.338 30.7998 187.738 30.8098Z" fill="white"/>
<path d="M147.5 43.1301C146.21 43.1101 144.91 43.1001 143.62 43.0801C143.61 42.8301 143.6 42.5801 143.59 42.3301C143.88 42.9301 144.45 42.7801 144.96 42.8601C145.81 43.0001 146.72 42.4901 147.51 43.1301H147.5Z" fill="white"/>
<path d="M35.5791 8.31018C34.0691 8.31018 32.5491 8.31018 31.0391 8.31018C32.5591 7.97018 34.0691 7.97018 35.5791 8.31018Z" fill="white"/>
<path d="M9.53125 31.1299C10.9813 31.1299 12.4213 31.1399 13.8713 31.1499C12.4213 31.4899 10.9813 31.5099 9.53125 31.1299Z" fill="white"/>
<path d="M151.579 45.8701C151.429 45.0001 151.539 44.1601 151.809 43.3301C152.159 43.0501 152.499 43.0501 152.819 43.3801C152.499 43.6101 152.149 43.8201 152.329 44.3101C152.009 44.2201 151.779 44.2201 151.789 44.6701C151.789 45.0701 151.839 45.5001 151.589 45.8601L151.579 45.8701Z" fill="white"/>
<path d="M68.2812 47.1302C69.6313 46.9602 70.9813 47.1302 72.3313 47.1302C70.9813 47.5402 69.6313 47.3702 68.2812 47.1302Z" fill="white"/>
<path d="M15.3391 8.31015C13.9891 8.31015 12.6391 8.32015 11.2891 8.33015C12.6391 7.99015 13.9891 7.93015 15.3391 8.31015Z" fill="white"/>
<path d="M62.2913 44.8298C62.1613 43.9698 61.4313 44.5298 61.0312 44.2998C61.2712 43.6998 61.9513 43.6898 62.3613 43.2998C62.6013 43.8898 62.8313 44.4898 63.0713 45.0798C62.8113 44.9898 62.5513 44.9098 62.2913 44.8198V44.8298Z" fill="white"/>
<path d="M26.5508 31.1299C27.8108 31.1299 29.0708 31.1299 30.3308 31.1299C29.0708 31.4599 27.8108 31.5199 26.5508 31.1299Z" fill="white"/>
<path d="M71.3213 8.33002C70.3213 8.35002 69.3112 8.37002 68.3112 8.40002C68.0512 8.38002 67.7912 8.35002 67.5312 8.33002C68.7912 7.98002 70.0613 7.95002 71.3213 8.33002Z" fill="white"/>
<path d="M158.21 46.5698C158.26 46.9498 158.53 46.8498 158.77 46.8298C158.12 47.4398 157.28 47.2398 156.52 47.3298C156.69 47.1198 156.81 46.8898 156.78 46.6098C157.26 46.9098 157.74 46.9498 158.21 46.5698Z" fill="white"/>
<path d="M91.3213 8.3199C90.1413 8.3199 88.9612 8.3199 87.7812 8.3199C88.9612 8.0199 90.1413 7.9299 91.3213 8.3199Z" fill="white"/>
<path d="M90.0312 31.3099C91.0312 30.9799 92.0613 31.0999 93.0813 31.1399C92.0813 31.4799 91.0512 31.3699 90.0312 31.3099Z" fill="white"/>
<path d="M139.341 46.3901C139.331 45.3801 139.311 44.3701 139.301 43.3501C139.661 44.3601 139.711 45.3701 139.341 46.3901Z" fill="white"/>
<path d="M54.5895 39.8298C53.6495 39.8298 52.7095 39.8198 51.7695 39.8098C52.7095 39.4698 53.6495 39.4498 54.5895 39.8298Z" fill="white"/>
<path d="M28.3286 39.8098C27.4886 39.8098 26.6486 39.8098 25.8086 39.8098C26.6486 39.4698 27.4886 39.4398 28.3286 39.8098Z" fill="white"/>
<path d="M60.3291 44.3798C60.3891 44.6698 59.2891 44.4698 60.0491 45.0498C59.6691 45.1998 59.3491 45.0198 59.0391 44.8498C59.1291 44.6698 59.2191 44.4998 59.3091 44.3198C59.6691 44.0698 60.0091 44.0398 60.3291 44.3798Z" fill="white"/>
<path d="M39.5312 31.1499C40.3813 31.1499 41.2313 31.1499 42.0813 31.1499C41.2313 31.4999 40.3813 31.4699 39.5312 31.1499Z" fill="white"/>
<path d="M89.3008 44.8501C89.3008 44.0101 89.3108 43.1701 89.3208 42.3301C89.7208 43.1701 89.6808 44.0101 89.3008 44.8501Z" fill="white"/>
<path d="M125.34 14.8898C125.34 14.0298 125.34 13.1798 125.34 12.3198C125.69 13.1698 125.66 14.0298 125.34 14.8898Z" fill="white"/>
<path d="M44.7088 28.4398C44.4588 27.8998 44.0288 28.0998 43.6488 28.1898C41.9588 28.5898 41.7488 28.4398 41.5288 26.6198C41.3388 26.0498 41.4488 25.4698 41.4388 24.8898C41.3788 20.6198 41.5488 16.3498 41.3488 12.0798C41.3088 11.4298 40.9688 10.8898 40.5588 10.4498C39.2188 9.01981 37.4588 8.53981 35.5888 8.31981C34.0788 8.17981 32.5588 8.19981 31.0488 8.31981C28.9388 8.35981 26.9688 9.02981 24.9888 9.64981C24.4888 9.80981 24.2088 10.0498 24.2888 10.6198C24.3888 11.3198 24.3888 12.1398 25.0188 12.5298C25.6088 12.8898 26.0388 12.1698 26.5288 11.9098C28.9788 10.6298 31.4888 9.99981 34.1888 11.0798C35.4088 11.5698 36.3188 12.7198 36.3188 13.7598C36.3188 15.0298 35.5988 15.9098 34.1288 16.4198C33.6588 16.5798 33.1888 16.7398 32.7188 16.8898C30.4488 17.5598 28.1388 18.1098 25.9288 18.9098C22.8988 20.0098 21.2788 22.6598 21.5388 25.7098C21.7688 28.4498 23.6688 30.4998 26.5688 31.1398C27.8288 31.2998 29.0888 31.2898 30.3488 31.1398C32.4588 30.9698 34.2488 30.0198 35.7588 28.6498C36.6188 27.8698 36.7988 28.1198 37.0588 29.0198C37.4188 30.2598 38.0788 31.1998 39.5588 31.1598C40.4088 31.2698 41.2588 31.2798 42.1088 31.1598C42.7788 30.9598 43.4688 30.8098 44.0988 30.5398C44.6588 30.2898 44.9888 28.9998 44.7288 28.4498L44.7088 28.4398ZM36.3088 21.1698C36.3088 21.7498 36.3088 22.3298 36.3088 22.9198C36.2988 26.6598 32.7788 29.2498 29.1988 28.1398C27.8788 27.7298 26.8488 26.9398 26.5888 25.5598C26.2988 23.9998 26.5088 22.4898 27.8888 21.3898C29.8588 19.8198 32.2688 19.2398 34.5488 18.3998C36.2988 17.7598 36.3088 17.7898 36.3088 19.6798C36.3088 20.1798 36.3088 20.6798 36.3088 21.1798V21.1698Z" fill="white"/>
<path d="M100.361 17.69C100.261 17.38 100.281 17.03 100.221 16.71C99.3106 11.78 96.0406 8.70003 91.3206 8.32003C90.1406 8.18003 88.9606 8.19003 87.7806 8.32003C82.5106 8.72003 78.9606 11.51 77.6906 16.26C77.3106 17.68 77.2806 19.13 77.2906 20.58C77.3506 25.42 80.1206 29.11 84.8006 30.55C85.7406 29.97 86.2406 29.12 86.3806 28.04C84.6406 26.7 83.3606 25.02 82.9506 22.85C82.7206 21.6 82.0806 20.29 83.0106 19.03C83.3706 18.86 83.8106 19.1 84.1506 18.82C84.4206 18.28 84.5506 17.73 84.4006 17.13C84.3906 17.11 84.3606 17.1 84.3506 17.08C83.9006 17.04 83.4606 16.99 83.0106 16.89C82.9406 16.79 82.8006 16.69 82.8206 16.6C83.2206 14.36 84.0706 12.29 86.0906 11.1C89.1106 9.33004 92.5206 10.29 94.1206 13.63C94.6206 14.68 95.1906 15.8 94.7806 17.06C94.7406 17.1 94.6906 17.12 94.6506 17.16C94.9506 17.91 95.4206 18.53 96.1306 18.95C96.6906 19.02 97.2606 18.87 97.8206 19.04C98.2306 19.06 98.6506 19.04 99.0606 19.09C100.171 19.23 100.761 18.92 100.361 17.67V17.69Z" fill="white"/>
<path d="M88.3084 17.0798C90.4684 17.0798 92.6284 17.0798 94.7884 17.0798C95.1284 17.6998 95.8084 18.0898 96.0284 18.7898C92.0384 18.8698 88.0484 18.9198 84.0584 18.7998C83.9684 18.2098 84.1584 17.6698 84.3084 17.1198C85.6384 16.8698 86.9784 16.9598 88.3184 17.0798H88.3084Z" fill="white"/>
<path d="M88.3117 17.08C86.9717 17.09 85.6417 17.11 84.3017 17.12C83.8917 16.94 83.3917 17.26 83.0117 16.9C84.7817 16.85 86.5517 16.69 88.3117 17.07V17.08Z" fill="white"/>
<path d="M89.3183 42.33C89.1283 41.44 88.5283 40.9 87.7483 40.52C85.2583 39.34 82.7683 39.35 80.2783 40.5C79.2483 40.97 78.7283 41.85 78.5883 42.96C78.3283 45.16 79.4283 46.65 81.6083 47.08C85.3483 47.83 87.9983 47.06 89.2983 44.85C89.5083 44.01 89.4683 43.17 89.3183 42.33ZM84.1183 46.85C81.1783 46.82 80.4283 45.52 80.3483 43.14C80.2883 41.45 81.9783 40.23 84.0683 40.27C86.4683 40.31 87.7183 41.47 87.6883 43.6C87.6583 45.66 86.2983 46.9 84.1283 46.85H84.1183Z" fill="white"/>
<path d="M74.0081 40.1598C72.1781 39.6298 70.2881 39.9098 68.4281 39.8698C67.7381 39.8598 67.7981 40.3798 67.8381 40.8498C68.0181 41.3298 67.9081 41.8198 67.9281 42.3098C68.0181 43.8898 67.7581 45.4898 68.0681 47.0698C68.1281 47.1198 68.1981 47.1398 68.2781 47.1398C69.6281 47.2898 70.9781 47.2798 72.3181 47.1398C72.6481 47.1198 72.9881 47.1398 73.3081 47.0698C74.6981 46.7698 75.9381 46.1598 76.5581 44.8298C77.4681 42.8998 76.3081 40.8298 73.9981 40.1598H74.0081ZM72.3081 46.6198C71.4881 46.7598 70.6581 46.8698 69.8481 46.5598C69.8181 46.4998 69.7981 46.4398 69.7881 46.3798C69.6181 44.5398 69.6181 42.6898 69.7881 40.8498C69.9181 40.6998 70.0281 40.4598 70.1881 40.4198C71.8581 39.9698 74.5081 41.3098 74.9481 42.7898C75.4381 44.4498 74.4281 45.9198 72.3081 46.6298V46.6198Z" fill="white"/>
<path d="M69.789 40.8301C69.789 42.6701 69.789 44.5201 69.789 46.3601C69.429 44.5201 69.369 42.6701 69.789 40.8301Z" fill="white"/>
<path d="M69.8398 46.5498C70.6498 46.8098 71.4799 46.4798 72.2999 46.6098C71.4699 46.8198 70.6398 47.2398 69.8398 46.5498Z" fill="white"/>
<path d="M166.709 46.0301C166.249 45.2001 165.749 44.3901 165.269 43.5601C164.689 42.5601 164.169 41.5101 163.529 40.5501C162.749 39.3701 162.039 39.4301 161.309 40.6601C161.229 40.8001 161.179 40.9601 161.109 41.1101C161.139 41.3101 161.109 41.5301 161.309 41.6601C161.309 41.6501 161.309 41.6401 161.309 41.6301C161.789 41.2701 162.189 41.2601 162.489 41.8501C162.749 42.3501 163.029 42.8401 163.309 43.3401C163.289 43.5501 163.239 43.7001 163.179 43.8201C163.269 44.2201 163.319 44.6401 163.779 44.8501C164.139 45.3601 164.489 45.8701 164.869 46.3601C165.069 46.6201 165.269 46.9001 165.519 47.0901C165.939 47.4201 166.449 47.5501 166.879 47.1301C167.299 46.7301 166.899 46.3601 166.709 46.0201V46.0301Z" fill="white"/>
<path d="M65.6807 45.9201C64.7407 44.1701 63.7207 42.4701 62.7607 40.7301C62.4607 40.1801 62.1607 39.7301 61.4507 39.8201C60.7407 39.9101 60.3407 40.3101 60.2707 41.0301C60.1907 41.1901 60.1707 41.3701 60.2007 41.5501C60.2807 41.5601 60.3307 41.6001 60.4107 41.6201C60.9007 41.2301 61.3307 41.1901 61.6507 41.8601C61.8807 42.3501 62.1207 42.8301 62.3507 43.3101C62.3807 43.5701 62.3407 43.7301 62.2607 43.8501C62.4507 44.3101 62.7107 44.7301 63.0607 45.1001C63.4607 45.6701 63.8307 46.2801 64.2907 46.8001C64.6807 47.2401 65.2407 47.6101 65.8207 47.2201C66.4407 46.8001 65.8707 46.3001 65.6707 45.9301L65.6807 45.9201Z" fill="white"/>
<path d="M156.778 46.6101C156.118 46.0501 155.448 45.5101 154.798 44.9401C154.478 44.6501 153.908 44.4501 154.048 43.9101C154.178 43.4101 154.778 43.4701 155.168 43.3901C155.928 43.2301 156.458 42.9901 156.518 42.0801C156.588 41.1601 156.268 40.6201 155.418 40.2601C154.388 39.8201 153.348 39.7801 152.268 39.9501C152.228 40.0001 152.208 40.0601 152.208 40.1201C152.238 40.1001 152.248 40.0701 152.278 40.0501C152.578 40.6001 153.168 40.2701 153.598 40.4801C154.198 40.7701 154.848 40.9901 154.858 41.8001C154.858 42.5301 154.358 42.8701 153.738 43.0901C153.428 43.2001 153.118 43.2901 152.808 43.4001C152.688 43.4001 152.558 43.3901 152.438 43.3801C152.148 43.6301 151.948 43.9001 152.318 44.3301C153.598 45.5001 154.658 46.9701 156.508 47.3401C156.808 47.1801 157.058 46.9901 156.768 46.6201L156.778 46.6101Z" fill="white"/>
<path d="M39.5598 46.1301C39.0698 45.2701 38.5498 44.4201 38.0698 43.5601C37.5298 42.5801 37.0998 41.5501 36.4998 40.6101C35.8598 39.5901 35.1798 39.5701 34.3398 40.3801C34.4398 40.6301 34.3898 40.9101 34.4998 41.1501C34.4998 41.1301 34.5198 41.1101 34.5298 41.1001C35.7398 41.7401 36.0098 42.9501 36.3298 44.1201C36.2698 44.1401 36.2198 44.1501 36.1598 44.1701C36.3098 44.5301 36.5998 44.7901 36.8198 45.0901C37.4898 45.7001 37.6198 46.7501 38.5198 47.1701C38.8998 47.3501 39.3098 47.5401 39.6598 47.1501C39.9898 46.7901 39.7298 46.4401 39.5498 46.1301H39.5598Z" fill="white"/>
</g>
<defs>
<clipPath id="clip0_396_8122">
<rect width="195.3" height="48.88" fill="white"/>
</clipPath>
</defs>
</svg>
