<svg width="150" height="53" viewBox="0 0 150 53" fill="none" xmlns="http://www.w3.org/2000/svg">
<g clip-path="url(#clip0_396_8223)">
<path d="M58.7241 23.6075C58.7241 23.6645 58.7146 23.7596 58.7051 23.8879C58.6908 24.0209 58.6718 24.1635 58.6433 24.3298C58.6148 24.4961 58.5768 24.6672 58.5292 24.8382C58.4817 25.0141 58.4294 25.1756 58.3677 25.3182C58.3059 25.4607 58.2299 25.5795 58.1491 25.6746C58.0635 25.7649 57.9685 25.8124 57.8592 25.8124H50.4794C50.3464 25.8124 50.2228 25.7934 50.1135 25.7554C49.9995 25.7174 49.9092 25.6556 49.8379 25.57C49.7714 25.4798 49.7191 25.3752 49.7001 25.2469C49.6764 25.1139 49.6811 24.9618 49.7144 24.7812L52.6511 10.15C52.6606 10.0644 52.6986 9.9884 52.7604 9.92663C52.8269 9.8601 52.9314 9.80308 53.0645 9.76506C53.2023 9.72229 53.3734 9.69378 53.5872 9.67002C53.801 9.65102 54.0672 9.63676 54.3903 9.63676C54.7134 9.63676 54.97 9.65102 55.1744 9.67002C55.3787 9.68903 55.545 9.72229 55.6591 9.76506C55.7731 9.80308 55.8491 9.8601 55.8872 9.92663C55.9252 9.9884 55.9347 10.0692 55.9157 10.15L53.3306 23.1133H58.4057C58.5245 23.1133 58.6053 23.1608 58.648 23.2511C58.6956 23.3461 58.7193 23.4649 58.7193 23.6122M45.2143 15.9236C45.2143 15.4009 45.1477 14.9162 45.0004 14.4647C44.8579 14.0181 44.6298 13.6331 44.3162 13.31C44.0025 12.9821 43.5986 12.7303 43.1044 12.5497C42.6055 12.3691 41.9497 12.2741 41.1181 12.2741H39.4169L37.212 23.2273H38.9322C39.8018 23.2273 40.5336 23.1228 41.1276 22.909C41.7168 22.6951 42.2396 22.4052 42.6957 22.0393C43.1472 21.6687 43.5321 21.241 43.8505 20.7563C44.1736 20.2716 44.435 19.7584 44.6345 19.2167C44.8389 18.675 44.9814 18.1237 45.0765 17.563C45.1668 16.9975 45.2143 16.4511 45.2143 15.9188V15.9236ZM48.6499 15.5387C48.6499 16.0376 48.6167 16.5603 48.5549 17.1211C48.4931 17.6771 48.3886 18.2425 48.2413 18.8223C48.0987 19.402 47.8991 19.9722 47.6568 20.5377C47.4097 21.108 47.1056 21.6497 46.7397 22.1676C46.3785 22.6856 45.9413 23.1703 45.4424 23.617C44.9387 24.0684 44.3637 24.4533 43.7079 24.7812C43.0474 25.1139 42.3108 25.3657 41.4887 25.551C40.6667 25.7316 39.6878 25.8219 38.552 25.8219H34.4559C34.3228 25.8219 34.1945 25.8029 34.0757 25.7696C33.9522 25.7364 33.8571 25.6793 33.7763 25.6033C33.7003 25.5225 33.6433 25.418 33.6148 25.2849C33.5863 25.1519 33.5958 24.9856 33.6338 24.786L36.4469 10.7487C36.5087 10.3828 36.656 10.1215 36.8794 9.95989C37.1027 9.79833 37.3688 9.71754 37.6777 9.71754H41.56C42.8383 9.71754 43.9027 9.84109 44.7628 10.0929C45.6229 10.34 46.3405 10.7107 46.9155 11.2002C47.4952 11.6896 47.9229 12.2979 48.2128 13.0201C48.4979 13.7472 48.6404 14.5835 48.6404 15.5387H48.6499ZM33.8809 11.2714C33.8809 11.5043 33.8381 11.8132 33.7621 12.2076C33.6813 12.5972 33.5815 12.9061 33.4627 13.1484C33.3439 13.386 33.2061 13.5048 33.0588 13.5048C32.9543 13.5048 32.8212 13.4336 32.6739 13.2958C32.5266 13.158 32.3317 13.0106 32.0941 12.8538C31.8518 12.697 31.5477 12.5497 31.1723 12.4119C30.7969 12.2741 30.3359 12.2076 29.7799 12.2076C29.1622 12.2076 28.6015 12.3311 28.0978 12.5735C27.5941 12.8206 27.1426 13.1437 26.7435 13.5476C26.3443 13.9515 25.9974 14.4077 25.698 14.9352C25.3987 15.4579 25.1516 15.9949 24.9567 16.5603C24.7666 17.1258 24.6146 17.6866 24.5243 18.2473C24.4245 18.808 24.3817 19.3307 24.3817 19.8107C24.3817 20.3952 24.453 20.9036 24.6003 21.3408C24.7476 21.7827 24.9567 22.1486 25.2276 22.4385C25.5032 22.7284 25.8406 22.947 26.2397 23.0943C26.6342 23.2368 27.0856 23.3129 27.5798 23.3129C28.169 23.3129 28.6727 23.2511 29.0909 23.1275C29.5138 23.004 29.8702 22.8662 30.1601 22.7189C30.4547 22.5668 30.7018 22.429 30.8967 22.3055C31.0915 22.1819 31.2673 22.1201 31.4241 22.1201C31.5334 22.1201 31.6047 22.1581 31.6427 22.2389C31.676 22.315 31.6997 22.4243 31.6997 22.5668C31.6997 22.6286 31.6902 22.7141 31.676 22.8282C31.657 22.9422 31.638 23.0753 31.6142 23.2178C31.5952 23.3604 31.5619 23.522 31.5287 23.693C31.4954 23.8641 31.4574 24.0209 31.4146 24.1635C31.3766 24.306 31.3243 24.4391 31.2768 24.5626C31.2198 24.6814 31.1485 24.786 31.0582 24.8763C30.9679 24.9665 30.7874 25.0901 30.5213 25.2327C30.2551 25.3752 29.932 25.513 29.5471 25.6366C29.1669 25.7601 28.7345 25.8647 28.2498 25.955C27.7699 26.0405 27.2567 26.088 26.7102 26.088C25.8073 26.088 24.99 25.9645 24.2629 25.7269C23.5359 25.4845 22.9229 25.1186 22.4144 24.6292C21.9107 24.1397 21.5163 23.5267 21.2455 22.7854C20.9698 22.0441 20.832 21.184 20.832 20.2003C20.832 19.4258 20.9128 18.6227 21.0696 17.7911C21.2264 16.9595 21.464 16.1422 21.7824 15.3439C22.1056 14.5503 22.5095 13.7947 22.9989 13.0819C23.4884 12.3691 24.0634 11.7419 24.7381 11.2097C25.4034 10.6727 26.1637 10.2498 27.0143 9.93613C27.8649 9.6225 28.8058 9.46094 29.8417 9.46094C30.4262 9.46094 30.9727 9.52271 31.4954 9.64151C32.0134 9.76031 32.4648 9.92188 32.8497 10.1215C33.2346 10.321 33.5055 10.5016 33.6575 10.6632C33.8096 10.8247 33.8904 11.0338 33.8904 11.2809L33.8809 11.2714Z" fill="white"/>
<path d="M5.98662 50.9361C4.04308 50.9361 2.92637 50.9028 2.89786 50.9028C2.16606 50.8791 1.58632 50.2661 1.61008 49.5343C1.63384 48.8025 2.24684 48.2085 2.97864 48.2465C3.33504 48.256 38.8273 49.2064 62.7582 39.3271C63.4377 39.0467 64.2122 39.3699 64.4926 40.0494C64.773 40.7289 64.4498 41.5035 63.7703 41.7839C50.9638 47.068 35.0923 49.2682 24.0298 50.1806C16.2223 50.8268 9.64087 50.9361 5.98662 50.9361Z" fill="white"/>
<path d="M33.0811 49.2251C32.5299 49.2251 32.0119 48.8783 31.8219 48.3223C31.5843 47.6285 31.9549 46.8729 32.6534 46.6353C34.4877 46.0081 41.0169 43.6701 48.0878 39.8163C56.9787 34.9693 63.256 29.6899 66.7534 24.1254C67.1431 23.5029 67.9652 23.3175 68.5877 23.7072C69.2102 24.0968 69.3955 24.9189 69.0058 25.5414C60.2528 39.4789 37.9043 47.657 33.5135 49.1539C33.371 49.2014 33.2284 49.2251 33.0859 49.2251H33.0811Z" fill="white"/>
<path d="M64.8957 0.812371C64.6866 0.318168 64.1924 -0.0192202 63.6649 -0.000212423C49.0432 0.0615629 10.7947 0.199369 9.47846 0.132842H7.34958L8.16692 2.01937C8.28572 2.27597 19.947 27.9793 0.321453 50.8124C-0.0159357 51.2068 -0.0967188 51.7628 0.121871 52.2332C0.34046 52.7037 0.810903 53.0078 1.32887 53.0078H55.8812C56.2091 53.0078 56.5227 52.889 56.7651 52.6704C56.9884 52.4708 62.3201 47.6666 66.0124 38.847C69.41 30.7259 71.9808 17.5345 64.8957 0.812371ZM63.6031 37.7065C60.6807 44.7441 56.5608 49.1444 55.3443 50.3467H4.12776C13.356 38.405 14.8101 26.0547 14.3302 17.582C13.9453 10.7915 12.3344 5.48829 11.346 2.80344C11.4648 2.80344 11.5931 2.80344 11.7261 2.80344C13.2182 2.80344 15.3471 2.80344 17.8942 2.80344C22.9882 2.79869 29.7788 2.77968 36.5598 2.75592C48.0643 2.7179 59.5545 2.67513 62.7858 2.66088C67.8371 15.054 68.1127 26.8388 63.6079 37.7017L63.6031 37.7065Z" fill="white"/>
<path d="M149.998 27.7231C149.998 27.8371 149.984 28.0177 149.955 28.2648C149.932 28.5214 149.889 28.8018 149.841 29.1202C149.784 29.4386 149.708 29.7712 149.618 30.1086C149.528 30.446 149.428 30.7596 149.304 31.04C149.181 31.3203 149.043 31.5484 148.886 31.729C148.72 31.9001 148.539 31.9903 148.326 31.9903H134.032C133.775 31.9903 133.538 31.9571 133.324 31.8811C133.1 31.8098 132.929 31.6862 132.787 31.5199C132.654 31.3488 132.559 31.1397 132.516 30.8926C132.468 30.636 132.473 30.3414 132.54 29.985L138.228 1.6349C138.242 1.46858 138.318 1.32127 138.442 1.19772C138.575 1.06467 138.769 0.960124 139.036 0.884093C139.297 0.80331 139.634 0.746287 140.048 0.703519C140.461 0.660752 140.979 0.636992 141.602 0.636992C142.224 0.636992 142.723 0.660752 143.122 0.703519C143.517 0.746287 143.84 0.80331 144.063 0.884093C144.286 0.960124 144.434 1.06467 144.51 1.19772C144.586 1.32127 144.6 1.46858 144.567 1.6349L139.553 26.7537H149.39C149.618 26.7537 149.775 26.844 149.86 27.0151C149.951 27.1956 149.998 27.4285 149.998 27.7136M123.834 12.8162C123.834 11.8041 123.701 10.8632 123.421 9.99358C123.15 9.12872 122.703 8.38267 122.095 7.75541C121.487 7.1234 120.702 6.6387 119.747 6.28231C118.783 5.93066 117.509 5.74534 115.894 5.74534H112.591L108.319 26.9723H111.65C113.337 26.9723 114.753 26.768 115.903 26.3545C117.048 25.9411 118.06 25.3851 118.94 24.6676C119.814 23.9501 120.56 23.1185 121.178 22.1823C121.805 21.2462 122.304 20.2483 122.698 19.2029C123.093 18.1574 123.373 17.0882 123.554 16C123.725 14.9071 123.815 13.8427 123.815 12.8162H123.834ZM130.492 12.0654C130.492 13.0301 130.425 14.047 130.311 15.1257C130.187 16.2044 129.993 17.2973 129.703 18.4188C129.422 19.5402 129.042 20.6474 128.576 21.7451C128.101 22.8476 127.507 23.9025 126.799 24.9052C126.101 25.9079 125.25 26.8487 124.281 27.7136C123.311 28.5832 122.19 29.334 120.921 29.9708C119.648 30.6123 118.212 31.1065 116.625 31.4581C115.038 31.8098 113.137 31.9856 110.937 31.9856H103.001C102.745 31.9856 102.498 31.9523 102.27 31.8858C102.032 31.8193 101.842 31.7147 101.685 31.5627C101.538 31.4059 101.429 31.2015 101.372 30.9449C101.315 30.6883 101.329 30.3699 101.414 29.9803L106.865 2.78012C106.988 2.07208 107.269 1.56362 107.706 1.24999C108.143 0.936365 108.652 0.77955 109.255 0.77955H116.777C119.253 0.77955 121.32 1.01715 122.983 1.5066C124.647 1.98179 126.039 2.69934 127.156 3.65448C128.277 4.60012 129.109 5.7786 129.665 7.18518C130.216 8.59175 130.496 10.2122 130.496 12.0654H130.492ZM101.875 3.79229C101.875 4.24372 101.794 4.84722 101.642 5.60278C101.486 6.35834 101.296 6.96183 101.058 7.42277C100.825 7.88371 100.564 8.11181 100.274 8.11181C100.07 8.11181 99.8129 7.974 99.5231 7.70789C99.2332 7.44653 98.8578 7.15666 98.3969 6.85254C97.9264 6.54842 97.3372 6.25855 96.6101 5.99719C95.8878 5.73583 94.9897 5.60278 93.911 5.60278C92.7183 5.60278 91.6301 5.84038 90.6512 6.31082C89.6723 6.78601 88.7979 7.41327 88.0281 8.19734C87.2535 8.98141 86.5788 9.87003 86.0038 10.8869C85.4193 11.8991 84.9441 12.9445 84.5639 14.0375C84.1933 15.1304 83.9034 16.2186 83.7228 17.3068C83.5328 18.395 83.4425 19.4072 83.4425 20.3338C83.4425 21.46 83.585 22.4484 83.8606 23.299C84.1505 24.1544 84.5497 24.8624 85.0771 25.4232C85.6141 25.9839 86.2604 26.4116 87.0349 26.6919C87.8 26.9723 88.6744 27.1101 89.6343 27.1101C90.7795 27.1101 91.7489 26.996 92.5615 26.7489C93.3788 26.5114 94.0678 26.2452 94.6333 25.9601C95.1988 25.6655 95.6787 25.3994 96.0589 25.1618C96.439 24.9242 96.7764 24.8006 97.0806 24.8006C97.2944 24.8006 97.4322 24.8767 97.5082 25.0287C97.5748 25.1761 97.6175 25.3899 97.6175 25.6608C97.6175 25.7748 97.5985 25.9506 97.57 26.1692C97.5368 26.3926 97.4987 26.6444 97.4465 26.9248C97.4037 27.2051 97.3467 27.5188 97.2801 27.8466C97.2136 28.1745 97.1423 28.4787 97.0568 28.759C96.9808 29.0394 96.8857 29.296 96.7859 29.5336C96.6766 29.7664 96.5388 29.9708 96.3678 30.1418C96.1967 30.3129 95.8403 30.5553 95.3318 30.8309C94.8139 31.1112 94.1866 31.3726 93.4453 31.6102C92.704 31.8478 91.8724 32.0569 90.9363 32.2279C90.0049 32.3943 89.0118 32.4846 87.9473 32.4846C86.1939 32.4846 84.6162 32.247 83.2049 31.786C81.7983 31.3156 80.6056 30.6075 79.6267 29.6619C78.6478 28.7163 77.8922 27.5235 77.3647 26.0884C76.8278 24.6581 76.5664 22.9854 76.5664 21.0751C76.5664 19.5783 76.7232 18.0196 77.0273 16.4087C77.3315 14.7978 77.7924 13.2154 78.4102 11.6663C79.0374 10.1266 79.8167 8.66303 80.7624 7.28022C81.708 5.8974 82.8295 4.68565 84.1267 3.64973C85.4193 2.6138 86.8924 1.79172 88.5366 1.17871C90.1807 0.570465 92.0102 0.256836 94.0156 0.256836C95.1418 0.256836 96.2062 0.380387 97.2184 0.60848C98.221 0.841326 99.0954 1.1502 99.8414 1.53986C100.592 1.92477 101.11 2.27166 101.405 2.58529C101.699 2.89892 101.856 3.30283 101.856 3.77803L101.875 3.79229Z" fill="white"/>
<path d="M149.392 42.8865C149.658 43.0861 149.72 43.3094 149.682 43.5565C149.573 44.2978 149.468 45.0344 149.345 45.7757C149.197 46.6501 149.045 47.5244 148.884 48.394C148.755 49.0735 148.618 49.7531 148.466 50.4279C148.432 50.5847 148.337 50.732 148.247 50.9411C147.971 50.9173 147.72 50.884 147.463 50.8793C147.016 50.8698 146.565 50.8508 146.123 50.8888C145.225 50.9648 144.331 51.1596 143.429 51.0646C142.792 50.9981 142.312 50.5894 141.922 50.1142C141.167 49.1923 140.934 48.1327 141.119 46.9684C141.323 45.6807 141.789 44.5402 142.854 43.6896C143.676 43.0291 144.607 42.7012 145.662 42.7535C146.123 42.7725 146.589 42.839 147.035 42.953C147.625 43.1051 148.195 43.1146 148.779 42.9768C148.988 42.9245 149.212 42.9198 149.397 42.896L149.392 42.8865ZM147.083 46.498C146.997 46.1654 146.902 45.7519 146.774 45.3528C146.674 45.0391 146.437 44.8396 146.123 44.7208C145.462 44.4689 144.659 44.659 144.184 45.2482C143.514 46.0798 143.139 47.0112 143.429 48.0946C143.519 48.4273 143.633 48.7552 143.942 48.9833C144.845 49.658 145.947 49.2066 146.38 48.5936C146.802 47.9996 146.959 47.3011 147.083 46.498Z" fill="white"/>
<path d="M135.655 40.0112C135.598 40.3866 135.536 40.762 135.494 41.1374C135.427 41.6744 135.37 42.2066 135.318 42.7435C135.308 42.8481 135.342 42.9574 135.361 43.1142C135.874 42.9716 136.34 42.7673 136.815 42.734C137.632 42.6723 138.492 42.6343 139.129 43.3043C139.295 43.4801 139.438 43.7272 139.481 43.96C139.604 44.6348 139.58 45.3144 139.466 45.9939C139.381 46.4976 139.357 47.006 139.271 47.5098C139.129 48.3699 138.977 49.2252 138.801 50.0806C138.654 50.8029 138.525 50.7838 137.746 50.8979C137.528 50.9312 137.295 50.8789 137.076 50.8266C136.819 50.7696 136.644 50.608 136.691 50.3229C136.824 49.4866 136.972 48.6502 137.105 47.8139C137.204 47.1724 137.304 46.5261 137.375 45.8798C137.404 45.6042 137.404 45.3048 137.333 45.034C137.209 44.5683 136.81 44.3782 136.349 44.5303C135.674 44.7536 135.147 45.0958 134.895 45.8371C134.572 46.7922 134.296 47.7474 134.158 48.7453C134.078 49.3393 133.935 49.9285 133.821 50.5177C133.769 50.7838 133.574 50.8789 133.332 50.9026C133.046 50.9312 132.761 50.9692 132.481 50.9502C132.248 50.9359 132.02 50.8409 131.754 50.7696C131.844 50.0901 131.92 49.4723 132.001 48.8593C132.177 47.524 132.486 46.2172 132.752 44.9009C132.923 44.0503 132.994 43.1807 133.137 42.3254C133.27 41.5223 133.436 40.7287 133.602 39.8639C134.049 39.7308 134.515 39.5883 134.98 39.4504C135.009 39.4409 135.042 39.4362 135.071 39.4267C135.133 39.4124 135.194 39.4029 135.256 39.3887C135.37 39.5312 135.484 39.6738 135.593 39.8211C135.612 39.8116 135.636 39.7973 135.655 39.7878V40.0112Z" fill="white"/>
<path d="M94.1593 43.3473C94.1165 43.6704 94.088 43.9935 94.0358 44.3167C93.9312 44.9582 93.8172 45.5997 93.6936 46.2365C93.5748 46.8637 93.4275 47.4862 93.3087 48.1135C93.1852 48.7645 93.0664 49.4155 92.9666 50.0713C92.843 50.8744 92.3868 51.0597 91.7453 50.9409C90.9518 50.7936 90.1867 50.8981 89.4074 50.9837C88.8419 51.0454 88.2526 51.0644 87.6872 50.9884C87.0266 50.8981 86.5087 50.4895 86.1475 49.9382C85.525 49.0021 85.1971 47.9757 85.4395 46.8495C85.7151 45.5664 86.2473 44.4165 87.345 43.6039C88.4 42.8198 89.607 42.5204 90.8757 42.8388C91.4412 42.9814 91.9592 43.0669 92.5294 42.9766C92.8953 42.9196 93.2755 42.9671 93.6461 42.9624C93.7839 43.0194 93.9265 43.0764 94.0595 43.1287C94.0975 43.2095 94.1261 43.276 94.1593 43.3425V43.3473ZM87.7299 47.5337C87.7299 47.6573 87.7204 47.7808 87.7299 47.8996C87.806 48.8073 88.4998 49.4868 89.3313 49.4155C89.9538 49.3632 90.4671 49.0354 90.8092 48.5412C91.2701 47.8759 91.6265 47.1441 91.5172 46.2982C91.446 45.7613 91.2131 45.2718 90.8615 44.8536C90.5336 44.4592 89.4691 44.5638 89.0605 44.8536C88.1196 45.5094 87.8155 46.4693 87.7299 47.5337Z" fill="white"/>
<path d="M84.0517 40.1112C84.1087 40.116 84.1705 40.1255 84.2275 40.1302C84.4176 40.2205 84.6029 40.3156 84.793 40.4058C84.7027 40.6767 84.5839 40.9428 84.5221 41.2232C84.3415 42.0215 83.9329 42.0928 83.2771 41.8742C82.2887 41.5511 81.324 41.5226 80.3356 41.7982C79.3282 42.0785 78.6677 42.8008 78.1688 43.6324C77.7886 44.2644 77.4987 44.9535 77.3752 45.7043C77.2564 46.4456 77.3894 47.1251 77.7411 47.7666C78.1355 48.4937 78.7057 49.0544 79.5563 49.2017C79.9792 49.273 80.4259 49.254 80.8584 49.216C81.3763 49.1684 81.8848 49.0449 82.398 48.9784C82.5691 48.9546 82.7496 49.0164 82.8969 49.0354C83.1535 49.425 83.1916 50.2139 82.8969 50.48C82.6831 50.6796 82.36 50.7984 82.0606 50.8696C80.9724 51.1262 79.8557 51.1405 78.758 51.0455C77.8599 50.9694 77.0663 50.5275 76.4486 49.8527C75.6977 49.0306 75.2273 48.0707 75.1465 46.9635C74.9612 44.3262 75.9734 42.2353 78.1735 40.7195C78.8625 40.2443 79.6799 40.0875 80.4782 39.9021C81.4714 39.6693 82.4645 39.6835 83.4434 39.9972C83.6145 40.0494 83.7998 40.0542 83.9804 40.0827C84.0041 40.0922 84.0279 40.097 84.0517 40.1065V40.1112Z" fill="white"/>
<path d="M122.555 50.7176C122.593 50.3374 122.621 49.9668 122.673 49.5961C122.759 48.9784 122.845 48.3606 122.963 47.7476C123.158 46.726 123.377 45.7138 123.576 44.6921C123.652 44.3072 123.695 43.9176 123.776 43.5374C123.938 42.7723 124.132 42.9102 124.712 42.9102C125.316 42.9102 125.924 42.9149 126.523 42.8579C127.292 42.7866 128.062 42.6393 128.837 42.7438C129.673 42.8579 130.3 43.4139 130.324 44.3452C130.357 45.5807 130.224 46.7972 130.006 48.0042C129.882 48.698 129.763 49.3918 129.607 50.0761C129.469 50.6986 129.203 50.8887 128.542 50.8934C128.328 50.8934 128.105 50.8697 127.896 50.8316C127.635 50.7841 127.478 50.5893 127.492 50.2994C127.535 49.3538 127.715 48.4272 127.972 47.5148C128.176 46.783 128.248 46.0274 128.162 45.2861C128.086 44.6399 127.63 44.369 127.003 44.6161C126.447 44.8394 126.057 45.2386 125.791 45.7946C125.382 46.6404 125.164 47.5243 125.016 48.4367C124.916 49.0544 124.779 49.6674 124.636 50.2757C124.493 50.8982 124.479 50.8934 123.828 50.8887C123.714 50.8887 123.591 50.8744 123.486 50.9077C123.139 51.0312 122.854 50.9077 122.555 50.7081V50.7176Z" fill="white"/>
<path d="M95.2369 50.8694C95.2654 50.3087 95.2512 49.8097 95.3272 49.325C95.446 48.56 95.6171 47.7997 95.7691 47.0393C95.9545 46.1127 96.1398 45.1908 96.3204 44.2642C96.3774 43.9791 96.4011 43.6892 96.4582 43.4041C96.4867 43.2758 96.5675 43.1523 96.6055 43.0715C97.2612 43.0715 97.86 43.0905 98.454 43.0667C98.8199 43.0525 99.1953 43.0049 99.5517 42.9242C100.355 42.7436 101.153 42.7341 101.942 42.9479C102.764 43.1713 102.987 43.5799 103.044 44.5398C103.078 45.1101 102.968 45.6898 102.888 46.26C102.754 47.1867 102.588 48.1133 102.436 49.0399C102.365 49.4628 102.284 49.881 102.218 50.2992C102.161 50.6508 101.937 50.8362 101.605 50.8742C101.272 50.9074 100.93 50.9454 100.602 50.8932C100.112 50.8171 100.003 50.5178 100.093 50.0283C100.25 49.173 100.478 48.3271 100.635 47.4718C100.721 46.9966 100.735 46.5071 100.759 46.0224C100.778 45.6803 100.773 45.3381 100.759 44.996C100.749 44.7632 100.583 44.6444 100.364 44.6159C99.6942 44.5256 99.1383 44.7489 98.7153 45.2621C98.1784 45.9084 97.9503 46.6734 97.8172 47.486C97.6794 48.3509 97.4846 49.2062 97.3278 50.0663C97.2375 50.5558 97.0094 50.8789 96.4534 50.8742C96.078 50.8742 95.7026 50.8742 95.2227 50.8742L95.2369 50.8694Z" fill="white"/>
<path d="M115.659 39.7783C116.139 39.6263 116.571 39.4694 117.009 39.3554C117.156 39.3174 117.327 39.3696 117.517 39.3839C117.465 39.8448 117.422 40.2535 117.379 40.6574C117.327 41.1801 117.298 41.7029 117.213 42.2208C117.085 43.0001 116.895 43.7747 116.766 44.554C116.505 46.1459 116.011 47.7093 116.182 49.3535C116.215 49.6766 116.272 49.995 116.282 50.3181C116.286 50.5177 116.229 50.7173 116.201 50.9074C115.749 51.0309 115.364 51.1165 114.937 50.9787C114.257 50.7601 113.725 50.1471 113.772 49.4438C113.815 48.8308 113.953 48.2178 114.058 47.6095C114.243 46.5356 114.424 45.4664 114.628 44.3972C114.884 43.0524 115.155 41.7124 115.431 40.3723C115.474 40.1632 115.583 39.9684 115.659 39.7736V39.7783Z" fill="white"/>
<path d="M118.239 50.5988C118.348 50.0286 118.458 49.4346 118.572 48.8406C118.729 48.009 118.9 47.1822 119.042 46.3506C119.194 45.4762 119.304 44.5971 119.456 43.7227C119.56 43.1192 119.817 42.9244 120.449 42.9102C120.629 42.9102 120.815 42.9102 120.995 42.9102C121.171 42.9102 121.352 42.9102 121.57 42.9102C121.57 43.0147 121.589 43.1715 121.57 43.3236C121.409 44.3025 121.228 45.2814 121.067 46.2603C120.919 47.1631 120.791 48.066 120.663 48.9736C120.61 49.3348 120.572 49.6959 120.544 50.0571C120.506 50.4895 120.368 50.6511 119.94 50.8031C119.441 50.9837 118.957 50.8887 118.462 50.7889C118.439 50.7841 118.415 50.7604 118.391 50.7461C118.353 50.7176 118.32 50.6843 118.234 50.6083L118.239 50.5988Z" fill="white"/>
<path d="M121.517 41.8265C121.341 41.8265 121.17 41.836 120.999 41.8265C120.381 41.7838 119.825 41.204 119.802 40.5863C119.778 39.9685 120.201 39.5218 120.852 39.5076C121.085 39.5028 121.337 39.5076 121.546 39.5979C122.045 39.807 122.125 40.2014 122.078 40.7574C122.026 41.3513 121.983 41.3846 121.522 41.8313L121.517 41.8265Z" fill="white"/>
<path d="M135.653 40.0115V39.7882C135.653 39.7882 135.61 39.8119 135.591 39.8214C135.477 39.6789 135.363 39.5363 135.254 39.389C135.387 39.3415 135.515 39.294 135.648 39.2417C135.682 39.2607 135.71 39.2797 135.743 39.2987C135.715 39.5363 135.686 39.7692 135.658 40.0068L135.653 40.0115Z" fill="white"/>
<path d="M94.1616 43.3471C94.1331 43.2806 94.0999 43.214 94.0619 43.1332C93.9288 43.081 93.7862 43.0239 93.6484 42.9669C93.7482 42.9432 93.848 42.9004 93.9431 42.9052C94.0476 42.9099 94.2187 42.9479 94.2329 43.0049C94.2567 43.1095 94.1902 43.233 94.1616 43.3518V43.3471Z" fill="white"/>
<path d="M84.0518 40.1112C84.0518 40.1112 84.0042 40.0969 83.9805 40.0874C84.0042 40.0969 84.028 40.1017 84.0518 40.1112Z" fill="white"/>
<path d="M112.207 45.1055C112.169 44.7206 112.126 44.3357 111.893 43.984C111.242 42.9909 110.259 42.682 109.156 42.701C108.6 42.7105 108.016 42.8483 107.503 43.0622C105.554 43.87 104.78 45.4904 104.585 47.4482C104.547 47.8189 104.68 48.2038 104.746 48.5839C104.993 50.0048 106.072 50.9171 107.417 51.0597C108.339 51.1595 109.285 51.1167 110.192 50.8506C110.663 50.7128 111.071 50.4847 111.152 49.9525C111.19 49.7054 111.157 49.4488 111.157 49.1684C111.105 49.1352 111.033 49.0496 110.967 49.0496C110.625 49.0449 110.278 49.0259 109.94 49.0781C109.498 49.1447 109.075 49.3157 108.633 49.368C107.94 49.4488 107.099 48.7645 106.837 47.9519C106.78 47.7808 106.771 47.5955 106.728 47.3722C106.985 47.3342 107.189 47.2819 107.393 47.2819C108.719 47.2914 110.05 47.3247 111.375 47.3294C111.641 47.3294 111.912 47.2391 112.197 47.1869C112.231 47.011 112.273 46.878 112.273 46.7449C112.264 46.1984 112.269 45.652 112.216 45.115L112.207 45.1055ZM108.201 46.0416C108.044 46.0131 107.878 46.0274 107.716 46.0226C107.312 46.0084 107.118 45.7328 107.327 45.3954C107.598 44.9629 107.954 44.5875 108.477 44.4355C108.971 44.2929 109.917 44.6731 110.13 45.134C110.23 45.3526 110.202 45.6235 110.235 45.9228C109.517 45.9941 108.876 46.1794 108.201 46.0464V46.0416Z" fill="white"/>
</g>
<defs>
<clipPath id="clip0_396_8223">
<rect width="150" height="53.008" fill="white"/>
</clipPath>
</defs>
</svg>
