<svg width="97" height="84" viewBox="0 0 97 84" fill="none" xmlns="http://www.w3.org/2000/svg">
<g clip-path="url(#clip0_396_7588)">
<path d="M0 47.8037C2.13171 47.8037 4.26341 47.8037 6.45971 47.8037C6.742 48.5748 6.742 48.5748 7.02998 49.3614C10.2187 57.8065 14.8873 63.6381 25.6774 68.1526C30.9626 69.8858 35.6449 70.4448 41.4229 70.3312C43.528 70.3023 45.633 70.2733 47.8019 70.2435C47.8019 67.0038 47.8019 63.764 47.8019 60.4261C46.9492 60.5804 46.0965 60.7347 45.218 60.8936C38.5478 61.3188 33.2696 61.213 27.7768 58.0886C24.6889 56.0548 21.9093 53.5364 20.6711 50.6087C20.6711 49.683 20.6711 48.7574 20.6711 47.8037C35.1667 47.8037 49.6623 47.8037 64.5971 47.8037C64.5971 54.5918 64.5971 61.3798 64.5971 68.3735C68.6474 68.3735 72.6976 68.3735 76.8706 68.3735C76.8706 61.5855 76.8706 54.7975 76.8706 47.8037C83.2657 47.8037 89.6608 47.8037 96.2497 47.8037C96.343 51.2106 96.4354 54.6175 96.5257 58.0245C96.5566 59.1786 96.5879 60.3328 96.6197 61.4869C96.6659 63.1652 96.7103 64.8435 96.7544 66.5218C96.7756 67.2705 96.7756 67.2705 96.7972 68.0343C96.928 73.1362 96.8957 78.2272 96.8957 83.3334C64.9201 83.3334 32.9445 83.3334 0 83.3334C0 71.6086 0 59.8838 0 47.8037Z" fill="white"/>
<path d="M0 0C31.9767 0 63.9535 0 96.8992 0C96.6861 13.4302 96.4729 26.8605 96.2532 40.6977C89.8579 40.6977 83.4625 40.6977 76.8734 40.6977C76.8734 36.8605 76.8734 33.0233 76.8734 29.0698C80.7106 29.0698 84.5478 29.0698 88.5013 29.0698C88.5013 25.6589 88.5013 22.2481 88.5013 18.7339C76.5633 18.7339 64.6253 18.7339 52.3256 18.7339C52.3256 22.1447 52.3256 25.5556 52.3256 29.0698C56.376 29.0698 60.4264 29.0698 64.5995 29.0698C64.5995 32.907 64.5995 36.7442 64.5995 40.6977C50.1034 40.6977 35.6072 40.6977 20.6718 40.6977C21.5019 34.8871 23.7136 30.2928 28.4465 26.6473C34.7297 22.65 40.6246 22.7053 47.8036 23.9018C47.8036 19.4251 47.8036 14.9483 47.8036 10.3359C36.6456 10.048 28.3876 10.2103 19.3798 17.4419C18.8477 17.8332 18.3156 18.2246 17.7674 18.6279C11.26 24.2521 8.05149 32.4747 6.45995 40.6977C4.32817 40.6977 2.19638 40.6977 0 40.6977C0 27.2674 0 13.8372 0 0Z" fill="white"/>
<path d="M51.6792 7.10547C65.9621 7.10547 80.2451 7.10547 94.9608 7.10547C94.9608 17.7644 94.9608 28.4233 94.9608 39.4052C89.4182 39.4052 83.8756 39.4052 78.165 39.4052C78.165 36.4207 78.165 33.4362 78.165 30.3613C81.789 30.3613 85.413 30.3613 89.1469 30.3613C89.1469 26.5241 89.1469 22.6869 89.1469 18.7334C70.9201 19.0531 70.9201 19.0531 52.3252 19.3794C52.112 20.0189 51.8988 20.6584 51.6792 21.3174C51.2528 21.3174 50.8265 21.3174 50.3872 21.3174C50.174 22.3832 49.9608 23.4491 49.7412 24.5473C49.3149 24.5473 48.8885 24.5473 48.4492 24.5473C48.6624 19.6442 48.8756 14.7411 49.0952 9.68945C49.5216 9.68945 49.9479 9.68945 50.3872 9.68945C50.3872 9.26309 50.3872 8.83673 50.3872 8.39746C50.8136 8.39746 51.2399 8.39746 51.6792 8.39746C51.6792 7.9711 51.6792 7.54475 51.6792 7.10547Z" fill="white"/>
<path d="M0 6.45958C4.93909 6.44463 9.8781 6.4318 14.8172 6.42409C16.4923 6.42087 18.1675 6.41649 19.8426 6.41084C29.1856 6.38019 38.4829 6.4128 47.8036 7.10557C47.5904 7.53193 47.3773 7.95829 47.1576 8.39756C43.5336 8.39756 39.9096 8.39756 36.1757 8.39756C36.1757 8.82392 36.1757 9.25027 36.1757 9.68955C35.1689 9.9606 35.1689 9.9606 34.1418 10.2371C28.4846 11.835 23.9751 13.6447 19.3798 17.4415C18.8502 17.832 18.3206 18.2226 17.775 18.625C11.2594 24.2401 8.05121 32.4758 6.45995 40.6973C4.32817 40.6973 2.19638 40.6973 0 40.6973C0 29.3989 0 18.1004 0 6.45958Z" fill="white"/>
<path d="M0 5.16797C31.7636 5.16797 63.5271 5.16797 96.2532 5.16797C96.2532 16.8928 96.2532 28.6176 96.2532 40.6977C89.8579 40.6977 83.4625 40.6977 76.8734 40.6977C76.8734 36.8605 76.8734 33.0233 76.8734 29.0698C80.7106 29.0698 84.5478 29.0698 88.5013 29.0698C88.5013 25.6589 88.5013 22.2481 88.5013 18.7339C88.7145 18.7339 88.9277 18.7339 89.1473 18.7339C89.1473 22.5711 89.1473 26.4083 89.1473 30.3618C85.5233 30.3618 81.8992 30.3618 78.1654 30.3618C78.1654 33.3463 78.1654 36.3308 78.1654 39.4057C86.7991 39.7255 86.7991 39.7255 95.6072 40.0517C95.6072 28.9664 95.6072 17.8811 95.6072 6.45996C64.0568 6.45996 32.5065 6.45996 0 6.45996C0 6.0336 0 5.60725 0 5.16797Z" fill="white"/>
</g>
<defs>
<clipPath id="clip0_396_7588">
<rect width="96.8992" height="83.3333" fill="white"/>
</clipPath>
</defs>
</svg>
