<svg width="80" height="100" viewBox="0 0 80 100" fill="none" xmlns="http://www.w3.org/2000/svg">
<g clip-path="url(#clip0_396_7677)">
<path d="M29.6581 81.804C29.6561 87.2681 29.6551 92.7313 29.6521 98.1954C29.6521 99.506 29.1853 99.9708 27.8847 99.9698C27.4848 99.9698 27.085 99.9838 26.6851 99.9658C25.8384 99.9278 25.3066 99.377 25.3066 98.5333C25.3046 89.3884 25.3036 80.2425 25.3066 71.0976C25.3066 70.1759 25.8144 69.6781 26.7161 69.6801C27.3159 69.6821 27.9157 69.6981 28.5145 69.6751C29.1553 69.6511 29.5821 69.969 29.7941 70.5188C30.2549 71.7104 30.6638 72.922 31.0926 74.1266C31.4645 75.1692 31.8354 76.2119 32.2082 77.2535C32.6691 78.5421 33.1319 79.8296 33.5948 81.1172C34.3955 83.3415 35.1972 85.5647 35.9999 87.7879C36.0069 87.8079 36.0469 87.8169 36.1159 87.8559V87.3091C36.1159 81.9789 36.1119 76.6477 36.1249 71.3175C36.1249 70.9637 36.1959 70.5808 36.3478 70.2659C36.5338 69.88 36.8826 69.6551 37.3625 69.6751C37.9443 69.6991 38.5281 69.6811 39.1109 69.6811C39.8956 69.6811 40.4194 70.1669 40.4754 70.9527C40.4874 71.1186 40.4804 71.2856 40.4804 71.4525C40.4804 80.3815 40.4804 89.3094 40.4804 98.2384C40.4804 99.49 39.9936 99.9708 38.725 99.9708C38.2582 99.9708 37.7923 99.9708 37.3255 99.9698C36.7867 99.9678 36.1789 99.5299 35.9979 99.0331C35.5021 97.6686 34.9943 96.308 34.5025 94.9425C33.9307 93.356 33.3768 91.7636 32.804 90.1781C31.8264 87.475 30.8397 84.774 29.853 82.0739C29.817 81.9749 29.7421 81.8889 29.6861 81.797C29.6721 81.775 29.6571 81.753 29.6431 81.731C29.6481 81.756 29.6521 81.781 29.6571 81.806L29.6581 81.804Z" fill="white"/>
<path d="M68.5846 47.0672C68.5816 52.5453 68.5786 58.0234 68.5756 63.5026C68.5756 64.8311 68.1208 65.281 66.7812 65.282C66.3984 65.282 66.0155 65.286 65.6326 65.282C64.8829 65.272 64.3401 64.7821 64.2631 64.0444C64.2471 63.8954 64.2461 63.7455 64.2461 63.5955C64.2461 54.6036 64.2461 45.6117 64.2471 36.6187C64.2471 36.4198 64.2511 36.2179 64.2821 36.0219C64.3801 35.3861 64.8409 34.9953 65.4847 34.9923C66.1504 34.9893 66.8172 34.9953 67.483 34.9903C68.0798 34.9863 68.4837 35.2562 68.6896 35.828C69.1424 37.0796 69.5833 38.3361 70.0391 39.5867C70.7429 41.5191 71.4626 43.4464 72.1614 45.3807C73.0871 47.9429 73.9998 50.511 74.9175 53.0761C74.9555 53.1131 74.9924 53.1501 75.0304 53.1861C75.0424 53.1491 75.0534 53.1131 75.0654 53.0761C75.0684 47.548 75.0764 42.0209 75.0674 36.4928C75.0664 35.84 75.2054 35.3142 75.8711 35.0733C76.0481 35.0093 76.252 34.9903 76.4419 34.9953C77.1477 35.0143 77.8585 35.0113 78.5582 35.0942C79.101 35.1582 79.287 35.6211 79.375 36.1009C79.4079 36.2788 79.3899 36.4658 79.3899 36.6487C79.3899 45.6237 79.3899 54.5976 79.3899 63.5726C79.3899 64.8201 78.9411 65.263 77.6745 65.264C77.3416 65.264 77.0088 65.264 76.6759 65.264C75.5553 65.264 75.1774 64.9991 74.7955 63.9444C74.2587 62.4609 73.7219 60.9774 73.1881 59.4929C72.6172 57.9065 72.0554 56.317 71.4806 54.7326C70.555 52.1844 69.6213 49.6383 68.6916 47.0912C68.6726 47.0642 68.6526 47.0372 68.6336 47.0092C68.6176 47.0282 68.6016 47.0472 68.5866 47.0662L68.5846 47.0672Z" fill="white"/>
<path d="M0.0128731 15.3437C0.0128731 10.7642 0.0128731 6.18578 0.0128731 1.60633C0.0128731 0.856589 0.49271 0.284783 1.23746 0.277785C3.30175 0.257792 5.36905 0.219805 7.42935 0.316772C9.07679 0.394746 10.6373 0.88258 11.8758 2.05818C12.9735 3.10083 13.6612 4.39239 13.7992 5.90287C13.9421 7.46334 14.0371 9.03281 14.0461 10.5993C14.0711 14.7619 14.0691 18.9254 14.0121 23.087C13.9901 24.7295 13.6302 26.3309 12.6776 27.7175C11.7009 29.138 10.3014 29.9517 8.63094 30.2926C6.19977 30.7894 3.73461 30.5335 1.28444 30.5575C0.46172 30.5655 0.0128731 29.9817 0.0128731 29.082C0.0108737 24.5025 0.0118734 19.9241 0.0128731 15.3447V15.3437ZM4.32741 15.3976C4.32741 18.5456 4.32641 21.6935 4.32741 24.8414C4.32741 25.7321 4.78825 26.4669 5.46702 26.4709C6.26575 26.4759 7.08447 26.4229 7.85821 26.238C8.67093 26.044 9.25473 25.4772 9.40568 24.6045C9.53563 23.8508 9.69058 23.089 9.69558 22.3293C9.72257 17.7159 9.71657 13.1024 9.70058 8.48899C9.69858 7.83821 9.6236 7.17844 9.50265 6.53866C9.28472 5.37805 8.57996 4.62831 7.39736 4.44937C6.79457 4.3584 6.16978 4.43037 5.55599 4.39639C5.09415 4.37039 4.76326 4.58132 4.58732 4.95919C4.43837 5.27909 4.3394 5.65396 4.3374 6.00484C4.31841 9.13577 4.32641 12.2677 4.32741 15.3986V15.3976Z" fill="white"/>
<path d="M48.2718 20.626C48.8096 22.6604 48.2608 24.3748 47.0252 25.9232C46.8073 26.1962 46.6223 26.494 46.4234 26.781C45.6087 27.9576 44.7979 29.1362 43.9782 30.3088C43.5294 30.9515 42.9336 30.9655 42.4857 30.3257C41.1882 28.4724 39.8626 26.636 38.63 24.7406C37.8243 23.5011 37.5814 22.1065 38.0262 20.657C37.4644 20.705 36.9296 20.764 36.3948 20.792C35.3821 20.846 34.4705 20.5091 33.6527 19.9553C31.8613 18.7427 30.0919 17.4991 28.3185 16.2595C27.6058 15.7617 27.6148 15.2979 28.3325 14.797C30.038 13.6064 31.7454 12.4188 33.4538 11.2322C34.6864 10.3765 36.0209 9.96667 37.5284 10.2916C37.6684 10.3215 37.8193 10.2956 38.0322 10.2956C37.9503 9.81972 37.8153 9.38887 37.8123 8.95801C37.8043 7.78741 38.1782 6.72177 38.841 5.7601C40.0596 3.9937 41.2811 2.2293 42.5047 0.4669C42.9426 -0.162886 43.3214 -0.155888 43.7643 0.481895C44.9789 2.2313 46.1785 3.9917 47.4111 5.72711C48.0748 6.66179 48.4387 7.68545 48.4777 8.81906C48.4917 9.22492 48.4607 9.64578 48.3587 10.0366C48.2748 10.3595 48.3467 10.3595 48.6116 10.3056C50.3121 9.95767 51.8316 10.3585 53.2351 11.3652C54.8435 12.5198 56.485 13.6274 58.1104 14.758C58.6812 15.1549 58.6832 15.7107 58.1094 16.1116C56.308 17.3682 54.5106 18.6297 52.6983 19.8703C51.3717 20.779 49.9122 21.0109 48.2708 20.623L48.2718 20.626ZM50.9988 18.7817C51.1938 18.6947 51.4077 18.6347 51.5806 18.5158C52.9252 17.5941 54.2617 16.6594 55.6023 15.7317C55.9362 15.5008 55.8402 15.3029 55.5683 15.1149C54.2677 14.2162 52.9682 13.3175 51.6616 12.4278C51.5007 12.3189 51.3017 12.2649 51.1208 12.1859C51.0538 12.1919 50.9868 12.1969 50.9199 12.2029V18.6947C50.9448 18.7237 50.9718 18.7527 50.9988 18.7807V18.7817ZM46.5413 7.76742C46.4424 7.55149 46.3854 7.36256 46.2784 7.20661C45.3148 5.79509 44.3411 4.38957 43.3734 2.98105C43.1655 2.67815 43.0195 2.79011 42.8556 3.03003C41.9629 4.32959 41.0582 5.62115 40.1715 6.9257C40.0046 7.17162 39.8996 7.46052 39.7477 7.76842H46.5413V7.76742ZM35.3412 12.1989C35.2472 12.2219 35.1932 12.2209 35.1562 12.2459C33.6867 13.2446 32.2132 14.2382 30.7557 15.2539C30.4488 15.4678 30.5828 15.7107 30.8457 15.8937C32.1143 16.7754 33.3808 17.6611 34.6554 18.5338C34.8483 18.6657 35.0792 18.7407 35.3412 18.8656V12.1989ZM46.5423 23.3881H39.8826C39.9346 23.4991 39.9536 23.562 39.9896 23.614C40.9432 25.0166 41.8909 26.4231 42.8596 27.8156C43.0855 28.1395 43.4114 28.0885 43.6673 27.7216C44.485 26.548 45.3018 25.3724 46.1075 24.1908C46.2714 23.9499 46.3884 23.677 46.5433 23.3881H46.5423ZM46.6803 21.6787C46.4204 19.8343 45.0279 18.4198 42.4737 18.6997C41.1952 18.8397 39.5177 20.624 39.6597 21.6787H46.6803ZM37.0226 18.9896C38.9189 18.7537 40.2945 17.0872 39.9896 14.904C39.7856 13.4425 38.1822 11.911 37.0226 12.041V18.9896ZM49.2504 12.022C47.7699 12.1239 46.0775 13.6624 46.3004 15.9047C46.4414 17.3192 48.1148 19.0636 49.2504 18.9396V12.022ZM39.7187 9.45784C39.8346 11.1563 41.3631 12.3039 43.4394 12.2979C44.9259 12.2939 46.5623 10.8494 46.6463 9.45784H39.7187ZM44.762 16.9893C44.682 16.5294 44.527 16.0056 44.518 15.4788C44.509 14.961 44.649 14.4401 44.713 13.9953H41.614V16.9883H44.761L44.762 16.9893Z" fill="white"/>
<path d="M22.6131 34.9913C22.7131 34.9913 22.814 34.9993 22.913 34.9903C24.2046 34.8713 24.5225 35.2982 24.8004 36.5388C25.1203 37.9673 25.4042 39.4028 25.7211 40.8323C26.1779 42.8936 26.6587 44.9509 27.1136 47.0122C27.6204 49.3044 28.1022 51.6017 28.6091 53.8939C29.1329 56.2611 29.6767 58.6243 30.2095 60.9905C30.4135 61.8962 30.6214 62.8008 30.8093 63.7095C30.9823 64.5513 30.4474 65.231 29.5657 65.277C29.0179 65.306 28.4661 65.303 27.9173 65.277C27.2485 65.245 26.7397 64.6742 26.5998 63.9565C26.3228 62.5329 26.018 61.1144 25.7031 59.6979C25.5761 59.1271 25.2372 58.8082 24.6754 58.7952C23.3279 58.7652 21.9783 58.7642 20.6298 58.7932C20.034 58.8062 19.5242 59.323 19.4092 59.9248C19.1363 61.3513 18.8804 62.7809 18.5925 64.2034C18.4435 64.9401 17.9677 65.199 17.082 65.276C16.6691 65.312 16.2503 65.283 15.8334 65.282C14.8777 65.279 14.234 64.5453 14.4239 63.6016C14.6918 62.268 15.0137 60.9455 15.3096 59.6169C15.6455 58.1114 15.9744 56.605 16.3123 55.1005C16.6052 53.7919 16.915 52.4874 17.201 51.1778C17.7098 48.8496 18.1926 46.5154 18.7124 44.1902C19.2992 41.5611 19.914 38.938 20.5158 36.3119C20.7487 35.2932 21.1216 34.9933 22.1633 34.9933C22.3132 34.9933 22.4632 34.9933 22.6131 34.9933V34.9913ZM22.6771 43.7943C22.6311 43.7933 22.5851 43.7913 22.5401 43.7903C22.4622 44.2182 22.3902 44.647 22.3042 45.0739C22.0763 46.2155 21.8324 47.3541 21.6125 48.4967C21.3305 49.9642 21.0876 51.4397 20.7837 52.9022C20.6278 53.652 20.7927 54.2428 21.4975 54.5137C21.9383 54.6826 22.4622 54.6706 22.949 54.6786C24.0906 54.6976 24.6694 53.9269 24.4235 52.8162C24.1316 51.4937 23.8647 50.1641 23.6088 48.8336C23.2859 47.1562 22.986 45.4747 22.6761 43.7953L22.6771 43.7943Z" fill="white"/>
<path d="M48.6475 50.0739C48.6475 45.5944 48.6475 41.1139 48.6475 36.6345C48.6475 35.3809 49.0784 34.943 50.315 34.943C53.5289 34.942 56.7428 34.942 59.9577 34.944C61.1323 34.944 61.5891 35.4059 61.5911 36.5765C61.5911 36.9264 61.5971 37.2762 61.5891 37.6261C61.5701 38.4638 61.0543 38.9977 60.2216 39.0027C58.3402 39.0137 56.4579 39.0057 54.5765 39.0097C53.9577 39.0107 53.4219 39.1846 53.127 39.7854C53.059 39.9243 53.007 40.0893 53.006 40.2422C52.9971 42.3575 52.9891 44.4718 53.0011 46.5871C53.0061 47.4228 53.5649 47.9266 54.4686 47.9346C55.9011 47.9466 57.3326 47.9376 58.7651 47.9406C58.981 47.9406 59.1999 47.9436 59.4119 47.9806C59.8917 48.0636 60.3286 48.3335 60.3805 48.7983C60.4675 49.5801 60.4935 50.3928 60.3675 51.1645C60.2726 51.7473 59.7138 52.0012 59.109 52.0022C57.6105 52.0052 56.111 52.0022 54.6125 52.0032C53.4859 52.0042 52.9961 52.4911 52.9951 53.6117C52.9931 55.543 52.9921 57.4754 52.9951 59.4067C52.9971 60.3994 53.4899 60.8952 54.4855 60.8992C56.2839 60.9052 58.0823 60.8992 59.8817 60.9012C61.0873 60.9012 61.5901 61.399 61.5921 62.5846C61.5921 62.9845 61.5971 63.3844 61.5911 63.7832C61.5771 64.7349 61.0623 65.2547 60.1096 65.2627C59.111 65.2717 58.1113 65.2647 57.1117 65.2647C54.8304 65.2647 52.5482 65.2657 50.267 65.2647C49.1134 65.2637 48.6445 64.7809 48.6445 63.6143C48.6455 59.1008 48.6445 54.5884 48.6445 50.0749H48.6475V50.0739Z" fill="white"/>
<path d="M7.81551 55.9439C7.91548 55.4081 8.02244 54.8742 8.11341 54.3374C8.34933 52.9569 8.58425 51.5764 8.80717 50.1938C9.0161 48.8973 9.20004 47.5967 9.41397 46.3012C9.6279 45.0056 9.87581 43.716 10.0927 42.4215C10.3117 41.1189 10.4986 39.8114 10.7225 38.5098C10.8785 37.6011 11.0284 36.6864 11.2643 35.7967C11.4143 35.2319 11.8671 34.96 12.4849 34.985C13.1007 35.009 13.7175 34.991 14.3343 34.99C15.4059 34.989 15.7198 35.8887 15.5889 36.5975C15.284 38.2429 14.9371 39.8803 14.5912 41.5168C14.2793 42.9963 13.9304 44.4678 13.6275 45.9493C13.2677 47.7087 12.9538 49.4771 12.5939 51.2365C12.194 53.1918 11.7572 55.1402 11.3493 57.0945C11.0284 58.63 10.7335 60.1704 10.4146 61.7059C10.2327 62.5786 10.0538 63.4543 9.82083 64.315C9.64989 64.9478 9.21104 65.2547 8.56026 65.2767C8.02744 65.2947 7.49362 65.2967 6.9608 65.2767C6.22905 65.2497 5.68024 64.6079 5.5073 63.7142C5.16641 61.9508 4.78554 60.1964 4.43366 58.435C4.0238 56.3877 3.63293 54.3364 3.22107 52.2891C2.8382 50.3858 2.43234 48.4874 2.04947 46.5851C1.6616 44.6587 1.29473 42.7284 0.904862 40.803C0.632954 39.4615 0.341053 38.1239 0.0511518 36.7864C-0.110793 36.0396 0.113131 35.4299 0.70393 35.114C0.840883 35.041 1.00983 34.999 1.16477 34.996C1.76457 34.982 2.36836 35.036 2.96316 34.98C3.88085 34.894 4.3357 35.3509 4.49864 36.2196C4.77854 37.7091 4.97148 39.2156 5.2154 40.7121C5.43332 42.0476 5.68424 43.3771 5.89816 44.7137C6.14808 46.2752 6.36101 47.8426 6.61492 49.4031C6.85684 50.8936 7.13674 52.3781 7.38966 53.8666C7.50662 54.5553 7.59959 55.2471 7.70255 55.9379C7.73954 55.9399 7.77653 55.9409 7.81351 55.9429L7.81551 55.9439Z" fill="white"/>
<path d="M5.03071 86.7893C5.03071 82.9926 5.03071 79.1959 5.03071 75.3992C5.03071 74.1776 4.57986 73.7328 3.34228 73.7308C2.72649 73.7298 2.1097 73.7388 1.49391 73.7268C0.523243 73.7078 0.0234128 73.199 0.0154155 72.2363C0.0124165 71.8364 0.00841789 71.4366 0.0164152 71.0377C0.0324097 70.195 0.528241 69.6702 1.36995 69.6372C1.98475 69.6122 2.60154 69.6292 3.21833 69.6292C6.36526 69.6292 9.51319 69.6292 12.6601 69.6292C13.9387 69.6292 14.4095 70.098 14.4095 71.3646C14.4095 71.6645 14.4125 71.9644 14.4095 72.2643C14.3975 73.143 13.8747 73.6948 12.99 73.7238C12.3242 73.7458 11.6585 73.7288 10.9917 73.7308C9.84907 73.7348 9.39523 74.1846 9.39523 75.3272C9.39423 82.9377 9.39523 90.5471 9.39523 98.1575C9.39523 99.479 8.91339 99.9699 7.61283 99.9709C7.22996 99.9709 6.84709 99.9709 6.46422 99.9709C5.6545 99.9679 5.07969 99.438 5.03771 98.6313C5.01472 98.1825 5.03071 97.7326 5.03071 97.2828C5.03071 93.786 5.03071 90.2892 5.03071 86.7913V86.7893Z" fill="white"/>
<path d="M33.353 50.0679C33.353 45.5884 33.345 41.1089 33.367 36.6295C33.369 36.2226 33.4869 35.7628 33.7059 35.4309C33.8618 35.195 34.2717 35.044 34.5846 35.01C35.1944 34.946 35.8151 34.991 36.4309 34.99C37.0817 34.99 37.6145 35.4509 37.6885 36.0966C37.7115 36.2946 37.7015 36.4955 37.7015 36.6954C37.7015 44.2389 37.7045 51.7833 37.6975 59.3267C37.6975 59.9375 37.8335 60.4584 38.4103 60.7503C38.6032 60.8482 38.8441 60.8892 39.063 60.8912C40.9114 60.9022 42.7598 60.8992 44.6082 60.8982C45.8177 60.8982 46.3895 61.53 46.3016 62.5896C46.2566 63.1305 46.2966 63.6833 46.2006 64.2141C46.0727 64.9178 45.6668 65.2247 44.967 65.2577C44.6012 65.2757 44.2343 65.2637 43.8684 65.2637C40.9204 65.2637 37.9734 65.2637 35.0254 65.2637C33.8318 65.2637 33.356 64.7959 33.355 63.6073C33.352 59.0948 33.354 54.5814 33.353 50.0689V50.0679Z" fill="white"/>
<path d="M16.9105 84.8163C16.9105 80.2848 16.9105 75.7544 16.9105 71.2229C16.9105 70.1203 17.3493 69.6684 18.4379 69.6824C19.0777 69.6904 19.7215 69.7054 20.3573 69.7744C20.9241 69.8354 21.14 70.2752 21.233 70.7801C21.263 70.942 21.259 71.112 21.259 71.2779C21.259 80.3068 21.259 89.3358 21.259 98.3647C21.259 99.2724 20.9631 99.7932 20.1883 99.9112C19.4576 100.023 18.6879 100.025 17.9541 99.9312C17.4013 99.8602 16.8945 99.2594 16.8985 98.5576C16.9235 93.9772 16.9115 89.3957 16.9115 84.8143L16.9105 84.8163Z" fill="white"/>
<path d="M44.5087 84.827C44.5087 80.2976 44.5087 75.7691 44.5087 71.2397C44.5087 70.114 44.9456 69.6792 46.0732 69.6792C46.556 69.6792 47.0388 69.6792 47.5217 69.6792C48.2774 69.6792 48.7733 70.119 48.8532 70.8688C48.8722 71.0497 48.8652 71.2347 48.8652 71.4176C48.8652 80.3756 48.8572 89.3345 48.8792 98.2925C48.8812 99.2931 48.3704 100.049 47.1708 99.9729C46.7559 99.9469 46.3381 99.9699 45.9222 99.9689C45.0775 99.9659 44.5127 99.3931 44.5107 98.5144C44.5057 96.4161 44.5087 94.3178 44.5087 92.2205C44.5087 89.7564 44.5087 87.2922 44.5087 84.827Z" fill="white"/>
<path d="M18.2864 15.367C18.2864 10.8215 18.2924 6.27705 18.2774 1.73159C18.2754 1.18678 18.4283 0.767922 18.8772 0.463025C19.233 0.221108 21.7292 0.187119 22.0261 0.492016C22.286 0.757925 22.4709 1.1298 22.5949 1.48768C22.6829 1.74059 22.6149 2.04749 22.6149 2.33039C22.6149 11.1874 22.5999 20.0444 22.6329 28.9014C22.6379 30.1269 21.8771 30.6598 20.9385 30.5978C20.5576 30.5728 20.1727 30.5938 19.7898 30.5938C18.8432 30.5938 18.2874 30.05 18.2864 29.1023C18.2834 24.5238 18.2854 19.9454 18.2864 15.367Z" fill="white"/>
<path d="M75.062 53.0771C75.05 53.1141 75.039 53.1501 75.027 53.1871C74.989 53.1501 74.952 53.1141 74.9141 53.0771C74.963 53.0771 75.012 53.0771 75.061 53.0771H75.062Z" fill="white"/>
<path d="M68.582 47.0672C68.598 47.0482 68.614 47.0292 68.629 47.0103C68.648 47.0372 68.668 47.0642 68.687 47.0922C68.652 47.0842 68.617 47.0762 68.582 47.0672Z" fill="white"/>
<path d="M29.6585 81.804C29.6535 81.779 29.6495 81.754 29.6445 81.729C29.6585 81.751 29.6735 81.773 29.6875 81.795L29.6585 81.804Z" fill="white"/>
<path d="M46.5398 7.76719H39.7461C39.899 7.45929 40.003 7.17039 40.1699 6.92447C41.0566 5.62092 41.9613 4.32936 42.854 3.0288C43.018 2.78888 43.1639 2.67692 43.3719 2.97981C44.3395 4.38834 45.3132 5.79386 46.2769 7.20538C46.3828 7.36132 46.4408 7.55126 46.5398 7.76619V7.76719Z" fill="white"/>
<path d="M50.918 18.6958C50.918 16.5315 50.918 14.3673 50.919 12.204C50.9859 12.198 51.0529 12.193 51.1199 12.187C51.3008 12.266 51.4998 12.32 51.6607 12.4289C52.9673 13.3186 54.2668 14.2183 55.5674 15.116C55.8393 15.304 55.9353 15.5019 55.6014 15.7328C54.2598 16.6595 52.9243 17.5952 51.5797 18.5169C51.4068 18.6358 51.1929 18.6958 50.9979 18.7828C50.971 18.7538 50.945 18.7248 50.918 18.6968V18.6958Z" fill="white"/>
<path d="M35.3399 12.1987V18.8655C35.078 18.7405 34.8461 18.6655 34.6542 18.5336C33.3796 17.6599 32.114 16.7742 30.8445 15.8935C30.5826 15.7115 30.4476 15.4676 30.7545 15.2537C32.212 14.238 33.6855 13.2444 35.155 12.2457C35.192 12.2207 35.246 12.2217 35.3399 12.1987Z" fill="white"/>
<path d="M46.5396 23.3882C46.3847 23.6781 46.2677 23.951 46.1038 24.1909C45.2981 25.3725 44.4813 26.5481 43.6636 27.7217C43.4077 28.0886 43.0818 28.1396 42.8559 27.8157C41.8872 26.4232 40.9395 25.0166 39.9859 23.6141C39.9509 23.5621 39.9309 23.4991 39.8789 23.3882H46.5386H46.5396Z" fill="white"/>
<path d="M46.6775 21.6795H39.6569C39.5149 20.6248 41.1924 18.8404 42.4709 18.7005C45.0251 18.4206 46.4176 19.8351 46.6775 21.6795Z" fill="white"/>
<path d="M37.0195 18.9905V12.0419C38.1781 11.912 39.7816 13.4434 39.9865 14.9049C40.2914 17.0872 38.9159 18.7546 37.0195 18.9905Z" fill="white"/>
<path d="M49.2472 12.0229V18.9406C48.1116 19.0656 46.4382 17.3211 46.2972 15.9056C46.0743 13.6634 47.7667 12.1249 49.2472 12.0229Z" fill="white"/>
<path d="M39.7148 9.45898H46.6425C46.5585 10.8505 44.9231 12.296 43.4356 12.299C41.3593 12.304 39.8308 11.1574 39.7148 9.45898Z" fill="white"/>
<path d="M44.7602 16.9901H41.6133V13.9971H44.7122C44.6482 14.4419 44.5083 14.9627 44.5173 15.4806C44.5263 16.0064 44.6812 16.5302 44.7612 16.9911L44.7602 16.9901Z" fill="white"/>
<path d="M50.918 18.6958C50.945 18.7248 50.971 18.7538 50.9979 18.7818C50.971 18.7528 50.945 18.7238 50.918 18.6958Z" fill="white"/>
<path d="M22.677 43.7941C22.9869 45.4735 23.2878 47.1549 23.6097 48.8323C23.8656 50.1629 24.1315 51.4914 24.4244 52.815C24.6703 53.9266 24.0915 54.6974 22.9499 54.6774C22.4621 54.6694 21.9392 54.6814 21.4984 54.5124C20.7926 54.2415 20.6287 53.6507 20.7846 52.901C21.0875 51.4385 21.3314 49.963 21.6133 48.4955C21.8333 47.3528 22.0762 46.2142 22.3051 45.0726C22.3901 44.6458 22.4631 44.2169 22.541 43.7891C22.587 43.7901 22.633 43.7921 22.678 43.7931L22.677 43.7941Z" fill="white"/>
</g>
<defs>
<clipPath id="clip0_396_7677">
<rect width="79.391" height="100" fill="white"/>
</clipPath>
</defs>
</svg>
