<svg width="150" height="74" viewBox="0 0 150 74" fill="none" xmlns="http://www.w3.org/2000/svg">
<g clip-path="url(#clip0_396_8243)">
<path d="M76.3788 8.9594C76.4049 7.79607 76.4222 6.63274 76.4483 5.46941C76.7434 5.22633 77.0473 5.27842 77.3511 5.44337C79.0961 6.39834 80.763 7.47485 82.0913 8.9594C82.9508 9.90569 83.9405 10.6436 84.9649 11.3816C86.0414 12.1542 87.0745 12.9876 87.7169 14.1944C87.6996 14.6198 87.6822 15.0452 87.6562 15.4706C87.552 15.7137 87.5867 15.9654 87.5867 16.2172C87.5867 23.909 87.5867 31.5922 87.5867 39.2841C87.5867 39.5359 87.552 39.7876 87.6562 40.0307C87.6562 41.3156 87.6562 42.6004 87.6562 43.8766C87.5259 45.4914 87.5346 47.1062 87.6562 48.7209C87.6562 50.1708 87.6735 51.6119 87.6562 53.0617C87.6562 53.2614 87.743 53.5219 87.4825 53.626C87.2481 53.7215 87.0745 53.5826 86.9095 53.435C83.5411 50.4312 80.164 47.4274 76.7955 44.4236C76.6393 44.2847 76.5264 44.085 76.3962 43.9114C76.3007 43.7985 76.2225 43.677 76.1705 43.5467C76.0402 43.0172 76.0923 42.4702 76.0923 41.932C76.0923 33.4154 76.0923 24.8987 76.0923 16.3821C76.0923 14.3593 76.0923 12.3365 76.0923 10.3137C76.0923 9.84492 76.0316 9.36743 76.3701 8.96808L76.3788 8.9594Z" fill="white"/>
<path d="M63.366 42.8086C63.366 41.081 63.366 39.3533 63.366 37.6344C63.2098 36.3061 63.2966 34.9778 63.3053 33.6409C63.3313 29.465 63.2098 25.2892 63.366 21.1134C63.366 20.2539 63.366 19.3944 63.366 18.535C63.2011 17.198 63.34 15.8523 63.2966 14.5067C63.149 13.5257 63.7654 12.9006 64.4512 12.4579C66.6824 11.0428 68.4534 9.03732 70.6759 7.62223C71.492 7.10134 72.2907 6.57176 72.8463 5.71229C73.2196 5.13062 73.8447 5.05249 74.4524 5.51261C74.4698 6.58912 74.4871 7.67432 74.5045 8.75083C74.8431 10.1659 74.791 11.6157 74.791 13.0569C74.791 22.7455 74.791 32.4428 74.791 42.1314C74.791 42.7478 74.8431 43.3642 74.4871 43.9198C72.5077 45.9253 70.3547 47.7397 68.2624 49.6149C66.9776 50.7696 65.6927 51.9416 64.3905 53.0876C64.1561 53.2872 63.9043 53.6519 63.5744 53.4956C63.2358 53.3393 63.4008 52.9139 63.3921 52.6101C63.3747 51.8201 63.3921 51.0213 63.3921 50.2226C63.2619 47.7484 63.2619 45.2828 63.3921 42.8086H63.366Z" fill="white"/>
<path d="M74.4513 5.5042C73.722 5.46947 73.1317 5.47815 72.741 6.37235C72.3851 7.17974 71.3954 7.54436 70.6574 8.01317C68.4523 9.42826 66.7247 11.4424 64.4762 12.8054C63.964 13.1179 63.582 13.6388 63.3736 14.2378C63.3042 14.2899 63.226 14.2899 63.1566 14.2378C62.6878 14.2205 62.219 14.1771 61.7502 14.1771C55.647 14.1771 49.5439 14.1771 43.4321 14.1771C40.7668 14.1771 39.7424 12.3974 41.0186 10.0707C42.5031 7.35337 43.9443 4.61 45.4201 1.88399C45.8889 1.01583 46.3578 0.191083 47.495 0.0261329C49.2227 -0.225632 50.5336 1.22419 50.0214 2.88237C49.6625 4.0457 50.1169 4.62736 51.3844 4.62736C58.755 4.62736 66.1257 4.62736 73.4963 4.62736C74.104 4.62736 74.7291 4.55791 74.4513 5.5042Z" fill="white"/>
<path d="M87.7186 14.1857C85.8781 12.1108 83.3344 10.8606 81.4852 8.77705C80.2437 7.388 78.5856 6.46775 76.9795 5.53883C76.8406 5.46069 76.6235 5.49542 76.4499 5.46937C76.2415 4.67067 76.693 4.62726 77.318 4.62726C84.6453 4.64462 91.9725 4.62726 99.2911 4.62726C99.8293 4.62726 100.376 4.61858 100.915 4.6099C101.383 4.45363 101.852 4.30604 102.356 4.30604C103.467 4.30604 104.335 3.87197 104.899 2.88227C105.125 2.67391 105.377 2.57841 105.681 2.68259C107.348 5.33047 108.797 8.09989 110.143 10.9214C110.942 12.5883 109.639 14.1683 107.634 14.1683C101.14 14.1683 94.6464 14.1683 88.1526 14.1683C88.005 14.1683 87.8661 14.1683 87.7186 14.1683V14.1857Z" fill="white"/>
<path d="M113.545 63.6447C113.528 62.9936 113.485 62.3425 113.519 61.7001C113.545 61.2399 113.276 60.5541 114.014 60.4586C114.726 60.3718 115.559 60.1547 116.046 61.0142C116.723 62.2036 117.391 63.4017 118.068 64.591C119.067 66.3447 120.065 68.0984 121.09 69.8347C121.281 70.1472 121.437 70.7463 121.828 70.6421C122.322 70.5119 121.975 69.9562 121.975 69.609C122.001 66.8309 122.001 64.0528 122.001 61.2747C122.001 60.9448 121.949 60.5454 122.314 60.4412C122.678 60.3371 123.13 60.3023 123.295 60.8319C123.486 63.4885 123.321 66.145 123.382 68.8103C123.399 69.418 123.295 70.0344 123.451 70.6334C123.451 71.0241 123.26 71.3713 123.243 71.7794C123.225 72.17 123.642 72.8819 122.921 72.934C122.157 72.9861 121.211 73.2986 120.682 72.3437C119.032 69.3485 117.4 66.336 115.759 63.3409C115.594 63.0457 115.586 62.603 115.073 62.6464C114.761 62.9849 114.926 63.4017 114.926 63.775C114.874 66.718 114.986 69.6611 114.865 72.6041C114.7 73.0469 114.361 73.0469 113.997 72.934C113.58 72.8125 113.493 72.4913 113.511 72.1006C113.537 71.3192 113.545 70.5379 113.563 69.7652C113.676 67.7338 113.693 65.7023 113.545 63.6708V63.6447Z" fill="white"/>
<path d="M94.2305 60.5887C95.8279 60.7363 96.9912 61.4655 97.2343 62.6202C97.7031 64.8514 97.5468 66.0581 95.9234 67.0999C94.9076 67.751 94.9337 67.7857 95.5761 68.8622C96.2185 69.9474 96.8089 71.0587 97.486 72.1178C97.9288 72.8123 97.5815 72.9339 97.0085 72.9513C96.3661 72.9686 95.8279 72.795 95.498 72.1439C94.8989 70.9545 94.2478 69.7998 93.6227 68.6192C92.9195 67.2996 93.1453 66.6484 94.4822 65.9452C94.9076 65.7195 95.55 65.7369 95.6803 65.1465C95.8539 64.3652 95.8105 63.5491 95.5066 62.8025C95.2549 62.1861 94.6124 62.1688 94.0308 62.1253C93.2581 61.9257 92.4681 62.1167 91.6954 62.0212C90.9141 61.9257 90.7752 62.325 90.8533 62.9588C90.8533 65.8671 90.8533 68.7667 90.8533 71.6751C90.8533 72.0223 90.9662 72.3956 90.7318 72.7169C90.2283 72.8384 89.7421 73.2638 89.2125 72.7776C89.0128 69.1835 89.1778 65.5893 89.1344 61.9951C89.1344 61.535 89.0389 61.0575 89.2212 60.6061C90.8967 60.4324 92.5636 60.4758 94.2391 60.58L94.2305 60.5887Z" fill="white"/>
<path d="M44.1721 62.2035C43.4863 62.8286 43.4255 63.5752 43.2085 64.2263C42.3837 66.7613 41.5937 69.3137 40.795 71.8574C40.6387 72.3696 40.3869 72.7863 39.7966 72.8645C39.4754 72.9079 39.1281 73.0121 38.8764 72.7256C38.6333 72.4478 38.9024 72.1873 38.9979 71.9269C40.2567 68.4716 41.4808 64.999 42.5226 61.4743C42.8265 60.4412 43.4429 60.4064 44.3023 60.3717C45.1878 60.337 45.2313 60.8752 45.4309 61.4829C46.5161 64.8774 47.6708 68.2546 48.7473 71.6491C48.8602 72.0137 49.5026 72.6561 48.6952 72.9079C48.0007 73.1336 47.3148 72.8558 47.0718 72.0484C46.8894 71.4667 46.7853 70.859 46.6464 70.2687C46.5161 69.7044 46.2123 69.4179 45.5785 69.4787C45.0055 69.5308 44.4239 69.4787 43.8422 69.4613C43.521 69.4613 43.1216 69.5221 43.0435 69.0967C42.9741 68.706 43.2605 68.4022 43.5731 68.2372C44.094 67.9594 44.6843 67.9333 45.266 68.0202C45.839 68.0983 45.9605 67.916 45.7608 67.3604C45.1792 65.7109 44.5975 64.0614 44.1721 62.1862V62.2035Z" fill="white"/>
<path d="M68.6711 62.0647C68.1763 62.4119 68.1242 62.8373 68.0113 63.2019C67.1171 66.0235 66.249 68.845 65.3721 71.6665C65.2419 72.0745 65.1377 72.5173 64.7123 72.743C64.3911 72.9166 64.0525 73.0816 63.6966 72.8472C63.2799 72.578 63.4622 72.2394 63.5837 71.8922C64.5821 69.036 65.5805 66.171 66.5702 63.3148C66.8046 62.6376 67.0824 61.9605 67.23 61.2573C67.4036 60.4325 68.0634 60.2676 68.6451 60.2676C69.2181 60.2676 69.7216 60.5975 69.9473 61.3094C71.0586 64.8862 72.2306 68.4369 73.3765 72.0051C73.472 72.2915 73.7064 72.6475 73.3418 72.8906C72.9772 73.125 72.6299 72.8906 72.3434 72.6822C71.675 72.2047 71.5274 71.4234 71.3103 70.7028C70.9197 69.4093 70.937 69.4006 69.5567 69.4614C69.1573 69.4787 68.7579 69.4787 68.3673 69.4961C68.0026 69.5134 67.6901 69.4266 67.6901 68.9925C67.6901 68.5758 67.803 68.1852 68.3499 68.1938C68.3846 68.1938 68.4194 68.1938 68.4541 68.1938C69.1226 68.1244 70.0255 68.5151 70.3814 67.8813C70.6679 67.3865 70.0255 66.7006 69.8518 66.0842C69.4959 64.7733 69.0878 63.4711 68.6711 62.056V62.0647Z" fill="white"/>
<path d="M1.93784 65.6324C2.84072 66.0231 3.77833 65.7105 4.69858 65.7539C5.01979 65.7713 5.42783 65.3459 5.64487 65.8321C5.80113 66.1967 5.42783 66.4832 5.24551 66.7783C5.10661 67.0128 4.86352 67.0996 4.61176 67.1517C3.98669 67.3079 3.34425 67.1864 2.7105 67.2211C2.37192 67.2385 1.98125 67.1169 1.79893 67.5597C1.79893 68.4278 1.79893 69.2873 1.78157 70.1555C1.77578 71.0005 2.19539 71.4201 3.0404 71.4143C4.35999 71.3188 5.67091 71.2667 6.99051 71.4403C7.50272 71.8831 7.56349 72.3345 7.00787 72.7947C4.75066 72.8988 2.48478 72.9162 0.227571 72.7947C-0.189144 71.7876 0.097348 70.7458 0.0799848 69.7214C0.036577 66.7002 0.0799848 63.679 0.0799848 60.6492C2.16356 60.3453 4.2645 60.5189 6.35675 60.5624C6.88633 60.571 7.01655 60.8923 6.97314 61.3524C6.92105 61.8906 6.53907 61.9254 6.11367 61.9254C4.75066 61.9254 3.39634 61.9427 2.03334 61.9514C1.7208 63.1668 1.91179 64.3996 1.93784 65.6324Z" fill="white"/>
<path d="M21.4697 62.7417C20.3238 65.0163 19.1778 67.2995 18.0232 69.5741C17.8669 69.8779 17.7714 70.3554 17.3894 70.3554C17.0074 70.3554 16.8946 69.8779 16.7383 69.5741C15.792 67.6815 14.8631 65.7716 13.9255 63.8703C13.7084 63.4275 13.5001 62.9761 13.04 62.5681V65.3722C12.8229 65.841 13.0052 66.3445 12.9271 66.822C12.493 67.2127 12.0242 67.0217 11.5641 66.9002C11.5467 66.5442 11.5207 66.1796 11.5033 65.8236C11.4339 64.096 11.2776 62.3684 11.5901 60.6408C13.2657 60.0765 13.6477 60.2848 14.403 61.8649C15.3058 63.7488 16.3042 65.5806 17.2939 67.4992C17.8929 66.8307 18.2055 66.0233 18.6048 65.2507C19.2646 63.9658 20.0199 62.733 20.6363 61.4308C21.0878 60.4932 21.817 60.3716 22.7025 60.4411C23.1279 60.4758 23.345 60.6581 23.3102 61.1356C23.2495 61.9603 23.2495 62.7938 23.2234 63.6272C23.1279 63.6793 23.0324 63.6793 22.9543 63.5925C22.7025 63.2626 22.8241 62.8372 22.6504 62.4378C22.2945 62.7156 22.5897 63.4102 21.982 63.4623C21.7996 63.2973 21.8865 63.0716 21.8431 62.8719C21.817 62.733 21.7562 62.6028 21.817 62.4639C21.6607 62.4986 21.6521 62.707 21.4784 62.7243L21.4697 62.7417Z" fill="white"/>
<path d="M85.0453 60.6492C85.1234 61.1353 85.2363 61.6389 84.6807 61.9427C83.8038 62.1598 82.9096 61.8906 82.0328 62.0903C81.6942 62.2639 81.0691 61.8038 80.9997 62.5591C81.1559 64.66 81.1212 66.7697 81.017 68.8706C81.017 69.8429 80.9997 70.8153 81.017 71.7876C81.0257 73.0204 80.6871 73.2374 79.4717 72.7599C79.1679 71.2494 79.5325 69.7127 79.2807 68.2021C79.2634 66.188 79.2373 64.1739 79.22 62.1684C78.0306 61.7691 76.7718 62.2639 75.5737 61.908C75.3133 61.4826 75.2438 61.0572 75.5737 60.6231C77.0582 60.3714 78.5515 60.5797 80.0447 60.5103C80.5743 60.4842 81.1125 60.5797 81.6421 60.4408C81.9286 60.4408 82.2064 60.4408 82.4929 60.4321C83.335 60.6839 84.2205 60.3019 85.054 60.6492H85.0453Z" fill="white"/>
<path d="M104.196 61.8823C104.144 61.9171 104.083 61.9431 104.022 61.9431C103.692 63.0283 103.953 64.1395 103.875 65.2421C103.849 65.6328 104.092 65.7196 104.43 65.7196C104.795 65.7109 105.151 65.7196 105.516 65.7196C106.21 65.8064 106.939 65.5373 107.616 65.8672C107.538 66.6138 107.156 67.0739 106.392 67.1694C105.602 67.3691 104.769 67.0652 103.988 67.343H103.962C103.866 68.6279 103.718 69.9301 104.04 71.215C104.378 71.2324 104.708 71.2584 105.047 71.2758C106.132 71.5102 107.252 71.215 108.337 71.4321C108.702 71.5796 109.344 71.1716 109.396 71.953C109.422 72.3957 109.431 72.8385 108.788 72.8124C106.609 72.8992 104.422 72.9687 102.243 72.7777C102.034 69.661 102.19 66.5357 102.164 63.419C102.164 62.4987 101.999 61.5611 102.286 60.6582H102.277C102.72 60.3804 103.198 60.5714 103.658 60.528C104.17 60.8492 104.257 61.3441 104.205 61.891L104.196 61.8823Z" fill="white"/>
<path d="M133.036 72.7427C132.489 73.0552 131.969 73.1854 131.5 72.6124C131.344 69.5131 131.474 66.4138 131.422 63.3145C131.422 62.9238 131.526 62.5158 131.317 62.1425L131.283 62.1685C130.215 61.8386 129.112 62.1772 128.045 61.9862C127.22 61.7431 127.463 61.1875 127.645 60.6493C129.355 60.3801 131.074 60.5624 132.793 60.5364C134.122 60.519 135.45 60.4496 136.778 60.5885C137.247 60.7621 137.169 61.1007 137.056 61.474C136.943 61.8647 136.665 61.9428 136.318 61.9428C135.32 61.9428 134.313 61.9515 133.314 61.9602C133.019 62.264 133.167 62.646 133.167 62.9846C133.149 65.8929 133.167 68.8012 133.149 71.7096C133.149 72.0568 133.262 72.4301 133.036 72.76V72.7427Z" fill="white"/>
<path d="M53 72.7429C53.0087 72.0397 53.0174 71.3365 53.026 70.6333C53.1736 67.6902 53.0434 64.7385 53.0955 61.7954C53.0955 61.4134 52.9566 61.0054 53.2257 60.6495C54.3543 60.2414 54.771 60.5192 54.7624 61.7173C54.7624 64.4259 54.719 67.1433 54.7103 69.8519C54.7103 71.3625 54.8318 71.4754 56.299 71.4667C57.5578 71.4667 58.8166 71.4667 60.1536 71.4667C59.9018 72.3609 59.2334 72.6647 58.4173 72.795C56.6115 72.9078 54.8058 72.986 53 72.7429Z" fill="white"/>
<path d="M105.68 2.69149L105.046 2.89984C104.343 3.61173 103.483 4.01976 102.494 4.16735C102.051 4.2368 101.625 4.25417 101.374 3.78536C100.827 2.95193 100.384 2.10114 101.035 1.10276C101.582 0.251967 102.381 0.00888321 103.344 0.0262463C104.022 0.0349279 104.395 0.43428 104.725 0.911765C105.107 1.46739 105.506 2.01432 105.68 2.6828V2.69149Z" fill="white"/>
<path d="M21.9995 63.4449C22.2599 63.1411 22.1558 62.7591 22.1992 62.4118C22.2339 62.1253 22.2426 61.7781 22.6419 61.8041C23.0152 61.8302 23.0152 62.1774 23.0239 62.4639C23.0326 62.8546 23.0326 63.2539 23.0413 63.6446C23.2844 65.9713 23.0934 68.2979 23.1368 70.6246C23.1455 71.3278 23.2757 72.057 23.0413 72.7516C22.6853 73.0901 22.3468 72.8557 21.9995 72.7342C21.687 71.6837 21.8693 70.6072 21.8693 69.5481C21.8693 67.8638 21.7564 66.1796 21.93 64.5041C21.93 64.3652 21.93 64.2263 21.93 64.0874C21.8606 63.8616 21.7738 63.6272 22.0082 63.4362L21.9995 63.4449Z" fill="white"/>
<path d="M11.5636 66.9086C11.9803 66.6307 12.397 66.6307 12.8051 66.9086C13.0568 67.4034 12.9353 67.9156 12.8658 68.4278C12.8658 68.5667 12.8658 68.7056 12.8658 68.8532C12.9179 70.1468 13.1002 71.449 12.7616 72.7252C11.5723 73.0551 11.5115 73.003 11.5202 71.8397C11.5375 70.1902 11.5462 68.5494 11.5549 66.8999L11.5636 66.9086Z" fill="white"/>
<path d="M74.6788 9.62781C74.6788 20.9833 74.6875 32.3388 74.6962 43.6943C74.6181 43.7724 74.5486 43.8418 74.4705 43.92C74.4705 32.5905 74.4531 21.2698 74.4531 9.94035C74.4531 9.541 74.4792 9.15033 74.4965 8.75098C74.7396 9.00274 74.6354 9.33264 74.6788 9.62781Z" fill="white"/>
<path d="M104.196 61.8823C103.884 61.5264 103.675 61.1357 103.762 60.6322C105.212 60.3804 106.662 60.5106 108.111 60.5627C108.546 60.6582 109.014 60.7798 108.884 61.3528C108.763 61.8476 108.311 61.9171 107.851 61.9084C106.636 61.891 105.42 61.8823 104.196 61.865V61.8823Z" fill="white"/>
<path d="M87.6659 40.022C87.4835 39.7269 87.5183 39.397 87.5183 39.0758C87.5183 31.5228 87.5183 23.9698 87.527 16.4169C87.527 16.0957 87.4835 15.7658 87.6659 15.4619C87.6659 17.3371 87.6745 19.2123 87.6832 21.0876C87.7006 27.1473 87.7093 33.2157 87.7179 39.2754C87.7179 39.5272 87.6832 39.779 87.6659 40.0307V40.022Z" fill="white"/>
<path d="M63.3599 21.1138C63.3686 25.2549 63.3859 29.396 63.3946 33.5284C63.3946 34.8914 63.3773 36.2631 63.3686 37.6261C63.1429 37.3483 63.1949 37.0097 63.1949 36.6885C63.1949 31.8095 63.1949 26.9304 63.1949 22.0514C63.1949 21.7302 63.1342 21.3916 63.3599 21.1138Z" fill="white"/>
<path d="M101.383 3.7854C102.399 4.20212 103.258 3.72463 104.1 3.27319C104.413 3.10824 104.665 2.83911 105.055 2.89988C104.673 4.05453 104.048 4.5407 102.755 4.61883C102.147 4.65356 101.53 4.61883 100.914 4.61883C101.287 4.46256 101.513 4.23684 101.374 3.79408L101.383 3.7854Z" fill="white"/>
<path d="M102.268 60.6494C102.268 63.3928 102.26 66.1362 102.251 68.8795C102.251 70.1818 102.234 71.4753 102.225 72.7776C101.999 72.6473 102.008 72.4303 102.008 72.2133C102.008 68.6104 102.008 65.0162 101.999 61.4134C101.999 61.1269 101.947 60.823 102.268 60.6581V60.6494Z" fill="white"/>
<path d="M89.2132 60.606C89.2132 64.6602 89.2132 68.7232 89.2132 72.7775C88.9875 72.5952 88.9961 72.3434 88.9961 72.0917C88.9961 68.4541 88.9961 64.8165 88.9961 61.1789C88.9961 60.9619 88.9961 60.7449 89.2132 60.606Z" fill="white"/>
<path d="M133.035 72.7427C133.035 69.4958 133.035 66.2576 133.061 63.0107C133.061 62.6461 132.835 62.2033 133.313 61.9429C133.304 65.1377 133.296 68.3325 133.269 71.5273C133.269 71.9353 133.443 72.4042 133.035 72.7427Z" fill="white"/>
<path d="M131.316 62.1338C131.498 62.2901 131.533 62.4897 131.533 62.7155C131.516 66.0144 131.507 69.3048 131.489 72.6037C131.22 72.2912 131.325 71.9179 131.325 71.562C131.316 68.4192 131.316 65.2765 131.307 62.1338H131.316Z" fill="white"/>
<path d="M53.2253 60.6493C53.2079 63.6358 53.1992 66.6135 53.1819 69.6C53.1819 69.9473 53.2947 70.3206 53.0256 70.6331C53.0083 67.4817 52.9822 64.3303 52.9648 61.1789C52.9648 60.9618 52.9909 60.7448 53.234 60.6406L53.2253 60.6493Z" fill="white"/>
<path d="M90.7227 72.717C90.7487 69.3919 90.7747 66.0669 90.7921 62.7419L90.8876 62.7158L90.9397 62.8113C90.9397 65.9367 90.9484 69.0534 90.9571 72.1787C90.9571 72.3958 90.9571 72.6128 90.7227 72.7257V72.717Z" fill="white"/>
<path d="M114.875 72.5866C114.866 69.5914 114.849 66.5963 114.84 63.6011C114.84 63.2626 114.692 62.8719 115.083 62.6201C114.901 65.5284 115.083 68.4368 115.04 71.3451C115.04 71.7618 115.187 72.2132 114.866 72.5866H114.875Z" fill="white"/>
<path d="M123.471 70.6159C123.176 69.7044 123.323 68.7668 123.314 67.8378C123.297 65.4938 123.314 63.1585 123.314 60.8145C123.67 61.9083 123.436 63.0283 123.462 64.1308C123.523 66.2925 123.471 68.4542 123.471 70.6159Z" fill="white"/>
<path d="M136.769 60.5711C133.73 60.5885 130.683 60.6145 127.645 60.6319C127.783 60.4322 127.992 60.3975 128.209 60.3975C130.891 60.3975 133.583 60.4061 136.265 60.4235C136.43 60.4235 136.604 60.519 136.769 60.5711Z" fill="white"/>
<path d="M23.0321 72.7602C23.0321 69.7216 23.0321 66.6918 23.0321 63.6532C23.0929 63.6532 23.1537 63.6532 23.2057 63.6445C23.2231 66.5008 23.2405 69.3657 23.2578 72.2219C23.2578 72.4303 23.2926 72.656 23.0234 72.7602H23.0321Z" fill="white"/>
<path d="M21.9206 64.5215C21.9466 67.2649 21.9727 70.0082 21.9987 72.7516C21.773 72.6387 21.7383 72.4304 21.7383 72.2047C21.7383 69.7738 21.7556 67.343 21.773 64.9122C21.773 64.7819 21.8685 64.6517 21.9206 64.5215Z" fill="white"/>
<path d="M63.3664 42.8086C63.3664 45.2828 63.3664 47.7484 63.3664 50.2226C62.9931 48.4603 63.2188 46.6806 63.1841 44.9095C63.1754 44.215 63.0192 43.4858 63.3577 42.8173L63.3664 42.8086Z" fill="white"/>
<path d="M76.2339 16.3735C76.2253 13.908 76.2166 11.4424 76.1992 8.98552C76.26 8.98552 76.3121 8.96815 76.3729 8.95947C76.3729 11.4164 76.3729 13.8732 76.3729 16.3301C76.3555 16.4343 76.3034 16.4517 76.2253 16.3735H76.2339Z" fill="white"/>
<path d="M0.226562 72.8037C2.48377 72.8037 4.74965 72.8037 7.00686 72.8037C4.74965 73.0642 2.48377 73.1076 0.226562 72.8037Z" fill="white"/>
<path d="M102.234 72.7773C104.413 72.786 106.601 72.8034 108.78 72.8121C106.601 73.0204 104.413 73.2027 102.234 72.7773Z" fill="white"/>
<path d="M6.34708 60.5712L0.0703125 60.6581C0.183173 60.4323 0.400212 60.3976 0.625932 60.3976C2.53588 60.4584 4.44582 60.2326 6.34708 60.5712Z" fill="white"/>
<path d="M81.0095 68.8794L80.9922 62.5679C81.3221 64.6688 81.2874 66.7784 81.0095 68.8794Z" fill="white"/>
<path d="M113.547 63.6445C113.851 65.676 113.833 67.7075 113.564 69.739C113.564 67.7075 113.556 65.676 113.547 63.6445Z" fill="white"/>
<path d="M81.6309 60.441C79.9814 60.8404 78.2972 60.4931 76.6303 60.6233C76.2744 60.6494 75.9184 60.6233 75.5625 60.6233C75.9792 60.1545 76.5175 60.4584 76.9776 60.4497C78.5229 60.4063 80.0769 60.4497 81.6222 60.4497L81.6309 60.441Z" fill="white"/>
<path d="M27.6149 60.415C27.5975 62.3684 27.5802 64.3131 27.5541 66.2664C27.2937 64.3131 27.1721 62.3597 27.6149 60.415Z" fill="white"/>
<path d="M108.113 60.5714C106.663 60.5975 105.213 60.6149 103.764 60.6409C103.26 60.6409 102.765 60.6409 102.262 60.6409C102.34 60.5714 102.418 60.4499 102.505 60.4499C104.38 60.4065 106.247 60.2676 108.113 60.5714Z" fill="white"/>
<path d="M53 72.7427C54.8058 72.76 56.6115 72.7774 58.4173 72.7948C56.6115 73.0552 54.8058 73.1941 53 72.7427Z" fill="white"/>
<path d="M140.19 63.6445V69.0965C139.947 67.2821 139.79 65.459 140.19 63.6445Z" fill="white"/>
<path d="M105.497 65.7976C105.107 65.8063 104.716 65.8236 104.325 65.8236C104.108 65.8236 103.813 65.7715 103.822 65.5458C103.822 64.3478 103.492 63.1237 104.013 61.9517C103.995 62.9414 103.952 63.9311 103.969 64.9208C103.987 66.1275 104.985 65.3896 105.489 65.65C105.489 65.7021 105.489 65.7455 105.497 65.7976Z" fill="white"/>
<path d="M27.582 72.8124C29.327 72.8124 31.072 72.8124 32.817 72.8037C31.072 73.1162 29.327 73.0902 27.582 72.8124Z" fill="white"/>
<path d="M11.5887 60.6494C11.5626 62.377 11.5279 64.1047 11.5019 65.8323C11.2848 64.1047 11.0851 62.3684 11.5887 60.6494Z" fill="white"/>
<path d="M94.2289 60.5887C92.5533 60.5887 90.8865 60.5974 89.2109 60.606C90.8778 60.2761 92.5533 60.3022 94.2289 60.5887Z" fill="white"/>
<path d="M87.668 48.7208C87.3468 47.106 87.3642 45.4912 87.668 43.8765C87.668 45.4912 87.668 47.106 87.668 48.7208Z" fill="white"/>
<path d="M79.271 68.2109C79.6964 69.7128 79.3317 71.2495 79.462 72.7688C78.9498 71.8919 79.3491 70.9543 79.2623 70.0427C79.2015 69.435 79.2623 68.8186 79.271 68.2109Z" fill="white"/>
<path d="M63.1602 14.2466C63.2296 14.2466 63.3077 14.2466 63.3772 14.2466C63.3772 15.679 63.3772 17.1115 63.3772 18.5353C63.0039 17.1202 63.3077 15.6704 63.1688 14.2466H63.1602Z" fill="white"/>
<path d="M32.6242 60.5712C31.2351 60.5973 29.8287 60.8056 28.457 60.4236C29.8461 60.4497 31.2438 60.2327 32.6242 60.5712Z" fill="white"/>
<path d="M90.9378 62.8025C90.8944 62.7764 90.8423 62.7591 90.7902 62.7417C90.7642 62.4031 90.5818 61.9343 91.1548 61.943C92.1098 61.9604 93.0821 61.6999 94.0111 62.1166C93.221 62.1166 92.431 62.1427 91.641 62.1166C91.1288 62.0993 90.9117 62.3076 90.9291 62.8025H90.9378Z" fill="white"/>
<path d="M6.98917 71.4578C5.66958 71.4578 4.35866 71.4404 3.03906 71.4317C4.35866 71.2407 5.66958 71.041 6.98917 71.4578Z" fill="white"/>
<path d="M12.7695 72.7343C13.0126 71.4494 12.674 70.1472 12.8737 68.8623C13.0213 70.1559 13.3686 71.4581 12.7695 72.7343Z" fill="white"/>
<path d="M104.024 71.2146C103.512 69.9298 103.711 68.6362 103.946 67.334C103.972 68.6275 103.998 69.9211 104.024 71.2146Z" fill="white"/>
<path d="M75.5625 61.9082C76.5696 61.9169 77.5766 61.9256 78.5837 61.9429C78.8007 61.9429 79.1046 61.804 79.2088 62.1687C78.002 61.995 76.7519 62.4031 75.5625 61.9082Z" fill="white"/>
<path d="M1.93666 65.6326C1.69357 64.3999 1.59807 63.1671 2.03215 61.9517C1.99743 63.1758 1.97138 64.3999 1.93666 65.6326Z" fill="white"/>
<path d="M128.043 61.9777C129.119 62.0298 130.231 61.6565 131.281 62.16C130.205 62.0211 129.102 62.3336 128.043 61.9777Z" fill="white"/>
<path d="M108.329 71.4317C107.227 71.449 106.124 71.5966 105.039 71.2754C106.142 71.2581 107.244 71.1105 108.329 71.4317Z" fill="white"/>
<path d="M1.79774 67.5771C1.81511 67.0041 2.25787 67.1343 2.57908 67.1256C3.25625 67.1256 3.93341 67.143 4.60189 67.1603C4.07231 67.5076 3.48197 67.2819 2.91767 67.334C2.527 67.3687 2.11896 67.2732 1.78906 67.5771H1.79774Z" fill="white"/>
<path d="M12.8733 68.4368C12.8559 67.9332 12.8299 67.421 12.8125 66.9175C12.934 66.414 12.7604 65.8583 13.0469 65.3809C13.0469 66.4053 13.2205 67.4384 12.882 68.4454L12.8733 68.4368Z" fill="white"/>
<path d="M21.9983 63.4448C21.9723 63.6619 21.9462 63.8789 21.9202 64.0959C21.5382 63.7226 22.0417 63.0542 21.4688 62.7416C21.5208 62.4725 21.599 62.212 21.9983 61.9863C21.9983 62.5419 21.9983 62.9934 21.9983 63.4448Z" fill="white"/>
<path d="M82.0312 62.0907C82.8994 61.7522 83.7936 61.9258 84.6791 61.9432C83.811 62.2383 82.9168 62.1081 82.0312 62.0907Z" fill="white"/>
<path d="M85.0454 60.6494C84.1946 60.5278 83.3178 60.7709 82.4844 60.4323C83.3438 60.4671 84.2294 60.1632 85.0454 60.6494Z" fill="white"/>
<path d="M103.969 67.3427C104.741 66.8305 105.575 67.2906 106.374 67.1691C105.601 67.5945 104.759 67.2038 103.969 67.3427Z" fill="white"/>
<path d="M105.497 65.7975C105.497 65.7454 105.497 65.702 105.488 65.6499C106.183 65.8236 106.955 65.294 107.607 65.867C106.903 65.8409 106.2 65.8236 105.497 65.7975Z" fill="white"/>
<path d="M76.2335 16.3735C76.2856 16.3561 76.329 16.3388 76.3811 16.3301C76.3898 20.0111 76.4158 23.6834 76.4158 27.3643C76.4158 32.8077 76.4158 38.251 76.4158 43.703C76.1293 43.4079 76.1901 43.0346 76.1988 42.6786C76.2074 33.9102 76.2248 25.1505 76.2422 16.3822L76.2335 16.3735Z" fill="white"/>
<path d="M146.5 60.4757C143.617 59.6944 140.883 61.0748 140.188 63.6445C140.04 65.459 140.067 67.2821 140.179 69.0965C140.197 70.5898 140.752 71.7705 142.159 72.4129C143.296 72.9338 144.52 73.1682 145.744 72.9511C148.878 72.4042 150.068 71.2496 149.972 68.2978C149.937 67.2213 149.998 66.1361 149.998 65.0509C149.99 62.4551 148.982 61.1529 146.5 60.4757ZM148.253 66.848H148.245C148.245 67.7509 148.253 68.6538 148.245 69.5567C148.227 70.3119 147.863 70.8155 147.151 71.128C145.961 71.6402 144.772 71.6315 143.557 71.3103C142.489 71.0325 141.864 70.3293 141.794 69.2441C141.673 67.5165 141.664 65.7889 141.881 64.0612C141.985 63.2712 142.411 62.759 143.105 62.403C144.008 61.9516 144.954 61.7953 145.944 61.9169C147.342 62.0905 148.219 63.0455 148.253 64.4606C148.279 65.2506 148.253 66.0493 148.253 66.848Z" fill="white"/>
<path d="M34.516 67.0998C33.891 66.5963 33.9257 66.1622 34.4553 65.5893C35.7054 64.2523 34.8459 60.7276 32.6148 60.5713C31.2257 60.3803 29.828 60.6494 28.4476 60.4237C28.1698 60.4237 27.892 60.4237 27.6142 60.415C27.3624 62.3597 27.4753 64.3131 27.5534 66.2664C27.5621 67.8117 27.5708 69.3484 27.5882 70.8937C27.5882 71.5361 27.0412 72.1699 27.5708 72.8123C29.3158 72.9078 31.0608 72.9252 32.8058 72.8036C34.0646 72.6734 34.9935 72.1004 35.3495 70.8329C35.7401 69.4439 35.7575 68.1156 34.5074 67.0998H34.516ZM32.8145 71.2757C32.6669 71.293 32.8579 71.3017 32.7103 71.3104C29.2203 71.6229 29.2029 71.6229 29.2203 68.1764C29.2203 66.6571 29.1248 65.1465 29.2897 63.6272C29.255 63.4189 29.2377 63.2105 29.1856 63.0021C28.9338 61.9343 29.0901 61.752 30.1579 62.0385C30.7656 62.2034 31.382 62.0993 31.981 62.1079C32.9534 62.1253 33.4656 62.6202 33.5697 63.5317C33.6913 64.5909 33.0402 65.5806 32.172 65.7629C31.8942 65.8237 31.5817 65.8323 31.356 65.9799C31.0521 66.1709 31.0174 66.5269 31.1042 66.8568C31.217 67.3342 31.6164 67.3256 31.9723 67.2908C33.0575 67.178 33.5784 67.8204 33.8215 68.732C34.1514 69.9474 33.8215 70.694 32.8058 71.267L32.8145 71.2757Z" fill="white"/>
<path d="M29.2984 63.6357C29.2984 65.8148 29.3332 68.0026 29.2898 70.1816C29.2724 70.9977 29.446 71.3623 30.3576 71.2668C31.1737 71.18 31.9984 71.2668 32.8232 71.2755C31.7466 71.6749 30.618 71.371 29.5155 71.4839C29.2116 71.5099 29.0901 71.2495 29.0988 70.963C29.1595 68.5235 28.9685 66.0753 29.2984 63.6357Z" fill="white"/>
</g>
<defs>
<clipPath id="clip0_396_8243">
<rect width="150" height="73.038" fill="white"/>
</clipPath>
</defs>
</svg>
