<svg width="300" height="42" viewBox="0 0 300 42" fill="none" xmlns="http://www.w3.org/2000/svg">
<g clip-path="url(#clip0_396_8095)">
<path d="M125.259 18.416C130.308 18.8226 133.392 21.9061 135.848 25.7943C137.788 28.8608 139.423 32.1221 141.431 35.1462C142.345 36.5185 143.701 37.696 145.073 38.6448C147.14 40.0679 149.512 39.7714 151.536 38.6109C153.468 37.5096 155.179 35.9849 156.907 34.5617C157.788 33.8332 158.296 33.6808 159.287 34.3161C160.236 34.926 161.202 35.519 162.134 36.1458C162.947 36.688 162.955 36.976 162.159 37.5944C159.347 39.7968 156.179 41.0929 152.612 41.5503C146.979 42.2788 142.244 40.4152 138.034 36.815C134.688 33.9518 132.46 30.2077 129.91 26.7007C128.75 25.0996 127.504 23.5325 126.115 22.1348C124.319 20.3305 121.041 20.1187 118.754 21.94C115.891 24.2187 114.018 27.2682 113.307 30.7921C112.858 33.037 113.07 35.4766 114.12 37.6282C114.442 38.289 115.264 38.7464 115.933 39.1869C116.467 39.5342 117.102 39.7121 117.695 39.9747L117.678 40.3813C117.076 40.5592 116.475 40.8726 115.874 40.8811C112.24 40.9235 108.606 40.915 104.971 40.8811C104.455 40.8811 103.946 40.6609 103.43 40.5423L103.379 40.2288C103.667 40.0255 103.921 39.7545 104.234 39.6359C107.267 38.5092 107.843 37.8061 107.902 34.5448C107.97 30.7329 107.911 26.9209 107.911 23.1174C107.911 18.5685 107.945 14.0111 107.894 9.46221C107.877 8.0052 107.699 6.54819 107.496 5.09965C107.309 3.77817 106.522 2.90566 105.192 2.57529C105.124 2.55835 105.048 2.54988 104.997 2.516C104.556 2.20257 104.116 1.88914 103.667 1.57572C104.226 1.347 104.794 0.923451 105.361 0.914981C109.944 0.872626 114.535 0.804858 119.118 0.957335C122.6 1.07593 126.115 1.38088 129.359 2.83789C132.434 4.21867 134.637 6.45501 134.747 10.0128C134.815 12.2915 133.697 14.2229 131.68 15.3495C129.8 16.3999 127.767 17.1793 125.802 18.0857C125.598 18.1789 125.42 18.3229 125.234 18.4415L125.259 18.416ZM113.366 23.6426C115.001 22.4906 116.492 21.3639 118.059 20.3559C120.702 18.6617 123.464 17.1539 126.03 15.3495C128.216 13.8078 129.376 11.5376 128.86 8.81841C128.36 6.20935 126.759 4.43891 124.141 3.58334C121.007 2.55835 117.932 2.63459 114.823 3.6257C113.764 3.96454 113.4 4.48974 113.409 5.64179C113.409 11.4105 113.298 17.1793 113.239 22.948C113.239 23.1767 113.324 23.397 113.375 23.6342L113.366 23.6426Z" fill="white"/>
<path d="M22.2117 18.018C22.1947 16.6033 22.1439 15.1971 22.1693 13.7825C22.2371 9.85193 21.517 6.1247 19.6026 2.64312C18.8487 1.26235 19.0011 1.06752 20.5768 1.06752C21.6695 1.06752 22.7707 1.11834 23.855 1.05058C24.5581 1.00822 25.0071 1.30471 25.3036 1.84685C27.379 5.64185 29.4205 9.4538 31.5043 13.2488C34.1557 18.0688 36.8326 22.8718 39.5009 27.6834C39.6111 27.8782 39.7805 28.0476 40.0007 28.3272C41.4323 25.6503 42.7962 23.0836 44.1769 20.5169C46.049 17.0438 47.9465 13.5792 49.8101 10.0976C51.1231 7.64947 52.47 5.2183 53.6814 2.72783C54.3506 1.35553 55.24 0.762563 56.7902 0.847272C58.9927 0.957395 61.2036 0.872685 63.4061 0.872685C63.4654 1.02516 63.5331 1.18611 63.5924 1.33859C63.3468 1.61813 63.1435 2.05862 62.8385 2.16028C60.5259 2.92266 59.8821 4.81169 59.8652 6.88709C59.7974 16.2052 59.8059 25.5233 59.8652 34.8413C59.8737 37.0014 60.5513 38.882 62.9995 39.5089C63.2536 39.5766 63.4315 39.907 63.6517 40.1188C63.4061 40.3475 63.2028 40.6524 62.9147 40.788C62.6437 40.915 62.2964 40.8727 61.9745 40.8727C58.6538 40.8727 55.3417 40.8812 52.0211 40.8727C51.6907 40.8727 51.3095 40.8219 51.0554 40.6524C50.581 40.3221 50.5471 39.907 51.1401 39.6105C51.1994 39.5766 51.2587 39.5343 51.3264 39.5258C53.8508 38.9413 54.3167 37.0014 54.3252 34.8413C54.3421 25.4555 54.3336 16.0696 54.3336 6.67531C54.3336 6.41271 54.3336 6.15011 54.3336 5.89598C54.2659 5.87904 54.1981 5.87057 54.1388 5.85363C53.6475 6.7092 53.1138 7.53935 52.6733 8.42033C49.2087 15.2734 45.3629 21.9485 42.6352 29.1573C42.4658 29.6147 42.2709 30.0637 42.0846 30.5127C41.7542 31.3005 41.7881 32.0205 42.2455 32.7914C43.4738 34.9176 44.6174 37.0862 45.8118 39.2293C46.3709 40.2289 46.0829 40.8303 44.9139 40.8727C43.7195 40.915 42.4997 40.9828 41.3222 40.8473C40.8393 40.788 40.2464 40.3136 39.9838 39.8646C38.6623 37.5944 37.434 35.2564 36.1634 32.9523C33.9863 29.0048 31.8008 25.0743 29.6407 21.1183C28.099 18.289 26.5996 15.4343 25.0579 12.605C24.8377 12.1984 24.448 11.8765 24.0499 11.4106C23.9651 13.1641 23.8889 14.638 23.8211 16.112C23.584 16.4085 23.3468 16.705 23.1011 17.0014C22.8131 17.3488 22.5081 17.6791 22.2117 18.018Z" fill="white"/>
<path d="M262.726 21.1862C262.625 15.5276 264.158 10.7415 267.487 6.65844C269.91 3.68512 273.086 1.74527 276.907 0.940522C281.464 -0.0166998 285.894 0.32214 290.045 2.45683C295.17 5.09978 298.11 9.5301 299.329 15.0278C299.88 17.5182 300.092 20.1612 299.948 22.7025C299.643 28.0223 297.83 32.8338 293.849 36.5695C290.985 39.2633 287.572 40.7457 283.607 41.1269C280.617 41.4149 277.745 41.2878 274.908 40.2798C269.833 38.467 266.53 34.8584 264.454 30.0299C263.192 27.0905 262.582 24.0155 262.718 21.1777L262.726 21.1862ZM283.489 39.4242C286.758 39.4581 289.893 37.7639 292.07 34.4348C293.4 32.3933 294.264 30.1146 294.289 27.6241C294.323 24.8711 294.535 22.0841 294.221 19.3649C293.857 16.1798 292.807 13.1218 291.163 10.3179C288.783 6.25183 285.844 3.04133 280.752 2.51613C277.576 2.18576 274.831 2.9905 272.578 5.14213C269.647 7.94603 268.588 11.6394 268.275 15.536C268.046 18.3908 268.241 21.2539 268.91 24.0578C270.011 28.6745 271.833 32.91 275.39 36.2222C277.466 38.162 279.821 39.4327 283.489 39.4157V39.4242Z" fill="white"/>
<path d="M254.267 3.85435C254.267 3.85435 254.267 3.92212 254.267 3.956C254.225 4.74381 254.445 6.0314 254.072 6.2347C253.225 6.7006 252.073 6.83614 251.073 6.75143C248.735 6.57354 246.423 6.14152 244.364 4.90475C243.712 4.51509 243.068 4.12542 242.408 3.7527C240.205 2.50746 237.952 2.15168 235.715 3.58328C232.945 5.36219 232.513 9.26731 234.648 11.8086C236.622 14.1635 239.248 15.5104 241.95 16.6964C245.491 18.255 249.032 19.7967 252.149 22.1432C256.215 25.2012 257.74 29.9111 256.393 34.477C255.529 37.4164 253.259 38.992 250.497 40.0593C247.295 41.2961 243.966 41.3639 240.629 41.2876C237.342 41.2114 234.055 41.0081 230.768 40.8895C229.896 40.8556 229.481 40.4914 229.489 39.6104C229.506 38.5854 229.481 37.5604 229.498 36.5439C229.523 35.3834 229.769 35.197 230.946 35.1546C234.834 35.0361 238.477 35.8493 241.942 37.6705C243.416 38.4414 244.94 39.297 246.711 39.1699C250.413 38.9073 252.708 36.1542 252.022 32.3507C251.387 28.8353 248.93 26.8023 246.236 25.0657C244.297 23.812 242.035 23.0411 239.934 22.0161C236.097 20.1441 232.327 18.1534 229.879 14.4516C227.338 10.6142 228.845 4.98099 232.827 2.68536C236.071 0.813268 239.57 0.338892 243.187 0.457486C246.567 0.57608 249.938 0.881036 253.318 1.05046C254.064 1.08434 254.335 1.32153 254.275 2.05003C254.225 2.643 254.267 3.25291 254.267 3.84588V3.85435Z" fill="white"/>
<path d="M68.7918 0.880924C72.087 0.880924 75.3823 0.855511 78.669 0.880924C81.4136 0.906337 84.1667 0.880924 86.9028 1.08423C90.2827 1.34683 93.5695 2.02451 96.5004 3.91354C100.66 6.59884 100.804 11.3595 98.364 14.7395C96.4242 17.4248 93.7982 19.3646 90.9181 21.008C88.3005 22.4989 85.7762 24.1423 83.2857 25.8365C81.1002 27.3273 80.0328 29.6653 78.9824 32.0118C78.1777 33.8077 78.237 35.4849 78.9824 37.2638C79.5076 38.526 80.5496 39.0173 81.6677 39.5256C81.9896 39.6696 82.2353 39.9915 82.5148 40.2287C82.1252 40.4404 81.727 40.8386 81.3289 40.847C78.7198 40.9063 76.1108 40.8809 73.4932 40.8809C72.2904 40.8809 71.0875 40.9148 69.8931 40.8386C69.4949 40.8132 69.1222 40.4828 68.741 40.288C69.0714 39.9915 69.3509 39.551 69.7321 39.4324C70.8926 39.0512 71.943 38.526 72.3835 37.3401C72.7139 36.4506 72.9596 35.4764 72.9596 34.5362C73.0019 25.3621 73.0612 16.1795 72.9341 7.00545C72.9003 4.54886 72.697 3.35445 69.7575 2.31252C69.317 2.16004 68.9867 1.70261 68.6055 1.38918C68.6648 1.21976 68.7241 1.05034 68.7918 0.880924ZM78.4996 26.5904C78.8045 26.4209 79.1688 26.2685 79.4822 26.0482C80.0413 25.6416 80.5411 25.1418 81.1256 24.786C83.8024 23.1342 86.5385 21.584 89.173 19.8729C92.9087 17.4332 95.7126 13.0876 93.5949 8.08126C92.7054 5.97199 91.2992 4.4218 89.173 3.62552C85.8609 2.38029 82.5572 2.63442 79.2874 3.8373C78.6436 4.07449 78.237 4.45568 78.2878 5.20113C78.3725 6.45483 78.4826 7.70854 78.4911 8.96224C78.5165 13.6213 78.5081 18.2719 78.5081 22.9309C78.5081 24.0745 78.5081 25.2181 78.5081 26.5988L78.4996 26.5904Z" fill="white"/>
<path d="M194.002 34.841C194.959 32.3081 195.874 29.9278 196.764 27.5474C197.907 24.5064 199.051 21.4568 200.169 18.4073C201.27 15.4085 201.795 12.2997 201.55 9.10611C201.389 6.97989 200.55 5.03157 199.381 3.25266C198.881 2.49027 198.813 2.01589 199.788 1.61776C200.711 1.23656 201.575 0.711362 202.448 0.220045C203.168 -0.186562 203.71 -0.00867135 204.15 0.652066C205.667 2.90535 206.302 5.29417 205.827 8.05571C205.251 11.4017 203.871 14.4344 202.642 17.5432C201.151 21.3043 199.644 25.057 198.187 28.8266C197.238 31.2747 196.365 33.7652 195.4 36.2133C195.069 37.0519 194.9 37.7719 195.408 38.619C195.806 39.2798 195.959 40.076 196.289 40.9824C195.73 41.1095 195.29 41.2789 194.832 41.3043C194.027 41.3552 193.206 41.245 192.401 41.3382C191.139 41.4822 190.546 40.8977 190.08 39.7796C187.318 33.1129 184.489 26.4716 181.677 19.8219C179.932 15.705 178.212 11.5712 176.433 7.47121C175.645 5.65842 174.807 3.82869 173.011 2.72746C172.359 2.32932 171.647 2.03284 171.012 1.4314C175.264 0.584298 179.491 0.973963 183.701 0.965492C183.769 1.10103 183.837 1.22809 183.905 1.36363C183.583 1.73635 183.312 2.18531 182.93 2.46486C181.185 3.71009 181.016 3.98116 181.812 6.0142C183.108 9.30094 184.514 12.5453 185.861 15.8067C187.572 19.949 189.267 24.0913 190.986 28.2251C191.783 30.148 192.621 32.0455 193.46 33.9515C193.578 34.2226 193.773 34.4682 194.01 34.841H194.002Z" fill="white"/>
<path d="M141.125 15.4002C141.184 9.86018 143.175 5.69245 147.563 2.82926C149.384 1.64332 151.434 1.10965 153.603 0.813163C156.593 0.406556 159.499 0.660685 162.311 1.62638C166.004 2.88856 168.613 5.43832 170.113 9.01308C171.824 13.113 171.773 17.3062 169.876 21.296C168.063 25.091 164.937 27.4883 160.854 28.598C157.525 29.5044 154.179 29.4959 150.901 28.454C145.733 26.8022 142.701 23.1257 141.421 17.9415C141.193 17.0097 141.201 16.0101 141.133 15.4087L141.125 15.4002ZM165.589 16.6793C165.521 16.1711 165.394 15.451 165.327 14.731C164.92 10.6734 163.387 7.1664 160.413 4.30321C157.974 1.95675 153.637 1.70262 151.078 3.38834C148.037 5.3875 147.106 8.5387 146.953 11.9017C146.868 13.7399 147.131 15.6543 147.58 17.4502C148.469 21.0419 149.977 24.2693 153.34 26.3532C156.898 28.5641 161.506 27.2596 163.624 24.1338C165.106 21.9398 165.428 19.4493 165.598 16.6709L165.589 16.6793Z" fill="white"/>
<path d="M0.195491 1.07568C4.15991 1.07568 8.12434 1.07568 12.0888 1.09263C12.3429 1.09263 12.5885 1.34676 12.8427 1.48229C12.6394 1.71948 12.4869 2.0922 12.2328 2.17691C9.91171 2.94777 9.4204 4.70127 9.43734 6.91219C9.48816 16.298 9.43734 25.6754 9.48816 35.0613C9.48816 36.0354 9.683 37.1451 10.1828 37.9414C10.6402 38.6699 11.6313 39.0596 12.3768 39.6017C12.5462 39.7288 12.8342 39.9067 12.8173 40.0168C12.7834 40.254 12.6224 40.542 12.4191 40.6606C12.1735 40.8131 11.8346 40.8724 11.5381 40.8724C8.14975 40.8809 4.76135 40.8893 1.38143 40.847C0.966351 40.847 0.551273 40.5505 0.127723 40.398C0.466563 40.0338 0.746105 39.5086 1.16118 39.3476C3.33823 38.4836 3.67707 37.5094 3.72789 35.3154C3.89731 28.276 3.89731 21.2366 3.95661 14.1972C3.97355 12.2574 4.00744 10.3175 3.9312 8.37768C3.88884 7.14091 3.73636 5.8872 3.49071 4.66738C3.25352 3.43909 2.27088 2.83765 1.20354 2.34633C0.754576 2.14303 0.390324 1.75336 -0.0078125 1.44841C0.0599554 1.32134 0.119252 1.20275 0.18702 1.07568H0.195491Z" fill="white"/>
<path d="M210.225 1.23669C211.004 1.11809 211.775 0.906316 212.554 0.889374C214.528 0.84702 216.51 0.872433 218.484 0.906317C219.746 0.931729 221 0.999497 222.262 1.09268C222.491 1.10962 222.711 1.32987 222.931 1.45693C222.77 1.68565 222.66 2.04143 222.448 2.11767C219.983 2.99018 219.509 4.89615 219.526 7.25109C219.577 16.459 219.568 25.6755 219.526 34.8834C219.517 37.069 220.136 38.7377 222.33 39.5764C222.592 39.678 222.736 40.1016 222.931 40.3811C222.66 40.5421 222.381 40.847 222.109 40.847C218.475 40.8809 214.841 40.8894 211.207 40.847C210.877 40.847 210.555 40.4489 210.233 40.2371C210.504 39.966 210.724 39.5425 211.046 39.4408C213.317 38.7039 213.782 37.2723 213.799 35.5357C213.918 26.7259 213.977 17.9161 214.011 9.1147C214.011 7.76782 213.825 6.41246 213.605 5.08251C213.41 3.91352 212.825 2.98171 211.605 2.52428C211.08 2.32944 210.631 1.93131 210.148 1.62635C210.174 1.49929 210.199 1.36375 210.225 1.23669Z" fill="white"/>
<path d="M23.8811 33.0538C24.0336 34.4431 24.1353 35.8323 24.364 37.2131C24.5673 38.4499 25.5838 38.9581 26.6257 39.4156C26.9985 39.5765 27.3034 39.9153 27.6338 40.1779C27.2102 40.4151 26.7952 40.8471 26.3631 40.8556C24.0082 40.9234 21.6448 40.9064 19.2899 40.8556C18.9849 40.8556 18.68 40.5083 18.375 40.3219C18.5952 40.0339 18.7647 39.5596 19.0357 39.4918C21.433 38.8819 21.9413 37.1284 21.9667 34.9852C21.9752 33.9857 22.1446 32.9776 22.2462 31.978C22.5427 32.139 22.8562 32.2745 23.1357 32.4524C23.3983 32.6218 23.627 32.8421 23.8727 33.0369L23.8811 33.0538Z" fill="white"/>
<path d="M23.8791 33.0536C23.6334 32.8588 23.4047 32.6385 23.1421 32.4691C22.8625 32.2828 22.5491 32.1472 22.2526 31.9947C22.2442 27.3357 22.2272 22.6767 22.2188 18.0261C22.5152 17.6872 22.8202 17.3484 23.1082 17.0096C23.3539 16.7216 23.591 16.4166 23.8282 16.1201C23.896 16.2387 24.0146 16.3573 24.0146 16.4759C23.9977 21.8973 23.9638 27.3272 23.9384 32.7487C23.9384 32.8503 23.9045 32.952 23.8875 33.0621L23.8791 33.0536Z" fill="white"/>
</g>
<defs>
<clipPath id="clip0_396_8095">
<rect width="300" height="41.7027" fill="white"/>
</clipPath>
</defs>
</svg>
