<svg width="187" height="100" viewBox="0 0 187 100" fill="none" xmlns="http://www.w3.org/2000/svg">
<path d="M171.528 90.674C171.528 89.9891 171.391 89.5781 170.98 89.1672C170.706 88.7562 170.295 88.6192 169.884 88.6192C169.474 88.6192 169.063 88.7562 168.652 89.1672C168.378 89.5781 168.104 89.9891 168.104 90.674H171.528ZM172.35 90.811V91.222H168.241C168.241 91.9069 168.515 92.4548 168.789 92.8658C169.2 93.2768 169.611 93.4137 170.295 93.4137C170.569 93.4137 170.843 93.4137 171.117 93.2767C171.391 93.1398 171.665 93.1398 171.939 93.0028V93.6877C171.665 93.8247 171.391 93.8247 171.117 93.9617C170.843 93.9617 170.569 94.0987 170.295 94.0987C169.474 94.0987 168.789 93.8247 168.241 93.2767C167.693 92.7288 167.556 92.0439 167.556 91.085C167.556 90.1261 167.83 89.4411 168.241 88.8932C168.652 88.3452 169.337 88.0713 170.021 88.0713C170.706 88.0713 171.254 88.3452 171.665 88.7562C172.076 89.3042 172.35 89.9891 172.35 90.811ZM165.912 85.3315H166.597V93.9617H165.912V92.7288C165.638 93.1398 165.364 93.4137 165.09 93.6877C164.816 93.9617 164.405 93.9617 163.857 93.9617C163.172 93.9617 162.624 93.6877 162.213 93.1398C161.802 92.5918 161.528 91.9069 161.528 90.948C161.528 90.1261 161.802 89.3042 162.213 88.7562C162.624 88.2083 163.172 87.9343 163.994 87.9343C164.405 87.9343 164.816 88.0713 165.09 88.2083C165.364 88.3452 165.638 88.6192 165.912 89.0302V85.3315ZM164.131 88.6192C163.583 88.6192 163.172 88.8932 162.898 89.3041C162.624 89.7151 162.487 90.2631 162.487 91.085C162.487 91.7699 162.624 92.4548 162.898 92.8658C163.172 93.2768 163.583 93.5507 164.131 93.5507C164.679 93.5507 165.09 93.2768 165.364 92.8658C165.638 92.4548 165.912 91.9069 165.912 91.222C165.912 90.537 165.775 89.8521 165.501 89.4411C165.227 88.8932 164.679 88.6192 164.131 88.6192ZM161.117 90.2631V93.9617H160.432V93.0028C160.158 93.4137 159.884 93.6877 159.611 93.8247C159.337 93.9617 158.926 94.0987 158.515 94.0987C157.967 94.0987 157.556 93.9617 157.145 93.6877C156.871 93.4137 156.597 93.0028 156.597 92.4548C156.597 91.7699 156.871 91.3589 157.419 91.085C157.967 90.674 158.652 90.537 159.611 90.537H160.295C160.295 90.537 160.295 90.537 160.295 90.4V90.2631C160.295 89.7151 160.158 89.4411 159.884 89.1672C159.611 88.8932 159.337 88.7562 158.926 88.7562C158.652 88.7562 158.378 88.7562 158.104 88.8932C157.83 89.0302 157.556 89.0302 157.282 89.3041V88.6192C157.556 88.4822 157.83 88.3452 158.104 88.3452C158.378 88.2083 158.652 88.2083 158.926 88.2083C159.611 88.2083 160.021 88.3452 160.432 88.7562C160.843 89.0302 161.117 89.5781 161.117 90.2631ZM159.474 91.085C158.789 91.085 158.241 91.222 157.967 91.3589C157.556 91.6329 157.419 91.9069 157.419 92.3178C157.419 92.5918 157.556 92.8658 157.693 93.1398C157.967 93.4137 158.241 93.4137 158.515 93.4137C159.063 93.4137 159.474 93.2768 159.747 92.8658C160.021 92.5918 160.295 92.0439 160.295 91.4959V90.948H159.474V91.085ZM155.227 85.3315H155.912V93.9617H155.227V92.7288C154.953 93.1398 154.679 93.4137 154.405 93.6877C154.131 93.9617 153.72 93.9617 153.172 93.9617C152.487 93.9617 151.939 93.6877 151.528 93.1398C151.117 92.5918 150.843 91.9069 150.843 90.948C150.843 90.1261 151.117 89.3042 151.528 88.7562C151.939 88.2083 152.487 87.9343 153.309 87.9343C153.72 87.9343 154.131 88.0713 154.405 88.2083C154.679 88.3452 154.953 88.6192 155.227 89.0302V85.3315ZM153.446 88.6192C152.898 88.6192 152.487 88.8932 152.213 89.3041C151.939 89.7151 151.802 90.2631 151.802 91.085C151.802 91.7699 151.939 92.4548 152.213 92.8658C152.487 93.2768 152.898 93.5507 153.446 93.5507C153.994 93.5507 154.405 93.2768 154.679 92.8658C154.953 92.4548 155.227 91.9069 155.227 91.222C155.227 90.537 155.09 89.8521 154.816 89.4411C154.405 88.8932 153.994 88.6192 153.446 88.6192ZM149.474 85.4685H150.295V86.4274H149.474V85.4685ZM149.474 88.2083H150.158V93.9617H149.474V88.2083ZM149.063 88.3452V89.0302C148.926 88.8932 148.652 88.8932 148.515 88.7562C148.241 88.7562 148.104 88.6192 147.83 88.6192C147.145 88.6192 146.734 88.8932 146.323 89.3041C145.912 89.7151 145.775 90.2631 145.775 90.948C145.775 91.6329 145.912 92.1809 146.323 92.5918C146.734 93.0028 147.145 93.2767 147.83 93.2767C148.104 93.2767 148.241 93.2767 148.515 93.1398C148.789 93.1398 148.926 93.0028 149.2 92.8658V93.5507C148.926 93.6877 148.789 93.6877 148.515 93.6877C148.241 93.6877 147.967 93.6877 147.693 93.6877C146.871 93.6877 146.186 93.4137 145.638 92.8658C145.09 92.3178 144.816 91.6329 144.816 90.674C144.816 89.8521 145.09 89.1672 145.638 88.6192C146.186 88.0713 146.871 87.7973 147.693 87.7973C147.967 87.7973 148.104 87.7973 148.378 87.7973C148.652 88.2083 148.789 88.3452 149.063 88.3452ZM143.309 85.4685H144.131V86.4274H143.309V85.4685ZM143.309 88.2083H143.994V93.9617H143.309V88.2083ZM141.391 86.4274V88.2083H142.761V88.7562H141.391V92.1809C141.391 92.5918 141.391 93.0028 141.528 93.1398C141.665 93.2767 141.802 93.4137 142.213 93.4137C142.35 93.4137 142.35 93.4137 142.487 93.4137C142.624 93.4137 142.624 93.4137 142.761 93.2767V93.9617C142.624 93.9617 142.487 93.9617 142.35 94.0987C142.213 94.0987 142.076 94.0987 141.939 94.0987C141.391 94.0987 141.117 93.9617 140.843 93.6877C140.569 93.4137 140.569 93.0028 140.569 92.3178V88.7562H139.337V88.2083H140.569V86.7014L141.391 86.4274ZM139.2 90.2631V93.9617H138.515V93.0028C138.241 93.4137 137.967 93.6877 137.693 93.8247C137.419 93.9617 137.008 94.0987 136.597 94.0987C136.049 94.0987 135.638 93.9617 135.227 93.6877C134.953 93.4137 134.679 93.0028 134.679 92.4548C134.679 91.7699 134.953 91.3589 135.501 91.085C136.049 90.674 136.734 90.537 137.693 90.537H138.378C138.378 90.537 138.378 90.537 138.378 90.4V90.2631C138.378 89.7151 138.241 89.4411 137.967 89.1672C137.693 88.8932 137.419 88.7562 137.008 88.7562C136.734 88.7562 136.46 88.7562 136.186 88.8932C135.912 89.0302 135.638 89.0302 135.364 89.3041V88.6192C135.638 88.4822 135.912 88.3452 136.186 88.3452C136.46 88.2083 136.734 88.2083 137.008 88.2083C137.693 88.2083 138.104 88.3452 138.515 88.7562C138.926 89.0302 139.2 89.5781 139.2 90.2631ZM137.556 91.085C136.871 91.085 136.323 91.222 136.049 91.3589C135.638 91.6329 135.501 91.9069 135.501 92.3178C135.501 92.5918 135.638 92.8658 135.775 93.1398C136.049 93.4137 136.323 93.4137 136.597 93.4137C137.145 93.4137 137.556 93.2768 137.83 92.8658C138.104 92.5918 138.378 92.0439 138.378 91.4959V90.948H137.556V91.085ZM134.816 88.2083V88.8932C134.679 88.8932 134.679 88.8932 134.542 88.8932H134.405C133.857 88.8932 133.583 89.0302 133.309 89.4411C133.035 89.8521 132.898 90.2631 132.898 90.948V93.9617H132.213V88.2083H132.898V89.4411C133.035 89.0302 133.309 88.7562 133.583 88.4822C133.857 88.2083 134.268 88.2083 134.542 88.2083H134.679C134.679 88.0713 134.816 88.0713 134.816 88.2083ZM127.282 85.8795H128.926C129.747 85.8795 130.432 86.0165 130.98 86.4274C131.391 86.8384 131.665 87.3863 131.665 88.0713C131.665 88.7562 131.391 89.4411 130.843 89.8521C130.295 90.263 129.611 90.537 128.789 90.537H127.967V93.9617H127.282V85.8795ZM127.967 86.5644V89.8521H128.789C129.474 89.8521 129.884 89.7151 130.295 89.4411C130.706 89.1672 130.843 88.7562 130.843 88.2083C130.843 87.6603 130.706 87.3863 130.295 86.9754C130.021 86.7014 129.474 86.5644 128.926 86.5644H127.967ZM119.2 89.3041C119.337 88.8932 119.611 88.6192 120.021 88.3452C120.295 88.0713 120.706 88.0713 121.117 88.0713C121.665 88.0713 122.213 88.2083 122.487 88.6192C122.761 89.0302 122.898 89.5781 122.898 90.4V93.9617H122.213V90.537C122.213 89.8521 122.076 89.4411 121.939 89.1672C121.802 88.8932 121.391 88.7562 120.98 88.7562C120.432 88.7562 120.021 88.8932 119.747 89.3041C119.474 89.7151 119.337 90.2631 119.337 90.948V93.9617H118.652V90.537C118.652 89.8521 118.515 89.4411 118.378 89.1672C118.241 88.8932 117.83 88.7562 117.419 88.7562C116.871 88.7562 116.46 88.8932 116.186 89.3041C115.912 89.7151 115.775 90.2631 115.775 90.948V93.9617H115.09V88.2083H115.775V89.3041C115.912 88.8932 116.186 88.6192 116.597 88.3452C116.871 88.0713 117.282 88.0713 117.693 88.0713C118.104 88.0713 118.515 88.2083 118.789 88.3452C118.789 88.6192 119.063 88.8932 119.2 89.3041ZM111.528 88.0713C112.35 88.0713 113.035 88.3452 113.446 88.8932C113.994 89.4411 114.131 90.1261 114.131 91.085C114.131 92.0439 113.857 92.7288 113.446 93.2767C112.898 93.8247 112.35 94.0987 111.528 94.0987C110.706 94.0987 110.021 93.8247 109.611 93.2767C109.063 92.7288 108.926 92.0439 108.926 91.085C108.926 90.1261 109.2 89.4411 109.611 88.8932C110.021 88.3452 110.706 88.0713 111.528 88.0713ZM111.528 88.6192C110.98 88.6192 110.432 88.8932 110.158 89.3041C109.747 89.7151 109.611 90.4 109.611 91.085C109.611 91.7699 109.747 92.3178 110.158 92.8658C110.569 93.2768 110.98 93.5507 111.528 93.5507C112.076 93.5507 112.624 93.2768 112.898 92.8658C113.309 92.4548 113.446 91.9069 113.446 91.085C113.446 90.4 113.309 89.7151 112.898 89.3041C112.487 88.8932 112.076 88.6192 111.528 88.6192ZM108.652 88.3452V89.0302C108.515 88.8932 108.241 88.8932 108.104 88.7562C107.83 88.7562 107.693 88.6192 107.419 88.6192C106.734 88.6192 106.323 88.8932 105.912 89.3041C105.501 89.7151 105.364 90.2631 105.364 90.948C105.364 91.6329 105.501 92.1809 105.912 92.5918C106.323 93.0028 106.734 93.2767 107.419 93.2767C107.693 93.2767 107.83 93.2767 108.104 93.1398C108.378 93.1398 108.515 93.0028 108.789 92.8658V93.5507C108.515 93.6877 108.378 93.6877 108.104 93.6877C107.83 93.6877 107.556 93.6877 107.282 93.6877C106.46 93.6877 105.775 93.4137 105.227 92.8658C104.679 92.3178 104.405 91.6329 104.405 90.674C104.405 89.8521 104.679 89.1672 105.227 88.6192C105.775 88.0713 106.46 87.7973 107.282 87.7973C107.556 87.7973 107.693 87.7973 107.967 87.7973C108.241 88.2083 108.515 88.3452 108.652 88.3452ZM100.432 90.674C100.432 89.9891 100.295 89.5781 99.8845 89.1672C99.6105 88.7562 99.1995 88.6192 98.7886 88.6192C98.3776 88.6192 97.9667 88.7562 97.5557 89.1672C97.2817 89.5781 97.0078 89.9891 97.0078 90.674H100.432ZM101.117 90.811V91.222H97.0078C97.0078 91.9069 97.2817 92.4548 97.5557 92.8658C97.9667 93.2768 98.3776 93.4137 99.0626 93.4137C99.3365 93.4137 99.6105 93.4137 99.8845 93.2767C100.158 93.1398 100.432 93.1398 100.706 93.0028V93.6877C100.432 93.8247 100.158 93.8247 99.8845 93.9617C99.6105 93.9617 99.3365 94.0987 99.0626 94.0987C98.2406 94.0987 97.5557 93.8247 97.0078 93.2767C96.4598 92.7288 96.3228 92.0439 96.3228 91.085C96.3228 90.1261 96.5968 89.4411 97.0078 88.8932C97.4187 88.3452 98.1037 88.0713 98.7886 88.0713C99.4735 88.0713 100.021 88.3452 100.432 88.7562C100.98 89.3042 101.117 89.9891 101.117 90.811ZM94.816 85.3315H95.5009V93.9617H94.816V92.7288C94.542 93.1398 94.268 93.4137 93.9941 93.6877C93.7201 93.9617 93.3091 93.9617 92.7612 93.9617C92.0763 93.9617 91.5283 93.6877 91.1174 93.1398C90.7064 92.5918 90.4324 91.9069 90.4324 90.948C90.4324 90.1261 90.7064 89.3042 91.1174 88.7562C91.5283 88.2083 92.0763 87.9343 92.8982 87.9343C93.3091 87.9343 93.7201 88.0713 93.9941 88.2083C94.268 88.3452 94.542 88.6192 94.816 89.0302V85.3315ZM93.0352 88.6192C92.4872 88.6192 92.0763 88.8932 91.8023 89.3041C91.5283 89.7151 91.3913 90.2631 91.3913 91.085C91.3913 91.7699 91.5283 92.4548 91.8023 92.8658C92.0763 93.2768 92.4872 93.5507 93.0352 93.5507C93.5831 93.5507 93.9941 93.2768 94.268 92.8658C94.542 92.4548 94.816 91.9069 94.816 91.222C94.816 90.537 94.679 89.8521 94.405 89.4411C93.9941 88.8932 93.5831 88.6192 93.0352 88.6192ZM89.8845 90.2631V93.9617H89.1995V93.0028C88.9256 93.4137 88.6516 93.6877 88.3776 93.8247C88.1037 93.9617 87.6927 94.0987 87.2817 94.0987C86.7338 94.0987 86.3228 93.9617 85.9119 93.6877C85.6379 93.4137 85.3639 93.0028 85.3639 92.4548C85.3639 91.7699 85.6379 91.3589 86.1858 91.085C86.7338 90.674 87.4187 90.537 88.3776 90.537H89.0626C89.0626 90.537 89.0626 90.537 89.0626 90.4V90.2631C89.0626 89.7151 88.9256 89.4411 88.6516 89.1672C88.3776 88.8932 88.1037 88.7562 87.6927 88.7562C87.4187 88.7562 87.1447 88.7562 86.8708 88.8932C86.5968 89.0302 86.3228 89.0302 86.0489 89.3041V88.6192C86.3228 88.4822 86.5968 88.3452 86.8708 88.3452C87.1447 88.2083 87.4187 88.2083 87.6927 88.2083C88.3776 88.2083 88.7886 88.3452 89.1995 88.7562C89.7475 89.0302 89.8845 89.5781 89.8845 90.2631ZM88.3776 91.085C87.6927 91.085 87.1447 91.222 86.8708 91.3589C86.4598 91.6329 86.3228 91.9069 86.3228 92.3178C86.3228 92.5918 86.4598 92.8658 86.5968 93.1398C86.8708 93.4137 87.1447 93.4137 87.4187 93.4137C87.9667 93.4137 88.3776 93.2768 88.6516 92.8658C88.9256 92.5918 89.1995 92.0439 89.1995 91.4959V90.948H88.3776V91.085ZM84.1311 85.3315H84.816V93.9617H84.1311V92.7288C83.8571 93.1398 83.5831 93.4137 83.3091 93.6877C83.0352 93.9617 82.6242 93.9617 82.0763 93.9617C81.3913 93.9617 80.8434 93.6877 80.4324 93.1398C80.0215 92.5918 79.7475 91.9069 79.7475 90.948C79.7475 90.1261 80.0215 89.3042 80.4324 88.7562C80.8434 88.2083 81.3913 87.9343 82.2132 87.9343C82.6242 87.9343 83.0352 88.0713 83.3091 88.2083C83.5831 88.3452 83.8571 88.6192 84.1311 89.0302V85.3315ZM82.3502 88.6192C81.8023 88.6192 81.3913 88.8932 81.1173 89.3041C80.8434 89.7151 80.7064 90.2631 80.7064 91.085C80.7064 91.7699 80.8434 92.4548 81.1173 92.8658C81.3913 93.2768 81.8023 93.5507 82.3502 93.5507C82.8982 93.5507 83.3091 93.2768 83.5831 92.8658C83.8571 92.4548 84.1311 91.9069 84.1311 91.222C84.1311 90.537 83.9941 89.8521 83.7201 89.4411C83.3091 88.8932 82.8982 88.6192 82.3502 88.6192ZM78.3776 85.4685H79.1995V86.4274H78.3776V85.4685ZM78.3776 88.2083H79.0626V93.9617H78.3776V88.2083ZM76.5968 85.3315H77.2817V93.9617H76.5968V85.3315ZM75.5009 90.2631V93.9617H74.816V93.0028C74.542 93.4137 74.268 93.6877 73.9941 93.8247C73.7201 93.9617 73.3091 94.0987 72.8982 94.0987C72.3502 94.0987 71.9393 93.9617 71.5283 93.6877C71.2543 93.4137 70.9804 93.0028 70.9804 92.4548C70.9804 91.7699 71.2543 91.3589 71.8023 91.085C72.3502 90.674 73.0352 90.537 73.9941 90.537H74.679C74.679 90.537 74.679 90.537 74.679 90.4V90.2631C74.679 89.7151 74.542 89.4411 74.268 89.1672C73.9941 88.8932 73.7201 88.7562 73.3091 88.7562C73.0352 88.7562 72.7612 88.7562 72.4872 88.8932C72.2132 89.0302 71.9393 89.0302 71.6653 89.3041V88.6192C71.9393 88.4822 72.2132 88.3452 72.4872 88.3452C72.7612 88.2083 73.0352 88.2083 73.3091 88.2083C73.9941 88.2083 74.405 88.3452 74.816 88.7562C75.3639 89.0302 75.5009 89.5781 75.5009 90.2631ZM73.9941 91.085C73.3091 91.085 72.7612 91.222 72.4872 91.3589C72.0763 91.6329 71.9393 91.9069 71.9393 92.3178C71.9393 92.5918 72.0763 92.8658 72.2132 93.1398C72.4872 93.4137 72.7612 93.4137 73.0352 93.4137C73.5831 93.4137 73.9941 93.2768 74.268 92.8658C74.542 92.5918 74.816 92.0439 74.816 91.4959V90.948H73.9941V91.085ZM65.7749 88.2083H66.4598V91.4959C66.4598 92.1809 66.5968 92.5918 66.7338 92.8658C67.0078 93.1398 67.2817 93.2767 67.8297 93.2767C68.3776 93.2767 68.7886 93.0028 69.0626 92.5918C69.3365 92.1809 69.4735 91.4959 69.4735 90.811V88.0713H70.1584V93.8247H69.4735V92.7288C69.1995 93.1398 68.9256 93.4137 68.6516 93.6877C68.3776 93.8247 67.9667 93.9617 67.4187 93.9617C66.7338 93.9617 66.3228 93.8247 66.0489 93.4137C65.7749 93.0028 65.5009 92.4548 65.5009 91.6329V88.2083H65.7749ZM61.5283 86.4274C60.7064 86.4274 60.0215 86.7014 59.6105 87.3863C59.0626 88.0713 58.9256 88.8932 58.9256 89.9891C58.9256 91.085 59.1995 91.9069 59.6105 92.5918C60.1584 93.2767 60.7064 93.5507 61.5283 93.5507C62.3502 93.5507 63.0352 93.2767 63.4461 92.5918C63.9941 91.9069 64.131 91.085 64.131 89.9891C64.131 88.8932 63.8571 88.0713 63.4461 87.3863C63.0352 86.7014 62.3502 86.4274 61.5283 86.4274ZM62.8982 93.8247L64.679 95.4685H63.7201L62.2132 93.9617C62.2132 93.9617 62.0763 93.9617 61.9393 93.9617C61.8023 93.9617 61.6653 93.9617 61.5283 93.9617C60.4324 93.9617 59.6105 93.5507 58.9256 92.8658C58.2406 92.1809 57.9667 91.085 57.9667 89.8521C57.9667 88.6192 58.2406 87.5233 58.9256 86.8384C59.6105 86.1535 60.4324 85.7425 61.5283 85.7425C62.6242 85.7425 63.4461 86.1535 64.131 86.8384C64.816 87.5233 65.09 88.6192 65.09 89.8521C65.09 90.811 64.953 91.6329 64.542 92.3178C64.131 93.0028 63.5831 93.5507 62.8982 93.8247ZM51.6653 88.0713C52.4872 88.0713 53.1721 88.3452 53.5831 88.8932C54.131 89.4411 54.268 90.1261 54.268 91.085C54.268 92.0439 53.9941 92.7288 53.5831 93.2767C53.0352 93.8247 52.4872 94.0987 51.6653 94.0987C50.8434 94.0987 50.1584 93.8247 49.7475 93.2767C49.1995 92.7288 49.0626 92.0439 49.0626 91.085C49.0626 90.1261 49.3365 89.4411 49.7475 88.8932C50.1584 88.3452 50.8434 88.0713 51.6653 88.0713ZM51.6653 88.6192C51.1173 88.6192 50.5694 88.8932 50.2954 89.3041C49.8845 89.7151 49.7475 90.2631 49.7475 91.085C49.7475 91.7699 49.8845 92.3178 50.2954 92.8658C50.7064 93.2768 51.1173 93.5507 51.6653 93.5507C52.2132 93.5507 52.7612 93.2768 53.0352 92.8658C53.4461 92.4548 53.5831 91.9069 53.5831 91.085C53.5831 90.4 53.4461 89.7151 53.0352 89.3041C52.7612 88.8932 52.2132 88.6192 51.6653 88.6192ZM47.4187 85.3315H48.1036V93.9617H47.4187V92.7288C47.1447 93.1398 46.8708 93.4137 46.5968 93.6877C46.3228 93.9617 45.9119 93.9617 45.3639 93.9617C44.679 93.9617 44.131 93.6877 43.7201 93.1398C43.3091 92.5918 43.0352 91.9069 43.0352 90.948C43.0352 90.1261 43.3091 89.3042 43.7201 88.7562C44.131 88.2083 44.679 87.9343 45.5009 87.9343C45.9119 87.9343 46.3228 88.0713 46.5968 88.2083C46.8708 88.3452 47.1447 88.6192 47.4187 89.0302V85.3315ZM45.6379 88.6192C45.09 88.6192 44.679 88.8932 44.405 89.3041C44.1311 89.7151 43.9941 90.2631 43.9941 91.085C43.9941 91.7699 44.1311 92.4548 44.405 92.8658C44.679 93.2768 45.09 93.5507 45.6379 93.5507C46.1858 93.5507 46.5968 93.2768 46.8708 92.8658C47.1447 92.4548 47.4187 91.9069 47.4187 91.222C47.4187 90.537 47.2817 89.8521 47.0078 89.4411C46.5968 88.8932 46.1858 88.6192 45.6379 88.6192ZM42.4872 90.4V93.9617H41.8023V90.537C41.8023 89.8521 41.6653 89.4411 41.5283 89.1672C41.2543 88.8932 40.9804 88.7562 40.4324 88.7562C39.8845 88.7562 39.4735 88.8932 39.1995 89.3041C38.9256 89.7151 38.7886 90.2631 38.7886 90.948V93.9617H38.1036V88.2083H38.7886V89.3041C39.0626 88.8932 39.3365 88.6192 39.6105 88.3452C39.8845 88.2083 40.2954 88.0713 40.8434 88.0713C41.5283 88.0713 41.9393 88.2083 42.2132 88.6192C42.3502 89.0302 42.4872 89.7151 42.4872 90.4ZM36.8708 90.2631V93.9617H36.1858V93.0028C35.9119 93.4137 35.6379 93.6877 35.3639 93.8247C35.09 93.9617 34.679 94.0987 34.268 94.0987C33.7201 94.0987 33.3091 93.9617 32.8982 93.6877C32.6242 93.4137 32.3502 93.0028 32.3502 92.4548C32.3502 91.7699 32.6242 91.3589 33.1721 91.085C33.7201 90.674 34.405 90.537 35.3639 90.537H36.0489C36.0489 90.537 36.0489 90.537 36.0489 90.4V90.2631C36.0489 89.7151 35.9119 89.4411 35.6379 89.1672C35.3639 88.8932 35.09 88.7562 34.679 88.7562C34.405 88.7562 34.131 88.7562 33.8571 88.8932C33.5831 89.0302 33.3091 89.0302 33.0352 89.3041V88.6192C33.3091 88.4822 33.5831 88.3452 33.8571 88.3452C34.131 88.2083 34.405 88.2083 34.679 88.2083C35.3639 88.2083 35.7749 88.3452 36.1858 88.7562C36.7338 89.0302 36.8708 89.5781 36.8708 90.2631ZM35.3639 91.085C34.679 91.085 34.131 91.222 33.8571 91.3589C33.4461 91.6329 33.3091 91.9069 33.3091 92.3178C33.3091 92.5918 33.4461 92.8658 33.5831 93.1398C33.8571 93.4137 34.131 93.4137 34.405 93.4137C34.953 93.4137 35.3639 93.2768 35.6379 92.8658C35.9119 92.5918 36.1858 92.0439 36.1858 91.4959V90.948H35.3639V91.085ZM30.9804 86.4274V88.2083H32.3502V88.7562H30.9804V92.1809C30.9804 92.5918 30.9804 93.0028 31.1173 93.1398C31.2543 93.2767 31.3913 93.4137 31.8023 93.4137C31.9393 93.4137 31.9393 93.4137 32.0763 93.4137C32.2132 93.4137 32.2132 93.4137 32.3502 93.2767V93.9617C32.2132 93.9617 32.0763 93.9617 31.9393 94.0987C31.8023 94.0987 31.6653 94.0987 31.5283 94.0987C30.9804 94.0987 30.7064 93.9617 30.4324 93.6877C30.1584 93.4137 30.1584 93.0028 30.1584 92.3178V88.7562H28.9256V88.2083H30.1584V86.7014L30.9804 86.4274ZM29.3365 88.3452V89.0302C29.1995 88.8932 28.9256 88.8932 28.7886 88.7562C28.5146 88.7562 28.3776 88.6192 28.1036 88.6192C27.4187 88.6192 27.0078 88.8932 26.5968 89.3041C26.1858 89.7151 26.0489 90.2631 26.0489 90.948C26.0489 91.6329 26.1858 92.1809 26.5968 92.5918C27.0078 93.0028 27.4187 93.2767 28.1036 93.2767C28.3776 93.2767 28.5146 93.2767 28.7886 93.1398C29.0626 93.1398 29.1995 93.0028 29.4735 92.8658V93.5507C29.1995 93.6877 29.0626 93.6877 28.7886 93.6877C28.5146 93.6877 28.2406 93.6877 27.9667 93.6877C27.1447 93.6877 26.4598 93.4137 25.9119 92.8658C25.3639 92.3178 25.0899 91.6329 25.0899 90.674C25.0899 89.8521 25.3639 89.1672 25.9119 88.6192C26.4598 88.0713 27.1447 87.7973 27.9667 87.7973C28.2406 87.7973 28.3776 87.7973 28.6516 87.7973C28.9256 88.2083 29.0626 88.3452 29.3365 88.3452ZM24.268 90.674C24.268 89.9891 24.131 89.5781 23.7201 89.1672C23.4461 88.7562 23.0352 88.6192 22.6242 88.6192C22.2132 88.6192 21.8023 88.7562 21.3913 89.1672C21.1173 89.5781 20.8434 89.9891 20.8434 90.674H24.268ZM24.953 90.811V91.222H20.8434C20.8434 91.9069 21.1173 92.4548 21.3913 92.8658C21.8023 93.2768 22.2132 93.4137 22.8982 93.4137C23.1721 93.4137 23.4461 93.4137 23.7201 93.2767C23.9941 93.1398 24.268 93.1398 24.542 93.0028V93.6877C24.268 93.8247 23.9941 93.8247 23.7201 93.9617C23.4461 93.9617 23.1721 94.0987 22.8982 94.0987C22.0763 94.0987 21.3913 93.8247 20.8434 93.2767C20.2954 92.7288 20.1584 92.0439 20.1584 91.085C20.1584 90.1261 20.4324 89.4411 20.8434 88.8932C21.2543 88.3452 21.9393 88.0713 22.6242 88.0713C23.3091 88.0713 23.8571 88.3452 24.268 88.7562C24.816 89.3042 24.953 89.9891 24.953 90.811ZM19.6105 90.4V93.9617H18.9256V90.537C18.9256 89.8521 18.7886 89.4411 18.6516 89.1672C18.3776 88.8932 18.1037 88.7562 17.5557 88.7562C17.0078 88.7562 16.5968 88.8932 16.3228 89.3041C16.0489 89.7151 15.9119 90.2631 15.9119 90.948V93.9617H15.2269V88.2083H15.9119V89.3041C16.1858 88.8932 16.4598 88.6192 16.7338 88.3452C17.0078 88.2083 17.4187 88.0713 17.9667 88.0713C18.6516 88.0713 19.0626 88.2083 19.3365 88.6192C19.3365 89.0302 19.6105 89.7151 19.6105 90.4ZM11.5283 88.0713C12.3502 88.0713 13.0352 88.3452 13.4461 88.8932C13.9941 89.4411 14.131 90.1261 14.131 91.085C14.131 92.0439 13.8571 92.7288 13.4461 93.2767C12.8982 93.8247 12.3502 94.0987 11.5283 94.0987C10.7064 94.0987 10.0215 93.8247 9.6105 93.2767C9.06255 92.7288 8.92557 92.0439 8.92557 91.085C8.92557 90.1261 9.19954 89.4411 9.6105 88.8932C10.0215 88.3452 10.7064 88.0713 11.5283 88.0713ZM11.5283 88.6192C10.9804 88.6192 10.4324 88.8932 10.1584 89.3041C9.74748 89.7151 9.6105 90.4 9.6105 91.085C9.6105 91.7699 9.74748 92.3178 10.1584 92.8658C10.5694 93.2768 10.9804 93.5507 11.5283 93.5507C12.0763 93.5507 12.6242 93.2768 12.8982 92.8658C13.3091 92.4548 13.4461 91.9069 13.4461 91.085C13.4461 90.4 13.3091 89.7151 12.8982 89.3041C12.4872 88.8932 12.0763 88.6192 11.5283 88.6192ZM8.78858 86.1535V86.8384C8.51461 86.7014 8.10365 86.5644 7.82968 86.5644C7.5557 86.5644 7.28173 86.4274 7.00776 86.4274C5.91187 86.4274 5.08995 86.7014 4.54201 87.3863C3.99406 87.9343 3.5831 88.8932 3.5831 89.9891C3.5831 90.948 3.85707 91.7699 4.54201 92.4548C5.08995 93.0028 5.91187 93.2767 7.00776 93.2767C7.28173 93.2767 7.5557 93.2767 7.82968 93.1398C8.24064 93.1398 8.51461 93.1398 8.78858 93.0028V93.6877C8.51461 93.8247 8.24064 93.8247 7.96666 93.8247C7.69269 93.8247 7.28173 93.8247 7.00776 93.8247C5.77488 93.8247 4.81598 93.4137 4.13105 92.7288C3.44612 92.0439 3.03516 91.085 3.03516 89.8521C3.03516 88.6192 3.44612 87.6603 4.13105 86.8384C4.95296 86.1535 5.91187 85.7425 7.14474 85.7425C7.41872 85.7425 7.82968 85.7425 8.10365 85.7425C8.37762 86.0165 8.65159 86.0165 8.78858 86.1535Z" fill="white"/>
<path d="M147.957 19.8472H164.944V53.8198C164.944 56.4225 165.355 58.2033 166.176 59.1622C166.998 59.9842 168.642 60.5321 171.245 60.5321H172.067V77.1074H167.546C161.382 77.1074 156.45 75.3266 153.026 71.628C151.382 69.9842 150.286 68.0664 149.327 65.7376C152.067 60.8061 153.437 55.1896 153.437 48.8883C153.437 41.628 151.519 35.1896 147.82 29.7102V19.8472H147.957Z" fill="white"/>
<path d="M21.9343 13.5488V21.631C8.09867 26.9735 3.57812 39.1653 3.57812 38.4803L3.71511 13.6858L21.9343 13.5488Z" fill="white"/>
<path d="M3.57812 75.493V46.8629C3.57812 44.3971 17.8247 15.219 53.7151 20.8355L53.8521 75.493H37.8247L37.9617 38.3697C37.9617 38.3697 23.5781 40.9725 23.4411 55.219L23.3041 75.63L3.57812 75.493Z" fill="white"/>
<path d="M96.4496 32.7217C93.9839 37.5162 92.751 42.8587 92.751 48.7491C92.751 54.2286 93.8469 59.1601 95.9017 63.6806C94.8058 63.9546 93.7099 64.0916 92.477 64.0916H76.5866L76.3127 53.4067H85.3538C85.3538 39.1601 74.1209 38.3382 74.1209 38.3382L74.2579 75.5984H58.2305L58.3675 20.9409C79.0524 18.4751 90.4222 24.6395 96.4496 32.7217Z" fill="white"/>
<path d="M142.046 28.3403C136.977 22.5869 130.813 19.8472 123.553 19.8472C116.018 19.8472 109.58 22.7239 104.375 28.3403C99.1691 33.9568 96.5664 40.8061 96.5664 48.8883C96.5664 56.9705 99.1691 63.8198 104.375 69.4362C109.58 75.0527 115.881 77.9294 123.279 77.9294C130.676 77.9294 136.977 75.0527 142.183 69.4362C147.388 63.8198 149.991 56.9705 149.991 48.8883C149.717 40.9431 147.114 34.0937 142.046 28.3403ZM131.087 57.9294C128.895 60.3951 126.292 61.628 123.142 61.628C120.128 61.628 117.388 60.3951 115.197 57.9294C113.005 55.4636 111.909 52.4499 111.909 48.8883C111.909 45.3266 113.005 42.3129 115.197 39.8472C117.388 37.3814 119.991 36.1485 123.142 36.1485C126.292 36.1485 128.895 37.3814 131.087 39.8472C133.279 42.3129 134.375 45.3266 134.375 48.8883C134.238 52.4499 133.279 55.4636 131.087 57.9294Z" fill="white"/>
<path d="M176.735 18.9057C176.187 18.0838 175.776 17.5359 175.365 17.1249C175.228 16.9879 174.954 16.8509 174.68 16.714C175.502 16.714 176.05 16.44 176.461 15.892C176.872 15.4811 177.146 14.7961 177.146 14.2482C177.146 13.8372 177.009 13.4263 176.735 13.0153C176.461 12.6044 176.05 12.3304 175.639 12.1934C175.228 12.0564 174.406 11.9194 173.447 11.9194H170.434V20.5496H171.803V16.8509H172.625C173.173 16.8509 173.447 16.9879 173.721 17.1249C174.132 17.3989 174.543 18.0838 175.228 19.1797L176.05 20.5496H177.831L176.735 18.9057ZM173.584 15.6181H171.803V13.0153H173.447C174.132 13.0153 174.68 13.0153 174.817 13.1523C175.091 13.2893 175.228 13.4263 175.365 13.5633C175.502 13.7003 175.639 13.9742 175.639 14.2482C175.639 14.6592 175.502 14.9331 175.228 15.2071C174.954 15.4811 174.406 15.6181 173.584 15.6181Z" fill="white"/>
<path d="M181.108 11.904C180.423 10.5342 179.327 9.57526 178.094 8.89032C176.724 8.20539 175.354 7.79443 173.985 7.79443C172.615 7.79443 171.245 8.20539 170.012 8.89032C168.642 9.57526 167.683 10.5342 166.998 11.904C166.313 13.2739 165.902 14.6437 165.902 16.0136C165.902 17.3835 166.313 18.7533 166.998 20.1232C167.683 21.4931 168.779 22.452 170.012 23.1369C171.245 23.8218 172.615 24.2328 174.122 24.2328C175.491 24.2328 176.861 23.8218 178.231 23.1369C179.464 22.452 180.56 21.3561 181.245 20.1232C181.93 18.8903 182.341 17.5205 182.341 16.0136C182.204 14.6437 181.793 13.2739 181.108 11.904ZM180.012 19.4383C179.464 20.5342 178.505 21.3561 177.546 21.904C176.45 22.452 175.354 22.8629 174.122 22.8629C172.889 22.8629 171.793 22.589 170.697 21.904C169.601 21.3561 168.779 20.3972 168.231 19.4383C167.683 18.3424 167.272 17.2465 167.272 16.0136C167.272 14.7807 167.546 13.6848 168.231 12.589C168.779 11.4931 169.738 10.6711 170.834 10.1232C171.93 9.57526 173.026 9.30128 174.259 9.30128C175.354 9.30128 176.45 9.57526 177.546 10.1232C178.642 10.6711 179.464 11.4931 180.149 12.589C180.697 13.6848 181.108 14.7807 181.108 16.0136C180.834 17.2465 180.56 18.3424 180.012 19.4383Z" fill="white"/>
</svg>
