<svg width="271" height="62" viewBox="0 0 271 62" fill="none" xmlns="http://www.w3.org/2000/svg">
<g clip-path="url(#clip0_396_7607)">
<path d="M270.237 32.5042C269.795 33.4895 269.463 34.5492 268.872 35.4347C268.432 36.0922 267.721 36.6397 267.018 37.0352C265.373 37.963 263.528 38.1929 261.672 38.2402C259.425 38.2977 257.197 38.1794 255.002 37.5794C253.308 37.1163 252.827 36.6195 252.823 34.8855C252.823 34.7165 252.827 34.5475 252.822 34.3785C252.759 32.369 253.246 32.5516 254.961 32.7358C256.825 32.9352 258.671 33.3002 260.535 33.4912C261.351 33.574 262.198 33.4321 263.026 33.3408C263.922 33.2428 264.701 32.6175 264.841 31.96C265.051 30.9764 264.628 30.0689 263.658 29.4825C261.404 28.122 259.151 26.7598 256.884 25.423C253.552 23.4575 252.37 20.0234 253.604 16.5081C254.25 14.6694 255.803 13.5759 257.767 13.248C259.1 13.025 260.456 12.7275 261.791 12.7714C263.541 12.8289 265.304 13.0909 267.025 13.4458C268.627 13.777 269.01 14.3854 269.044 16.0805C269.054 16.6247 268.965 17.1858 268.83 17.7165C268.693 18.2573 267.875 18.5226 267.092 18.2607C264.823 17.5018 262.478 17.61 260.146 17.6387C259.364 17.6489 258.706 18.0274 258.458 18.8437C258.235 19.5789 258.529 20.1924 259.125 20.5912C260.398 21.443 261.708 22.2407 263.004 23.057C264.581 24.0507 266.208 24.9752 267.724 26.0551C269.088 27.0285 269.842 28.4499 270.084 30.1247C270.1 30.2464 270.187 30.3579 270.241 30.4728C270.241 31.1488 270.241 31.8248 270.241 32.5009L270.237 32.5042Z" fill="white"/>
<path d="M81.7993 61.7417C81.7942 61.6943 81.7858 61.6453 81.7773 61.598C81.9447 61.5896 82.112 61.571 82.281 61.571C88.8265 61.571 95.3736 61.5744 101.919 61.5676C102.359 61.5676 102.798 61.4797 103.236 61.4341L104.277 61.7417H81.7993Z" fill="white"/>
<path d="M82.297 11.1897C79.4933 11.7001 78.9017 14.1861 79.7349 15.9674C80.0087 16.5522 80.5715 17.0828 81.1292 17.4394C82.5928 18.374 84.1392 19.1785 85.6314 20.0708C87.6899 21.3011 89.723 22.5737 91.7764 23.8125C94.014 25.1629 96.3597 26.3577 98.4807 27.872C100.744 29.4876 102.366 31.6644 102.758 34.5577C102.827 35.0732 103.076 35.5768 103.076 36.0855C103.076 38.5631 102.29 40.8091 101.051 42.9437C99.8987 44.9294 98.4047 46.6228 96.5659 47.9225C94.5632 49.3387 92.3121 50.3409 89.8481 50.7431C89.581 50.7871 89.3157 50.8361 89.0504 50.8834C88.8121 50.8378 88.5738 50.7533 88.3338 50.7533C73.9314 50.7516 59.5306 50.7567 45.1282 50.7617C43.7779 50.7617 42.4275 50.7448 41.0789 50.7702C40.849 50.7752 40.6209 50.9561 40.3927 51.0558C39.2317 51.1149 38.0723 51.1724 36.7304 51.24C36.8876 50.5606 36.9958 49.9505 37.1698 49.3607C37.6684 47.6639 38.1872 45.9739 38.7112 44.2838C39.1793 42.778 39.6728 41.2824 40.1426 39.7765C40.7933 37.6877 41.3966 35.5819 42.0828 33.5048C42.6371 31.8266 41.6586 30.674 40.3268 30.0268C39.9939 29.9507 39.661 29.8121 39.328 29.8104C34.9559 29.7952 30.5821 29.7969 26.21 29.8054C25.9819 29.8054 25.7554 29.9135 25.5272 29.971C25.5019 30.0166 25.4867 30.0639 25.4782 30.1163C24.4389 33.3105 23.3572 36.4911 22.3703 39.7005C21.3968 42.8676 20.5247 46.0651 19.5952 49.2458C19.3181 50.1956 19.0223 51.142 18.6759 52.0664C18.5914 52.2912 18.2888 52.5498 18.0573 52.5836C16.1966 52.8472 14.3207 53.0196 12.4633 53.3002C9.74405 53.7125 7.03155 54.1773 4.32244 54.6488C3.38616 54.8127 2.46509 55.0645 1.41389 55.3045C1.39868 54.9936 1.31925 54.7417 1.38516 54.5339C1.91583 52.8337 2.49551 51.1487 3.01435 49.4452C3.46221 47.9799 3.8205 46.486 4.27173 45.0224C4.93592 42.8727 5.67277 40.7466 6.33188 38.5952C7.06366 36.2072 7.72615 33.7989 8.44949 31.4092C9.06973 29.3592 9.7356 27.3227 10.3711 25.2778C10.8645 23.6891 11.3496 22.0988 11.8262 20.5051C12.2825 18.9807 12.7185 17.4512 13.1765 15.9285C13.7139 14.1388 14.2497 12.3474 14.8124 10.5661C15.5916 8.10708 16.4011 5.65822 17.1869 3.20261C17.503 2.21394 17.7954 1.21852 18.0979 0.224778C18.3176 0.228158 18.5373 0.231538 18.757 0.234918C19.0781 0.285619 19.4009 0.381951 19.722 0.381951C24.2884 0.392091 28.8566 0.381951 33.4231 0.403921C33.7222 0.403921 34.0196 0.628695 34.3188 0.746997C33.7611 2.59082 33.1966 4.43464 32.6473 6.28015C31.897 8.80675 31.1686 11.3401 30.408 13.865C30.1241 14.8097 29.7557 15.7291 29.4701 16.6721C29.3754 16.9848 29.4143 17.3363 29.3906 17.7081C30.7934 17.9768 32.115 17.6929 33.4383 17.3989C36.1947 16.7837 38.2836 15.1038 40.1629 13.1265C42.2467 10.9345 44.2764 8.69352 46.3315 6.47451C47.959 4.72026 49.5899 2.9677 51.2224 1.21852C51.2934 1.14246 51.3999 1.1019 51.4912 1.04444C52.0742 0.774038 52.6573 0.505323 53.2403 0.234918C53.3519 0.233228 53.4634 0.229848 53.5733 0.228158C53.8961 0.280549 54.2172 0.376881 54.54 0.378571C59.2045 0.388711 63.8706 0.381951 68.5351 0.392091C68.8883 0.392091 69.2415 0.501943 69.5948 0.559404C68.2951 1.91481 67.0023 3.27528 65.6959 4.62224C63.8267 6.54718 61.944 8.4586 60.0748 10.3835C58.4473 12.0584 56.835 13.7467 55.2075 15.4181C53.384 17.2907 51.5469 19.1531 49.5662 21.1727C50.7036 21.4786 51.6804 21.7541 52.664 22.0008C53.9214 22.3168 55.1687 22.5991 56.2858 23.3444C57.8237 24.3719 59.3177 27.5221 58.6484 29.4809C57.7747 32.0379 57.0057 34.6321 56.208 37.2161C56.0627 37.6877 55.9985 38.1845 55.8954 38.6696C55.7838 38.9349 55.6706 39.2002 55.5067 39.5923H56.7404C62.1383 39.5923 67.5363 39.5957 72.9343 39.5906C74.3674 39.5906 75.7989 39.5653 77.232 39.5535C77.4044 39.5467 77.5768 39.5399 77.7491 39.5315C77.859 39.496 77.9688 39.4605 78.0787 39.425C78.1362 39.4115 78.1919 39.3997 78.2494 39.3861C78.3187 39.3473 78.3863 39.3084 78.4556 39.2695C79.1062 39.1833 80.3129 37.9733 80.4515 37.3344C81.0396 34.5983 79.7062 33.8766 77.9435 32.8085C75.4761 31.3146 72.9816 29.8544 70.5851 28.2522C68.9813 27.1791 67.4011 26.0079 66.0389 24.6525C64.1934 22.8154 62.5625 20.686 62.2381 18.0174C61.9862 15.9454 62.1045 13.8346 62.9496 11.7964C63.9602 9.3577 65.4576 7.27727 67.3403 5.5095C69.3582 3.61498 71.8002 2.31703 74.4249 1.4416C75.9527 0.932901 77.5413 0.608415 79.1079 0.221398C79.3141 0.170697 79.5507 0.239988 79.7738 0.253509C80.0155 0.297449 80.2572 0.380261 80.4988 0.380261C88.496 0.385331 96.4933 0.383641 104.492 0.375191C104.759 0.375191 105.025 0.277169 105.292 0.224778C105.881 0.099716 106.008 0.449552 106.012 0.92614C105.077 3.99354 104.141 7.05926 103.209 10.1284C103.138 10.3633 103.111 10.6134 103.064 10.8568C96.4662 10.8584 89.8667 10.8568 83.2688 10.8703C82.9511 10.8703 82.635 10.9835 82.319 11.0427C82.3122 11.0883 82.3055 11.1339 82.3004 11.1779L82.297 11.1897Z" fill="white"/>
<path d="M103.235 61.4359C102.796 61.4833 102.356 61.5695 101.918 61.5695C95.3729 61.5762 88.8257 61.5728 82.2803 61.5728C82.1129 61.5728 81.9456 61.5897 81.7766 61.5999C79.8686 61.3126 77.9622 61.0168 76.0525 60.7397C75.1787 60.6129 74.3016 60.5166 73.4245 60.4219C72.2144 60.2918 71.0044 60.1786 69.7943 60.0518C68.1449 59.8794 66.4954 59.7003 64.8459 59.5296C64.2967 59.4721 63.7474 59.4248 63.1964 59.3876C61.4202 59.266 59.644 59.1662 57.8695 59.031C56.7439 58.9448 55.6234 58.7944 54.4979 58.7066C53.0073 58.5899 51.5133 58.5037 50.0193 58.4057C49.5157 58.4057 49.012 58.4057 48.5067 58.4074C48.0538 58.3922 47.6025 58.377 47.1496 58.3618C46.2471 58.2587 45.3463 58.1573 44.4439 58.0542C43.0952 58.0407 41.7483 58.0255 40.3996 58.012C40.1596 57.9663 39.9197 57.8818 39.678 57.8818C34.7161 57.8767 29.7558 57.8818 24.7939 57.8903C24.581 57.8903 24.368 57.9714 24.1551 58.0136C20.9727 58.1286 17.7887 58.2266 14.6064 58.3618C12.7153 58.4429 10.8224 58.5376 8.93973 58.7099C6.40807 58.9398 3.88485 59.2575 1.35657 59.5211C0.93744 59.5651 0.509863 59.5279 0.0265143 59.5279C0.0163741 59.2964 0.00623393 59.0817 -0.00390625 58.8671C0.863079 58.5866 1.71316 58.2367 2.59874 58.0424C3.78345 57.7821 4.99351 57.63 6.19512 57.4509C7.99331 57.1838 9.7915 56.9236 11.5914 56.6785C13.0431 56.4791 14.4982 56.3084 15.9517 56.1191C17.106 55.9704 18.2586 55.8014 19.4145 55.6645C21.3952 55.4296 23.3793 55.2116 25.3618 54.9902C25.5291 54.9716 25.6998 54.9986 25.8671 54.9834C27.1363 54.8736 28.4038 54.7485 29.6747 54.6522C30.0347 54.6251 30.3997 54.6792 30.7631 54.6944C31.8886 54.7198 33.0142 54.7536 34.1415 54.7603C34.2445 54.7603 34.3476 54.5981 34.4507 54.5119C34.5792 54.5119 34.7076 54.5119 34.8361 54.5102C34.8783 54.5085 34.9206 54.5068 34.9628 54.5034C35.2518 54.4849 35.5391 54.4646 35.8281 54.446C36.7813 54.4527 37.7345 54.4595 38.6893 54.4663C42.9803 54.4663 47.2713 54.4646 51.564 54.4629C52.627 54.4561 53.69 54.4477 54.7514 54.4409C56.4262 54.5102 58.1044 54.5288 59.7758 54.6606C61.9576 54.833 64.1327 55.1068 66.3129 55.3147C68.2479 55.4989 70.1881 55.6172 72.1198 55.8284C74.1783 56.0532 76.2299 56.3523 78.2833 56.6227C80.1153 56.8644 81.9473 57.1044 83.7793 57.3545C84.5145 57.4559 85.253 57.5506 85.9797 57.701C89.1891 58.3601 92.4002 59.0192 95.6028 59.7121C98.1513 60.2631 100.69 60.8613 103.233 61.4393L103.235 61.4359Z" fill="white"/>
<path d="M228.705 20.8382C229.159 17.5105 230.4 14.6966 233.864 13.5508C235.051 13.1587 236.345 12.9863 237.601 12.9288C239.678 12.8325 241.767 12.8072 243.809 13.3987C246.366 14.1389 248.125 15.6785 248.833 18.2812C249.105 19.2833 249.256 20.3193 249.46 21.3384C249.496 21.5125 249.533 21.6883 249.568 21.8623C249.558 24.4515 249.55 27.0389 249.54 29.628C249.512 29.6889 249.485 29.7514 249.458 29.8122C249.286 32.2898 248.566 34.5629 246.639 36.2343C245.397 37.3126 243.834 37.8771 242.212 38.0613C240.689 38.2337 239.141 38.232 237.605 38.2421C235.407 38.2556 233.341 37.6861 231.61 36.3256C230.206 35.222 229.425 33.6418 229.026 31.9045C228.869 31.2183 228.825 30.5068 228.728 29.8055C228.725 29.7446 228.722 29.6855 228.717 29.6246C228.725 26.755 228.734 23.8853 228.744 21.0156C228.73 20.9565 228.717 20.8973 228.703 20.8365L228.705 20.8382ZM244.417 28.9672C244.461 28.7272 244.542 28.4889 244.544 28.249C244.556 26.4372 244.556 24.6272 244.544 22.8155C244.542 22.5485 244.456 22.2815 244.41 22.0144C244.348 21.5784 244.319 21.1339 244.216 20.7064C243.831 19.1329 243.28 18.1679 241.698 17.8756C240.366 17.6288 238.968 17.5714 237.613 17.6542C236.165 17.742 234.794 18.2288 234.246 19.7954C233.998 20.5052 233.92 21.2725 233.766 22.0144C233.782 23.7129 233.799 25.4114 233.814 27.1099C233.817 27.6625 233.821 28.2152 233.822 28.7678C233.844 28.8354 233.868 28.903 233.89 28.9689C233.895 29.3847 233.837 29.8122 233.915 30.2128C234.206 31.7084 234.973 33.0131 236.513 33.2379C238.154 33.4779 239.873 33.3782 241.537 33.2126C242.671 33.101 243.582 32.349 243.969 31.2183C244.216 30.5001 244.273 29.7176 244.415 28.9638L244.417 28.9672Z" fill="white"/>
<path d="M136.082 22.1852C136.209 19.5082 136.773 16.9748 138.766 15.0161C139.984 13.8179 141.571 13.3007 143.231 13.0895C146.393 12.6856 149.558 12.6365 152.57 13.8584C154.493 14.6392 155.747 16.1974 156.298 18.1596C156.719 19.6569 156.952 21.2388 157.023 22.7936C157.128 25.0667 157.013 27.3499 156.993 29.6281C156.949 29.7447 156.905 29.863 156.863 29.9796C156.815 31.9924 156.153 33.789 154.953 35.3911C153.978 36.6924 152.568 37.3313 151.074 37.7352C148.69 38.3808 146.263 38.347 143.811 38.1002C142.325 37.9515 140.965 37.5493 139.738 36.7516C137.824 35.5077 136.819 33.6487 136.425 31.4449C136.298 30.7384 136.28 30.0134 136.212 29.2969C136.192 29.1245 136.173 28.9521 136.153 28.7797C136.143 26.701 136.131 24.6205 136.121 22.5418C136.107 22.4218 136.096 22.3035 136.082 22.1835V22.1852ZM141.27 29.4557C141.478 31.4685 142.286 32.8527 144.027 33.2566C145.901 33.6926 147.868 33.8194 149.673 32.9845C150.371 32.6617 151.125 31.9688 151.372 31.2725C151.769 30.1554 151.884 28.8997 151.907 27.6981C151.946 25.6869 151.858 23.6691 151.754 21.6579C151.639 19.4457 150.92 18.0649 148.798 17.8655C147.18 17.7134 145.517 17.6711 143.912 17.8756C142.291 18.0835 141.411 19.6333 141.257 21.6867C141.26 24.2758 141.265 26.8649 141.269 29.4557H141.27Z" fill="white"/>
<path d="M215.318 13.2294C217.655 13.417 219.935 13.7652 221.978 15.0715C223.396 15.9791 224.035 17.3514 224.424 18.864C225.279 22.1832 225.015 25.5801 224.904 28.9433C224.834 31.0254 224.442 33.1616 222.859 34.708C222.015 35.531 220.963 36.2628 219.867 36.6684C218.417 37.2042 216.834 37.3799 215.308 37.7112C215.039 37.6655 214.77 37.581 214.502 37.5794C213.097 37.5658 211.691 37.5641 210.287 37.581C209.82 37.5861 209.355 37.6639 208.889 37.7078C206.771 37.4695 205.656 35.7592 205.663 33.983C205.681 28.3214 205.626 22.6598 205.683 16.9999C205.708 14.4192 207.008 13.341 209.342 13.1787C211.334 13.1956 213.327 13.2125 215.318 13.2294ZM219.736 22.359C219.671 22.1325 219.605 21.906 219.541 21.6812C219.541 20.0537 218.493 18.5868 216.866 18.3384C215.173 18.0798 213.437 18.0967 211.72 17.9683C211.015 17.9159 210.751 18.2775 210.75 18.8995C210.745 23.2918 210.729 27.6842 210.792 32.0749C210.797 32.391 211.385 32.969 211.7 32.9656C213.307 32.9521 214.929 32.8861 216.518 32.6495C218.441 32.3622 219.575 30.9392 219.545 29.1377C219.607 28.9653 219.67 28.7929 219.732 28.6205C219.78 27.62 219.864 26.6178 219.862 25.6173C219.862 24.5306 219.781 23.4456 219.736 22.3606V22.359Z" fill="white"/>
<path d="M131.657 16.2413C131.657 16.4104 131.657 16.5794 131.657 16.7484C131.665 17.9804 130.906 18.6784 129.767 18.2761C127.547 17.4886 125.27 17.6322 122.994 17.6508C122.213 17.6576 121.469 17.9314 121.223 18.7392C120.989 19.5048 121.204 20.24 121.941 20.698C123.661 21.7694 125.382 22.8426 127.121 23.8837C128.735 24.8487 130.354 25.7799 131.593 27.2603C132.385 28.2085 132.683 29.3239 132.804 30.4613C132.968 32.0178 132.867 33.5912 131.993 34.9787C130.903 36.7093 129.211 37.583 127.276 37.8872C125.666 38.1408 124.015 38.2202 122.38 38.2269C120.646 38.2354 118.939 37.9413 117.265 37.4276C115.546 36.902 115.461 35.7291 115.478 34.2469C115.478 34.1979 115.542 34.1523 115.556 34.0999C115.911 32.6431 116.47 32.322 117.934 32.7546C119.779 33.3005 121.667 33.5726 123.584 33.4982C124.535 33.4611 125.488 33.2701 126.423 33.0622C127.138 32.9034 127.523 32.3558 127.594 31.6291C127.668 30.8787 127.41 30.228 126.774 29.8258C125.111 28.7695 123.425 27.7488 121.74 26.728C119.97 25.6548 118.121 24.7033 116.906 22.9068C115.52 20.8602 115.36 16.3326 117.77 14.5277C118.689 13.8398 119.671 13.3953 120.81 13.157C123.746 12.5436 126.653 12.6382 129.516 13.4275C131.539 13.9852 131.75 14.2758 131.653 16.2397L131.657 16.2413Z" fill="white"/>
<path d="M161.539 14.4191C161.639 13.6045 162.075 13.2006 162.92 13.2327C163.621 13.2598 164.324 13.2294 165.026 13.2395C166.062 13.2547 166.33 13.5048 166.498 14.5864C166.493 14.6946 166.486 14.8028 166.481 14.9109C166.477 20.4238 166.472 25.9367 166.477 31.4496C166.477 31.6895 166.567 31.9312 166.614 32.1712C166.677 32.2861 166.741 32.4027 166.803 32.5177C166.959 32.6343 167.113 32.7509 167.268 32.8675C167.562 32.9165 167.855 33.0044 168.15 33.0095C170.86 33.0669 173.57 33.1092 176.28 33.1548C176.961 33.2055 177.491 33.5215 177.528 34.2246C177.572 35.0916 177.55 35.9805 177.39 36.8289C177.334 37.1281 176.787 37.3342 176.464 37.5827C176.401 37.6249 176.339 37.6655 176.274 37.7077C176.219 37.7246 176.163 37.7415 176.107 37.7584C175.936 37.7415 175.766 37.7263 175.595 37.7094C175.494 37.6672 175.392 37.5877 175.293 37.5861C172.793 37.5793 170.292 37.5793 167.792 37.5861C167.692 37.5861 167.591 37.6689 167.491 37.7128C167.038 37.7128 166.585 37.7128 166.133 37.7128C165.796 37.7094 165.46 37.7044 165.124 37.701C163.429 37.6993 162.158 36.7106 161.733 35.1626C161.676 34.9513 161.608 34.7417 161.546 34.5322C161.568 34.473 161.59 34.4139 161.612 34.3547C161.656 34.0843 161.735 33.8139 161.735 33.5435C161.742 27.4949 161.742 21.448 161.735 15.3993C161.735 15.1306 161.647 14.8619 161.6 14.5932C161.58 14.5341 161.561 14.4766 161.541 14.4174L161.539 14.4191Z" fill="white"/>
<path d="M45.1295 50.7632C59.532 50.7581 73.9327 50.753 88.3352 50.7547C88.5734 50.7547 88.8117 50.8392 89.0517 50.8849C88.7205 50.944 88.3909 51.0015 88.0597 51.0606C87.7927 51.0167 87.5256 50.9356 87.2586 50.9356C73.7198 50.9288 60.1793 50.9288 46.6404 50.9254C46.1334 50.9254 45.6281 50.9102 45.1211 50.9034C45.1228 50.8561 45.1262 50.8105 45.1295 50.7632Z" fill="white"/>
<path d="M45.1203 50.9035C45.6273 50.912 46.1326 50.9255 46.6396 50.9255C60.1784 50.9272 73.719 50.9289 87.2578 50.9357C87.5248 50.9357 87.7918 51.0168 88.0588 51.0607C87.3288 51.0725 86.597 51.0945 85.8669 51.0945C72.3095 51.0979 58.7537 51.0979 45.1963 51.0962C44.9428 51.0962 44.691 51.081 44.4375 51.0726C44.6657 51.0151 44.8921 50.9593 45.1203 50.9019V50.9035Z" fill="white"/>
<path d="M106.012 0.938085C106.008 0.461496 105.882 0.11166 105.292 0.236722C104.45 0.233342 103.607 0.226582 102.765 0.224892C95.4372 0.221512 88.1092 0.218132 80.7812 0.214752C81.0162 0.162361 81.2494 0.0626494 81.4843 0.0626494C89.5593 0.0541992 97.6342 0.0541992 105.707 0.0541992C105.875 0.0541992 106.04 0.0795497 106.351 0.1049C106.221 0.422626 106.115 0.67951 106.01 0.938085H106.012Z" fill="white"/>
<path d="M80.7807 0.216309C88.1087 0.219689 95.4366 0.221379 102.765 0.226449C103.606 0.226449 104.45 0.233209 105.291 0.238279C105.024 0.29067 104.759 0.388692 104.492 0.388692C96.4946 0.398832 88.4974 0.398832 80.4985 0.393762C80.2568 0.393762 80.0151 0.31095 79.7734 0.267009C80.1098 0.250109 80.4444 0.233209 80.7807 0.217999V0.216309Z" fill="white"/>
<path d="M77.2331 39.5636C75.8 39.5771 74.3685 39.6008 72.9354 39.6008C67.5374 39.6058 62.1395 39.6024 56.7415 39.6024H55.5078C55.6734 39.2104 55.785 38.945 55.8965 38.6797C55.9337 39.1259 56.052 39.4943 56.6182 39.4284C62.927 39.4284 69.2359 39.425 75.5448 39.4233C75.8828 39.4233 76.2208 39.4233 76.5588 39.4233C76.6721 39.4233 76.7853 39.4233 76.8968 39.4233C77.0084 39.4689 77.1216 39.5146 77.2331 39.5602V39.5636Z" fill="white"/>
<path d="M82.3164 11.0546C82.6324 10.9937 82.9502 10.8822 83.2662 10.8822C89.8641 10.8703 96.4636 10.8703 103.062 10.8687C103.021 10.9295 102.979 10.992 102.938 11.0529C96.0648 11.0529 89.1898 11.0529 82.3164 11.0529V11.0546Z" fill="white"/>
<path d="M82.3194 11.0547C89.1927 11.0547 96.0678 11.0547 102.941 11.0547C102.71 11.1105 102.478 11.2169 102.248 11.2169C95.6824 11.2271 89.1167 11.2254 82.5509 11.2237C82.4681 11.2237 82.3853 11.2017 82.3008 11.1916C82.3059 11.1459 82.3126 11.1003 82.3194 11.0564V11.0547Z" fill="white"/>
<path d="M161.538 14.4194C161.559 14.4786 161.577 14.536 161.597 14.5952C161.587 17.4108 161.569 20.2247 161.57 23.0403C161.574 26.8124 161.596 30.5846 161.608 34.3584C161.586 34.4176 161.564 34.4767 161.542 34.5359C161.494 34.2671 161.405 33.9967 161.405 33.728C161.396 27.5628 161.396 21.3959 161.405 15.2306C161.405 14.9602 161.491 14.6915 161.538 14.4211V14.4194Z" fill="white"/>
<path d="M75.5438 39.4248C69.235 39.4248 62.9261 39.4282 56.6172 39.4299C56.9096 39.3741 57.2019 39.2727 57.4926 39.2727C63.2168 39.2626 68.9392 39.2626 74.6633 39.2727C74.9557 39.2727 75.2498 39.3725 75.5421 39.4265L75.5438 39.4248Z" fill="white"/>
<path d="M166.477 14.9109C166.482 14.8028 166.488 14.6946 166.493 14.5864C166.597 14.8687 166.789 15.1526 166.791 15.4348C166.808 21.1285 166.801 26.8222 166.799 32.5176C166.737 32.4027 166.673 32.2861 166.61 32.1712C166.619 26.5637 166.627 20.9561 166.627 15.3486C166.627 15.2033 166.529 15.0563 166.477 14.9109Z" fill="white"/>
<path d="M53.575 0.236563C53.4635 0.238253 53.3519 0.241633 53.2421 0.243323C52.8906 0.229803 52.539 0.217973 52.1875 0.204452C52.3971 0.155442 52.6066 0.06249 52.8162 0.06249C58.2733 0.0540398 63.7304 0.0540398 69.1875 0.06249C69.3835 0.06249 69.5779 0.172342 69.7723 0.229803C64.3726 0.229803 58.9747 0.233183 53.575 0.234873V0.236563Z" fill="white"/>
<path d="M18.7607 0.240124C18.541 0.236744 18.3213 0.233364 18.1016 0.229984C18.3534 0.170833 18.6069 0.0626711 18.8587 0.0626711C23.8392 0.0525309 28.8197 0.0491508 33.8002 0.0694312C34.0216 0.0694312 34.5134 -0.228014 34.4898 0.395607C34.2532 0.338146 34.0183 0.228294 33.7817 0.228294C28.7741 0.224914 23.7682 0.233364 18.7607 0.238434V0.240124Z" fill="white"/>
<path d="M53.5742 0.236515C58.9739 0.236515 64.3718 0.233135 69.7715 0.231445C69.7123 0.342987 69.6548 0.454529 69.5957 0.567761C69.2425 0.5103 68.8893 0.402138 68.536 0.400448C63.8716 0.388618 59.2054 0.395378 54.5409 0.386928C54.2181 0.386928 53.897 0.288906 53.5742 0.236515Z" fill="white"/>
<path d="M18.7578 0.240202C23.7654 0.233442 28.7712 0.224992 33.7788 0.230062C34.0154 0.230062 34.2503 0.339914 34.4869 0.397375C34.4311 0.515677 34.3754 0.633979 34.3196 0.753971C34.0205 0.633979 33.723 0.410895 33.4239 0.410895C28.8574 0.388925 24.291 0.399065 19.7228 0.388925C19.4 0.388925 19.0789 0.292593 18.7578 0.241892V0.240202Z" fill="white"/>
<path d="M25.5312 29.9728C25.7594 29.9153 25.9859 29.8089 26.214 29.8072C30.5861 29.7987 34.9599 29.797 39.332 29.8122C39.665 29.8122 39.9979 29.9525 40.3308 30.0286C40.2953 30.0607 40.2531 30.0742 40.2058 30.0725C39.8441 30.0387 39.4824 29.9762 39.1208 29.9745C34.5915 29.9694 30.0605 29.9711 25.5312 29.9728Z" fill="white"/>
<path d="M25.5278 29.9728C30.0571 29.9728 34.588 29.9694 39.1173 29.9745C39.479 29.9745 39.8406 30.037 40.2023 30.0725C39.7561 30.0945 39.3117 30.135 38.8672 30.135C34.4055 30.1333 29.9421 30.1249 25.4805 30.1181C25.4889 30.0674 25.5041 30.0184 25.5295 29.9728H25.5278Z" fill="white"/>
<path d="M175.594 37.7114C175.765 37.7283 175.935 37.7435 176.106 37.7604C175.893 37.8128 175.68 37.9075 175.467 37.9092C172.286 37.9176 169.106 37.9159 165.925 37.9058C165.711 37.9058 165.496 37.8145 165.281 37.7672C165.563 37.7503 165.847 37.7351 166.13 37.7182C166.583 37.7182 167.036 37.7182 167.488 37.7182C170.191 37.7165 172.891 37.7148 175.594 37.7131V37.7114Z" fill="white"/>
<path d="M40.4009 54.1433C43.6626 54.1433 46.9261 54.1433 50.1878 54.1433C50.198 54.1855 50.2064 54.2278 50.2115 54.2717C46.9345 54.2717 43.6559 54.2717 40.3789 54.2717C40.384 54.2278 40.3924 54.1839 40.4026 54.1416L40.4009 54.1433Z" fill="white"/>
<path d="M176.277 33.1551C173.568 33.1078 170.857 33.0655 168.148 33.0097C167.854 33.003 167.56 32.9168 167.266 32.8678C170.042 32.861 172.819 32.8458 175.596 32.861C175.824 32.861 176.05 33.0537 176.277 33.1568V33.1551Z" fill="white"/>
<path d="M45.1215 50.9034C44.8934 50.9609 44.6669 51.0167 44.4388 51.0741C43.0901 51.0691 41.7415 51.064 40.3945 51.0589C40.6227 50.9592 40.8508 50.7767 41.0807 50.7733C42.4293 50.748 43.7797 50.7632 45.13 50.7649C45.1266 50.8122 45.1232 50.8578 45.1215 50.9051V50.9034Z" fill="white"/>
<path d="M40.3997 54.1433C40.3895 54.1856 40.3828 54.2295 40.376 54.2735C39.8132 54.336 39.2521 54.4002 38.6893 54.4627C37.7362 54.456 36.783 54.4492 35.8281 54.4425C36.0985 54.3427 36.3656 54.1619 36.6376 54.1551C37.89 54.1247 39.144 54.1433 40.398 54.1433H40.3997Z" fill="white"/>
<path d="M50.2112 54.2735C50.2061 54.2295 50.1976 54.1873 50.1875 54.145C51.7102 54.243 53.2312 54.3411 54.754 54.4391C53.6909 54.4458 52.6279 54.4543 51.5666 54.4611C51.1153 54.3985 50.6641 54.336 50.2112 54.2735Z" fill="white"/>
<path d="M208.891 37.7079C209.357 37.6639 209.822 37.5879 210.288 37.5811C211.693 37.5642 213.099 37.5659 214.503 37.5794C214.772 37.5811 215.041 37.6656 215.309 37.7112C215.142 37.7281 214.976 37.745 214.809 37.7619C213.004 37.7619 211.198 37.7619 209.393 37.7619C209.225 37.7433 209.058 37.7248 208.891 37.7079Z" fill="white"/>
<path d="M215.32 13.2294C213.327 13.2125 211.335 13.1956 209.344 13.1787C211.336 13.1956 213.329 13.2125 215.32 13.2294Z" fill="white"/>
<path d="M34.4533 54.5083C34.3502 54.5945 34.2471 54.7567 34.144 54.7567C33.0184 54.75 31.8929 54.7162 30.7656 54.6908C31.9943 54.63 33.2246 54.5691 34.4533 54.5083Z" fill="white"/>
<path d="M52.1868 0.206055C52.5383 0.217885 52.8898 0.231405 53.2414 0.244925C52.6583 0.51533 52.0752 0.784045 51.4922 1.05445C51.7237 0.772214 51.9553 0.48998 52.1868 0.207745V0.206055Z" fill="white"/>
<path d="M166.126 37.7164C165.844 37.7333 165.56 37.7485 165.278 37.7654C165.224 37.7452 165.171 37.7249 165.117 37.7046C165.454 37.708 165.79 37.713 166.126 37.7164Z" fill="white"/>
<path d="M156.863 29.9809C156.907 29.8643 156.951 29.746 156.993 29.6294C156.949 29.746 156.906 29.8643 156.863 29.9809Z" fill="white"/>
<path d="M34.9657 54.4999C34.9237 54.5016 34.8818 54.5033 34.8398 54.5067C34.8801 54.4765 34.922 54.4748 34.9657 54.4999Z" fill="white"/>
<path d="M176.273 37.7081C176.336 37.6658 176.398 37.6253 176.463 37.583C176.4 37.6253 176.338 37.6658 176.273 37.7081Z" fill="white"/>
<path d="M228.703 20.8379C228.717 20.897 228.73 20.9562 228.744 21.017C228.73 20.9579 228.717 20.8987 228.703 20.8379Z" fill="white"/>
<path d="M228.715 29.6245C228.718 29.6854 228.722 29.7445 228.727 29.8053C228.723 29.7445 228.72 29.6854 228.715 29.6245Z" fill="white"/>
<path d="M24.1602 58.0121C24.3731 57.9698 24.586 57.8887 24.799 57.8887C29.7609 57.8786 34.7211 57.8752 39.6831 57.8803C39.9231 57.8803 40.163 57.9648 40.4047 58.0104C39.558 58.0695 38.7113 58.1287 37.8629 58.1878C37.655 58.1338 37.4472 58.0341 37.2393 58.0341C33.9353 58.0273 30.6313 58.0307 27.3273 58.0425C27.1194 58.0425 26.9098 58.1405 26.702 58.1912C25.8553 58.1321 25.0069 58.0712 24.1602 58.0121Z" fill="white"/>
<path d="M26.7031 58.1909C26.911 58.1385 27.1206 58.0422 27.3284 58.0422C30.6324 58.0303 33.9365 58.027 37.2405 58.0337C37.4483 58.0337 37.6562 58.1351 37.8641 58.1875C34.1443 58.1875 30.4229 58.1892 26.7031 58.1909Z" fill="white"/>
<path d="M44.4492 58.0527C45.3517 58.1558 46.2525 58.2572 47.155 58.3603C46.2085 58.6544 45.3078 58.5462 44.4492 58.0527Z" fill="white"/>
<path d="M48.5117 58.4055C49.0153 58.4055 49.519 58.4055 50.0243 58.4038C49.5207 58.4038 49.017 58.4038 48.5117 58.4055Z" fill="white"/>
<path d="M50.2106 54.2734C50.6619 54.336 51.1131 54.3985 51.566 54.461C47.2751 54.461 42.9841 54.4627 38.6914 54.4644C39.2542 54.4019 39.8153 54.3377 40.3781 54.2751C43.655 54.2751 46.9337 54.2751 50.2106 54.2751V54.2734Z" fill="white"/>
<path d="M244.417 28.9669C244.415 26.6499 244.412 24.3329 244.41 22.0142C244.457 22.2812 244.542 22.5482 244.544 22.8152C244.555 24.6269 244.554 26.437 244.544 28.2487C244.544 28.4887 244.461 28.727 244.417 28.9669Z" fill="white"/>
<path d="M233.766 22.0142C233.815 22.6361 233.904 23.258 233.904 23.88C233.904 24.9565 233.847 26.0331 233.813 27.1096C233.798 25.4111 233.781 23.7126 233.766 22.0142Z" fill="white"/>
<path d="M233.82 28.7676C233.842 28.8352 233.866 28.9028 233.888 28.9687C233.866 28.9011 233.842 28.8335 233.82 28.7676Z" fill="white"/>
<path d="M141.258 21.6882C141.278 21.744 141.3 21.8014 141.32 21.8572C141.322 24.3956 141.325 26.9341 141.327 29.4725L141.27 29.4556C141.266 26.8665 141.261 24.2773 141.258 21.6865V21.6882Z" fill="white"/>
<path d="M219.546 29.1378C219.546 26.6518 219.545 24.1657 219.543 21.6797C219.607 21.9062 219.673 22.1326 219.737 22.3574C219.737 24.4446 219.736 26.5318 219.734 28.6189C219.671 28.7913 219.609 28.9637 219.546 29.1361V29.1378Z" fill="white"/>
<path d="M219.734 28.6204C219.734 26.5333 219.736 24.4461 219.738 22.3589C219.783 23.4439 219.864 24.5306 219.864 25.6156C219.864 26.6161 219.782 27.6183 219.734 28.6188V28.6204Z" fill="white"/>
<path d="M201.773 36.1022C201.19 33.7648 200.556 31.4411 199.924 29.1173C199.147 26.2645 198.368 23.4117 197.555 20.5674C197.136 19.0988 196.718 17.6234 196.164 16.2038C195.502 14.5053 194.379 13.2208 192.434 12.9471C191.968 12.8812 191.484 12.9183 191.023 12.8338C189.213 12.4992 186.781 13.0823 185.606 14.8974C184.532 16.5603 184.094 18.4143 183.567 20.2463C182.613 23.5537 181.726 26.8797 180.857 30.209C180.3 32.352 179.833 34.5186 179.313 36.6717C179.113 37.4931 179.634 37.6942 180.246 37.7364C180.974 37.7871 181.709 37.7635 182.441 37.7415C183.246 37.7195 183.949 37.4102 184.202 36.6142C184.697 35.0543 185.099 33.464 185.557 31.8247C185.794 31.8112 186.098 31.7943 186.402 31.7774C186.467 31.7774 186.529 31.7774 186.592 31.7774H195.454C195.894 33.3119 196.316 34.7822 196.734 36.2543C196.992 37.1652 197.646 37.706 198.561 37.7297C199.179 37.7449 199.799 37.7398 200.42 37.733C201.574 37.7212 202.049 37.2007 201.773 36.1022ZM194.214 27.1163L194.205 27.1298C194.055 27.1771 193.903 27.2633 193.752 27.265C191.62 27.2734 189.485 27.2718 187.351 27.265C187.197 27.265 187.043 27.1822 186.891 27.1382C186.869 27.0859 186.849 27.0335 186.827 26.9811C186.852 26.9016 186.879 26.8222 186.904 26.7445C187.337 24.9936 187.753 23.2393 188.211 21.4952C188.474 20.493 188.833 19.5162 189.096 18.514C189.299 17.7451 189.708 17.2888 190.535 17.3057C191.38 17.3226 191.799 17.8143 192.002 18.5951C192.691 21.262 193.399 23.9255 194.104 26.589C194.111 26.616 194.119 26.6414 194.129 26.6667C194.158 26.7428 194.197 26.8171 194.229 26.8932C194.224 26.9675 194.221 27.0436 194.215 27.118L194.214 27.1163Z" fill="white"/>
<path d="M186.891 27.1366C189.329 27.135 191.766 27.1316 194.205 27.1299C194.055 27.1772 193.903 27.2634 193.752 27.2651C191.619 27.2735 189.485 27.2718 187.35 27.2651C187.197 27.2651 187.043 27.1823 186.891 27.1383V27.1366Z" fill="white"/>
<path d="M186.902 26.7412C186.877 26.8206 186.851 26.9001 186.824 26.9778C186.85 26.8984 186.875 26.819 186.902 26.7412Z" fill="white"/>
<path d="M161.608 34.3565C161.594 30.5843 161.574 26.8122 161.571 23.0383C161.567 20.2228 161.588 17.4089 161.598 14.5933C161.645 14.862 161.733 15.1307 161.733 15.3994C161.741 21.448 161.741 27.4949 161.733 33.5436C161.733 33.814 161.652 34.0844 161.61 34.3548L161.608 34.3565Z" fill="white"/>
<path d="M166.478 14.9111C166.531 15.0565 166.629 15.2035 166.629 15.3488C166.629 20.9564 166.62 26.5639 166.612 32.1714C166.564 31.9314 166.475 31.6897 166.475 31.4498C166.47 25.9369 166.475 20.424 166.478 14.9111Z" fill="white"/>
<path d="M175.594 37.7112C172.891 37.7129 170.191 37.7146 167.488 37.7163C167.588 37.6724 167.689 37.5895 167.789 37.5895C170.289 37.5828 172.79 37.5828 175.289 37.5895C175.391 37.5895 175.492 37.669 175.592 37.7129L175.594 37.7112Z" fill="white"/>
<path d="M141.327 29.4722C141.325 26.9338 141.322 24.3954 141.32 21.8569C141.366 22.0699 141.45 22.2828 141.45 22.4958C141.461 24.637 141.462 26.7766 141.454 28.9179C141.454 29.1021 141.371 29.288 141.327 29.4722Z" fill="white"/>
</g>
<defs>
<clipPath id="clip0_396_7607">
<rect width="270.237" height="61.7418" fill="white"/>
</clipPath>
</defs>
</svg>
