<svg width="291" height="67" viewBox="0 0 291 67" fill="none" xmlns="http://www.w3.org/2000/svg">
<g clip-path="url(#clip0_396_7580)">
<path d="M240.673 30.2949C241.703 28.5154 242.296 26.4424 242.296 24.2383C242.296 24.1758 242.296 24.1071 242.296 24.0447C242.265 21.9093 241.678 19.9112 240.679 18.1816C239.618 16.3459 238.082 14.8099 236.246 13.7484C234.467 12.7182 232.394 12.125 230.189 12.125H212.02C209.815 12.125 207.742 12.7182 205.963 13.7484C204.127 14.8099 202.591 16.3459 201.53 18.1816C200.499 19.9612 199.912 22.0279 199.906 24.232V54.5214H205.963V36.3515H230.189C233.536 36.3515 236.246 39.0614 236.246 42.4082V54.5214H242.303V42.4082C242.303 40.204 241.709 38.1311 240.679 36.3515C240.017 35.2089 239.181 34.1911 238.2 33.3232C239.181 32.4615 240.024 31.4375 240.679 30.2949H240.673ZM205.957 30.2949V24.207C205.975 20.879 208.679 18.1879 212.013 18.1879H230.183C233.474 18.1879 236.146 20.8103 236.24 24.0759V24.2445C236.24 27.5913 233.53 30.3011 230.183 30.3011H205.957V30.2949Z" fill="white"/>
<path d="M192.172 30.2797C193.202 28.5001 193.796 26.4271 193.796 24.223C193.796 24.1606 193.796 24.0919 193.796 24.0295C193.764 21.894 193.177 19.896 192.178 18.1664C191.117 16.3244 189.581 14.7947 187.739 13.7269C185.959 12.6967 183.886 12.1035 181.682 12.1035H163.506C161.302 12.1035 159.229 12.6967 157.45 13.7269C155.608 14.7884 154.078 16.3244 153.01 18.1664C151.98 19.9459 151.393 22.0127 151.387 24.2168V54.5124H181.676C183.88 54.5124 185.953 53.9193 187.733 52.889C189.575 51.8275 191.104 50.2915 192.172 48.4496C193.202 46.67 193.796 44.597 193.796 42.3929C193.796 40.1888 193.202 38.1158 192.172 36.3363C191.51 35.1936 190.674 34.1696 189.687 33.308C190.667 32.4401 191.51 31.4223 192.172 30.2797ZM163.5 18.1664H181.676C184.967 18.1664 187.645 20.7889 187.733 24.0544V24.223C187.733 27.5698 185.023 30.2797 181.676 30.2797H157.443V24.1856C157.462 20.8575 160.166 18.1601 163.5 18.1601V18.1664ZM181.676 48.4558H157.443V36.3425H181.676C185.023 36.3425 187.733 39.0524 187.733 42.3992C187.733 45.7459 185.023 48.4558 181.676 48.4558Z" fill="white"/>
<path d="M109.019 12.1098C106.815 12.1098 104.748 12.6967 102.968 13.7269C101.133 14.7884 99.6029 16.3182 98.5351 18.1601C97.5049 19.9397 96.918 22.0002 96.918 24.2043V54.4625H102.968V36.3113H127.17V30.2609H102.968V24.1731C102.987 20.845 105.691 18.1539 109.019 18.1539H142.536V12.1035H109.019V12.1098Z" fill="white"/>
<path d="M136.492 24.274V54.5135H142.543V24.4426C142.543 24.3801 142.543 24.3115 142.543 24.249L136.492 24.274Z" fill="white"/>
<path d="M60.5437 12.0687C58.3334 12.0687 56.2666 12.6619 54.4808 13.6922C52.6389 14.7599 51.1029 16.2897 50.0414 18.1316C49.0424 19.8612 48.4554 21.8655 48.418 24.0009C48.418 24.0634 48.418 24.1321 48.418 24.1945C48.418 26.4049 49.0111 28.4716 50.0414 30.2574C50.7033 31.4 51.5399 32.424 52.5265 33.2857C53.1259 33.8164 53.7815 34.291 54.4808 34.6968C56.2666 35.7271 58.3334 36.3202 60.5437 36.3202H78.7323C82.0791 36.3202 84.7952 39.0364 84.7952 42.3831C84.7952 45.7299 82.0791 48.446 78.7323 48.446H48.418V54.5089H78.7323C80.9427 54.5089 83.0095 53.9157 84.7952 52.8855C86.6372 51.8177 88.1732 50.288 89.2347 48.446C90.2649 46.6602 90.8581 44.5935 90.8581 42.3831C90.8581 40.1728 90.2649 38.106 89.2347 36.3202C88.5728 35.1776 87.7361 34.1536 86.7496 33.2857C86.1502 32.755 85.4946 32.2804 84.7952 31.8746C83.0095 30.8443 80.9427 30.2511 78.7323 30.2511H60.5437C57.197 30.2511 54.4808 27.535 54.4808 24.1883V24.0197C54.5683 20.7478 57.2469 18.1254 60.5437 18.1254H90.8581V12.0625H60.5437V12.0687Z" fill="white"/>
<path d="M36.3023 36.3023V42.3527C36.3023 45.6932 33.5925 48.4031 30.2519 48.4031C26.9114 48.4031 24.2016 45.6932 24.2016 42.3527V30.2519H18.1512V42.3527C18.1512 45.6932 15.4413 48.4031 12.1008 48.4031C8.76026 48.4031 6.05039 45.6932 6.05039 42.3527V12.1008H0V42.3527C0 44.5568 0.586931 46.6236 1.61718 48.4031C2.67865 50.2388 4.20842 51.7686 6.05039 52.8363C7.82991 53.8666 9.89666 54.4535 12.1008 54.4535C14.3049 54.4535 16.3716 53.8666 18.1512 52.8363C19.2876 52.1807 20.3116 51.3378 21.1732 50.3575C22.0349 51.3378 23.0589 52.1745 24.1953 52.8363C25.9748 53.8666 28.0416 54.4535 30.2457 54.4535C32.4498 54.4535 34.5166 53.8666 36.2961 52.8363C38.1318 51.7748 39.6678 50.2451 40.7293 48.4031C41.7595 46.6236 42.3465 44.5568 42.3465 42.3527V0H36.2961V36.3023H36.3023Z" fill="white"/>
<path d="M289.174 18.1664C288.112 16.3244 286.576 14.7947 284.734 13.7269C282.949 12.6967 280.882 12.1035 278.671 12.1035H260.489C258.279 12.1035 256.212 12.6967 254.426 13.7269C252.584 14.7884 251.054 16.3244 249.987 18.1664C248.956 19.9522 248.363 22.0189 248.363 24.2293V54.5312H254.426V36.3488H284.728V66.6507H290.791V24.2293C290.791 22.0189 290.198 19.9522 289.167 18.1664H289.174ZM284.734 30.2859H254.432V24.223C254.432 20.8763 257.149 18.1601 260.495 18.1601H278.678C282.024 18.1601 284.741 20.87 284.741 24.223V30.2859H284.734Z" fill="white"/>
</g>
<defs>
<clipPath id="clip0_396_7580">
<rect width="290.793" height="66.6667" fill="white"/>
</clipPath>
</defs>
</svg>
