<svg width="256" height="70" viewBox="0 0 256 70" fill="none" xmlns="http://www.w3.org/2000/svg">
<g clip-path="url(#clip0_396_8536)">
<path d="M6.08678 45.7523C5.74837 45.7326 4.9535 45.9097 4.90234 45.5791L5.347 2.95898H21.4333L27.7805 28.3438L34.2694 2.95898H50.3557V45.4572C48.3567 45.6303 46.2003 45.7798 44.1541 45.7523C38.7435 45.6775 38.6254 44.0524 39.5856 38.8109C39.8138 32.9005 39.9791 26.7265 39.802 20.82C39.7784 20.0015 39.7351 18.825 39.1409 18.2465C39.4085 19.671 38.7946 20.6666 37.9604 21.5559C38.4011 21.7093 38.3972 22.2878 37.9604 22.4412L32.3255 45.7287L23.2002 45.6146L22.7555 44.8787L17.3016 22.1461L16.9199 21.9769C16.7743 19.9583 16.4083 19.431 15.8259 20.3911C16.31 26.8131 16.7546 33.6639 16.4044 40.1292C16.3296 41.5103 16.1604 44.3711 15.0862 45.2289C12.2884 45.6657 9.28989 45.8389 6.08678 45.7523Z" fill="white"/>
<path d="M237.467 5.31976C238.62 6.49239 239.702 7.47615 240.714 8.27102C242.268 10.392 243.39 12.5995 243.37 15.3541L230.691 15.9325C230.384 11.5253 226.599 10.0142 222.581 10.6517C219.516 11.1357 218.194 14.7166 221.416 16.2079C228.645 19.5606 242.351 18.262 244.598 29.0322C246.644 38.8304 238.372 45.39 229.365 46.059C218.276 46.8814 206.337 44.9257 205.594 31.586L217.8 30.736C218.89 32.3612 218.8 34.3248 220.338 35.8752C224.954 40.5263 235.102 36.3474 230.931 31.1846C229.098 28.9141 219.78 27.5054 216.435 26.2029C211.642 24.3377 207.408 21.4573 207.062 15.8066C206.184 1.62084 228.499 0.164888 237.467 5.31976Z" fill="white"/>
<path d="M116.465 12.9933C115.064 14.7287 113.069 14.6224 111.892 18.0105C110.012 23.429 110.33 35.3481 117.826 36.2729C124.311 37.0756 126.55 33.9237 128.439 28.3281L139.804 31.7712C138.509 39.3225 132.461 45.0991 124.795 45.9648C110.637 47.5624 98.6748 42.1557 97.5808 26.7108C96.357 9.44392 107.93 0.578333 124.551 2.98656C131.839 4.04115 137.667 8.70414 139.485 15.9406L127.869 18.3253C127.625 18.2741 126.802 16.0311 126.491 15.5707C125.826 14.5831 124.406 13.8748 123.548 12.9894C121.746 11.5059 117.413 12.1315 116.465 12.9894V12.9933Z" fill="white"/>
<path d="M202.347 3.54932H189.066V45.4572H202.347V3.54932Z" fill="white"/>
<path d="M98.7576 57.2622C99.4462 49.7699 111.003 48.8767 113.36 54.9091C113.691 55.759 113.683 56.731 114.104 57.5573C113.258 57.337 109.138 58.2224 108.792 57.8564C108.682 57.7423 108.981 55.6843 107.607 55.0586C103.889 53.3665 103.802 59.3163 104.093 61.5199C104.369 63.5819 106.022 64.8017 107.969 63.7511C108.717 63.3457 108.631 62.1062 108.934 61.6891C109.528 60.8785 113.077 61.8426 114.104 61.8465C113.195 70.0353 99.4541 69.8661 98.7536 61.9882C98.4467 60.5637 98.4467 58.6906 98.7536 57.2662L98.7576 57.2622Z" fill="white"/>
<path d="M238.058 47.8182C240.159 45.288 241.674 44.6859 245.007 45.2801C245.224 45.3195 247.896 46.3819 246.912 46.6377C246.751 47.0469 246.357 47.2437 245.731 47.2279L245.417 47.4404C243.559 46.3858 242.284 46.1183 241.6 46.6377C238.955 51.1826 236.512 56.9986 236.276 62.4289C236.193 64.3728 236.803 63.5228 237.633 64.6207C238.967 66.3875 237.141 66.6512 236.917 67.509C236.74 68.178 237.554 69.3073 236.516 69.7559C235.008 70.4052 234.898 69.5946 233.926 69.0673C233.509 68.7131 233.312 68.3196 233.336 67.8868C232.911 67.631 233.061 67.4342 233.777 67.2965C229.318 67.6113 224.844 67.6113 220.35 67.2965C219.567 67.2021 219.599 66.9306 220.35 66.7063C224.101 66.7535 227.839 66.6551 231.565 66.4111C232.207 66.301 231.668 66.1475 229.944 65.9547L229.795 65.5258C229.649 65.6832 229.503 65.8051 229.358 65.8051C226.745 65.8051 223.42 65.7658 220.854 65.5258L220.059 64.9355L213.165 65.1047C211.697 64.7033 212.221 64.3335 213.393 64.0265C215.432 63.4874 217.805 63.511 220.055 63.7589C220.11 63.4953 220.209 63.5071 220.35 63.7589C222.298 63.4284 224.309 63.33 226.379 63.4559L227.138 63.1687C226.871 62.3935 227.776 62.1692 228.228 62.6965L231.058 62.9129C231.872 63.0664 232.435 62.7594 232.746 61.9882C234.524 57.3763 235.426 52.1624 238.058 47.8221V47.8182Z" fill="white"/>
<path d="M69.8347 51.3595C69.9606 51.206 70.0905 51.0841 70.2204 51.0841C74.0885 50.9817 77.9999 50.9857 81.868 51.0801C82.0569 51.4067 82.1749 51.7963 82.23 52.2488C82.415 56.0618 81.8916 55.1411 78.3934 55.2001V67.5954H73.0811V55.2001H69.5396C69.5239 54.0747 69.5553 52.9335 69.5514 51.8002C69.5514 51.3438 69.8387 51.387 69.8387 51.3634L69.8347 51.3595Z" fill="white"/>
<path d="M186.703 51.3599C186.907 51.899 186.982 54.6417 186.777 54.9605C185.668 55.0549 184.558 55.1021 183.44 55.1021L183.145 55.653C183.307 59.5408 183.315 63.4247 183.157 67.3007C181.725 67.525 179.903 67.5958 178.435 67.3007C178.352 63.4089 178.254 59.4739 178.14 55.4956C178.034 55.6806 177.935 55.5822 177.845 55.2005C176.759 55.35 175.425 55.5271 174.303 55.2005C174.15 54.7362 174.268 52.1076 174.303 51.3638C177.329 50.9979 180.757 50.9428 183.932 50.9861C185.022 50.8484 185.943 50.9743 186.699 51.3638L186.703 51.3599Z" fill="white"/>
<path d="M3.13415 66.116C16.104 64.8922 32.6586 64.601 45.7819 65.2306C46.1636 65.2503 47.0293 64.9906 46.8128 65.6713C46.4115 66.9423 31.8676 66.6472 29.8293 66.6944C20.9716 66.903 12.0037 67.3594 3.13415 66.7062C2.35108 66.6118 2.38256 66.3403 3.13415 66.116Z" fill="white"/>
<path d="M53.0133 55.4875C48.8107 56.4791 44.4586 55.9558 40.1616 56.0699C30.2926 56.3296 19.9474 56.971 10.0587 56.3886C9.72816 56.3689 8.43748 56.2312 8.44535 55.9321C10.8024 55.5622 13.2815 55.3104 15.6661 55.1806C22.7334 54.7989 29.844 55.0035 36.9388 54.909C41.4523 54.85 46.2451 54.1653 50.794 54.606C51.4433 54.669 52.7222 54.8067 53.0094 55.4835L53.0133 55.4875Z" fill="white"/>
<path d="M49.7663 60.8036C48.2277 61.3466 46.3743 61.6457 44.6271 61.6772C31.7045 61.9093 18.6639 61.9015 5.79245 61.3939L3.72656 60.8075C6.72898 60.4219 9.72353 60.6265 12.7377 60.5203C23.1734 60.1543 35.4703 59.2729 45.7919 59.9064C46.5632 59.9536 49.5459 60.2134 49.7623 60.8036H49.7663Z" fill="white"/>
<path d="M37.9618 21.5519C37.8989 19.8244 38.4773 20.151 38.5442 19.8717C38.6937 19.2421 38.4616 18.3882 38.5521 17.7113C39.9175 17.2706 40.2087 18.7777 40.3228 19.9228C40.614 22.8505 40.3228 26.4038 40.3346 29.355C40.3582 33.4671 40.5943 37.8153 39.7365 41.5221C39.6381 41.951 39.646 43.3204 39.7444 43.7611C39.768 43.8674 41.0233 45.4139 41.1295 45.4375C43.6676 45.9451 47.6459 45.0951 50.3571 45.4532C50.3256 45.8624 49.9243 45.7247 49.637 45.7601C48.181 45.9411 42.0936 45.9923 40.7753 45.7405C39.8034 45.5555 38.8354 43.9815 38.556 43.0922C38.3474 36.0406 38.2491 28.9734 38.2609 21.8864L37.9657 21.548L37.9618 21.5519Z" fill="white"/>
<path d="M6.08597 45.7527L6.67228 44.8752C6.86903 46.4531 7.33337 44.8831 7.416 44.8634C8.09282 44.7099 7.71506 45.371 8.04954 45.4615C8.53355 45.5914 12.6771 45.5678 13.3382 45.4812C13.8655 45.4104 13.6845 44.9972 13.9875 44.8791C14.2511 44.7768 14.8256 44.9618 14.9279 44.8595C15.0303 44.7571 14.8453 44.1826 14.9476 43.919C15.0657 43.6121 15.4788 43.797 15.5497 43.2697C16.2422 38.1463 15.6717 28.4111 15.5379 22.8745C15.5064 21.6311 14.865 20.5253 15.53 19.1992C17.6195 19.3448 17.407 20.4269 17.2968 22.1505C17.2929 22.2252 16.9978 22.6109 16.982 23.15C16.7774 29.9851 17.3047 36.8596 16.8522 43.6908C16.2501 43.9977 15.5733 45.4064 15.2309 45.611C14.7469 45.9062 7.29795 45.8314 6.08203 45.7606L6.08597 45.7527Z" fill="white"/>
<path d="M229.791 52.5402C230.121 52.5717 230.908 53.1265 231.562 52.8354C231.762 53.0203 230.617 57.3646 230.452 58.0729C230.011 59.9813 230.566 61.1815 228.016 61.9843L227.721 62.4683C223.204 62.8421 218.686 63.1254 214.169 63.3182C213.402 63.3733 212.355 62.4525 212.079 61.6891C211.485 60.6385 210.934 59.4698 210.309 58.4428C210.494 58.4624 211.465 58.97 211.489 59.033L211.89 59.0645C212.012 59.8003 212.489 60.4103 213.26 60.8038L213.937 60.7841C214.519 61.941 216.058 62.2558 215.621 60.8038C216.904 60.3119 217.451 61.4766 218.135 61.4176C218.737 61.3665 218.32 60.8982 219.162 60.8038L219.583 61.2799C221.783 61.2405 223.983 61.0635 226.178 60.7369C226.887 61.3822 228.146 60.9926 228.602 60.2135C228.221 59.4855 228.307 58.5096 228.874 57.2819C227.579 57.4944 226.702 57.2898 226.241 56.672C226.119 55.9125 225.856 56.2942 225.651 55.4915C225.628 55.2042 225.734 54.9878 225.974 54.8501C230.657 55.8614 231.31 53.5161 226.127 54.0198C226.123 54.4212 225.966 54.7163 225.651 54.9012C224.581 55.1491 225.238 53.6538 225.049 52.7527C225.037 52.7055 224.502 51.9893 224.471 51.95C224.605 51.7965 224.77 51.6391 224.986 51.6273C225.368 51.6037 229.004 51.9028 229.413 51.9854L229.783 52.5402H229.791Z" fill="white"/>
<path d="M49.7668 60.8037C49.8219 60.9493 49.8691 61.4372 49.5937 61.3979C48.4132 61.3743 47.7954 61.1343 46.9808 62.0078C33.6726 61.571 20.085 62.5115 6.81216 61.9842C6.24158 61.9606 5.62772 62.2872 5.79299 61.394C18.5936 60.9139 31.8625 62.0314 44.6159 61.4058C46.2489 61.3271 48.1102 60.906 49.7668 60.8037Z" fill="white"/>
<path d="M252.814 64.0539C252.22 65.2698 250.355 65.4036 249.123 65.5217C247.651 65.6633 245.286 65.8247 243.83 65.8365C242.229 65.8483 240.824 65.439 239.242 65.5256C239.281 65.2856 239.183 64.7032 239.242 64.6442C239.71 64.1483 252.298 63.3535 252.818 64.0539H252.814Z" fill="white"/>
<path d="M253.403 58.7417C254.3 59.6743 251.428 60.1622 250.888 60.2134C249.61 60.3314 240.547 60.3196 240.118 59.9183C239.595 59.4264 240.225 59.4185 240.559 59.3359C244.64 58.3482 249.224 58.8873 253.399 58.7417H253.403Z" fill="white"/>
<path d="M254.137 53.426C254.216 53.4457 254.715 53.8628 254.436 54.0162C254.2 54.3861 253.913 54.4609 253.527 54.5829C252.213 55 247.766 55.2007 246.184 55.2086C244.602 55.2164 242.926 54.8898 241.301 54.7521C242.753 53.4024 244.76 53.8667 246.475 53.729C246.853 53.6975 247.251 53.4221 247.349 53.4221C248.943 53.4221 252.905 53.1151 254.137 53.4221V53.426Z" fill="white"/>
<path d="M210.906 50.1791C211.831 49.8565 213.311 49.6282 214.286 49.5771C217.336 49.4197 221.283 49.4197 224.329 49.5928C226.402 49.7109 230.967 50.1713 232.828 50.8324C233.359 51.0212 233.525 51.7571 233.332 51.9499C233.277 52.005 232.439 51.9342 232.151 51.9499C229.582 51.7728 227.024 51.7728 224.478 51.9499C224.411 51.8751 223.546 52.1545 223.888 50.7694C224.014 50.6356 226.941 50.852 227.583 50.7694C228.012 50.7143 228.5 50.5451 228.02 50.1791C222.428 50.4664 216.451 49.7896 210.902 50.1791H210.906Z" fill="white"/>
<path d="M156.602 50.7695V67.8869C156.602 67.9498 155.653 67.8081 155.331 67.8908C155.118 67.9459 155.181 68.8234 153.847 68.4692C153.568 68.3945 153.772 67.6547 152.915 67.879C152.757 67.9183 153.013 68.4968 152.025 68.5086C151.758 68.5086 150.699 67.9577 150.699 67.8869V50.7695H156.602Z" fill="white"/>
<path d="M172.735 59.5682C172.204 58.6868 171.224 58.4152 170.768 57.8525C169.296 57.4079 165.275 57.1049 164.279 56.2274C163.5 55.5387 164.85 54.6298 165.597 54.5825C167.38 54.4645 168.411 56.0778 168.844 56.1133C170.237 56.2234 171.712 55.2082 173.129 55.2003C172.952 53.2171 169.792 51.3283 167.931 51.1C164.377 50.6672 162.339 51.3676 159.553 53.1345C158.223 54.0789 158.05 57.4276 158.963 58.4467C159.84 58.8638 160.34 59.3242 160.734 60.2175C160.734 60.6267 161.045 60.9651 161.662 61.2248C162.194 61.2721 170.465 63.4048 166.502 63.4167C164.775 63.4206 164.244 63.2789 162.996 61.8781C162.154 61.5278 161.788 61.6105 161.159 62.1811C158.4 62.0119 157.275 62.5352 157.782 63.7551C158.53 64.3768 159.002 65.7541 160.163 66.5411C165.365 70.0708 177.17 66.8991 172.735 59.5682Z" fill="white"/>
<path d="M220.348 66.7065V67.2967C218.644 67.2849 216.952 67.3636 215.272 67.525L215.036 69.0675C213.608 69.9489 211.443 68.7251 212.085 66.7065C212.167 66.4507 212.266 66.4507 212.38 66.7065H220.348Z" fill="white"/>
<path d="M83.9989 38.9647H68.6523C69.0891 38.465 69.3331 38.4335 69.9745 38.3666C73.0084 38.0518 79.3123 38.099 82.3895 38.3587C83.0348 38.4138 83.5975 38.3666 83.9989 38.9647Z" fill="white"/>
<path d="M220.347 67.296C224.818 67.2684 229.3 67.3196 233.774 67.296L233.333 67.8862C232.947 68.3899 230.972 68.2797 230.382 67.8862C228.721 67.839 227.068 67.6226 225.526 67.5793C224.243 67.5439 215.673 67.2094 215.33 67.5911C215.177 67.7603 215.629 68.7008 215.035 69.0667V67.296C216.802 67.2921 218.581 67.3078 220.347 67.296Z" fill="white"/>
<path d="M69.8358 51.3598C69.824 51.1512 69.1196 51.1669 69.2455 50.7734H82.2311C82.2508 51.2574 82.2075 51.7572 82.2311 52.2451C81.873 51.8831 82.1642 51.4227 81.511 51.3361C78.0167 50.8679 73.4521 51.7336 69.8358 51.3598Z" fill="white"/>
<path d="M174.31 51.3595C174.318 51.1628 174.294 50.966 174.31 50.7693L186.532 50.7614C186.855 50.726 186.682 51.1431 186.709 51.3556C182.959 50.8558 178.182 51.7255 174.314 51.3556L174.31 51.3595Z" fill="white"/>
<path d="M38.5523 43.0958C38.5011 42.9344 38.2926 42.8203 38.2414 42.3875C37.5803 36.7801 38.4618 29.3272 38.2768 23.4364C38.2611 22.9052 37.962 22.496 37.962 22.4369C37.9463 22.1418 37.9738 21.8467 37.962 21.5516L38.5523 21.1108V43.0958Z" fill="white"/>
<path d="M220.053 63.7547C218.384 63.7626 216.704 63.7468 215.036 63.7547L215.622 64.3371C215.095 64.4394 212.773 64.1364 212.671 64.4906C212.474 65.1752 213.304 64.9155 213.702 64.9313C215.811 65.0178 217.944 64.8683 220.049 64.9313L219.553 65.5333C218.762 65.8285 215.606 65.8481 215.032 65.2264C214.044 65.2146 212.958 65.4113 212.081 64.9313C212.014 63.798 212.262 64.0065 213.261 63.7508C215.197 63.251 218.089 63.2707 220.049 63.7508L220.053 63.7547Z" fill="white"/>
<path d="M186.999 54.9012C186.338 55.5584 184.437 55.039 183.457 55.1964C183.182 56.9868 183.949 66.8007 183.162 67.5917C182.907 67.509 182.907 67.4106 183.162 67.2965L182.867 54.9052H186.704C186.602 53.7758 186.842 52.4576 186.704 51.3597C186.81 51.3755 186.936 51.3282 186.999 51.3597C187.286 52.5009 187.239 53.7522 186.999 54.9012Z" fill="white"/>
<path d="M238.055 47.8186C239.609 45.2491 241.01 44.5211 244.107 44.8674C245.236 44.9933 249.301 46.5043 247.719 48.039C246.468 49.2549 243.359 46.0361 241.596 46.6381C241.647 46.5516 241.498 46.1659 241.616 46.0794C242.608 45.3317 243.461 46.6106 243.568 46.6342C244.402 46.8191 244.847 46.4729 245.728 47.2284C246.129 47.2363 246.523 47.0395 246.908 46.6381C246.846 45.497 246.362 46.284 245.338 46.04C245.114 45.9849 245.157 45.5167 244.933 45.4616C244.441 45.3435 242.005 45.3553 241.427 45.4301C240.927 45.497 241.085 45.8787 240.758 46.0164C240.156 46.2761 239.16 46.2132 239.219 47.3464L238.051 47.8147L238.055 47.8186Z" fill="white"/>
<path d="M178.146 55.4914C178.413 59.45 178.413 63.3851 178.146 67.2965C179.846 67.4066 181.518 67.505 183.163 67.5916C182.458 68.2999 179.011 67.6782 177.851 67.8867V55.4914C177.595 55.4088 177.599 55.3104 177.851 55.1963C178 55.2238 178.063 55.3891 178.146 55.4914Z" fill="white"/>
<path d="M116.463 12.9931C116.506 12.938 116.357 12.5366 116.491 12.4422C117.211 11.9346 121.189 11.6985 122.251 11.789C123.389 11.8874 123.184 12.6153 123.546 12.9892C121.004 12.3871 119.013 12.2454 116.463 12.9892V12.9931Z" fill="white"/>
<path d="M58.6215 51.95C58.6845 51.5959 58.5743 51.1434 58.6215 50.7695H65.1182C65.1615 51.0489 65.0592 51.4031 65.1182 51.6549C63.5245 51.2378 61.2934 51.226 59.6289 51.3401C59.0347 51.3795 58.9048 51.3913 58.6254 51.95H58.6215Z" fill="white"/>
<path d="M86.9516 51.3599C87.0106 51.2615 86.7745 50.8208 87.1365 50.7539L92.858 50.7657C92.9053 51.1395 92.7872 51.5999 92.858 51.9462C92.5747 51.3756 92.4449 51.3835 91.8546 51.3363C90.2924 51.2064 88.5413 51.4701 86.9555 51.356L86.9516 51.3599Z" fill="white"/>
<path d="M156.603 28.3399C156.611 28.1432 156.587 27.9464 156.603 27.7497C157.433 27.8638 158.59 27.5726 159.35 27.7576C159.547 27.8048 159.554 28.1983 159.657 28.2376C159.999 28.3754 160.404 28.2927 160.644 28.4383C161.085 28.7059 161.207 29.3591 161.333 29.5204C159.842 28.8633 158.291 28.2022 156.611 28.3399H156.603Z" fill="white"/>
<path d="M240.711 8.27109C240.585 8.86134 240.027 8.19239 239.853 8.04286C239.066 7.35029 237.933 6.27997 237.465 5.31982C239.421 6.4413 239.452 6.55148 240.711 8.27109Z" fill="white"/>
<path d="M196.443 64.9356H191.426C192.012 64.003 195.707 64.1092 196.443 64.9356Z" fill="white"/>
<path d="M124.728 64.9356H119.711C120.49 64.2509 124.13 64.0817 124.728 64.9356Z" fill="white"/>
<path d="M91.6734 64.9353H86.6562C87.4354 64.2545 91.2091 64.1562 91.6734 64.9353Z" fill="white"/>
<path d="M191.428 51.3598C191.479 51.1631 191.263 50.7381 191.601 50.7617L197.327 50.7735L191.719 51.3598H191.424H191.428Z" fill="white"/>
<path d="M98.755 61.9842H98.4599C98.2041 60.4338 98.208 58.8165 98.4599 57.2622H98.755C98.637 58.545 98.6409 60.6975 98.755 61.9842Z" fill="white"/>
<path d="M3.13469 66.1162V66.7064C2.69397 66.675 0.553317 67.0331 0.773678 66.2657C0.864183 65.9509 2.63888 66.1634 3.13469 66.1162Z" fill="white"/>
<path d="M187 54.9014V51.3599C187.48 51.5842 187.488 54.4174 187 54.9014Z" fill="white"/>
<path d="M173.13 26.5693L173.72 27.7498C173.145 27.5137 172.575 27.2344 171.949 27.1557C172.075 26.471 172.724 26.6913 173.13 26.5693Z" fill="white"/>
<path d="M177.85 55.1965V55.4917C177.161 55.35 174.513 55.8222 174.309 55.1965C175.379 55.3343 176.855 54.9998 177.85 55.1965Z" fill="white"/>
<path d="M178.868 32.4914C177.581 30.516 175.865 28.6311 173.721 27.7497C173.225 27.4073 173.028 27.0138 173.13 26.5692C187.391 22.3193 184.136 3.54932 170.62 3.54932H143.023V45.4572H156.599C156.804 39.7987 156.324 33.9788 156.599 28.3399C158.008 27.5568 160.235 28.4304 161.321 29.5204C164.977 34.1952 167.507 40.2984 170.47 45.4572H185.817C183.31 41.4238 181.429 36.4264 178.864 32.4914H178.868ZM168.235 18.282C166.63 21.131 159.46 20.5604 156.599 20.3754C156.709 17.9318 156.454 15.4331 156.599 12.9973C156.631 12.8753 156.926 12.2024 157.012 12.167C157.697 11.8916 161.463 12.0017 162.419 12.0411C163.541 12.0844 164.658 12.1749 165.752 12.407C168.589 12.7022 169.506 16.0351 168.235 18.286V18.282Z" fill="white"/>
<path d="M165.752 12.4028C163.914 12.21 159.42 12.1667 157.618 12.3792C157.02 12.45 157.276 13.1465 156.603 12.9931C156.627 12.5996 156.583 12.2021 156.603 11.8126C159.645 11.9345 162.816 11.4309 165.752 12.4028Z" fill="white"/>
<path d="M83.5693 3.52979L68.99 3.58881L52.7188 45.4574H66.5897C67.1524 43.9031 67.6639 40.0979 68.6556 38.9646C73.5704 38.3075 79.0912 38.335 84.0021 38.9646C84.8639 40.2356 85.2771 43.8873 86.068 45.4574H99.9389L83.5693 3.52979ZM80.6062 29.5206H71.6029C72.8503 24.9559 74.4204 20.4897 75.7347 15.9448C76.1006 15.0082 76.502 15.5788 76.9152 16.2399C78.257 20.4582 79.4651 24.7277 80.9289 28.9106C81.1689 29.1035 80.6456 29.5206 80.6023 29.5206H80.6062Z" fill="white"/>
<path d="M75.7383 15.9444C76.4033 13.6463 76.4505 14.7717 76.9188 16.2395L75.7383 15.9444Z" fill="white"/>
<path d="M147.109 54.5075C144.268 50.3207 138.976 51.4697 134.604 51.3753C134.187 51.3674 132.699 50.8322 132.699 51.509V67.5954H142.293C142.407 67.5954 144.138 66.9028 144.414 66.7651C148.923 64.5103 149.844 58.5291 147.117 54.5115L147.109 54.5075ZM138.303 63.7548V54.901C144.453 53.9369 144.567 65.073 138.303 63.7548Z" fill="white"/>
<path d="M158.961 58.4429C160.067 58.1989 160.976 59.1197 160.732 60.2136C160.2 59.9067 159.197 58.9859 158.961 58.4429Z" fill="white"/>
<path d="M92.8537 51.9498L92.7081 51.2927C92.2556 50.8047 87.7696 50.9543 86.9511 51.3596C86.5813 51.9695 86.3491 52.2332 86.0579 52.9769C84.2439 57.6359 82.8469 62.8065 81.3438 67.5915H85.7706C85.9123 67.5915 86.0461 65.4705 86.656 64.9354C88.2891 64.6048 90.0559 64.4986 91.6732 64.9354C91.9014 65.3171 92.2319 67.5915 92.7041 67.5915H97.8669C96.9382 62.3698 93.8492 57.085 92.8497 51.9498H92.8537ZM87.8365 60.8036C87.6988 60.6738 88.5684 57.5887 88.718 57.1086C88.8163 56.7899 88.8124 56.176 89.3082 56.6758C89.442 56.8096 90.2054 60.1583 90.1621 60.3432C89.989 61.0633 88.411 60.7682 87.8365 60.8075V60.8036Z" fill="white"/>
<path d="M125.57 51.4025L120.179 51.1152L114.398 67.5912H118.825C118.967 67.5912 119.002 65.5607 119.711 64.935C121.344 64.5887 123.111 64.4786 124.728 64.935C125.106 65.4741 125.18 67.5912 125.318 67.5912H130.926L125.574 51.3986L125.57 51.4025ZM120.891 60.8032C120.753 60.6734 121.623 57.5883 121.769 57.1083C121.863 56.7974 121.875 56.1521 122.363 56.6754C122.603 56.9351 123.008 60.2012 123.547 60.8032H120.891Z" fill="white"/>
<path d="M197.485 51.6471C196.824 50.9663 192.885 51.5605 191.721 51.3598C191.607 51.104 191.508 51.104 191.426 51.3598C190.033 56.8728 187.75 62.1536 186.113 67.5917H190.395C190.875 67.5917 191.193 65.3094 191.426 64.9356C193.027 64.4398 194.829 64.5185 196.443 64.9356C196.903 65.4511 197.186 67.5917 197.328 67.5917H202.935L197.485 51.6471ZM195.262 60.8038H192.61L193.794 56.9711C194.302 56.5934 195.392 60.3316 195.266 60.8038H195.262Z" fill="white"/>
<path d="M65.1115 51.6547C65.0879 51.4815 65.0446 51.3241 64.9501 51.21C64.7455 50.966 59.2877 50.8755 58.7643 51.2966L58.6187 51.9498C57.694 57.0929 54.8214 62.4563 53.6016 67.5915H58.0285C58.1819 67.5915 58.5912 65.0534 58.9847 64.711C59.5198 64.2467 63.2817 64.1169 63.7893 64.6323C64.293 65.1478 64.5055 67.5915 64.962 67.5915H70.4238C68.956 62.3264 66.2841 56.9669 65.1115 51.6547ZM60.0943 60.8036L61.2788 56.3806C61.6801 56.5459 61.9399 57.6556 62.0776 58.0884C62.353 58.9699 62.5183 59.9103 62.7505 60.8036H60.0983H60.0943Z" fill="white"/>
<path d="M231.562 66.4111C229.233 67.1588 223.161 66.7063 220.347 66.7063H212.379L231.562 66.4111Z" fill="white"/>
<path d="M227.136 63.1648C226.899 63.8338 226.372 63.7354 225.825 63.7708C224.094 63.8928 222.118 63.7393 220.348 63.7551C220.556 63.0782 221.111 63.1845 221.658 63.1491C223.405 63.031 225.349 63.1963 227.136 63.1648Z" fill="white"/>
<path d="M246.909 46.6374C246.928 47.0309 246.901 47.4284 246.909 47.8179C245.524 48.1603 245.807 47.2907 245.728 47.2277C245.543 46.3423 246.165 46.6729 246.909 46.6374Z" fill="white"/>
<path d="M235.991 69.0672C235.377 69.681 234.197 68.5123 234.814 67.8906C235.287 67.4144 236.471 68.591 235.991 69.0672Z" fill="white"/>
<path d="M178.44 67.2963H178.145V55.4912C179.014 56.5812 178.101 65.3484 178.44 67.2963Z" fill="white"/>
<path d="M183.162 67.2969V67.592C182.284 67.4307 178.353 67.9383 178.145 67.2969H183.162Z" fill="white"/>
<path d="M212.674 51.95C213.634 51.9736 212.91 52.7134 213.854 52.5402C213.925 52.1782 213.76 50.8639 213.854 50.7695C214.031 50.5924 218.289 50.4744 218.565 51.5722C218.868 52.7685 218.454 52.3946 217.986 52.5402C217.312 52.2307 217.312 52.2307 217.986 52.5402C218.049 52.7803 217.884 53.1266 218.124 53.4295C218.273 53.6184 219.658 54.067 219.741 54.5235C219.859 55.1649 219.627 55.8771 219.757 56.4713C219.816 56.731 220.221 56.4359 220.343 57.2623C219.749 57.7463 218.395 58.0571 217.982 57.2623C217.892 57.8289 217.659 57.7935 217.392 57.2623C217.6 56.4634 218.824 57.0025 218.572 56.0818C218.443 55.8811 218.36 55.6371 218.49 55.4521C219.226 54.3818 216.711 54.1378 216.495 55.0626C216.44 55.2987 216.172 55.4207 215.916 55.4915C215.326 55.0272 214.468 54.1103 214.441 55.4915C213.512 55.8811 212.725 55.8811 212.08 55.4915C212.418 54.3503 210.683 55.1767 210.305 54.9012C210.266 54.8737 210.313 54.4408 210.305 54.311C210.498 53.6499 211.198 53.3076 212.406 53.2879C212.17 52.6583 212.257 52.2136 212.666 51.95H212.674Z" fill="white"/>
<path d="M222.118 57.5571C222.13 57.262 222.102 56.9669 222.118 56.6718C224.282 56.2625 225.435 57.0731 225.069 59.3279C225.03 59.4696 224.978 59.5994 224.892 59.7057C224.593 60.0637 221.732 58.9226 222.118 57.5571Z" fill="white"/>
<path d="M225.069 59.3279C225.207 59.3436 225.471 59.7293 226.085 59.6427C226.698 59.5561 226.793 59.0485 226.84 59.0328C226.887 59.017 227.694 59.2964 227.725 59.3318C228.182 59.8906 226.824 60.111 226.25 60.2133C224.723 60.4887 222.811 60.6186 221.233 60.8035C220.705 60.0008 220.949 60.2487 221.67 60.2133C222.504 60.1739 223.35 60.2447 224.18 60.2133C224.393 59.2216 223.527 59.7765 222.921 59.6112C222.154 59.4027 222.091 58.2064 222.114 57.5571C223.192 59.4853 223.184 59.1115 225.065 59.3279H225.069Z" fill="white"/>
<path d="M222.709 52.5403C220.855 52.4971 219.588 53.1896 219.757 50.7735C221.327 50.6948 222.933 50.4941 222.709 52.5403Z" fill="white"/>
<path d="M212.087 58.4429C212.429 58.5098 212.681 58.6396 212.677 59.0331C212.732 59.1079 213.047 60.4222 213.267 60.8039L212.677 61.9883C213.11 60.7212 211.843 60.6465 211.512 59.9775C211.382 59.7139 211.567 59.2141 211.496 59.0371C211.311 58.1989 211.902 58.553 212.087 58.4468V58.4429Z" fill="white"/>
<path d="M217.986 57.2627C217.679 57.7467 218.407 58.939 218.793 59.0177C220.473 59.3718 220.323 59.0885 220.347 57.8529C221.83 59.7771 219.41 59.1711 218.171 59.6473C217.844 59.6001 217.274 57.7309 217.396 57.2627C217.592 57.2548 217.789 57.2745 217.986 57.2627Z" fill="white"/>
<path d="M214.741 57.8526C214.142 58.6868 212.423 57.9707 212.675 59.0331C212.643 58.9898 211.856 59.163 212.084 58.4429C213.19 57.8015 213.355 57.7621 214.741 57.8526Z" fill="white"/>
<path d="M156.304 51.3593V67.5913H150.992V51.5049C150.992 51.3239 151.378 51.1272 151.657 51.1193C152.956 51.0839 154.856 51.6387 156.304 51.3593Z" fill="white"/>
<path d="M214.15 67.3004C214.634 67.7844 213.399 69.1695 212.974 68.0323C212.596 67.0132 214.024 67.1706 214.15 67.3004Z" fill="white"/>
<path d="M219.042 61.0513L219.168 60.8034C219.829 60.7247 220.573 60.8821 221.234 60.8034L221.513 60.4925C221.679 60.5043 221.852 60.5082 222.021 60.5082C222.521 60.3744 223.079 60.3272 223.705 60.3626C223.792 60.3469 223.874 60.3272 223.953 60.3075C224.106 60.0164 224.378 59.8747 224.693 59.8314C224.602 59.6504 224.118 59.4615 223.024 59.2884C222.532 58.887 222.229 58.3086 222.119 57.5491C223.315 56.6677 224.787 57.25 224.531 58.8752L225.07 59.3199C224.996 59.5599 225.055 59.7252 225.192 59.8353C225.405 59.8629 225.621 59.9219 225.818 60.0006C226.109 59.9967 226.428 59.9219 226.664 59.796C226.861 59.5324 226.92 59.2766 226.841 59.0247C225.979 58.4738 226.373 57.4311 226.251 56.6637C227.121 56.0656 226.436 55.6131 225.661 55.4832C225.617 55.318 225.692 55.0819 225.661 54.893C225.267 54.5742 225.122 54.1099 225.224 53.5039C225.275 53.4842 225.322 53.4646 225.366 53.4449C225.366 53.437 225.366 53.4291 225.366 53.4173C225.377 53.4173 225.393 53.4173 225.409 53.4173C225.928 53.1498 225.771 52.7484 224.933 52.2093C224.697 52.1385 224.535 52.0519 224.48 51.9417C224.059 51.3711 224.13 51.0248 224.685 50.895L228.301 50.9894C228.608 50.8753 228.876 50.5448 228.71 50.2929C228.226 49.5413 213.202 49.683 210.904 50.171C206.548 50.4779 205.872 51.438 208.012 55.2786C208.642 56.4079 209.728 57.4704 210.314 58.4345C210.861 59.1349 211.255 59.3317 211.495 59.0247C211.857 59.009 212.053 58.8122 212.085 58.4345C212.231 58.5998 212.431 58.5958 212.687 58.4345C212.734 58.3833 212.797 58.3361 212.872 58.2928C212.903 58.2692 212.931 58.2417 212.962 58.2141L213.081 58.1905C213.443 58.041 213.993 57.9269 214.737 57.8482C217.071 58.0016 214.989 60.0321 215.623 60.7994L216.87 61.1182C217.708 62.1964 218.432 62.1688 219.038 61.0473L219.042 61.0513ZM223.268 53.4606C223.347 53.5315 223.756 55.1527 223.89 55.4911C222.088 55.6131 220.644 55.6918 220.939 53.4252C221.435 53.5197 223.048 53.2639 223.268 53.4567V53.4606ZM222.119 51.3633C222.084 51.6033 222.178 52.1817 222.119 52.2447C221.612 52.7681 218.314 51.0721 222.119 51.3633ZM210.314 54.3106C210.212 52.4769 210.574 51.8984 212.675 51.9496L213.265 53.7164L210.314 54.3106ZM211.239 55.9594C211.337 55.4872 211.817 55.5973 212.085 55.4911C212.833 55.196 213.919 54.7434 214.446 55.4911C215.693 57.254 210.735 58.3794 211.239 55.9594ZM214.442 51.3633C216.539 51.5482 217.326 50.0332 217.987 52.5438C216.315 53.0671 214.292 53.74 214.442 51.3633ZM216.433 56.0735C216.15 56.0105 216.087 55.6249 215.918 55.495C216.083 55.1409 215.461 54.4208 215.776 54.3145C217.547 53.7243 219.31 53.5629 219.463 55.7783C219.097 55.6446 218.719 56.0617 218.578 56.0813C218.106 56.1522 216.874 56.1679 216.437 56.0695L216.433 56.0735ZM217.987 57.2619C218.83 57.2107 219.656 56.7975 220.348 57.2619C220.376 57.4389 220.348 57.6632 220.348 57.8521C221.257 60.4177 216.567 59.3671 217.987 57.2619Z" fill="white"/>
</g>
<defs>
<clipPath id="clip0_396_8536">
<rect width="255.933" height="70" fill="white"/>
</clipPath>
</defs>
</svg>
