<svg width="253" height="65" viewBox="0 0 253 65" fill="none" xmlns="http://www.w3.org/2000/svg">
<path d="M30.1171 29.7408L32.1791 37.7053L40.4898 2.92368L62.1128 2.87646L62.2898 3.47065C62.3213 22.3941 62.2229 41.2822 61.9947 60.1349C58.099 60.3828 53.5934 60.3828 49.5994 60.1349C48.4032 60.1664 47.1636 58.7655 48.4701 57.8014L48.4189 35.0964C47.6634 34.7894 47.5807 30.4255 47.8562 30.0202C48.3245 29.3198 48.7731 29.1939 49.0092 30.032C49.4735 25.0188 49.442 19.9269 48.9108 14.7641C47.3289 19.923 45.9438 25.369 45.1725 30.6223C45.1056 30.9646 45.2079 31.4211 45.1017 31.8657C42.8823 41.357 40.2577 50.8246 38.1092 60.3041C37.6448 60.6386 27.8781 60.5953 26.7134 60.4458C26.3907 60.4064 26.0523 60.4733 25.8358 60.1428C24.1399 53.6618 22.7547 47.106 21.1847 40.5936C20.4331 37.4692 19.6421 34.2818 18.9102 31.2125C18.1075 30.0241 17.8242 28.5603 18.0248 27.0807C17.1395 26.9273 16.9584 26.0616 17.7297 25.6051C17.352 22.4217 16.5374 19.2934 15.2821 16.2201C15.1798 18.8644 15.0146 21.5048 14.7785 24.1295C15.2152 36.0841 15.2074 48.1488 14.9555 59.9972C14.9555 60.127 14.0387 60.3238 14.0387 59.8398C13.6648 60.249 12.9054 60.3749 11.7564 60.2175C8.73426 60.2529 5.33048 60.2175 2.52874 59.8398C1.88734 60.5126 1.69452 59.1354 2.38315 59.1L2.08802 59.0488V3.67921L2.38315 3.47459C2.41069 3.30932 2.44217 3.17946 2.47365 3.17946C8.75394 3.08109 15.1956 3.06928 21.4955 3.17946C22.3337 3.04174 22.9475 3.14011 23.3371 3.47459C24.0179 5.58769 24.7458 7.96444 24.8914 10.2468C24.7104 10.5419 24.856 10.8095 25.3322 11.0534C26.6583 17.3927 28.2519 23.6219 30.125 29.7408H30.1171Z" fill="white"/>
<path d="M247.921 2.88428L249.177 3.25417C249.385 16.4955 249.338 29.6857 249.035 42.8247L247.921 43.0214C245.859 43.0569 243.786 42.9978 241.724 43.0214L241.578 11.1085C241.554 11.2934 240.992 10.9865 240.838 10.8527L167.521 10.7071C167.423 8.09424 167.462 5.48532 167.647 2.88428H247.921Z" fill="white"/>
<path d="M223.723 35.9384C216.766 34.687 202.666 32.3339 205.803 22.0005C208.738 12.3361 231.172 12.0253 236.118 19.4113C237.129 21.3237 237.539 22.2012 237.731 24.334C237.755 24.578 237.566 24.696 237.298 24.7236C233.796 24.8141 230.341 25.1997 226.843 25.3296C225.997 20.6154 221.008 19.8953 217.23 21.7723C216.148 22.8111 215.868 24.1569 217.23 24.7236C217.596 24.8416 218.292 25.4712 219.06 25.6955C223.774 27.0846 229.019 27.2105 233.525 29.5282C243.059 34.4352 240.269 45.6382 231.038 48.7114C230.389 48.9278 226.678 49.5811 226.674 49.8093C223.577 50.0415 220.323 50.1202 217.23 49.8093C212.547 49.3922 209.368 48.1526 206.605 44.497C206.385 43.8084 206.043 43.4031 205.425 43.0214C204.614 41.4749 204.024 39.7711 203.949 38.0042L215.432 37.4415C216.136 42.3091 219.874 43.7061 224.392 42.9466C225.69 42.7302 226.308 41.9943 227.268 41.2467C229.645 38.8385 226.162 36.2728 223.727 35.9344L223.723 35.9384Z" fill="white"/>
<path d="M129.871 14.3939C130.304 14.4057 131.473 14.6379 132.232 14.689C133.885 14.7441 135.262 15.1376 136.364 15.8695C139.929 17.231 143.731 21.5832 144.628 25.3136L134.456 27.1001C133.563 26.9702 133.531 25.7582 132.984 25.0066C130.155 21.1306 123.04 21.6147 120.51 25.5457C118.759 28.2688 118.771 34.6396 119.747 37.6538C120.982 41.4786 125.075 42.2853 128.691 41.8406C129.391 41.4157 130.178 41.0222 131.052 40.6601C133.023 39.3419 132.417 39.6252 133.413 37.7089C133.543 36.8589 133.881 35.8555 134.593 35.3479C137.553 35.4935 141.795 37.7246 144.915 38.0158C144.226 42.7103 140.213 47.1883 135.77 48.7702C135.097 49.0102 131.355 49.5808 131.351 49.809C128.549 50.0333 125.586 50.1239 122.792 49.809C105.368 48.2626 100.906 24.8807 115.119 17.05C116.052 16.873 116.862 16.6211 117.48 15.8695C119.526 15.1534 122.179 14.5592 124.268 14.3939C126.07 14.0201 128.03 14.1735 129.875 14.3939H129.871Z" fill="white"/>
<path d="M201.292 14.9844C201.299 15.1811 201.28 15.3779 201.292 15.5746L201.614 16.6843C201.701 27.301 201.685 37.9373 201.591 48.554C201.587 49.1954 201.323 49.4 200.701 49.5141C199.34 49.5928 189.927 49.707 189.467 49.3843C189.341 49.2977 189.266 49.1757 189.231 49.0301L189.191 14.9844H201.292Z" fill="white"/>
<path d="M89.7347 52.4653H66.7148V60.7289H89.7347V52.4653Z" fill="white"/>
<path d="M62.2865 3.47418V60.4335H48.8602C48.5966 60.4335 47.0974 58.2063 46.6488 57.7774L46.3851 57.7302C46.3772 48.0973 46.271 38.4486 46.0703 28.7803L46.3536 26.494C46.1411 25.3843 47.7309 17.2113 48.1795 17.0224C48.4864 16.8965 48.8012 17.0106 49.0452 17.1995C49.4505 21.4847 49.4387 25.766 49.0098 30.0316C48.9232 30.0946 48.4864 29.8506 48.4038 30.2008C48.1362 31.3459 48.632 33.4669 48.4235 34.7497L49.0137 34.309L49.0373 57.9387C48.9744 58.4385 48.0142 58.5054 48.4274 59.5403L49.0098 58.954C49.1081 59.1035 49.5371 60.1305 49.604 60.1305H61.9993L62.2944 3.46631L62.2865 3.47418Z" fill="white"/>
<path d="M15.361 60.1388C15.1249 60.2529 15.117 60.3945 14.6527 60.4496C10.7413 60.9415 5.80674 60.0483 1.78516 60.4339V2.88428H23.6245L30.1173 29.7408L29.0784 28.2691L25.1159 11.3249C23.4277 11.0927 24.5925 10.231 24.502 8.96781C24.4902 8.81435 23.9826 6.73272 23.9314 6.61467C23.7622 6.20937 23.1405 6.51236 23.0342 6.42579C22.4558 5.93785 23.6363 5.79619 23.6402 5.67027C23.6599 5.19413 23.0618 4.18677 23.3294 3.47453H2.37541V59.1078C2.37541 59.155 1.86779 59.8476 2.521 59.8476H14.0309C14.1529 59.8476 14.7628 59.8122 14.7707 59.6941C14.7707 47.8773 14.751 35.9817 14.7707 24.1373C14.8966 23.6257 14.995 23.3424 15.361 23.8422C16.2424 35.8951 16.329 48.0976 15.361 60.1427V60.1388Z" fill="white"/>
<path d="M17.7224 25.6086C17.8286 26.0651 17.8955 26.5609 18.0175 27.0843L18.1119 29.7719L17.7224 30.0355C17.6791 38.3502 18.4936 48.7151 17.7184 56.7425C17.6043 57.9191 16.4238 59.6229 15.3613 60.1384C15.4046 48.0422 15.3023 35.9341 15.3613 23.8379C15.0308 23.1296 14.838 17.774 15.0387 17.5261C15.263 17.2467 15.6919 17.1484 15.8808 17.3963C16.1326 17.7268 17.5295 23.6726 17.7656 24.7311C17.8325 25.0381 17.8758 25.3175 17.7224 25.6086Z" fill="white"/>
<path d="M74.3881 2.88428V10.8527C74.0969 10.7582 73.7467 11.1478 73.6522 11.1478H66.7188V2.88428H74.392H74.3881Z" fill="white"/>
<path d="M119.247 10.8525C118.948 11.0965 117.476 10.9863 117.476 10.8525V6.42559C117.086 6.50036 115.866 6.29967 115.721 6.44133C114.93 7.20079 116.476 11.8835 113.934 11.1476V6.42559C110.495 5.54415 112.557 9.67592 111.735 10.8682C111.337 11.4467 110.098 11.0886 110.098 10.7069V5.24509C111.227 5.57169 112.856 4.89094 113.773 4.95783C114.312 4.99718 114.729 5.50086 115.256 5.5166C116.197 5.54021 117.472 4.2574 118.652 5.40249C118.798 5.54415 119.25 6.44527 119.25 6.57512V10.8564L119.247 10.8525Z" fill="white"/>
<path d="M77.9293 2.88397C79.8968 2.76986 83.273 2.46293 82.9464 5.24498C81.0419 5.6857 81.4039 4.83574 80.7625 4.33993C80.2037 3.91101 78.5864 4.08415 78.5077 4.52094C78.1457 6.57895 83.4304 5.20957 83.2612 8.63303C83.0802 12.2414 76.6386 11.6709 76.4969 8.87307C76.4576 8.12148 77.7916 7.98375 78.1851 8.23559C78.4841 8.42841 78.3897 10.4825 80.7546 9.40036C83.4304 8.17657 79.1255 7.40531 78.5195 7.1574C76.7291 6.42549 76.6386 5.8982 76.7449 4.06054C76.8078 3.36404 77.3312 3.12401 77.9254 2.88004L77.9293 2.88397Z" fill="white"/>
<path d="M106.851 60.1386C105.899 58.9345 104.959 57.514 103.987 56.3807C103.806 56.1682 104.002 55.8258 103.31 56.0069V60.4338H101.539V53.0556C104.628 52.3355 105.01 56.1682 107.143 57.4825V53.0556C107.634 53.032 108.13 53.0871 108.622 53.0556C108.717 53.7678 108.968 59.9419 108.772 60.2449C108.717 60.3275 107.04 60.359 106.851 60.1386Z" fill="white"/>
<path d="M126.328 54.2357C126.667 53.8972 126.679 53.5864 127.296 53.2873C129.091 52.4137 133.168 52.4649 133.116 55.121C131.716 55.7506 131.058 54.2868 130.846 54.2317C130.201 54.0665 129.122 54.3498 128.394 54.2396C127.891 55.9749 130.291 55.6287 131.637 56.1638C134.092 57.1397 134.21 58.8239 131.94 60.1421C130.547 60.4097 128.933 60.3703 127.513 60.1421C126.986 59.8431 125.16 58.7019 126.321 57.9149C127.481 57.1279 127.883 58.7216 128.308 58.9774C129.681 59.8116 132.475 58.7531 131.645 57.7811C131.487 57.5962 127.796 56.9429 126.923 56.5967C126.21 56.0222 125.51 54.8928 126.332 54.2357H126.328Z" fill="white"/>
<path d="M240.838 10.8524L241.727 11.0256V43.0212L241.428 11.1475L167.352 10.8524C167.399 10.1795 167.599 10.0457 167.718 10.7068L240.838 10.8524Z" fill="white"/>
<path d="M218.998 55.4163C219.718 52.3785 226.475 51.619 226.966 55.1172C224.853 56.0931 225.113 53.9603 222.681 54.2161C221.513 54.3381 221.729 54.6372 221.359 55.4163C221.099 56.3095 221.08 57.1792 221.359 58.0724C221.843 59.0129 221.957 59.3277 223.271 59.2726C225.294 59.19 224.775 56.9392 226.963 58.0842C227.085 58.344 226.423 59.611 226.301 59.7488C225.994 60.0911 225.499 59.9849 225.2 60.1383C224.003 60.3233 222.481 60.4689 221.363 60.1383C220.308 59.973 219.069 58.8909 219.002 57.7773C218.593 57.5294 218.424 55.6485 219.002 55.4163H218.998Z" fill="white"/>
<path d="M167.058 53.0552C167.645 53.0828 168.243 53.0356 168.829 53.0552C169.046 54.3263 168.412 57.9819 169.093 58.8397C169.817 59.7526 172.367 58.9381 172.367 58.517V53.0552H174.138C173.862 54.7198 174.755 58.6194 173.563 59.7251C173.217 60.0478 172.898 60.0005 172.662 60.1383C171.356 60.3468 169.829 60.4295 168.53 60.1383C167.81 60.0753 167.153 59.8392 167.055 58.9578C166.716 57.0847 166.874 54.9559 167.055 53.0552H167.058Z" fill="white"/>
<path d="M204.243 57.1874C204.632 57.4117 205.026 57.2149 205.423 56.5971C205.947 55.4284 206.549 54.1692 207.194 53.0556C207.718 52.3473 210.098 52.6975 208.965 53.6458L205.868 60.1425C205.278 60.662 203.869 60.6462 203.381 59.9655C202.279 58.4269 201.52 54.8263 200.402 53.0595C200.993 53.1225 202.004 52.8706 202.48 53.1933C202.661 53.3153 203.987 56.601 204.239 57.1913L204.243 57.1874Z" fill="white"/>
<path d="M228.445 60.1387C228.154 57.9862 228.657 55.275 228.445 53.0557H235.233C235.292 53.0557 235.292 54.2362 235.233 54.2362H230.216V56.0069H234.938C234.997 56.0069 234.981 57.1441 234.938 57.1874C234.776 57.3566 231.006 57.0891 230.216 57.1874C229.869 57.5691 229.68 58.6552 230.216 59.5484C230.766 59.3241 235.146 59.2848 235.284 59.5012C235.363 59.6232 235.37 60.0049 235.315 60.1426C235.185 60.4653 229.137 60.2922 228.445 60.1426V60.1387Z" fill="white"/>
<path d="M49.0056 30.0355L48.7065 17.3451C48.2146 17.5104 48.1635 18.6751 48.0297 19.1749C47.3843 21.591 46.8413 24.0425 46.3494 26.494C46.3337 27.4935 46.1369 28.2805 45.7592 28.855C45.5545 29.3351 45.2634 30.1497 45.1689 30.6258C44.7164 29.6342 45.1138 28.6701 45.3145 27.6706C46.2786 22.8423 47.5693 17.0933 48.9072 12.3752C49.0331 11.9305 49.0213 11.4465 49.4502 11.1475C49.4187 16.6132 49.9932 22.3819 49.6076 27.8319C49.5683 28.4025 49.4542 29.7011 49.0056 30.0355Z" fill="white"/>
<path d="M147.58 53.0554C148.363 52.9767 154.135 52.8114 154.368 53.0554C154.407 53.0987 154.407 54.1887 154.368 54.2319C154.194 54.4129 150.074 54.1021 149.346 54.2319C149.358 54.6215 149.327 55.0229 149.346 55.4124C149.842 55.5344 150.043 55.6328 149.61 55.7272C150.303 55.6682 155.127 55.3731 153.88 56.7149C153.789 56.8133 153.64 56.8605 153.478 56.8881C151.979 57.0966 150.732 57.0179 149.346 57.1832C149.071 57.5413 149.071 58.2299 149.346 59.2491C150.897 59.4458 152.467 59.4931 154.057 59.3868C154.328 59.5363 154.34 59.9456 154.068 60.1345C152.085 60.3981 149.63 60.3548 147.576 60.1345C147.308 57.8089 147.308 55.4479 147.576 53.0514L147.58 53.0554Z" fill="white"/>
<path d="M167.649 2.88428V10.5576L240.84 10.8527H167.354C167.535 8.25951 166.972 5.38695 167.649 2.88428Z" fill="white"/>
<path d="M84.7188 5.24515H86.1944C86.2691 6.19742 85.7851 9.96717 87.2293 9.84912C87.308 9.84125 88.5554 9.44774 88.5554 9.37691V5.24515H90.3261V10.8525C89.6729 11.0336 88.9371 10.5732 88.3901 10.5928C87.729 10.6164 87.3119 11.2539 86.3675 11.1437C85.8914 11.0886 84.7188 10.3095 84.7188 9.81764V5.24121V5.24515Z" fill="white"/>
<path d="M132.232 5.83537C133.479 4.44238 136.505 4.63913 137.241 6.57516C136.167 7.87765 135.391 6.46104 135.277 6.4335C132.515 5.76848 132.633 9.92386 134.734 9.67988C135.415 9.60118 136.084 8.31837 137.249 8.78664C138.04 9.19981 137.571 10.4984 136.659 10.5574C135.974 10.6794 135.663 11.1358 134.75 11.1791C132.157 11.3011 131.181 8.95191 131.641 6.72075C131.071 6.10295 131.433 5.52844 132.232 5.83537Z" fill="white"/>
<path d="M103.308 5.83526C103.367 5.88642 103.706 5.6818 103.985 6.20122C106.055 10.0024 100.935 7.89721 100.353 8.49533C99.7038 9.16035 100.9 9.33349 100.943 9.38071C101.51 9.424 102.1 9.32562 102.714 9.08559C103.159 9.19577 103.847 8.8731 104.178 9.54992C104.02 11.4309 100.192 11.5253 99.2512 10.4825C99.1174 10.333 98.5784 8.37335 98.5665 8.04281C98.5233 7.01183 98.8341 7.03938 99.1725 6.42945C99.6723 5.56768 100.066 5.96118 100.353 7.60996L100.88 7.03544C101.785 7.27154 102.104 6.97248 101.829 6.13432C101.797 5.22534 102.86 5.2214 103.304 5.8392L103.308 5.83526Z" fill="white"/>
<path d="M165.876 53.0558C166.541 53.0637 166.498 54.0986 165.876 54.2363C165.101 54.2914 164.287 54.1576 163.515 54.2363C163.417 54.4921 163.319 54.4921 163.22 54.2363C163.067 56.1723 163.016 58.1241 163.059 60.0916C161.737 60.7763 161.465 60.0365 161.56 58.7498C161.678 57.2348 161.642 55.7316 161.449 54.2363C161.383 54.4882 161.284 54.4803 161.154 54.2363C160.426 54.1379 159.553 54.2914 158.793 54.2363C158.62 53.6421 158.801 53.2958 159.384 53.0558C161.528 52.985 163.728 53.0243 165.876 53.0558Z" fill="white"/>
<path d="M249.398 2.88428V43.0214C248.878 43.3166 248.339 43.0136 247.922 43.0214L249.106 42.4312V3.64374L247.922 2.88428H249.398Z" fill="white"/>
<path d="M105.672 5.24493C106.313 4.8593 107.159 5.44955 107.45 5.39839C107.813 5.33543 109.245 4.34381 109.493 5.41807C109.808 6.76384 107.919 6.23655 107.576 6.70482C107.136 7.30294 107.159 10.0024 107.151 10.8523H105.676V5.24493H105.672Z" fill="white"/>
<path d="M114.526 54.236V60.4336H112.755C113.011 58.8635 112.413 56.235 112.755 54.8262C111.909 53.6654 114.16 53.083 114.526 54.236Z" fill="white"/>
<path d="M119.245 53.0557C120.032 53.6144 120.28 54.1299 119.989 54.5903L120.131 55.7118C120.19 55.8259 120.332 55.9125 120.426 56.0069C121.457 56.2942 120.969 56.8766 120.052 57.0064C120.387 56.853 120.414 57.1087 120.131 57.7777C120.151 57.8485 119.82 58.9267 120.158 59.2258C120.556 59.5839 124.385 58.789 125.148 59.5484C125.109 59.7019 125.065 59.8239 125.01 59.8278C123.255 59.9774 120.89 59.9183 119.245 59.5996C119.269 59.9144 118.946 60.0364 118.655 60.1387C118.58 60.3827 118.222 60.3512 118.065 60.1387C117.908 58.9661 118.065 57.2661 118.065 56.0069C117.644 55.397 117.333 53.6066 118.065 53.0557C118.458 53.0557 118.852 53.0557 119.245 53.0557Z" fill="white"/>
<path d="M46.6471 57.7775C46.5881 57.7224 46.0962 57.9507 46.0411 57.6044C46.0647 48.5578 46.0569 39.5112 46.0687 30.4646C46.0687 29.8625 45.7657 29.2762 45.7617 28.8552C45.7578 27.958 46.2064 27.2103 46.352 26.4941L46.6471 57.7775Z" fill="white"/>
<path d="M117.474 53.0558C117.935 53.3588 117.785 54.2717 117.179 54.2363C116.302 54.2756 115.4 54.1773 114.523 54.2363C113.921 54.2756 112.953 54.012 112.752 54.8265C112.26 53.7444 110.824 54.3858 109.801 54.2363C109.183 54.0868 109.148 53.166 109.801 53.0558C112.351 53.0125 114.924 53.0479 117.474 53.0558Z" fill="white"/>
<path d="M238.478 53.0555C238.734 53.8818 238.718 55.1528 238.478 56.0067C238.966 56.0185 238.95 57.5335 238.478 57.7775V58.3677C238.348 58.8045 237.246 58.8006 236.983 58.4504L236.707 54.8262C236.727 54.236 236.692 53.6418 236.707 53.0555C237.278 53.1066 237.931 52.9846 238.478 53.0555Z" fill="white"/>
<path d="M120.131 57.7774C119.907 56.8999 117.42 57.3288 119.25 56.4474C118.349 56.2231 118.671 55.6525 118.656 54.8262L119.84 56.5851C120.635 56.8999 120.375 56.0382 120.422 56.0027C120.615 55.869 125.066 55.6919 124.849 56.7347C124.696 57.4626 121.859 57.1439 121.139 57.1714C120.615 57.1911 120.041 56.9353 120.127 57.7696L120.131 57.7774Z" fill="white"/>
<path d="M119.246 53.0555C120.069 53.0594 124.948 52.843 125.149 53.0555C125.188 53.0988 125.188 54.1888 125.149 54.2321C124.979 54.4091 121.088 54.1061 120.301 54.2281C119.931 54.2871 120.21 55.3535 120.131 55.7077C119.801 55.082 119.95 54.783 119.817 54.4603C119.683 54.1376 118.872 54.0668 119.246 53.0516V53.0555Z" fill="white"/>
<path d="M129.281 6.42558C128.809 7.49984 128.663 8.92038 128.84 10.6872C128.797 10.7423 127.581 10.8249 127.51 10.5573C127.16 9.18796 127.325 7.29916 127.51 5.83533C127.632 5.37493 128.226 5.27262 129.296 5.5284C130.355 4.80829 130.926 5.24114 130.461 6.42558C130.072 6.41378 129.666 6.40591 129.281 6.42558Z" fill="white"/>
<path d="M131.051 5.24473C131.736 5.74054 131.614 6.34653 130.756 6.42523C130.658 6.4213 130.559 6.42523 130.461 6.42523L130.02 5.24079C129.733 6.33866 128.407 5.68151 127.51 5.83498V10.557C127.51 10.616 128.647 10.6003 128.69 10.557C128.84 10.4153 128.58 7.0509 128.69 6.4213C128.887 6.40556 129.084 6.4331 129.281 6.4213V7.01155C129.182 8.31797 129.084 9.59685 128.985 10.8482C128.899 10.8285 128.793 10.8561 128.69 10.8482L127.108 10.9898C126.967 9.06563 127.002 7.14927 127.215 5.24079C127.856 4.66628 128.659 5.21718 129.371 5.1857C130.245 5.15029 129.58 4.46953 131.051 5.24079V5.24473Z" fill="white"/>
<path d="M147.58 53.0556V60.1387H154.073C154.112 59.4461 154.175 59.6153 153.636 59.5484C152.29 59.3753 150.594 59.9262 149.351 59.2533C149.347 58.8558 149.571 58.8165 150.02 59.1431L154.49 59.1077C154.757 60.5007 154.423 60.9453 153.482 60.4338C151.554 60.7604 149.532 60.6541 147.58 60.4338C147.478 60.3511 147.316 60.2882 147.285 60.1387C147.009 57.7895 147.009 55.4284 147.285 53.0556C147.383 53.0478 147.481 53.0674 147.58 53.0556Z" fill="white"/>
<path d="M99.1797 6.42536C99.3174 6.18139 99.2151 5.85479 99.6007 5.52818C100.368 4.87497 102.237 4.78053 103.099 5.25273C103.418 5.42587 103.28 5.80757 103.311 5.83511C102.753 5.72887 102.332 5.96103 101.836 6.13024C101.549 6.66933 101.057 7.16121 100.36 7.60587C99.0341 7.52717 100.466 6.27583 99.1797 6.42536Z" fill="white"/>
<path d="M118.656 60.1387V58.368C119.384 58.1279 119.628 59.4501 120.053 59.5327C120.939 59.7098 124.901 59.3556 125.149 59.5445C125.149 59.7413 125.149 59.938 125.149 60.1348C122.989 60.3512 120.821 60.3512 118.656 60.1348V60.1387Z" fill="white"/>
<path d="M223.723 35.9381C224.187 36.0207 224.785 35.8279 225.277 35.9499C226.926 37.4137 228.98 37.7639 228.433 40.4437C228.35 40.849 227.41 41.1363 227.268 41.2504C228.504 37.9056 226.19 37.1579 223.727 35.9381H223.723Z" fill="white"/>
<path d="M231.46 51.9575C231.315 52.0362 231.142 52.898 229.922 52.4651C229.957 50.2812 233.412 50.1592 233.755 51.7371C234.069 53.1931 231.874 51.7371 231.46 51.9614V51.9575Z" fill="white"/>
<path d="M196.277 58.9541C196.296 60.6658 196.34 62.1454 194.211 61.9014C195.938 60.8508 194.191 60.6304 194.506 58.9541H196.281H196.277Z" fill="white"/>
<path d="M235.528 59.2534C235.465 59.5996 235.618 60.1584 235.528 60.4339C233.241 60.7605 230.743 60.7369 228.445 60.4339C228.413 60.3709 228.46 60.245 228.445 60.1387H234.937C235.418 59.7728 234.934 59.6036 234.501 59.5485C233.206 59.3832 231.577 59.6154 230.215 59.5485C229.96 59.4659 229.96 59.3675 230.215 59.2534L230.306 58.8599C231.986 59.0645 233.725 59.1943 235.528 59.2534Z" fill="white"/>
<path d="M216.047 53.0556C216.389 53.1146 216.692 52.969 217.145 53.1461C217.223 53.1776 218.27 54.2558 218.317 54.3266C218.494 54.5903 218.31 55.1136 218.487 55.3458C218.609 55.5032 218.982 55.3969 218.998 55.4166C219.065 55.515 219.065 57.6793 218.998 57.7776C218.982 57.8012 218.593 57.695 218.479 57.8406C218.266 58.1121 218.518 58.7142 218.376 58.9306C218.286 59.0683 217.896 58.9109 217.818 58.9581V58.3679C218.258 57.2818 218.121 56.2312 217.818 55.1215C217.255 54.004 216.944 53.9095 216.047 53.0556Z" fill="white"/>
<path d="M175.913 53.0557V60.1387C177.609 59.997 179.564 60.3276 181.225 60.1387C179.529 60.9493 177.329 59.9341 175.621 60.7289C175.798 58.2381 175.24 55.46 175.913 53.0557Z" fill="white"/>
<path d="M149.349 55.4163C150.655 55.6288 153.795 54.8772 154.48 55.9947C154.755 56.4512 154.209 57.0533 153.921 57.1398C153.811 57.1753 153.559 56.8801 153.481 56.8919C153.516 55.861 153.662 56.0774 152.757 56.0066C151.639 55.92 150.466 56.0734 149.345 56.0066C149.329 55.8098 149.357 55.6131 149.345 55.4163H149.349Z" fill="white"/>
<path d="M109.803 53.0552C109.74 53.3386 109.893 54.1019 109.803 54.2357C109.783 54.2633 109.405 54.161 109.287 54.2948C108.949 54.6804 109.386 59.7369 109.213 60.7324C108.433 60.6341 107.399 61.0354 106.852 60.4373C107.497 60.3547 108.134 60.2445 108.772 60.1028C108.701 57.7143 108.752 55.369 108.917 53.0592C109.213 53.0474 109.508 53.0631 109.803 53.0592V53.0552Z" fill="white"/>
<path d="M149.349 57.1871C149.057 57.4823 149.84 58.9579 149.939 58.9579H154.661V60.7286C154.271 60.7365 153.874 60.7208 153.48 60.7286C153.225 60.646 153.225 60.5476 153.48 60.4335C153.705 60.4296 154.33 60.4729 154.366 60.4335C154.405 60.3902 154.409 59.2963 154.366 59.2569C154.149 59.0327 150.077 59.5009 149.349 59.2569C148.975 59.131 148.758 57.7616 148.754 57.3563C148.739 57.0573 149.14 57.2186 149.349 57.1911V57.1871Z" fill="white"/>
<path d="M236.707 54.8262C237.246 55.3299 237.002 58.0371 237.313 58.3519C237.431 58.47 238.171 58.3244 238.478 58.3677C239.639 58.5408 238.887 59.6544 239.068 60.7287C238.872 60.7444 238.675 60.7169 238.478 60.7287C238.222 60.6461 238.222 60.5477 238.478 60.4336C238.698 59.9181 238.698 59.4262 238.478 58.9579C238.234 59.7567 237.565 59.7449 237.298 58.9579C237.215 59.2137 237.117 59.2137 237.002 58.9579C236.92 59.2137 236.821 59.2137 236.707 58.9579C236.66 57.6082 236.66 56.1759 236.707 54.8262Z" fill="white"/>
<path d="M162.925 7.31085C160.757 7.60597 159.694 5.90998 161.898 6.1028C162.567 6.16182 163.987 7.41316 164.105 5.83521C163.381 5.34334 163.369 5.0246 162.177 4.94197C159.796 4.7767 157.849 6.17363 159.974 8.19622C160.493 8.5976 162.819 8.68417 162.921 8.79435C163 8.87698 162.878 9.67973 162.921 9.96698C161.496 10.5494 160.599 8.81796 159.564 9.10915C158.836 9.31377 158.88 10.3054 159.674 10.5612C160.548 10.8169 161.197 11.2341 162.177 11.1711C164.916 10.9862 165.738 8.03489 162.921 7.31478L162.925 7.31085Z" fill="white"/>
<path d="M157.615 6.42532C156.58 5.67374 156.285 5.90984 155.092 5.83901C154.526 5.80359 153.912 6.14594 154.073 5.24482C155.116 4.99691 155.655 4.80016 156.8 5.31958C157.642 5.70128 157.355 5.95706 157.615 6.42532Z" fill="white"/>
<path d="M108.915 53.0555V60.4336H106.85C106.802 60.3785 106.897 60.1975 106.85 60.1385H108.62V53.0555C108.719 53.0515 108.817 53.0555 108.915 53.0555Z" fill="white"/>
<path d="M184.471 55.1216C184.676 56.0699 184.66 57.3881 184.471 58.3679C184.239 58.0177 184.062 57.6833 183.586 57.7777C183.653 57.3094 183.676 55.8338 183.586 55.4167C184.066 55.5308 184.176 55.2947 184.212 54.8579L184.471 55.1216Z" fill="white"/>
<path d="M166.762 53.0555C166.987 54.9994 166.987 56.9669 166.762 58.958C165.983 57.7657 166.794 55.6447 166.471 54.4288C166.389 54.118 165.893 54.2596 165.877 54.236C165.787 54.0983 165.94 53.3388 165.877 53.0555C166.172 53.0594 166.467 53.0476 166.762 53.0555Z" fill="white"/>
<path d="M163.517 54.2357V60.7284C162.931 60.7088 162.333 60.756 161.747 60.7284C161.491 60.6458 161.491 60.5474 161.747 60.4333C162.415 60.4018 162.86 60.2562 163.077 59.9965C163.014 58.0644 163.065 56.1442 163.222 54.2357C163.321 54.2278 163.419 54.2435 163.517 54.2357Z" fill="white"/>
<path d="M127.215 5.24512C127.365 6.04786 127.015 10.6597 127.215 10.8525C127.286 10.9194 128.357 10.821 128.691 10.8525L126.92 11.1476C127.129 9.97107 126.511 5.87865 127.215 5.24512Z" fill="white"/>
<path d="M217.229 21.772C216.899 22.9249 216.151 23.6687 217.229 24.7232C216.218 24.3966 215.813 25.4473 216.029 23.0666C216.112 22.1497 216.529 22.1183 217.229 21.772Z" fill="white"/>
<path d="M18.902 31.2162C17.6821 31.4681 18.9413 29.7839 17.7215 30.0357C17.7254 29.111 17.4775 27.7613 18.0166 27.0845C18.3393 28.446 18.5754 29.8547 18.902 31.2162Z" fill="white"/>
<path d="M147.283 60.1387C146.791 58.0256 146.791 55.1688 147.283 53.0557C147.578 55.1058 146.886 58.246 147.283 60.1387Z" fill="white"/>
<path d="M125.149 60.4335C124.941 60.8427 124.799 60.7089 124.429 60.7443C122.965 60.8742 120.25 60.8742 118.787 60.7443C118.424 60.7128 118.259 60.8466 118.066 60.4335C120.298 60.1895 122.891 60.2013 125.149 60.4335Z" fill="white"/>
<path d="M118.656 60.1387H125.149C125.149 60.237 125.172 60.3826 125.149 60.4338H118.066C118.034 60.3708 118.082 60.2449 118.066 60.1387H118.656Z" fill="white"/>
<path d="M235.528 60.4336C235.383 60.8704 235.135 60.7012 234.808 60.7406C233.502 60.9019 230.519 60.8625 229.165 60.7406C228.803 60.7091 228.638 60.8429 228.445 60.4297H235.528V60.4336Z" fill="white"/>
<path d="M161.747 60.4333V60.7285C161.55 60.7206 161.353 60.7442 161.156 60.7285V54.2357C161.262 54.2514 161.384 54.2042 161.451 54.2357C161.546 56.2976 161.644 58.3635 161.747 60.4333Z" fill="white"/>
<path d="M118.066 53.0557V56.0069H117.476C117.763 55.3813 117.201 54.5313 117.181 54.2362C117.157 53.9096 117.437 53.4138 117.476 53.0557C117.673 53.0557 117.87 53.0557 118.066 53.0557Z" fill="white"/>
<path d="M94.457 43.6117C94.8505 43.6353 95.248 43.5921 95.6375 43.6117V46.563C95.2362 45.5871 94.7758 44.623 94.457 43.6117Z" fill="white"/>
<path d="M236.118 19.4111C237.22 21.056 238.161 22.626 238.184 24.7234C237.889 24.7352 237.594 24.7155 237.299 24.7234L237.291 21.9768C236.736 21.5321 236.047 20.2375 236.118 19.4111Z" fill="white"/>
<path d="M167.057 58.958H166.762V53.0555C166.86 53.0555 166.958 53.0515 167.057 53.0555C167.202 54.9482 166.852 57.1046 167.057 58.958Z" fill="white"/>
<path d="M207.195 53.0559C207.254 52.9536 207.014 52.5365 207.38 52.4538C207.959 52.3161 208.903 52.568 209.56 52.4696C209.541 53.1897 209.832 53.8193 208.97 53.6501C209.21 52.6467 208.014 53.1661 207.199 53.0598L207.195 53.0559Z" fill="white"/>
<path d="M97.999 58.6633C98.302 58.7498 98.4594 59.2732 98.5892 59.5486C98.5381 59.5014 98.2862 59.6273 98.1957 59.5408C97.936 59.2968 98.0895 59.0017 97.574 58.9348C96.4958 58.801 94.6503 58.8128 93.8672 59.5486C93.9892 59.2692 94.1544 58.7498 94.4574 58.6633C95.6025 58.3642 96.8499 58.3681 97.999 58.6633Z" fill="white"/>
<path d="M153.481 60.4336V60.7287C152.288 60.7523 148.243 60.9648 147.578 60.4336C149.542 60.3982 151.517 60.4847 153.481 60.4336Z" fill="white"/>
<path d="M143.445 60.4336C141.714 60.9766 139.943 60.654 138.133 60.7248C138.066 60.5084 138.432 60.4572 138.428 60.4336H143.445Z" fill="white"/>
<path d="M117.474 15.8696C117.281 17.0462 116.223 17.2154 115.113 17.0501C116.018 16.5543 116.321 16.271 117.474 15.8696Z" fill="white"/>
<path d="M216.05 60.1387C215.971 60.1977 216.325 60.666 215.629 60.7525C214.397 60.9099 213.055 60.7329 211.918 60.4338L216.05 60.1387Z" fill="white"/>
<path d="M126.33 54.2357C126.125 55.1722 126.645 55.7782 126.92 56.5967C125.929 56.2071 125.405 55.6995 125.728 54.4206C125.818 54.0704 126.283 54.279 126.33 54.2357Z" fill="white"/>
<path d="M230.213 57.1872V59.5482C230.016 59.5403 229.82 59.564 229.623 59.5482L229.615 57.3604C229.584 57.0416 229.997 57.2108 230.209 57.1833L230.213 57.1872Z" fill="white"/>
<path d="M134.594 35.3479C134.413 36.2766 133.8 36.9692 133.414 37.709C133.182 36.8078 133.556 35.2968 134.594 35.3479Z" fill="white"/>
<path d="M211.621 53.0557C210.838 53.7915 210.259 53.8978 209.555 54.8264C209.803 52.7881 210.247 53.2682 211.621 53.0557Z" fill="white"/>
<path d="M131.939 60.1387C131.832 60.2016 131.738 60.3984 131.643 60.4338C130.479 60.6778 129.275 60.6227 128.102 60.4338C127.846 60.363 127.716 60.2567 127.512 60.1387H131.939Z" fill="white"/>
<path d="M129.28 7.01562C129.28 8.38895 129.28 9.77407 129.28 11.1474C129.036 11.2222 129.012 10.8562 128.989 10.8523C129.142 9.63635 128.63 8.01512 129.284 7.01562H129.28Z" fill="white"/>
<path d="M145.809 54.826C145.848 54.8693 146.324 54.6607 146.411 55.011C146.572 55.6602 146.501 57.8088 146.104 58.3675C146.049 57.3995 145.95 56.4158 145.809 55.4163V54.826Z" fill="white"/>
<path d="M172.663 60.1386C172.557 60.2016 172.462 60.3983 172.368 60.4337C171.207 60.6029 169.979 60.7603 168.826 60.4337C168.72 60.3471 168.63 60.237 168.531 60.1386C169.861 60.2527 171.317 60.056 172.663 60.1386Z" fill="white"/>
<path d="M205.422 43.021H206.602V44.4966C206.201 43.9654 205.886 43.9064 205.422 43.021Z" fill="white"/>
<path d="M225.196 60.1387C225.106 60.1859 225.015 60.3984 224.901 60.4338C223.736 60.603 222.516 60.7526 221.359 60.4338V60.1387C222.501 60.3197 224 60.0128 225.196 60.1387Z" fill="white"/>
<path d="M131.053 5.24512C131.454 5.45367 131.789 5.75667 132.233 5.83537C132.182 5.89439 131.655 6.66959 131.643 6.72075C131.494 6.33118 131.084 6.4453 130.758 6.42562L131.053 5.24512Z" fill="white"/>
<path d="M205.423 56.5972C205.222 57.0418 205.395 57.9705 204.683 58.3679C204.451 58.0689 204.415 57.5927 204.242 57.1874L205.423 56.5972Z" fill="white"/>
<path d="M239.067 56.0068C239.043 56.8371 239.405 58.0333 238.477 57.7775V56.0068C238.559 55.751 238.658 55.751 238.772 56.0068C238.854 55.751 238.953 55.751 239.067 56.0068Z" fill="white"/>
<path d="M159.384 53.0553C159.506 53.6652 159.332 53.9682 158.793 54.2358C158.597 54.22 158.396 54.2476 158.203 54.2358V53.0592C158.593 53.0435 158.99 53.071 159.384 53.0592V53.0553Z" fill="white"/>
<path d="M131.643 60.4336C130.242 60.9451 129.526 60.8192 128.102 60.4336H131.643Z" fill="white"/>
<path d="M172.37 60.4336C171.496 60.7523 169.635 61.0789 168.828 60.4336H172.37Z" fill="white"/>
<path d="M224.901 60.4336C223.827 60.7641 222.335 61.0632 221.359 60.4336H224.901Z" fill="white"/>
<path d="M184.764 58.3675H184.469V55.1211H184.764C184.666 55.7586 184.662 57.7339 184.764 58.3675Z" fill="white"/>
<path d="M77.9295 2.8842C78.0908 3.61611 77.2133 3.65153 76.749 4.0647C76.7726 3.6712 76.7254 3.27376 76.749 2.8842C77.1386 2.86452 77.5399 2.90781 77.9295 2.8842Z" fill="white"/>
<path d="M237.002 58.958C237.195 60.0362 237.258 60.3746 238.478 60.4336V60.7288C237.891 60.7563 237.293 60.713 236.707 60.7288C236.691 60.1424 236.731 59.5443 236.707 58.958H237.002Z" fill="white"/>
<path d="M209.26 58.0724C209.22 58.0724 209.114 58.3399 208.969 58.3714C209.02 57.1988 208.717 56.2111 209.26 55.1211V58.0724Z" fill="white"/>
<path d="M239.067 56.0069H238.772C238.516 55.1806 238.532 53.9096 238.772 53.0557C239.276 53.2878 239.087 55.3655 239.067 56.0069Z" fill="white"/>
<path d="M238.772 56.0068H238.477V53.0555C238.583 53.0713 238.709 53.024 238.772 53.0555V56.0068Z" fill="white"/>
<path d="M146.104 58.3678H145.809C145.935 57.5572 145.809 56.3058 145.809 55.4165C146.438 56.1169 145.978 57.4391 146.104 58.3678Z" fill="white"/>
<path d="M221.362 58.0726C220.748 56.8803 220.803 56.597 221.362 55.4165V58.0726Z" fill="white"/>
<path d="M17.7239 25.6088C17.1258 23.055 16.079 20.3162 15.6541 17.6444C15.1425 17.5735 15.3747 18.3133 15.3629 18.6714C15.2999 20.3871 15.3707 22.1264 15.3629 23.8381L14.7726 24.1332C14.7766 20.4776 14.6231 16.7078 14.7726 13.064C14.7884 12.7059 14.5483 11.9661 15.0638 12.037C15.6147 16.1215 17.0116 20.088 17.8892 24.1214C17.9875 24.5739 18.2709 25.3216 17.7239 25.6088Z" fill="white"/>
<path d="M186.115 48.9122C182.515 44.0445 180.579 36.2217 174.145 34.4588L179.143 32.2316C180.976 30.5632 182.716 28.9774 182.999 26.3488C183.943 17.5973 177.97 15.3779 170.466 14.9726C163.068 14.5752 155.308 15.2953 147.875 14.9844V49.0696C147.875 49.101 148.288 49.5103 148.316 49.5103H159.975V35.3442C161.388 35.3167 163.525 35.6708 164.599 36.627C164.874 36.871 165.04 37.3944 165.287 37.7052C165.685 38.87 166.275 39.8537 167.058 40.6565C167.105 40.7313 167.424 40.8572 167.601 41.1326C169.388 43.895 170.938 46.8069 172.811 49.5103H185.797C185.832 49.5103 186.371 49.0892 186.112 48.9082L186.115 48.9122ZM169.573 27.9739C169.266 28.1746 167.436 28.8554 167.208 28.8554H159.975V22.3626C162.698 22.1462 165.508 22.0163 168.239 22.3626C171.265 22.6813 171.977 26.4039 169.569 27.9739H169.573Z" fill="white"/>
<path d="M168.236 22.3624C165.639 22.0909 162.621 22.5631 159.973 22.3624C160.28 21.8745 161.094 22.0673 161.59 22.0633C163.723 22.0397 166.206 21.843 168.236 22.3624Z" fill="white"/>
<path d="M109.087 48.9118L94.4606 15.1257L81.2154 15.0234C80.8297 15.2713 79.0078 21.4847 77.9296 22.3622C77.426 23.2201 77.0325 24.2038 76.7491 25.3135C74.0143 31.6725 71.2559 38.063 68.584 44.4495C67.8953 46.0943 67.1241 47.7706 66.7148 49.5139H77.7801C79.787 49.5139 79.9247 44.902 81.0777 43.5995C85.477 43.812 90.0849 43.3477 94.4528 43.6113C95.1689 44.355 95.5624 45.3388 95.6333 46.5626C95.8458 47.0859 96.318 49.5139 96.9633 49.5139H108.768C108.804 49.5139 109.343 49.0928 109.083 48.9118H109.087ZM83.537 36.2332C84.9104 32.8766 85.6974 28.5205 87.2242 25.3135C87.3304 25.0931 87.7357 24.255 87.96 24.4281L91.8006 36.2332H83.537Z" fill="white"/>
<path d="M184.766 55.1213C184.467 56.0342 184.459 57.5177 184.766 58.3677C185.282 61.5314 193.648 61.799 193.648 56.7465C193.648 51.6585 185.262 51.9575 184.766 55.1213ZM186.702 55.137C187.399 53.9369 190.421 53.8778 191.169 54.9167C191.42 55.2669 191.586 56.2861 191.566 56.7347C191.373 61.2009 184.271 59.316 186.702 55.137Z" fill="white"/>
<path d="M217.818 58.3678C218.25 57.3053 218.148 56.2035 217.818 55.1214C218.27 54.236 216.924 53.2719 216.047 53.0555C214.229 52.7446 213.418 52.7761 211.62 53.0555C210.585 53.3624 209.853 53.7126 209.554 54.8262C209.475 54.9325 209.31 55.0191 209.259 55.1214C209.098 56.0697 208.94 57.2187 209.259 58.0726C209.593 58.0412 209.826 59.4223 210.227 59.7568C210.451 59.9457 211.561 60.3392 211.915 60.4336C213.528 60.7209 214.906 60.6225 216.047 60.1385C216.389 59.8749 217.408 59.202 217.818 58.958C218.258 58.8478 218.262 58.3796 217.818 58.3678ZM212.025 58.836C210.829 58.2182 210.715 54.6177 212.966 54.2517C218.357 53.3821 216.889 61.3426 212.025 58.836Z" fill="white"/>
<path d="M217.82 58.3675V55.1211C218.411 56.2977 218.8 57.1791 217.82 58.3675Z" fill="white"/>
<path d="M145.808 54.8264C145.442 54.4132 144.612 53.0557 143.888 53.0557H138.135C138.194 55.0704 138.06 57.1087 138.123 59.1274C138.138 59.6862 138.414 60.1741 138.43 60.4338C140 60.7486 141.81 60.603 143.447 60.4338C144.415 60.1308 145.627 59.5091 145.808 58.3679C146.131 57.5495 146.048 56.3335 145.808 55.4167C146.276 55.3419 146.237 54.8697 145.808 54.8264ZM143.966 57.5613C143.829 58.3207 143.561 58.8874 142.857 58.9582C142.333 59.0959 140.775 59.3989 140.405 59.0723C140.165 58.8637 140.346 54.8776 140.496 54.2362C143.258 53.941 144.497 54.6336 143.966 57.5613Z" fill="white"/>
<path d="M140.498 54.2358V58.9578C141.273 58.9067 142.088 59.0287 142.859 58.9578C142.233 59.312 140.399 59.8589 140.203 58.9578C139.927 57.3956 139.927 55.8216 140.203 54.2358C140.301 54.2279 140.399 54.2476 140.498 54.2358Z" fill="white"/>
<path d="M140.2 58.9579C139.7 57.6987 139.708 55.4321 140.2 54.2358C140.401 55.6092 139.925 57.6987 140.2 58.9579Z" fill="white"/>
<path d="M102.721 57.7775C102.528 58.4229 103.264 60.3707 102.134 60.1346C102.327 59.4893 101.591 57.5414 102.721 57.7775Z" fill="white"/>
<path d="M183.585 55.4165C183.51 55.0663 181.79 53.1027 181.606 53.0633C180.075 52.7289 177.572 53.2916 175.912 53.0555C175.734 55.4912 175.687 57.931 175.77 60.3785C177.6 60.3589 179.418 60.2802 181.224 60.1385C182.487 59.9929 183.412 59.0131 183.585 57.7775C184.297 57.565 184.317 55.5936 183.585 55.4165ZM177.682 59.2531C177.667 58.5684 177.706 57.8719 177.682 57.1872C177.143 56.3963 177.249 55.0702 177.682 54.236C180.063 54.1219 181.834 54.051 181.759 57.0495C181.704 59.3121 179.433 59.3594 177.678 59.2571L177.682 59.2531Z" fill="white"/>
<path d="M177.684 54.236C177.703 55.2158 177.656 56.2074 177.684 57.1872C176.527 57.3958 177.306 55.0662 177.094 54.236C177.29 54.2202 177.487 54.2478 177.684 54.236Z" fill="white"/>
<path d="M100.206 58.9658C99.2496 57.136 98.3799 55.2433 97.5615 53.3466C97.2152 52.9216 95.2988 52.8665 95.0194 53.2364C94.5984 53.7991 91.9934 59.3239 91.836 60.0243C91.6825 60.7248 93.0716 60.4926 93.3943 60.3903C93.894 60.229 93.7956 59.6151 93.8665 59.5443C94.2797 59.2098 94.4764 58.9147 94.4567 58.6589C95.6176 58.3638 96.8374 58.3677 97.9982 58.6589C98.0376 58.9894 98.254 59.4538 98.5885 59.5443C99.0686 59.9889 98.5177 60.713 100.513 60.4296C101.508 60.288 100.525 59.5718 100.206 58.9619V58.9658ZM95.6372 56.3018C95.7081 56.1523 95.5821 55.7509 95.7907 55.4322C96.5226 54.3186 96.6249 55.865 96.8177 56.3018C97.8408 57.9703 94.5669 58.0962 95.6372 56.3018Z" fill="white"/>
<path d="M95.6353 56.3022C95.2772 57.6756 97.2014 57.6126 96.8158 56.3022C96.9259 56.5502 97.5083 56.8374 97.406 57.3293C97.2722 57.9707 95.5762 57.77 95.045 57.7779C94.805 57.0342 95.4503 56.6918 95.6353 56.3022Z" fill="white"/>
<path d="M97.9985 58.6629C97.7467 58.5881 94.7128 58.5881 94.457 58.6629C95.244 58.171 97.1525 58.1592 97.9985 58.6629Z" fill="white"/>
<path d="M97.4829 6.20527C96.6448 4.22989 93.422 5.52451 91.8047 5.24512V12.7689C91.8047 13.1506 93.0442 13.5087 93.4417 12.9302C93.784 12.4344 93.4849 11.1909 93.5754 10.5574C94.2562 10.5377 94.4136 11.1595 95.1888 11.1713C97.5419 11.2067 98.2424 7.9957 97.4829 6.20527ZM95.6295 9.51461C93.9375 10.9037 92.938 7.8501 93.8352 6.59483C94.0358 6.31545 95.6571 6.31938 95.8932 6.46498C96.4283 6.79158 96.4165 8.86534 95.6295 9.51461Z" fill="white"/>
<path d="M149.056 2.88037V5.24138C147.663 5.17842 146.904 4.52127 145.657 5.52864C143.551 7.23643 144.936 11.6279 147.707 11.14C148.159 11.0613 148.509 10.5773 148.911 10.5615C149.513 10.534 149.898 11.2502 150.532 11.14V2.88037H149.056ZM147.494 9.93192C145.11 9.31412 146.868 4.60391 148.69 6.49272C149.584 7.42138 148.848 10.2782 147.494 9.93192Z" fill="white"/>
<path d="M143.391 6.04024C142.93 4.50951 138.161 4.44262 138.429 6.72099C139.283 7.48832 141.061 5.52081 141.667 6.44161C142.379 7.52374 140.262 7.48045 139.534 7.69688C139.105 7.8228 138.799 8.05103 138.425 8.20056C137.992 8.92854 137.996 9.84146 138.425 10.5616C140.861 10.9905 139.912 10.6993 141.801 10.593C142.084 10.5773 143.765 11.1833 143.741 10.7072C143.037 9.33384 143.78 7.3506 143.387 6.04417L143.391 6.04024ZM139.908 9.96345C139.263 8.77507 141.522 7.7441 141.97 8.19662C142.655 8.88525 140.955 10.5616 139.908 9.96345Z" fill="white"/>
<path d="M125.741 8.49119C125.827 7.45234 126.311 7.28707 125.402 6.02787C123.395 3.24581 119.027 5.94917 120.582 9.66776C121.373 11.5526 125.048 11.9383 125.741 9.3805C125.619 8.74696 125.017 8.66433 124.56 9.08537C123.702 10.2029 123.049 10.4626 122.199 9.08537C122.427 8.8414 122.687 8.73909 122.955 8.71548C123.62 8.53841 124.501 8.58956 125.611 8.88862L125.741 8.49512V8.49119ZM124.269 7.60187C119.59 7.95602 123.435 5.15429 124.222 6.46859C124.379 6.73223 124.222 7.25953 124.269 7.60187Z" fill="white"/>
<path d="M157.613 6.42575L157.125 5.81975C155.874 5.5443 154.855 5.35149 154.071 5.24524C153.859 5.2964 153.611 5.15474 153.284 5.33575C152.635 5.69777 151.789 7.19701 151.805 7.99582C151.891 13.0208 160.446 11.5216 157.613 6.42575ZM156.389 9.33372C156.122 9.75477 154.304 9.76658 153.847 9.30618C152.588 8.04304 154.319 5.3869 156.094 6.46903C156.393 6.65004 156.598 8.99925 156.389 9.33372Z" fill="white"/>
<path d="M161.451 54.2358C162.179 54.5743 161.463 59.8708 161.746 60.1384C161.781 60.1738 162.557 60.1698 162.777 60.1384C163.273 60.0675 162.494 54.8851 163.222 54.2358C163.013 56.0892 163.505 58.4935 163.226 60.2643C163.166 60.6342 162.1 60.3548 161.746 60.4335C161.073 58.584 161.628 56.2388 161.451 54.2358Z" fill="white"/>
<path d="M238.478 58.9577C239.305 60.8544 236.444 60.878 237.298 58.9577C237.609 58.9577 238.305 58.8869 238.478 58.9577Z" fill="white"/>
<path d="M237.299 58.958C236.886 60.7406 238.916 60.6973 238.48 58.958C238.991 59.1626 238.873 60.1267 238.48 60.4336H237.004V58.958H237.299Z" fill="white"/>
</svg>
