<svg width="160" height="100" viewBox="0 0 160 100" fill="none" xmlns="http://www.w3.org/2000/svg">
<g clip-path="url(#clip0_396_7709)">
<path d="M37.6569 38.2172C37.8116 37.4927 37.9662 36.7683 38.1209 36.0438C39.2361 33.5692 41.499 32.5029 43.7945 31.5505C48.9471 29.4097 54.1404 27.3584 59.3093 25.2664C64.2584 23.264 69.2157 21.2615 74.1648 19.2428C79.871 16.9148 85.5771 14.603 91.2589 12.2261C96.4766 10.0446 101.67 7.82239 106.847 5.54318C110.632 3.87448 114.36 2.07554 118.121 0.34172C118.406 0.211479 118.723 0.154499 119.269 -0.00830078C118.837 1.2534 118.528 2.3116 118.113 3.32096C117.519 4.76174 116.908 6.21067 116.184 7.59447C115.207 9.46667 113.652 10.8098 111.821 11.8273C107.433 13.4553 103.054 15.124 98.65 16.7113C92.0322 19.08 85.398 21.3918 78.7721 23.728C72.3089 26.0153 65.8458 28.3108 59.3744 30.59C54.6695 32.2505 49.9646 33.8785 45.2678 35.5472C44.5515 35.7996 43.8433 36.1089 43.1758 36.4752C40.9943 37.6799 41.4827 39.8289 42.7525 41.3104C43.5747 42.2628 44.6003 43.0442 45.5283 43.907C45.8946 44.2571 46.2609 44.6152 46.6353 44.9571C48.1005 46.2921 49.5739 47.6189 51.0472 48.9457C51.1205 49.0108 51.1856 49.0759 51.2589 49.1329H51.267C51.3321 49.2143 51.3972 49.2794 51.4542 49.3527C53.6032 51.404 55.7521 53.4634 57.9581 55.5717C55.7847 55.6694 53.7253 55.767 51.6577 55.8566C51.3403 55.4821 51.0228 55.0996 50.6891 54.7333C48.8169 52.6576 46.9609 50.5737 45.0562 48.5224C42.7688 46.056 40.0745 43.9477 38.2837 41.0255C38.2186 40.8871 38.1534 40.7487 38.0965 40.6185C38.0069 40.2847 37.9174 39.9429 37.8278 39.6091C37.779 39.4789 37.722 39.3405 37.6732 39.2103C37.665 38.8765 37.6488 38.5346 37.6406 38.2009L37.6569 38.2172Z" fill="white"/>
<path d="M113.309 14.7011C111.356 19.3897 109.003 23.7039 103.533 25.0714C103.338 25.0877 103.134 25.0714 102.947 25.1284C100.887 25.6982 98.8443 26.3087 96.7768 26.8622C91.4695 28.2867 86.1622 29.6787 80.8468 31.095C75.2139 32.5928 69.581 34.0661 63.9563 35.6127C62.4341 36.0279 60.627 36.0686 59.9188 37.9408C59.9025 37.9896 59.813 38.014 59.756 38.0466C59.6339 38.0792 59.5118 38.1117 59.3978 38.1443L59.349 38.1606C59.0478 38.185 58.7385 38.1768 58.4536 38.2501C54.4406 39.3327 50.4194 40.4235 46.4064 41.5061C45.0714 41.8643 43.2074 40.7247 42.9632 39.3816C42.9306 39.2025 42.9795 38.9664 43.0771 38.8199C43.6388 37.9815 44.3063 37.3059 45.3319 36.9884C48.0507 36.1418 50.7532 35.2302 53.4556 34.3266C57.7291 32.9103 62.0026 31.4776 66.2762 30.0613C71.0788 28.4658 75.8895 26.8785 80.6921 25.2912C86.4227 23.3946 92.1532 21.5061 97.8757 19.5851C101.644 18.3234 105.397 17.0047 109.166 15.743C110.509 15.2953 111.876 14.9127 113.236 14.4976L113.252 14.5138C113.252 14.579 113.268 14.6359 113.301 14.7011H113.309Z" fill="white"/>
<path d="M20.5545 77.1508C20.5789 77.6066 20.6033 78.0625 20.6196 78.5183C20.6196 78.7951 20.6196 79.0637 20.6196 79.3405C20.6196 80.0161 20.6196 80.6836 20.6114 81.3592C20.6114 81.6278 20.6114 81.9046 20.6114 82.1732C20.5952 83.1093 20.5789 84.0454 20.5626 84.9815C20.5626 85.071 20.5545 85.1606 20.5463 85.242C20.5463 85.4292 20.5463 85.6164 20.5463 85.8036C20.5463 85.885 20.5463 85.9583 20.5463 86.0397C20.5463 86.235 20.5463 86.4223 20.5463 86.6176C20.5463 86.699 20.5463 86.7723 20.5463 86.8537C20.5463 87.049 20.5463 87.2363 20.5463 87.4316C20.5463 87.513 20.5463 87.5863 20.5463 87.6677C20.5463 87.863 20.5463 88.0503 20.5463 88.2456C20.5463 88.327 20.5463 88.4003 20.5463 88.4817C20.5463 88.677 20.5463 88.8643 20.5463 89.0596C20.5463 89.141 20.5463 89.2143 20.5463 89.2957C20.5463 89.4829 20.5463 89.6701 20.5463 89.8655C20.5463 89.9469 20.5463 90.0283 20.5463 90.1097C20.5463 90.305 20.5463 90.4923 20.5463 90.6876C20.5463 90.769 20.5463 90.8423 20.5463 90.9237C20.5463 91.119 20.5463 91.3063 20.5463 91.5016C20.5463 91.583 20.5463 91.6563 20.5463 91.7377C20.5545 92.1365 20.5626 92.5354 20.5789 92.9343C20.53 93.2029 20.4893 93.4634 20.4405 93.732C19.1788 93.732 17.9171 93.732 16.6554 93.732C16.6554 93.6669 16.6228 93.6018 16.5821 93.5448C16.5821 93.4145 16.5821 93.2843 16.574 93.1541C16.574 93.0157 16.574 92.8773 16.574 92.7389C16.574 92.6087 16.574 92.4784 16.574 92.3482C16.574 92.2749 16.574 92.2017 16.574 92.1284C16.574 91.9331 16.574 91.7295 16.574 91.5342C16.574 91.4609 16.574 91.3877 16.574 91.3144C16.574 91.1191 16.574 90.9155 16.574 90.7202C16.574 90.6469 16.574 90.5737 16.574 90.5004C16.574 90.305 16.574 90.1015 16.574 89.9062C16.574 89.8329 16.574 89.7597 16.574 89.6946C16.574 89.4992 16.574 89.2957 16.574 89.1003C16.574 89.0271 16.574 88.9538 16.574 88.8887C16.574 88.6933 16.574 88.4898 16.574 88.2945C16.574 88.2212 16.574 88.1479 16.574 88.0828C16.574 87.3421 16.574 86.6095 16.574 85.8687C16.574 85.7955 16.574 85.7222 16.574 85.6571C16.574 85.4617 16.574 85.2582 16.574 85.0629C16.574 84.9896 16.574 84.9164 16.574 84.8431C16.574 84.6477 16.574 84.4442 16.574 84.2489C16.5252 84.1024 16.4763 83.9558 16.4275 83.8093C16.4112 83.4756 16.3949 83.1337 16.3868 82.8V79.6905C16.2891 79.6579 16.1914 79.6335 16.0937 79.6009C15.8658 80.6022 15.646 81.6115 15.4181 82.6127C14.8076 84.8919 14.189 87.1711 13.5785 89.4585C13.2284 90.7609 12.9273 92.0796 12.5365 93.3657C12.4633 93.618 12.0888 93.9436 11.8284 93.9599C10.8841 94.0169 9.93988 93.9681 8.99564 93.9518C8.49096 93.9436 8.20606 93.8053 8.06768 93.1866C7.2374 89.6376 6.32572 86.0967 5.43846 82.5639C5.4059 82.4418 5.31636 82.336 5.25124 82.2139C5.0396 81.465 4.81982 80.7161 4.60818 79.9672C4.50236 79.9835 4.40468 79.9998 4.29886 80.0079V82.0104C4.29072 85.6083 4.25816 89.2062 4.28258 92.804C4.28258 93.6669 4.0221 94.0495 3.14298 93.9681C2.74412 93.9274 2.33712 93.9681 1.93012 93.9681C0.817649 93.9681 0.231568 93.4281 0.171875 92.3482C0.171875 91.4039 0.171875 90.4597 0.171875 89.5155C0.171875 89.1085 0.171875 88.7015 0.171875 88.2945C0.171875 88.1561 0.171875 88.0258 0.171875 87.8875C0.171875 87.7491 0.171875 87.6188 0.171875 87.4805C0.171875 84.371 0.171875 81.2696 0.171875 78.1602C0.180015 76.7031 0.180015 75.2379 0.212575 73.7808C0.212575 73.4797 0.334675 73.1785 0.407935 72.8773C0.619575 72.861 0.823076 72.8447 1.03472 72.8285C1.2952 72.8285 1.55568 72.8285 1.81616 72.8366C1.96268 72.8366 2.10106 72.8366 2.24758 72.8366C2.37782 72.8366 2.49992 72.8366 2.63016 72.8366C2.77668 72.8366 2.91506 72.8366 3.06158 72.8366C3.19182 72.8366 3.31392 72.8366 3.44416 72.8366C4.45352 72.861 5.46288 72.8854 6.47224 72.9017C7.22112 75.5798 7.98628 78.2497 8.71888 80.9359C9.23984 82.8325 9.7201 84.7454 10.2166 86.6502C10.298 86.6502 10.3876 86.6502 10.469 86.6583C10.9004 84.9733 11.3155 83.2721 11.7795 81.5952C12.5772 78.6974 13.3994 75.8158 14.2134 72.9261C14.2785 72.9017 14.3355 72.8773 14.4006 72.8529C14.7995 72.8447 15.1983 72.8285 15.5972 72.8203C16.3461 72.8203 17.1031 72.8203 17.852 72.8203C18.3811 72.8203 18.9183 72.8203 19.4474 72.8203C19.7242 72.8203 20.0009 72.8203 20.2777 72.8285C20.3672 72.9017 20.4568 72.975 20.5545 73.0482C20.5707 73.2029 20.5789 73.3576 20.5952 73.5122C20.587 74.6437 20.5789 75.767 20.5626 76.8985C20.5626 76.988 20.5626 77.0775 20.5626 77.1752L20.5545 77.1508Z" fill="white"/>
<path d="M86.5037 73.0811C86.8537 74.5138 87.1712 75.9546 87.5538 77.3709C88.0747 79.3164 88.6282 81.2456 89.1736 83.1829C89.2306 83.3945 89.2794 83.6062 89.3364 83.8097H89.3283C89.4097 84.2574 89.4504 84.7213 89.5806 85.1609C89.6295 85.34 89.8574 85.5842 90.0202 85.5923C90.1993 85.5923 90.5086 85.4051 90.5493 85.2504C90.6714 84.7783 90.6877 84.2818 90.7447 83.7934C91.1679 82.4177 91.5993 81.0502 92.0063 79.6664C92.6087 77.6233 93.1785 75.5638 93.8134 73.5288C93.8948 73.2602 94.253 72.8939 94.4891 72.8858C96.3694 72.8288 98.2579 72.8532 100.334 72.8532V79.7397C100.317 80.2443 100.293 80.749 100.293 81.2537C100.285 85.397 100.277 89.5484 100.268 93.6916L100.277 93.6754C100.211 93.6754 100.155 93.7079 100.106 93.7568C98.9335 93.8056 97.7532 93.8544 96.581 93.8789C96.5159 93.8789 96.4508 93.6754 96.3857 93.5695C96.3857 93.3335 96.3775 93.0974 96.3694 92.8614C96.3613 92.7555 96.3531 92.6579 96.345 92.552L96.3287 92.2671V91.7136C96.3287 91.2903 96.3287 90.8671 96.3287 90.4438C96.3287 89.8496 96.3124 89.2635 96.3124 88.6692C96.3287 87.9122 96.3368 87.1471 96.3531 86.39C96.3531 86.2761 96.3531 86.1621 96.3531 86.04C96.3531 85.8772 96.3531 85.7144 96.3531 85.5598C96.3368 85.0388 96.3287 84.5097 96.3124 83.9887C96.3368 83.6631 96.3531 83.3375 96.3775 83.0119C96.3775 82.9224 96.3775 82.8329 96.3775 82.7352C96.3775 82.4177 96.3857 82.1003 96.3938 81.7909C96.3857 81.4246 96.3694 81.0583 96.3613 80.692C96.3613 80.456 96.3613 80.2199 96.3613 79.9757C96.3531 79.8211 96.3368 79.6664 96.3287 79.5117C96.3287 79.3734 96.3287 79.2431 96.3368 79.1047C96.3124 78.9419 96.288 78.771 96.2636 78.6082C96.1089 78.9501 95.9054 79.2838 95.8077 79.642C95.417 81.1397 95.0589 82.6538 94.6844 84.1515C94.0495 86.7238 93.4064 89.296 92.7715 91.8601C92.5029 92.5358 92.2343 93.2114 91.9657 93.887C90.94 93.9277 89.8981 94.0498 88.8806 93.9521C88.4817 93.9114 87.8956 93.4556 87.7898 93.073C87.0491 90.4275 86.406 87.7494 85.7304 85.0795C85.5188 84.2329 85.3071 83.3864 85.0955 82.5398C84.9001 81.506 84.6966 80.4723 84.5013 79.4466C84.3873 79.4629 84.2815 79.471 84.1675 79.4873C83.6791 80.1711 83.9396 80.9769 83.9396 81.734C83.9396 82.3445 83.9396 82.955 83.9477 83.5655C83.9477 83.769 83.9477 83.9725 83.9477 84.176C83.9477 84.2411 83.9477 84.3143 83.9477 84.3795C83.9477 84.8516 83.9477 85.3237 83.9477 85.7958C83.9477 85.8609 83.9477 85.9342 83.9477 85.9993C83.9477 86.2028 83.9559 86.4063 83.964 86.6098C83.964 86.6749 83.964 86.7401 83.964 86.8133C83.964 87.9611 83.9559 89.1088 83.9477 90.2565C83.9477 91.2659 83.9396 92.2834 83.9315 93.2928C83.7442 93.4881 83.5733 93.8463 83.3698 93.8626C82.4011 93.944 81.4243 93.944 80.4557 93.9196C80.2929 93.9196 79.9998 93.6347 80.008 93.48C80.0161 86.6505 80.0568 79.8211 80.0894 72.9835C80.0894 72.9509 80.0894 72.9183 80.0975 72.8858C80.2847 72.8451 80.472 72.8044 80.6673 72.7637C80.8708 72.7637 81.0743 72.7718 81.2778 72.78C81.4162 72.78 81.5464 72.78 81.6848 72.78C81.8232 72.78 81.9534 72.78 82.0918 72.78C83.1744 72.78 84.2489 72.78 85.3315 72.78H85.7385C85.8769 72.78 86.0153 72.78 86.1455 72.78C86.2758 72.8695 86.406 72.9672 86.5363 73.0567L86.5037 73.0811Z" fill="white"/>
<path d="M104.744 27.2608C105.257 27.1875 105.77 27.1143 106.445 27.0166C106.307 27.4155 106.274 27.7166 106.128 27.9283C105.094 29.4342 104.06 30.9482 102.97 32.4216C101.757 34.0577 100.023 34.8961 98.0937 35.3764C97.874 35.4334 97.6623 35.5229 97.4507 35.6043C96.7262 35.6857 95.9936 35.7183 95.2854 35.8567C93.0469 36.2881 90.8247 36.7765 88.5862 37.2079C85.2325 37.8428 81.8788 38.4289 78.5252 39.072C75.5622 39.6418 72.6236 40.3174 69.6525 40.7976C68.6188 40.9604 67.9757 41.3023 67.6664 42.2791C65.9081 42.6943 64.1499 43.1094 62.3917 43.5327C62.3184 43.5815 62.237 43.6222 62.1637 43.6711L62.18 43.6548C61.4393 43.8013 60.6985 43.9397 59.9578 44.0862C58.0042 44.4362 56.0506 44.7862 54.097 45.1444C52.7457 45.3479 51.3945 45.5514 50.0433 45.7549C49.5793 45.5351 49.0665 45.3723 48.6595 45.0711C48.0083 44.5909 47.4222 44.0129 46.8117 43.4838C46.5919 43.2885 46.3721 43.085 46.1523 42.8896C46.1768 42.7594 46.2012 42.6291 46.2256 42.507C46.421 42.4175 46.6082 42.3361 46.8035 42.2466C49.1723 41.6523 51.541 41.0744 53.9098 40.4558C55.8797 39.9429 57.8414 39.3894 59.8031 38.8522C59.9415 38.8522 60.0799 38.8847 60.202 38.8522C64.3453 37.7696 68.4804 36.6707 72.6318 35.6043C76.3518 34.6438 80.0799 33.724 83.7999 32.7797C87.5361 31.8273 91.2643 30.8668 94.9924 29.89C97.5076 29.2307 100.015 28.5388 102.522 27.8632C103.198 27.6759 103.873 27.4806 104.549 27.2934C104.614 27.2934 104.687 27.2934 104.752 27.2852L104.744 27.2608Z" fill="white"/>
<path d="M97.8683 37.7695C98.1695 37.794 98.4707 37.8184 99.1626 37.8753C97.152 39.8371 95.5077 41.8884 93.4401 43.3129C92.0319 44.2815 90.0539 44.5176 88.2875 44.8595C85.4711 45.4049 82.6139 45.7712 79.7731 46.2107C79.1544 46.3084 78.5276 46.5038 77.9171 46.4631C76.8264 46.3898 76.5578 47.0654 76.3624 47.8876C74.1402 48.1887 71.9261 48.4818 69.7039 48.783C69.3376 48.7748 68.9631 48.7178 68.5968 48.7585C65.8455 49.0841 63.0942 49.4179 60.3429 49.776C59.8707 49.8412 59.4149 50.0284 58.9509 50.1586C57.7381 50.3051 56.5252 50.4517 55.3123 50.6063C54.71 50.2807 54.0669 50.0202 53.5215 49.6132C52.6668 48.9702 51.8854 48.2294 51.0795 47.5375C50.9412 47.2689 50.8028 46.9922 50.6562 46.7235C51.9342 46.4468 53.2122 46.1619 54.4902 45.8851C56.5252 45.4863 58.5521 45.0874 60.5871 44.6804C61.1243 44.6071 61.6697 44.5257 62.2069 44.4525C64.0954 44.0536 65.9839 43.6548 67.8724 43.2559C68.9794 43.0931 70.0946 42.9629 71.1853 42.7512C74.0506 42.2058 76.8996 41.6035 79.7649 41.0662C82.7116 40.5127 85.6664 40.0243 88.6131 39.4871C91.6982 38.9254 94.7751 38.3475 97.8602 37.7777L97.8683 37.7695Z" fill="white"/>
<path d="M50.2467 78.6978C50.5886 78.6978 50.9224 78.6978 51.2642 78.6978C51.5329 78.6978 51.8015 78.6978 52.0782 78.6978C52.2736 78.7141 52.4608 78.7303 52.6562 78.7466C52.7294 78.7955 52.8108 78.8524 52.8841 78.9013C53.0225 79.1455 53.2748 79.3978 53.2667 79.642C53.1283 85.1447 53.6737 90.6636 52.8597 96.15L52.8678 96.1418C52.7946 96.3453 52.7294 96.557 52.6562 96.7605C51.6387 99.1292 49.6281 99.9106 47.2756 99.9839C45.8186 100.025 44.329 100 42.8963 99.756C40.7718 99.3897 38.981 97.7942 38.7286 95.1976C39.3229 95.1569 39.9252 95.1243 40.5194 95.0836C41.1951 95.1569 41.8707 95.2301 42.5463 95.3115C42.8882 95.5313 43.2463 95.7348 43.5719 95.979C43.9871 96.2883 44.3208 96.8174 44.7767 96.9314C47.5524 97.6314 49.2374 96.2883 49.2374 93.4719C49.2374 93.4068 49.2618 93.3335 49.2374 93.2684C49.1316 92.9916 49.0746 92.5683 48.8874 92.4951C48.6432 92.4055 48.2199 92.5032 47.992 92.6823C46.543 93.8219 44.9313 94.1557 43.1487 93.7649C42.3021 93.2765 41.3579 92.8939 40.6171 92.2672C39.331 91.1764 38.81 89.6298 38.5333 88.0018C38.1507 85.7796 38.3705 83.6388 39.3391 81.5875C40.4055 80.2118 41.5695 78.9501 43.3522 78.5024C45.6069 78.3722 47.7396 78.6164 49.1967 80.6595C49.7583 79.9595 48.8141 78.7303 50.2386 78.6978H50.2467ZM49.3106 86.2029C49.2211 85.511 49.1723 84.8191 49.0257 84.1434C48.749 82.8329 47.4629 81.7096 46.1767 81.5712C44.6708 81.4165 43.7917 81.8642 43.108 83.3701C42.2126 85.3482 42.2126 87.3425 43.4173 89.2228C44.4918 90.9078 46.1686 91.1438 47.7152 89.8903C48.8955 88.9298 49.3188 87.6762 49.3188 86.1947L49.3106 86.2029Z" fill="white"/>
<path d="M76.3856 48.9783C78.0624 48.6934 79.4381 49.3039 80.83 50.2075C83.1581 51.7215 85.5919 53.0809 87.9607 54.5298C88.3351 54.7578 88.6363 55.1241 88.97 55.4252L88.734 55.6776C88.6037 55.6776 88.4816 55.6776 88.3514 55.6857C88.27 55.6857 88.1967 55.6857 88.1153 55.6857L87.5211 55.702C86.0315 55.6857 84.5419 55.6694 83.0522 55.6532C81.4324 55.6532 79.8125 55.6532 78.2008 55.6613C76.0356 55.6613 73.8785 55.6613 71.7132 55.6694C70.2968 55.6694 68.8805 55.6694 67.4641 55.6694C66.3815 55.6694 65.2989 55.6857 64.2244 55.6857C64.0209 55.6857 63.8174 55.6857 63.6139 55.6857C63.5406 55.6857 63.4755 55.6857 63.4023 55.6857C63.1988 55.6857 63.0034 55.6857 62.7999 55.6857L60.773 55.6532C60.3091 55.4822 59.7637 55.4171 59.4055 55.1241C58.4613 54.3426 57.574 53.4716 56.703 52.6088C56.3367 52.2506 56.0518 51.8111 55.7344 51.4041C57.0856 51.2413 58.4287 51.0785 59.78 50.9157C63.1499 50.5087 66.528 50.1017 69.898 49.6947C71.3306 49.5481 72.7633 49.4016 74.1959 49.247C74.9285 49.1656 75.6611 49.0597 76.3937 48.9621L76.3856 48.9783Z" fill="white"/>
<path d="M68.5325 82.1735C68.5813 84.4446 68.6301 86.7156 68.6871 88.9867C68.6953 89.4263 68.7197 89.8577 68.736 90.2972C68.7848 90.574 68.8255 90.8589 68.8743 91.1357C68.9069 91.3229 68.9395 91.5182 68.9639 91.7055C68.9557 91.7706 68.9476 91.8438 68.9395 91.909C68.9883 91.9822 69.029 92.0555 69.0778 92.1287C69.1674 92.6741 69.2488 93.2276 69.3546 93.9277C68.1824 93.9277 67.1161 94.0009 66.066 93.8788C65.7486 93.8381 65.4881 93.2602 65.2602 92.8451C64.3485 92.4543 63.9252 93.4311 63.2089 93.716C61.8251 94.1637 60.4576 94.5056 58.9517 94.1556C57.2097 93.7486 55.5003 92.1532 55.305 90.4926C55.0445 88.2134 56.6562 85.9505 58.911 85.4132C60.5146 85.0225 62.1263 84.6399 63.7217 84.2004C64.0636 84.1027 64.5927 83.7283 64.5764 83.5166C64.5357 82.9712 64.3811 82.2956 64.0148 81.9456C63.4124 81.3758 60.8646 81.213 60.3518 82.0433C59.4889 83.4271 58.3982 83.3864 57.1039 82.9875C57.0144 82.9549 56.9004 82.9875 56.8027 82.9875C55.9562 82.9875 55.7527 82.4991 56.005 81.7991C56.1922 81.2944 56.5015 80.8386 56.7539 80.3664C57.5435 79.8618 58.2923 79.2431 59.147 78.8605C60.9134 78.0791 62.8345 78.3233 64.6334 78.6082C66.5626 78.9175 68.272 79.8455 68.5325 82.1654V82.1735ZM64.6334 86.618C63.038 87.1226 61.5728 87.4971 60.189 88.0669C59.2447 88.4576 59.1145 89.4751 59.725 90.3217C60.425 91.2822 61.6704 91.6241 62.8263 91.1682C64.145 90.6473 64.6497 89.9065 64.6334 88.4902C64.6334 87.9855 64.6334 87.4889 64.6334 86.618Z" fill="white"/>
<path d="M103.151 82.2223C103.949 81.3676 104.649 80.3826 105.577 79.707C106.383 79.1209 107.449 78.8849 108.402 78.4941C109.549 78.4941 110.697 78.4941 111.845 78.5023C112.504 78.7221 113.172 78.9418 113.831 79.1616C113.912 79.2267 113.994 79.2837 114.075 79.3488C114.401 79.5523 114.726 79.764 115.052 79.9675C115.597 80.5617 116.232 81.0908 116.672 81.7501C117.73 83.3456 118.064 85.1527 117.974 87.0493C117.974 87.1795 117.974 87.3098 117.974 87.44C117.836 88.0505 117.698 88.661 117.551 89.2715C117.527 89.3366 117.51 89.4018 117.486 89.4669C116.607 91.3228 115.199 92.674 113.44 93.6915C112.521 93.9032 111.609 94.2451 110.673 94.3102C108.703 94.4648 106.904 93.8788 105.276 92.7554C105.113 92.6415 104.926 92.5764 104.747 92.4868C102.109 89.6215 101.58 86.3981 103.07 82.8165C103.143 82.6374 103.119 82.4176 103.135 82.2223H103.151ZM109.924 81.5385C109.273 81.8804 108.605 82.1897 107.978 82.5641C106.106 83.6793 106.196 87.904 107.238 89.3773C107.946 90.3786 109.012 90.9728 110.184 91.0542C111.56 91.1519 113.001 89.9064 113.465 88.5552C113.929 87.2039 113.961 85.8934 113.514 84.4933C112.895 82.5886 111.943 81.7257 109.924 81.5385Z" fill="white"/>
<path d="M132.935 78.942C134.945 78.3966 136.964 78.2419 138.958 78.942C139.667 79.1943 140.318 79.6094 141.002 79.9513C143.566 82.2387 144.266 85.1446 143.802 88.4332C143.615 88.9135 143.427 89.3937 143.24 89.874C143.126 90.0287 142.996 90.1752 142.906 90.338C141.189 93.4556 137.298 95.051 133.928 93.9766C133.659 93.9033 133.391 93.83 133.122 93.7568C131.03 92.8939 129.475 91.5264 128.751 89.3042C127.904 86.6994 128.181 84.2492 129.459 81.8398C130.24 80.3665 131.575 79.6664 132.935 78.942ZM132.512 86.097C132.512 86.5854 132.503 86.9192 132.512 87.261C132.569 88.8809 133.912 90.5415 135.442 90.8752C137.013 91.2171 138.617 90.4112 139.341 88.7832C140.098 87.0901 139.838 85.4295 139.268 83.6713C138.617 81.6526 135.108 81.1967 133.871 82.5398C132.87 83.6306 132.365 84.7946 132.512 86.1052V86.097Z" fill="white"/>
<path d="M24.543 80.5698C25.9756 79.2918 27.5222 78.2581 29.5816 78.5023C29.8503 78.5023 30.1189 78.5023 30.3956 78.5023C30.4689 78.5023 30.534 78.4941 30.6073 78.486C30.7375 78.486 30.8678 78.486 30.998 78.486C31.6085 78.6976 32.219 78.9011 32.8295 79.1128C32.8865 79.1372 32.9516 79.1616 33.0167 79.1697L33.0086 79.1616C33.147 79.2267 33.2935 79.2837 33.4319 79.3488C33.6272 79.4953 33.8307 79.6419 34.0261 79.7884C36.0855 81.5873 36.7041 84.0049 36.8588 86.5853C36.8751 86.8783 36.6065 87.1877 36.4681 87.4888C36.0611 87.4888 35.6541 87.4888 35.2471 87.4888C35.0436 87.4888 34.8401 87.4888 34.6366 87.4888C33.2202 87.4888 31.8039 87.4888 30.3794 87.4888C29.777 87.4726 29.1665 87.4481 28.5641 87.4481C26.4152 87.4481 26.2605 87.6923 27.3269 89.5971C27.9129 90.6553 28.8897 91.2251 30.0945 91.2821C31.291 91.3472 32.0318 90.6634 32.3899 89.5808C32.6504 88.7912 33.2446 89.0436 33.7086 89.1331C34.604 89.3122 35.475 89.5971 36.4111 89.8494V90.4599C35.0273 93.2438 32.6097 94.3264 29.6956 94.2939C27.2617 94.2695 25.1698 93.3496 23.8836 91.0867C23.786 90.9239 23.6313 90.7937 23.4929 90.6472C22.5405 88.9866 22.508 87.1551 22.7196 85.3561C22.858 84.1433 23.3708 82.9711 23.7127 81.7827C23.8348 81.5792 23.965 81.3675 24.0871 81.164C24.1441 81.0989 24.2011 81.0257 24.2581 80.9605L24.2825 80.928C24.3639 80.8059 24.4372 80.6838 24.5186 80.5617L24.543 80.5698ZM32.8783 85.0143C32.6586 83.7851 32.5202 82.6862 31.4945 82.035C29.5735 80.814 26.985 82.1164 26.7815 84.4119C26.7652 84.591 27.1559 84.9817 27.3676 84.9899C29.1421 85.0387 30.9247 85.0143 32.8783 85.0143Z" fill="white"/>
<path d="M155.597 85.0307C156.337 85.4459 157.159 85.7633 157.786 86.3087C158.975 87.3425 159.325 88.6937 158.869 90.2322C158.812 90.4194 158.836 90.6311 158.82 90.8264C157.949 92.1207 156.964 93.2928 155.393 93.7731C155.312 93.8219 155.23 93.8626 155.157 93.9115C154.994 93.9278 154.815 93.9196 154.66 93.9685C150.533 95.1081 147.123 93.7568 145.088 90.4764C144.99 89.931 144.966 89.5077 145.747 89.4426C146.83 89.3531 147.896 89.117 148.93 88.9461C149.89 91.7137 152.324 91.6241 154.205 90.8834C154.587 90.7369 154.953 90.0368 154.945 89.6054C154.945 89.288 154.359 88.8403 153.952 88.6937C153.122 88.3926 152.227 88.2786 151.38 88.0425C149.312 87.4727 147.212 86.9192 146.032 84.8924C145.584 84.1272 145.34 83.3213 145.43 82.3201C145.536 81.1235 146.301 80.5212 146.968 79.7723C147.725 79.4141 148.458 78.8362 149.255 78.7222C151.852 78.3641 154.481 78.1199 156.826 79.756C156.932 79.8293 157.078 79.8862 157.143 79.9921C157.583 80.7084 158.006 81.4329 158.437 82.1573C157.778 82.369 157.119 82.5806 156.459 82.7922C156.24 82.8655 156.028 82.9388 155.808 83.012C155.312 82.7597 154.742 82.5806 154.327 82.2306C153.399 81.4166 151.307 80.9852 150.208 81.5712C149.833 81.7666 149.443 82.1817 149.361 82.5643C149.312 82.776 149.833 83.2725 150.183 83.3865C151.974 83.9807 153.789 84.4935 155.597 85.0389V85.0307Z" fill="white"/>
<path d="M124.198 73.6346C124.329 73.9846 124.573 74.3346 124.573 74.6765C124.573 75.7998 124.426 76.915 124.434 78.0302C124.434 78.2663 124.858 78.657 125.126 78.6977C125.81 78.8035 126.526 78.7465 127.226 78.7547C127.243 78.95 127.259 79.1373 127.275 79.3326C127.275 79.9024 127.153 80.5129 127.308 81.0339C127.536 81.8072 127.096 81.8886 126.583 81.9618C125.883 82.0677 124.915 81.9049 124.54 82.3119C124.182 82.6944 124.394 83.6468 124.418 84.355C124.467 86.1621 124.508 87.961 124.622 89.7681C124.687 90.81 125.077 91.0542 126.062 90.8507C126.412 90.7775 126.762 90.7042 127.259 90.5984C127.389 91.6322 127.511 92.5683 127.633 93.5044C125.851 94.4568 124.036 94.6928 122.188 93.6916C121.081 92.9346 120.486 91.9822 120.543 90.5414C120.641 87.9529 120.568 85.3562 120.584 82.7677C120.584 82.2467 120.511 81.8804 119.884 81.97C118.753 82.1328 118.378 81.5793 118.492 80.5455C118.574 79.9513 118.663 79.357 118.745 78.7628C118.94 78.7384 119.135 78.7058 119.331 78.6814C119.607 78.6814 119.876 78.6814 120.145 78.6896C120.218 78.6407 120.291 78.5837 120.364 78.5349C120.421 78.4616 120.478 78.3884 120.535 78.3151C120.535 77.436 120.543 76.565 120.552 75.6859C121.764 75.0021 122.977 74.3102 124.198 73.6265V73.6346Z" fill="white"/>
<path d="M103.305 64.949C102.027 66.2269 100.375 66.577 98.6737 66.813C95.434 66.813 92.1861 66.813 88.9464 66.813C88.7755 66.4711 88.6127 66.1293 88.4336 65.7711C89.9151 65.2284 90.6151 64.2164 90.5337 62.7349C90.55 62.1 90.5663 61.465 90.5744 60.8301C90.5907 59.658 90.0453 58.8792 88.9383 58.4939C89.0115 58.0707 88.6534 57.4276 89.5325 57.4357C90.0209 57.4032 90.5093 57.3706 91.0058 57.3462C91.1849 57.3462 91.3721 57.3462 91.5512 57.3462C91.6408 57.3462 91.7303 57.3462 91.8198 57.3543C91.9989 57.3543 92.1861 57.3543 92.3652 57.3543C92.4629 57.3625 92.5524 57.3706 92.6501 57.3788C92.8211 57.3788 92.992 57.3788 93.1629 57.3788C93.3257 57.3788 93.4885 57.3788 93.6432 57.3788C93.7572 57.3706 93.8711 57.3625 93.9851 57.3543C94.1397 57.3543 94.2944 57.3543 94.4491 57.3543C94.563 57.3543 94.6851 57.3381 94.7991 57.3299C94.9537 57.3299 95.1003 57.3299 95.2549 57.3299C95.377 57.3299 95.491 57.3299 95.6131 57.3218C95.6945 57.3218 95.784 57.3299 95.8654 57.3381C96.0526 57.3381 96.2317 57.3381 96.4189 57.3381C96.5085 57.3381 96.5899 57.3381 96.6794 57.3462C96.8585 57.3462 97.0457 57.3462 97.2248 57.3462C97.3225 57.3625 97.412 57.3706 97.5097 57.3869C97.6888 57.4032 97.8597 57.4113 98.0388 57.4276C98.1202 57.4276 98.2016 57.4439 98.2911 57.452C99.5854 57.802 100.929 58.0462 102.174 58.5265C103.468 59.0312 104.005 60.2115 104.152 61.5464C104.29 62.7837 104.087 63.9396 103.314 64.9571L103.305 64.949ZM94.213 62.1895C94.213 62.8651 94.1479 63.5489 94.2456 64.2082C94.2863 64.485 94.6607 64.9083 94.913 64.9245C95.9468 65.0059 97.0132 65.0466 98.0388 64.9164C98.7551 64.8269 99.6424 64.6559 99.6912 63.6466C99.7401 62.6372 99.7075 61.6278 99.6831 60.6185C99.6668 59.9184 99.3005 59.5196 98.5598 59.4789C98.2667 59.4626 97.9818 59.3242 97.6888 59.3242C96.5899 59.3324 95.491 59.3812 94.3921 59.4219C94.3351 60.2766 94.2781 61.1394 94.213 61.9941C94.213 62.0593 94.213 62.1325 94.213 62.1976V62.1895Z" fill="white"/>
<path d="M113.854 66.9597C113.593 66.8132 113.121 66.6748 113.121 66.5202C113.105 66.2271 113.325 65.8934 113.512 65.6248C113.61 65.4782 113.862 65.4538 114.008 65.3317C114.245 65.1445 114.448 64.9166 114.668 64.7049C114.35 64.5258 114.041 64.2084 113.707 64.1758C112.478 64.0619 111.249 64.0374 110.012 63.9805C109.881 63.9723 109.735 63.9153 109.621 63.956C109.076 64.1514 108.538 64.3793 107.993 64.591C108.457 64.9328 108.921 65.2747 109.385 65.6166C109.499 65.8608 109.776 66.1864 109.702 66.3167C109.58 66.5364 109.238 66.6585 108.97 66.7725C108.799 66.8376 108.587 66.8051 108.392 66.8132C107.041 66.8132 105.689 66.8132 104.338 66.8132C104.11 66.7888 103.882 66.7643 103.41 66.7074C103.606 66.2678 103.768 65.9015 103.931 65.5271C104.069 65.4782 104.208 65.4294 104.354 65.3724C104.42 65.3724 104.476 65.3561 104.533 65.3317C105.193 64.6317 105.925 63.9886 106.479 63.2234C107.106 62.3687 107.602 61.4082 108.099 60.464C108.319 60.0407 108.416 59.5523 108.563 59.0965C108.115 58.9499 107.667 58.8034 107.22 58.665C107.122 58.6325 107.024 58.6406 106.813 58.6162C106.813 58.2418 106.813 57.8673 106.813 57.4847C107.073 57.4359 107.334 57.3871 107.586 57.3382C107.773 57.3382 107.96 57.3382 108.148 57.3382C108.367 57.3382 108.587 57.3301 108.807 57.3219C108.986 57.3219 109.173 57.3219 109.352 57.3219C109.442 57.3219 109.531 57.3301 109.621 57.3382C109.8 57.3382 109.987 57.3301 110.166 57.3219C110.256 57.3219 110.345 57.3219 110.435 57.3219C110.614 57.3219 110.801 57.3138 110.98 57.3057C111.07 57.3057 111.159 57.3057 111.249 57.3138C111.428 57.3138 111.615 57.3138 111.794 57.3138C111.884 57.3138 111.973 57.3219 112.063 57.3301C112.242 57.3301 112.429 57.3138 112.608 57.3138C112.698 57.3138 112.787 57.3301 112.877 57.3301C112.991 57.3301 113.105 57.3301 113.219 57.3301C113.439 57.3626 113.658 57.3952 113.87 57.4196C114.334 57.8348 114.896 58.1766 115.246 58.665C116.442 60.3582 117.557 62.1083 118.722 63.8258C119.308 64.6887 119.943 65.4864 121.107 65.5759C121.204 65.5759 121.294 65.8201 121.383 65.9422C121.391 66.5202 121.139 66.805 120.529 66.7643C120.13 66.7399 119.723 66.7806 119.324 66.7888C118.347 66.7806 117.37 66.7399 116.393 66.7643C115.547 66.7806 114.692 66.8702 113.846 66.9353L113.854 66.9597ZM110.85 59.9105C110.459 60.6838 110.134 61.3431 109.654 62.2873C110.752 62.2873 111.648 62.3036 112.551 62.2629C112.657 62.2629 112.828 61.978 112.844 61.8071C112.901 61.0908 111.575 59.886 110.85 59.9023V59.9105Z" fill="white"/>
<path d="M0.171104 78.1278C0.171104 81.2373 0.171104 84.3386 0.171104 87.4481C0.114124 87.1225 0.0164438 86.7969 0.00830376 86.4713C-0.00797625 84.013 -0.00797625 81.5547 0.00830376 79.0964C0.00830376 78.7708 0.114124 78.4452 0.171104 78.1196V78.1278Z" fill="white"/>
<path d="M6.46168 72.8854C5.45232 72.861 4.44295 72.8366 3.43359 72.8203C4.44295 72.8447 5.45232 72.8692 6.46168 72.8854Z" fill="white"/>
<path d="M20.2678 72.804C19.991 72.804 19.7143 72.804 19.4375 72.7959C19.7143 72.7959 19.991 72.7959 20.2678 72.804Z" fill="white"/>
<path d="M107.601 57.3462C107.341 57.395 107.08 57.4439 106.828 57.4927C107.089 57.4439 107.349 57.395 107.601 57.3462Z" fill="white"/>
<path d="M108.823 57.3301C108.604 57.3301 108.384 57.3382 108.164 57.3464C108.384 57.3464 108.604 57.3382 108.823 57.3301Z" fill="white"/>
<path d="M113.886 57.444C113.666 57.4115 113.446 57.3789 113.234 57.3545C113.454 57.3871 113.674 57.4196 113.886 57.444Z" fill="white"/>
<path d="M96.2305 93.5285C96.2712 93.3087 96.3119 93.0889 96.3607 92.8691C96.3607 93.1052 96.3688 93.3413 96.377 93.5773C96.32 93.5773 96.2712 93.5692 96.2305 93.5285Z" fill="white"/>
<path d="M20.5547 77.1508C20.5547 77.0612 20.5547 76.9717 20.5547 76.874C20.6035 76.9554 20.6605 77.0368 20.7093 77.1101L20.6361 77.1508H20.5547Z" fill="white"/>
<path d="M109.648 57.3547C109.558 57.3547 109.468 57.3465 109.379 57.3384C109.468 57.3384 109.558 57.3465 109.648 57.3547Z" fill="white"/>
<path d="M111.265 57.3465C111.175 57.3465 111.086 57.3465 110.996 57.3384C111.086 57.3384 111.175 57.3384 111.265 57.3465Z" fill="white"/>
<path d="M112.073 57.3547C111.984 57.3547 111.894 57.3465 111.805 57.3384C111.894 57.3384 111.984 57.3465 112.073 57.3547Z" fill="white"/>
<path d="M98.2836 57.4439C98.2022 57.4439 98.1208 57.4276 98.0312 57.4194C98.1127 57.4194 98.194 57.4357 98.2836 57.4439Z" fill="white"/>
<path d="M96.6706 57.3299C96.5811 57.3299 96.4997 57.3299 96.4102 57.3218C96.4997 57.3218 96.5811 57.3218 96.6706 57.3299Z" fill="white"/>
<path d="M95.8656 57.3219C95.7842 57.3219 95.6947 57.3138 95.6133 57.3057C95.6947 57.3057 95.7842 57.3138 95.8656 57.3219Z" fill="white"/>
<path d="M16.5726 84.8027C16.5726 84.876 16.5726 84.9493 16.5726 85.0225C16.5563 84.9737 16.5238 84.9248 16.5156 84.8679C16.5156 84.8516 16.5482 84.8272 16.5726 84.8027Z" fill="white"/>
<path d="M16.5726 85.6165C16.5726 85.6898 16.5726 85.7631 16.5726 85.8282C16.5563 85.7793 16.5319 85.7305 16.5156 85.6735C16.5156 85.6572 16.5482 85.6328 16.5726 85.6084V85.6165Z" fill="white"/>
<path d="M91.8116 57.3543C91.7221 57.3543 91.6325 57.3543 91.543 57.3462C91.6325 57.3462 91.7221 57.3462 91.8116 57.3543Z" fill="white"/>
<path d="M16.5648 88.0506C16.5648 88.1239 16.5648 88.1971 16.5648 88.2623C16.5485 88.2134 16.516 88.1646 16.5078 88.1076C16.5078 88.0913 16.5404 88.0669 16.5648 88.0425V88.0506Z" fill="white"/>
<path d="M16.5723 88.8564C16.5723 88.9297 16.5723 89.003 16.5723 89.0681C16.556 89.0192 16.5316 88.9704 16.5234 88.9216C16.5234 88.9053 16.556 88.8809 16.5723 88.8564Z" fill="white"/>
<path d="M16.5723 89.6704C16.5723 89.7437 16.5723 89.8169 16.5723 89.882C16.556 89.8332 16.5316 89.7844 16.5234 89.7355C16.5234 89.7192 16.556 89.6948 16.5723 89.6704Z" fill="white"/>
<path d="M20.5355 89.8493C20.5925 89.833 20.6494 89.8412 20.6983 89.8656C20.6413 89.9388 20.5843 90.0121 20.5273 90.0854C20.5273 90.004 20.5273 89.9226 20.5273 89.8412L20.5355 89.8493Z" fill="white"/>
<path d="M16.5723 90.4761C16.5723 90.5493 16.5723 90.6226 16.5723 90.6959C16.556 90.647 16.5316 90.5982 16.5234 90.5412C16.5234 90.5249 16.556 90.5005 16.5804 90.4761H16.5723Z" fill="white"/>
<path d="M16.5726 91.29C16.5726 91.3633 16.5726 91.4366 16.5726 91.5098C16.5563 91.461 16.5319 91.4121 16.5156 91.3552C16.5156 91.3389 16.5482 91.3145 16.5726 91.29Z" fill="white"/>
<path d="M16.5726 92.0962C16.5726 92.1695 16.5726 92.2427 16.5726 92.316C16.5563 92.2671 16.5238 92.2183 16.5156 92.1613C16.5156 92.145 16.5482 92.1206 16.5726 92.0962Z" fill="white"/>
<path d="M16.5798 93.5205C16.6205 93.5775 16.6449 93.6426 16.653 93.7077C16.6123 93.667 16.5716 93.6345 16.5391 93.5938C16.5391 93.5856 16.5635 93.5449 16.5798 93.5205Z" fill="white"/>
<path d="M100.098 93.765C100.146 93.7162 100.203 93.6917 100.269 93.6836C100.212 93.708 100.155 93.7406 100.098 93.765Z" fill="white"/>
<path d="M113.311 14.7009C113.278 14.6439 113.27 14.5788 113.262 14.5137C113.286 14.5544 113.319 14.5869 113.335 14.6276C113.335 14.6439 113.319 14.6683 113.302 14.6928L113.311 14.7009Z" fill="white"/>
<path d="M54.9137 65.5189C55.0521 65.6003 55.1823 65.6817 55.3207 65.7631C55.2474 66.0887 55.1742 66.4062 55.1009 66.7318C52.8787 66.7399 50.6565 66.7399 48.4342 66.7725C47.84 66.7806 47.5551 66.5609 47.5795 65.9666C48.0191 65.755 48.5319 65.6329 48.8738 65.3154C49.2157 64.9898 49.5168 64.5014 49.5901 64.0456C49.6389 63.7607 49.2319 63.4025 49.0284 63.0769C48.5563 63.0769 48.0923 63.0769 47.6202 63.0769C47.4167 63.0769 47.2132 63.0769 47.0016 63.0769C46.9365 63.0769 46.8713 63.0769 46.8062 63.0769H45.3817C45.3166 63.0688 45.2515 63.0688 45.1864 63.0688H44.5677C44.5026 63.0688 44.4375 63.0769 44.3724 63.0851C43.4932 63.4432 43.2735 64.0212 43.8514 64.7131C44.1526 65.0712 44.6735 65.234 45.0317 65.5596C45.3329 65.8364 45.5282 66.2271 45.7724 66.5609C45.6259 66.6178 45.4875 66.6911 45.341 66.7562C43.0537 66.7562 40.7663 66.7562 38.4871 66.7562C38.2836 66.6178 38.0883 66.4795 37.8848 66.3329C37.8848 66.2678 37.8766 66.2108 37.8359 66.1538C38.1941 65.8852 38.5441 65.6166 38.9023 65.348C39.0325 65.3317 39.1709 65.3154 39.3011 65.2992C39.4639 65.2178 39.6267 65.1363 39.7977 65.0549L39.8302 65.0061C39.8465 64.9166 39.8628 64.8189 39.8791 64.7293L39.9198 64.7456C39.9361 64.7212 39.9768 64.7049 39.9768 64.6805C39.9768 64.6235 39.9523 64.5747 39.9442 64.5177C39.9442 64.3305 39.9442 64.1351 39.9442 63.9479C39.9605 63.9235 40.0012 63.8991 40.0012 63.8747C39.993 63.8177 39.9686 63.7607 39.9442 63.7037C39.9442 63.3781 39.9442 63.0525 39.9442 62.7269C39.9442 62.5804 39.9442 62.4339 39.9442 62.2873C39.9442 61.8234 39.9442 61.3675 39.9523 60.9035C39.9523 60.8221 39.9523 60.7407 39.9605 60.6593C39.9605 60.407 39.9605 60.1465 39.9605 59.8942C39.9768 59.8698 40.0093 59.8372 40.0093 59.8209C39.993 59.7639 39.9686 59.7151 39.9442 59.6581C39.7407 58.9337 39.3907 58.429 38.5197 58.6488C38.3813 58.5836 38.2429 58.5104 38.1046 58.4453C38.0394 58.372 37.9662 58.2987 37.9011 58.2255C38.0964 57.9569 38.2918 57.6882 38.4871 57.4196C38.8453 57.3871 39.2035 57.3545 39.5616 57.3219C39.8628 57.3219 40.1721 57.3219 40.4733 57.3219C40.571 57.3219 40.6605 57.3301 40.7582 57.3382C40.9373 57.3382 41.1245 57.3382 41.3036 57.3464C41.3931 57.3464 41.4827 57.3545 41.5641 57.3626C42.2885 57.3626 43.013 57.3626 43.7374 57.3626C44.2177 57.3871 44.7061 57.4115 45.1864 57.4359C45.3003 57.444 45.4061 57.4603 45.5201 57.4685C45.6178 57.6638 45.7155 57.8592 45.8131 58.0545C45.455 58.258 45.1131 58.5104 44.7305 58.6569C43.827 58.9906 43.6642 59.6825 43.7619 60.5128C43.8677 61.3757 44.5514 61.0745 45.0236 61.0826C46.1632 61.1233 47.3109 61.0663 48.4586 61.107C49.1424 61.1315 49.639 61.0501 49.6552 60.2116C49.6715 59.243 49.2808 58.7627 48.4668 58.6325C48.1493 58.5836 47.8726 58.2499 47.5714 58.0545C47.726 57.851 47.8807 57.6557 48.0272 57.4522C48.0923 57.4522 48.1493 57.444 48.2144 57.4359C48.6377 57.4115 49.061 57.3789 49.4761 57.3545C50.1355 57.3382 50.7948 57.3219 51.4542 57.3057C51.6495 57.3301 51.8449 57.3464 52.0403 57.3708H52.3007C52.6915 57.3708 53.074 57.3708 53.4648 57.3708C53.8799 57.3871 54.3032 57.4115 54.7183 57.4278C55.0032 57.5743 55.2963 57.7208 55.8498 58.0057C55.1497 58.315 54.759 58.5185 54.3439 58.6732C53.709 58.9092 53.2206 59.1941 53.2775 60.0081C53.3345 60.8384 53.3101 61.6768 53.3264 62.5153C53.3264 63.0525 53.3264 63.5979 53.3264 64.1351C53.302 65.2178 53.5462 65.4294 54.9137 65.5108V65.5189Z" fill="white"/>
<path d="M39.9339 59.6743C39.9583 59.7313 39.9909 59.7801 39.999 59.8371C39.999 59.8534 39.9665 59.886 39.9502 59.9104C39.9502 59.829 39.9339 59.7557 39.9258 59.6743H39.9339Z" fill="white"/>
<path d="M39.9691 60.6758C39.9691 60.7572 39.9691 60.8386 39.9609 60.92C39.9609 60.8386 39.9609 60.7572 39.9691 60.6758Z" fill="white"/>
<path d="M39.9609 63.7202C39.9772 63.7772 40.0098 63.8342 40.0179 63.8912C40.0179 63.9156 39.9854 63.94 39.9609 63.9644C39.9609 63.883 39.9609 63.8016 39.9609 63.7202Z" fill="white"/>
<path d="M39.9502 64.5342C39.9665 64.5912 39.9828 64.64 39.9828 64.697C39.9828 64.7214 39.9502 64.7377 39.9258 64.7621C39.9258 64.6888 39.9421 64.6156 39.9421 64.5342H39.9502Z" fill="white"/>
<path d="M86.9697 57.3872C87.0756 57.3872 87.1814 57.3872 87.2872 57.3954C87.3767 57.4116 87.4581 57.4198 87.5477 57.4361C87.7268 57.6884 87.914 57.9326 88.0931 58.1849C87.8244 58.3559 87.5477 58.5105 87.2872 58.6896C86.9372 58.9338 86.5953 59.1943 86.2534 59.4385C86.229 59.6664 86.2046 59.8862 86.1883 60.1141C86.1964 60.8467 86.2127 61.5875 86.2209 62.3201C86.2209 63.4597 86.229 64.5993 86.2371 65.7307C86.1883 65.9994 86.1395 66.2761 86.0825 66.5447C85.9115 66.6261 85.7487 66.7808 85.5778 66.7808C84.4708 66.7971 83.3474 66.6913 82.2485 66.8052C81.1008 66.9273 80.4333 66.4471 79.8228 65.5516C78.9518 64.2737 77.9669 63.0771 77.0308 61.8479C76.7052 61.4816 76.3877 61.1153 76.0621 60.749C75.8993 60.8142 75.7365 60.8793 75.5819 60.9363C75.5819 62.084 75.5412 63.2317 75.5982 64.3795C75.6307 65.0795 76.0865 65.4133 76.7947 65.34C77.1203 65.7307 77.4459 66.1133 77.7715 66.504C77.6983 66.5936 77.6169 66.6831 77.5436 66.7727C75.6307 66.7727 73.7178 66.7726 71.8049 66.7645C71.6584 66.7645 71.5119 66.6343 71.3653 66.561C71.52 66.2354 71.6177 65.8528 71.8619 65.6086C72.0817 65.3888 72.4561 65.3156 72.7573 65.1772C72.8875 65.0307 73.0178 64.8923 73.148 64.7458C73.205 64.2085 73.262 63.6713 73.3189 63.1341C73.3352 62.1003 73.3759 61.0746 73.3759 60.0409C73.3759 59.2757 73.1968 58.6978 72.2282 58.6408C71.8293 58.6164 71.463 58.2338 70.9258 57.9245C71.3084 57.7047 71.5281 57.5826 71.7398 57.4605C72.1549 57.4116 72.5619 57.3628 72.9771 57.314C73.962 57.3302 74.9551 57.3465 75.94 57.3547C76.0377 57.3547 76.1272 57.3547 76.2249 57.3465C76.5424 57.3465 76.8598 57.3465 77.1773 57.3384C77.2668 57.3384 77.3564 57.3384 77.4378 57.3384C77.5517 57.3384 77.6738 57.3384 77.7878 57.3384C77.9994 57.3872 78.203 57.4279 78.4146 57.4768C79.1553 58.3152 79.9368 59.1292 80.6205 60.0083C81.6136 61.2863 82.5416 62.6131 83.5998 64.0539C83.7056 63.7202 83.8603 63.4434 83.8684 63.1666C83.901 62.2224 83.8196 61.2781 83.901 60.3339C83.9824 59.3408 83.5916 58.8524 82.6393 58.6571C82.3544 58.6001 82.1264 58.2338 81.8741 58.0059C82.0695 57.8186 82.2567 57.6314 82.452 57.4442C82.9404 57.4116 83.4288 57.3791 83.9172 57.3547C84.1045 57.3547 84.2835 57.3547 84.4708 57.3547C84.6905 57.3547 84.9103 57.3547 85.1382 57.3465C85.3255 57.3465 85.5127 57.3465 85.6918 57.3465C86.1232 57.3628 86.5465 57.3872 86.9779 57.4035L86.9697 57.3872Z" fill="white"/>
<path d="M55.6839 62.9306C55.8223 62.0352 55.7816 61.0502 56.1398 60.2525C57.0921 58.1361 59.0864 57.55 61.1784 57.2163C62.3994 57.2163 63.6123 57.2163 64.8333 57.2163C65.0368 57.2163 65.2403 57.2163 65.4438 57.2163C65.6473 57.2814 65.8426 57.3547 66.0461 57.4198C68.073 57.5175 70.4662 59.178 70.8162 60.9282C70.9464 61.5794 70.9139 62.2631 70.9546 62.9306C70.5883 63.6632 70.222 64.4039 69.8475 65.1365C68.2439 66.6506 66.2496 67.1553 64.1495 67.1471C62.5704 67.1471 60.9505 67.0332 59.4283 66.6669C57.4991 66.211 56.1153 64.9819 55.6758 62.9225L55.6839 62.9306ZM63.946 59.0804C60.8121 59.0804 60.5354 59.2594 60.0144 61.3677C59.6725 62.7678 60.3319 64.3795 61.504 64.99C62.5948 65.5598 65.4845 65.1447 66.1357 64.3307C66.2008 64.2493 66.2578 64.1679 66.2904 64.0702C66.7462 62.719 66.9009 61.3596 66.2008 60.0409C65.5903 58.885 64.4751 59.0722 63.9379 59.0804H63.946Z" fill="white"/>
<path d="M86.082 66.5528C86.1309 66.2842 86.1797 66.0074 86.2367 65.7388C86.1879 66.0074 86.139 66.2842 86.082 66.5528Z" fill="white"/>
<path d="M80.6362 72.7959C80.449 72.8366 80.2618 72.8773 80.0664 72.918C80.2536 72.8773 80.4408 72.8366 80.6362 72.7959Z" fill="white"/>
<path d="M89.3347 83.8177C89.2777 83.6061 89.2289 83.3944 89.1719 83.1909C89.2289 83.4026 89.2777 83.6142 89.3347 83.8177Z" fill="white"/>
<path d="M83.9222 84.412C83.9222 84.3469 83.9222 84.2736 83.9222 84.2085C83.9385 84.2573 83.9629 84.3062 83.971 84.355C83.971 84.3713 83.9385 84.3957 83.9141 84.412H83.9222Z" fill="white"/>
<path d="M83.9219 86.0316C83.9219 85.9665 83.9219 85.8932 83.9219 85.8281C83.9382 85.877 83.9707 85.9258 83.9789 85.9746C83.9789 85.9909 83.9463 86.0153 83.9219 86.0316Z" fill="white"/>
<path d="M83.9492 86.8378C83.9492 86.7727 83.9492 86.7075 83.9492 86.6343C83.9736 86.6831 83.9981 86.7238 84.0143 86.7808C84.0143 86.7971 83.9736 86.8215 83.9574 86.8378H83.9492Z" fill="white"/>
<path d="M51.2734 49.1494C51.3386 49.2227 51.4037 49.2959 51.4607 49.3611C51.3955 49.2878 51.3304 49.2145 51.2734 49.1494Z" fill="white"/>
<path d="M59.7644 38.0464C59.6423 38.0789 59.5284 38.1115 59.4062 38.1441C59.5284 38.1115 59.6504 38.0789 59.7644 38.0464Z" fill="white"/>
<path d="M20.5632 84.9814C20.5632 85.071 20.555 85.1605 20.5469 85.2419C20.5469 85.1524 20.555 85.0628 20.5632 84.9814Z" fill="white"/>
<path d="M96.3037 79.1211C96.2793 78.9501 96.2549 78.7873 96.2305 78.6245C96.2549 78.7955 96.2793 78.9583 96.3037 79.1211Z" fill="white"/>
<path d="M46.1523 42.8655C46.1768 42.7353 46.2012 42.605 46.2256 42.4829C46.2012 42.6132 46.1768 42.7434 46.1523 42.8655Z" fill="white"/>
<path d="M83.9066 57.3462C83.4182 57.3788 82.9298 57.4113 82.4414 57.4357C82.9298 57.4032 83.4182 57.3706 83.9066 57.3462Z" fill="white"/>
<path d="M86.1797 60.1219C86.2041 59.894 86.2285 59.6742 86.2448 59.4463C86.2204 59.6742 86.196 59.894 86.1797 60.1219Z" fill="white"/>
<path d="M85.1206 57.3301C84.9008 57.3301 84.681 57.3301 84.4531 57.3382C84.6729 57.3382 84.8927 57.3382 85.1206 57.3301Z" fill="white"/>
<path d="M76.2146 57.3462C76.1169 57.3462 76.0274 57.3462 75.9297 57.3543C76.0274 57.3543 76.1169 57.3543 76.2146 57.3462Z" fill="white"/>
<path d="M44.5665 63.0771C44.5013 63.0771 44.4362 63.0853 44.3711 63.0934C44.4362 63.0934 44.5013 63.0853 44.5665 63.0771Z" fill="white"/>
<path d="M45.379 63.0771L45.2813 63.1097L45.1836 63.0771C45.2487 63.0771 45.3138 63.0771 45.379 63.0771Z" fill="white"/>
<path d="M41.3008 57.3706C41.3903 57.3706 41.4799 57.3787 41.5613 57.3869C41.4717 57.3869 41.3822 57.3787 41.3008 57.3706Z" fill="white"/>
<path d="M40.4727 57.3384C40.5703 57.3384 40.6599 57.3465 40.7576 57.3547C40.6599 57.3547 40.5703 57.3465 40.4727 57.3384Z" fill="white"/>
</g>
<defs>
<clipPath id="clip0_396_7709">
<rect width="159.064" height="100" fill="white"/>
</clipPath>
</defs>
</svg>
