<svg width="100" height="85" viewBox="0 0 100 85" fill="none" xmlns="http://www.w3.org/2000/svg">
<g clip-path="url(#clip0_396_8107)">
<path d="M99.7901 59.3374C99.7793 50.9349 99.7738 42.5325 99.7684 34.1354C99.8335 39.1986 99.9094 44.2617 99.9582 49.3303C99.9582 38.4559 99.9582 27.5056 99.9582 16.8318C99.9582 16.7993 99.9582 16.7667 99.9582 16.7342V16.6854C99.9582 16.6854 99.9582 16.6854 99.9582 16.6909C99.9419 16.0187 99.6383 15.4115 99.2263 14.8261C98.7113 14.0888 98.0391 13.5196 97.2802 13.0642C94.3854 11.335 91.225 10.8796 87.9454 11.3675C83.5381 12.0234 81.5595 14.04 80.7626 18.4039C80.3886 20.4367 80.3615 22.4858 80.3832 24.5458C80.4536 31.3436 80.3832 38.1415 80.2802 44.9339C80.1826 51.5963 80.188 58.2586 80.394 64.9155C80.4211 65.8642 80.5133 66.8074 80.5675 67.7561C80.7193 70.3798 82.2642 71.9248 84.5844 72.7488C88.0213 73.9685 91.5449 74.0064 95.0468 73.1011C97.5404 72.456 99.1288 70.8189 99.763 68.2873C99.9256 67.6477 99.8931 67.4091 99.8931 67.4037C99.8931 67.4796 99.9311 66.7261 99.9148 66.699C99.9148 64.4114 99.9636 62.6387 99.9636 60.3294C99.763 60.0096 99.7955 59.668 99.7955 59.3374H99.7901ZM91.6316 65.6094C89.8156 66.6448 87.6635 65.4847 87.5605 63.3868C87.528 62.7797 87.5605 62.1671 87.5605 61.5599C87.5605 48.3491 87.5605 35.1437 87.5605 21.9329C87.5605 21.2987 87.5605 20.659 87.8803 20.0844C88.417 19.114 89.6204 18.6044 90.7968 18.8321C91.8972 19.0435 92.8676 20.0681 92.9652 21.1469C93.0031 21.5968 93.0085 22.0467 93.0085 22.5021C93.0085 29.1156 93.0085 35.7346 93.0085 42.3481H93.0194C93.0194 49.0972 93.0139 55.8517 93.0248 62.6008C93.0248 63.8422 92.8242 64.9263 91.6262 65.604L91.6316 65.6094Z" fill="white"/>
<path d="M100.003 57.4777C100.003 54.7564 99.9865 52.046 99.9648 49.3301C99.9648 53.0109 99.9648 56.6809 99.9648 60.3292C99.9811 60.3508 99.9865 60.3779 100.003 60.3996C100.003 59.4239 100.003 58.4535 100.003 57.4777Z" fill="white"/>
<path d="M0 11.3838C4.26086 11.2049 8.52713 11.1236 12.7934 11.27C13.7854 11.3025 14.7666 11.4868 15.7207 11.7578C17.4825 12.262 18.5559 13.4221 18.9733 15.2056C19.4124 17.092 19.4395 19.0111 19.4449 20.9301C19.4557 29.3054 19.4232 37.6808 19.4178 46.0561C19.4178 48.0347 18.9136 49.7694 17.1518 50.9078C15.9484 51.6776 14.5986 52.03 13.1946 52.1709C11.6225 52.3281 10.0396 52.3552 8.46208 52.2143C7.91457 52.1655 7.71941 52.2848 7.70857 52.8811C7.60557 58.5459 7.64352 64.2108 7.68689 69.8757C7.69231 70.9165 7.68689 71.9519 7.73025 72.9873C7.75736 73.5348 7.61642 73.7354 7.03095 73.7246C4.75416 73.6812 2.47195 73.6866 0.195154 73.6758C0.130102 73.6758 0.0650512 73.7029 0 73.7191C0 52.9461 0 32.1622 0 11.3838ZM7.46463 31.219H7.4321C7.4321 33.3657 7.4321 35.507 7.4321 37.6537C7.4321 39.4805 7.45379 41.3074 7.44837 43.1396C7.44837 43.6329 7.54594 43.8877 8.1314 43.8281C8.82528 43.7576 9.53001 43.8064 10.2293 43.801C11.693 43.7902 12.6308 42.912 12.6308 41.4646C12.6308 34.7155 12.6254 27.9664 12.5983 21.2174C12.5928 19.732 11.6171 18.7834 10.1263 18.7292C9.51916 18.7075 8.9066 18.7617 8.29945 18.7021C7.6652 18.6424 7.43752 18.8213 7.44294 19.5044C7.47547 23.4074 7.45921 27.3159 7.45921 31.219H7.46463Z" fill="white"/>
<path d="M91.8835 0C94.041 2.86225 95.8679 5.95761 98.0254 8.81986C98.1555 8.99333 98.4049 9.17222 98.3073 9.39448C98.1772 9.69805 97.8682 9.5029 97.6351 9.5029C96.3015 9.51374 94.9734 9.49748 93.6399 9.53001C93.152 9.54085 92.8538 9.38906 92.6099 8.94997C91.8347 7.55136 91.0107 6.17987 90.2247 4.78669C89.8831 4.18496 89.7259 4.68911 89.5958 4.8951C88.8152 6.1365 88.0238 7.37247 87.3136 8.65181C86.9667 9.28064 86.5872 9.55711 85.8391 9.51374C84.6248 9.44869 83.4051 9.51374 82.1854 9.51374C81.9469 9.51374 81.6271 9.62758 81.5024 9.37822C81.3669 9.11801 81.6758 8.94996 81.8114 8.76023C83.8876 5.89256 85.8337 2.93273 87.8123 0H91.878L91.8835 0Z" fill="white"/>
<path d="M26.9701 84.5665C26.5906 82.3493 26.7912 80.1159 26.7316 77.8879C26.7208 77.5138 26.9647 77.4163 27.2574 77.4217C28.2495 77.4379 29.2415 77.3512 30.2281 77.5247C31.0033 77.6602 31.4532 78.1969 31.6809 78.8908C31.8761 79.4871 31.5996 79.9966 31.1171 80.3707C30.7593 80.6471 30.7973 80.8043 31.1659 81.0591C32.4995 81.9807 32.3423 83.4823 30.8623 84.1762C30.6835 84.2575 30.4504 84.2846 30.4991 84.5719H26.9755L26.9701 84.5665ZM29.0572 83.6178C29.4312 83.5907 29.8595 83.6558 30.2823 83.5473C30.9057 83.3847 31.2039 82.9998 31.1063 82.3601C31.025 81.7964 30.7865 81.3248 30.098 81.3085C29.6264 81.2922 29.1602 81.2651 28.6885 81.2543C27.729 81.238 27.7182 81.2434 27.6803 82.2029C27.6152 83.9322 27.5447 83.6124 29.0518 83.6178H29.0572ZM28.9433 80.3544C29.2361 80.3544 29.5288 80.3761 29.8161 80.3544C30.4016 80.3056 30.7648 80.04 30.8027 79.3949C30.8352 78.7444 30.472 78.4354 29.9083 78.3378C29.4692 78.2565 29.0138 78.2782 28.5693 78.2402C27.973 78.1915 27.7074 78.3812 27.7182 79.0642C27.7399 80.3761 27.6911 80.3761 28.9433 80.3598V80.3544Z" fill="white"/>
<path d="M36.4558 84.5664C36.2715 82.3872 36.3474 80.2026 36.3203 78.0233C36.3203 77.6818 36.3745 77.4813 36.7757 77.4704C37.99 77.4325 39.2043 77.3186 40.4131 77.5192C41.2154 77.6547 41.7304 78.1806 41.8822 78.9829C42.0448 79.8177 41.8171 80.3218 41.0745 80.788C40.18 81.3518 40.1963 81.3355 40.8739 82.127C41.5027 82.8588 42.034 83.672 42.4189 84.561H41.4702C41.0474 83.9051 40.592 83.2708 40.2125 82.5878C39.6867 81.6391 38.9549 81.1838 37.849 81.2868C37.4208 81.3247 37.2527 81.4331 37.2473 81.8668C37.231 82.7667 37.1714 83.6611 37.1335 84.561H36.4558V84.5664ZM38.6567 78.1968C38.3423 78.1968 38.0279 78.2077 37.7135 78.1968C37.4099 78.1806 37.2419 78.2836 37.2473 78.6088C37.2581 79.1021 37.2527 79.5954 37.2581 80.0941C37.2581 80.311 37.3069 80.5604 37.5563 80.5387C38.4236 80.4574 39.3072 80.7447 40.1638 80.4574C40.6516 80.2947 40.9661 79.9478 40.9606 79.4111C40.9606 78.8528 40.6679 78.5004 40.1258 78.3269C39.6379 78.1697 39.1446 78.2565 38.6513 78.2077L38.6567 78.1968Z" fill="white"/>
<path d="M57.3247 84.5664C57.2651 84.2411 56.9615 84.1869 56.7338 84.0623C56.2568 83.8021 55.9315 83.4117 55.7201 82.9239C55.5954 82.6311 55.5791 82.295 55.8936 82.1595C56.1863 82.0294 56.3272 82.3276 56.4031 82.5607C56.8097 83.8346 58.6962 84.0514 59.5798 83.5961C60.0081 83.3738 60.2303 83.0485 60.2628 82.5878C60.3008 82.1161 60.0189 81.8397 59.6286 81.6445C59.119 81.3843 58.5444 81.3464 58.0131 81.1729C57.2922 80.9398 56.5116 80.7934 56.0941 80.0345C55.6984 79.3189 55.7526 78.7172 56.2893 78.1101C57.2813 76.9879 59.5364 77.0421 60.458 78.2185C60.5664 78.3594 60.6586 78.5166 60.7399 78.6793C60.8862 78.972 61.0055 79.3677 60.7128 79.5412C60.3658 79.7472 60.1869 79.3515 60.0135 79.0967C59.4172 78.2076 58.6853 77.9041 57.6987 78.1805C57.1675 78.3269 56.7175 78.6467 56.685 79.2268C56.6579 79.7635 57.1295 79.9749 57.5632 80.1212C58.2246 80.3381 58.9022 80.5115 59.5635 80.7284C60.3604 80.9886 60.9947 81.4765 61.1139 82.3438C61.2278 83.1895 60.6911 83.7262 60.0081 84.1219C59.8292 84.2303 59.672 84.3496 59.6232 84.5664H57.3193H57.3247Z" fill="white"/>
<path d="M45.6695 84.5668C46.2983 82.496 47.1765 80.5227 47.9192 78.4899C48.0872 78.0291 48.2282 77.4111 48.7974 77.4111C49.3991 77.4111 49.5346 78.0345 49.7243 78.5224C50.364 80.1324 51.0037 81.7479 51.6867 83.3416C51.8602 83.7428 51.8168 84.1873 52.0391 84.5668H51.2259C50.9712 83.965 50.6893 83.3796 50.4779 82.7616C50.3586 82.4147 50.1526 82.3117 49.8273 82.3117C49.1497 82.3117 48.4721 82.3008 47.7945 82.29C47.5072 82.29 47.2687 82.3225 47.1548 82.6532C46.9434 83.2928 46.7049 83.9271 46.4772 84.5613H45.6641L45.6695 84.5668ZM48.8028 81.5581C49.0467 81.5581 49.2961 81.5419 49.54 81.5581C49.9629 81.5961 49.9791 81.3955 49.8653 81.0757C49.6322 80.4252 49.4316 79.7584 49.1768 79.1133C49.0847 78.8856 49.0738 78.4899 48.7594 78.5116C48.5155 78.5278 48.4938 78.891 48.4179 79.1187C48.277 79.5416 48.1794 79.9807 48.0276 80.4035C47.5831 81.5853 47.5777 81.5798 48.8028 81.5581Z" fill="white"/>
<path d="M71.2863 84.5667C70.9068 82.9188 71.1778 81.2491 71.102 79.5903C71.0803 79.0482 71.0857 78.5115 71.0532 77.9694C71.0369 77.655 71.0965 77.4165 71.4597 77.4165C71.8229 77.4165 71.9639 77.6171 71.9639 77.9803C71.953 79.6011 71.9801 81.222 71.9314 82.8429C71.9151 83.4825 72.1374 83.6831 72.7445 83.6343C73.3733 83.5855 74.0184 83.6668 74.631 83.5584C75.2652 83.4446 75.4604 83.6235 75.3465 84.2306C75.3249 84.339 75.3465 84.4529 75.3465 84.5667H71.2808H71.2863Z" fill="white"/>
<path d="M65.5922 84.5667C65.5814 82.4309 65.5651 80.295 65.5706 78.1538C65.5706 77.8502 65.4296 77.4165 65.988 77.4165C66.4975 77.4165 66.5246 77.758 66.5192 78.1592C66.4758 80.295 66.4433 82.4309 66.4108 84.5667H65.5977H65.5922Z" fill="white"/>
<path d="M70.6145 42.9012C70.7771 43.0367 70.9289 43.2047 71.1132 43.3186C72.6907 44.3106 73.3846 45.7743 73.6014 47.5957C73.8724 49.9104 74.0134 52.2252 74.008 54.5562C74.0025 58.6869 73.802 62.8231 73.9863 66.9538C74.0839 69.0734 74.214 71.193 74.7723 73.253C74.8699 73.6162 74.7777 73.7246 74.4037 73.7246C72.0564 73.7138 69.7037 73.7029 67.3565 73.7246C66.7981 73.73 66.6138 73.3939 66.4512 72.9819C65.6977 71.1171 65.3345 69.1656 65.3507 67.1653C65.3778 63.5061 65.4917 59.8524 65.5513 56.1933C65.5838 54.3664 65.7139 52.5396 65.4808 50.7127C65.2369 48.81 64.4509 48.0402 62.521 47.986C60.6779 47.9372 60.9218 47.6607 60.9164 49.5093C60.8785 56.8926 60.6833 64.2759 60.7646 71.6646C60.7646 71.914 60.7646 72.1634 60.7646 72.4073C60.7646 73.73 60.7646 73.7192 59.404 73.7083C57.4633 73.6975 55.5171 73.6812 53.5765 73.7192C52.9802 73.73 52.8663 73.524 52.8717 72.9873C52.8934 64.6554 52.9043 56.318 52.9043 47.986C52.9043 35.9461 52.8826 23.9116 52.8555 11.8717C52.8555 11.373 53.0235 11.2483 53.4735 11.2483C58.0108 11.2592 62.5535 11.1995 67.0908 11.2808C69.5086 11.3242 71.6986 11.991 72.8913 14.4141C73.558 15.7585 73.7911 17.1951 73.8616 18.6696C74.073 23.0931 73.9538 27.522 73.9646 31.9454C73.9646 33.8645 74.111 35.778 74.0351 37.7025C73.9429 40.0118 72.9997 41.7302 70.8367 42.6843C70.7771 42.7114 70.7229 42.7548 70.6741 42.7982C70.6578 42.809 70.6524 42.8361 70.6253 42.8957L70.6145 42.9012ZM61.0953 28.3947C61.0953 28.3947 61.0736 28.3947 61.0682 28.3947C61.0682 28.6224 61.0682 28.8447 61.0682 29.0723C61.0736 31.8696 61.0899 34.6722 61.079 37.4694C61.079 37.9518 61.1983 38.1741 61.7241 38.1416C62.3529 38.0982 62.9872 38.1524 63.616 38.1091C64.7761 38.0277 65.5676 37.1983 65.6055 36.0383C65.6272 35.3823 65.6001 34.7318 65.6055 34.0759C65.6163 29.8313 65.6326 25.5921 65.6489 21.3475C65.6489 19.602 64.7761 18.7238 63.0414 18.7238C62.6132 18.7238 62.1849 18.7346 61.7566 18.7021C61.2904 18.6696 61.0845 18.778 61.0899 19.3255C61.1224 22.3504 61.1061 25.3753 61.1061 28.4002L61.0953 28.3947Z" fill="white"/>
<path d="M43.8339 73.7194C42.8636 73.7194 41.8932 73.7086 40.9229 73.7248C40.5488 73.7302 40.4242 73.5947 40.3862 73.2207C39.9092 68.0762 39.405 62.9317 38.9334 57.7873C38.89 57.294 38.7491 57.1368 38.2449 57.1476C36.9114 57.1801 35.5778 57.1693 34.2497 57.1313C33.8486 57.1205 33.7727 57.2669 33.7239 57.6246C33.2685 61.0236 33.0029 64.4442 32.6668 67.8594C32.4933 69.6103 32.3144 71.3613 32.1681 73.1177C32.1301 73.5676 31.9783 73.7357 31.5067 73.7248C29.6528 73.6977 27.8042 73.6977 25.9503 73.7248C25.4244 73.7357 25.2889 73.573 25.3431 73.0689C25.5979 70.5319 25.8418 67.9949 26.0695 65.4525C26.3785 62.0102 26.6658 58.5733 26.9748 55.131C27.3109 51.3743 27.6579 47.623 27.994 43.8663C28.3409 39.9524 28.6716 36.0385 29.0185 32.13C29.3926 27.9504 29.7829 23.7709 30.1569 19.5859C30.3737 17.1357 30.5797 14.6854 30.7749 12.2297C30.8454 11.3136 30.8833 11.2648 31.8266 11.2648C35.0086 11.2648 38.1962 11.2756 41.3783 11.2485C41.8932 11.2485 42.0342 11.4274 42.0667 11.9045C42.2564 14.3818 42.4679 16.8538 42.6793 19.3257C43.0154 23.283 43.3623 27.2403 43.693 31.203C44.0453 35.388 44.3706 39.5729 44.7284 43.7579C45.0103 47.0863 45.3247 50.4148 45.6066 53.7378C45.8559 56.638 46.0728 59.5437 46.3113 62.4439C46.5986 65.9566 46.8697 69.464 47.1895 72.9713C47.2437 73.5947 47.0811 73.7519 46.4793 73.7194C45.6012 73.6706 44.7175 73.7086 43.8394 73.7086L43.8339 73.7194ZM36.4073 23.2017C36.353 23.2017 36.2934 23.2017 36.2392 23.1963C36.1904 23.4348 36.1199 23.6679 36.0983 23.9064C35.941 25.82 35.7947 27.7336 35.6375 29.6418C35.3393 33.1979 35.0412 36.7486 34.7376 40.2993C34.4395 43.7633 34.1467 47.2273 33.8377 50.6858C33.7998 51.1033 33.919 51.2442 34.3473 51.2388C35.6808 51.2117 37.0144 51.2117 38.3425 51.2334C38.8196 51.2388 38.9117 51.049 38.8738 50.6208C38.5431 47.0267 38.2233 43.4272 37.9143 39.8277C37.5511 35.6482 37.0957 31.474 36.8463 27.2782C36.765 25.9122 36.7054 24.5407 36.4073 23.1963V23.2017Z" fill="white"/>
<path d="M99.9137 16.4907H96.7695V66.694H99.9137V16.4907Z" fill="white"/>
</g>
<defs>
<clipPath id="clip0_396_8107">
<rect width="100" height="84.5666" fill="white"/>
</clipPath>
</defs>
</svg>
