<svg width="116" height="100" viewBox="0 0 116 100" fill="none" xmlns="http://www.w3.org/2000/svg">
<g clip-path="url(#clip0_396_7831)">
<path d="M68.4807 69.061C67.1802 66.5844 66.4469 63.8911 65.5568 61.26C64.383 57.7872 63.5022 54.2153 62.8196 50.6319C62.3607 48.2337 61.888 45.8009 61.7704 43.322C61.7104 42.0745 61.6228 40.82 61.5444 39.5679C61.3784 35.5302 61.5052 31.4901 61.4775 27.4501C61.4775 27.3094 61.579 27.2564 61.6459 27.1711C62.1532 27.1895 62.6789 27.0074 62.7504 27.8882C63.4399 36.3834 67.0026 43.6679 72.3109 50.1776C78.8114 58.1516 86.9837 63.6051 96.9454 66.3146C100.51 67.2831 104.122 67.9196 107.83 67.9104C108.194 68.0533 108.579 68.0026 108.948 67.9795C109.753 67.9288 109.992 68.2378 109.656 68.9757C104.292 68.9896 98.9308 69.0034 93.5672 69.0218C92.3427 69.0265 91.116 69.0449 89.8915 69.0587C88.3304 69.2225 86.7646 69.1233 85.2012 69.1279C80.0428 69.1441 74.8867 69.1348 69.7282 69.1302C69.3109 69.1302 68.8866 69.1948 68.4761 69.0633L68.4807 69.061Z" fill="white"/>
<path d="M25.4447 69.0542C19.4677 69.0426 13.4883 69.0311 7.5113 69.0196C7.24381 69.0196 6.97402 69.0265 6.70653 69.0196C6.3099 69.0081 5.8464 69.1626 5.87638 68.4454C5.90405 67.7283 6.39292 67.9381 6.76879 67.9104C8.28841 67.8067 9.80803 67.8597 11.3346 67.7006C17.0118 67.1126 22.4285 65.6206 27.4763 62.9895C39.3404 56.805 47.6349 47.5027 51.7234 34.647C52.3967 32.5279 52.7864 30.3418 52.8348 28.1074C52.8417 27.8214 52.9178 27.5885 53.0816 27.3694C53.5843 27.2173 54.11 27.0351 54.0985 27.8837C54.0455 31.7093 54.2207 35.5348 54.0086 39.3604C53.6765 49.6726 51.1699 59.496 47.3121 69.0104C47.0746 69.1879 46.7978 69.128 46.5373 69.128C39.7324 69.1303 32.9298 69.1303 26.125 69.128C25.8967 69.128 25.6638 69.151 25.447 69.0519L25.4447 69.0542Z" fill="white"/>
<path d="M59.4868 40.7298C60.0402 50.0851 62.3185 59.046 65.6437 67.7717C65.789 68.1522 66.0611 68.512 65.9873 68.9778H49.5781C50.6273 66.1553 51.642 63.402 52.4929 60.591C53.8326 56.1636 54.8841 51.667 55.5137 47.092C56.0509 43.1718 56.3277 39.2217 56.3046 35.2532C56.2608 27.8926 56.3138 20.5297 56.2654 13.1691C56.2585 12.2121 56.519 11.8524 57.4345 11.9423C57.7181 9.5418 57.4875 7.13438 57.559 4.73158C57.5706 4.3142 57.3077 4.25194 56.9618 4.23119C56.3576 4.19199 55.7396 4.37185 55.1493 4.11589C55.0571 3.73541 55.2715 3.66392 55.5851 3.66392C56.1939 3.66392 56.805 3.64778 57.4138 3.63856C57.7228 2.84531 57.476 2.01747 57.5613 1.20808C57.6051 0.809151 57.4276 0.382549 57.6974 0.00898458C57.8842 -0.000239236 58.0986 -0.0348286 58.1148 0.234968C58.1355 0.573943 58.1309 0.91753 58.1309 1.25651C58.1309 2.82302 58.8896 3.63394 60.4069 3.68929C60.6859 4.25425 60.2616 4.19429 59.9296 4.2358C59.3415 4.30959 58.7282 4.06746 58.1586 4.37877C58.1609 6.88995 58.1655 9.39883 58.1678 11.91C59.3485 11.9262 59.413 12.6525 59.4107 13.6187C59.3784 22.2384 59.39 30.8603 59.3969 39.48C59.3969 39.8951 59.3116 40.324 59.4868 40.7298Z" fill="white"/>
<path d="M3.55093 99.6704C2.24806 99.4859 1.17579 98.884 0.285697 97.9132C-0.0786442 97.5143 -0.138599 97.2261 0.366405 96.9309C0.530128 96.8341 0.686933 96.7165 0.822984 96.5827C1.56319 95.8632 2.20194 95.522 3.16122 96.4397C3.89913 97.1454 4.9714 97.3898 6.0183 96.8548C6.67088 96.5204 6.71931 96.027 6.07595 95.6788C5.54558 95.3928 4.94142 95.2337 4.35801 95.0562C3.58782 94.821 2.8061 94.5996 2.15121 94.1176C-0.00946549 92.5242 0.154257 90.2183 2.0313 88.7471C3.74693 87.4027 7.09057 87.6679 8.67476 89.146C9.16593 89.6049 9.18668 89.9185 8.6125 90.2875C8.32425 90.4719 8.05676 90.7048 7.82847 90.9585C7.37881 91.4589 6.97757 91.5465 6.42645 91.0576C5.94681 90.6333 5.29884 90.6034 4.67854 90.6702C4.29344 90.7118 3.8876 90.8132 3.81842 91.2836C3.74693 91.7794 4.13433 91.9247 4.5102 92.0492C5.6332 92.4205 6.80924 92.6511 7.86306 93.2206C8.99067 93.8317 9.64095 94.6895 9.59022 96.0708C9.50951 98.2384 8.63556 99.2899 6.39647 99.6842C5.44873 99.7741 4.50098 99.7972 3.55323 99.6727L3.55093 99.6704Z" fill="white"/>
<path d="M27.0843 94.5351C26.4018 93.5435 25.7653 93.5528 24.9859 94.5628C24.7254 95.8357 24.949 97.1247 24.866 98.4045C24.8406 98.808 25.009 99.2392 24.7277 99.6128C23.7522 99.6128 22.7768 99.6128 21.8014 99.6128C21.4763 97.8926 21.7207 96.1585 21.6677 94.4313C21.6377 93.4121 21.5962 92.3906 21.7046 91.3713C22.7192 91.1361 23.7361 91.1638 24.753 91.3529C24.9352 91.4405 24.4763 92.2107 25.2165 91.7357C27.564 90.2322 29.7131 91.1476 30.3127 93.8664C30.5433 94.7934 30.2435 95.7503 30.4764 96.6773C30.4764 96.7396 30.4879 96.7972 30.5179 96.8526C31.6317 97.6112 30.9583 98.6581 30.9583 99.5944C29.2381 100.348 27.7623 99.6289 27.2573 97.7911C27.0221 96.7142 27.3449 95.6074 27.082 94.5305L27.0843 94.5351Z" fill="white"/>
<path d="M82.9486 96.4142C83.0178 96.9815 83.4467 97.0576 83.894 97.1037C84.0923 97.9431 84.0923 98.7825 83.894 99.6218L83.8848 99.6034C83.1261 99.8478 82.3606 99.7717 81.595 99.6472C80.9378 99.2091 80.4189 99.1307 79.575 99.5619C77.2713 100.74 74.94 99.4304 74.4419 96.8708C74.2966 95.0284 74.3197 93.1836 74.4281 91.3411C74.4973 91.3089 74.5641 91.2535 74.6333 91.2489C77.5711 91.0091 77.5619 91.0114 77.578 93.9353C77.5826 94.7632 77.465 95.6002 77.6679 96.4212C78.452 97.4704 79.0769 97.3989 79.7986 96.179C80.0454 94.5649 79.7064 92.9276 79.9739 91.3135C80.9009 91.1682 81.8279 91.1959 82.7549 91.2996C83.0523 92.9945 82.6949 94.7148 82.9463 96.4119L82.9486 96.4142Z" fill="white"/>
<path d="M98.1617 99.594C97.2508 99.594 96.3377 99.594 95.4268 99.594C95.1386 97.9683 95.353 96.3288 95.3115 94.6962C95.2838 93.5916 95.2446 92.4825 95.3461 91.3779C96.3469 91.1542 97.3477 91.1219 98.3438 91.3987C98.3623 91.8598 98.4015 91.9798 98.8857 91.6293C100.807 90.2295 103.244 91.2488 103.733 93.6055C103.945 94.5348 103.673 95.4894 103.883 96.4187C104.309 96.9883 104.722 97.4956 104.651 98.3419C104.531 99.7808 103.733 100.371 102.356 99.7554C101.708 99.4672 101.058 99.089 100.924 98.2658C100.661 97.1935 100.97 96.0936 100.754 95.019C100.666 94.4148 100.479 93.9052 99.7436 93.8407C99.0126 93.7784 98.5952 94.1381 98.3715 94.793C98.187 95.9875 98.3438 97.1889 98.2816 98.3857C98.2608 98.7892 98.4038 99.2112 98.1617 99.594Z" fill="white"/>
<path d="M35.5495 96.4163C35.704 97.2534 36.3635 97.0897 36.9284 97.1127C37.0507 98.0374 37.4127 98.9828 36.6886 99.8314C36.0061 99.8176 35.312 99.8799 34.6479 99.7692C33.5502 99.587 32.7846 98.9644 32.5725 97.8045C32.2843 96.5823 32.6693 95.321 32.3696 94.0988L32.3627 94.0942C31.265 94.1242 31.3088 93.3978 31.3088 92.6092C31.3088 91.8205 31.2673 91.0942 32.3627 91.1242V91.1172C32.6855 90.1188 32.2566 89.0626 32.6002 88.0641C33.511 87.9742 34.4219 87.9765 35.3327 88.0641C35.6025 88.7467 35.3811 89.4593 35.4642 90.151C35.5103 90.5431 35.305 90.9673 35.6164 91.3248C36.1306 91.3386 36.6448 91.3501 37.159 91.364C37.3873 92.1941 37.3873 93.0266 37.159 93.8567C36.7025 94.2833 36.126 94.0297 35.6117 94.1265C35.3304 94.8829 35.4411 95.6507 35.5495 96.4186V96.4163Z" fill="white"/>
<path d="M88.0332 96.6472C88.1254 96.7625 88.2108 96.887 88.3122 96.9931C88.6166 97.309 89.2853 96.8179 89.3868 97.3413C89.5136 98.0054 89.426 98.711 89.4191 99.3959C89.4168 99.6749 89.2208 99.7533 88.9763 99.8225C86.7349 100.45 84.8441 99.0685 84.8302 96.7441C84.8141 93.8801 84.8348 91.0161 84.8418 88.1521C85.8425 87.9053 86.8456 87.963 87.851 88.1106C88.0263 90.5411 87.8764 92.9761 87.9317 95.4089C87.941 95.8217 87.8349 96.246 88.0309 96.6449L88.0332 96.6472Z" fill="white"/>
<path d="M28.6764 85.3662C27.3205 85.357 26.2274 84.8405 25.5034 83.6621C25.3212 83.3669 24.9638 83.0349 25.508 82.7074C25.9646 82.4307 26.2159 82.5276 26.4949 83.0049C27.1037 84.0472 28.086 84.377 29.2505 84.2063C30.0069 84.0956 30.5211 83.669 30.701 82.9265C30.867 82.2324 30.6295 81.6444 30.0622 81.204C29.2667 80.5883 28.2913 80.3116 27.4334 79.8158C26.4304 79.2347 25.5795 78.4576 25.7178 77.2147C25.8423 76.1055 26.4972 75.2362 27.6548 74.9064C28.9231 74.5467 30.0922 74.7035 31.0169 75.7204C31.2175 75.9418 31.7525 76.207 31.206 76.629C30.8347 76.9149 30.5442 77.0256 30.1775 76.5275C29.631 75.785 28.8055 75.7412 27.9915 76.0017C27.4519 76.1747 27.1083 76.5828 27.0345 77.1801C26.9515 77.8396 27.272 78.3146 27.7886 78.6121C28.5472 79.0502 29.3635 79.3846 30.136 79.7996C31.6441 80.609 32.2229 81.8035 31.8655 83.2909C31.5519 84.5983 30.3758 85.3616 28.6764 85.3616V85.3662Z" fill="white"/>
<path d="M93.5302 96.661C93.5441 96.721 93.5625 96.7809 93.5833 96.8409C94.6371 97.618 94.0514 98.6533 94.0168 99.6011C92.3012 100.457 90.2858 99.2667 90.3203 97.5603C90.1705 95.4873 90.205 93.4165 90.3042 91.3435C90.3711 91.3089 90.4379 91.2535 90.5094 91.2466C93.4518 90.9976 93.4426 90.9976 93.4587 93.9354C93.4634 94.8439 93.3596 95.7548 93.5302 96.6587V96.661Z" fill="white"/>
<path d="M62.4656 84.0037C62.5302 84.4534 63.6924 84.4557 63.0167 85.1544C62.4864 85.7032 61.9237 85.3089 61.5894 84.8131C61.2873 84.3635 61.119 84.5825 60.8076 84.767C58.4348 86.1783 56.3226 84.9976 56.2926 82.2512C56.2788 80.9899 56.2995 79.7262 56.2857 78.4648C56.2811 78.0429 56.2949 77.75 56.8714 77.75C57.4594 77.75 57.4479 78.0682 57.4433 78.4764C57.434 79.6616 57.4433 80.8469 57.4386 82.0322C57.434 83.0837 57.7361 83.9415 58.8891 84.1882C59.9383 84.4142 60.7385 83.8377 61.1605 82.6179C61.4233 81.0175 61.0198 79.3895 61.3772 77.7938C61.6678 77.7938 61.956 77.7938 62.2466 77.7938C62.5602 79.3665 62.2973 80.9553 62.3849 82.5349C62.4126 83.0237 62.3065 83.5195 62.4633 84.0037H62.4656Z" fill="white"/>
<path d="M43.4339 77.782C43.9989 77.7451 44.633 77.5929 44.5662 78.5384C46.8375 76.9888 48.8737 77.533 49.4456 79.8043C49.6393 81.1902 49.3187 82.5992 49.6162 83.9804C49.9644 84.241 50.6354 84.4301 50.248 84.9858C49.946 85.417 49.351 85.2279 48.9198 84.9628C48.6592 84.8013 48.4955 84.5385 48.4517 84.2202C48.1888 82.8344 48.5116 81.4254 48.2834 80.0395C48.0389 79.0964 47.3748 78.6767 46.457 78.7044C45.4378 78.7367 44.8037 79.3178 44.5293 80.2932C44.2479 81.8935 44.6446 83.5215 44.3217 85.1196C44.0196 85.1196 43.7199 85.1219 43.4178 85.1242C43.2287 82.6752 43.1849 80.2286 43.4362 77.782H43.4339Z" fill="white"/>
<path d="M52.1522 75.0149C52.4542 75.0149 52.754 75.0126 53.0561 75.0103C53.4043 75.8911 52.9477 76.8504 53.3121 77.7313C53.7617 77.7497 54.2137 77.7682 54.6633 77.7889C54.9793 78.5176 54.7786 78.8612 53.9485 78.8105C53.681 78.7943 53.3167 78.6514 53.1829 79.0803C53.236 80.6437 53.0538 82.2117 53.2821 83.7729C53.4573 84.1856 53.7433 84.467 54.2137 84.437C54.6587 84.4093 54.6818 84.6584 54.6818 84.9973C54.6818 85.4124 54.3774 85.3571 54.133 85.3847C53.1506 85.5 52.5373 85.0734 52.1314 84.0012C51.9193 82.6822 52.1037 81.3539 52.0323 80.0303C52.0115 79.666 52.1729 79.2694 51.887 78.9373C51.4096 78.935 50.9854 78.9004 50.9923 78.2363C50.9992 77.4845 51.5711 77.8766 51.887 77.752C52.2997 76.8712 51.8017 75.9027 52.1545 75.0172L52.1522 75.0149Z" fill="white"/>
<path d="M75.1568 85.1199L74.2528 85.1245C74.0638 82.6756 74.0222 80.229 74.2713 77.7824C74.6702 77.8838 75.2675 77.4273 75.4058 78.2874C75.4635 78.6494 75.7448 78.2689 75.8785 78.1744C76.2936 77.8769 76.7248 77.6832 77.2506 77.7616C77.555 77.8077 77.947 77.6348 77.9355 78.2205C77.9262 78.6909 77.7948 78.9492 77.3013 78.91C76.123 78.8154 75.5834 79.4842 75.3413 80.5219C75.1107 82.0461 75.4635 83.5957 75.1568 85.1176V85.1199Z" fill="white"/>
<path d="M91.7066 90.9098C91.3469 90.8959 91.0379 90.7484 90.7681 90.527C90.0025 89.9021 89.9287 88.8068 90.5951 88.0827C91.1301 87.5016 92.5275 87.4716 93.0994 88.0296C93.7912 88.7076 93.7566 89.8191 93.021 90.4786C92.7281 90.7414 92.3961 90.9167 91.9879 90.9098C91.8934 90.9882 91.8011 90.9882 91.7066 90.9098Z" fill="white"/>
<path d="M80.0065 77.8006C80.7628 77.6115 80.9957 77.902 80.968 78.6699C80.9127 80.1941 80.9588 81.723 80.9473 83.2495C80.945 83.6876 80.9496 84.1442 81.3946 84.3356C81.7913 84.5063 81.9527 84.7392 81.7959 85.1058C81.616 85.5255 81.1986 85.3687 80.8873 85.3272C80.4054 85.2649 80.0226 85.0274 79.9696 84.4717C79.845 82.2464 79.7782 80.0235 80.0065 77.8006Z" fill="white"/>
<path d="M59.487 40.7301C59.2195 39.9945 59.2864 39.2243 59.2864 38.4679C59.2794 30.1942 59.2702 21.9204 59.2979 13.6466C59.3002 12.7473 59.2794 12.0163 58.168 11.9102C59.1641 11.7627 59.5423 12.074 59.5377 13.1924C59.4985 22.1441 59.5308 31.0958 59.5377 40.0475C59.5377 40.2758 59.5031 40.5041 59.4824 40.7301H59.487Z" fill="white"/>
<path d="M25.4453 69.0541C32.7344 69.0402 40.0212 69.0264 47.3104 69.0103C47.0636 69.3631 46.6901 69.2455 46.3626 69.2455C39.7169 69.2524 33.0688 69.2501 26.423 69.2455C26.0887 69.2455 25.7266 69.3354 25.4453 69.0518V69.0541Z" fill="white"/>
<path d="M68.4805 69.0609C75.6174 69.0609 82.7566 69.0609 89.8936 69.0586C89.573 69.3676 89.1718 69.2454 88.8028 69.2454C82.3923 69.2523 75.9817 69.2523 69.5712 69.2454C69.2022 69.2454 68.801 69.3676 68.4805 69.0609Z" fill="white"/>
<path d="M54.0074 39.3603C54.0005 35.6985 53.9844 32.0343 53.9982 28.3725C54.0005 27.6968 53.9106 27.2241 53.0781 27.3694C53.7077 26.9797 54.2196 26.8321 54.2196 27.879C54.215 31.5432 54.2173 35.205 54.215 38.8692C54.215 39.0606 54.208 39.252 54.0074 39.358V39.3603Z" fill="white"/>
<path d="M61.6484 27.1709C61.6254 30.8443 61.6046 34.5177 61.5815 38.1911C61.5792 38.6499 61.5585 39.1088 61.5447 39.5677C61.2841 39.3256 61.3556 39.0051 61.3533 38.7076C61.3486 35.161 61.3486 31.6168 61.3579 28.0702C61.3579 27.752 61.2172 27.3623 61.6484 27.1709Z" fill="white"/>
<path d="M69.735 75.0218C69.3914 75.8381 69.0017 76.5737 68.3214 77.1226C68.0032 77.3808 67.6573 77.4892 67.6273 76.9081C67.572 75.8036 68.5128 74.9411 69.7327 75.0218H69.735Z" fill="white"/>
<path d="M53.5447 88.159C53.5447 91.9708 53.5447 95.7825 53.5447 99.5942C53.1227 99.4397 53.3118 99.0754 53.3118 98.8125C53.3049 95.2614 53.3141 91.7102 53.321 88.159C53.3971 88.0391 53.4709 88.0437 53.547 88.159H53.5447Z" fill="white"/>
<path d="M55.1484 4.11133C56.8318 4.13131 57.6735 4.97452 57.6735 6.64096C57.6735 8.05682 57.6873 9.47498 57.6642 10.8908C57.6573 11.2436 57.8533 11.6656 57.4359 11.9377C57.4383 9.77245 57.3921 7.60485 57.4682 5.44186C57.5028 4.49412 57.1569 4.26122 56.3014 4.33039C55.9278 4.36037 55.4597 4.55177 55.1507 4.11133H55.1484Z" fill="white"/>
<path d="M81.155 75.6932C81.1481 76.2927 80.8714 76.5487 80.4448 76.5671C79.9836 76.5879 79.5985 76.3481 79.5477 75.8684C79.4924 75.3473 79.9282 75.119 80.3433 75.066C80.8368 75.0037 81.0904 75.3473 81.155 75.6932Z" fill="white"/>
<path d="M91.7049 90.9102C91.7994 90.9102 91.8917 90.9102 91.9862 90.9102C93.0439 91.2468 93.5719 92.0578 93.5704 93.3429C93.5658 94.4498 93.545 95.5567 93.5312 96.6635C93.1207 95.243 93.3859 93.7903 93.3675 92.3537C93.3583 91.5466 93.13 91.2514 92.3252 91.3345C91.6795 91.399 91.0246 91.3667 90.3744 91.3783C90.2936 91.3252 90.2683 91.2722 90.2959 91.2215C90.3236 91.1707 90.3513 91.1477 90.379 91.1477C90.8102 91.0139 91.3175 91.3091 91.7026 90.9125L91.7049 90.9102Z" fill="white"/>
<path d="M88.0358 96.6473C87.7083 96.2945 87.8283 95.8541 87.8237 95.4482C87.8052 93.0155 87.7983 90.5827 87.7891 88.1476C87.8698 88.0392 87.9459 88.0346 88.0197 88.1545C88.0243 90.9839 88.0289 93.8156 88.0358 96.645V96.6473Z" fill="white"/>
<path d="M21.7927 91.3755C21.7927 94.1219 21.7973 96.866 21.7996 99.6124C21.5483 99.4925 21.5391 99.2619 21.5391 99.0313C21.5391 96.6008 21.5391 94.168 21.5391 91.7376C21.5391 91.5047 21.5575 91.2787 21.7973 91.1519C21.855 91.2026 21.8757 91.2533 21.855 91.3017C21.8342 91.3502 21.8135 91.3755 21.795 91.3755H21.7927Z" fill="white"/>
<path d="M95.4377 91.3755C95.4353 94.115 95.4307 96.8545 95.4284 99.5917C95.1056 99.5156 95.1886 99.2458 95.1909 99.0405C95.1978 96.4832 95.214 93.9259 95.2278 91.3686C95.3039 91.2533 95.3731 91.2625 95.44 91.3778L95.4377 91.3755Z" fill="white"/>
<path d="M77.6684 96.4237C77.2211 95.1623 77.5324 93.8618 77.4724 92.5797C77.4148 91.3506 77.4563 91.3437 76.2157 91.346C75.6415 91.346 75.0696 91.3644 74.4954 91.376C74.4147 91.3229 74.3894 91.2699 74.417 91.2191C74.4447 91.1684 74.4724 91.1454 74.5024 91.1454C75.2679 91.1361 76.0358 91.1592 76.7991 91.1062C77.5324 91.0554 77.7192 91.3852 77.7007 92.0562C77.6592 93.5113 77.6754 94.9686 77.6684 96.4237Z" fill="white"/>
<path d="M43.433 77.7821C43.4261 80.2287 43.4192 82.6776 43.4146 85.1242C43.0595 84.8821 43.1794 84.5086 43.1771 84.1834C43.1678 82.3571 43.1655 80.5308 43.1771 78.7045C43.1771 78.3839 43.0479 78.0035 43.433 77.7798V77.7821Z" fill="white"/>
<path d="M74.2729 77.7821C74.2659 80.2287 74.259 82.6776 74.2544 85.1242C73.8993 84.8821 74.0192 84.5086 74.0169 84.1834C74.0077 82.3571 74.0054 80.5308 74.0169 78.7045C74.0169 78.3839 73.8878 78.0035 74.2729 77.7798V77.7821Z" fill="white"/>
<path d="M80.0086 77.8008C79.997 80.0237 79.9832 82.249 79.9717 84.4719C79.5981 83.9969 79.7826 83.4434 79.7734 82.9269C79.7457 81.518 79.7503 80.1067 79.7734 78.6955C79.778 78.3957 79.5774 78.0037 80.0063 77.8008H80.0086Z" fill="white"/>
<path d="M56.4844 99.6032C56.4913 98.7731 56.5328 97.9429 56.4936 97.1174C56.4613 96.4463 56.6689 96.1489 57.3814 96.1927C58.17 96.2411 58.9633 96.2019 59.7519 96.1996C59.127 96.6285 58.4191 96.4256 57.7596 96.4048C56.9825 96.3818 56.6919 96.6008 56.7034 97.4218C56.715 98.1435 56.9848 98.9229 56.4844 99.6055V99.6032Z" fill="white"/>
<path d="M90.3827 91.145C90.3827 91.2211 90.3781 91.2995 90.3758 91.3756C90.3573 93.4371 90.3389 95.501 90.3227 97.5625C90.0299 95.4203 89.9031 93.278 90.3827 91.145Z" fill="white"/>
<path d="M41.0499 84.008C40.6556 82.5968 40.9646 81.1555 40.877 79.7305C40.8378 79.0871 40.8539 78.4391 40.8447 77.7935C41.1906 77.918 41.096 78.2224 41.096 78.4645C41.0891 80.3116 41.0684 82.1609 41.0499 84.008Z" fill="white"/>
<path d="M53.5424 88.1591L53.4294 88.143L53.3164 88.1591C53.4363 87.9124 53.6623 87.8962 53.8929 87.8962C55.5947 87.8962 57.2965 87.8916 58.9983 87.9055C59.1689 87.9055 59.3396 88.03 59.5125 88.0969C57.5225 88.1176 55.5324 88.1384 53.5424 88.1614V88.1591Z" fill="white"/>
<path d="M62.4651 84.0034C62.0662 83.2125 62.3222 82.3685 62.2876 81.5522C62.2345 80.3 62.2576 79.0456 62.2484 77.7935C62.5943 77.918 62.4997 78.2201 62.4997 78.4645C62.4951 80.3116 62.479 82.1586 62.4651 84.0034Z" fill="white"/>
<path d="M71.9082 84.02C71.5069 83.3051 71.7444 82.5303 71.7168 81.7855C71.6684 80.4527 71.6845 79.1175 71.6753 77.7847C72.0581 78.006 71.9289 78.3819 71.9289 78.7024C71.9312 80.4757 71.9174 82.249 71.9082 84.0223V84.02Z" fill="white"/>
<path d="M74.5023 91.145C74.5023 91.2211 74.4976 91.2995 74.4953 91.3756C74.4769 93.2088 74.4584 95.0398 74.44 96.873C74.1356 94.9614 74.0411 93.0497 74.4999 91.145H74.5023Z" fill="white"/>
<path d="M114.716 96.6423C114.308 95.7822 114.574 94.8691 114.523 93.9813C114.474 93.1165 114.497 92.2449 114.491 91.3778C114.555 91.2625 114.627 91.2533 114.703 91.3686C114.707 93.1258 114.712 94.8852 114.716 96.6423Z" fill="white"/>
<path d="M47.2927 96.6404C46.8615 95.7826 47.1498 94.8671 47.0944 93.9793C47.0414 93.1146 47.069 92.2452 47.0598 91.3759C47.1244 91.2606 47.1959 91.2514 47.2697 91.3667C47.2766 93.1238 47.2835 94.8809 47.2904 96.6404H47.2927Z" fill="white"/>
<path d="M19.8872 96.6796C19.456 94.9132 19.7742 93.1192 19.705 91.3413C20.1524 93.1077 19.825 94.9017 19.8872 96.6796Z" fill="white"/>
<path d="M24.7266 99.6101C24.7358 98.3257 24.7427 97.0413 24.7588 95.7545C24.7635 95.3441 24.6943 94.9152 24.9871 94.5601C24.9871 95.9344 24.9964 97.3088 24.9825 98.6808C24.9802 99.0036 25.1163 99.3841 24.7289 99.6101H24.7266Z" fill="white"/>
<path d="M82.9492 96.4141C82.5364 95.1666 82.8523 93.8844 82.7601 92.6208C82.7301 92.208 82.7416 91.7906 82.7324 91.3779C82.7993 91.2603 82.8685 91.258 82.9446 91.3687C82.9446 93.0497 82.9469 94.7307 82.9492 96.4141Z" fill="white"/>
<path d="M51.8856 78.9351C52.3929 79.6199 52.0747 80.4016 52.1208 81.1349C52.1784 82.0873 52.1323 83.0443 52.13 83.9989C51.6342 82.3317 52.0562 80.6184 51.8856 78.9351Z" fill="white"/>
<path d="M61.3783 77.7959C61.2169 79.4008 61.602 81.0288 61.1615 82.62C61.15 81.241 61.1315 79.862 61.1315 78.4808C61.1315 78.234 61.0278 77.925 61.3783 77.7959Z" fill="white"/>
<path d="M53.282 83.7708C52.8162 82.1774 53.1529 80.5517 53.0975 78.9421C53.169 78.8337 53.2405 78.8337 53.3143 78.9421C53.3028 80.5517 53.2935 82.1635 53.282 83.7731V83.7708Z" fill="white"/>
<path d="M44.3182 85.1198C44.445 83.5149 44.0807 81.8869 44.5257 80.2935C44.535 81.6724 44.5511 83.0514 44.5465 84.4326C44.5465 84.6725 44.6779 84.9861 44.3205 85.1198H44.3182Z" fill="white"/>
<path d="M98.1639 99.594C98.3022 97.9959 97.9402 96.3772 98.3737 94.793C98.3852 96.2088 98.3991 97.6247 98.4014 99.0405C98.4014 99.2458 98.489 99.5156 98.1639 99.594Z" fill="white"/>
<path d="M32.3609 91.1243C31.5469 91.3342 31.3901 91.8553 31.3832 92.667C31.3763 93.4764 31.6714 93.8684 32.3609 94.0967C30.9819 94.3319 31.2194 93.3657 31.1872 92.554C31.1526 91.7008 31.118 90.9029 32.3609 91.1243Z" fill="white"/>
<path d="M80.0175 91.3758C79.8492 92.9738 80.2527 94.5949 79.8008 96.1814C79.8008 94.5765 79.8031 92.9738 79.8054 91.3689C79.8815 91.2582 79.9507 91.2559 80.0175 91.3781V91.3758Z" fill="white"/>
<path d="M75.1541 85.1197C75.274 83.5908 74.9327 82.0412 75.3385 80.5239C75.304 82.0574 75.6475 83.6047 75.1541 85.1197Z" fill="white"/>
<path d="M48.278 80.0396C48.6515 81.4208 48.3864 82.8275 48.4463 84.2202C48.0128 82.8413 48.2826 81.4347 48.278 80.0396Z" fill="white"/>
<path d="M49.6161 83.9808C49.148 82.6064 49.4432 81.1998 49.4455 79.8047C49.8306 81.1836 49.5147 82.5903 49.6161 83.9808Z" fill="white"/>
<path d="M114.701 91.3686H114.595L114.489 91.3778C113.564 91.5853 112.483 90.7783 111.687 91.8159C111.671 91.8367 111.62 91.8551 111.597 91.8459C111.565 91.8344 111.542 91.7952 111.516 91.7675C111.509 91.4908 111.542 91.1426 111.865 91.1587C112.81 91.2026 113.795 90.8151 114.701 91.3709V91.3686Z" fill="white"/>
<path d="M47.2705 91.3686H47.1644L47.0583 91.3778C46.4911 91.3663 45.9123 91.4124 45.3565 91.3248C44.8215 91.2418 44.4664 91.4931 44.0859 91.7629C44.0859 91.5323 44.0882 91.2095 44.335 91.1957C45.315 91.1472 46.3204 90.8636 47.2705 91.3663V91.3686Z" fill="white"/>
<path d="M57.6954 0.00683594C57.4971 1.20824 57.9813 2.46268 57.4118 3.6341C57.6124 2.4327 57.1235 1.17826 57.6954 0.00683594Z" fill="white"/>
<path d="M32.3672 94.0991C32.8122 95.3144 32.4848 96.5711 32.5701 97.8048C32.1135 96.5919 32.4364 95.3351 32.3672 94.0991Z" fill="white"/>
<path d="M95.4348 91.376L95.3287 91.3644L95.2227 91.3667C96.2673 90.9655 97.3072 90.9078 98.3426 91.3967C97.3741 91.3898 96.4033 91.3829 95.4348 91.376Z" fill="white"/>
<path d="M80.0168 91.376L79.9108 91.3644L79.8047 91.3667C80.8516 90.9494 81.8962 90.9494 82.9431 91.3667L82.837 91.3644L82.7309 91.376C81.827 91.376 80.9208 91.376 80.0168 91.376Z" fill="white"/>
<path d="M35.614 91.325C35.0375 90.3127 35.4964 89.2081 35.3303 88.1589C35.4041 88.0367 35.4802 88.0436 35.5563 88.1589C35.5748 89.215 35.5955 90.2689 35.614 91.325Z" fill="white"/>
<path d="M35.5556 88.1589L35.4426 88.1427L35.3296 88.1589C34.4211 88.1566 33.5102 88.1519 32.6017 88.1496C32.5233 88.2373 32.4472 88.235 32.3711 88.145C33.4341 87.7415 34.4949 87.7184 35.5533 88.1589H35.5556Z" fill="white"/>
<path d="M94.0195 99.6035C93.9111 98.6765 94.4092 97.6573 93.5859 96.8433C93.8258 96.9101 94.2201 96.8825 94.2155 97.1822C94.2039 97.9893 94.5291 98.8356 94.0195 99.6035Z" fill="white"/>
<path d="M30.96 99.5963C30.8539 98.6762 31.3589 97.657 30.5195 96.8545C30.764 96.9075 31.1583 96.8776 31.156 97.1773C31.1491 97.9844 31.4719 98.8307 30.96 99.5963Z" fill="white"/>
<path d="M88.0191 88.1568C87.943 88.1545 87.8646 88.1522 87.7885 88.1499C86.8061 88.1499 85.8238 88.1522 84.8438 88.1545C85.9022 87.7279 86.9606 87.7256 88.0191 88.1568Z" fill="white"/>
<path d="M100.756 95.019C101.125 96.0844 100.864 97.1843 100.926 98.2658C100.491 97.2028 100.756 96.1051 100.756 95.019Z" fill="white"/>
<path d="M27.0841 94.5347C27.5084 95.6023 27.2224 96.7069 27.2593 97.7953C26.8558 96.7276 27.1417 95.6231 27.0841 94.5347Z" fill="white"/>
<path d="M19.7027 91.3366C18.7088 91.3458 17.7149 91.3573 16.7188 91.3665C17.708 90.8961 18.7042 90.9584 19.7027 91.3366Z" fill="white"/>
<path d="M21.7925 91.376C21.781 91.3022 21.7833 91.2261 21.7971 91.1523C22.7818 91.2099 23.7964 90.841 24.7511 91.3529C23.7641 91.3598 22.7795 91.369 21.7925 91.376Z" fill="white"/>
<path d="M36.6875 99.8315C37.2432 98.9668 36.8581 98.019 36.9273 97.1128C37.1902 98.049 37.656 99.0037 36.6875 99.8315Z" fill="white"/>
<path d="M72.6002 91.3709C71.604 91.3478 70.6079 91.3248 69.6094 91.3017C70.6125 91.0411 71.6132 90.9005 72.6002 91.3709Z" fill="white"/>
<path d="M109.657 68.9755C109.754 68.3068 109.5 68.0024 108.792 68.0762C108.471 68.1108 108.114 68.1753 107.828 67.9101C108.246 67.8917 108.663 67.8686 109.083 67.8594C110.04 67.834 110.072 68.2906 109.657 68.9755Z" fill="white"/>
<path d="M58.1586 4.37649C58.5621 3.85996 59.1201 4.23813 59.5952 4.12514C59.9042 4.04905 60.4023 4.32807 60.4046 3.68701C60.8358 4.15281 60.566 4.32115 60.0979 4.34421C59.4522 4.37649 58.8042 4.36727 58.1562 4.37649H58.1586Z" fill="white"/>
<path d="M32.3725 88.145C32.4486 88.145 32.5247 88.1496 32.6031 88.1496C32.4302 89.132 32.8291 90.1604 32.3633 91.1197C32.3656 90.1281 32.3702 89.1366 32.3725 88.145Z" fill="white"/>
<path d="M30.4766 96.6796C30.0753 95.7618 30.3336 94.8072 30.3128 93.8687C30.7002 94.7864 30.4489 95.7411 30.4766 96.6796Z" fill="white"/>
<path d="M52.1503 75.0151C52.0004 75.9214 52.4385 76.8853 51.8828 77.75C52.0696 76.8484 51.643 75.8845 52.1503 75.0151Z" fill="white"/>
<path d="M53.3112 77.7293C52.7809 76.8646 53.219 75.9076 53.0553 75.0083C53.5695 75.8753 53.159 76.8277 53.3112 77.7293Z" fill="white"/>
<path d="M103.882 96.4168C103.526 95.4944 103.752 94.5443 103.732 93.6035C104.119 94.5236 103.898 95.4759 103.882 96.4168Z" fill="white"/>
<path d="M53.3144 78.9396L53.206 78.9304L53.0977 78.9419C53.296 78.5361 53.6765 78.6698 53.9762 78.6859C54.6888 78.7275 54.7879 78.3562 54.6611 77.7866C55.09 78.6767 55.0277 78.8335 54.2068 78.9004C53.9094 78.9235 53.6119 78.9281 53.3144 78.9396Z" fill="white"/>
<path d="M3.55078 99.6704C4.49853 99.675 5.44628 99.6773 6.39402 99.6819C5.44397 99.9886 4.49622 99.9979 3.55078 99.6704Z" fill="white"/>
<path d="M20.6055 99.5988C20.6078 98.7687 20.6101 97.9385 20.6124 97.1084C20.9929 97.9385 21.0113 98.7687 20.6055 99.5988Z" fill="white"/>
<path d="M48.2188 99.6216C48.2188 98.7822 48.2211 97.9429 48.2234 97.1035C48.6154 97.9429 48.6223 98.7822 48.2188 99.6216Z" fill="white"/>
<path d="M73.5234 99.601C73.5304 98.7686 73.535 97.9361 73.5419 97.106C73.9201 97.9407 73.9593 98.7732 73.5234 99.601Z" fill="white"/>
<path d="M83.8945 99.6216C83.8945 98.7822 83.8945 97.9429 83.8945 97.1035C84.2912 97.9429 84.2888 98.7822 83.8945 99.6216Z" fill="white"/>
<path d="M37.1562 93.857C37.1562 93.0269 37.1562 92.1944 37.1562 91.3643C37.5621 92.1944 37.5621 93.0269 37.1562 93.857Z" fill="white"/>
<path d="M35.5492 96.4166C35.2887 95.6441 35.1895 94.8786 35.6115 94.1245C35.5907 94.8878 35.57 95.6511 35.5492 96.4166Z" fill="white"/>
<path d="M81.5938 99.6493C82.357 99.6354 83.1203 99.6193 83.8836 99.6055C83.1272 100.039 82.3639 99.9698 81.5938 99.6493Z" fill="white"/>
<path d="M62.7247 91.2441C62.5979 89.5815 61.3965 88.756 59.9553 88.2256C59.8123 88.1725 59.6624 88.138 59.5149 88.0965C57.5041 87.9788 55.4933 87.9189 53.4825 88.1264C53.3326 91.3824 53.4479 94.6407 53.4248 97.8991C53.4202 98.4617 53.2796 99.0451 53.5401 99.5962C54.5202 99.5985 55.5025 99.6032 56.4825 99.6055C56.5333 99.5455 56.6024 99.4879 56.6094 99.4187C56.7016 98.4317 56.2173 97.1704 56.7915 96.5201C57.428 95.8006 58.7539 96.497 59.7478 96.1996C59.9276 96.135 60.1121 96.082 60.285 96.0013C62.3004 95.0835 62.93 93.9559 62.7247 91.2441ZM59.6878 92.6092C59.5356 93.2825 58.9776 93.4347 58.3573 93.4186C57.8269 93.4048 57.2942 93.3955 56.7639 93.384C56.75 93.3609 56.7339 93.3402 56.7223 93.3171C56.2635 92.5769 56.2796 91.5462 56.6762 91.1288C57.2043 90.573 58.2604 90.7483 59.0836 91.0942C59.8285 91.3824 59.8215 92.0097 59.6878 92.6115V92.6092Z" fill="white"/>
<path d="M73.5419 97.1059C72.7786 97.0967 72.6103 96.6471 72.6195 95.9691C72.6425 94.4357 72.6103 92.9045 72.601 91.371C71.6095 91.1012 70.611 91.2304 69.6102 91.3019C69.3842 91.3203 69.5041 91.7746 68.9899 91.5855C67.7678 91.1335 66.4303 91.0644 65.2358 91.7077C63.2089 92.7984 62.5194 95.5471 63.6678 97.6271C64.7862 99.6494 67.6109 100.489 69.6171 99.3289C70.0806 99.0614 70.3043 99.036 70.7517 99.3612C71.5887 99.9676 72.548 100.12 73.5234 99.6033C73.7494 98.7732 73.724 97.9407 73.5419 97.1083V97.1059ZM67.777 97.099C67.0091 97.0806 66.1813 96.1674 66.2297 95.3903C66.2781 94.5902 67.1198 93.8638 67.9799 93.8822C68.8562 93.9007 69.6425 94.6524 69.6379 95.4664C69.6333 96.3427 68.7432 97.1198 67.777 97.0967V97.099Z" fill="white"/>
<path d="M20.6112 97.1085C20.323 97.0416 20.007 97.0255 19.8848 96.6796C19.6427 94.9063 19.9932 93.1123 19.7027 91.3413V91.3367C18.7042 91.1822 17.7103 91.1407 16.7164 91.3667C16.7164 91.7449 16.6288 91.7264 16.2576 91.6134C14.8924 91.2007 13.4743 91.007 12.1899 91.8117C10.2206 93.0431 9.66945 95.7895 10.9124 97.7957C12.1207 99.7465 14.9017 100.489 16.8179 99.2853C17.2906 98.9879 17.459 99.0709 17.8441 99.3453C18.688 99.9471 19.6289 100.127 20.6043 99.6012C20.8026 98.7711 20.7934 97.941 20.6112 97.1108V97.1085ZM14.927 97.097C14.2629 97.0716 13.2644 96.1239 13.2506 95.5036C13.2345 94.7772 14.1937 93.9009 15.0285 93.8779C15.9624 93.8525 16.7649 94.5927 16.7556 95.4713C16.7464 96.3591 15.8771 97.1316 14.927 97.097Z" fill="white"/>
<path d="M114.717 96.6425C114.505 94.9131 114.698 93.1744 114.613 91.4403C113.97 90.9929 113.246 91.3434 112.568 91.2328C112.093 91.1567 111.712 91.2812 111.518 91.7654C110.792 91.1889 109.925 91.4334 109.111 91.3273C106.761 91.0275 105.253 93.3704 105.106 95.1598C104.969 96.8339 105.726 98.2221 107.149 99.1007C108.571 99.9815 110.132 100.224 111.659 99.3243C112.123 99.0499 112.415 98.9369 112.798 99.3705C112.943 99.5342 113.167 99.6403 113.372 99.7348C114.712 100.353 115.568 99.7648 115.699 98.3535C115.784 97.4381 115.351 97.0322 114.717 96.6379V96.6425ZM109.939 97.0968C109.141 97.1175 108.325 96.3151 108.302 95.4895C108.278 94.6525 109.009 93.9284 109.918 93.8846C110.815 93.8408 111.71 94.6317 111.71 95.4688C111.71 96.2551 110.82 97.0737 109.939 97.0968Z" fill="white"/>
<path d="M48.2209 97.1036C47.8681 97.0344 47.453 97.0921 47.2916 96.6424C47.0702 94.9129 47.2685 93.1765 47.1809 91.4425C46.5375 90.9928 45.8158 91.3433 45.1378 91.2349C44.6628 91.1588 44.2823 91.281 44.0863 91.7653C43.3553 91.1934 42.486 91.4448 41.672 91.3295C39.3499 91.0043 37.738 93.474 37.6711 95.2957C37.6135 96.9168 38.3468 98.2658 39.7419 99.1236C41.1923 100.016 42.7465 100.157 44.2869 99.3104C44.6328 99.119 44.8357 98.8815 45.2393 99.2666C46.1178 100.106 47.1647 99.986 48.2163 99.6217C48.4215 98.7823 48.4146 97.9429 48.2209 97.1036ZM42.5275 97.0967C41.7296 97.1266 40.8995 96.3311 40.8718 95.5079C40.8418 94.6939 41.6005 93.9306 42.4813 93.8845C43.3761 93.8384 44.2777 94.627 44.28 95.4594C44.2823 96.2596 43.4245 97.0621 42.5275 97.0967Z" fill="white"/>
<path d="M41.0523 84.0083C40.9093 83.3696 41.0223 82.7239 40.9831 82.0806C40.8978 80.6532 41.1607 79.2143 40.8471 77.7938C40.4804 77.8076 39.8693 77.584 39.7979 77.9137C39.6134 78.7623 39.3551 78.1743 39.1084 78.029C38.1998 77.494 37.2359 77.3856 36.2305 77.6716C34.7063 78.1028 33.6732 79.3157 33.5095 80.8884C33.332 82.5925 33.86 84.0014 35.382 84.9054C36.7909 85.7424 38.3105 85.5326 39.8486 84.3404C39.897 84.4419 39.9454 84.5387 39.9939 84.6379C40.2637 85.189 40.7225 85.3896 41.3106 85.3619C41.5596 85.3504 41.7187 85.2858 41.7925 84.9953C41.9678 84.3196 41.1053 84.4788 41.0477 84.0107L41.0523 84.0083ZM37.206 84.4396C35.8847 84.4649 34.621 83.0006 34.6233 81.4441C34.6256 79.8115 35.774 78.6009 37.3005 78.617C38.7118 78.6332 39.9108 79.83 39.9477 81.2597C39.9916 82.9361 38.7187 84.4119 37.2037 84.4396H37.206Z" fill="white"/>
<path d="M71.9214 84.1328C71.9214 84.0936 71.9122 84.0567 71.9076 84.0198C71.73 83.5378 71.8499 83.0374 71.8199 82.5463C71.7277 80.9598 72.0044 79.3617 71.6747 77.7822C70.5724 78.4117 69.5693 77.8629 68.5224 77.5654C68.0612 77.4363 67.5401 77.5031 67.0512 77.6576C65.5109 78.1396 64.5977 79.1819 64.3533 80.7545C64.0742 82.5394 64.7776 84.1512 66.175 84.8845C67.7476 85.71 69.2626 85.604 70.66 84.3195C70.7408 84.4764 70.8007 84.5963 70.863 84.7162C71.1558 85.2696 71.6539 85.3872 72.2235 85.3526C72.4379 85.3411 72.5394 85.235 72.6247 85.0275C72.9314 84.2873 71.9283 84.6009 71.9214 84.1281V84.1328ZM68.0174 84.4372C66.6431 84.4372 65.4094 82.9383 65.4578 81.3264C65.5039 79.7307 66.62 78.5893 68.1074 78.6146C69.6247 78.6423 70.7869 79.8852 70.7846 81.474C70.78 82.9936 69.4356 84.4348 68.0174 84.4372Z" fill="white"/>
<path d="M90.5804 81.518C90.8456 79.2374 89.1484 77.614 86.6326 77.5471C84.5457 77.4918 82.7679 79.2997 82.754 81.3935C82.7379 83.6325 84.4835 85.3666 86.7226 85.3943C89.0262 85.422 90.9171 83.4665 90.5781 81.518H90.5804ZM86.7618 84.209C85.0853 84.2136 83.9162 83.0976 83.907 81.488C83.9001 79.8808 85.2006 78.5848 86.801 78.6033C88.3852 78.6217 89.4298 79.7401 89.4298 81.4165C89.4298 83.289 88.5558 84.2044 86.7618 84.209Z" fill="white"/>
</g>
<defs>
<clipPath id="clip0_396_7831">
<rect width="115.71" height="100" fill="white"/>
</clipPath>
</defs>
</svg>
