<svg width="180" height="150" viewBox="0 0 180 150" fill="none" xmlns="http://www.w3.org/2000/svg">
<g clip-path="url(#clip0_396_8448)">
<path d="M98.5789 3.06394C99.5405 3.7915 100.392 4.61111 101.243 5.46181C101.444 5.66053 101.644 5.85926 101.851 6.06401C103.343 7.54338 104.827 9.03082 106.305 10.524C107.228 10.1292 107.81 9.60814 108.505 8.89001C108.821 8.56803 108.821 8.56803 109.143 8.23955C109.361 8.01528 109.578 7.79101 109.802 7.55994C110.235 7.114 110.668 6.66919 111.103 6.22571C111.294 6.02819 111.486 5.83066 111.683 5.62715C112.167 5.19538 112.167 5.19538 112.7 5.19538C112.788 12.8446 112.875 20.4938 112.966 28.3748C115.604 25.7371 115.604 25.7371 118.295 23.0462C120.737 24.2672 121.905 26.9786 122.824 29.4405C124.338 34.472 123.726 39.3974 121.266 43.9994C120.209 45.6466 118.879 46.9842 117.495 48.357C117.11 48.745 116.726 49.1332 116.341 49.5216C115.31 50.5598 114.273 51.5918 113.233 52.6199C113.627 53.5429 114.148 54.1243 114.866 54.82C115.188 55.1358 115.188 55.1358 115.517 55.458C115.741 55.6754 115.965 55.8928 116.197 56.1168C116.642 56.5492 117.087 56.9828 117.531 57.4177C117.728 57.609 117.926 57.8004 118.129 57.9975C118.561 58.4813 118.561 58.4813 118.561 59.0142C111 59.1021 103.439 59.19 95.6481 59.2806C97.3186 60.9511 98.9892 62.6217 100.71 64.3428C100.277 66.0764 98.7214 66.9152 97.2467 67.8064C93.0753 70.0305 88.3132 70.51 83.7587 69.2384C79.9289 67.912 77.417 65.8253 74.6002 63.0107C74.2592 62.6734 73.9182 62.3362 73.5771 61.9991C72.7585 61.1867 71.9459 60.3687 71.1366 59.5471C70.2136 59.9419 69.6322 60.4629 68.9365 61.181C68.7259 61.3957 68.5154 61.6103 68.2985 61.8315C68.0811 62.0558 67.8637 62.28 67.6397 62.5111C67.2073 62.957 66.7737 63.4018 66.3388 63.8453C66.1474 64.0429 65.9561 64.2404 65.7589 64.4439C65.2751 64.8757 65.2751 64.8757 64.7423 64.8757C64.6544 57.2265 64.5664 49.5773 64.4758 41.6963C61.8382 44.3339 61.8382 44.3339 59.1472 47.0249C57.4908 46.4727 56.5827 44.4677 55.7503 43.0128C53.512 38.5306 53.2966 33.7404 54.8105 28.9888C55.9351 26.0791 57.7806 23.902 59.9465 21.714C60.1277 21.5306 60.3089 21.3472 60.4955 21.1583C61.7264 19.9154 62.9649 18.6804 64.2094 17.4511C63.8146 16.5282 63.2936 15.9467 62.5754 15.251C62.3608 15.0405 62.1461 14.83 61.925 14.613C61.7007 14.3956 61.4764 14.1782 61.2454 13.9543C60.7994 13.5218 60.3546 13.0883 59.9112 12.6533C59.7136 12.462 59.5161 12.2706 59.3126 12.0735C58.8808 11.5897 58.8808 11.5897 58.8808 11.0568C70.3546 10.925 70.3546 10.925 82.0602 10.7904C80.3018 9.03197 78.5433 7.27353 76.7316 5.46181C77.8988 3.12738 80.7307 1.77449 83.1259 0.932499C88.5078 -0.658328 93.8929 -0.0495885 98.5789 3.06394ZM79.6623 14.5038C79.4305 14.7368 79.1987 14.9698 78.9598 15.2099C78.3941 15.7788 77.829 16.3482 77.2645 16.9183C77.6605 17.8418 78.1856 18.4343 78.8984 19.1372C79.2204 19.4566 79.2204 19.4566 79.5489 19.7824C79.7732 20.0022 79.9974 20.222 80.2285 20.4485C80.4548 20.6724 80.6812 20.8963 80.9144 21.127C81.4727 21.6792 82.0323 22.23 82.5931 22.7797C82.1898 23.7303 81.6326 24.3349 80.9008 25.0569C80.6742 25.2818 80.4475 25.5068 80.2139 25.7386C79.8585 26.0873 79.8585 26.0873 79.4958 26.4432C79.2568 26.6798 79.0178 26.9164 78.7715 27.1602C78.1815 27.7439 77.5903 28.3263 76.998 28.9076C76.0745 28.5116 75.482 27.9865 74.7792 27.2737C74.5662 27.059 74.3533 26.8444 74.1339 26.6232C73.9141 26.3989 73.6943 26.1747 73.4679 25.9436C73.2439 25.7173 73.02 25.4909 72.7893 25.2578C72.2372 24.6994 71.6863 24.1398 71.1366 23.579C69.6792 24.192 68.6608 25.4127 67.5594 26.51C67.1622 26.9041 66.7603 27.2928 66.358 27.6816C64.2646 29.7397 62.6223 31.8916 62.5276 34.919C62.5814 37.9732 63.9798 39.887 66.0744 41.9627C66.4625 42.3538 66.8503 42.7452 67.238 43.1367C68.3544 44.2607 69.4772 45.3781 70.6037 46.492C71.5304 46.0978 72.097 45.5779 72.7851 44.8487C73.0973 44.5249 73.0973 44.5249 73.4158 44.1946C73.8517 43.7374 74.286 43.2788 74.7188 42.8187C74.927 42.6039 75.1351 42.3891 75.3495 42.1677C75.6323 41.8693 75.6323 41.8693 75.9209 41.5649C76.4652 41.1634 76.4652 41.1634 76.9915 41.1654C78.2439 41.7794 79.1718 42.9346 80.1453 43.911C80.3841 44.1423 80.623 44.3736 80.8691 44.6119C81.0935 44.8357 81.318 45.0594 81.5492 45.2899C81.8592 45.5971 81.8592 45.5971 82.1755 45.9105C82.5931 46.492 82.5931 46.492 82.5959 47.0243C82.234 47.7412 81.7669 48.2069 81.1933 48.7691C80.9657 48.9941 80.7382 49.2191 80.5038 49.4508C80.2646 49.6833 80.0254 49.9159 79.7789 50.1554C79.5387 50.392 79.2984 50.6287 79.0509 50.8725C78.4572 51.4568 77.8617 52.0391 77.2645 52.6199C77.8774 54.0773 79.0982 55.0957 80.1955 56.1971C80.5895 56.5943 80.9783 56.9962 81.3671 57.3985C83.4251 59.4919 85.577 61.1341 88.6044 61.2289C91.6586 61.1751 93.5724 59.7767 95.6481 57.6821C96.0393 57.294 96.4306 56.9062 96.8221 56.5185C97.9461 55.4021 99.0635 54.2793 100.177 53.1527C99.7814 52.2292 99.2563 51.6367 98.5435 50.9339C98.3288 50.721 98.1142 50.508 97.893 50.2886C97.6687 50.0688 97.4445 49.849 97.2134 49.6226C96.9871 49.3986 96.7607 49.1747 96.5276 48.944C95.9692 48.3919 95.4096 47.841 94.8488 47.2913C95.2522 46.3408 95.8094 45.7361 96.5411 45.0141C96.7678 44.7892 96.9944 44.5642 97.228 44.3325C97.465 44.0999 97.7019 43.8674 97.9461 43.6279C98.1851 43.3912 98.4242 43.1546 98.6704 42.9108C99.2604 42.3271 99.8516 41.7447 100.444 41.1634C101.367 41.5595 101.96 42.0845 102.663 42.7974C102.982 43.1193 102.982 43.1193 103.308 43.4478C103.638 43.7842 103.638 43.7842 103.974 44.1274C104.198 44.3538 104.422 44.5801 104.653 44.8133C105.205 45.3717 105.756 45.9313 106.305 46.492C107.817 45.8665 108.874 44.5552 110.011 43.4179C110.431 42.9992 110.855 42.585 111.279 42.1708C113.453 40.0212 114.843 38.1416 114.914 34.9856C114.869 30.9539 111.975 28.3619 109.253 25.6938C108.903 25.3479 108.903 25.3479 108.547 24.995C107.978 24.4329 107.409 23.8722 106.838 23.3126C105.439 24.4807 104.139 25.7127 102.858 27.0093C102.676 27.1927 102.494 27.3761 102.306 27.5651C101.862 28.012 101.419 28.4595 100.977 28.9076C100.026 28.5043 99.4216 27.9471 98.6996 27.2154C98.4746 26.9887 98.2497 26.762 98.0179 26.5285C97.7854 26.2915 97.5529 26.0545 97.3133 25.8104C97.0767 25.5713 96.8401 25.3323 96.5963 25.086C96.0126 24.4961 95.4302 23.9049 94.8488 23.3126C95.2522 22.3621 95.8094 21.7574 96.5411 21.0355C96.7678 20.8105 96.9944 20.5856 97.228 20.3538C97.465 20.1213 97.7019 19.8888 97.9461 19.6492C98.1851 19.4126 98.4242 19.1759 98.6704 18.9321C99.2604 18.3484 99.8516 17.766 100.444 17.1847C99.2723 15.7872 98.0482 14.4659 96.7638 13.1716C96.4998 12.8994 96.4998 12.8994 96.2304 12.6216C94.1331 10.508 92.0026 8.86344 88.9208 8.82548C84.7154 8.90682 82.4471 11.6912 79.6623 14.5038Z" fill="white"/>
<path d="M38.7162 91.1359C38.9833 91.1379 39.2504 91.1399 39.5256 91.142C44.1785 91.2447 48.073 93.0882 51.4215 96.3146C55.1132 100.568 56.2392 105.206 55.9508 110.702C55.8629 111.053 55.775 111.405 55.6844 111.768C47.8594 111.768 40.0343 111.768 31.9722 111.768C31.9722 109.482 31.9722 107.196 31.9722 104.84C37.2475 104.752 42.5228 104.664 47.958 104.574C46.1218 101.269 44.6008 99.918 41.164 98.6292C38.4769 98.1014 35.8695 98.5121 33.4656 99.8729C31.2019 101.487 29.5762 103.674 29.0414 106.439C28.7937 109.627 29.2366 112.261 31.2894 114.775C33.2547 116.927 35.7849 118.103 38.6829 118.262C41.6031 118.181 44.0595 116.998 46.0929 114.965C46.7424 114.918 47.361 114.903 48.01 114.913C48.1985 114.913 48.387 114.914 48.5812 114.915C49.1839 114.918 49.7865 114.925 50.3891 114.931C50.7974 114.934 51.2058 114.936 51.6141 114.939C52.6157 114.945 53.6172 114.954 54.6187 114.965C53.4466 118.655 50.3672 121.754 47.0081 123.588C42.9206 125.685 38.0919 126.09 33.6373 124.922C30.739 123.923 28.5437 122.449 26.3771 120.293C26.2102 120.136 26.0433 119.978 25.8713 119.816C22.8195 116.688 21.4329 112.091 21.4695 107.813C21.6459 103.098 23.5565 99.0941 26.91 95.7817C27.0735 95.6124 27.237 95.4431 27.4054 95.2686C30.414 92.3693 34.6186 91.0921 38.7162 91.1359Z" fill="white"/>
<path d="M96.1798 84.3252C98.5537 84.3252 100.928 84.3252 103.373 84.3252C103.377 85.0861 103.381 85.8469 103.385 86.6308C103.399 89.1512 103.416 91.6714 103.436 94.1917C103.448 95.719 103.459 97.2463 103.466 98.7737C103.473 100.249 103.483 101.724 103.497 103.2C103.501 103.761 103.504 104.322 103.506 104.884C103.509 105.673 103.516 106.463 103.525 107.252C103.524 107.596 103.524 107.596 103.523 107.948C103.571 111.075 104.651 113.542 106.837 115.775C108.769 117.441 111.4 118.392 113.966 118.246C117.176 117.793 119.48 116.494 121.563 114.008C123.114 111.843 123.59 109.298 123.247 106.675C122.675 103.993 121.3 101.738 119.025 100.161C116.558 98.594 114.199 97.9932 111.301 98.6385C109.438 99.1704 108.282 99.7739 106.571 100.844C106.571 98.0303 106.571 95.2168 106.571 92.3181C110.918 91.0758 110.918 91.0758 113.398 91.1358C113.663 91.1401 113.929 91.1444 114.203 91.1488C118.725 91.2701 122.621 92.9296 125.886 96.0918C129.547 100.239 130.846 104.865 130.601 110.307C130.257 114.676 127.983 118.63 124.725 121.496C121.379 124.114 117.708 125.517 113.448 125.489C113.182 125.487 112.917 125.486 112.643 125.485C107.85 125.373 104.065 123.416 100.709 120.027C96.3497 115.373 96.0546 109.943 96.1017 103.917C96.1032 103.349 96.1043 102.782 96.1051 102.214C96.1082 100.733 96.116 99.2523 96.1249 97.7714C96.1331 96.2549 96.1367 94.7385 96.1407 93.222C96.1493 90.2563 96.1633 87.2908 96.1798 84.3252Z" fill="white"/>
<path d="M75.5346 91.1524C75.7891 91.1493 76.0436 91.1463 76.3058 91.1431C80.5087 91.1601 84.8478 92.954 87.8591 95.9045C90.976 99.4341 92.8272 103.46 92.8193 108.204C92.8194 108.433 92.8196 108.663 92.8197 108.899C92.7899 110.659 92.7063 113.912 91.3872 115.231C90.7767 115.254 90.1654 115.26 89.5545 115.257C89.28 115.256 89.28 115.256 89.0001 115.256C88.4137 115.254 87.8273 115.251 87.2409 115.248C86.8442 115.246 86.4475 115.245 86.0508 115.244C85.0765 115.241 84.1022 115.236 83.1279 115.231C83.4052 114.672 83.686 114.119 83.9855 113.572C85.4474 110.835 85.9314 108.212 85.0491 105.185C84.5251 103.764 83.869 102.763 82.8615 101.643C82.8615 101.467 82.8615 101.291 82.8615 101.11C82.7117 101.039 82.562 100.967 82.4077 100.894C81.7553 100.556 81.1496 100.173 80.5302 99.7781C78.2739 98.4256 76.07 98.0936 73.4802 98.6198C70.5887 99.405 68.3958 100.893 66.8757 103.508C65.5524 106.105 65.3272 108.935 66.2262 111.717C67.2725 114.214 69.0595 116.346 71.5903 117.393C73.9683 118.183 76.2159 118.323 78.6954 118.324C79.1026 118.328 79.5098 118.333 79.917 118.337C80.9765 118.349 82.0359 118.354 83.0955 118.358C84.1816 118.364 85.2676 118.375 86.3537 118.386C88.4756 118.405 90.5974 118.418 92.7194 118.428C92.7194 120.714 92.7194 123 92.7194 125.355C90.1529 125.386 87.5865 125.41 85.0199 125.424C83.8277 125.431 82.6356 125.441 81.4434 125.456C80.2894 125.471 79.1356 125.478 77.9815 125.482C77.5448 125.484 77.108 125.489 76.6714 125.496C71.5332 125.578 67.3245 124.251 63.5141 120.668C60.1056 117.226 58.4066 113.166 58.25 108.304C58.4327 103.049 60.4053 98.8138 64.2114 95.2488C67.3645 92.4008 71.3413 91.1015 75.5346 91.1524Z" fill="white"/>
<path d="M171.283 93.4505C175.479 96.3775 178.205 99.9843 179.25 105.043C179.967 109.604 179.299 114.182 176.63 118.022C173.723 121.8 170.174 124.383 165.455 125.355C164.436 125.458 163.431 125.47 162.408 125.455C162.139 125.452 161.869 125.449 161.592 125.446C156.914 125.343 152.93 123.563 149.626 120.255C145.845 116.086 144.978 111.469 145.169 106.044C145.41 101.695 147.925 97.8508 151.068 94.9824C156.694 90.4019 165.036 89.7229 171.283 93.4505ZM154.581 101.56C152.664 103.917 151.897 106.64 152.134 109.636C152.622 112.305 153.944 114.703 156.055 116.421C158.551 118.1 161.281 118.851 164.261 118.305C166.924 117.593 169.231 116.207 170.784 113.899C172.226 111.232 172.883 108.629 172.083 105.64C171.168 102.931 169.652 100.751 167.112 99.3775C162.739 97.3144 157.996 97.9528 154.581 101.56Z" fill="white"/>
<path d="M65.0105 40.8972C66.3603 42.0264 67.6216 43.2082 68.8571 44.4607C69.0266 44.6314 69.1961 44.8021 69.3707 44.9779C69.7829 45.3933 70.1945 45.8092 70.6055 46.2258C71.5322 45.8316 72.0989 45.3117 72.7869 44.5825C72.9951 44.3666 73.2032 44.1508 73.4176 43.9284C73.8535 43.4712 74.2879 43.0126 74.7206 42.5525C74.9288 42.3377 75.1369 42.1228 75.3513 41.9015C75.5399 41.7026 75.7284 41.5037 75.9227 41.2987C76.467 40.8972 76.467 40.8972 76.9896 40.8955C78.2925 41.5387 79.2662 42.761 80.2803 43.778C80.6576 44.144 80.6576 44.144 81.0426 44.5174C81.3973 44.8711 81.3973 44.8711 81.7592 45.2319C81.977 45.4478 82.1949 45.6638 82.4193 45.8863C82.8613 46.4922 82.8613 46.4922 82.8678 47.0281C82.5012 47.7398 82.0334 48.2089 81.4615 48.7694C81.234 48.9943 81.0065 49.2193 80.772 49.4511C80.5328 49.6836 80.2936 49.9161 80.0472 50.1556C79.8069 50.3923 79.5667 50.6289 79.3192 50.8727C78.7254 51.457 78.1299 52.0394 77.5327 52.6201C78.1351 54.0368 79.2796 55.009 80.3499 56.0835C80.7245 56.4613 81.0941 56.8441 81.4636 57.227C83.5018 59.2811 85.6264 60.8694 88.6062 60.9627C90.7191 60.9408 92.7831 60.2297 94.3178 58.748C96.0165 59.315 97.0414 60.5354 98.2809 61.7786C98.5186 62.0087 98.7563 62.2389 99.0011 62.4759C99.336 62.8098 99.336 62.8098 99.6776 63.1503C99.8826 63.3534 100.088 63.5565 100.299 63.7658C100.712 64.343 100.712 64.343 100.68 64.9147C99.7401 66.8959 96.7316 68.1702 94.7735 68.917C90.2026 70.5253 85.6286 70.0993 81.2169 68.2521C78.5826 66.9798 76.6509 65.0582 74.602 63.0109C74.261 62.6736 73.92 62.3364 73.5789 61.9993C72.7603 61.1869 71.9477 60.3689 71.1384 59.5473C70.2154 59.9421 69.634 60.4631 68.9383 61.1813C68.7277 61.3959 68.5172 61.6106 68.3003 61.8317C68.0829 62.056 67.8655 62.2803 67.6415 62.5113C67.2091 62.9573 66.7755 63.4021 66.3406 63.8456C66.1492 64.0431 65.9579 64.2406 65.7608 64.4441C65.2769 64.8759 65.2769 64.8759 64.7441 64.8759C64.7379 61.7888 64.7332 58.7017 64.7303 55.6146C64.7289 54.1813 64.727 52.748 64.724 51.3147C64.7211 49.9327 64.7195 48.5507 64.7188 47.1687C64.7183 46.6402 64.7173 46.1117 64.7159 45.5832C64.714 44.8457 64.7137 44.1081 64.7138 43.3706C64.7129 43.1498 64.7119 42.929 64.7109 42.7016C64.7137 41.194 64.7137 41.194 65.0105 40.8972Z" fill="white"/>
<path d="M118.294 23.0464C120.736 24.2674 121.905 26.9788 122.824 29.4407C124.338 34.4722 123.725 39.3977 121.266 43.9996C120.209 45.6468 118.879 46.9844 117.495 48.3572C117.11 48.7452 116.725 49.1334 116.341 49.5218C115.31 50.56 114.273 51.592 113.232 52.6201C113.627 53.5431 114.148 54.1245 114.866 54.8202C115.188 55.136 115.188 55.136 115.517 55.4582C115.741 55.6756 115.965 55.893 116.196 56.117C116.642 56.5494 117.087 56.983 117.53 57.4179C117.728 57.6093 117.925 57.8006 118.129 57.9977C118.561 58.4816 118.561 58.4816 118.561 59.0144C110.736 59.0144 102.911 59.0144 94.8485 59.0144C94.8485 58.2151 94.8485 58.2151 95.3132 57.6597C95.5252 57.4518 95.7373 57.2439 95.9558 57.0297C96.1842 56.8039 96.4126 56.5781 96.6479 56.3454C96.8893 56.1107 97.1308 55.8759 97.3795 55.6341C97.621 55.3963 97.8624 55.1584 98.1112 54.9134C98.7093 54.3247 99.3091 53.7381 99.9106 53.153C99.5146 52.2294 98.9895 51.6369 98.2767 50.9341C98.062 50.7212 97.8474 50.5082 97.6262 50.2888C97.4019 50.069 97.1777 49.8492 96.9466 49.6228C96.6071 49.2869 96.6071 49.2869 96.2607 48.9442C95.7024 48.3921 95.1428 47.8412 94.582 47.2915C94.9921 46.3144 95.5824 45.6967 96.3326 44.9561C96.5713 44.7191 96.8099 44.4821 97.0559 44.238C97.3056 43.9927 97.5552 43.7475 97.8125 43.4949C98.0669 43.2431 98.3212 42.9913 98.5754 42.7393C99.1969 42.124 99.8196 41.5101 100.443 40.8972C101.367 41.2932 101.96 41.8183 102.662 42.5312C102.875 42.7458 103.088 42.9605 103.308 43.1816C103.527 43.4059 103.747 43.6302 103.974 43.8612C104.198 44.0875 104.422 44.3139 104.652 44.5471C105.204 45.1055 105.755 45.6651 106.305 46.2258C107.772 45.612 108.792 44.3709 109.897 43.2655C110.297 42.8661 110.702 42.4712 111.107 42.0763C113.273 39.9362 114.577 38.0944 114.648 34.9858C114.635 33.3347 114.316 32.1901 113.499 30.7729C113.147 30.1574 112.795 29.5419 112.433 28.9078C115.334 26.0064 115.334 26.0064 118.294 23.0464Z" fill="white"/>
<path d="M98.5777 3.06411C99.5393 3.79168 100.391 4.61128 101.242 5.46198C101.443 5.66071 101.643 5.85943 101.85 6.06418C103.342 7.54355 104.826 9.03099 106.304 10.5241C107.227 10.1293 107.809 9.60832 108.504 8.89019C108.82 8.56821 108.82 8.56821 109.142 8.23972C109.36 8.01545 109.577 7.79118 109.801 7.56012C110.233 7.11418 110.667 6.66937 111.102 6.22589C111.293 6.02836 111.485 5.83084 111.682 5.62733C112.166 5.19555 112.166 5.19555 112.698 5.19555C112.698 13.0206 112.698 20.8456 112.698 28.9078C111.716 28.4166 111.233 28.0379 110.48 27.2738C110.267 27.0592 110.054 26.8445 109.834 26.6234C109.615 26.3991 109.395 26.1748 109.168 25.9438C108.944 25.7174 108.72 25.4911 108.49 25.2579C107.938 24.6995 107.387 24.1399 106.837 23.5792C105.438 24.7474 104.138 25.9793 102.857 27.2759C102.675 27.4593 102.493 27.6427 102.305 27.8317C101.861 28.2786 101.418 28.7261 100.976 29.1742C99.9984 28.7642 99.3808 28.1738 98.6402 27.4237C98.4032 27.185 98.1662 26.9463 97.922 26.7004C97.6768 26.4507 97.4316 26.201 97.179 25.9438C96.9272 25.6894 96.6754 25.4351 96.4234 25.1809C95.8081 24.5594 95.1942 23.9366 94.5813 23.3128C94.9846 22.3623 95.5418 21.7576 96.2735 21.0356C96.5002 20.8107 96.7269 20.5857 96.9604 20.354C97.3159 20.0052 97.3159 20.0052 97.6785 19.6494C97.9176 19.4127 98.1566 19.1761 98.4029 18.9323C98.9928 18.3486 99.584 17.7662 100.176 17.1849C95.8423 11.7905 95.8423 11.7905 89.7647 9.1025C87.0414 9.06896 85.0426 9.71398 82.8584 11.3234C80.6848 9.50472 78.72 7.47673 76.7305 5.46198C77.7089 3.33012 80.2519 2.08548 82.3432 1.20743C87.895 -0.7442 93.6719 -0.195478 98.5777 3.06411Z" fill="white"/>
<path d="M14.1208 84.3252C14.1208 86.6112 14.1208 88.8971 14.1208 91.2524C16.3188 91.2524 18.5169 91.2524 20.7815 91.2524C20.7815 93.5383 20.7815 95.8243 20.7815 98.1795C17.4845 98.3114 17.4845 98.3114 14.1208 98.446C14.1283 100.522 14.1398 102.598 14.1614 104.674C14.1676 105.38 14.1714 106.085 14.1729 106.791C14.1754 107.808 14.1863 108.825 14.1988 109.842C14.1978 110.155 14.1967 110.467 14.1957 110.789C14.2307 112.785 14.5367 114.383 15.7194 116.03C17.3122 117.456 18.6401 117.786 20.7815 118.428C20.7815 120.714 20.7815 123 20.7815 125.355C16.5573 125.355 13.7698 124.228 10.6603 121.412C7.57691 118.219 6.83917 114.277 6.87514 110.018C6.87589 109.678 6.87665 109.339 6.87742 108.989C6.87989 108.094 6.88466 107.199 6.89059 106.304C6.89608 105.388 6.89851 104.472 6.90116 103.555C6.90656 101.763 6.91699 99.9716 6.92718 98.1795C4.64121 98.1795 2.35524 98.1795 0 98.1795C0.948785 97.0726 1.85237 96.027 2.87219 95.0022C3.11038 94.7623 3.34858 94.5224 3.59399 94.2753C3.84881 94.02 4.10369 93.7649 4.35863 93.5097C4.62389 93.2436 4.88913 92.9775 5.15435 92.7113C5.70653 92.1576 6.25925 91.6043 6.8123 91.0514C7.52203 90.3417 8.2299 89.6302 8.93734 88.9182C9.48268 88.3699 10.0292 87.8228 10.5761 87.2761C10.8379 87.014 11.0992 86.7515 11.3601 86.4886C11.7229 86.1232 12.0875 85.7596 12.4522 85.3962C12.6592 85.1888 12.8662 84.9815 13.0794 84.7678C13.5879 84.3252 13.5879 84.3252 14.1208 84.3252Z" fill="white"/>
<path d="M134.016 94.4492C136.39 94.4492 138.763 94.4492 141.209 94.4492C141.209 104.648 141.209 114.847 141.209 125.355C138.835 125.355 136.461 125.355 134.016 125.355C134.016 115.156 134.016 104.957 134.016 94.4492Z" fill="white"/>
<path d="M126.906 139.359C128.227 140.121 129.27 141.222 129.754 142.673C129.934 144.559 130.021 146.258 128.855 147.828C127.57 149.132 126.171 149.794 124.358 149.933C122.63 149.818 121.12 149.261 119.896 148.002C118.762 146.433 118.559 144.835 118.83 142.94C119.308 141.356 120.153 140.407 121.494 139.476C123.205 138.672 125.162 138.578 126.906 139.359ZM121.761 142.14C121.134 143.05 120.961 143.564 120.961 144.671C121.35 146.033 121.961 146.849 123.209 147.585C124.337 147.833 125.164 147.613 126.207 147.153C127.208 146.367 127.557 145.516 127.739 144.272C127.55 142.978 126.943 142.188 125.94 141.374C124.281 140.68 123.096 140.987 121.761 142.14Z" fill="white"/>
<path d="M86.3242 139.209C87.709 139.168 87.709 139.168 89.1217 139.126C89.4083 139.114 89.6949 139.102 89.9902 139.089C91.7627 139.064 92.9684 139.354 94.3171 140.542C95.4288 141.871 95.7069 143.36 95.6493 145.071C95.3969 146.87 94.62 147.851 93.2347 148.984C92.3624 149.575 91.6409 149.632 90.6173 149.626C90.3921 149.626 90.1669 149.625 89.9349 149.624C89.6501 149.622 89.3652 149.619 89.0718 149.617C87.7117 149.609 87.7117 149.609 86.3242 149.6C86.3242 146.171 86.3242 142.742 86.3242 139.209ZM88.4557 140.808C88.4557 143.094 88.4557 145.38 88.4557 147.735C90.5414 147.803 90.5414 147.803 92.1857 146.936C93.0996 145.902 93.4265 145.081 93.3565 143.728C93.1073 142.49 92.4033 141.752 91.3864 141.074C90.4192 140.986 89.4521 140.899 88.4557 140.808Z" fill="white"/>
<path d="M33.3047 139.21C34.1949 139.182 35.0851 139.155 36.0023 139.126C36.4186 139.108 36.4186 139.108 36.8433 139.09C38.0438 139.072 38.9062 139.069 39.8634 139.847C40.7279 140.793 40.8673 141.353 40.8626 142.644C40.6924 143.621 40.1212 144.116 39.4326 144.805C39.5226 144.972 39.6125 145.14 39.7052 145.312C40.4465 146.735 40.9774 148.028 41.2976 149.6C40.5063 149.6 39.715 149.6 38.8997 149.6C38.6765 149.079 38.4548 148.557 38.2336 148.035C38.0482 147.599 38.0482 147.599 37.859 147.155C37.5676 146.403 37.5676 146.403 37.5676 145.87C36.9521 145.782 36.3367 145.694 35.7026 145.604C35.7026 146.923 35.7026 148.241 35.7026 149.6C34.9113 149.6 34.12 149.6 33.3047 149.6C33.3047 146.171 33.3047 142.742 33.3047 139.21ZM35.7026 140.808C35.7026 141.775 35.7026 142.742 35.7026 143.739C36.9495 143.845 36.9495 143.845 38.0838 143.422C38.4743 142.756 38.4997 142.366 38.3669 141.607C37.7331 140.901 37.3887 140.813 36.4352 140.758C36.0726 140.783 36.0726 140.783 35.7026 140.808Z" fill="white"/>
<path d="M102.574 139.209C103.278 139.209 103.981 139.209 104.706 139.209C104.71 139.387 104.713 139.564 104.717 139.747C104.737 140.556 104.763 141.365 104.789 142.174C104.795 142.452 104.801 142.731 104.807 143.019C104.859 144.5 104.909 145.672 105.771 146.936C106.595 147.348 107.262 147.281 108.169 147.202C108.924 146.637 109.201 146.314 109.38 145.38C109.386 145.095 109.392 144.811 109.397 144.517C109.406 144.208 109.415 143.899 109.423 143.581C109.429 143.098 109.429 143.098 109.435 142.606C109.443 142.281 109.451 141.955 109.459 141.62C109.478 140.816 109.492 140.013 109.501 139.209C110.293 139.209 111.084 139.209 111.899 139.209C111.923 140.325 111.937 141.441 111.949 142.556C111.956 142.871 111.963 143.186 111.97 143.51C111.986 145.496 111.927 146.9 110.708 148.524C109.42 149.67 108.281 149.93 106.571 149.867C104.924 149.671 104.227 148.949 103.209 147.728C102.524 146.75 102.543 145.911 102.548 144.751C102.549 144.429 102.55 144.107 102.551 143.776C102.553 143.439 102.555 143.103 102.558 142.756C102.559 142.247 102.559 142.247 102.561 141.728C102.564 140.888 102.569 140.049 102.574 139.209Z" fill="white"/>
<path d="M134.016 84.3252C136.39 84.3252 138.763 84.3252 141.209 84.3252C141.209 86.6991 141.209 89.073 141.209 91.5188C138.835 91.5188 136.461 91.5188 134.016 91.5188C134.016 89.1449 134.016 86.771 134.016 84.3252Z" fill="white"/>
<path d="M48.2227 139.209C50.5086 139.209 52.7946 139.209 55.1498 139.209C55.1498 139.825 55.1498 140.44 55.1498 141.074C53.5672 141.074 51.9846 141.074 50.3541 141.074C50.3541 141.778 50.3541 142.481 50.3541 143.206C51.9367 143.206 53.5193 143.206 55.1498 143.206C55.1498 143.821 55.1498 144.437 55.1498 145.071C53.5672 145.071 51.9846 145.071 50.3541 145.071C50.3541 145.95 50.3541 146.829 50.3541 147.735C51.9367 147.735 53.5193 147.735 55.1498 147.735C55.1498 148.351 55.1498 148.966 55.1498 149.6C52.8639 149.6 50.5779 149.6 48.2227 149.6C48.2227 146.171 48.2227 142.742 48.2227 139.209Z" fill="white"/>
<path d="M142.616 139.182C143.125 139.476 143.125 139.476 143.874 140.009C143.503 140.906 143.08 141.337 142.276 141.874C142.012 141.698 141.748 141.522 141.476 141.341C140.855 141.32 140.232 141.318 139.611 141.341C139.523 141.781 139.435 142.22 139.345 142.673C139.499 142.719 139.654 142.764 139.813 142.811C141.408 143.305 142.758 143.819 143.841 145.154C144.238 146.103 144.284 146.715 144.141 147.736C143.409 148.843 142.785 149.563 141.476 149.867C139.524 150.027 138.044 149.622 136.414 148.535C136.759 147.766 137.123 147.237 137.746 146.67C137.917 146.752 138.087 146.835 138.262 146.92C139.324 147.288 140.362 147.377 141.476 147.469C141.464 146.827 141.464 146.827 141.21 146.137C140.515 145.664 140.515 145.664 139.661 145.321C138.558 144.836 137.689 144.443 136.947 143.473C136.732 142.479 136.772 141.541 136.947 140.542C138.262 138.765 140.567 138.377 142.616 139.182Z" fill="white"/>
<path d="M67.8061 139.183C68.3074 139.435 68.7922 139.719 69.2725 140.009C68.745 140.624 68.2175 141.24 67.674 141.874C67.3223 141.698 66.9706 141.522 66.6082 141.341C65.7645 141.297 65.7645 141.297 65.0097 141.341C64.9217 141.693 64.8338 142.045 64.7432 142.407C64.8947 142.468 65.0461 142.53 65.2022 142.593C68.6562 144.052 68.6562 144.052 69.2673 145.367C69.561 146.428 69.5916 147.045 69.2392 148.102C68.6448 148.934 68.1495 149.42 67.1911 149.784C65.1217 150.079 63.5308 149.68 61.8125 148.535C62.157 147.766 62.521 147.237 63.1446 146.67C63.3315 146.752 63.5183 146.835 63.7108 146.92C64.52 147.219 65.2133 147.413 66.0754 147.469C66.5815 147.119 66.5815 147.119 66.8747 146.67C66.0079 145.652 64.8227 145.26 63.6276 144.724C62.7835 144.215 62.4852 143.828 62.0789 142.94C61.9325 141.789 62.0006 141.223 62.5452 140.192C63.8667 138.614 65.9177 138.503 67.8061 139.183Z" fill="white"/>
<path d="M76.4648 139.209C77.1682 139.209 77.8716 139.209 78.5963 139.209C78.5963 142.638 78.5963 146.067 78.5963 149.6C77.8929 149.6 77.1895 149.6 76.4648 149.6C76.4648 146.171 76.4648 142.742 76.4648 139.209Z" fill="white"/>
<path d="M76.9993 135.746C77.7906 135.746 78.5819 135.746 79.3972 135.746C79.0317 136.812 78.6233 137.63 77.7986 138.41C76.7995 138.494 76.7995 138.494 75.9336 138.41C76.2853 137.531 76.637 136.652 76.9993 135.746Z" fill="white"/>
</g>
<defs>
<clipPath id="clip0_396_8448">
<rect width="179.574" height="150" fill="white"/>
</clipPath>
</defs>
</svg>
