<svg width="150" height="72" viewBox="0 0 150 72" fill="none" xmlns="http://www.w3.org/2000/svg">
<g clip-path="url(#clip0_396_8316)">
<path d="M0 21.2805C0.0782209 21.2529 0.156442 21.2207 0.234663 21.1931C0.220859 21.5106 0.381902 21.6302 0.690184 21.6256C1.66104 21.6164 2.6273 21.6486 3.59356 21.6026C3.78221 21.5934 3.96166 21.3173 4.14571 21.1655C4.62883 21.055 4.60583 20.6639 4.60583 20.3004C4.60583 18.1333 4.60583 15.9707 4.60583 13.8035C4.55521 13.4078 4.75767 13.3296 5.11196 13.3342C6.86503 13.348 8.6181 13.3342 10.3758 13.3342C10.4126 13.4538 10.477 13.5734 10.477 13.6931C10.4908 16.0259 10.4954 18.3587 10.5046 20.6915C10.523 20.779 10.5414 20.871 10.5598 20.9584C10.5782 20.9814 10.5874 21.009 10.592 21.0366C10.5276 21.5013 10.7485 21.6348 11.1902 21.6256C12.2991 21.6026 13.4126 21.6486 14.5169 21.6072C15.0874 21.5842 15.2209 21.782 15.2025 22.3204C15.1656 23.5811 15.1886 24.8464 15.1886 26.1072C14.9172 26.144 14.6457 26.213 14.3742 26.2176C13.1135 26.2314 11.8528 26.2222 10.5092 26.2222C10.5092 26.8526 10.5092 27.4415 10.5092 28.0305C10.5092 33.6164 10.5046 39.2023 10.5046 44.7882C10.5046 45.0366 10.5276 45.2851 10.5414 45.5336C10.5092 45.5566 10.4908 45.5888 10.4862 45.6302C10.4862 45.6808 10.4862 45.736 10.4816 45.7866L10.4862 45.782C10.431 45.7958 10.3482 45.7958 10.3252 45.8326C9.91564 46.5412 10.1963 48.2299 10.7945 48.8234C11.3558 49.3756 11.9218 49.9001 12.773 49.9185C12.9617 49.9921 13.1641 50.1486 13.3436 50.1302C14.0153 50.0474 14.6963 49.9461 15.3497 49.7713C15.9202 49.6194 16.1043 49.6977 16.1089 50.2728C16.1135 50.9998 16.1365 51.7268 16.0997 52.4492C16.0767 52.9093 15.9571 53.3694 15.8788 53.825C15.023 53.7375 14.2868 54.0642 13.5828 54.5013C12.7362 54.5336 11.8896 54.5658 11.0475 54.598C10.8313 54.4277 10.638 54.1701 10.3942 54.1056C9.24847 53.802 8.10276 53.6225 7.03067 52.9829C5.95399 52.3388 5.50767 51.3817 5.08896 50.351C4.90031 49.8909 4.8635 49.3618 4.77607 48.8602C4.70705 48.4691 4.61503 48.0734 4.61503 47.6777C4.60123 44.0796 4.61043 40.4814 4.61043 36.8833C4.61043 33.5152 4.61043 30.1471 4.61043 26.7744C4.61043 26.4293 4.59663 26.144 4.1365 26.2222C4.09969 26.2222 4.05828 26.2314 4.02147 26.236C3.14264 26.2314 2.2592 26.2038 1.38037 26.2314C0.842024 26.2544 0.363497 26.2038 0 25.7667C0 25.5366 0 25.3066 0 25.0765C0.101227 24.9799 0.289877 24.8879 0.294478 24.7866C0.331288 24.101 0.358896 23.4109 0.331288 22.7253C0.322086 22.5458 0.115031 22.3756 0 22.2007C0 21.8925 0 21.5888 0 21.2805Z" fill="white"/>
<path d="M134.125 0C134.167 0.0460123 134.203 0.0874233 134.245 0.133436C134.286 0.165644 134.328 0.193252 134.369 0.22546L134.364 0.220859C134.461 0.418712 134.535 0.625767 134.654 0.805215C134.834 1.07209 135.078 1.29294 135.234 1.56902C135.561 2.15798 135.855 2.76994 136.154 3.3727C136.476 4.02607 136.808 4.67485 137.107 5.33742C137.383 5.94479 137.654 6.55215 137.871 7.18251C138.059 7.72086 138.174 8.2638 138.473 8.77914C138.763 9.28067 138.768 9.94325 139.048 10.4494C139.697 11.6273 139.532 12.8696 139.173 13.9969C138.639 15.658 137.608 17.0521 136.145 18.0828C135.998 18.1886 135.956 18.4509 135.869 18.6396C135.634 18.7086 135.4 18.7776 135.17 18.8466C135.041 18.6258 134.898 18.4141 134.783 18.184C134.668 17.9586 134.581 17.7193 134.484 17.4847C134.636 17.3328 134.792 17.1764 134.944 17.0245C135.022 16.9095 135.096 16.7945 135.174 16.6794C135.593 16.0767 136.062 15.5015 136.412 14.8574C136.794 14.1488 137.263 13.408 137.116 12.5613C136.932 11.5307 136.647 10.5138 136.366 9.50153C136.21 8.94939 135.984 8.41104 135.759 7.8819C135.455 7.18251 135.133 6.48773 134.788 5.81135C134.737 5.71012 134.512 5.70092 134.369 5.65031C134.226 5.53067 134.144 5.17638 133.877 5.52607C133.665 5.73313 133.389 5.90337 133.251 6.14724C132.97 6.64877 132.763 7.18712 132.538 7.71626C132.432 7.96472 132.335 8.22239 132.262 8.48006C132.073 9.15184 131.466 9.68558 131.613 10.4678C131.222 10.5276 131.153 10.7945 131.148 11.1396C131.144 11.6135 131.153 12.1012 131.075 12.566C130.872 13.7439 131.148 14.7699 131.903 15.6902C132.317 16.1963 132.685 16.7439 133.062 17.2822C133.311 17.6319 133.136 17.8942 132.86 18.1196C132.565 18.3589 132.303 18.3083 132.073 18.0092C131.756 17.5951 131.332 17.4202 130.812 17.4847C130.624 17.2132 130.435 16.9371 130.242 16.6656C129.828 16.0859 129.367 15.5429 129.206 14.8113C129.055 14.1258 128.618 13.4448 128.668 12.7914C128.751 11.7055 129.032 10.6058 129.404 9.57515C129.897 8.21779 130.559 6.92025 131.153 5.59509C131.291 5.28221 131.47 4.98773 131.599 4.67485C131.834 4.10429 132.059 3.52914 132.257 2.94479C132.552 2.07515 132.823 1.20092 133.104 0.326687C133.219 0.216258 133.338 0.105828 133.453 0C133.683 0 133.914 0 134.144 0L134.125 0Z" fill="white"/>
<path d="M150.001 39.1104C149.702 39.2807 149.661 39.5337 149.642 39.865C149.573 41.1994 149.499 42.5383 149.081 43.8267C149.067 43.8727 149.012 43.9049 148.975 43.9463C148.855 43.9463 148.74 43.9463 148.621 43.9463C148.607 43.4908 148.621 43.0767 148.934 42.6626C149.136 42.4003 149.15 41.9494 149.145 41.5859C149.136 40.6288 149.021 39.658 149.771 38.8804C149.849 38.8804 149.923 38.8804 150.001 38.8804V39.1104Z" fill="white"/>
<path d="M149.441 33.1289C149.625 33.1289 149.814 33.1289 149.998 33.1289V35.4295C149.92 35.5169 149.805 35.5906 149.773 35.6918C149.708 35.9126 149.69 36.1427 149.653 36.3728C149.607 36.0967 149.561 35.8206 149.515 35.5446C149.492 34.7393 149.464 33.9341 149.441 33.1289Z" fill="white"/>
<path d="M0 22.2007C0.115031 22.3755 0.322086 22.5458 0.331288 22.7252C0.358896 23.4108 0.331288 24.101 0.294479 24.7866C0.289877 24.8878 0.101227 24.9798 0 25.0765C0 24.1194 0 23.1577 0 22.2007Z" fill="white"/>
<path d="M149.66 36.3729C149.697 36.1475 149.715 35.9128 149.78 35.692C149.807 35.5907 149.927 35.5171 150.005 35.4297V38.8806C149.927 38.8806 149.853 38.8806 149.775 38.8806C149.775 38.8392 149.771 38.7932 149.766 38.7518C149.729 38.0984 149.697 37.4404 149.66 36.787V36.3729Z" fill="white"/>
<path d="M26.2275 71.3189H25.6523C25.6523 71.2452 25.6569 71.1716 25.6615 71.098C25.8548 71.0934 26.0434 71.0842 26.2367 71.0796C26.2367 71.1578 26.2275 71.236 26.2275 71.3189Z" fill="white"/>
<path d="M26.2266 71.3189C26.2266 71.2406 26.2358 71.1624 26.2358 71.0796C26.3416 71.0796 26.4474 71.0796 26.5532 71.0796C26.5579 71.1578 26.5671 71.236 26.5717 71.3143H26.2266V71.3189Z" fill="white"/>
<path d="M25.659 71.098C25.659 71.1716 25.6544 71.2452 25.6498 71.3189H25.3047C25.3139 71.2406 25.3231 71.1578 25.3369 71.0796C25.4427 71.0842 25.5532 71.0934 25.659 71.098Z" fill="white"/>
<path d="M42.9068 39.3451C42.9758 39.842 43.0494 40.339 43.1185 40.8359C42.8148 41.02 42.6261 41.8804 42.824 42.3543C43.2657 43.3942 43.7028 44.4387 44.2044 45.4509C44.4114 45.8697 44.7887 46.2101 45.0878 46.5874C45.2488 46.7945 45.3961 47.0154 45.5755 47.204C46.1737 47.8436 46.7534 48.5016 47.5264 48.9479C48.916 49.7531 50.3746 50.2868 52.0218 50.158C52.4037 50.1258 52.7902 50.112 53.1675 50.158C54.212 50.2914 55.1599 49.9049 56.1123 49.6197C56.6093 49.4724 57.051 49.1365 57.5157 48.8835C58.0679 48.4601 58.6798 48.0966 59.1583 47.6043C60.166 46.569 60.7366 45.3037 60.8332 43.8405C62.6415 43.8451 64.4498 43.8543 66.258 43.8589C66.3041 45.1289 65.8669 46.27 65.3378 47.3881C65.2918 47.5905 65.3056 47.839 65.1952 47.9862C64.4728 48.9203 63.962 49.9924 63.0326 50.7976C62.0617 51.6396 61.0218 52.3804 59.8761 52.8727C58.0172 53.6687 56.1215 54.3313 54.005 54.2485C52.1645 54.1749 50.3056 54.4786 48.4789 54.0506C47.5587 53.8344 46.62 53.6181 45.7504 53.25C44.232 52.6059 42.87 51.704 41.6507 50.5675C40.6062 49.592 39.7044 48.5246 39.0326 47.2638C38.7611 46.7531 38.4758 46.247 38.2412 45.7178C38.0433 45.2761 37.8593 44.8206 37.7442 44.3512C37.551 43.5828 37.4175 42.8052 37.2565 42.0276C37.2473 41.9908 37.2197 41.9586 37.2105 41.9218C37.0771 41.3973 36.8516 40.8727 36.8332 40.3436C36.7826 38.7562 36.8148 37.1641 36.8148 35.5721C36.8148 34.8129 36.7228 34.0353 37.2059 33.3543C37.2657 33.2715 37.2795 33.1335 37.2703 33.023C37.1645 31.5736 37.8915 30.3681 38.4206 29.112C38.982 27.7868 39.6952 26.5353 40.6062 25.4126C41.324 24.8328 42.0234 24.2255 42.7596 23.6733C43.4406 23.1626 44.1675 22.7117 44.8715 22.2286C45.1016 22.0721 45.3271 21.9019 45.5571 21.7408C46.4912 21.5338 47.4344 21.3497 48.3639 21.1151C50.1814 20.6641 52.0126 20.6089 53.8761 20.793C55.7028 20.977 57.4191 21.5062 59.0525 22.2792C60.0648 22.7577 61.0356 23.3743 61.9145 24.0644C62.5863 24.589 63.1568 25.2838 63.6629 25.9878C64.1783 26.7009 64.5418 27.52 64.9973 28.2792C65.8623 29.7101 66.212 31.3252 66.5755 32.9126C66.7918 33.8651 66.6859 34.8865 66.7228 35.8804C66.7228 36.796 66.7228 37.7163 66.7182 38.6319C59.1445 38.6319 51.5755 38.6411 44.0019 38.6457C43.8317 38.6457 43.6292 38.5951 43.4912 38.6595C43.2151 38.793 42.6906 38.7654 42.916 39.3405L42.9068 39.3451ZM50.6139 24.8513C50.2504 24.9985 49.8823 25.2792 49.5234 25.2746C48.4881 25.2516 47.6645 25.8451 46.9329 26.3282C45.5341 27.2485 44.3746 28.5138 43.689 30.1012C43.4912 30.5568 43.4037 31.0537 43.2519 31.5276C43.1645 31.8037 43.0955 32.0982 42.9436 32.3374C42.686 32.7424 42.7366 33.1335 43.1369 33.3635C43.1001 33.5798 43.0679 33.796 43.031 34.0261H60.6123C60.6215 33.8605 60.6307 33.727 60.6399 33.5936C60.7182 33.658 60.7964 33.7224 60.9436 33.8374C60.8516 33.2485 60.8424 32.7193 60.6767 32.25C60.2396 30.9847 59.7427 29.7562 58.9927 28.6059C58.1047 27.2439 56.9129 26.4019 55.5096 25.7209C53.9498 24.9663 52.3071 24.8236 50.6231 24.8559L50.6139 24.8513Z" fill="white"/>
<path d="M149.759 38.7515C149.759 38.7929 149.763 38.8389 149.768 38.8803C149.018 39.6579 149.133 40.6242 149.142 41.5858C149.142 41.9493 149.133 42.4002 148.931 42.6625C148.618 43.0766 148.604 43.4907 148.618 43.9462C148.618 44.0245 148.636 44.1073 148.609 44.1763C148.369 44.7699 148.135 45.3634 147.877 45.9478C147.679 46.3895 147.472 46.8266 147.219 47.2407C146.681 48.115 146.165 49.0076 145.539 49.8174C145.13 50.3465 144.578 50.7791 144.035 51.184C143.216 51.7959 142.378 52.3941 141.495 52.9002C140.915 53.2315 140.239 53.4018 139.599 53.6318C139.162 53.7883 138.725 53.9447 138.279 54.0689C137.897 54.1748 137.501 54.2254 137.115 54.3036C135.371 54.3036 133.627 54.3036 131.888 54.3036C131.699 54.3036 131.501 54.3036 131.317 54.2668C129.5 53.9033 127.783 53.2499 126.164 52.3619C124.673 51.5475 123.592 50.2407 122.487 49.0076C121.549 47.9585 120.946 46.6518 120.546 45.276C120.389 44.7377 120.159 44.2223 119.993 43.6886C119.851 43.2238 119.731 42.7499 119.635 42.276C119.501 41.6272 119.414 40.9646 119.257 40.3205C119.23 40.2008 118.986 40.1318 118.843 40.0444C118.797 39.0091 118.728 37.9784 118.719 36.9432C118.714 36.368 118.802 35.7883 118.848 35.2085C119.326 35.1809 119.349 34.7852 119.391 34.4677C119.556 33.0873 119.874 31.7438 120.316 30.4278C120.923 28.6149 121.816 26.9585 122.966 25.4309C123.085 25.3435 123.224 25.2699 123.325 25.164C123.812 24.6349 124.208 24.0091 124.889 23.6824C125.105 23.5766 125.377 23.5214 125.524 23.3511C126.136 22.6656 126.964 22.3711 127.774 22.0398C127.912 21.9846 128.023 21.8511 128.142 21.7499C129.141 21.5199 130.135 21.2852 131.133 21.0551C131.248 21.0183 131.363 20.9815 131.483 20.9447C132.044 20.8665 132.61 20.7607 133.176 20.7192C135.674 20.549 138.109 20.9309 140.441 21.8143C142.015 22.4125 143.487 23.2315 144.72 24.4048C145.319 24.9754 146.009 25.5321 146.368 26.2407C146.828 27.1518 147.592 27.8742 147.785 28.9876C147.997 30.1978 148.655 31.3251 148.954 32.5306C149.151 33.3266 149.064 34.1962 149.082 35.0337C149.092 35.3465 149.151 35.5674 149.524 35.5444C149.57 35.8205 149.616 36.0965 149.662 36.3726V36.7867C149.63 37.3849 149.589 37.983 149.566 38.5812C149.566 38.6364 149.694 38.6962 149.763 38.7515H149.759ZM141.711 46.1272C141.799 45.98 141.9 45.8419 141.978 45.6901C142.199 45.2576 142.466 44.8389 142.618 44.3834C142.848 43.6932 142.871 42.9018 143.216 42.2944C143.625 41.5766 143.506 40.868 143.552 40.1456C143.57 39.8373 143.437 39.6717 143.115 39.6947C143.151 38.8481 143.193 38.0061 143.23 37.1594C143.335 37.049 143.533 36.9386 143.538 36.8235C143.547 35.9861 143.616 35.1303 143.478 34.3067C143.312 33.2898 142.908 32.3143 142.714 31.2975C142.553 30.4462 142.185 29.7238 141.684 29.0659C141.053 28.2469 140.46 27.3542 139.682 26.6962C138.348 25.5597 136.664 25.1226 134.957 24.8834C134.312 24.7913 133.632 24.934 132.969 24.9662C132.868 24.9432 132.748 24.8696 132.67 24.8972C131.382 25.4079 130.015 25.7576 128.947 26.7146C128.469 27.1426 127.912 27.5337 127.567 28.0582C126.951 28.9876 126.44 29.9953 125.938 30.9938C125.727 31.4171 125.727 31.9462 125.492 32.3511C125.174 32.9033 125.11 33.4692 125.165 34.0582C125.179 34.2146 125.368 34.3573 125.474 34.5091C125.437 34.9692 125.4 35.4294 125.363 35.8895C124.862 35.8987 124.655 36.138 124.682 36.6487C124.714 37.2561 124.682 37.868 124.691 38.48C124.696 38.7423 124.659 39.0597 124.788 39.2576C125.138 39.7913 125.17 40.3573 125.151 40.9554C125.151 41.2591 125.151 41.5628 125.151 41.8711C125.225 41.9861 125.303 42.1057 125.377 42.2208C125.52 42.9202 125.653 43.615 126.026 44.2545C126.697 45.4094 127.273 46.615 127.954 47.7607C128.124 48.0459 128.543 48.1886 128.855 48.3864C129.127 48.5613 129.463 48.6717 129.661 48.9064C130.369 49.7392 131.446 50.0107 132.334 50.0843C134.092 50.2361 135.946 50.503 137.635 49.6656C138.127 49.4217 138.794 49.3941 139.066 48.7775C139.512 48.5751 139.967 48.3956 140.4 48.161C140.524 48.0919 140.584 47.8849 140.658 47.733C140.75 47.549 140.823 47.3511 140.901 47.1625L141.477 46.4723C141.555 46.3573 141.628 46.2423 141.707 46.1272H141.711Z" fill="white"/>
<path d="M78.3363 30.368C78.2811 31.1226 78.1753 31.8818 78.1753 32.6364C78.1614 39.391 78.1707 46.1502 78.1707 52.9048C78.1707 53.0566 78.1891 53.2084 78.1983 53.3603C78.1983 53.4063 78.1983 53.4569 78.1983 53.5029C78.143 53.9861 77.8578 54.1839 77.3838 54.1839C75.709 54.1701 74.0296 54.1701 72.3547 54.1609C72.3179 53.8572 72.2489 53.5581 72.2489 53.2545C72.2443 42.9063 72.2489 32.5535 72.2305 22.2054C72.2305 21.6992 72.4099 21.6072 72.8608 21.6164C74.6047 21.6394 76.3486 21.6256 78.0924 21.621C78.1062 22.5367 78.1154 23.4523 78.1292 24.3726C78.1615 24.4324 78.1937 24.4922 78.2259 24.5566C78.2581 24.9247 78.4237 24.9293 78.6584 24.7084C79.1093 24.2851 79.551 23.848 80.0111 23.4339C80.3194 23.1578 80.6599 22.9186 80.982 22.6609C81.1661 22.5735 81.3501 22.4861 81.5342 22.394C82.0403 22.1364 82.5464 21.8787 83.0526 21.6256C83.324 21.598 83.6829 21.7407 83.7427 21.2851C84.1569 21.2253 84.571 21.1793 84.9805 21.1057C85.6246 20.9861 86.2642 20.7652 86.913 20.7284C87.7274 20.6824 88.5556 20.7376 89.3654 20.8342C90.2627 20.94 91.2059 21.0137 92.0295 21.3403C93.0602 21.7545 94.1415 22.118 94.9559 22.983C95.5863 23.6594 96.3685 24.1885 96.7274 25.1042C97.1185 26.1072 97.6016 27.0781 97.9329 28.0996C98.0894 28.5873 98.0295 29.1624 97.9973 29.6916C97.9605 30.2391 98.186 30.552 98.6829 30.713C98.7657 31.5183 98.913 32.3235 98.9176 33.1287C98.936 39.8097 98.9268 46.4907 98.9268 53.1716C98.9268 53.9953 98.7427 54.1885 97.9375 54.1839C96.2719 54.1839 94.6062 54.1701 92.9406 54.1609C92.9406 47.664 92.9406 41.1624 92.9406 34.6655C92.9406 33.0229 93.0142 31.3802 92.5035 29.779C92.3838 29.4063 92.4068 28.9784 92.2596 28.6195C91.9283 27.8097 91.5418 27.0045 90.7596 26.5213C90.074 26.098 89.3838 25.6609 88.6476 25.3526C88.344 25.2238 87.7688 25.0811 87.6584 25.7483C86.9682 25.7483 86.2734 25.7483 85.5832 25.7483C85.5096 25.6057 85.4084 25.325 85.367 25.3342C84.9805 25.4078 84.5111 25.0489 84.2075 25.5367C83.3102 25.9968 82.3578 26.3741 81.5296 26.9354C80.5909 27.5704 79.7213 28.3204 78.9069 29.1118C78.6032 29.4063 77.9544 29.7008 78.3409 30.3726L78.3363 30.368Z" fill="white"/>
<path d="M116.987 26.204C115.418 26.2132 113.854 26.2224 112.285 26.2316C111.76 26.1488 111.811 26.4985 111.811 26.839C111.811 33 111.811 39.1657 111.811 45.3267C111.705 46.2424 111.977 47.0844 112.225 47.9494C112.547 49.0721 113.062 49.6289 114.227 49.8083C114.742 50.158 115.294 50.2408 115.906 50.0798C116.49 49.9233 117.089 49.8221 117.682 49.6933C117.719 49.7577 117.783 49.8221 117.783 49.8865C117.793 51.0875 117.783 52.2884 117.797 53.4893C117.797 53.8298 117.586 53.8022 117.346 53.8436C116.702 53.9586 116.067 54.1059 115.432 54.2623C115.225 54.3129 114.88 54.2025 114.921 54.6212C114.19 54.6212 113.463 54.6212 112.731 54.6212C112.708 54.5338 112.713 54.3819 112.662 54.3635C112.17 54.1749 111.682 53.9126 111.171 53.8574C110.398 53.7746 109.694 53.5675 109.05 53.1442C108.756 52.7899 108.48 52.4172 108.158 52.0905C107.868 51.8006 107.527 51.5614 107.21 51.3037C106.888 50.6227 106.727 49.9187 106.722 49.1503C106.717 48.6764 106.708 48.0645 106.064 47.8528L105.848 45.3175C106.28 45.3819 106.294 45.1151 106.289 44.793C106.28 42.9387 106.289 41.0844 106.289 39.2255C106.289 35.0936 106.289 30.9617 106.289 26.8298C106.289 26.4939 106.34 26.1396 105.816 26.227C104.711 26.227 103.602 26.1994 102.498 26.2316C101.978 26.25 101.812 25.997 101.812 25.5599C101.812 24.2439 101.826 22.928 101.831 21.6166C102.981 21.6166 104.127 21.6166 105.277 21.6212C105.604 21.6212 105.862 21.5752 105.834 21.1657C106.308 21.046 106.289 20.6595 106.289 20.2961C106.289 18.0921 106.289 15.8881 106.289 13.6841C106.653 13.2976 107.122 13.3298 107.596 13.3344C108.779 13.3482 109.966 13.362 111.148 13.3252C111.673 13.3068 111.829 13.4586 111.82 13.9924C111.788 16.1319 111.806 18.2715 111.811 20.4111C111.811 20.7746 111.788 21.1611 112.266 21.2761C112.469 21.3911 112.671 21.5982 112.878 21.6028C114.024 21.635 115.174 21.6028 116.325 21.635C116.513 21.6396 116.693 21.8467 116.877 21.9617C116.877 22.7071 116.859 23.4571 116.877 24.2025C116.895 24.8697 116.951 25.5322 116.987 26.1994V26.204Z" fill="white"/>
<path d="M36.4706 21.1657C36.5074 21.4924 36.5672 21.8236 36.5718 22.1503C36.5765 22.974 36.558 23.7976 36.5488 24.6212C36.0105 24.5752 35.8679 24.8467 35.8817 25.3482C35.9093 26.296 35.8725 26.296 34.9062 26.1534C34.6071 26.1074 34.2298 26.0568 34.17 26.5353C33.3234 26.5399 32.4814 26.5491 31.6347 26.5537C31.4875 26.4433 31.3126 26.2178 31.193 26.2454C30.6685 26.3559 30.1393 26.4893 29.647 26.7009C29.0995 26.9356 28.5565 27.2163 28.078 27.5614C27.4752 27.9939 26.9047 28.4862 26.3801 29.0154C26.0718 29.3236 25.8878 29.7562 25.6485 30.1289C25.0596 30.566 24.8525 31.1825 24.8525 31.8773C24.8479 38.4249 24.8525 44.9724 24.8525 51.5154C24.8525 52.0813 24.8939 52.6473 24.8387 53.2086C24.8065 53.5261 24.6225 53.8298 24.512 54.1427C22.9384 54.1473 21.3648 54.1519 19.7912 54.1565C19.7912 53.3605 19.7912 52.5644 19.7912 51.773C19.7912 49.1227 19.7774 46.4724 19.7774 43.8221C19.7774 38.0384 19.7774 32.2546 19.7728 26.4709C19.7728 25.6197 19.713 24.773 19.6807 23.9218C19.6807 23.8436 19.6807 23.77 19.6807 23.6917C19.6439 23.6135 19.6071 23.5353 19.5703 23.4617C19.5703 23.3467 19.5703 23.2316 19.5703 23.1166C19.6347 22.9786 19.7498 22.8359 19.7498 22.6979C19.7544 22.339 19.7083 21.9801 19.6853 21.6212C21.2498 21.6212 22.8142 21.6304 24.3786 21.612C24.7559 21.612 24.8847 21.7316 24.8709 22.1043C24.8479 22.7531 24.8755 23.4019 24.8571 24.0506C24.8479 24.4095 24.986 24.589 25.3403 24.6074C25.4093 24.612 25.4829 24.6212 25.5519 24.6258C25.5473 24.7638 25.5427 24.8973 25.5335 25.0353C25.6577 25.0215 25.8188 25.0491 25.9062 24.9801C26.2191 24.7408 26.5274 24.4878 26.7988 24.2025C27.3188 23.6595 27.8111 23.0982 28.3126 22.5414C28.7728 22.27 29.2053 21.9203 29.7022 21.7362C30.7421 21.3543 31.7958 20.8804 32.8771 20.7838C33.986 20.6825 35.2191 20.2638 36.2636 21.1381C36.3096 21.1795 36.4108 21.1519 36.489 21.1611L36.4706 21.1657Z" fill="white"/>
<path d="M40.6047 25.422C39.689 26.5447 38.9804 27.7916 38.4191 29.1213C37.8853 30.3775 37.163 31.583 37.2688 33.0324C37.278 33.1428 37.2642 33.2809 37.2044 33.3637C36.7212 34.0447 36.8133 34.8177 36.8133 35.5815C36.8133 37.1735 36.7811 38.7609 36.8317 40.3529C36.8501 40.8821 37.0755 41.4066 37.209 41.9312C37.2182 41.968 37.2458 42.0002 37.255 42.037C37.416 42.81 37.5495 43.5922 37.7427 44.3606C37.8623 44.8299 38.0418 45.2854 38.2396 45.7272C38.4789 46.2563 38.7596 46.7624 39.0311 47.2732C39.7028 48.5339 40.6047 49.6014 41.6491 50.5769C42.8685 51.7134 44.2304 52.6198 45.7488 53.2594C46.6139 53.6275 47.5525 53.8437 48.4774 54.06C50.3041 54.4879 52.163 54.1842 54.0034 54.2578C56.1154 54.3453 58.0157 53.6781 59.8746 52.8821C61.0249 52.3897 62.0602 51.6489 63.0311 50.8069C63.9605 50.0017 64.4758 48.9296 65.1936 47.9956C65.3087 47.8483 65.2949 47.5999 65.3363 47.3974C65.5203 47.3974 65.6998 47.3974 65.8838 47.3974C64.9406 49.445 63.5878 51.1474 61.6737 52.3713C59.8424 53.5401 57.8547 54.3085 55.7105 54.6305C54.4268 54.8238 53.12 55.0078 51.8317 54.9618C48.3255 54.8422 45.0403 53.9081 42.2427 51.7134C39.6844 49.7072 38.0602 47.0339 37.1491 43.9189C36.6936 42.3545 36.3531 40.7716 36.3347 39.129C36.3255 38.4066 36.2105 37.6888 36.2335 36.971C36.3669 32.9772 37.3654 29.2456 39.6982 25.9419C39.8915 25.6704 40.1399 25.4404 40.3654 25.1919C40.4436 25.2701 40.5172 25.3437 40.5955 25.422H40.6047Z" fill="white"/>
<path d="M78.0923 21.6259C76.3484 21.6259 74.6046 21.6397 72.8607 21.6213C72.4098 21.6167 72.2303 21.7042 72.2303 22.2103C72.2442 32.5584 72.2442 42.9112 72.2488 53.2594C72.2488 53.5631 72.3178 53.8621 72.3546 54.1658C71.9727 54.083 71.7656 53.9358 71.7656 53.4572C71.784 42.8238 71.7794 32.195 71.7794 21.5615C71.7794 21.4511 71.7794 21.3361 71.7794 21.0646C73.7303 21.06 75.6445 21.0508 77.5632 21.0508C77.9313 21.0508 78.1245 21.244 78.0923 21.6305V21.6259Z" fill="white"/>
<path d="M25.6614 71.0984C25.5556 71.0938 25.4452 71.0846 25.3393 71.08C25.2933 70.8453 25.2059 70.6153 25.2013 70.3806C25.1875 69.4006 25.1967 68.4159 25.1967 67.3162C24.8746 67.5048 24.6446 67.6337 24.4145 67.7671C24.1706 67.5232 23.9314 67.2794 23.6875 67.0401C23.7979 66.9757 23.9084 66.9113 24.0142 66.8469C24.778 66.3913 25.3255 65.8484 25.2059 64.8269C25.1139 64.0171 25.1967 63.1935 25.1829 62.3745C25.1829 62.1352 25.1139 61.8959 25.0725 61.6613C25.1507 61.6245 25.2243 61.5877 25.3025 61.5509C25.3716 61.5693 25.4498 61.5785 25.5142 61.6153C26.0525 61.896 26.2136 61.8085 26.2228 61.2012C26.2274 60.7871 26.2228 60.3729 26.2228 59.9634C26.3562 59.9588 26.4896 59.9496 26.6829 59.9404C26.6829 60.1613 26.6829 60.3637 26.6829 60.5708C26.6829 63.8423 26.6829 67.1183 26.6783 70.3898C26.6783 70.6245 26.5955 70.8591 26.5495 71.0984C26.4436 71.0984 26.3378 71.0984 26.232 71.0984C26.0387 71.103 25.8501 71.1122 25.6568 71.1168L25.6614 71.0984Z" fill="white"/>
<path d="M87.6569 25.7484C87.7674 25.0767 88.3425 25.2239 88.6462 25.3527C89.387 25.6656 90.0772 26.0981 90.7582 26.5214C91.5404 27.0092 91.9269 27.8098 92.2582 28.6196C92.4054 28.9785 92.3824 29.4064 92.502 29.7791C93.0174 31.3757 92.9438 33.023 92.9392 34.6656C92.9392 41.1625 92.9392 47.6641 92.9392 54.161C92.3778 54.184 92.364 53.8021 92.3686 53.4018C92.3824 50.8205 92.4054 48.2346 92.41 45.6533C92.4192 41.5951 92.4376 37.5368 92.41 33.4785C92.4008 31.8083 92.4192 30.1242 91.798 28.523C91.2321 27.0644 90.2336 26.1349 88.6554 25.8865C88.3195 25.8359 87.9882 25.7944 87.6523 25.7484H87.6569Z" fill="white"/>
<path d="M4.13056 26.2269C4.59528 26.1487 4.60449 26.434 4.60449 26.779C4.59528 30.1471 4.60449 33.5152 4.60449 36.8879C4.60449 40.4861 4.59989 44.0843 4.60909 47.6824C4.60909 48.0781 4.70111 48.4738 4.77013 48.8649C4.85755 49.3665 4.89436 49.891 5.08301 50.3557C5.50173 51.3818 5.94804 52.3435 7.02473 52.9876C8.09682 53.6272 9.24252 53.8066 10.3882 54.1103C10.6321 54.1747 10.8253 54.437 11.0416 54.6027C9.18731 54.5244 7.42964 54.1241 6.04927 52.7898C5.17504 51.9432 4.73332 50.8251 4.51246 49.6609C4.31461 48.6119 4.16737 47.5398 4.15817 46.4723C4.11216 39.9984 4.10755 33.5198 4.09375 27.0459C4.09375 26.8159 4.10755 26.5858 4.11215 26.3557C4.11676 26.3143 4.12596 26.2729 4.13056 26.2269Z" fill="white"/>
<path d="M41.9851 66.9709C42.4176 66.704 42.8961 66.4923 43.2596 66.1518C43.4759 65.954 43.6093 65.5583 43.6139 65.25C43.6369 63.6442 43.6277 62.0383 43.5817 60.4325C43.5679 59.908 43.7381 59.7469 44.2305 59.8067C44.4927 59.8389 44.7596 59.8113 45.0541 59.8113V68.0291C43.8624 68.2638 43.6185 68.1672 43.5541 67.3758C43.2136 67.5322 42.8823 67.6886 42.5556 67.8405C42.3624 67.5506 42.1737 67.2607 41.9805 66.9709H41.9851Z" fill="white"/>
<path d="M42.9064 39.3451C42.681 38.7745 43.2055 38.7975 43.4816 38.6641C43.6242 38.5951 43.8221 38.6503 43.9923 38.6503C51.5659 38.6503 59.135 38.6411 66.7086 38.6365C66.934 38.6365 67.1595 38.6457 67.385 38.6503C67.3804 38.7653 67.3712 38.8804 67.3666 38.9954C67.3389 39.023 67.3113 39.0506 67.2883 39.0782C67.0813 39.1472 66.8742 39.2715 66.6626 39.2715C58.9325 39.2715 51.1978 39.2669 43.4678 39.2623C43.2791 39.2623 43.0905 39.3175 42.9018 39.3451H42.9064Z" fill="white"/>
<path d="M24.5053 54.1471C24.6203 53.8388 24.8044 53.5351 24.832 53.2131C24.8872 52.6517 24.8458 52.0858 24.8458 51.5198C24.8458 44.9723 24.8458 38.4247 24.8458 31.8818C24.8458 31.187 25.0528 30.5704 25.6418 30.1333C25.72 30.1747 25.7982 30.2161 25.8765 30.2575C25.3887 30.7453 25.2829 31.3342 25.2875 32.0152C25.3381 38.3419 25.3703 44.6686 25.3887 50.9999C25.3887 51.9845 25.3105 52.9692 25.2645 54.0275C25.0298 54.0643 24.763 54.1103 24.4961 54.1517L24.5053 54.1471Z" fill="white"/>
<path d="M56.7227 59.9265C57.2104 59.8759 57.7027 59.8299 58.2319 59.7793V68.0707H56.7319V60.1658C56.7319 60.0876 56.7319 60.0094 56.7273 59.9311L56.7227 59.9265Z" fill="white"/>
<path d="M66.7235 35.885C66.6867 34.8912 66.7925 33.8697 66.5762 32.9172C66.2127 31.3298 65.863 29.7148 64.998 28.2838C64.5379 27.5292 64.179 26.7056 63.6637 25.9924C63.1575 25.293 62.5916 24.5982 61.9152 24.0691C61.0318 23.3789 60.0609 22.7669 59.0532 22.2838C57.4198 21.5062 55.6989 20.9771 53.8768 20.7976C52.0133 20.6136 50.1867 20.6688 48.3646 21.1197C47.4351 21.3498 46.4919 21.5384 45.5578 21.7455C45.5164 21.6626 45.475 21.5752 45.4336 21.4924C46.9198 20.816 48.5026 20.5491 50.1084 20.3467C52.5471 20.0384 54.9259 20.3743 57.2357 21.0783C59.0946 21.6442 60.8247 22.5507 62.2695 23.9034C64.6621 26.1442 66.1023 28.9234 66.7189 32.1212C66.9811 33.4786 67.0962 34.859 67.2756 36.2301C67.0916 36.1151 66.9075 36.0001 66.7235 35.885Z" fill="white"/>
<path d="M131.135 21.0458C130.136 21.2759 129.143 21.5106 128.144 21.7406C128.024 21.6624 127.905 21.5842 127.785 21.506C129.073 20.8986 130.44 20.6087 131.853 20.4753C132.713 20.3925 133.574 20.236 134.434 20.2544C136.785 20.305 139.109 20.6501 141.253 21.6578C142.863 22.4124 144.313 23.4017 145.541 24.7636C146.853 26.2176 147.828 27.8372 148.504 29.6317C148.928 30.7544 149.135 31.9599 149.439 33.1287C149.462 33.9339 149.489 34.7391 149.512 35.5443C149.139 35.5673 149.08 35.3464 149.07 35.0336C149.047 34.1961 149.135 33.3265 148.942 32.5305C148.643 31.325 147.985 30.1977 147.773 28.9875C147.58 27.8741 146.816 27.1517 146.356 26.2406C145.997 25.532 145.307 24.9753 144.708 24.4047C143.475 23.2314 142.003 22.4124 140.429 21.8142C138.097 20.9262 135.667 20.5443 133.164 20.7191C132.598 20.756 132.037 20.8664 131.471 20.9446C131.356 20.9814 131.241 21.0182 131.121 21.055L131.135 21.0458Z" fill="white"/>
<path d="M19.5546 23.121C19.5546 23.236 19.5546 23.351 19.5546 23.4661C19.5914 23.5443 19.6282 23.6225 19.665 23.6961C19.665 23.7743 19.665 23.848 19.665 23.9262C19.6282 24.124 19.5592 24.3219 19.5546 24.5243C19.5454 25.8587 19.55 27.1931 19.55 28.5274C19.55 34.7483 19.55 40.9737 19.55 47.1946C19.55 48.147 19.55 49.0995 19.4994 50.052C19.4902 50.2544 19.55 50.6455 19.1082 50.6133C19.1036 46.4446 19.0944 42.2713 19.0944 38.1026C19.0944 33.1102 19.0944 28.1133 19.0898 23.121C19.0898 23.0059 19.099 22.8909 19.1082 22.7759C19.2555 22.8909 19.4027 23.0059 19.55 23.121H19.5546Z" fill="white"/>
<path d="M92.7312 67.523V59.8159C93.2097 59.8619 93.6698 59.9033 94.1944 59.954C94.4428 62.4984 94.2864 65.0705 94.3002 67.638C93.7756 67.6012 93.2511 67.5598 92.7266 67.523H92.7312Z" fill="white"/>
<path d="M118.844 40.0308C118.986 40.1228 119.23 40.1918 119.258 40.3068C119.41 40.951 119.497 41.609 119.635 42.2624C119.732 42.7363 119.851 43.2102 119.994 43.6749C120.16 44.2087 120.385 44.7286 120.546 45.2624C120.947 46.6381 121.549 47.9449 122.488 48.994C123.592 50.2271 124.669 51.5338 126.164 52.3482C127.784 53.2317 129.5 53.8851 131.318 54.2532C131.502 54.29 131.7 54.29 131.888 54.29C133.632 54.29 135.376 54.29 137.115 54.29C137.115 54.4372 137.115 54.5844 137.115 54.7317C135.519 54.7777 133.913 54.9341 132.325 54.8375C130.738 54.7409 129.21 54.2624 127.729 53.6274C125.686 52.7532 123.97 51.4464 122.548 49.7716C121.402 48.4234 120.565 46.8682 119.999 45.1887C119.631 44.0982 119.336 42.9801 119.069 41.8621C118.927 41.2685 118.913 40.6427 118.844 40.0308Z" fill="white"/>
<path d="M108.48 60.9847C107.026 61.6611 106.851 63.4832 107.03 64.7623C107.154 65.6365 107.481 66.428 108.272 66.9341C108.415 67.4034 108.075 67.6335 107.799 67.8957C107.776 67.9187 107.78 67.9648 107.776 68.0016C106.538 67.4954 105.861 66.5384 105.613 65.2638C105.328 63.8007 105.351 62.3605 106.299 61.1227C106.639 60.681 107.205 60.4141 107.67 60.0645C107.743 60.1335 107.826 60.2669 107.895 60.2623C108.466 60.2071 108.507 60.566 108.48 60.9847Z" fill="white"/>
<path d="M69.957 67.638V59.9678H71.3558C71.6273 60.0966 71.1119 60.727 71.7699 60.6027C71.6641 60.9478 71.5353 61.2883 71.4616 61.6426C71.4156 61.8681 71.4432 62.1119 71.4386 62.3512C71.4662 63.8144 71.4938 65.273 71.5168 66.7362C71.5168 66.9616 71.48 67.1871 71.4616 67.4126C70.9601 67.4908 70.4586 67.5644 69.957 67.6426V67.638Z" fill="white"/>
<path d="M21.5052 67.9921C20.5528 67.6194 20.0282 66.851 19.7568 65.9308C19.2782 64.2973 19.2967 62.6731 20.2537 61.1961C20.5206 60.782 20.9945 60.4967 21.3764 60.1562C21.6111 60.4737 22.2138 60.5151 22.0896 61.1041C21.8595 61.394 21.5789 61.6516 21.4086 61.9737C20.5988 63.5289 20.9623 65.7789 22.2 67.0535C22.0712 67.2145 21.9378 67.3756 21.8135 67.5458C21.7031 67.6931 21.6065 67.8495 21.5006 68.0013L21.5052 67.9921Z" fill="white"/>
<path d="M38.4645 66.023C38.4277 64.0306 38.3909 62.0383 38.3633 60.0414C38.3633 59.9769 38.4277 59.9125 38.4277 59.9033H39.9231L39.9323 59.9217C39.9277 61.2009 40.0151 62.4892 39.8817 63.7545C39.7851 64.6564 39.9001 65.4984 40.0427 66.3634C39.9323 66.6165 39.8219 66.8696 39.6516 67.2653C39.4722 67.095 39.2789 66.9202 39.0995 66.7315C38.8786 66.5015 38.6762 66.253 38.4645 66.0183V66.023Z" fill="white"/>
<path d="M74.8287 67.5275C74.8149 65.9999 74.8379 64.4723 74.7734 62.9447C74.7504 62.3603 74.5342 61.7852 74.4053 61.2008C75.0679 60.8051 74.1201 60.7729 74.3271 60.3496C74.5434 60.4554 74.7734 60.5705 75.0035 60.6855C75.3486 60.8557 75.6891 61.026 76.0342 61.1962C76.1308 61.5735 76.2228 61.9462 76.3195 62.3235C76.3379 63.0919 76.3839 63.8603 76.3747 64.6288C76.3609 65.6318 76.3103 66.6349 76.278 67.6334C75.7949 67.5965 75.3164 67.5597 74.8333 67.5229L74.8287 67.5275Z" fill="white"/>
<path d="M129.88 61.6563C129.954 62.052 130.087 62.4431 130.092 62.8388C130.115 64.5735 130.101 66.3081 130.101 68.0934C129.457 68.0704 128.799 68.3005 128.375 67.6103C128.385 67.1133 128.288 66.5888 128.766 66.2161C128.785 66.2023 128.674 66.0137 128.624 65.9078C128.619 65.5167 128.633 65.121 128.596 64.7345C128.578 64.5367 128.454 64.3526 128.375 64.164C128.385 63.8741 128.288 63.5474 128.679 63.4002C128.693 63.3955 128.615 63.1517 128.578 63.0183C128.546 62.5673 128.509 62.1118 128.477 61.6609C128.559 61.4676 128.638 61.2744 128.72 61.0811C128.799 61.0029 128.877 60.9247 128.951 60.8511C129.112 60.9937 129.273 61.1363 129.434 61.279C129.581 61.4078 129.733 61.5321 129.885 61.6563H129.88Z" fill="white"/>
<path d="M98.6835 30.7134C98.1865 30.5524 97.9611 30.2395 97.9979 29.692C98.0301 29.1628 98.0899 28.5877 97.9335 28.0999C97.6022 27.0785 97.1191 26.1076 96.728 25.1045C96.3691 24.1935 95.5914 23.6597 94.9565 22.9834C94.1421 22.1137 93.0608 21.7502 92.0301 21.3407C91.2065 21.0094 90.2632 20.9404 89.366 20.8346C88.5562 20.738 87.728 20.6828 86.9135 20.7288C86.2648 20.7656 85.6298 20.9818 84.981 21.1061C84.5715 21.1843 84.1574 21.2303 83.7433 21.2855C83.5132 21.4005 83.2832 21.511 83.0531 21.626C82.547 21.8837 82.0408 22.1413 81.5347 22.3944C81.3506 22.4864 81.1666 22.5739 80.9826 22.6613C80.9826 22.5371 80.9734 22.4082 80.9688 22.284C82.3537 21.3407 83.8307 20.6183 85.5332 20.4711C86.3568 20.4021 87.185 20.2042 87.9948 20.264C90.3921 20.4297 92.7571 20.7564 94.7586 22.307C96.4795 23.6413 97.5746 25.3806 98.1083 27.4604C98.3798 28.5232 98.4948 29.6229 98.6789 30.7088L98.6835 30.7134Z" fill="white"/>
<path d="M105.812 26.2316C106.337 26.1442 106.286 26.5031 106.286 26.8344C106.286 30.9663 106.286 35.0982 106.286 39.2301C106.286 41.0844 106.282 42.9386 106.286 44.7975C106.286 45.1196 106.277 45.3865 105.845 45.3221C105.84 42.8696 105.831 40.4172 105.826 37.9647C105.822 34.0537 105.817 30.1426 105.812 26.2362V26.2316Z" fill="white"/>
<path d="M111.81 45.3221C111.81 39.1611 111.81 32.9954 111.81 26.8344C111.81 26.4985 111.759 26.1442 112.284 26.227C112.284 32.3421 112.275 38.4571 112.27 44.5721C112.27 44.7838 112.256 44.9908 112.252 45.2025C112.104 45.2393 111.957 45.2807 111.815 45.3175L111.81 45.3221Z" fill="white"/>
<path d="M135.86 18.6394C135.952 18.4508 135.989 18.1885 136.136 18.0827C137.599 17.052 138.635 15.6532 139.164 13.9968C139.527 12.8695 139.688 11.6317 139.04 10.4492C138.759 9.93849 138.754 9.27592 138.464 8.77899C138.165 8.26365 138.046 7.7207 137.862 7.18236C137.645 6.55659 137.374 5.94463 137.098 5.33727C136.799 4.67469 136.467 4.02592 136.145 3.37254C135.846 2.76978 135.556 2.15782 135.225 1.56886C135.073 1.29279 134.825 1.06733 134.645 0.805059C134.526 0.625611 134.452 0.418556 134.355 0.220703C134.995 0.32193 135.331 0.722237 135.584 1.30199C136.546 3.47837 137.581 5.62254 138.515 7.80813C139.026 9.00905 139.477 10.2514 139.78 11.5121C140.006 12.4324 139.964 13.394 139.55 14.3373C138.888 15.8373 137.917 17.0796 136.721 18.1655C136.481 18.3817 136.145 18.4876 135.855 18.644L135.86 18.6394Z" fill="white"/>
<path d="M133.084 0.32666C132.803 1.20089 132.532 2.07513 132.237 2.94476C132.039 3.52911 131.814 4.10427 131.579 4.67482C131.451 4.9923 131.271 5.28678 131.133 5.59506C130.539 6.91562 129.877 8.21316 129.385 9.57513C129.012 10.6058 128.736 11.7055 128.648 12.7914C128.598 13.4448 129.03 14.1257 129.187 14.8113C129.352 15.5429 129.808 16.0859 130.222 16.6656C130.415 16.9371 130.604 17.2086 130.793 17.4846C130.793 17.5675 130.793 17.6503 130.793 17.7331C129.872 17.1994 129.343 16.3343 128.901 15.4233C128.391 14.3696 127.926 13.2515 128.174 12.0644C128.377 11.0889 128.745 10.1365 129.122 9.20703C130.144 6.69476 131.211 4.19629 132.26 1.69322C132.389 1.38494 132.472 1.05365 132.633 0.763777C132.73 0.58893 132.937 0.473899 133.093 0.331261L133.084 0.32666Z" fill="white"/>
<path d="M19.1198 50.6134C19.5569 50.6456 19.4971 50.2545 19.5109 50.052C19.5569 49.0996 19.5569 48.1471 19.5615 47.1947C19.5615 40.9738 19.5615 34.7484 19.5615 28.5275C19.5615 27.1931 19.5569 25.8588 19.5661 24.5244C19.5661 24.3266 19.6351 24.1287 19.6765 23.9263C19.7087 24.7775 19.7686 25.6241 19.7686 26.4753C19.7778 32.2591 19.7686 38.0428 19.7732 43.8266C19.7732 46.4769 19.7824 49.1272 19.787 51.7775C19.787 52.5735 19.787 53.3695 19.787 54.1609C19.221 54.1609 18.9587 53.8987 18.9863 53.3373C19.0278 52.4309 19.0738 51.5198 19.1198 50.6134Z" fill="white"/>
<path d="M81.0591 62.6916V68.075H79.5039V62.3465C80.2907 62.2084 79.9778 63.1379 80.2769 63.2667C80.5944 63.032 80.8245 62.8618 81.0545 62.6916H81.0591Z" fill="white"/>
<path d="M137.117 54.7361C137.117 54.5889 137.117 54.4416 137.117 54.2944C137.508 54.2208 137.904 54.1655 138.281 54.0597C138.728 53.9401 139.169 53.779 139.602 53.6226C140.241 53.3925 140.918 53.2223 141.498 52.891C142.381 52.3849 143.218 51.7867 144.037 51.1747C144.58 50.7698 145.133 50.3373 145.542 49.8082C146.168 48.9984 146.683 48.1057 147.221 47.2315C147.475 46.822 147.682 46.3803 147.879 45.9385C148.142 45.3542 148.376 44.7606 148.611 44.1671C148.639 44.1027 148.616 44.0152 148.62 43.937C148.74 43.937 148.855 43.937 148.975 43.937C148.528 45.0873 148.156 46.2744 147.626 47.3879C146.757 49.2146 145.473 50.756 143.853 51.957C142.133 53.2315 140.209 54.1149 138.088 54.5244C137.761 54.5889 137.439 54.6625 137.117 54.7315V54.7361Z" fill="white"/>
<path d="M130.79 17.7287C130.79 17.6459 130.79 17.5631 130.79 17.4803C131.31 17.4158 131.734 17.5861 132.051 18.0048C132.281 18.3039 132.544 18.3545 132.838 18.1152C133.114 17.8898 133.289 17.6275 133.04 17.2778C132.663 16.7441 132.295 16.1919 131.881 15.6858C131.126 14.7609 130.85 13.7395 131.053 12.5615C131.131 12.0968 131.122 11.6137 131.126 11.1352C131.126 10.7947 131.195 10.5232 131.591 10.4634C131.66 10.5784 131.734 10.6934 131.803 10.8085C131.72 11.1444 131.623 11.4756 131.559 11.8161C131.462 12.3177 131.218 12.856 131.324 13.3161C131.683 14.8944 132.603 16.1689 133.827 17.2088C133.928 17.2962 134.168 17.2226 134.343 17.2226C134.384 17.31 134.425 17.3928 134.467 17.4803C134.568 17.7149 134.655 17.9542 134.766 18.1796C134.881 18.4051 135.024 18.6214 135.152 18.8422C134.416 18.4833 133.629 18.5891 132.861 18.6398C131.987 18.6996 131.375 18.2533 130.781 17.7241L130.79 17.7287Z" fill="white"/>
<path d="M112.266 21.2854C111.788 21.1704 111.811 20.7839 111.811 20.4204C111.811 18.2808 111.792 16.1413 111.82 14.0017C111.829 13.4679 111.672 13.3161 111.148 13.3345C109.965 13.3713 108.778 13.3529 107.596 13.3437C107.122 13.3391 106.653 13.3069 106.289 13.6934C106.289 13.4311 106.289 13.1689 106.289 12.9112C108.028 12.902 109.768 12.8974 111.507 12.8882C112.082 12.8882 112.261 13.2885 112.266 13.7394C112.284 16.0308 112.275 18.3268 112.275 20.6182C112.275 20.7563 112.28 20.8989 112.284 21.037C112.284 21.1198 112.28 21.2026 112.275 21.2854H112.266Z" fill="white"/>
<path d="M57.5139 48.8881C57.0491 49.1412 56.6074 49.4725 56.1105 49.6243C55.1534 49.9096 54.2102 50.2961 53.1657 50.1626C52.7884 50.112 52.4019 50.1304 52.02 50.1626C50.3773 50.2915 48.9188 49.7577 47.5246 48.9525C46.7516 48.5062 46.1672 47.8528 45.5737 47.2086C45.3942 47.0154 45.247 46.7991 45.0859 46.5921C45.1273 46.5139 45.1688 46.4356 45.2102 46.3574C46.908 48.3774 48.928 49.7485 51.7117 49.7071C53.3175 49.6841 54.9142 49.7163 56.4096 49.0123C56.7823 48.8375 57.1458 48.635 57.5092 48.4464C57.5092 48.5936 57.5092 48.7455 57.5092 48.8927L57.5139 48.8881Z" fill="white"/>
<path d="M124.23 67.8819C123.466 67.4908 123.038 66.8512 122.983 66.0138C122.914 64.9601 123.434 64.2101 124.349 63.7178C124.547 64.0767 124.74 64.431 124.938 64.7899C124.156 65.7331 124.345 66.5245 125.486 67.1227C125.113 67.3021 124.74 67.4724 124.377 67.6656C124.308 67.7024 124.28 67.8083 124.23 67.8819Z" fill="white"/>
<path d="M15.1858 26.1121C15.1858 24.8513 15.1581 23.586 15.1996 22.3252C15.218 21.7869 15.0845 21.5891 14.514 21.6121C13.4051 21.6581 12.2962 21.6121 11.1873 21.6305C10.7456 21.6397 10.5247 21.5016 10.5891 21.0415H15.7195C15.7195 22.2838 15.7241 23.3789 15.7195 24.474C15.7195 24.8697 15.6505 25.2654 15.6597 25.6611C15.6689 26.0154 15.5262 26.1489 15.1904 26.1167L15.1858 26.1121Z" fill="white"/>
<path d="M25.3255 24.6121C24.9712 24.5937 24.8332 24.4143 24.8424 24.0554C24.8608 23.4066 24.8332 22.7578 24.8562 22.1091C24.87 21.7364 24.7412 21.6121 24.3639 21.6167C22.7994 21.6351 21.235 21.6259 19.6706 21.6259C19.4866 21.5845 19.2979 21.5477 19.1139 21.5063C19.0402 21.1842 19.1691 21.0508 19.4958 21.0508C21.235 21.0508 22.9743 21.0508 24.7182 21.06C24.9114 21.06 25.1047 21.1566 25.3255 21.2164V24.6121Z" fill="white"/>
<path d="M122.97 25.4219C121.819 26.9449 120.927 28.606 120.319 30.4189C119.878 31.7348 119.56 33.0784 119.395 34.4587C119.358 34.7762 119.335 35.1719 118.852 35.1995C119.049 33.5569 119.302 31.9327 119.855 30.3591C120.508 28.5002 121.419 26.7977 122.625 25.2471C122.657 25.2057 122.721 25.1873 122.767 25.1597C122.832 25.2471 122.901 25.3345 122.965 25.4219H122.97Z" fill="white"/>
<path d="M76.037 61.1962C75.6919 61.026 75.3515 60.8557 75.0064 60.6855C74.7763 60.5704 74.5462 60.4554 74.33 60.3496C74.1229 60.7729 75.0708 60.8051 74.4082 61.2008C73.4005 60.552 72.1628 61.2284 71.6521 62.0244C71.583 62.1303 71.514 62.2407 71.445 62.3465C71.445 62.1118 71.4174 61.868 71.468 61.6379C71.5416 61.2836 71.6705 60.9431 71.7763 60.598C72.5953 59.7284 73.6168 59.4063 74.7073 59.848C75.2318 60.0597 75.6045 60.6487 76.0416 61.0628C76.0416 61.1042 76.0416 61.1502 76.037 61.1916V61.1962Z" fill="white"/>
<path d="M124.933 64.79C124.735 64.4311 124.542 64.0768 124.344 63.7179C125.462 63.1842 126.658 63.0232 127.882 63.0324C128.112 63.0324 128.342 63.0232 128.572 63.0186C128.609 63.152 128.687 63.3958 128.674 63.4005C128.287 63.5477 128.379 63.879 128.37 64.1643C128.006 64.1689 127.643 64.1965 127.284 64.1781C126.433 64.1412 125.646 64.3069 124.933 64.7854V64.79Z" fill="white"/>
<path d="M129.877 61.6565C129.726 61.5323 129.578 61.4035 129.426 61.2792C129.265 61.1412 129.104 60.9939 128.943 60.8513C128.626 60.5108 128.327 60.1427 127.692 60.359C128.074 60.6304 128.391 60.8559 128.713 61.086C128.63 61.2792 128.552 61.4725 128.469 61.6657C127.995 60.7363 126.845 60.7777 125.957 60.9387C125.93 60.543 125.796 60.2716 125.327 60.2531C125.189 60.2485 125.055 60.0553 124.922 59.9495C125.741 59.8758 126.56 59.7148 127.37 59.7562C127.931 59.7838 128.515 60.0277 129.026 60.2946C129.528 60.5614 129.827 61.0538 129.873 61.6565H129.877Z" fill="white"/>
<path d="M36.4675 21.1657C36.3893 21.1611 36.288 21.1842 36.242 21.1427C35.1975 20.2685 33.9644 20.6918 32.8555 20.7884C31.7788 20.8851 30.7205 21.359 29.6807 21.7409C29.1883 21.9203 28.7512 22.27 28.2911 22.5461C28.1761 22.4679 28.0564 22.3897 27.9414 22.3069C29.1377 21.3038 30.5043 20.655 32.0365 20.3835C33.2144 20.1765 34.4015 20.1719 35.5748 20.4434C35.6485 20.4618 35.7221 20.4802 35.7957 20.471C36.3064 20.4249 36.5273 20.655 36.4629 21.1611L36.4675 21.1657Z" fill="white"/>
<path d="M81.0607 62.6916C80.8306 62.8618 80.6006 63.0321 80.2831 63.2667C79.984 63.1379 80.2969 62.2039 79.5101 62.3465C79.5101 61.7161 79.4273 61.1364 78.6865 60.9431C78.6543 60.4508 78.8935 60.2575 79.3721 60.2667C79.5929 60.2667 79.8138 60.1793 80.0346 60.1333C80.6972 60.5704 80.9733 61.2054 80.9917 61.983C80.9963 62.2223 81.0377 62.4569 81.0653 62.6916H81.0607Z" fill="white"/>
<path d="M38.4648 66.0229C38.6765 66.2621 38.879 66.506 39.0998 66.7361C39.2793 66.9247 39.4725 67.0996 39.652 67.2698C39.8222 66.8741 39.9326 66.621 40.0431 66.368C40.1811 66.8143 40.494 67.0397 40.9495 67.0812C40.9863 67.0812 41.0231 67.0812 41.0645 67.0812C41.3728 67.0443 41.6765 67.0029 41.9848 66.9661C42.178 67.256 42.3667 67.5459 42.5599 67.8358C41.2486 68.5627 39.3483 68.3787 38.6857 66.9063C38.5615 66.6302 38.5385 66.3128 38.4648 66.0137V66.0229Z" fill="white"/>
<path d="M80.029 60.1333C79.8082 60.1793 79.5873 60.2713 79.3664 60.2667C78.8833 60.2575 78.6441 60.4508 78.6809 60.9431C77.8848 60.8833 77.2177 61.1547 76.6885 61.7437C76.5367 61.9093 76.4447 62.1256 76.3204 62.3189C76.2238 61.9416 76.1318 61.5689 76.0352 61.1916C76.072 61.1501 76.1088 61.1087 76.1456 61.0673C76.6517 60.6486 77.1072 60.1103 77.6824 59.8388C78.46 59.4753 79.2836 59.6915 80.0244 60.1287L80.029 60.1333Z" fill="white"/>
<path d="M15.8754 53.8298C15.9536 53.3697 16.0732 52.9141 16.0962 52.454C16.133 51.7316 16.11 51 16.1054 50.2776C16.1008 49.7025 15.9168 49.6289 15.3462 49.7761C14.6928 49.9463 14.0119 50.0522 13.3401 50.135C13.1606 50.158 12.9628 50.0016 12.7695 49.9233C12.8063 49.7761 12.8478 49.6289 12.8846 49.4862C13.906 49.4402 14.9275 49.4172 15.949 49.3436C16.3953 49.3114 16.5517 49.5644 16.5563 49.8957C16.5793 51.1887 16.5563 52.4862 16.5471 53.7792C16.5471 53.8022 16.4919 53.8206 16.4643 53.8436C16.2665 53.8436 16.0732 53.839 15.8754 53.8344V53.8298Z" fill="white"/>
<path d="M4.60068 13.8082C4.60068 15.9754 4.60068 18.1379 4.60068 20.3051C4.60068 20.6686 4.62368 21.0551 4.14055 21.1701C4.09914 21.1287 4.05313 21.0873 4.01172 21.0505C4.03472 20.2131 4.07614 19.3757 4.07614 18.5428C4.07614 16.9278 4.05313 15.3128 4.04393 13.6978C4.22798 13.7346 4.41203 13.776 4.59607 13.8128L4.60068 13.8082Z" fill="white"/>
<path d="M106.29 12.9065C106.29 13.1687 106.29 13.431 106.29 13.6887C106.29 15.8927 106.29 18.0966 106.29 20.3006C106.29 20.6641 106.313 21.0506 105.834 21.1703C105.834 21.1242 105.825 21.0736 105.82 21.0276C105.82 18.566 105.825 16.1089 105.83 13.6473C105.83 13.3114 105.793 12.9433 106.285 12.9019L106.29 12.9065Z" fill="white"/>
<path d="M124.924 59.9492C125.058 60.055 125.191 60.2483 125.329 60.2529C125.799 60.2713 125.932 60.5428 125.96 60.9385C125.375 60.9661 124.998 61.2836 124.74 61.7897C124.547 62.1762 123.631 62.4431 123.332 62.1762C123.231 62.0842 123.199 61.8265 123.24 61.6747C123.489 60.8096 124.068 60.2437 124.92 59.9538L124.924 59.9492Z" fill="white"/>
<path d="M114.921 54.6213C114.88 54.2026 115.225 54.313 115.432 54.2624C116.067 54.106 116.707 53.9587 117.346 53.8437C117.581 53.8023 117.802 53.8299 117.797 53.4894C117.788 52.2885 117.793 51.0875 117.783 49.8866C117.783 49.8222 117.719 49.7578 117.682 49.6934C117.682 49.5876 117.682 49.4771 117.682 49.3713C118.096 49.2793 118.271 49.4219 118.266 49.8682C118.248 51.106 118.239 52.3437 118.271 53.5814C118.289 54.1566 117.986 54.2624 117.521 54.3084C116.651 54.3912 115.791 54.5155 114.921 54.6259V54.6213Z" fill="white"/>
<path d="M59.4321 56.5903C58.8616 57.3587 58.429 58.0765 57.8585 58.6563C57.6008 58.914 57.0579 58.8817 56.5195 59.0106C56.906 58.1594 57.2051 57.483 57.5272 56.8158C57.5732 56.7192 57.7113 56.6087 57.8125 56.6041C58.3186 56.5811 58.8293 56.5949 59.4321 56.5949V56.5903Z" fill="white"/>
<path d="M111.091 60.124C111.782 60.4921 112.237 61.0489 112.463 61.7943C112.61 62.2912 112.49 62.4292 111.979 62.466C111.441 62.5029 111.05 62.4384 110.875 61.8035C110.788 61.4906 110.429 61.2559 110.194 60.9891C110.148 60.3403 110.677 60.2897 111.096 60.124H111.091Z" fill="white"/>
<path d="M110.199 66.9711C110.742 66.6398 110.917 66.3867 111.069 65.7241H112.523C112.541 66.6168 111.768 67.7809 110.544 68.08L110.199 66.9711Z" fill="white"/>
<path d="M22.0921 61.0999C22.2163 60.511 21.6136 60.4696 21.3789 60.1521C22.4418 59.4619 23.5093 59.5953 24.5814 60.1291C24.4065 60.2671 24.2271 60.4097 24.0522 60.5478C24.2409 60.6674 24.4249 60.81 24.6274 60.9021C24.7608 60.9619 24.9219 60.9527 25.0737 60.9711C25.1519 61.1597 25.2301 61.3484 25.313 61.5416C25.2347 61.5785 25.1611 61.6153 25.0829 61.6521C24.1534 61.1045 23.2378 60.4972 22.0967 61.0999H22.0921Z" fill="white"/>
<path d="M112.266 21.2851C112.266 21.2023 112.27 21.1194 112.275 21.0366C113.77 21.0412 115.266 21.0458 116.761 21.0504C117.456 21.0504 117.52 21.124 117.516 21.851C117.304 21.8878 117.088 21.9293 116.876 21.9661C116.692 21.851 116.513 21.644 116.324 21.6394C115.178 21.6072 114.028 21.6394 112.878 21.6072C112.671 21.6026 112.473 21.3955 112.266 21.2805V21.2851Z" fill="white"/>
<path d="M78.3338 30.3681C77.9473 29.7009 78.6007 29.4019 78.8998 29.1074C79.7142 28.316 80.5838 27.566 81.5225 26.931C82.3507 26.3696 83.3031 25.9923 84.2004 25.5322C84.2372 25.6795 84.2786 25.8267 84.3154 25.9739C81.8537 26.8022 80.0225 28.4862 78.3338 30.3635V30.3681Z" fill="white"/>
<path d="M25.8831 30.2579C25.8049 30.2165 25.7267 30.175 25.6484 30.1336C25.8877 29.7563 26.0718 29.3284 26.38 29.0201C26.9046 28.491 27.4751 27.9987 28.0779 27.5662C28.561 27.2211 29.0994 26.9404 29.6469 26.7057C30.1392 26.4941 30.6684 26.3606 31.1929 26.2502C31.3125 26.2272 31.4828 26.4481 31.6346 26.5585C29.8908 26.8162 28.4276 27.603 27.2175 28.8729C26.7757 29.3376 26.3294 29.7977 25.8877 30.2625L25.8831 30.2579Z" fill="white"/>
<path d="M4.60293 13.8084C4.41888 13.7716 4.23483 13.7302 4.05078 13.6933C4.05078 13.0768 4.30845 12.8467 4.97563 12.8697C6.55845 12.9295 8.14127 12.8927 9.72409 12.8835C10.0692 12.8835 10.3223 12.9571 10.3729 13.3436C8.6198 13.3436 6.86673 13.3528 5.10906 13.3436C4.75477 13.3436 4.55231 13.4173 4.60293 13.813V13.8084Z" fill="white"/>
<path d="M45.4278 21.4971C45.4693 21.5799 45.5107 21.6673 45.5521 21.7501C45.3266 21.9158 45.1012 22.0814 44.8665 22.2379C44.1625 22.7164 43.4355 23.1719 42.7545 23.6827C42.0183 24.2348 41.3189 24.8376 40.6012 25.4219C40.5229 25.3437 40.4493 25.2701 40.3711 25.1919C41.7423 23.5262 43.4355 22.3115 45.4278 21.4971Z" fill="white"/>
<path d="M124.227 67.882C124.273 67.8083 124.305 67.6979 124.374 67.6657C124.737 67.477 125.11 67.3022 125.483 67.1228C126.062 67.0721 126.642 67.0169 127.227 66.9663C127.498 67.1918 127.774 67.4172 128.046 67.6427C126.964 68.2869 125.805 68.3651 124.604 68.0936C124.47 68.0614 124.355 67.9556 124.231 67.882H124.227Z" fill="white"/>
<path d="M116.871 21.9661C117.082 21.9293 117.299 21.8879 117.51 21.8511C117.524 23.052 117.561 24.2575 117.533 25.4584C117.524 25.7575 117.533 26.2314 116.986 26.2038C116.949 25.5367 116.894 24.8741 116.875 24.2069C116.857 23.4615 116.875 22.7115 116.875 21.9661H116.871Z" fill="white"/>
<path d="M122.967 25.422C122.903 25.3346 122.834 25.2471 122.77 25.1597C124.058 23.4159 125.834 22.3392 127.785 21.5063C127.904 21.5846 128.024 21.6628 128.144 21.741C128.02 21.8376 127.914 21.9711 127.776 22.0309C126.966 22.3668 126.138 22.6567 125.526 23.3422C125.378 23.5079 125.107 23.5677 124.891 23.6735C124.21 24.0002 123.814 24.626 123.326 25.1551C123.23 25.2609 123.087 25.3346 122.967 25.422Z" fill="white"/>
<path d="M57.5156 48.8882C57.5156 48.7409 57.5156 48.5891 57.5156 48.4418C58.6107 47.701 59.5632 46.8314 59.9405 45.5017C60.0877 44.9817 60.1521 44.4434 60.2672 43.8452C60.4006 43.8452 60.6169 43.8452 60.8377 43.8452C60.7457 45.3038 60.1751 46.5737 59.1629 47.609C58.6843 48.1013 58.0724 48.4648 57.5202 48.8882H57.5156Z" fill="white"/>
<path d="M111.091 60.1244C110.673 60.2901 110.143 60.3407 110.189 60.9895C109.619 60.9895 109.048 60.9895 108.478 60.9895C108.501 60.5707 108.464 60.2118 107.893 60.2671C107.824 60.2717 107.746 60.1382 107.668 60.0692C108.818 59.4434 109.959 59.6735 111.091 60.129V60.1244Z" fill="white"/>
<path d="M110.198 66.9709L110.543 68.0798C109.613 68.273 108.688 68.3651 107.777 68.0016C107.787 67.9648 107.777 67.9187 107.8 67.8957C108.076 67.6335 108.417 67.4034 108.274 66.9341C108.905 67.431 109.553 67.0813 110.198 66.9709Z" fill="white"/>
<path d="M45.2174 46.3528C45.176 46.431 45.1346 46.5093 45.0932 46.5875C44.7941 46.2102 44.4214 45.8743 44.2097 45.451C43.7082 44.4387 43.2711 43.3942 42.8294 42.3543C42.6269 41.8804 42.8202 41.02 43.1239 40.8359C43.3217 42.6994 43.9751 44.3973 44.9873 45.9663C45.0702 46.0905 45.1392 46.224 45.2174 46.3528Z" fill="white"/>
<path d="M21.5078 67.9924C21.6136 67.8406 21.7103 67.6841 21.8207 67.5369C21.9449 67.3713 22.0784 67.2102 22.2072 67.0446C22.6995 67.04 23.1965 67.0354 23.6888 67.0308C23.9327 67.2746 24.1719 67.5185 24.4158 67.7578C23.4909 68.3835 22.5155 68.3605 21.5078 67.9878V67.9924Z" fill="white"/>
<path d="M94.2096 58.4354C94.0118 58.4354 93.8967 58.4354 93.7863 58.4354C92.6958 58.44 92.5118 58.2238 92.728 57.1333C92.751 57.0182 92.9259 56.8618 93.0455 56.8434C94.136 56.6778 94.2096 56.7468 94.2096 57.8327C94.2096 58.0167 94.2096 58.2008 94.2096 58.4354Z" fill="white"/>
<path d="M105.82 21.0278C105.82 21.0738 105.83 21.1245 105.834 21.1705C105.862 21.5846 105.604 21.6306 105.278 21.626C104.127 21.6168 102.982 21.6214 101.831 21.6214C101.753 21.1751 101.992 21.0508 102.379 21.0508C103.524 21.0508 104.675 21.037 105.82 21.0324V21.0278Z" fill="white"/>
<path d="M34.1687 26.5354C34.2285 26.0568 34.6058 26.1074 34.9049 26.1535C35.8711 26.2961 35.9079 26.2961 35.8803 25.3482C35.8665 24.8421 36.0046 24.5706 36.5475 24.6212C36.5245 25.2424 36.5245 25.8636 36.4555 26.4801C36.4417 26.6044 36.1472 26.8022 35.9908 26.7884C35.3788 26.7424 34.776 26.6274 34.1641 26.5354H34.1687Z" fill="white"/>
<path d="M4.01348 21.0459C4.05489 21.0873 4.1009 21.1287 4.14231 21.1655C3.95826 21.3174 3.78341 21.5934 3.59016 21.6026C2.62391 21.6487 1.65305 21.6211 0.686789 21.6257C0.383108 21.6257 0.217464 21.5106 0.231267 21.1931C1.492 21.1425 2.75274 21.0965 4.01348 21.0459Z" fill="white"/>
<path d="M111.809 45.3221C111.957 45.2853 112.104 45.2438 112.246 45.207C112.329 46.0629 112.334 46.9417 112.523 47.7745C112.72 48.6441 113.273 49.2975 114.22 49.4816C114.22 49.5874 114.22 49.6978 114.22 49.8037C113.056 49.6196 112.541 49.0629 112.219 47.9448C111.97 47.0797 111.699 46.2377 111.805 45.3221H111.809Z" fill="white"/>
<path d="M27.949 22.3115C28.064 22.3897 28.1836 22.468 28.2987 22.5508C27.7925 23.1075 27.3002 23.6735 26.7849 24.2118C26.5134 24.4971 26.2051 24.7456 25.8922 24.9894C25.8048 25.0539 25.6484 25.0262 25.5195 25.0447C25.5241 24.9066 25.5287 24.7732 25.5379 24.6351C26.3432 23.8621 27.1484 23.0891 27.9536 22.3115H27.949Z" fill="white"/>
<path d="M12.8852 49.4816C12.8483 49.6289 12.8069 49.7761 12.7701 49.9187C11.9189 49.9003 11.3529 49.3758 10.7916 48.8236C10.1934 48.2347 9.91276 46.546 10.3223 45.8328C10.3407 45.796 10.4281 45.8006 10.4833 45.7822C10.5937 46.4954 10.6306 47.227 10.8238 47.9126C11.1091 48.9019 11.8039 49.4724 12.8852 49.477V49.4816Z" fill="white"/>
<path d="M109.05 53.144C109.694 53.572 110.398 53.7744 111.171 53.8572C111.681 53.9124 112.169 54.1747 112.662 54.3634C112.712 54.3818 112.708 54.5336 112.731 54.621C111.171 54.4462 109.606 54.2943 108.359 53.1763C108.589 53.167 108.824 53.1532 109.054 53.144H109.05Z" fill="white"/>
<path d="M114.227 49.8082C114.227 49.7024 114.227 49.592 114.227 49.4861C115.377 49.4493 116.527 49.4079 117.682 49.3711C117.682 49.4769 117.682 49.5873 117.682 49.6932C117.089 49.8174 116.49 49.9232 115.906 50.0797C115.294 50.2407 114.747 50.1579 114.227 49.8082Z" fill="white"/>
<path d="M66.7233 35.885C66.9074 36 67.0915 36.115 67.2755 36.2301C67.3169 37.0353 67.3537 37.8405 67.3951 38.6503C67.1697 38.6503 66.9442 38.6411 66.7188 38.6365C66.7188 37.7163 66.7187 36.8006 66.7233 35.8804V35.885Z" fill="white"/>
<path d="M25.3057 61.5412C25.2274 61.3526 25.1492 61.1639 25.0664 60.9707C25.1446 60.6578 25.2228 60.3449 25.3011 60.032C25.6094 60.0044 25.9176 59.9768 26.2259 59.9492C26.2259 60.3633 26.2259 60.7774 26.2259 61.1869C26.2167 61.7897 26.0603 61.8817 25.5173 61.6011C25.4529 61.5689 25.3747 61.5597 25.3057 61.5366V61.5412Z" fill="white"/>
<path d="M106.063 47.8525C106.707 48.0642 106.717 48.6762 106.721 49.1501C106.73 49.9185 106.887 50.6225 107.209 51.3035C107.209 51.5059 107.2 51.7084 107.195 51.9108C106.859 51.0458 106.482 50.19 106.201 49.3019C106.059 48.8464 106.1 48.3403 106.059 47.8525H106.063Z" fill="white"/>
<path d="M65.8835 47.3924C65.6994 47.3924 65.52 47.3924 65.3359 47.3924C65.8651 46.2743 66.3022 45.1332 66.2562 43.8633C66.9372 43.9599 66.7761 44.5121 66.6887 44.8663C66.477 45.7222 66.1596 46.5504 65.8835 47.3924Z" fill="white"/>
<path d="M80.9689 22.2837C80.9689 22.4079 80.9781 22.5368 80.9827 22.661C80.656 22.9187 80.3201 23.1579 80.0118 23.434C79.5517 23.8481 79.11 24.2852 78.6591 24.7085C78.4244 24.9294 78.2588 24.9248 78.2266 24.5567C78.268 24.5015 78.3094 24.4509 78.3508 24.3957C79.225 23.6917 80.0993 22.9877 80.9735 22.2837H80.9689Z" fill="white"/>
<path d="M107.199 51.9062C107.199 51.7037 107.208 51.5013 107.213 51.2988C107.531 51.5611 107.871 51.7958 108.161 52.0856C108.483 52.4123 108.759 52.785 109.054 53.1393C108.823 53.1485 108.589 53.1623 108.359 53.1715C107.972 52.7482 107.586 52.3249 107.199 51.9016V51.9062Z" fill="white"/>
<path d="M128.042 67.6427C127.77 67.4172 127.494 67.1917 127.223 66.9663C127.687 66.6166 128.152 66.2623 128.621 65.9126C128.672 66.0184 128.787 66.2071 128.764 66.2209C128.281 66.5936 128.382 67.1181 128.373 67.6151C128.263 67.6243 128.152 67.6335 128.042 67.6427Z" fill="white"/>
<path d="M15.8741 53.8299C16.072 53.8299 16.2652 53.8345 16.4631 53.8391C16.3481 53.9588 16.2468 54.1566 16.1134 54.1796C15.2714 54.3131 14.4248 54.4005 13.5781 54.5063C14.2821 54.0692 15.0183 53.7471 15.8741 53.8299Z" fill="white"/>
<path d="M69.9577 67.6378C70.4593 67.5596 70.9608 67.4859 71.4623 67.4077C71.4853 67.6102 71.5083 67.8126 71.5359 68.0611H69.9531V67.6378H69.9577Z" fill="white"/>
<path d="M25.303 60.0322C25.2248 60.3451 25.1466 60.658 25.0683 60.9709C24.9165 60.9525 24.7555 60.9617 24.622 60.9019C24.4196 60.8098 24.2401 60.6672 24.0469 60.5476C24.2217 60.4095 24.4012 60.2669 24.576 60.1288C24.8567 60.4003 25.0683 60.1519 25.2984 60.0322H25.303Z" fill="white"/>
<path d="M19.1133 21.5107C19.2973 21.5522 19.486 21.589 19.67 21.6304C19.693 21.9893 19.739 22.3482 19.7344 22.7071C19.7344 22.8497 19.6148 22.9877 19.555 23.1258C19.4078 23.0107 19.2605 22.8957 19.1133 22.7807C19.1133 22.3574 19.1133 21.9341 19.1133 21.5153V21.5107Z" fill="white"/>
<path d="M92.7344 67.5229C93.2589 67.5598 93.7835 67.6012 94.308 67.638C94.3126 67.7668 94.3218 67.9002 94.331 68.0659H92.739V67.5229H92.7344Z" fill="white"/>
<path d="M74.8281 67.5278C75.3113 67.5646 75.7898 67.6015 76.2729 67.6383C76.3143 67.7809 76.3511 67.9189 76.4017 68.0892H74.8649C74.8511 67.8959 74.8419 67.7119 74.8281 67.5324V67.5278Z" fill="white"/>
<path d="M84.3182 25.9784C84.2813 25.8312 84.2399 25.6839 84.2031 25.5367C84.5068 25.0489 84.9761 25.4078 85.3626 25.3342C85.4086 25.325 85.5053 25.6011 85.5789 25.7483C85.1556 25.8266 84.7369 25.9002 84.3136 25.9784H84.3182Z" fill="white"/>
<path d="M56.7227 59.9263C56.7227 60.0045 56.7227 60.0827 56.7273 60.1609C56.7273 60.0827 56.7273 60.0045 56.7227 59.9263Z" fill="white"/>
<path d="M78.3459 24.3956C78.3045 24.4508 78.263 24.5014 78.2216 24.5566C78.1894 24.4968 78.1572 24.437 78.125 24.3726C78.1986 24.3818 78.2722 24.3864 78.3413 24.3956H78.3459Z" fill="white"/>
<path d="M76.1456 61.072C76.1088 61.1134 76.072 61.1548 76.0352 61.1962C76.0352 61.1548 76.0352 61.1088 76.0398 61.0674C76.0766 61.0766 76.1088 61.0766 76.1456 61.072Z" fill="white"/>
<path d="M39.9258 59.9079C39.9258 59.9079 39.9626 59.8849 39.981 59.8711L39.935 59.9263L39.9258 59.9079Z" fill="white"/>
<path d="M10.4727 45.7912C10.4727 45.7406 10.4727 45.6854 10.4773 45.6348C10.5095 45.6486 10.5417 45.6624 10.5739 45.6762C10.5417 45.713 10.5049 45.7544 10.4727 45.7912Z" fill="white"/>
<path d="M10.5732 45.6766C10.541 45.6628 10.5088 45.649 10.4766 45.6352C10.4766 45.5938 10.4996 45.5616 10.5318 45.5386C10.5502 45.5662 10.5732 45.5938 10.5824 45.626C10.587 45.6398 10.5732 45.6582 10.5686 45.6766H10.5732Z" fill="white"/>
<path d="M67.293 39.0784C67.3206 39.0508 67.3482 39.0232 67.3712 38.9956C67.3436 39.0232 67.316 39.0508 67.293 39.0784Z" fill="white"/>
<path d="M4.13066 26.2271C4.12605 26.2685 4.11685 26.3099 4.11225 26.3559C4.08004 26.3191 4.04783 26.2777 4.01562 26.2409C4.05243 26.2409 4.09385 26.2317 4.13066 26.2271Z" fill="white"/>
<path d="M134.348 17.2268C134.841 16.4538 135.305 15.6578 135.839 14.917C136.893 13.4492 136.838 11.8986 136.23 10.3112C135.678 8.86637 135.062 7.44459 134.477 6.01361C134.427 5.89397 134.394 5.76974 134.353 5.64551C134.496 5.69612 134.721 5.70992 134.772 5.80655C135.117 6.48753 135.443 7.17772 135.743 7.8771C135.973 8.40624 136.193 8.94459 136.35 9.49673C136.635 10.509 136.916 11.5259 137.1 12.5566C137.252 13.4032 136.782 14.144 136.396 14.8526C136.051 15.4967 135.577 16.0719 135.158 16.6747C135.08 16.7897 135.006 16.9047 134.928 17.0197C134.776 17.1716 134.62 17.328 134.468 17.4799C134.427 17.3924 134.385 17.3096 134.344 17.2222L134.348 17.2268Z" fill="white"/>
<path d="M133.861 5.52148C133.175 7.28375 132.494 9.04602 131.809 10.8129C131.74 10.6979 131.666 10.5828 131.597 10.4678C131.45 9.68559 132.057 9.15185 132.246 8.48007C132.319 8.2178 132.416 7.96474 132.522 7.71627C132.747 7.18713 132.959 6.64878 133.235 6.14725C133.373 5.89878 133.645 5.72854 133.861 5.52609V5.52148Z" fill="white"/>
<path d="M149.76 38.7513C149.691 38.6961 149.558 38.6363 149.563 38.5811C149.581 37.9829 149.622 37.3848 149.659 36.7866C149.696 37.44 149.728 38.098 149.765 38.7513H149.76Z" fill="white"/>
<path d="M60.6365 33.589C60.3282 32.6181 60.0982 31.6151 59.7025 30.681C58.5292 27.9341 56.5598 26.0568 53.5322 25.5552C52.4739 25.3804 51.3743 25.4632 50.293 25.4264C50.316 25.316 50.316 25.1917 50.3712 25.0951C50.4264 24.9939 50.5368 24.9249 50.6243 24.842C52.3083 24.8098 53.9555 24.9525 55.5108 25.7071C56.9187 26.3881 58.1105 27.2301 58.9939 28.592C59.7439 29.7424 60.2408 30.9709 60.6779 32.2362C60.8436 32.7055 60.8482 33.2347 60.9448 33.8236C60.7976 33.7086 60.7193 33.6442 60.6411 33.5798L60.6365 33.589Z" fill="white"/>
<path d="M50.6134 24.8511C50.526 24.9339 50.4202 25.0029 50.3604 25.1041C50.3052 25.1962 50.3052 25.3204 50.2821 25.4354C49.4171 25.7483 48.5291 26.0152 47.6871 26.3879C46.2377 27.0275 45.2944 28.2284 44.5168 29.5535C43.822 30.736 43.4217 32.0336 43.1272 33.3679C42.7269 33.1425 42.6809 32.7468 42.934 32.3419C43.0858 32.1026 43.1549 31.8081 43.2423 31.5321C43.3941 31.0581 43.4815 30.5566 43.6794 30.1057C44.365 28.5183 45.5245 27.2529 46.9233 26.3327C47.6595 25.8495 48.4831 25.256 49.5137 25.279C49.8726 25.2882 50.2407 25.0075 50.6042 24.8557L50.6134 24.8511Z" fill="white"/>
<path d="M125.478 40.9509C125.851 42.9478 126.431 44.8665 127.65 46.5276C128.883 48.2024 130.507 49.3849 132.564 49.6518C134.432 49.8957 136.346 49.8589 138.109 48.9662C138.403 48.819 138.67 48.6165 138.951 48.4371C138.992 48.5475 139.034 48.6579 139.07 48.7684C138.794 49.3849 138.132 49.4125 137.639 49.6564C135.951 50.4938 134.096 50.227 132.339 50.0751C131.451 49.9969 130.369 49.73 129.665 48.8972C129.468 48.6625 129.127 48.5521 128.86 48.3773C128.552 48.1748 128.129 48.0368 127.958 47.7515C127.277 46.6058 126.698 45.4003 126.03 44.2454C125.658 43.6058 125.524 42.9156 125.382 42.2116C125.308 42.0966 125.23 41.977 125.156 41.8619C125.156 41.5583 125.156 41.2546 125.156 40.9463C125.262 40.9463 125.372 40.9463 125.478 40.9463V40.9509Z" fill="white"/>
<path d="M143.233 37.1504C143.118 35.7977 143.141 34.4173 142.856 33.1059C142.225 30.198 140.951 27.6121 138.139 26.2133C137.187 25.7394 136.041 25.5599 134.964 25.4587C133.971 25.3667 132.949 25.5599 131.941 25.6289C132.015 25.5231 132.07 25.3759 132.171 25.3161C132.425 25.1734 132.705 25.0768 132.972 24.9572C133.635 24.9204 134.311 24.7823 134.96 24.8743C136.667 25.1136 138.346 25.5507 139.685 26.6872C140.463 27.3498 141.056 28.2378 141.687 29.0569C142.193 29.7148 142.561 30.4372 142.717 31.2885C142.906 32.3053 143.311 33.2808 143.481 34.2977C143.615 35.1167 143.55 35.9725 143.541 36.8145C143.541 36.9296 143.343 37.04 143.233 37.1504Z" fill="white"/>
<path d="M132.977 24.9619C132.71 25.0769 132.429 25.1781 132.176 25.3208C132.075 25.376 132.02 25.5232 131.946 25.6336C128.951 26.5125 127.175 28.6106 126.222 31.4726C125.896 32.4573 125.725 33.4971 125.486 34.514C125.376 34.3622 125.192 34.2195 125.178 34.0631C125.123 33.4695 125.187 32.9036 125.505 32.356C125.739 31.9511 125.739 31.422 125.951 30.9987C126.452 29.9956 126.963 28.9925 127.58 28.0631C127.925 27.5385 128.482 27.152 128.96 26.7195C130.028 25.7625 131.399 25.4128 132.682 24.902C132.761 24.8698 132.88 24.9435 132.982 24.9711L132.977 24.9619Z" fill="white"/>
<path d="M140.484 47.1303C141.925 45.391 142.711 43.3757 142.983 41.1487C143.043 40.661 143.075 40.1732 143.121 39.6855C143.443 39.6671 143.576 39.8281 143.558 40.1364C143.517 40.8588 143.636 41.5674 143.222 42.2852C142.872 42.8972 142.854 43.6886 142.624 44.3742C142.472 44.8297 142.205 45.2484 141.984 45.6809C141.906 45.8327 141.81 45.9754 141.718 46.118C141.639 46.233 141.566 46.3481 141.487 46.4631C141.294 46.6932 141.106 46.9232 140.912 47.1533C140.77 47.1441 140.627 47.1349 140.484 47.1211V47.1303Z" fill="white"/>
<path d="M125.481 40.9507C125.376 40.9507 125.265 40.9507 125.159 40.9507C125.182 40.3572 125.145 39.7866 124.796 39.2529C124.667 39.0596 124.704 38.7375 124.699 38.4753C124.685 37.8633 124.718 37.2513 124.69 36.644C124.662 36.1332 124.869 35.894 125.371 35.8848C125.371 36.9154 125.362 37.9461 125.38 38.9768C125.394 39.6348 125.449 40.2881 125.481 40.9461V40.9507Z" fill="white"/>
<path d="M140.485 47.1304C140.627 47.1396 140.77 47.1488 140.913 47.1626C140.83 47.3512 140.756 47.5445 140.669 47.7331C140.595 47.885 140.54 48.092 140.411 48.161C139.983 48.3911 139.523 48.5752 139.077 48.7776C139.035 48.6672 138.994 48.5568 138.957 48.4463C139.468 48.0092 139.974 47.5721 140.485 47.135V47.1304Z" fill="white"/>
<path d="M131.137 21.046C131.252 21.0092 131.367 20.9724 131.486 20.9355C131.371 20.9724 131.256 21.0092 131.137 21.046Z" fill="white"/>
<path d="M83.0508 21.6256C83.2808 21.5106 83.5109 21.4002 83.741 21.2852C83.6811 21.7407 83.3223 21.598 83.0508 21.6256Z" fill="white"/>
<path d="M19.669 23.6964C19.6322 23.6181 19.5954 23.5399 19.5586 23.4663C19.5954 23.5445 19.6322 23.6228 19.669 23.6964Z" fill="white"/>
<path d="M128.713 61.0861C128.391 60.856 128.073 60.6305 127.691 60.3591C128.326 60.1428 128.63 60.5155 128.943 60.8514C128.865 60.9296 128.786 61.0078 128.713 61.0861Z" fill="white"/>
</g>
<defs>
<clipPath id="clip0_396_8316">
<rect width="150" height="71.319" fill="white"/>
</clipPath>
</defs>
</svg>
