<svg width="230" height="135" viewBox="0 0 230 135" fill="none" xmlns="http://www.w3.org/2000/svg">
<g clip-path="url(#clip0_396_8469)">
<path d="M7.66 115.39V88.6899H0V84.6499H19.32V88.6899H11.7V115.39H7.66Z" fill="white"/>
<path d="M23.9516 92.9099V104.01C23.9516 105.17 24.1316 106.24 24.4816 107.22C24.8316 108.2 25.3416 109.05 25.9916 109.77C26.6516 110.49 27.4316 111.05 28.3516 111.44C29.2716 111.84 30.2816 112.04 31.3816 112.04C32.3916 112.04 33.3516 111.83 34.2516 111.4C35.1516 110.97 35.9316 110.38 36.5916 109.63C37.2516 108.88 37.7716 107.98 38.1716 106.92C38.5716 105.87 38.7716 104.7 38.7716 103.41V92.8999H42.6216V115.38H38.7716V110.01C37.9116 111.66 36.7716 112.99 35.3316 113.98C33.8916 114.97 32.2116 115.47 30.2816 115.47C28.8416 115.47 27.5016 115.21 26.2716 114.69C25.0316 114.17 23.9516 113.44 23.0416 112.49C22.1216 111.54 21.4016 110.42 20.8816 109.12C20.3616 107.82 20.1016 106.39 20.1016 104.83V92.8999H23.9516V92.9099Z" fill="white"/>
<path d="M67.9497 104.2C67.9497 105.76 67.6697 107.23 67.1197 108.61C66.5697 109.99 65.8297 111.18 64.8997 112.19C63.9697 113.2 62.8697 114 61.5997 114.6C60.3297 115.2 58.9597 115.49 57.4897 115.49C55.7497 115.49 54.1597 115.08 52.7397 114.27C51.3197 113.46 50.1597 112.37 49.2797 110.99V122.14H45.4297V92.9098H49.2797V97.3598C50.1697 95.9798 51.3197 94.8798 52.7397 94.0598C54.1597 93.2398 55.7497 92.8198 57.4897 92.8198C58.9597 92.8198 60.3297 93.1198 61.5997 93.7098C62.8697 94.3098 63.9697 95.1198 64.8997 96.1398C65.8297 97.1598 66.5697 98.3598 67.1197 99.7398C67.6697 101.12 67.9497 102.6 67.9497 104.19M64.0997 104.2C64.0997 103.19 63.9097 102.23 63.5297 101.31C63.1497 100.39 62.6197 99.5998 61.9497 98.9198C61.2797 98.2498 60.4897 97.7098 59.5897 97.3198C58.6897 96.9198 57.7297 96.7198 56.7197 96.7198C55.7097 96.7198 54.7597 96.9098 53.8697 97.2898C52.9797 97.6698 52.1997 98.1898 51.5297 98.8498C50.8597 99.5098 50.3197 100.27 49.9297 101.14C49.5297 102.01 49.3197 102.94 49.2897 103.92V104.19C49.2897 105.2 49.4797 106.16 49.8597 107.06C50.2397 107.96 50.7697 108.75 51.4397 109.42C52.1097 110.09 52.8997 110.62 53.7997 111C54.6997 111.38 55.6697 111.57 56.7097 111.57C57.7497 111.57 58.6797 111.38 59.5797 111C60.4797 110.62 61.2697 110.09 61.9397 109.42C62.6097 108.75 63.1397 107.96 63.5197 107.06C63.8997 106.16 64.0897 105.2 64.0897 104.19" fill="white"/>
<path d="M70.8398 86.21C70.8398 85.51 71.0798 84.92 71.5698 84.44C72.0598 83.97 72.6198 83.73 73.2698 83.73C73.9698 83.73 74.5598 83.97 75.0398 84.44C75.5098 84.92 75.7498 85.5 75.7498 86.21C75.7498 86.85 75.5098 87.42 75.0398 87.91C74.5598 88.4 73.9798 88.64 73.2698 88.64C72.6298 88.64 72.0598 88.39 71.5698 87.91C71.0798 87.42 70.8398 86.85 70.8398 86.21ZM75.2498 115.39H71.3998V92.91H75.2498V115.39Z" fill="white"/>
<path d="M103.778 94.1099C102.558 92.5199 101.128 91.2199 99.5083 90.2099C97.8883 89.1999 96.0183 88.6999 93.9083 88.6999C92.3483 88.6999 90.8683 88.9999 89.4783 89.5999C88.0883 90.1999 86.8783 91.0099 85.8583 92.0399C84.8283 93.0699 84.0283 94.2699 83.4283 95.6499C82.8283 97.0299 82.5383 98.4999 82.5383 100.06C82.5383 101.62 82.8383 103.09 83.4283 104.47C84.0283 105.85 84.8383 107.05 85.8583 108.08C86.8783 109.11 88.0883 109.91 89.4783 110.49C90.8683 111.07 92.3483 111.36 93.9083 111.36C96.0783 111.36 97.9683 110.92 99.5783 110.05C101.188 109.18 102.398 108.16 103.228 107V103.83H90.7483V100.21H106.988V108.47C105.458 110.58 103.568 112.26 101.318 113.52C99.0683 114.77 96.5983 115.4 93.9083 115.4C91.7683 115.4 89.7683 115 87.8983 114.21C86.0283 113.42 84.4083 112.33 83.0083 110.95C81.6183 109.57 80.5183 107.95 79.7083 106.09C78.8983 104.22 78.4883 102.22 78.4883 100.08C78.4883 97.9399 78.8983 95.9299 79.7083 94.0499C80.5183 92.1699 81.6183 90.5299 83.0083 89.1399C84.3983 87.7499 86.0283 86.6599 87.8983 85.8599C89.7683 85.0699 91.7683 84.6699 93.9083 84.6699C96.3883 84.6699 98.7583 85.2399 101.018 86.3699C103.278 87.4999 105.188 89.1899 106.758 91.4099L103.778 94.1199V94.1099Z" fill="white"/>
<path d="M113.049 92.9099V104.01C113.049 105.17 113.229 106.24 113.579 107.22C113.929 108.2 114.439 109.05 115.089 109.77C115.749 110.49 116.529 111.05 117.449 111.44C118.369 111.84 119.379 112.04 120.479 112.04C121.489 112.04 122.449 111.83 123.349 111.4C124.249 110.97 125.029 110.38 125.689 109.63C126.349 108.88 126.869 107.98 127.269 106.92C127.669 105.87 127.869 104.7 127.869 103.41V92.8999H131.719V115.38H127.869V110.01C127.009 111.66 125.869 112.99 124.429 113.98C122.989 114.97 121.309 115.47 119.379 115.47C117.939 115.47 116.599 115.21 115.369 114.69C114.129 114.17 113.049 113.44 112.139 112.49C111.219 111.54 110.499 110.42 109.979 109.12C109.459 107.82 109.199 106.39 109.199 104.83V92.8999H113.049V92.9099Z" fill="white"/>
<path d="M134.289 104.2C134.289 102.61 134.569 101.13 135.119 99.7501C135.669 98.3701 136.409 97.1701 137.339 96.1501C138.269 95.1301 139.379 94.3101 140.639 93.7201C141.909 93.1201 143.279 92.8301 144.749 92.8301C146.489 92.8301 148.079 93.2501 149.519 94.0901C150.959 94.9301 152.139 96.0601 153.049 97.4601V92.9201H156.949V115.4H153.049V110.9C152.129 112.31 150.949 113.42 149.519 114.25C148.079 115.07 146.489 115.49 144.749 115.49C143.279 115.49 141.909 115.19 140.639 114.6C139.369 114 138.269 113.2 137.339 112.19C136.409 111.18 135.669 109.99 135.119 108.61C134.569 107.23 134.289 105.76 134.289 104.2ZM138.189 104.2C138.189 105.21 138.379 106.17 138.759 107.07C139.139 107.97 139.659 108.76 140.319 109.43C140.979 110.1 141.759 110.63 142.659 111.01C143.559 111.39 144.529 111.58 145.569 111.58C146.609 111.58 147.539 111.39 148.439 111.01C149.339 110.63 150.129 110.1 150.799 109.43C151.469 108.76 152.009 107.97 152.409 107.07C152.809 106.17 153.009 105.21 153.009 104.2C153.009 103.19 152.809 102.23 152.409 101.31C152.009 100.39 151.479 99.6001 150.799 98.9201C150.129 98.2501 149.339 97.7101 148.439 97.3201C147.539 96.9201 146.579 96.7201 145.569 96.7201C144.559 96.7201 143.559 96.9201 142.659 97.3201C141.759 97.7201 140.979 98.2501 140.319 98.9201C139.659 99.5901 139.139 100.39 138.759 101.31C138.379 102.23 138.189 103.19 138.189 104.2Z" fill="white"/>
<path d="M164.389 92.9101V96.7601C164.999 95.6901 165.839 94.7601 166.909 93.9801C167.979 93.2001 169.229 92.8101 170.669 92.8101V96.7101C169.869 96.7101 169.109 96.8601 168.379 97.1701C167.639 97.4701 166.989 97.8801 166.409 98.3801C165.829 98.8901 165.349 99.4701 164.989 100.15C164.619 100.82 164.419 101.54 164.389 102.31V115.39H160.539V92.9101H164.389Z" fill="white"/>
<path d="M171.961 104.2C171.961 102.61 172.241 101.13 172.791 99.7501C173.341 98.3701 174.081 97.1701 175.011 96.1501C175.941 95.1301 177.051 94.3101 178.311 93.7201C179.581 93.1201 180.951 92.8301 182.421 92.8301C184.161 92.8301 185.751 93.2501 187.191 94.0901C188.631 94.9301 189.811 96.0601 190.721 97.4601V92.9201H194.621V115.4H190.721V110.9C189.801 112.31 188.621 113.42 187.191 114.25C185.751 115.07 184.161 115.49 182.421 115.49C180.951 115.49 179.581 115.19 178.311 114.6C177.041 114 175.941 113.2 175.011 112.19C174.081 111.18 173.341 109.99 172.791 108.61C172.241 107.23 171.961 105.76 171.961 104.2ZM175.861 104.2C175.861 105.21 176.051 106.17 176.431 107.07C176.811 107.97 177.331 108.76 177.991 109.43C178.651 110.1 179.431 110.63 180.331 111.01C181.231 111.39 182.201 111.58 183.241 111.58C184.281 111.58 185.211 111.39 186.111 111.01C187.011 110.63 187.801 110.1 188.471 109.43C189.141 108.76 189.681 107.97 190.081 107.07C190.481 106.17 190.681 105.21 190.681 104.2C190.681 103.19 190.481 102.23 190.081 101.31C189.681 100.39 189.151 99.6001 188.471 98.9201C187.801 98.2501 187.011 97.7101 186.111 97.3201C185.211 96.9201 184.251 96.7201 183.241 96.7201C182.231 96.7201 181.231 96.9201 180.331 97.3201C179.431 97.7201 178.651 98.2501 177.991 98.9201C177.331 99.5901 176.811 100.39 176.431 101.31C176.051 102.23 175.861 103.19 175.861 104.2Z" fill="white"/>
<path d="M216.051 115.39V104.19C216.051 103.18 215.861 102.22 215.481 101.3C215.101 100.38 214.571 99.5798 213.901 98.8898C213.231 98.1998 212.441 97.6598 211.541 97.2598C210.641 96.8598 209.681 96.6598 208.671 96.6598C207.661 96.6598 206.711 96.8498 205.821 97.2298C204.931 97.6098 204.151 98.1398 203.481 98.8098C202.811 99.4798 202.271 100.29 201.881 101.24C201.481 102.19 201.271 103.23 201.241 104.36V115.37H197.391V92.8898H201.241V97.6198C202.161 96.0598 203.351 94.8698 204.821 94.0398C206.291 93.2098 207.911 92.7998 209.681 92.7998C211.121 92.7998 212.461 93.0798 213.701 93.6298C214.941 94.1798 216.021 94.9398 216.931 95.8998C217.851 96.8598 218.571 98.0098 219.111 99.3398C219.651 100.67 219.911 102.13 219.911 103.72V115.37H216.061L216.051 115.39Z" fill="white"/>
<path d="M223.02 86.21C223.02 85.51 223.26 84.92 223.75 84.44C224.24 83.97 224.8 83.73 225.45 83.73C226.15 83.73 226.74 83.97 227.22 84.44C227.69 84.92 227.93 85.5 227.93 86.21C227.93 86.85 227.69 87.42 227.22 87.91C226.74 88.4 226.16 88.64 225.45 88.64C224.81 88.64 224.24 88.39 223.75 87.91C223.26 87.42 223.02 86.85 223.02 86.21ZM227.43 115.39H223.58V92.91H227.43V115.39Z" fill="white"/>
<path d="M79.9212 127C79.1212 127 78.4413 127.29 77.8713 127.87C77.3013 128.45 77.0212 129.15 77.0212 129.96C77.0212 130.77 77.3013 131.47 77.8713 132.05C78.4413 132.63 79.1212 132.92 79.9212 132.92C80.8912 132.92 81.6713 132.52 82.2513 131.71L83.2513 132.42C82.4313 133.58 81.3212 134.16 79.9212 134.16C78.7812 134.16 77.8012 133.75 76.9912 132.93C76.1912 132.11 75.7812 131.12 75.7812 129.96C75.7812 128.8 76.1812 127.81 76.9912 126.99C77.8012 126.17 78.7812 125.76 79.9212 125.76C81.3212 125.76 82.4313 126.34 83.2513 127.5L82.2513 128.21C81.6713 127.4 80.8912 127 79.9212 127Z" fill="white"/>
<path d="M89.9586 125.76C91.0886 125.76 92.0586 126.17 92.8686 126.99C93.6686 127.81 94.0786 128.81 94.0786 129.96V130.58H87.1186C87.2586 131.25 87.5986 131.81 88.1186 132.25C88.6486 132.7 89.2586 132.92 89.9586 132.92C90.4986 132.92 90.9886 132.78 91.4486 132.49C91.9086 132.2 92.2586 131.81 92.5086 131.32L93.6186 131.88C93.2586 132.58 92.7486 133.14 92.0886 133.54C91.4386 133.94 90.7186 134.15 89.9486 134.15C88.8086 134.15 87.8286 133.74 87.0186 132.92C86.2186 132.1 85.8086 131.11 85.8086 129.95C85.8086 128.79 86.2086 127.8 87.0186 126.98C87.8286 126.16 88.8086 125.75 89.9486 125.75M92.7886 129.34C92.6486 128.67 92.3086 128.11 91.7886 127.67C91.2586 127.22 90.6486 126.99 89.9686 126.99C89.2886 126.99 88.6586 127.21 88.1286 127.67C87.5986 128.11 87.2686 128.67 87.1286 129.34H92.7886Z" fill="white"/>
<path d="M98.1787 127.1C98.8987 126.27 99.7587 125.85 100.739 125.85H100.819V127.06H100.739C100.029 127.06 99.4287 127.34 98.9287 127.91C98.4287 128.58 98.1787 129.31 98.1787 130.11V134.08H96.9688V125.85H98.1787V127.1Z" fill="white"/>
<path d="M111.272 134.08H110.032V132.96C109.232 133.76 108.262 134.16 107.152 134.16C106.042 134.16 105.032 133.75 104.222 132.93C103.422 132.11 103.012 131.12 103.012 129.96C103.012 128.8 103.412 127.81 104.222 126.99C105.032 126.17 106.012 125.76 107.152 125.76C108.292 125.76 109.232 126.16 110.032 126.97V125.85H111.272V134.08ZM107.152 132.93C107.942 132.93 108.622 132.64 109.182 132.06C109.752 131.48 110.032 130.79 110.032 129.97C110.032 129.15 109.752 128.45 109.182 127.88C108.622 127.3 107.942 127.01 107.152 127.01C106.362 127.01 105.672 127.3 105.102 127.88C104.532 128.46 104.252 129.16 104.252 129.97C104.252 130.78 104.532 131.48 105.102 132.06C105.672 132.64 106.352 132.93 107.152 132.93ZM106.152 125.05L107.142 123.79L108.132 125.05H109.432L107.742 123.01H106.542L104.862 125.05H106.152Z" fill="white"/>
<path d="M124.092 125.77C125.092 125.77 125.942 126.17 126.642 126.98C127.342 127.78 127.692 128.76 127.692 129.89V134.08H126.482V129.89C126.482 129.09 126.252 128.41 125.782 127.83C125.312 127.26 124.752 126.98 124.092 126.98C123.432 126.98 122.872 127.26 122.412 127.83C121.942 128.4 121.712 129.09 121.712 129.89V134.08H120.502V129.89C120.502 129.09 120.272 128.41 119.792 127.83C119.322 127.26 118.762 126.98 118.112 126.98C117.462 126.98 116.892 127.26 116.422 127.83C115.952 128.4 115.722 129.08 115.722 129.88V134.08H114.512V125.85H115.722V126.81C116.402 126.12 117.202 125.77 118.112 125.77C118.722 125.77 119.302 125.94 119.832 126.27C120.352 126.6 120.772 127.04 121.102 127.61C121.432 127.05 121.852 126.6 122.372 126.27C122.912 125.94 123.482 125.77 124.092 125.77Z" fill="white"/>
<path d="M131.299 123.22C131.439 123.36 131.509 123.54 131.509 123.74C131.509 123.94 131.439 124.11 131.299 124.26C131.159 124.4 130.979 124.48 130.779 124.48C130.579 124.48 130.399 124.41 130.259 124.26C130.119 124.11 130.039 123.94 130.039 123.74C130.039 123.54 130.109 123.36 130.259 123.22C130.399 123.08 130.579 123 130.779 123C130.979 123 131.159 123.07 131.299 123.22ZM130.179 134.08H131.389V125.85H130.179V134.08Z" fill="white"/>
<path d="M139.3 127C138.5 127 137.82 127.29 137.25 127.87C136.68 128.45 136.4 129.15 136.4 129.96C136.4 130.77 136.68 131.47 137.25 132.05C137.82 132.63 138.5 132.92 139.3 132.92C140.27 132.92 141.05 132.52 141.63 131.71L142.63 132.42C141.81 133.58 140.7 134.16 139.3 134.16C138.16 134.16 137.18 133.75 136.37 132.93C135.57 132.11 135.16 131.12 135.16 129.96C135.16 128.8 135.56 127.81 136.37 126.99C137.18 126.17 138.16 125.76 139.3 125.76C140.7 125.76 141.81 126.34 142.63 127.5L141.63 128.21C141.05 127.4 140.27 127 139.3 127Z" fill="white"/>
<path d="M153.389 134.08H152.149V132.96C151.349 133.76 150.379 134.16 149.269 134.16C148.159 134.16 147.149 133.75 146.339 132.93C145.539 132.11 145.129 131.12 145.129 129.96C145.129 128.8 145.529 127.81 146.339 126.99C147.149 126.17 148.129 125.76 149.269 125.76C150.409 125.76 151.349 126.16 152.149 126.97V125.85H153.389V134.08ZM149.269 132.93C150.059 132.93 150.739 132.64 151.299 132.06C151.869 131.48 152.149 130.79 152.149 129.97C152.149 129.15 151.869 128.45 151.299 127.88C150.739 127.3 150.059 127.01 149.269 127.01C148.479 127.01 147.789 127.3 147.219 127.88C146.649 128.46 146.369 129.16 146.369 129.97C146.369 130.78 146.649 131.48 147.219 132.06C147.789 132.64 148.469 132.93 149.269 132.93Z" fill="white"/>
<path d="M112.531 30.7402L93.1914 45.7002V73.5502H96.3214V47.3502L109.311 37.3002L109.361 73.5502H112.531V30.7402Z" fill="white"/>
<path d="M121.65 37.04H105.16V73.55H121.65V37.04Z" fill="white"/>
<mask id="mask0_396_8469" style="mask-type:luminance" maskUnits="userSpaceOnUse" x="105" y="37" width="17" height="37">
<path d="M121.65 37.04H105.16V73.55H121.65V37.04Z" fill="white"/>
</mask>
<g mask="url(#mask0_396_8469)">
<path d="M121.65 37.04L105.16 49.8V73.55H107.83V51.21L118.91 42.64L118.95 73.55H121.65V37.04Z" fill="white"/>
</g>
<path d="M108.28 24.3398H105.16V31.1598H108.28V24.3398Z" fill="white"/>
<mask id="mask1_396_8469" style="mask-type:luminance" maskUnits="userSpaceOnUse" x="105" y="24" width="4" height="8">
<path d="M108.28 24.3398H105.16V31.1598H108.28V24.3398Z" fill="white"/>
</mask>
<g mask="url(#mask1_396_8469)">
<path d="M108.28 28.5798L105.16 31.1598V26.9298L108.28 24.3398V28.5798Z" fill="white"/>
</g>
<path d="M126.151 40.9199H122.961V73.5499H126.151V40.9199Z" fill="white"/>
<mask id="mask2_396_8469" style="mask-type:luminance" maskUnits="userSpaceOnUse" x="122" y="40" width="5" height="34">
<path d="M126.151 40.9199H122.961V73.5499H126.151V40.9199Z" fill="white"/>
</mask>
<g mask="url(#mask2_396_8469)">
<path d="M126.141 73.5499H122.961V40.9199L126.141 43.5999V73.5499Z" fill="white"/>
</g>
<path d="M112.571 30.6499L93.1914 45.6499V73.5499H96.3214V47.2999L109.341 37.2299L109.391 73.5499H112.571V30.6499Z" fill="white"/>
<path d="M121.711 36.9702H105.191V73.5602H121.711V36.9702Z" fill="white"/>
<mask id="mask3_396_8469" style="mask-type:luminance" maskUnits="userSpaceOnUse" x="105" y="36" width="17" height="38">
<path d="M121.711 36.9702H105.191V73.5602H121.711V36.9702Z" fill="white"/>
</mask>
<g mask="url(#mask3_396_8469)">
<path d="M121.711 36.9702L105.191 49.7502V73.5502H107.861V51.1702L118.961 42.5802L119.001 73.5502H121.711V36.9702Z" fill="white"/>
</g>
<path d="M121.65 0L105.18 13.02V73.55H108.31V14.68L118.43 6.58L118.34 73.55H121.52L121.65 0Z" fill="white"/>
<path d="M126.232 10.52L100.672 30.34V73.55H103.802V32L123.012 17.09L123.032 73.55H126.212L126.232 10.52Z" fill="white"/>
<path d="M120.578 39.1201L134.898 50.3901V73.5501H131.578V52.1001L123.658 46.0601L123.618 73.5501H120.578V39.1201Z" fill="white"/>
<path d="M108.311 24.2402H105.191V31.0702H108.311V24.2402Z" fill="white"/>
<mask id="mask4_396_8469" style="mask-type:luminance" maskUnits="userSpaceOnUse" x="105" y="24" width="4" height="8">
<path d="M108.311 24.2402H105.191V31.0702H108.311V24.2402Z" fill="white"/>
</mask>
<g mask="url(#mask4_396_8469)">
<path d="M108.311 28.4902L105.191 31.0702V26.8402L108.311 24.2402V28.4902Z" fill="white"/>
</g>
<path d="M126.202 40.8599H123.012V73.5599H126.202V40.8599Z" fill="white"/>
<mask id="mask5_396_8469" style="mask-type:luminance" maskUnits="userSpaceOnUse" x="123" y="40" width="4" height="34">
<path d="M126.202 40.8599H123.012V73.5599H126.202V40.8599Z" fill="white"/>
</mask>
<g mask="url(#mask5_396_8469)">
<path d="M126.212 73.5499H123.012V40.8599L126.212 43.5399V73.5499Z" fill="white"/>
</g>
</g>
<defs>
<clipPath id="clip0_396_8469">
<rect width="229.83" height="134.08" fill="white"/>
</clipPath>
</defs>
</svg>
